<svg xmlns="http://www.w3.org/2000/svg">
    <symbol id="baggage-none" viewBox="0 0 25 30">
        <rect x="10.45" y="2.25" width="3.5" height="7" style="fill:none;stroke:#e84040;stroke-miterlimit:10;stroke-width:.5px"></rect>
        <path d="M8.7,1.25a1,1,0,0,1,1-1h5a1,1,0,0,1,0,2h-5A1,1,0,0,1,8.7,1.25Z" style="fill:none;stroke:#e84040;stroke-miterlimit:10;stroke-width:.5px" />
        <rect x="5.7" y="9.25" width="13" height="18" rx="0.5" ry="0.5" style="fill:none;stroke:#e84040;stroke-miterlimit:10;stroke-width:.5px"></rect>
        <path d="M17.2,27.26v1a1,1,0,0,1-1,1h-1a1,1,0,0,1-1-1v-1" style="fill:none;stroke:#e84040;stroke-miterlimit:10;stroke-width:.5px" />
        <path d="M8.2,11.75v13" style="fill:none;stroke:#e84040;stroke-linecap:square;stroke-width:.5px" />
        <path d="M16.2,11.75v13" style="fill:none;stroke:#e84040;stroke-linecap:square;stroke-width:.5px" />
        <path d="M12.2,11.75v13" style="fill:none;stroke:#e84040;stroke-linecap:square;stroke-width:.5px" />
        <path d="M12.5,17.68,24,6.06l-.27-.27L12.23,17.41.78,5.81l-.26.27L12,17.68.25,29.51l.27.27L12.23,18,24,29.83l.27-.27Z" style="fill:#e84040" />
        <path d="M10.2,27.26v1a1,1,0,0,1-1,1h-1a1,1,0,0,1-1-1v-1" style="fill:none;stroke:#e84040;stroke-miterlimit:10;stroke-width:.5px" />
    </symbol>
    <symbol id="baggage" viewBox="0 0 25 30">
        <rect x="10.45" y="2.25" width="3.5" height="7" style="fill:none;stroke:#4ea31e;stroke-miterlimit:10;stroke-width:.5px"></rect>
        <path d="M8.7,1.25a1,1,0,0,1,1-1h5a1,1,0,0,1,0,2h-5A1,1,0,0,1,8.7,1.25Z" style="fill:none;stroke:#4ea31e;stroke-miterlimit:10;stroke-width:.5px" />
        <rect x="5.7" y="9.25" width="13" height="18" rx="0.5" ry="0.5" style="fill:none;stroke:#4ea31e;stroke-miterlimit:10;stroke-width:.5px"></rect>
        <path d="M17.2,27.26v1a1,1,0,0,1-1,1h-1a1,1,0,0,1-1-1v-1" style="fill:none;stroke:#4ea31e;stroke-miterlimit:10;stroke-width:.5px" />
        <path d="M8.2,11.75v13" style="fill:none;stroke:#4ea31e;stroke-linecap:square;stroke-width:.5px" />
        <path d="M16.2,11.75v13" style="fill:none;stroke:#4ea31e;stroke-linecap:square;stroke-width:.5px" />
        <path d="M12.2,11.75v13" style="fill:none;stroke:#4ea31e;stroke-linecap:square;stroke-width:.5px" />
        <path d="M10.2,27.26v1a1,1,0,0,1-1,1h-1a1,1,0,0,1-1-1v-1" style="fill:none;stroke:#4ea31e;stroke-miterlimit:10;stroke-width:.5px" />
    </symbol>
    <symbol id="baggage-unknown" viewBox="0 0 25 30">
        <rect x="10.49" y="2.25" width="3.5" height="7" style="fill:none;stroke:#949494;stroke-miterlimit:10;stroke-width:.5px"></rect>
        <path d="M8.74,1.25a1,1,0,0,1,1-1h5a1,1,0,0,1,0,2h-5A1,1,0,0,1,8.74,1.25Z" style="fill:none;stroke:#949494;stroke-miterlimit:10;stroke-width:.5px" />
        <rect x="5.74" y="9.25" width="13" height="18" rx="0.5" ry="0.5" style="fill:none;stroke:#949494;stroke-miterlimit:10;stroke-width:.5px"></rect>
        <path d="M17.24,27.26v1a1,1,0,0,1-1,1h-1a1,1,0,0,1-1-1v-1" style="fill:none;stroke:#949494;stroke-miterlimit:10;stroke-width:.5px" />
        <path d="M8.24,11.75v13" style="fill:none;stroke:#949494;stroke-linecap:square;stroke-width:.5px" />
        <path d="M16.24,11.75v13" style="fill:none;stroke:#949494;stroke-linecap:square;stroke-width:.5px" />
        <path d="M12.24,11.75v13" style="fill:none;stroke:#949494;stroke-linecap:square;stroke-width:.5px" />
        <path d="M10.24,27.26v1a1,1,0,0,1-1,1h-1a1,1,0,0,1-1-1v-1" style="fill:none;stroke:#949494;stroke-miterlimit:10;stroke-width:.5px" />
    </symbol>
    <symbol id="luggage-none" viewBox="0 0 25 30">
        <path d="M7.62,13.32a3.21,3.21,0,0,1,.63-1.56A1.86,1.86,0,0,1,9.74,11h5a1.86,1.86,0,0,1,1.49.74,3.22,3.22,0,0,1,.64,1.57" style="fill:none;stroke:#e84040;stroke-miterlimit:10;stroke-width:.5px" />
        <path d="M7,19.07V17.51H2.8v4.75A1.94,1.94,0,0,0,4.74,24.2h15a1.94,1.94,0,0,0,1.94-1.94V17.51H17.49v1.56" style="fill:none;stroke:#e84040;stroke-miterlimit:10;stroke-width:.5px" />
        <line x1="16.99" y1="17.51" x2="7.49" y2="17.51" style="fill:none;stroke:#e84040;stroke-miterlimit:10;stroke-width:.5px"></line>
        <path d="M7,16.57v.94H2.8V15.26a1.93,1.93,0,0,1,1.94-1.93h15a1.93,1.93,0,0,1,1.94,1.93v2.25H17.49v-.94" style="fill:none;stroke:#e84040;stroke-miterlimit:10;stroke-width:.5px" />
        <line x1="17.49" y1="17.51" x2="7.05" y2="17.51" style="fill:none;stroke:#e84040;stroke-miterlimit:10;stroke-width:.5px"></line>
        <path d="M12.5,17.68,24,6.06l-.27-.27L12.23,17.41.78,5.81l-.26.27L12,17.68.25,29.51l.27.27L12.23,18,24,29.83l.27-.27Z" style="fill:#e84040" />
    </symbol>
    <symbol id="luggage" viewBox="0 0 25 30">
        <path d="M7.6,13.32a3.22,3.22,0,0,1,.64-1.56A1.86,1.86,0,0,1,9.73,11h5a1.88,1.88,0,0,1,1.5.74,3.22,3.22,0,0,1,.64,1.57" style="fill:none;stroke:#4ea31e;stroke-miterlimit:10;stroke-width:.5px" />
        <path d="M7,19.07V17.51H2.79v4.75A1.94,1.94,0,0,0,4.73,24.2h15a1.93,1.93,0,0,0,1.93-1.94V17.51H17.47v1.56" style="fill:none;stroke:#4ea31e;stroke-miterlimit:10;stroke-width:.5px" />
        <line x1="16.97" y1="17.51" x2="7.47" y2="17.51" style="fill:none;stroke:#4ea31e;stroke-miterlimit:10;stroke-width:.5px"></line>
        <path d="M7,16.57v.94H2.79V15.26a1.93,1.93,0,0,1,1.94-1.93h15a1.92,1.92,0,0,1,1.93,1.93v2.25H17.47v-.94" style="fill:none;stroke:#4ea31e;stroke-miterlimit:10;stroke-width:.5px" />
        <line x1="17.47" y1="17.51" x2="7.04" y2="17.51" style="fill:none;stroke:#4ea31e;stroke-miterlimit:10;stroke-width:.5px"></line>
    </symbol>
    <symbol id="luggage-unknown" viewBox="0 0 25 30">
        <path d="M7.62,13.32a3.21,3.21,0,0,1,.63-1.56A1.86,1.86,0,0,1,9.74,11h5a1.86,1.86,0,0,1,1.49.74,3.22,3.22,0,0,1,.64,1.57" style="fill:none;stroke:#949494;stroke-miterlimit:10;stroke-width:.5px" />
        <path d="M7,19.07V17.51H2.8v4.75A1.94,1.94,0,0,0,4.74,24.2h15a1.94,1.94,0,0,0,1.94-1.94V17.51H17.49v1.56" style="fill:none;stroke:#949494;stroke-miterlimit:10;stroke-width:.5px" />
        <line x1="16.99" y1="17.51" x2="7.49" y2="17.51" style="fill:none;stroke:#949494;stroke-miterlimit:10;stroke-width:.5px"></line>
        <path d="M7,16.57v.94H2.8V15.26a1.93,1.93,0,0,1,1.94-1.93h15a1.93,1.93,0,0,1,1.94,1.93v2.25H17.49v-.94" style="fill:none;stroke:#949494;stroke-miterlimit:10;stroke-width:.5px" />
        <line x1="17.49" y1="17.51" x2="7.05" y2="17.51" style="fill:none;stroke:#949494;stroke-miterlimit:10;stroke-width:.5px"></line>
    </symbol>
    <symbol id="money-none" viewBox="-0.5 1 25 30">
        <path d="M19.45,17.74,8,22.62c-.38.13-.64,0-.9-.39l-2.56-6c-.13-.39,0-.65.38-.9l11.43-4.88c.39-.13.64,0,.9.38l2.57,6A.66.66,0,0,1,19.45,17.74Z" style="fill:#fff;stroke:#e84040;stroke-miterlimit:10;stroke-width:.5px" />
        <path d="M18.94,23.26H6.35a.61.61,0,0,1-.64-.64V16.07a.6.6,0,0,1,.64-.64H18.81a.6.6,0,0,1,.64.64v6.55A.51.51,0,0,1,18.94,23.26Z" style="fill:#fff;stroke:#e84040;stroke-miterlimit:10;stroke-width:.5px" />
        <path d="M1.55,14.2a11.33,11.33,0,0,1,10.6-7.62A11.2,11.2,0,1,1,1,17.78" style="fill:none;stroke:#e84040;stroke-miterlimit:10;stroke-width:.5px" />
        <polyline points="3.57 13.25 1.67 14.32 1.43 14.2 0.59 12.18" style="fill:none;stroke:#e84040;stroke-miterlimit:10;stroke-width:.5px"></polyline>
        <line x1="15.49" y1="16.11" x2="15.49" y2="23.38" style="fill:none;stroke:#e84040;stroke-miterlimit:10;stroke-width:.5px"></line>
        <rect x="11.17" y="17.67" width="7.19" height="3.34" style="fill:none;stroke:#fff;stroke-miterlimit:10"></rect>
    </symbol>
    <symbol id="money" viewBox="-0.5 1 25 30">
        <path d="M1.55,14.18a11.33,11.33,0,0,1,10.6-7.63A11.2,11.2,0,1,1,1,17.75" style="fill:none;stroke:#4ea31e;stroke-miterlimit:10;stroke-width:.5px" />
        <polyline points="3.45 13.34 1.67 14.29 1.31 14.29 0.59 12.27" style="fill:none;stroke:#4ea31e;stroke-miterlimit:10;stroke-width:.5px"></polyline>
        <path d="M19.43,18.32,8,23.19c-.39.13-.64,0-.9-.38l-2.57-6c-.13-.38,0-.64.39-.89L16.35,11c.38-.13.64,0,.9.38l2.56,6A1,1,0,0,1,19.43,18.32Z" style="fill:#fff;stroke:#4ea31e;stroke-miterlimit:10;stroke-width:.5px" />
        <path d="M18.79,23.84H6.33a.61.61,0,0,1-.64-.65V16.65A.61.61,0,0,1,6.33,16H18.79a.61.61,0,0,1,.64.65v6.54A.61.61,0,0,1,18.79,23.84Z" style="fill:#fff;stroke:#4ea31e;stroke-miterlimit:10;stroke-width:.5px" />
        <line x1="15.83" y1="16" x2="15.83" y2="23.84" style="fill:none;stroke:#4ea31e;stroke-miterlimit:10;stroke-width:.5px"></line>
        <rect x="10.16" y="18.25" width="7.19" height="3.34" style="fill:none;stroke:#fff;stroke-miterlimit:10"></rect>
    </symbol>
    <symbol id="money-unknown" viewBox="-0.5 1 25 30">
        <path d="M1.55,14.1a11.32,11.32,0,0,1,10.6-7.62A11.2,11.2,0,1,1,1,17.67" style="fill:none;stroke:#949494;stroke-miterlimit:10;stroke-width:.5px" />
        <polyline points="3.45 13.15 1.67 14.22 1.31 14.1 0.59 12.07" style="fill:none;stroke:#949494;stroke-miterlimit:10;stroke-width:.5px"></polyline>
        <path d="M19.42,17.81,8,22.69c-.39.13-.65,0-.9-.38l-2.57-6c-.13-.38,0-.64.38-.9l11.43-4.88c.39-.12.64,0,.9.39l2.57,6A.66.66,0,0,1,19.42,17.81Z" style="fill:#fff;stroke:#949494;stroke-miterlimit:10;stroke-width:.5px" />
        <path d="M18.91,23.34H6.45a.61.61,0,0,1-.64-.65V16.14a.61.61,0,0,1,.64-.64H18.91a.6.6,0,0,1,.64.64v6.55A.69.69,0,0,1,18.91,23.34Z" style="fill:#fff;stroke:#949494;stroke-miterlimit:10;stroke-width:.5px" />
        <line x1="16.34" y1="15.5" x2="16.34" y2="23.34" style="fill:none;stroke:#949494;stroke-miterlimit:10;stroke-width:.5px"></line>
        <rect x="11.44" y="17.75" width="7.19" height="3.34" style="fill:none;stroke:#fff;stroke-miterlimit:10"></rect>
    </symbol>
    <symbol id="ticket-none" viewBox="-0.5 1 25 30">
        <path d="M22.72,21.38A11.11,11.11,0,0,1,1.1,17.8" style="fill:none;stroke:#e84040;stroke-miterlimit:10;stroke-width:.5px" />
        <path d="M1.58,14.22A11.11,11.11,0,0,1,23.2,17.8" style="fill:none;stroke:#e84040;stroke-miterlimit:10;stroke-width:.5px" />
        <polyline points="4.08 13.26 1.7 14.45 1.46 14.34 0.5 11.95" style="fill:none;stroke:#e84040;stroke-miterlimit:10;stroke-width:.5px"></polyline>
        <polyline points="20.34 22.22 22.72 21.15 23.08 21.27 23.8 23.89" style="fill:none;stroke:#e84040;stroke-miterlimit:10;stroke-width:.5px"></polyline>
    </symbol>
    <symbol id="ticket" viewBox="-0.5 1 25 30">
        <path d="M22.69,21.48A11.11,11.11,0,0,1,1.06,17.9" style="fill:none;stroke:#4ea31e;stroke-miterlimit:10;stroke-width:.5px" />
        <path d="M1.54,14.19a11.11,11.11,0,0,1,21.63,3.59" style="fill:none;stroke:#4ea31e;stroke-miterlimit:10;stroke-width:.5px" />
        <polyline points="4.05 13.24 1.66 14.55 1.3 14.43 0.35 11.92" style="fill:none;stroke:#4ea31e;stroke-miterlimit:10;stroke-width:.5px"></polyline>
        <polyline points="20.3 22.2 22.69 21.12 23.05 21.24 23.76 23.87" style="fill:none;stroke:#4ea31e;stroke-miterlimit:10;stroke-width:.5px"></polyline>
    </symbol>
    <symbol id="ticket-unknown" viewBox="-0.5 1 25 30">
        <path d="M22.78,21.36A11.11,11.11,0,0,1,1.16,17.78" style="fill:none;stroke:#949494;stroke-miterlimit:10;stroke-width:.5px" />
        <path d="M1.64,14.19a11.11,11.11,0,0,1,21.62,3.59" style="fill:none;stroke:#949494;stroke-miterlimit:10;stroke-width:.5px" />
        <polyline points="4.14 13.12 1.75 14.43 1.4 14.31 0.44 11.8" style="fill:none;stroke:#949494;stroke-miterlimit:10;stroke-width:.5px"></polyline>
        <polyline points="20.39 22.08 22.78 21 23.14 21.24 23.86 23.75" style="fill:none;stroke:#949494;stroke-miterlimit:10;stroke-width:.5px"></polyline>
    </symbol>
    <symbol id="train" viewBox="0 0 43 76.42">
        <line class="cls-1" x1="22.23" y1="46.94" x2="4" y2="75.06" style="fill:#949494;stroke:#949494;stroke-miterlimit:10;stroke-width:5px;" />
        <line class="cls-1" x1="39" y1="75.06" x2="20.77" y2="46.94" style="fill:#949494;stroke:#949494;stroke-miterlimit:10;stroke-width:5px;" />
        <path class="cls-2" d="M24.25.5h-5.5A18.3,18.3,0,0,0,.5,18.75v24.5A18.3,18.3,0,0,0,18.75,61.5h5.5A18.3,18.3,0,0,0,42.5,43.25V18.75A18.3,18.3,0,0,0,24.25.5ZM7.5,47.5a2,2,0,1,1,2-2A2,2,0,0,1,7.5,47.5ZM20,24.09A1.91,1.91,0,0,1,18.12,26H3.91A1.9,1.9,0,0,1,2,24.09V17.91A1.9,1.9,0,0,1,3.91,16H18.12A1.91,1.91,0,0,1,20,17.91ZM17.5,7A4.5,4.5,0,1,1,22,11.5,4.49,4.49,0,0,1,17.5,7Zm18,40.5a2,2,0,1,1,2-2A2,2,0,0,1,35.5,47.5ZM41,24.09A1.9,1.9,0,0,1,39.09,26H24.88A1.91,1.91,0,0,1,23,24.09V17.91A1.91,1.91,0,0,1,24.88,16H39.09A1.9,1.9,0,0,1,41,17.91Z" style="fill:#949494;stroke:#949494;stroke-miterlimit:10;" />
        <path class="cls-2" d="M39.13,31.5H3.88A3.39,3.39,0,0,0,.5,34.88V61H1.58A2.43,2.43,0,0,1,4,63.42V64.5H39V63.42A2.43,2.43,0,0,1,41.42,61H42.5V34.88A3.39,3.39,0,0,0,39.13,31.5ZM7.5,47.5a2,2,0,1,1,2-2A2,2,0,0,1,7.5,47.5Zm28,0a2,2,0,1,1,2-2A2,2,0,0,1,35.5,47.5Z" style="fill:#949494;stroke:#949494;stroke-miterlimit:10;" />
        <circle class="cls-3" cx="7.5" cy="45.5" r="2" style="stroke-miterlimit:10;fill:#fff;stroke:#fff;" />
        <circle class="cls-3" cx="35.5" cy="45.5" r="2" style="stroke-miterlimit:10;fill:#fff;stroke:#fff;" />
    </symbol>
</svg>
