<?xml version="1.0" encoding="utf-8"?>
<svg xmlns="http://www.w3.org/2000/svg" style="display: none">
  <symbol id="briefcase" viewBox="0 0 319.741 319.741">
    <path d="M300.461,55.3h-88.369V42.716c0-12.404-10.09-22.494-22.494-22.494H130.15c-12.404,0-22.494,10.09-22.494,22.494V55.3
      H19.281C8.651,55.3,0,63.95,0,74.58v78.729c0,6.427,3.188,12.089,8.034,15.591v111.338c0,10.63,8.651,19.281,19.281,19.281h265.113
      c10.63,0,19.28-8.651,19.28-19.281V168.9c4.846-3.503,8.034-9.165,8.034-15.592V74.58C319.741,63.95,311.091,55.3,300.461,55.3z
       M126.936,42.716c0-1.774,1.446-3.213,3.213-3.213h59.448c1.767,0,3.213,1.44,3.213,3.213V55.3h-65.875V42.716z M298.854,280.239
      c0,3.548-2.879,6.427-6.427,6.427H27.314c-3.548,0-6.427-2.879-6.427-6.427V172.589h107.052v10.244h4.229v26.71
      c0,7.095,5.752,12.854,12.854,12.854h28.921c7.095,0,12.854-5.758,12.854-12.854v-26.71h5.007v-10.244h107.045v107.649H298.854z
       M306.888,153.309c0,2.629-1.594,4.884-3.869,5.881l-0.135,0.058c-0.752,0.308-1.562,0.488-2.423,0.488H19.281
      c-0.861,0-1.677-0.18-2.423-0.488l-0.135-0.058c-2.275-0.99-3.875-3.246-3.875-5.881V74.58c0-3.541,2.879-6.427,6.427-6.427h281.18
      c3.548,0,6.427,2.886,6.427,6.427v78.729H306.888z"/>
  </symbol>
  <symbol id="luggage" viewBox="0 0 445.6 445.6">
    <path d="M355.2,114.4c-8-8-18.8-12.8-30.8-12.8H296V27.2c0-7.2-2.4-14-6.8-18.8c-4.4-5.2-10.8-8.4-18-8.4h-96.8
      c-7.2,0-13.6,3.2-18,8.4c-4.4,4.8-6.8,11.6-6.8,18.8v74h-28.4c-12,0-23.2,4.8-30.8,12.8c-8,8-12.8,18.8-12.8,30.8V362
      c0,12,4.8,23.2,12.8,30.8c6,6,14,10.4,23.2,12v9.2c0,8.8,3.6,16.8,9.2,22.4c5.6,5.6,13.6,9.2,22.4,9.2h1.2
      c8.8,0,16.8-3.6,22.4-9.2c5.6-5.6,9.2-13.6,9.2-22.4v-8.4h89.6v8.4c0,8.8,3.6,16.8,9.2,22.4c5.6,5.6,13.6,9.2,22.4,9.2h1.2
      c8.4,0,16.4-3.2,22-8.8l0.4-0.4c5.6-5.6,9.2-13.6,9.2-22.4v-9.2c8.8-1.6,16.8-6,23.2-12c8-8,12.8-18.8,12.8-30.8V145.2
      C368,133.2,363.2,122,355.2,114.4z M165.2,27.2c0-3.2,1.2-6.4,3.2-8.4c1.6-2,3.6-2.8,6-2.8h96.8c2.4,0,4.4,1.2,6,2.8
      c2,2,3.2,5.2,3.2,8.4v74H262V52.8c0-5.2-1.2-10-3.6-13.6c-2.8-4.8-7.2-7.6-12.4-7.6h-46.4c-5.2,0-9.6,2.8-12.4,7.6
      c-2.4,3.6-3.6,8.4-3.6,13.6v48.8h-18.4V27.2z M199.6,52.8c0-2.4,0.4-4,1.2-5.6h44c0.8,1.2,1.2,3.2,1.2,5.2v48.8h-46.4V52.8z
       M162,414.8c0,4.4-1.6,8.4-4.8,11.2c-2.8,2.8-6.8,4.8-11.2,4.8h-1.2c-4.4,0-8.4-1.6-11.2-4.8c-2.8-2.8-4.8-6.8-4.8-11.2v-8.4H162
      V414.8z M316.8,414.8L316.8,414.8c0,4.4-1.6,8.4-4.8,11.2l-0.4,0.4c-2.8,2.8-6.8,4.4-10.8,4.4h-1.2c-4.4,0-8.4-1.6-11.2-4.8
      c-2.8-2.8-4.8-6.8-4.8-11.2v-8.4h33.2V414.8z M352.8,362.4c0,7.6-3.2,14.8-8.4,19.6c-5.2,5.2-12,8.4-19.6,8.4h-49.2H170h-49.2
      c-7.6,0-14.8-3.2-19.6-8.4c-5.2-5.2-8.4-12-8.4-19.6V145.2c0-7.6,3.2-14.8,8.4-19.6c5.2-5.2,12-8.4,19.6-8.4h36.4h34h62.4h34H324
      c8.4,0,15.2,3.2,20.4,8.4c5.2,5.2,8.4,12,8.4,19.6V362.4z"/>
  </symbol>
  <symbol id="return" viewBox="0 0 512 512">
    <path d="M288.502,32.502c-108.328,0-198.827,77.485-219.166,179.899l-42.482-53.107L0,180.784l68.769,85.961
      c3.352,4.178,8.338,6.447,13.427,6.447c2.596,0,5.226-0.585,7.685-1.805l103.153-51.577l-15.387-30.757l-75.8,37.892
      c14.063-90.5,92.27-160.059,186.655-160.059c104.271,0,189.114,84.843,189.114,189.114s-84.843,189.114-189.114,189.114v34.384
      C411.735,479.498,512,379.233,512,256S411.735,32.502,288.502,32.502z"/>
  </symbol>
  <symbol id="route" viewBox="0 -128 512 512">
    <path fill="#959595" d="M205.4,273.5l100.9,0.1c4.8,19.1,17.6,36.2,36.6,45.7c34.7,17.4,77,3.3,94.4-31.4s3.3-77.1-31.3-94.4
      c-34.7-17.4-77-3.3-94.4,31.4c-2.3,4.6-4.1,9.4-5.3,14.2L205.4,239 M205.9,239.4c-7.4-29.5-33.4-51.9-65.2-53.3
      c-38.8-1.7-71.7,28.5-73.3,67.2c-1.7,38.8,28.5,71.7,67.2,73.4c33.6,1.5,62.8-21.1,71.1-52.4 M135,291.7c-19.7-1-34.9-17.8-34-37.5
      c1-19.7,17.8-35,37.4-34c19.7,1,34.9,17.8,34,37.5C171.5,277.4,154.7,292.6,135,291.7z M358.4,288.4c-17.6-8.8-24.8-30.4-15.9-48
      c8.8-17.6,30.4-24.8,48-16s24.8,30.4,15.9,48C397.6,290.1,376.1,297.2,358.4,288.4z"/>
  </symbol>
  <symbol id="route-difficult" viewBox="0 0 297 297">
    <path d="M256.195,7.594c-22.498,0-40.802,18.314-40.802,40.826c0,2.994,0.333,5.912,0.947,8.725l-52.365,26.201  c-7.488-8.664-18.541-14.164-30.861-14.164c-22.499,0-40.803,18.314-40.803,40.826s18.304,40.826,40.803,40.826  c3.197,0,6.306-0.382,9.293-1.081l25.062,37.622c-8.351,7.481-13.618,18.34-13.618,30.411c0,2.318,0.205,4.589,0.577,6.802  l-74.499,12.425c-4.998-16.894-20.641-29.259-39.125-29.259C18.305,207.754,0,226.067,0,248.578  c0,22.514,18.305,40.828,40.804,40.828c19.531,0,35.893-13.805,39.872-32.174l82.316-13.73c7.487,9.211,18.897,15.109,31.661,15.109  c22.501,0,40.807-18.314,40.807-40.825c0-22.511-18.306-40.825-40.807-40.825c-3.197,0-6.305,0.383-9.291,1.081L160.3,140.419  c8.351-7.481,13.617-18.34,13.617-30.411c0-2.994-0.333-5.911-0.947-8.723l52.366-26.202c7.487,8.665,18.54,14.165,30.859,14.165  c22.5,0,40.805-18.315,40.805-40.828C297,25.908,278.695,7.594,256.195,7.594z M40.804,269.34c-11.435,0-20.737-9.313-20.737-20.762  c0-11.446,9.303-20.759,20.737-20.759s20.736,9.313,20.736,20.759C61.54,260.026,52.238,269.34,40.804,269.34z M215.394,217.786  c0,11.447-9.304,20.759-20.74,20.759c-11.435,0-20.736-9.311-20.736-20.759c0-11.446,9.302-20.759,20.736-20.759  C206.09,197.027,215.394,206.34,215.394,217.786z M112.378,110.008c0-11.447,9.302-20.76,20.736-20.76  c11.434,0,20.736,9.313,20.736,20.76s-9.302,20.76-20.736,20.76C121.68,130.768,112.378,121.455,112.378,110.008z M256.195,69.182  c-11.434,0-20.735-9.314-20.735-20.762c0-11.447,9.302-20.76,20.735-20.76c11.436,0,20.738,9.312,20.738,20.76  C276.934,59.867,267.631,69.182,256.195,69.182z" />
  </symbol>
  <symbol id="viber" viewBox="0 0 512 512">
    <path fill="#665CAC" d="M307.207,0H204.794C105.969,0,25.571,80.398,25.571,179.223v76.81
      c0,69.381,40.014,132.344,102.413,161.961v85.537c0,7.427,9.291,11.31,14.569,6.035l74.309-74.31h90.344
      c98.824,0,179.223-80.398,179.223-179.223v-76.81C486.429,80.398,406.03,0,307.207,0z"/>
    <path fill="#523494" d="M153.587,417.993c-62.399-29.618-102.413-92.58-102.413-161.961v-76.81
      C51.174,80.398,131.573,0,230.397,0h-25.603C105.969,0,25.571,80.398,25.571,179.223v76.81c0,69.381,40.014,132.344,102.413,161.961
      v85.537c0,7.427,9.291,11.31,14.569,6.035l11.034-11.034V417.993z"/>
    <path fill="#FFFFFF" d="M384.85,318.101l-7.673-41.566c-0.635-3.434-3.295-6.135-6.719-6.82l-60.347-12.069
      c-2.803-0.558-5.691,0.317-7.71,2.334l-24.517,24.518c-41.308-18.509-64.234-41.485-84.406-84.566l24.438-24.437
      c2.017-2.018,2.893-4.912,2.334-7.71l-12.069-60.348c-0.685-3.423-3.386-6.085-6.82-6.719l-41.566-7.672
      c-1.138-0.209-2.31-0.187-3.44,0.07c-10.975,2.493-20.989,8.023-28.96,15.996c-13.802,13.802-19.077,33.942-15.253,58.243
      c6.419,40.806,26.411,97.594,63.296,134.627l0.504,0.5c37.004,36.859,93.793,56.853,134.601,63.273
      c5.141,0.81,10.092,1.211,14.84,1.211c17.695,0,32.52-5.582,43.405-16.465c7.971-7.972,13.503-17.986,15.995-28.959
      C385.036,320.411,385.06,319.241,384.85,318.101z"/>
    <g fill="#E5E5E5">
      <polygon points="209.571,183.839 217.915,175.494 217.924,175.485 209.57,183.838 	"/>
      <rect x="292.235" y="264.183" transform="matrix(0.7071 -0.7071 0.7071 0.7071 -99.4675 288.2322)" width="11.916" height="0.002"/>
      <path d="M341.473,350.871c-4.748,0-9.699-0.401-14.84-1.211c-40.807-6.42-97.596-26.414-134.601-63.273
        l-0.504-0.5c-36.885-37.033-56.877-93.821-63.296-134.627c-3.089-19.633-0.233-36.548,8.256-49.601
        c-3.251,2.169-6.302,4.657-9.097,7.452c-13.802,13.802-19.077,33.942-15.253,58.243c6.419,40.806,26.411,97.594,63.296,134.627
        l0.504,0.5c37.004,36.859,93.793,56.853,134.601,63.273c5.141,0.81,10.092,1.211,14.84,1.211c17.695,0,32.52-5.581,43.405-16.465
        c2.794-2.795,5.282-5.845,7.451-9.096C366.598,347.672,354.858,350.871,341.473,350.871z"/>
    </g>
    <g fill="#FFFFFF">
      <path d="M273.069,145.085c-4.713,0-8.534,3.821-8.534,8.534s3.821,8.534,8.534,8.534
        c18.824,0,34.138,15.314,34.138,34.138c0,4.65,3.884,8.534,8.534,8.534s8.534-3.884,8.534-8.534
        C324.276,168.055,301.305,145.085,273.069,145.085z"/>
      <path d="M273.069,110.947c-3.157,0-6.343,0.175-9.471,0.52c-4.685,0.517-8.064,4.734-7.547,9.42
        s4.743,8.056,9.42,7.547c2.508-0.277,5.064-0.418,7.598-0.418c37.647,0,68.275,30.628,68.275,68.275
        c0,2.535-0.141,5.091-0.418,7.599c-0.51,4.621,2.924,8.911,7.547,9.42c4.622,0.509,8.909-2.924,9.42-7.547
        c0.345-3.128,0.52-6.314,0.52-9.472C358.413,149.233,320.128,110.947,273.069,110.947z"/>
      <path d="M273.069,76.81c-3.05,0-6.139,0.116-9.179,0.347c-4.7,0.356-8.222,4.456-7.866,9.155
        c0.355,4.7,4.469,8.222,9.155,7.866c2.613-0.199,5.268-0.299,7.89-0.299c56.471,0,102.413,45.942,102.413,102.413
        c0,7.99-0.922,15.944-2.74,23.64c-1.043,4.41,1.673,8.994,6.046,10.192c4.601,1.26,9.469-1.625,10.565-6.266
        c2.122-8.981,3.198-18.255,3.198-27.566C392.551,130.409,338.952,76.81,273.069,76.81z"/>
    </g>
  </symbol>
  <symbol id="whatsapp" viewBox="0 0 512 512">
    <path fill="#20A83E" d="M437.019,74.98C388.668,26.628,324.38,0,256,0S123.333,26.628,74.98,74.98S0,187.62,0,256
      c0,51.485,15.154,100.938,43.874,143.34L0.69,500.106c-1.343,3.134-0.607,6.966,1.798,9.381c2.495,2.506,6.519,3.206,9.714,1.684
      l96.358-45.885C151.858,495.866,202.721,512,256,512c68.38,0,132.668-26.628,181.019-74.98C485.371,388.667,512,324.38,512,256
      S485.371,123.333,437.019,74.98z"/>
    <circle fill="#E5E5E5" cx="256" cy="256" r="213.333"/>
    <circle fill="#FFFFFF" cx="256" cy="256" r="187.733"/>
    <path fill="#20A83E" d="M392.391,342.641l-7.673-41.561c-0.635-3.432-3.295-6.133-6.718-6.818l-60.339-12.067
      c-2.802-0.559-5.691,0.317-7.709,2.334l-24.514,24.514c-41.302-18.507-64.226-41.478-84.396-84.555l24.435-24.436
      c2.018-2.017,2.893-4.91,2.334-7.708l-12.068-60.34c-0.685-3.423-3.386-6.084-6.819-6.718l-41.561-7.673
      c-1.138-0.21-2.31-0.187-3.44,0.07c-10.974,2.494-20.987,8.023-28.956,15.994c-13.801,13.801-19.075,33.938-15.252,58.237
      c6.418,40.801,26.409,97.583,63.289,134.61l0.502,0.5c37.001,36.855,93.782,56.846,134.583,63.265
      c5.14,0.809,10.092,1.21,14.838,1.21c17.694,0,32.517-5.581,43.4-16.462c7.97-7.971,13.5-17.984,15.993-28.957
      C392.578,344.951,392.602,343.78,392.391,342.641z"/>
    <path fill="#189433" d="M349.996,376.428c-4.747,0-9.698-0.401-14.838-1.21c-40.801-6.419-97.583-26.41-134.583-63.265
      l-0.502-0.5c-36.88-37.027-56.87-93.809-63.289-134.61c-3.323-21.118,0.236-39.088,10.283-52.492
      c-4.388,2.565-8.458,5.689-12.097,9.328c-13.801,13.801-19.075,33.938-15.252,58.237c6.418,40.801,26.409,97.583,63.289,134.61
      l0.502,0.5c37.001,36.855,93.782,56.846,134.583,63.265c5.14,0.809,10.092,1.21,14.838,1.21c17.694,0,32.517-5.581,43.4-16.462
      c1.974-1.974,3.797-4.075,5.463-6.284C372.747,373.836,362.037,376.428,349.996,376.428z"/>
  </symbol>
  <symbol id="train" viewBox="0 0 512 512">
    <path fill="#949494" d="M502.01,381.872H395.696c1.109-3.127,1.718-6.487,1.718-9.99v-9.99h49.336c35.695,0,64.735-29.039,64.735-64.735 c0-17.291-6.733-33.548-18.96-45.775l-6.442-6.442l-55.943-55.943c-0.001-0.001-0.002-0.002-0.004-0.003l-28.501-28.501    c-32.465-32.465-75.629-50.345-121.543-50.345H9.994c-5.517,0-9.99,4.473-9.99,9.99c0,5.516,4.472,9.99,9.99,9.99h270.098    c40.576,0,78.723,15.801,107.414,44.493l11.45,11.45H283.843c-20.932,0-37.961,17.03-37.961,37.961s17.03,37.961,37.961,37.961    H474.88l3.517,3.517c8.452,8.453,13.109,19.692,13.109,31.647c0,24.678-20.078,44.756-44.756,44.756h-59.326h-39.959H104.414    H64.455H9.994c-5.517,0-9.99,4.473-9.99,9.99c0,5.516,4.472,9.99,9.99,9.99h44.471v9.99c0,3.502,0.609,6.863,1.718,9.99H10.509    c-5.517,0-9.99,4.473-9.99,9.99c0,5.516,4.472,9.99,9.99,9.99h167.83c5.517,0,9.99-4.473,9.99-9.99c0-5.516-4.472-9.99-9.99-9.99    h-65.653c1.109-3.127,1.718-6.487,1.718-9.99v-9.99h223.071v9.99c0,3.502,0.609,6.863,1.718,9.99h-82.889    c-5.517,0-9.99,4.473-9.99,9.99c0,5.516,4.472,9.99,9.99,9.99H502.01c5.517,0,9.99-4.473,9.99-9.99    C512,386.346,507.528,381.872,502.01,381.872z M283.843,242.014c-9.915,0-17.982-8.067-17.982-17.982    c0-9.915,8.067-17.982,17.982-17.982h135.094l35.963,35.963H283.843z M94.424,371.882c0,5.508-4.481,9.99-9.99,9.99    c-5.508,0-9.99-4.481-9.99-9.99v-9.99h19.98V371.882z M377.435,371.882c0,5.508-4.481,9.99-9.99,9.99    c-5.508,0-9.99-4.481-9.99-9.99v-9.99h19.98V371.882z" />
    <path fill="#949494" d="M224.362,384.799c-1.858-1.858-4.435-2.927-7.063-2.927c-2.627,0-5.205,1.068-7.063,2.927 c-1.858,1.858-2.927,4.435-2.927,7.063s1.069,5.205,2.927,7.062c1.858,1.858,4.435,2.928,7.063,2.928    c2.627,0,5.205-1.069,7.063-2.928c1.858-1.857,2.927-4.435,2.927-7.062S226.22,386.657,224.362,384.799z" />
    <path fill="#949494" d="M165.836,186.071H48.138c-5.517,0-9.99,4.473-9.99,9.99c0,5.516,4.472,9.99,9.99,9.99h117.698 c9.915,0,17.982,8.067,17.982,17.982s-8.067,17.982-17.983,17.982H9.994c-5.517,0-9.99,4.473-9.99,9.99s4.472,9.99,9.99,9.99    h155.842c20.932,0,37.961-17.03,37.961-37.961S186.767,186.071,165.836,186.071z" />
    <path fill="#949494" d="M17.053,188.998c-1.858-1.859-4.425-2.927-7.063-2.927c-2.627,0-5.205,1.068-7.063,2.927 C1.069,190.856,0,193.433,0,196.06s1.069,5.205,2.927,7.062c1.858,1.858,4.436,2.928,7.063,2.928c2.637,0,5.205-1.069,7.063-2.928    c1.868-1.857,2.927-4.435,2.927-7.062S18.921,190.856,17.053,188.998z" />
  </symbol>
  <symbol id="loco" viewBox="0 -4 24 24">
    <g clip-path="url(#clip0)">
      <path fill-rule="evenodd" clip-rule="evenodd" d="M-0.132238 10.9236C0.304304 10.6677 0.814549 10.3645 1.37581 10.0309C2.91237 9.11775 4.83129 7.97735 6.66698 6.95885C7.91851 6.26445 9.10951 5.63913 10.0935 5.18998C10.3083 5.09192 10.5102 5.00365 10.6983 4.9257C10.6196 5.27148 10.6065 5.64799 10.6861 6.04606L10.7131 6.18126L10.7131 6.18127C10.8983 7.1093 11.3422 9.333 11.8831 11.4532C12.167 12.5661 12.4841 13.6763 12.812 14.5653C12.9753 15.0081 13.1508 15.4223 13.3381 15.7637C13.5026 16.0635 13.7589 16.4669 14.1449 16.703C14.6036 16.9836 15.2938 17.1515 15.9491 17.2535C16.6484 17.3624 17.4662 17.4188 18.2794 17.401C19.0874 17.3833 19.9324 17.2914 20.6708 17.0822C20.7573 17.0577 20.8451 17.0308 20.9335 17.0012C20.9141 17.6028 20.8499 18.0939 20.7432 18.4536C20.7037 18.4783 20.6197 18.5219 20.4601 18.5723C20.0939 18.6879 19.5323 18.7706 18.7713 18.8023C17.2623 18.865 15.2086 18.7198 12.9167 18.445C8.3471 17.8972 3.0068 16.857 -0.417689 16.0838L-0.858211 18.0347C2.60619 18.8169 8.01821 19.8721 12.6787 20.4308C15.0019 20.7093 17.1826 20.8701 18.8544 20.8005C19.6837 20.766 20.449 20.6731 21.0622 20.4795C21.6239 20.3022 22.3558 19.9449 22.6154 19.1662C22.9266 18.2326 22.9781 16.9871 22.9178 15.7261C22.8561 14.4357 22.67 13.0122 22.4341 11.6597C22.1978 10.3049 21.9084 9.00267 21.6342 7.94971C21.3695 6.93292 21.0959 6.05631 20.8757 5.61591C20.7002 5.26499 20.424 4.99187 20.1586 4.78399C19.8849 4.56959 19.564 4.37923 19.2273 4.21025C18.5541 3.87234 17.7307 3.57664 16.885 3.33295C15.897 3.04829 14.8228 2.81892 13.8432 2.67823L13.8437 2.67569C13.7534 2.65792 13.6629 2.64665 13.5725 2.64132C12.9887 2.566 12.4459 2.5246 11.9849 2.5246C11.5839 2.5246 11.136 2.641 10.7215 2.77963C10.2846 2.92576 9.78957 3.13019 9.26298 3.37056C8.20863 3.85184 6.96473 4.50642 5.69666 5.21C3.83245 6.24433 1.86871 7.41137 0.327631 8.32722L0.32755 8.32727L0.327059 8.32756C-0.225586 8.656 -0.723861 8.95212 -1.14368 9.19822L-0.132238 10.9236ZM13.4288 4.63969C13.4011 4.64251 13.3547 4.65092 13.2895 4.67551C13.1732 4.7194 13.0415 4.79934 12.9245 4.91142C12.6884 5.13762 12.5964 5.39927 12.6473 5.65383L12.6737 5.786C12.8589 6.71372 13.2937 8.89181 13.821 10.9588C14.0989 12.048 14.396 13.0804 14.6884 13.8732C14.8353 14.2714 14.9715 14.5828 15.0915 14.8017C15.1627 14.9314 15.2101 14.9944 15.2283 15.018C15.363 15.0823 15.7005 15.1907 16.2568 15.2773C16.8357 15.3675 17.5357 15.4168 18.2355 15.4015C18.9407 15.386 19.6042 15.3057 20.1257 15.1579C20.5044 15.0507 20.7277 14.9308 20.8504 14.8376C20.7667 13.9242 20.6298 12.955 20.4638 12.0033C20.2371 10.7032 19.9593 9.45449 19.6987 8.45367C19.4287 7.41668 19.2 6.7366 19.0868 6.51033L19.0884 6.51351L19.087 6.51178C19.0795 6.5017 19.0394 6.44785 18.9253 6.35847C18.7891 6.25176 18.5921 6.12921 18.3301 5.9977C17.806 5.73464 17.1096 5.47904 16.3312 5.25476C15.3598 4.97487 14.3242 4.76151 13.4288 4.63969ZM9.7856 6.92787L0 11.7824L2.38419e-06 12.6823C1.66667 12.0156 10.1705 9.94805 10.1705 9.94805C10.1705 9.94805 9.63755 7.6385 9.7856 6.92787ZM-4.41074e-06 13.4129V15.3046L12.5028 16.7071L12.2374 16.2478C11.3672 14.7424 10.7847 13.0883 10.5195 11.3698L-4.41074e-06 13.4129Z" fill="#989898"/>
    </g>
    <defs>
      <clipPath id="clip0">
        <rect width="24" height="24" fill="white"/>
      </clipPath>
    </defs>
  </symbol>
  <symbol id="trend" viewBox="0 -4 24 24">
    <g>
      <path d="M16.4 5L18.919 7.67167L13.551 13.365L9.151 8.69833L1 17.355L2.551 19L9.151 12L13.551 16.6667L20.481 9.32833L23 12V5H16.4Z" fill="#989898"/>
    </g>
  </symbol>
  <symbol id="norefund" viewBox="0 -4 32 32">
    <path fill-rule="evenodd" clip-rule="evenodd" d="M8.51931 5.60923C5.24083 7.86701 4.02886 12.1357 5.63177 15.7794L6.58427 13.4976C6.80345 12.9725 7.4068 12.7245 7.93188 12.9437C8.45696 13.1629 8.70494 13.7662 8.48575 14.2913L6.68792 18.5982C6.46874 19.1233 5.86539 19.3713 5.34031 19.1521L1.06196 17.3662C0.536882 17.147 0.288906 16.5437 0.508092 16.0186C0.727279 15.4935 1.33063 15.2455 1.85571 15.4647L3.53852 16.1672C1.78084 11.6006 3.47765 6.42768 7.59865 3.78945C8.82871 3.00197 10.1735 2.50517 11.5456 2.28897C14.7703 1.78085 18.1461 2.82263 20.5392 5.28343C21.165 5.92695 21.692 6.63496 22.1183 7.3871H19.8007C19.5728 7.09086 19.3227 6.80714 19.0505 6.53836C16.7819 4.29832 13.495 3.60217 10.5919 4.5736C9.87012 4.81511 9.17208 5.15968 8.51931 5.60923ZM11.8154 12.6787V10.6949H30V12.6788C28.3628 13.4353 27.2269 15.0919 27.2269 17.0139C27.2269 18.9358 28.3628 20.5924 30 21.3489V23.3333H11.8154V21.349C13.4525 20.5924 14.5885 18.9358 14.5885 17.0138C14.5885 15.0919 13.4525 13.4353 11.8154 12.6787ZM32 9.69487V14.2408C30.4684 14.2408 29.2269 15.4823 29.2269 17.0139C29.2269 18.5454 30.4684 19.7869 32 19.7869V24.3333C32 24.8856 31.5522 25.3333 31 25.3333H10.8154C10.2631 25.3333 9.81538 24.8856 9.81538 24.3333V21.7869V19.7869H9.81539C11.3469 19.7869 12.5885 18.5454 12.5885 17.0138C12.5885 15.4823 11.3469 14.2408 9.81539 14.2408H9.81538V12.2408V9.69487C9.81538 9.14259 10.2631 8.69487 10.8154 8.69487H31C31.5522 8.69487 32 9.14259 32 9.69487Z" fill="#989898"/>
  </symbol>
  <symbol id="er" viewBox="0 0 32 32">
    <path d="M27.648 8.83468C26.364 10.1427 24.262 10.1647 22.9513 8.88535C21.638 7.60335 21.614 5.50002 22.8947 4.18668L21.49 2.81135C21.49 2.81135 21.4887 2.81402 21.4873 2.81602L18.634 0.0280151L0.0926666 19.0013L2.93667 21.78L4.374 23.1834C5.64467 21.8847 7.73 21.8593 9.03133 23.1287C10.3327 24.4007 10.3553 26.4847 9.084 27.7867L10.5213 29.1927L13.366 31.9714L31.9073 12.9967L27.648 8.83468ZM22.584 18.7413L13.3207 28.2233L11.846 26.7833C12.2927 25.0113 11.8333 23.0627 10.4313 21.6953C9.032 20.3273 7.07467 19.9133 5.31267 20.3993L3.838 18.958L13.102 9.47868L14.9973 11.3313L16.3867 9.90935L14.4907 8.05668L18.66 3.79002L20.148 5.24602C19.7107 7.00868 20.1733 8.94402 21.5627 10.3067C22.958 11.6707 24.908 12.0907 26.664 11.6127L28.14 13.0533L23.9713 17.3187L22.1527 15.542L20.762 16.966L22.584 18.7413Z" fill="#F7142F"/>
    <path d="M16.4092 12.7132L19.2733 15.5112L20.6634 14.0883L17.7993 11.2903L16.4092 12.7132Z" fill="#F7142F"/>
  </symbol>
</svg>
