<svg xmlns="http://www.w3.org/2000/svg" style="display: none;">
  <symbol id="blank" viewBox="0 0 60 60">
    <title>blank</title>
    <g fill="#ccc">
      <path d="M38.914,0H6.5v60h47V14.586L38.914,0z M39.5,3.414L50.086,14H39.5V3.414z M8.5,58V2h29v14h14v42H8.5z"/>
    </g>
  </symbol>
  <symbol id="doc" viewBox="0 0 60 60">
    <title>doc</title>
    <g fill="#ccc">
      <path d="M42.5,22h-25c-0.552,0-1,0.447-1,1s0.448,1,1,1h25c0.552,0,1-0.447,1-1S43.052,22,42.5,22z"/>
      <path d="M17.5,16h10c0.552,0,1-0.447,1-1s-0.448-1-1-1h-10c-0.552,0-1,0.447-1,1S16.948,16,17.5,16z"/>
      <path d="M42.5,30h-25c-0.552,0-1,0.447-1,1s0.448,1,1,1h25c0.552,0,1-0.447,1-1S43.052,30,42.5,30z"/>
      <path d="M42.5,38h-25c-0.552,0-1,0.447-1,1s0.448,1,1,1h25c0.552,0,1-0.447,1-1S43.052,38,42.5,38z"/>
      <path d="M42.5,46h-25c-0.552,0-1,0.447-1,1s0.448,1,1,1h25c0.552,0,1-0.447,1-1S43.052,46,42.5,46z"/>
      <path d="M38.914,0H6.5v60h47V14.586L38.914,0z M39.5,3.414L50.086,14H39.5V3.414z M8.5,58V2h29v14h14v42H8.5z"/>
    </g>
  </symbol>
  <symbol id="list" viewBox="0 0 60 60">
    <title>list</title>
    <g fill="#ccc">
      <path d="M38.914,0H6.5v60h47V14.586L38.914,0z M39.5,3.414L50.086,14H39.5V3.414z M8.5,58V2h29v14h14v42H8.5z"/>
      <path d="M42.5,21h-16c-0.552,0-1,0.447-1,1s0.448,1,1,1h16c0.552,0,1-0.447,1-1S43.052,21,42.5,21z"/>
      <path fill="#4EA31E" d="M22.875,18.219l-4.301,3.441l-1.367-1.367c-0.391-0.391-1.023-0.391-1.414,0s-0.391,1.023,0,1.414l2,2
      C17.987,23.901,18.243,24,18.5,24c0.22,0,0.441-0.072,0.624-0.219l5-4c0.432-0.346,0.501-0.975,0.156-1.406
      C23.936,17.943,23.306,17.874,22.875,18.219z"/>
      <path d="M42.5,32h-16c-0.552,0-1,0.447-1,1s0.448,1,1,1h16c0.552,0,1-0.447,1-1S43.052,32,42.5,32z"/>
      <path fill="#4EA31E" d="M22.875,29.219l-4.301,3.441l-1.367-1.367c-0.391-0.391-1.023-0.391-1.414,0s-0.391,1.023,0,1.414l2,2
      C17.987,34.901,18.243,35,18.5,35c0.22,0,0.441-0.072,0.624-0.219l5-4c0.432-0.346,0.501-0.975,0.156-1.406
      C23.936,28.943,23.306,28.874,22.875,29.219z"/>
      <path d="M42.5,43h-16c-0.552,0-1,0.447-1,1s0.448,1,1,1h16c0.552,0,1-0.447,1-1S43.052,43,42.5,43z"/>
      <path fill="#4EA31E" d="M22.875,40.219l-4.301,3.441l-1.367-1.367c-0.391-0.391-1.023-0.391-1.414,0s-0.391,1.023,0,1.414l2,2
      C17.987,45.901,18.243,46,18.5,46c0.22,0,0.441-0.072,0.624-0.219l5-4c0.432-0.346,0.501-0.975,0.156-1.406
      C23.936,39.943,23.306,39.874,22.875,40.219z"/>
    </g>
  </symbol>
  <symbol id="copy" viewBox="0 0 60 60">
    <title>copy</title>
    <g fill="#ccc">
      <path d="M45,25H20c-0.552,0-1,0.447-1,1s0.448,1,1,1h25c0.552,0,1-0.447,1-1S45.552,25,45,25z"/>
      <path d="M20,19h10c0.552,0,1-0.447,1-1s-0.448-1-1-1H20c-0.552,0-1,0.447-1,1S19.448,19,20,19z"/>
      <path d="M45,33H20c-0.552,0-1,0.447-1,1s0.448,1,1,1h25c0.552,0,1-0.447,1-1S45.552,33,45,33z"/>
      <path d="M45,41H20c-0.552,0-1,0.447-1,1s0.448,1,1,1h25c0.552,0,1-0.447,1-1S45.552,41,45,41z"/>
      <path d="M45,49H20c-0.552,0-1,0.447-1,1s0.448,1,1,1h25c0.552,0,1-0.447,1-1S45.552,49,45,49z"/>
      <path d="M49,14.586V0H6v55h5v5h43V19.586L49,14.586z M40,8.414l9,9L50.586,19H40V8.414z M8,53V2h39v10.586L39.414,5H11v48H8z
		 M13,58v-3V7h25v14h14v37H13z"/>
    </g>
  </symbol>
  <symbol id="sign" viewBox="0 0 60 60">
    <title>sign</title>
    <g fill="#ccc">
      <path d="M38.914,0H6.5v60h47V14.586L38.914,0z M39.5,3.414L50.086,14H39.5V3.414z M8.5,58V2h29v14h14v42H8.5z"/>
      <path d="M34.5,37c0.552,0,1-0.447,1-1s-0.448-1-1-1h-17c-0.552,0-1,0.447-1,1s0.448,1,1,1H34.5z"/>
      <path d="M44.5,30h-7c-0.552,0-1,0.447-1,1s0.448,1,1,1h7c0.552,0,1-0.447,1-1S45.052,30,44.5,30z"/>
      <path d="M21.5,31c0,0.553,0.448,1,1,1h10c0.552,0,1-0.447,1-1s-0.448-1-1-1h-10C21.948,30,21.5,30.447,21.5,31z"/>
      <path d="M16.79,30.29c-0.18,0.189-0.29,0.449-0.29,0.71c0,0.26,0.11,0.52,0.29,0.7c0.18,0.189,0.44,0.3,0.71,0.3
		s0.52-0.11,0.71-0.29c0.18-0.19,0.29-0.45,0.29-0.71c0-0.261-0.11-0.521-0.29-0.71C17.84,29.92,17.15,29.93,16.79,30.29z"/>
      <path d="M38.79,35.29c-0.18,0.189-0.29,0.439-0.29,0.71c0,0.27,0.1,0.52,0.29,0.71C38.98,36.89,39.24,37,39.5,37
		c0.26,0,0.52-0.11,0.71-0.29c0.19-0.19,0.29-0.44,0.29-0.71c0-0.261-0.11-0.521-0.29-0.71C39.83,34.92,39.17,34.92,38.79,35.29z"/>
      <path d="M43.79,35.29c-0.18,0.189-0.29,0.439-0.29,0.71c0,0.27,0.1,0.52,0.29,0.71C43.98,36.89,44.24,37,44.5,37
		c0.26,0,0.52-0.11,0.71-0.3c0.19-0.19,0.29-0.44,0.29-0.7c0-0.261-0.11-0.521-0.29-0.71C44.83,34.92,44.17,34.92,43.79,35.29z"/>
      <path fill="#f49530" d="M23.025,40.166c-2.19,1.14-2.927,3.321-3.196,5.582c-0.414-0.347-0.828-0.693-1.242-1.04
		c-0.98-0.821-2.402,0.586-1.414,1.415c0.935,0.783,1.871,1.567,2.806,2.351c0.658,0.551,1.676,0.203,1.707-0.707
		c0.073-2.166,0.175-4.742,2.348-5.873C25.177,41.299,24.166,39.572,23.025,40.166z"/>
      <path fill="#f49530" d="M36.455,44.108c-1.458-0.092-3.592,2.155-4.716,0.153c-0.26-0.464-0.913-0.638-1.368-0.359
		c-1.416,0.869-3.267,2.119-4.756,0.5c-0.873-0.949-2.285,0.468-1.414,1.414c1.87,2.033,4.276,1.415,6.399,0.263
		c0.478,0.535,1.071,0.926,1.837,1.081c0.792,0.16,4.025-1.141,4.2-0.901c0.752,1.029,2.488,0.032,1.727-1.009
		C37.847,44.543,37.371,44.166,36.455,44.108z"/>
      <path d="M28.666,23.963l0.674-0.479l-0.344-0.752c-0.312-0.682-0.813-1.212-1.45-1.532l-2.12-1.082
		c0.975-0.623,1.676-1.561,2.095-2.801c0.684-0.417,1.115-1.158,1.115-1.984v-0.667c0-0.677-0.294-1.308-0.794-1.745
		c-0.357-1.898-1.644-3.951-5.54-3.951c-0.153,0-0.303,0.006-0.451,0.018c-0.523,0.043-1.285,0-1.937-0.438
		c-0.303-0.204-0.458-0.362-0.534-0.459c-0.317-0.403-0.849-0.544-1.324-0.35c-0.474,0.195-0.752,0.669-0.694,1.179
		c0.03,0.257,0.073,0.557,0.138,0.884c0.084,0.42,0.089,0.541,0.086,0.573c-0.008,0.035-0.066,0.159-0.112,0.259
		c-0.07,0.15-0.156,0.335-0.257,0.582c-0.217,0.529-0.375,1.105-0.471,1.719c-0.489,0.438-0.778,1.063-0.778,1.73v0.667
		c0,0.826,0.431,1.567,1.115,1.984c0.417,1.235,1.115,2.171,2.083,2.793l-2.204,1.087c-0.613,0.334-1.091,0.867-1.382,1.541
		l-0.32,0.741l0.656,0.469C17.797,25.291,20.004,26,22.302,26C24.592,26,26.792,25.296,28.666,23.963z M18.016,22.907l2.445-1.204
		c0.519-0.257,0.842-0.776,0.842-1.355v-1.422l-0.604-0.261c-0.912-0.392-1.506-1.151-1.819-2.321l-0.143-0.533l-0.527-0.164
		c-0.116-0.036-0.24-0.149-0.24-0.313v-0.667c0-0.142,0.095-0.242,0.184-0.289l0.469-0.25l0.055-0.529
		c0.062-0.595,0.193-1.14,0.391-1.622c0.086-0.211,0.16-0.368,0.22-0.497c0.155-0.332,0.249-0.578,0.283-0.855
		c0.73,0.305,1.559,0.425,2.44,0.358c0.095-0.008,0.192-0.012,0.291-0.012c2.919,0,3.469,1.334,3.622,2.638l0.061,0.523l0.466,0.245
		c0.089,0.047,0.185,0.147,0.185,0.29v0.667c0,0.164-0.125,0.277-0.24,0.313l-0.527,0.164l-0.143,0.533
		c-0.313,1.17-0.908,1.93-1.819,2.321l-0.604,0.261v1.428c0,0.57,0.315,1.086,0.825,1.347l2.415,1.233
		C23.923,24.343,20.628,24.334,18.016,22.907z"/>
    </g>
  </symbol>
  <symbol id="signed" viewBox="0 0 60 60">
    <title>sign</title>
    <g fill="#ccc">
      <path d="M38.914,0H6.5v60h47V14.586L38.914,0z M39.5,3.414L50.086,14H39.5V3.414z M8.5,58V2h29v14h14v42H8.5z"/>
      <path d="M34.5,37c0.552,0,1-0.447,1-1s-0.448-1-1-1h-17c-0.552,0-1,0.447-1,1s0.448,1,1,1H34.5z"/>
      <path d="M44.5,30h-7c-0.552,0-1,0.447-1,1s0.448,1,1,1h7c0.552,0,1-0.447,1-1S45.052,30,44.5,30z"/>
      <path d="M21.5,31c0,0.553,0.448,1,1,1h10c0.552,0,1-0.447,1-1s-0.448-1-1-1h-10C21.948,30,21.5,30.447,21.5,31z"/>
      <path d="M16.79,30.29c-0.18,0.189-0.29,0.449-0.29,0.71c0,0.26,0.11,0.52,0.29,0.7c0.18,0.189,0.44,0.3,0.71,0.3
		s0.52-0.11,0.71-0.29c0.18-0.19,0.29-0.45,0.29-0.71c0-0.261-0.11-0.521-0.29-0.71C17.84,29.92,17.15,29.93,16.79,30.29z"/>
      <path d="M38.79,35.29c-0.18,0.189-0.29,0.439-0.29,0.71c0,0.27,0.1,0.52,0.29,0.71C38.98,36.89,39.24,37,39.5,37
		c0.26,0,0.52-0.11,0.71-0.29c0.19-0.19,0.29-0.44,0.29-0.71c0-0.261-0.11-0.521-0.29-0.71C39.83,34.92,39.17,34.92,38.79,35.29z"/>
      <path d="M43.79,35.29c-0.18,0.189-0.29,0.439-0.29,0.71c0,0.27,0.1,0.52,0.29,0.71C43.98,36.89,44.24,37,44.5,37
		c0.26,0,0.52-0.11,0.71-0.3c0.19-0.19,0.29-0.44,0.29-0.7c0-0.261-0.11-0.521-0.29-0.71C44.83,34.92,44.17,34.92,43.79,35.29z"/>
      <path fill="#4ea31e" d="M23.025,40.166c-2.19,1.14-2.927,3.321-3.196,5.582c-0.414-0.347-0.828-0.693-1.242-1.04
		c-0.98-0.821-2.402,0.586-1.414,1.415c0.935,0.783,1.871,1.567,2.806,2.351c0.658,0.551,1.676,0.203,1.707-0.707
		c0.073-2.166,0.175-4.742,2.348-5.873C25.177,41.299,24.166,39.572,23.025,40.166z"/>
      <path fill="#4ea31e" d="M36.455,44.108c-1.458-0.092-3.592,2.155-4.716,0.153c-0.26-0.464-0.913-0.638-1.368-0.359
		c-1.416,0.869-3.267,2.119-4.756,0.5c-0.873-0.949-2.285,0.468-1.414,1.414c1.87,2.033,4.276,1.415,6.399,0.263
		c0.478,0.535,1.071,0.926,1.837,1.081c0.792,0.16,4.025-1.141,4.2-0.901c0.752,1.029,2.488,0.032,1.727-1.009
		C37.847,44.543,37.371,44.166,36.455,44.108z"/>
      <path d="M28.666,23.963l0.674-0.479l-0.344-0.752c-0.312-0.682-0.813-1.212-1.45-1.532l-2.12-1.082
		c0.975-0.623,1.676-1.561,2.095-2.801c0.684-0.417,1.115-1.158,1.115-1.984v-0.667c0-0.677-0.294-1.308-0.794-1.745
		c-0.357-1.898-1.644-3.951-5.54-3.951c-0.153,0-0.303,0.006-0.451,0.018c-0.523,0.043-1.285,0-1.937-0.438
		c-0.303-0.204-0.458-0.362-0.534-0.459c-0.317-0.403-0.849-0.544-1.324-0.35c-0.474,0.195-0.752,0.669-0.694,1.179
		c0.03,0.257,0.073,0.557,0.138,0.884c0.084,0.42,0.089,0.541,0.086,0.573c-0.008,0.035-0.066,0.159-0.112,0.259
		c-0.07,0.15-0.156,0.335-0.257,0.582c-0.217,0.529-0.375,1.105-0.471,1.719c-0.489,0.438-0.778,1.063-0.778,1.73v0.667
		c0,0.826,0.431,1.567,1.115,1.984c0.417,1.235,1.115,2.171,2.083,2.793l-2.204,1.087c-0.613,0.334-1.091,0.867-1.382,1.541
		l-0.32,0.741l0.656,0.469C17.797,25.291,20.004,26,22.302,26C24.592,26,26.792,25.296,28.666,23.963z M18.016,22.907l2.445-1.204
		c0.519-0.257,0.842-0.776,0.842-1.355v-1.422l-0.604-0.261c-0.912-0.392-1.506-1.151-1.819-2.321l-0.143-0.533l-0.527-0.164
		c-0.116-0.036-0.24-0.149-0.24-0.313v-0.667c0-0.142,0.095-0.242,0.184-0.289l0.469-0.25l0.055-0.529
		c0.062-0.595,0.193-1.14,0.391-1.622c0.086-0.211,0.16-0.368,0.22-0.497c0.155-0.332,0.249-0.578,0.283-0.855
		c0.73,0.305,1.559,0.425,2.44,0.358c0.095-0.008,0.192-0.012,0.291-0.012c2.919,0,3.469,1.334,3.622,2.638l0.061,0.523l0.466,0.245
		c0.089,0.047,0.185,0.147,0.185,0.29v0.667c0,0.164-0.125,0.277-0.24,0.313l-0.527,0.164l-0.143,0.533
		c-0.313,1.17-0.908,1.93-1.819,2.321l-0.604,0.261v1.428c0,0.57,0.315,1.086,0.825,1.347l2.415,1.233
		C23.923,24.343,20.628,24.334,18.016,22.907z"/>
    </g>
  </symbol>
  <symbol id="stamp" viewBox="0 0 60 60">
    <title>stamp</title>
    <g fill="#ccc">
      <path d="M38.914,0H6.5v60h47V14.586L38.914,0z M39.5,3.414L50.086,14H39.5V3.414z M8.5,58V2h29v14h14v42H8.5z"/>
      <path d="M16.5,17h9c0.553,0,1-0.447,1-1s-0.447-1-1-1h-9c-0.553,0-1,0.447-1,1S15.947,17,16.5,17z"/>
      <path d="M16.5,25h5c0.553,0,1-0.447,1-1s-0.447-1-1-1h-5c-0.553,0-1,0.447-1,1S15.947,25,16.5,25z"/>
      <path d="M31.5,25h7c0.553,0,1-0.447,1-1s-0.447-1-1-1h-7c-0.553,0-1,0.447-1,1S30.947,25,31.5,25z"/>
      <path d="M25.79,23.3c-0.19,0.18-0.29,0.439-0.29,0.7c0,0.26,0.1,0.52,0.29,0.71C25.979,24.89,26.24,25,26.5,25s0.52-0.101,0.71-0.3
		c0.18-0.181,0.29-0.44,0.29-0.7c0-0.261-0.11-0.521-0.29-0.71C26.83,22.92,26.16,22.92,25.79,23.3z"/>
      <path d="M43.5,25c0.26,0,0.52-0.11,0.71-0.29c0.18-0.19,0.29-0.45,0.29-0.71c0-0.261-0.11-0.521-0.29-0.71
		c-0.38-0.37-1.04-0.37-1.42,0c-0.181,0.189-0.29,0.449-0.29,0.71c0,0.26,0.109,0.52,0.29,0.71C42.979,24.89,43.24,25,43.5,25z"/>
      <path d="M28.5,31h-7c-0.553,0-1,0.447-1,1s0.447,1,1,1h7c0.553,0,1-0.447,1-1S29.053,31,28.5,31z"/>
      <path d="M16.5,33c0.26,0,0.52-0.11,0.71-0.29c0.189-0.19,0.29-0.45,0.29-0.71c0-0.261-0.101-0.521-0.29-0.71
		c-0.38-0.37-1.04-0.37-1.42,0C15.6,31.479,15.5,31.729,15.5,32c0,0.26,0.109,0.52,0.29,0.71C15.979,32.89,16.24,33,16.5,33z"/>
      <path d="M19.645,40.166c-2.19,1.14-2.927,3.321-3.196,5.582c-0.414-0.347-0.828-0.693-1.242-1.04
		c-0.98-0.821-2.402,0.586-1.414,1.415c0.935,0.783,1.871,1.567,2.806,2.351c0.658,0.551,1.677,0.203,1.707-0.707
		c0.073-2.166,0.175-4.742,2.348-5.873C21.796,41.299,20.786,39.572,19.645,40.166z"/>
      <path d="M26.295,44.155c-1.385,0.321-2.961,2.083-3.936,0.106c-0.569-1.154-2.295-0.142-1.727,1.009
		c0.517,1.049,1.5,1.784,2.669,1.932c0.594,0.075,1.131-0.009,1.688-0.226c0.409-0.159,1.937-1.308,2.267-0.717
		c0.628,1.124,2.356,0.116,1.727-1.009C28.446,44.288,27.359,43.908,26.295,44.155z"/>
      <path fill="#4EA31E" d="M46.745,34.513c-0.233-0.083-0.336-0.259-0.377-0.357c-0.04-0.098-0.093-0.296,0.014-0.52c0.485-1.022,0.282-2.199-0.518-3
		c-0.801-0.799-1.979-1.003-2.999-0.518c-0.226,0.107-0.424,0.054-0.521,0.014c-0.099-0.041-0.274-0.144-0.357-0.377
		C41.608,28.688,40.632,28,39.5,28s-2.108,0.688-2.487,1.755c-0.083,0.233-0.259,0.336-0.357,0.377
		c-0.097,0.04-0.296,0.094-0.52-0.014c-1.021-0.483-2.198-0.282-3,0.518c-0.8,0.801-1.003,1.978-0.518,2.999
		c0.106,0.225,0.054,0.423,0.014,0.521c-0.041,0.099-0.144,0.274-0.377,0.357C31.188,34.892,30.5,35.868,30.5,37
		s0.688,2.108,1.755,2.487c0.233,0.083,0.336,0.259,0.377,0.357c0.04,0.098,0.093,0.296-0.014,0.52
		c-0.485,1.022-0.282,2.199,0.518,3c0.387,0.386,0.862,0.63,1.364,0.728v12.322l5-5l5,5V44.091c0.502-0.097,0.978-0.34,1.364-0.727
		c0.8-0.801,1.003-1.978,0.518-2.999c-0.106-0.225-0.054-0.423-0.014-0.521c0.041-0.099,0.144-0.274,0.377-0.357
		C47.812,39.108,48.5,38.132,48.5,37S47.812,34.892,46.745,34.513z M39.5,48.586l-3,3v-7.758c0.009,0.001,0.018,0.002,0.026,0.004
		c0.05,0.01,0.098,0.022,0.13,0.036c0.049,0.021,0.118,0.057,0.184,0.116c0.067,0.06,0.132,0.144,0.173,0.261
		C37.392,45.312,38.368,46,39.5,46s2.108-0.688,2.487-1.755c0.041-0.117,0.106-0.201,0.173-0.261
		c0.067-0.06,0.135-0.096,0.184-0.116c0.032-0.013,0.079-0.026,0.129-0.036c0.008-0.001,0.017-0.003,0.026-0.004v7.757L39.5,48.586z
		 M46.075,37.603c-0.702,0.249-1.269,0.787-1.554,1.476c-0.286,0.689-0.267,1.471,0.054,2.146c0.175,0.367-0.029,0.63-0.126,0.726
		c-0.079,0.081-0.281,0.224-0.561,0.17l-0.22-0.069c-0.091-0.041-0.187-0.063-0.281-0.092c-0.07-0.022-0.138-0.052-0.209-0.069
		c-0.098-0.022-0.199-0.028-0.299-0.039c-0.081-0.009-0.16-0.026-0.241-0.028c-0.097-0.002-0.193,0.014-0.289,0.022
		c-0.083,0.008-0.167,0.006-0.25,0.022c-0.177,0.033-0.351,0.084-0.52,0.154c0,0-0.001,0-0.002,0.001h0
		c-0.044,0.018-0.081,0.047-0.124,0.067c-0.124,0.06-0.249,0.119-0.362,0.197c-0.135,0.093-0.258,0.203-0.373,0.319
		c-0.013,0.013-0.03,0.023-0.043,0.037c-0.252,0.265-0.449,0.583-0.574,0.934C39.967,43.959,39.636,44,39.5,44
		s-0.467-0.041-0.603-0.425c-0.125-0.352-0.322-0.669-0.574-0.934c-0.01-0.011-0.023-0.018-0.034-0.029
		c-0.118-0.12-0.244-0.231-0.383-0.327c-0.108-0.075-0.229-0.131-0.348-0.189c-0.047-0.023-0.089-0.055-0.138-0.075h0
		c-0.001,0-0.001-0.001-0.001-0.001c-0.021-0.009-0.043-0.011-0.064-0.019c-0.146-0.056-0.294-0.103-0.445-0.132
		c-0.122-0.024-0.243-0.029-0.365-0.036c-0.045-0.002-0.09-0.013-0.135-0.013c-0.003,0-0.005,0.001-0.008,0.001
		c-0.374-0.001-0.737,0.072-1.047,0.223l-0.227,0.071c-0.287,0.065-0.496-0.083-0.578-0.166c-0.097-0.096-0.301-0.358-0.126-0.727
		c0.32-0.674,0.34-1.455,0.054-2.145c-0.285-0.688-0.852-1.227-1.554-1.476C32.541,37.467,32.5,37.136,32.5,37
		s0.041-0.467,0.425-0.603c0.702-0.249,1.269-0.787,1.554-1.476c0.286-0.689,0.267-1.471-0.054-2.146
		c-0.175-0.367,0.029-0.63,0.126-0.726c0.096-0.097,0.357-0.299,0.727-0.126c0.673,0.32,1.455,0.342,2.145,0.054
		c0.688-0.285,1.227-0.852,1.476-1.554C39.033,30.041,39.364,30,39.5,30s0.467,0.041,0.603,0.425
		c0.25,0.702,0.787,1.269,1.476,1.554c0.688,0.288,1.471,0.267,2.146-0.054c0.366-0.177,0.631,0.029,0.726,0.126
		c0.097,0.096,0.301,0.358,0.126,0.727c-0.32,0.674-0.34,1.455-0.054,2.145c0.285,0.688,0.852,1.227,1.554,1.476
		C46.459,36.533,46.5,36.864,46.5,37S46.459,37.467,46.075,37.603z"/>
    </g>
  </symbol>
  <symbol id="stamp-warning" viewBox="0 0 60 60">
    <title>stamp</title>
    <g fill="#ccc">
      <path d="M38.914,0H6.5v60h47V14.586L38.914,0z M39.5,3.414L50.086,14H39.5V3.414z M8.5,58V2h29v14h14v42H8.5z"/>
      <path d="M16.5,17h9c0.553,0,1-0.447,1-1s-0.447-1-1-1h-9c-0.553,0-1,0.447-1,1S15.947,17,16.5,17z"/>
      <path d="M16.5,25h5c0.553,0,1-0.447,1-1s-0.447-1-1-1h-5c-0.553,0-1,0.447-1,1S15.947,25,16.5,25z"/>
      <path d="M31.5,25h7c0.553,0,1-0.447,1-1s-0.447-1-1-1h-7c-0.553,0-1,0.447-1,1S30.947,25,31.5,25z"/>
      <path d="M25.79,23.3c-0.19,0.18-0.29,0.439-0.29,0.7c0,0.26,0.1,0.52,0.29,0.71C25.979,24.89,26.24,25,26.5,25s0.52-0.101,0.71-0.3
		c0.18-0.181,0.29-0.44,0.29-0.7c0-0.261-0.11-0.521-0.29-0.71C26.83,22.92,26.16,22.92,25.79,23.3z"/>
      <path d="M43.5,25c0.26,0,0.52-0.11,0.71-0.29c0.18-0.19,0.29-0.45,0.29-0.71c0-0.261-0.11-0.521-0.29-0.71
		c-0.38-0.37-1.04-0.37-1.42,0c-0.181,0.189-0.29,0.449-0.29,0.71c0,0.26,0.109,0.52,0.29,0.71C42.979,24.89,43.24,25,43.5,25z"/>
      <path d="M28.5,31h-7c-0.553,0-1,0.447-1,1s0.447,1,1,1h7c0.553,0,1-0.447,1-1S29.053,31,28.5,31z"/>
      <path d="M16.5,33c0.26,0,0.52-0.11,0.71-0.29c0.189-0.19,0.29-0.45,0.29-0.71c0-0.261-0.101-0.521-0.29-0.71
		c-0.38-0.37-1.04-0.37-1.42,0C15.6,31.479,15.5,31.729,15.5,32c0,0.26,0.109,0.52,0.29,0.71C15.979,32.89,16.24,33,16.5,33z"/>
      <path d="M19.645,40.166c-2.19,1.14-2.927,3.321-3.196,5.582c-0.414-0.347-0.828-0.693-1.242-1.04
		c-0.98-0.821-2.402,0.586-1.414,1.415c0.935,0.783,1.871,1.567,2.806,2.351c0.658,0.551,1.677,0.203,1.707-0.707
		c0.073-2.166,0.175-4.742,2.348-5.873C21.796,41.299,20.786,39.572,19.645,40.166z"/>
      <path d="M26.295,44.155c-1.385,0.321-2.961,2.083-3.936,0.106c-0.569-1.154-2.295-0.142-1.727,1.009
		c0.517,1.049,1.5,1.784,2.669,1.932c0.594,0.075,1.131-0.009,1.688-0.226c0.409-0.159,1.937-1.308,2.267-0.717
		c0.628,1.124,2.356,0.116,1.727-1.009C28.446,44.288,27.359,43.908,26.295,44.155z"/>
      <path fill="#f49530" d="M46.745,34.513c-0.233-0.083-0.336-0.259-0.377-0.357c-0.04-0.098-0.093-0.296,0.014-0.52c0.485-1.022,0.282-2.199-0.518-3
		c-0.801-0.799-1.979-1.003-2.999-0.518c-0.226,0.107-0.424,0.054-0.521,0.014c-0.099-0.041-0.274-0.144-0.357-0.377
		C41.608,28.688,40.632,28,39.5,28s-2.108,0.688-2.487,1.755c-0.083,0.233-0.259,0.336-0.357,0.377
		c-0.097,0.04-0.296,0.094-0.52-0.014c-1.021-0.483-2.198-0.282-3,0.518c-0.8,0.801-1.003,1.978-0.518,2.999
		c0.106,0.225,0.054,0.423,0.014,0.521c-0.041,0.099-0.144,0.274-0.377,0.357C31.188,34.892,30.5,35.868,30.5,37
		s0.688,2.108,1.755,2.487c0.233,0.083,0.336,0.259,0.377,0.357c0.04,0.098,0.093,0.296-0.014,0.52
		c-0.485,1.022-0.282,2.199,0.518,3c0.387,0.386,0.862,0.63,1.364,0.728v12.322l5-5l5,5V44.091c0.502-0.097,0.978-0.34,1.364-0.727
		c0.8-0.801,1.003-1.978,0.518-2.999c-0.106-0.225-0.054-0.423-0.014-0.521c0.041-0.099,0.144-0.274,0.377-0.357
		C47.812,39.108,48.5,38.132,48.5,37S47.812,34.892,46.745,34.513z M39.5,48.586l-3,3v-7.758c0.009,0.001,0.018,0.002,0.026,0.004
		c0.05,0.01,0.098,0.022,0.13,0.036c0.049,0.021,0.118,0.057,0.184,0.116c0.067,0.06,0.132,0.144,0.173,0.261
		C37.392,45.312,38.368,46,39.5,46s2.108-0.688,2.487-1.755c0.041-0.117,0.106-0.201,0.173-0.261
		c0.067-0.06,0.135-0.096,0.184-0.116c0.032-0.013,0.079-0.026,0.129-0.036c0.008-0.001,0.017-0.003,0.026-0.004v7.757L39.5,48.586z
		 M46.075,37.603c-0.702,0.249-1.269,0.787-1.554,1.476c-0.286,0.689-0.267,1.471,0.054,2.146c0.175,0.367-0.029,0.63-0.126,0.726
		c-0.079,0.081-0.281,0.224-0.561,0.17l-0.22-0.069c-0.091-0.041-0.187-0.063-0.281-0.092c-0.07-0.022-0.138-0.052-0.209-0.069
		c-0.098-0.022-0.199-0.028-0.299-0.039c-0.081-0.009-0.16-0.026-0.241-0.028c-0.097-0.002-0.193,0.014-0.289,0.022
		c-0.083,0.008-0.167,0.006-0.25,0.022c-0.177,0.033-0.351,0.084-0.52,0.154c0,0-0.001,0-0.002,0.001h0
		c-0.044,0.018-0.081,0.047-0.124,0.067c-0.124,0.06-0.249,0.119-0.362,0.197c-0.135,0.093-0.258,0.203-0.373,0.319
		c-0.013,0.013-0.03,0.023-0.043,0.037c-0.252,0.265-0.449,0.583-0.574,0.934C39.967,43.959,39.636,44,39.5,44
		s-0.467-0.041-0.603-0.425c-0.125-0.352-0.322-0.669-0.574-0.934c-0.01-0.011-0.023-0.018-0.034-0.029
		c-0.118-0.12-0.244-0.231-0.383-0.327c-0.108-0.075-0.229-0.131-0.348-0.189c-0.047-0.023-0.089-0.055-0.138-0.075h0
		c-0.001,0-0.001-0.001-0.001-0.001c-0.021-0.009-0.043-0.011-0.064-0.019c-0.146-0.056-0.294-0.103-0.445-0.132
		c-0.122-0.024-0.243-0.029-0.365-0.036c-0.045-0.002-0.09-0.013-0.135-0.013c-0.003,0-0.005,0.001-0.008,0.001
		c-0.374-0.001-0.737,0.072-1.047,0.223l-0.227,0.071c-0.287,0.065-0.496-0.083-0.578-0.166c-0.097-0.096-0.301-0.358-0.126-0.727
		c0.32-0.674,0.34-1.455,0.054-2.145c-0.285-0.688-0.852-1.227-1.554-1.476C32.541,37.467,32.5,37.136,32.5,37
		s0.041-0.467,0.425-0.603c0.702-0.249,1.269-0.787,1.554-1.476c0.286-0.689,0.267-1.471-0.054-2.146
		c-0.175-0.367,0.029-0.63,0.126-0.726c0.096-0.097,0.357-0.299,0.727-0.126c0.673,0.32,1.455,0.342,2.145,0.054
		c0.688-0.285,1.227-0.852,1.476-1.554C39.033,30.041,39.364,30,39.5,30s0.467,0.041,0.603,0.425
		c0.25,0.702,0.787,1.269,1.476,1.554c0.688,0.288,1.471,0.267,2.146-0.054c0.366-0.177,0.631,0.029,0.726,0.126
		c0.097,0.096,0.301,0.358,0.126,0.727c-0.32,0.674-0.34,1.455-0.054,2.145c0.285,0.688,0.852,1.227,1.554,1.476
		C46.459,36.533,46.5,36.864,46.5,37S46.459,37.467,46.075,37.603z"/>
    </g>
  </symbol>

  <symbol id="add" viewBox="0 0 60 60">
    <title>add</title>
    <g fill="#ccc">
      <path d="M11.5,24 L36.5,24 C37.052,24 37.5,23.552 37.5,23 C37.5,22.448 37.052,22 36.5,22 L11.5,22 C10.948,22 10.5,22.448 10.5,23 C10.5,23.552 10.948,24 11.5,24 Z" />
      <path d="M11.5,16 L21.5,16 C22.052,16 22.5,15.552 22.5,15 C22.5,14.448 22.052,14 21.5,14 L11.5,14 C10.948,14 10.5,14.448 10.5,15 C10.5,15.552 10.948,16 11.5,16 Z" />
      <path d="M11.5,32 L36.5,32 C37.052,32 37.5,31.552 37.5,31 C37.5,30.448 37.052,30 36.5,30 L11.5,30 C10.948,30 10.5,30.448 10.5,31 C10.5,31.552 10.948,32 11.5,32 Z" />
      <path d="M28.5,38 L11.5,38 C10.948,38 10.5,38.448 10.5,39 C10.5,39.552 10.948,40 11.5,40 L28.5,40 C29.052,40 29.5,39.552 29.5,39 C29.5,38.448 29.052,38 28.5,38 Z" />
      <path d="M25.5,46 L11.5,46 C10.948,46 10.5,46.448 10.5,47 C10.5,47.552 10.948,48 11.5,48 L25.5,48 C26.052,48 26.5,47.552 26.5,47 C26.5,46.448 26.052,46 25.5,46 Z" />
      <path d="M2,2 L31,2 L31,16 L45,16 L45,33 L47,33 L47,14.586 L32.414,0 L0,0 L0,60 L34,60 L34,58 L2,58 L2,2 Z M33,3.414 L43.586,14 L33,14 L33,3.414 Z" />
      <path fill="#F49530" d="M46,36 C39.383,36 34,41.383 34,48 C34,54.617 39.383,60 46,60 C52.617,60 58,54.617 58,48 C58,41.383 52.617,36 46,36 Z M46,58 C40.486,58 36,53.514 36,48 C36,42.486 40.486,38 46,38 C51.514,38 56,42.486 56,48 C56,53.514 51.514,58 46,58 Z" />
      <path fill="#F49530" d="M52,47 L47,47 L47,42 C47,41.448 46.552,41 46,41 C45.448,41 45,41.448 45,42 L45,47 L40,47 C39.448,47 39,47.448 39,48 C39,48.552 39.448,49 40,49 L45,49 L45,54 C45,54.552 45.448,55 46,55 C46.552,55 47,54.552 47,54 L47,49 L52,49 C52.552,49 53,48.552 53,48 C53,47.448 52.552,47 52,47 Z" />
    </g>
  </symbol>
  <symbol id="check" viewBox="0 0 60 60">
    <title>check</title>
    <g fill="#ccc">
      <path
        d="M11.5,24 L36.5,24 C37.052,24 37.5,23.552 37.5,23 C37.5,22.448 37.052,22 36.5,22 L11.5,22 C10.948,22 10.5,22.448 10.5,23 C10.5,23.552 10.948,24 11.5,24 Z" />
      <path
        d="M11.5,16 L21.5,16 C22.052,16 22.5,15.552 22.5,15 C22.5,14.448 22.052,14 21.5,14 L11.5,14 C10.948,14 10.5,14.448 10.5,15 C10.5,15.552 10.948,16 11.5,16 Z" />
      <path
        d="M11.5,32 L36.5,32 C37.052,32 37.5,31.552 37.5,31 C37.5,30.448 37.052,30 36.5,30 L11.5,30 C10.948,30 10.5,30.448 10.5,31 C10.5,31.552 10.948,32 11.5,32 Z" />
      <path
        d="M28.5,38 L11.5,38 C10.948,38 10.5,38.448 10.5,39 C10.5,39.552 10.948,40 11.5,40 L28.5,40 C29.052,40 29.5,39.552 29.5,39 C29.5,38.448 29.052,38 28.5,38 Z" />
      <path
        d="M25.5,46 L11.5,46 C10.948,46 10.5,46.448 10.5,47 C10.5,47.552 10.948,48 11.5,48 L25.5,48 C26.052,48 26.5,47.552 26.5,47 C26.5,46.448 26.052,46 25.5,46 Z" />
      <path
        d="M2,2 L31,2 L31,16 L45,16 L45,33 L47,33 L47,14.586 L32.414,0 L0,0 L0,60 L34,60 L34,58 L2,58 L2,2 Z M33,3.414 L43.586,14 L33,14 L33,3.414 Z" />
      <path
        d="M46,36 C39.383,36 34,41.383 34,48 C34,54.617 39.383,60 46,60 C52.617,60 58,54.617 58,48 C58,41.383 52.617,36 46,36 Z M46,58 C40.486,58 36,53.514 36,48 C36,42.486 40.486,38 46,38 C51.514,38 56,42.486 56,48 C56,53.514 51.514,58 46,58 Z"
        fill="#4EA31E" />
      <path
        d="M51.1794746,43.4290618 L45.5834746,51.4690618 L41.6344746,48.2270618 C41.2084746,47.8760618 40.5774746,47.9390618 40.2274746,48.3660618 C39.8764746,48.7930618 39.9384746,49.4230618 40.3664746,49.7730618 L45.1524746,53.7020618 C45.3324746,53.8490618 45.5564746,53.9290618 45.7864746,53.9290618 C45.8314746,53.9290618 45.8774746,53.9260618 45.9234746,53.9200618 C46.1994746,53.8810618 46.4474746,53.7300618 46.6074746,53.5010618 L52.8214746,44.5720618 C53.1364746,44.1190618 53.0254746,43.4950618 52.5714746,43.1800618 C52.1174746,42.8630618 51.4954746,42.9760618 51.1794746,43.4290618 Z"
        fill="#4EA31E" />
    </g>
  </symbol>
  <symbol id="clock" viewBox="0 0 60 60">
    <title>clock</title>
    <g fill="#ccc">
      <path d="M38,23c0-0.552-0.447-1-1-1H12c-0.553,0-1,0.448-1,1s0.447,1,1,1h25C37.553,24,38,23.552,38,23z"/>
      <path d="M12,16h10c0.553,0,1-0.448,1-1s-0.447-1-1-1H12c-0.553,0-1,0.448-1,1S11.447,16,12,16z"/>
      <path d="M31,30H12c-0.553,0-1,0.448-1,1s0.447,1,1,1h19c0.553,0,1-0.448,1-1S31.553,30,31,30z"/>
      <path d="M32,39c0-0.552-0.447-1-1-1H12c-0.553,0-1,0.448-1,1s0.447,1,1,1h19C31.553,40,32,39.552,32,39z"/>
      <path d="M12,46c-0.553,0-1,0.448-1,1s0.447,1,1,1h16c0.553,0,1-0.448,1-1s-0.447-1-1-1H12z"/>
      <path d="M3,2h29v14h14v17h2V14.586L33.414,0H1v60h34v-2H3V2z M34,3.414L44.586,14H34V3.414z"/>
      <path fill="#f49530"
            d="M47,36c-6.617,0-12,5.383-12,12s5.383,12,12,12s12-5.383,12-12S53.617,36,47,36z M47,58c-5.514,0-10-4.486-10-10 s4.486-10,10-10s10,4.486,10,10S52.514,58,47,58z"/>
      <path fill="#f49530"
            d="M53,47h-5v-5c0-0.552-0.447-1-1-1s-1,0.448-1,1v6c0,0.552,0.447,1,1,1h6c0.553,0,1-0.448,1-1S53.553,47,53,47z"/>
    </g>
  </symbol>
  <symbol id="wait" viewBox="0 0 60 60">
    <title>wait</title>
    <g fill="#ccc">
      <path d="M38.5,23c0-0.552-0.447-1-1-1h-25c-0.553,0-1,0.448-1,1s0.447,1,1,1h25C38.053,24,38.5,23.552,38.5,23z"/>
      <path d="M12.5,16h10c0.553,0,1-0.448,1-1s-0.447-1-1-1h-10c-0.553,0-1,0.448-1,1S11.947,16,12.5,16z"/>
      <path d="M31.5,30h-19c-0.553,0-1,0.448-1,1s0.447,1,1,1h19c0.553,0,1-0.448,1-1S32.053,30,31.5,30z"/>
      <path d="M32.5,39c0-0.552-0.447-1-1-1h-19c-0.553,0-1,0.448-1,1s0.447,1,1,1h19C32.053,40,32.5,39.552,32.5,39z"/>
      <path d="M12.5,46c-0.553,0-1,0.448-1,1s0.447,1,1,1h16c0.553,0,1-0.448,1-1s-0.447-1-1-1H12.5z"/>
      <path d="M3.5,2h29v14h14v15h2V14.586L33.914,0H1.5v60h32v-2h-30V2z M34.5,3.414L45.086,14H34.5V3.414z"/>
      <path fill="#f49530"
            d="M57.5,58h-2v-2.36c0-3.535-1.845-6.748-4.827-8.64c2.981-1.892,4.827-5.105,4.827-8.64V36h2c0.553,0,1-0.448,1-1 s-0.447-1-1-1h-2h-1h-14h-1h-2c-0.553,0-1,0.448-1,1s0.447,1,1,1h2v2.36c0,3.535,1.845,6.748,4.827,8.64 c-2.981,1.892-4.827,5.105-4.827,8.64V58h-2c-0.553,0-1,0.448-1,1s0.447,1,1,1h2h1h14h1h2c0.553,0,1-0.448,1-1S58.053,58,57.5,58z M41.5,38.36V36h12v2.36c0,3.319-2.033,6.299-5.197,7.64h-1.605C43.533,44.659,41.5,41.679,41.5,38.36z M41.5,55.64 c0-3.319,2.033-6.299,5.197-7.64h1.605c3.164,1.341,5.197,4.321,5.197,7.64V58h-12V55.64z"/>
    </g>
  </symbol>
  <symbol id="cloud" viewBox="0 0 60 60">
    <title>cloud</title>
    <g fill="#ccc">
      <path d="M36,22H11c-0.553,0-1,0.448-1,1s0.447,1,1,1h25c0.553,0,1-0.448,1-1S36.553,22,36,22z"/>
      <path d="M11,16h10c0.553,0,1-0.448,1-1s-0.447-1-1-1H11c-0.553,0-1,0.448-1,1S10.447,16,11,16z"/>
      <path d="M37,31c0-0.552-0.447-1-1-1H11c-0.553,0-1,0.448-1,1s0.447,1,1,1h25C36.553,32,37,31.552,37,31z"/>
      <path d="M29,39c0-0.552-0.447-1-1-1H11c-0.553,0-1,0.448-1,1s0.447,1,1,1h17C28.553,40,29,39.552,29,39z"/>
      <path d="M11,46c-0.553,0-1,0.448-1,1s0.447,1,1,1h14c0.553,0,1-0.448,1-1s-0.447-1-1-1H11z"/>
      <path d="M2,2h29v14h14v19h2V14.586L32.414,0H0v60h33v-2H2V2z M33,3.414L43.586,14H33V3.414z"/>
      <path fill="#4ea31e"
            d="M56,45.333C55.57,41.225,52.147,38,48.046,38c-2.564,0-4.984,1.287-6.479,3.402c-0.292-0.051-0.587-0.076-0.884-0.076 c-2.32,0-4.381,1.577-5.066,3.813c-1.907,1.132-3.116,3.242-3.116,5.502c0,3.506,2.785,6.359,6.208,6.359h10.774 c0.059,0,0.116-0.003,0.185-0.007C49.725,56.997,49.783,57,49.842,57h4.31C57.376,57,60,54.313,60,51.011 C60,48.411,58.358,46.138,56,45.333z M54.151,55l-4.344-0.002l-0.178-0.006L38.708,55c-2.32,0-4.208-1.956-4.208-4.359 c0-1.665,0.949-3.209,2.417-3.935l0.435-0.214l0.102-0.474c0.331-1.56,1.689-2.692,3.229-2.692c0.345,0,0.688,0.057,1.019,0.168 l0.777,0.262l0.409-0.711C43.983,41.138,45.912,40,48.046,40c3.265,0,5.955,2.747,5.999,6.124l0.011,0.814l0.799,0.155 C56.677,47.446,58,49.094,58,51.011C58,53.21,56.273,55,54.151,55z"/>
    </g>
  </symbol>
  <symbol id="heart" viewBox="0 0 60 60">
    <title>heart</title>
    <g fill="#ccc">
      <path d="M36.5,22h-25c-0.553,0-1,0.448-1,1s0.447,1,1,1h25c0.553,0,1-0.448,1-1S37.053,22,36.5,22z"/>
      <path d="M11.5,16h10c0.553,0,1-0.448,1-1s-0.447-1-1-1h-10c-0.553,0-1,0.448-1,1S10.948,16,11.5,16z"/>
      <path d="M37.5,31c0-0.552-0.447-1-1-1h-25c-0.553,0-1,0.448-1,1s0.447,1,1,1h25C37.053,32,37.5,31.552,37.5,31z"/>
      <path d="M29.5,39c0-0.552-0.447-1-1-1h-17c-0.553,0-1,0.448-1,1s0.447,1,1,1h17C29.053,40,29.5,39.552,29.5,39z"/>
      <path d="M11.5,46c-0.553,0-1,0.448-1,1s0.447,1,1,1h14c0.553,0,1-0.448,1-1s-0.447-1-1-1H11.5z"/>
      <path d="M2.5,2h29v14h14v17h2V14.586L32.914,0H0.5v60h37v-2h-35V2z M33.5,3.414L44.086,14H33.5V3.414z"/>
      <path fill="#f49530"
            d="M59.454,42.052C59.055,37.963,56.003,35,52.184,35c-2.396,0-4.407,1.449-5.684,3.212C45.224,36.449,43.212,35,40.817,35 c-3.819,0-6.871,2.963-7.271,7.052c-0.042,0.267-0.144,1.22,0.226,2.709c0.546,2.198,1.801,4.193,3.631,5.77l9.098,7.786l9.1-7.788 c1.828-1.575,3.083-3.569,3.629-5.767C59.598,43.272,59.496,42.319,59.454,42.052z M57.287,44.28 c-0.445,1.793-1.479,3.431-2.99,4.732L46.5,55.684l-7.795-6.67c-1.513-1.304-2.547-2.941-2.992-4.735 c-0.302-1.214-0.194-1.898-0.194-1.898l0.016-0.105C35.78,39.654,37.672,37,40.817,37c2.189,0,3.974,1.811,4.77,3.606l0.914,2.06 l0.914-2.06C48.21,38.811,49.995,37,52.184,37c3.145,0,5.037,2.654,5.295,5.366C57.481,42.373,57.591,43.058,57.287,44.28z"/>
    </g>
  </symbol>
  <symbol id="remove" viewBox="0 0 60 60">
    <title>remove</title>
    <g fill="#ccc">
    <path
      d="M11.5,24 L36.5,24 C37.052,24 37.5,23.552 37.5,23 C37.5,22.448 37.052,22 36.5,22 L11.5,22 C10.948,22 10.5,22.448 10.5,23 C10.5,23.552 10.948,24 11.5,24 Z" />
    <path
      d="M11.5,16 L21.5,16 C22.052,16 22.5,15.552 22.5,15 C22.5,14.448 22.052,14 21.5,14 L11.5,14 C10.948,14 10.5,14.448 10.5,15 C10.5,15.552 10.948,16 11.5,16 Z" />
    <path
      d="M11.5,32 L36.5,32 C37.052,32 37.5,31.552 37.5,31 C37.5,30.448 37.052,30 36.5,30 L11.5,30 C10.948,30 10.5,30.448 10.5,31 C10.5,31.552 10.948,32 11.5,32 Z" />
    <path
      d="M28.5,38 L11.5,38 C10.948,38 10.5,38.448 10.5,39 C10.5,39.552 10.948,40 11.5,40 L28.5,40 C29.052,40 29.5,39.552 29.5,39 C29.5,38.448 29.052,38 28.5,38 Z" />
    <path
      d="M25.5,46 L11.5,46 C10.948,46 10.5,46.448 10.5,47 C10.5,47.552 10.948,48 11.5,48 L25.5,48 C26.052,48 26.5,47.552 26.5,47 C26.5,46.448 26.052,46 25.5,46 Z" />
    <path
      d="M2,2 L31,2 L31,16 L45,16 L45,33 L47,33 L47,14.586 L32.414,0 L0,0 L0,60 L34,60 L34,58 L2,58 L2,2 Z M33,3.414 L43.586,14 L33,14 L33,3.414 Z" />
    <path
      d="M46,36 C39.383,36 34,41.383 34,48 C34,54.617 39.383,60 46,60 C52.617,60 58,54.617 58,48 C58,41.383 52.617,36 46,36 Z M46,58 C40.486,58 36,53.514 36,48 C36,42.486 40.486,38 46,38 C51.514,38 56,42.486 56,48 C56,53.514 51.514,58 46,58 Z"
      fill="#F49530" />
    <path
      d="M52,47 L40,47 C39.448,47 39,47.448 39,48 C39,48.552 39.448,49 40,49 L52,49 C52.552,49 53,48.552 53,48 C53,47.448 52.552,47 52,47 Z"
      fill="#F49530" />
    </g>
  </symbol>
  <symbol id="update" viewBox="0 0 60 60">
    <title>update</title>
    <g fill="#ccc">
      <path d="M36,22H11c-0.553,0-1,0.448-1,1s0.447,1,1,1h25c0.553,0,1-0.448,1-1S36.553,22,36,22z"/>
      <path d="M11,16h10c0.553,0,1-0.448,1-1s-0.447-1-1-1H11c-0.553,0-1,0.448-1,1S10.447,16,11,16z"/>
      <path d="M37,31c0-0.552-0.447-1-1-1H11c-0.553,0-1,0.448-1,1s0.447,1,1,1h25C36.553,32,37,31.552,37,31z"/>
      <path d="M29,39c0-0.552-0.447-1-1-1H11c-0.553,0-1,0.448-1,1s0.447,1,1,1h17C28.553,40,29,39.552,29,39z"/>
      <path d="M11,46c-0.553,0-1,0.448-1,1s0.447,1,1,1h14c0.553,0,1-0.448,1-1s-0.447-1-1-1H11z"/>
      <path d="M2,2h29v14h14v14h2V14.586L32.414,0H0v60h33v-2H2V2z M33,3.414L43.586,14H33V3.414z"/>
      <path fill="#4ea31e"
            d="M47,33c-3.764,0-7.317,1.581-9.75,4.338c-0.365,0.414-0.326,1.046,0.088,1.412c0.415,0.364,1.045,0.328,1.412-0.088 C40.803,36.334,43.811,35,47,35c6.065,0,11,4.935,11,11s-4.935,11-11,11c-4.992,0-9.406-3.367-10.741-8H41v-2h-8v8h2v-3.663 C37.093,55.868,41.781,59,47,59c7.168,0,13-5.832,13-13S54.168,33,47,33z"/>
    </g>
  </symbol>
  <symbol id="lock" viewBox="0 0 60 60">
    <title>lock</title>
    <g fill="#ccc">
      <path d="M37.5,22h-25c-0.552,0-1,0.448-1,1s0.448,1,1,1h25c0.552,0,1-0.448,1-1S38.052,22,37.5,22z"/>
      <path d="M12.5,16h10c0.552,0,1-0.448,1-1s-0.448-1-1-1h-10c-0.552,0-1,0.448-1,1S11.948,16,12.5,16z"/>
      <path d="M37.5,30h-25c-0.552,0-1,0.448-1,1s0.448,1,1,1h25c0.552,0,1-0.448,1-1S38.052,30,37.5,30z"/>
      <path d="M32.5,38h-20c-0.552,0-1,0.448-1,1s0.448,1,1,1h20c0.552,0,1-0.448,1-1S33.052,38,32.5,38z"/>
      <path d="M29.5,48c0.552,0,1-0.448,1-1s-0.448-1-1-1h-17c-0.552,0-1,0.448-1,1s0.448,1,1,1H29.5z"/>
      <path d="M3.5,2h29v14h14v15h2V14.586L33.914,0H1.5v60h32v-2h-30V2z M34.5,3.414L45.086,14H34.5V3.414z"/>
      <path fill="#f49530"
            d="M54.5,42v-1c0-3.86-3.14-7-7-7s-7,3.14-7,7v1h-4v18h22V42H54.5z M42.5,41c0-2.757,2.243-5,5-5s5,2.243,5,5v1h-10V41z M56.5,58h-18V44h2h14h2V58z"/>
      <path fill="#f49530"
            d="M47.5,46c-2.206,0-4,1.794-4,4c0,1.858,1.28,3.411,3,3.858V55c0,0.552,0.448,1,1,1s1-0.448,1-1v-1.142 c1.72-0.447,3-2,3-3.858C51.5,47.794,49.706,46,47.5,46z M47.5,52c-1.103,0-2-0.897-2-2s0.897-2,2-2s2,0.897,2,2S48.603,52,47.5,52 z"/>
    </g>
  </symbol>
  <symbol id="view" viewBox="0 0 60 60">
    <title>view</title>
    <g fill="#ccc">
      <path d="M36.403,22h-25c-0.552,0-1,0.448-1,1s0.448,1,1,1h25c0.552,0,1-0.448,1-1S36.955,22,36.403,22z"/>
      <path d="M11.403,16h10c0.552,0,1-0.448,1-1s-0.448-1-1-1h-10c-0.552,0-1,0.448-1,1S10.85,16,11.403,16z"/>
      <path
        d="M37.403,31c0-0.552-0.448-1-1-1h-25c-0.552,0-1,0.448-1,1s0.448,1,1,1h25C36.955,32,37.403,31.552,37.403,31z"/>
      <path
        d="M30.403,39c0-0.552-0.448-1-1-1h-18c-0.552,0-1,0.448-1,1s0.448,1,1,1h18C29.955,40,30.403,39.552,30.403,39z"/>
      <path d="M11.403,46c-0.552,0-1,0.448-1,1s0.448,1,1,1h13c0.552,0,1-0.448,1-1s-0.448-1-1-1H11.403z"/>
      <path d="M2.403,2h29v14h14v19h2V14.586L32.817,0H0.403v60h34v-2h-32V2z M33.403,3.414L43.989,14H33.403V3.414z"/>
      <path fill="#f49530"
            d="M59.239,48.643c-3.513-5.365-8.203-8.392-13.255-8.59C45.715,40.021,45.443,40,45.166,40c-0.49,0-0.967,0.053-1.428,0.15 c-4.596,0.592-8.83,3.552-12.065,8.493l-0.465,0.711l0.358,0.547c3.635,5.552,8.529,8.609,13.783,8.609 c5.254,0,10.148-3.057,13.784-8.609l0.465-0.711L59.239,48.643z M50.075,46.909c0,2.707-2.202,4.909-4.909,4.909 s-4.909-2.202-4.909-4.909c0-2.344,1.654-4.303,3.854-4.788c0.446-0.053,0.894-0.087,1.345-0.087c0.022,0,0.045,0.002,0.067,0.002 C48.061,42.223,50.075,44.324,50.075,46.909z M45.349,56.511c-4.387,0-8.537-2.537-11.743-7.161 c1.559-2.286,3.348-4.069,5.28-5.305c-0.4,0.874-0.629,1.841-0.629,2.863c0,3.81,3.1,6.909,6.909,6.909s6.909-3.1,6.909-6.909 c0-1.216-0.318-2.358-0.872-3.351c2.204,1.207,4.242,3.107,5.996,5.637C53.979,53.917,49.785,56.511,45.349,56.511z"/>
    </g>
  </symbol>
  <symbol id="refresh" viewBox="0 0 60 60">
    <title>refresh</title>
    <g fill="#ccc">
      <path d="M36.5,22h-25c-0.553,0-1,0.448-1,1s0.447,1,1,1h25c0.553,0,1-0.448,1-1S37.053,22,36.5,22z"/>
      <path d="M11.5,16h10c0.553,0,1-0.448,1-1s-0.447-1-1-1h-10c-0.553,0-1,0.448-1,1S10.947,16,11.5,16z"/>
      <path d="M37.5,31c0-0.552-0.447-1-1-1h-25c-0.553,0-1,0.448-1,1s0.447,1,1,1h25C37.053,32,37.5,31.552,37.5,31z"/>
      <path d="M29.5,39c0-0.552-0.447-1-1-1h-17c-0.553,0-1,0.448-1,1s0.447,1,1,1h17C29.053,40,29.5,39.552,29.5,39z"/>
      <path d="M11.5,46c-0.553,0-1,0.448-1,1s0.447,1,1,1h14c0.553,0,1-0.448,1-1s-0.447-1-1-1H11.5z"/>
      <path d="M2.5,2h29v14h14v14h2V14.586L32.914,0H0.5v60h35v-2h-33V2z M33.5,3.414L44.086,14H33.5V3.414z"/>
      <path fill="#4ea31e"
            d="M57.699,48.02c-0.548-0.112-1.069,0.241-1.18,0.781C55.403,54.303,51.074,58,45.749,58c-5.029,0-9.447-3.3-10.948-8H39.5 v-2h-8v8h2v-3.848C35.668,56.833,40.415,60,45.749,60c6.304,0,11.42-4.341,12.731-10.801C58.59,48.658,58.24,48.13,57.699,48.02z"/>
      <path fill="#4ea31e"
            d="M57.5,36v4.308C55.25,35.855,50.796,33,45.749,33c-6.109,0-11.541,3.997-13.209,9.72c-0.154,0.53,0.15,1.085,0.681,1.24 c0.53,0.156,1.085-0.151,1.239-0.68C35.858,38.482,40.605,35,45.749,35c4.565,0,8.561,2.765,10.33,7H51.5v2h5.997 c0.001,0,0.002,0,0.003,0c0.001,0,0.002,0,0.003,0H59.5v-8H57.5z"/>
    </g>
  </symbol>
  <symbol id="favorite" viewBox="0 0 60 60">
    <title>favorite</title>
    <g fill="#ccc">
      <path d="M36.5,22h-25c-0.553,0-1,0.448-1,1s0.447,1,1,1h25c0.553,0,1-0.448,1-1S37.053,22,36.5,22z"/>
      <path d="M11.5,16h10c0.553,0,1-0.448,1-1s-0.447-1-1-1h-10c-0.553,0-1,0.448-1,1S10.947,16,11.5,16z"/>
      <path d="M37.5,31c0-0.552-0.447-1-1-1h-25c-0.553,0-1,0.448-1,1s0.447,1,1,1h25C37.053,32,37.5,31.552,37.5,31z"/>
      <path d="M29.5,39c0-0.552-0.447-1-1-1h-17c-0.553,0-1,0.448-1,1s0.447,1,1,1h17C29.053,40,29.5,39.552,29.5,39z"/>
      <path d="M11.5,46c-0.553,0-1,0.448-1,1s0.447,1,1,1h14c0.553,0,1-0.448,1-1s-0.447-1-1-1H11.5z"/>
      <path d="M2.5,2h29v14h14v17h2V14.586L32.914,0H0.5v60h33v-2h-31V2z M33.5,3.414L44.086,14H33.5V3.414z"/>
      <path fill="#f49530"
            d="M59.453,45.101c-0.116-0.367-0.434-0.634-0.814-0.688l-7.777-1.089l-3.472-6.779c-0.342-0.669-1.438-0.669-1.779,0 l-3.472,6.779l-7.777,1.089c-0.381,0.053-0.698,0.321-0.814,0.688s-0.012,0.768,0.269,1.032l5.605,5.266L38.1,58.825 c-0.066,0.374,0.084,0.752,0.388,0.978c0.305,0.226,0.711,0.26,1.049,0.089l6.964-3.529l6.964,3.529 C53.607,59.964,53.762,60,53.916,60c0.211,0,0.421-0.067,0.597-0.197c0.304-0.226,0.454-0.604,0.388-0.978l-1.321-7.426 l5.605-5.266C59.465,45.869,59.569,45.467,59.453,45.101z M51.815,50.312c-0.246,0.231-0.359,0.572-0.3,0.904l1.064,5.986 l-5.628-2.852c-0.143-0.072-0.297-0.108-0.452-0.108s-0.31,0.036-0.452,0.108l-5.628,2.852l1.064-5.986 c0.06-0.333-0.054-0.673-0.3-0.904l-4.479-4.208l6.225-0.872c0.322-0.045,0.603-0.245,0.751-0.535l2.818-5.503l2.818,5.503 c0.148,0.29,0.429,0.49,0.751,0.535l6.225,0.872L51.815,50.312z"/>
    </g>
  </symbol>
  <symbol id="warning" viewBox="0 0 60.001 60.001">
    <title>warning</title>
    <g fill="#ccc">
      <path d="M36,22.001H11c-0.552,0-1,0.448-1,1s0.448,1,1,1h25c0.552,0,1-0.448,1-1S36.552,22.001,36,22.001z"/>
      <path d="M11,16.001h10c0.552,0,1-0.448,1-1s-0.448-1-1-1H11c-0.552,0-1,0.448-1,1S10.448,16.001,11,16.001z"/>
      <path
        d="M37,31.001c0-0.552-0.448-1-1-1H11c-0.552,0-1,0.448-1,1s0.448,1,1,1h25C36.552,32.001,37,31.553,37,31.001z"/>
      <path
        d="M29,39.001c0-0.552-0.448-1-1-1H11c-0.552,0-1,0.448-1,1s0.448,1,1,1h17C28.552,40.001,29,39.553,29,39.001z"/>
      <path d="M11,46.001c-0.552,0-1,0.448-1,1s0.448,1,1,1h14c0.552,0,1-0.448,1-1s-0.448-1-1-1H11z"/>
      <path d="M2,2.001h29v14h14v17h2V14.587L32.414,0.001H0v60h30v-2H2V2.001z M33,3.415l10.586,10.586H33V3.415z"/>
      <path fill="#f49530"
            d="M59.693,56.636L47.849,36.329c-0.406-0.695-1.128-1.11-1.934-1.11c-0.805,0-1.527,0.415-1.933,1.11L32.137,56.636 c-0.409,0.701-0.412,1.539-0.008,2.242c0.404,0.703,1.129,1.123,1.94,1.123h23.691c0.811,0,1.536-0.42,1.939-1.123 C60.104,58.175,60.102,57.336,59.693,56.636z M57.966,57.882c-0.03,0.055-0.092,0.119-0.205,0.119H34.07 c-0.114,0-0.175-0.065-0.206-0.119c-0.031-0.055-0.056-0.14,0.001-0.238L45.71,37.337c0.057-0.098,0.143-0.118,0.205-0.118 c0.063,0,0.148,0.021,0.206,0.118l11.845,20.306C58.022,57.742,57.998,57.827,57.966,57.882z"/>
      <path fill="#f49530"
            d="M46,42.001c-0.552,0-1,0.448-1,1v8c0,0.552,0.448,1,1,1s1-0.448,1-1v-8C47,42.448,46.552,42.001,46,42.001z"/>
      <path fill="#f49530"
            d="M45.29,54.291c-0.18,0.19-0.29,0.45-0.29,0.71c0,0.26,0.11,0.52,0.29,0.71c0.19,0.18,0.45,0.29,0.71,0.29 c0.27,0,0.52-0.11,0.71-0.29c0.18-0.19,0.29-0.45,0.29-0.71c0-0.26-0.11-0.52-0.29-0.71C46.33,53.921,45.67,53.921,45.29,54.291z"/>
    </g>
  </symbol>
  <symbol id="settings" viewBox="0 0 60 60">
    <title>settings</title>
    <g fill="#ccc">
      <path d="M36.5,22h-25c-0.553,0-1,0.448-1,1s0.447,1,1,1h25c0.553,0,1-0.448,1-1S37.053,22,36.5,22z"/>
      <path d="M11.5,16h10c0.553,0,1-0.448,1-1s-0.447-1-1-1h-10c-0.553,0-1,0.448-1,1S10.947,16,11.5,16z"/>
      <path d="M37.5,31c0-0.552-0.447-1-1-1h-25c-0.553,0-1,0.448-1,1s0.447,1,1,1h25C37.053,32,37.5,31.552,37.5,31z"/>
      <path d="M29.5,39c0-0.552-0.447-1-1-1h-17c-0.553,0-1,0.448-1,1s0.447,1,1,1h17C29.053,40,29.5,39.552,29.5,39z"/>
      <path d="M11.5,46c-0.553,0-1,0.448-1,1s0.447,1,1,1h14c0.553,0,1-0.448,1-1s-0.447-1-1-1H11.5z"/>
      <path d="M2.5,2h29v14h14v15h2V14.586L32.914,0H0.5v60h35v-2h-33V2z M33.5,3.414L44.086,14H33.5V3.414z"/>
      <path fill="#4ea31e"
            d="M58.688,44.864l-1.444-0.278c-0.677-0.13-1.21-0.573-1.462-1.215c-0.253-0.643-0.163-1.33,0.245-1.886l0.907-1.236 c0.292-0.398,0.25-0.95-0.1-1.299l-1.959-1.958c-0.339-0.338-0.87-0.389-1.269-0.12l-1.216,0.824 c-0.572,0.388-1.263,0.45-1.895,0.175c-0.632-0.276-1.055-0.825-1.16-1.507l-0.233-1.515C49.028,34.36,48.608,34,48.115,34h-2.77 c-0.479,0-0.892,0.34-0.982,0.811l-0.358,1.865c-0.127,0.663-0.558,1.191-1.181,1.449c-0.625,0.259-1.301,0.19-1.86-0.189 l-1.572-1.065c-0.395-0.268-0.929-0.217-1.268,0.121l-1.959,1.958c-0.35,0.349-0.392,0.901-0.1,1.299l0.907,1.236 c0.408,0.557,0.498,1.244,0.245,1.887c-0.252,0.642-0.785,1.085-1.462,1.215l-1.444,0.278c-0.472,0.09-0.812,0.502-0.812,0.982 v2.769c0,0.494,0.36,0.913,0.848,0.988l1.515,0.233c0.683,0.105,1.232,0.528,1.508,1.16c0.276,0.632,0.213,1.323-0.175,1.895 l-0.824,1.217c-0.269,0.397-0.218,0.929,0.121,1.268l1.958,1.958c0.349,0.35,0.901,0.39,1.298,0.1l1.237-0.907 c0.556-0.407,1.243-0.496,1.885-0.246c0.643,0.252,1.086,0.786,1.216,1.463l0.277,1.444C44.454,59.66,44.866,60,45.346,60h2.77 c0.493,0,0.913-0.36,0.988-0.848l0.164-1.066c0.105-0.687,0.552-1.256,1.194-1.521c0.644-0.267,1.359-0.18,1.92,0.231l0.869,0.638 c0.398,0.291,0.948,0.25,1.299-0.099l1.958-1.958c0.339-0.339,0.39-0.871,0.121-1.268l-0.824-1.217 c-0.388-0.572-0.451-1.262-0.175-1.895c0.275-0.632,0.825-1.055,1.508-1.16l1.515-0.233c0.487-0.075,0.848-0.495,0.848-0.988 v-2.769C59.5,45.367,59.16,44.955,58.688,44.864z M57.5,47.757l-0.667,0.103c-1.354,0.208-2.488,1.082-3.036,2.336 c-0.548,1.255-0.416,2.682,0.352,3.816l0.361,0.534l-0.768,0.767l-0.178-0.13c-1.128-0.828-2.574-1.001-3.868-0.466 s-2.192,1.682-2.405,3.065L47.258,58h-1.086l-0.121-0.633c-0.259-1.345-1.175-2.447-2.45-2.947 c-1.274-0.499-2.695-0.314-3.798,0.495l-0.545,0.399l-0.768-0.768l0.361-0.534c0.768-1.134,0.899-2.561,0.352-3.816 c-0.548-1.255-1.683-2.128-3.036-2.336L35.5,47.757v-1.085l0.633-0.122c1.345-0.259,2.446-1.174,2.947-2.448 c0.5-1.275,0.315-2.696-0.494-3.801l-0.399-0.544l0.768-0.768l0.889,0.602c1.109,0.752,2.509,0.895,3.747,0.382 c1.237-0.513,2.127-1.604,2.38-2.919L46.172,36h1.086l0.103,0.667c0.208,1.354,1.082,2.488,2.337,3.036 c1.255,0.547,2.682,0.416,3.816-0.353l0.532-0.361l0.768,0.768l-0.399,0.544c-0.81,1.104-0.994,2.525-0.494,3.8 c0.501,1.274,1.603,2.189,2.947,2.448l0.633,0.122V47.757z"/>
      <path fill="#4ea31e"
            d="M46.5,42c-2.757,0-5,2.243-5,5s2.243,5,5,5s5-2.243,5-5S49.257,42,46.5,42z M46.5,50c-1.654,0-3-1.346-3-3s1.346-3,3-3 s3,1.346,3,3S48.154,50,46.5,50z"/>
    </g>
  </symbol>
  <symbol id="error" viewBox="0 0 60 60">
    <title>error</title>
    <g fill="#ccc">
      <path
        d="M11.5,24 L36.5,24 C37.052,24 37.5,23.552 37.5,23 C37.5,22.448 37.052,22 36.5,22 L11.5,22 C10.948,22 10.5,22.448 10.5,23 C10.5,23.552 10.948,24 11.5,24 Z" />
      <path
        d="M11.5,16 L21.5,16 C22.052,16 22.5,15.552 22.5,15 C22.5,14.448 22.052,14 21.5,14 L11.5,14 C10.948,14 10.5,14.448 10.5,15 C10.5,15.552 10.948,16 11.5,16 Z" />
      <path
        d="M11.5,32 L36.5,32 C37.052,32 37.5,31.552 37.5,31 C37.5,30.448 37.052,30 36.5,30 L11.5,30 C10.948,30 10.5,30.448 10.5,31 C10.5,31.552 10.948,32 11.5,32 Z" />
      <path
        d="M28.5,38 L11.5,38 C10.948,38 10.5,38.448 10.5,39 C10.5,39.552 10.948,40 11.5,40 L28.5,40 C29.052,40 29.5,39.552 29.5,39 C29.5,38.448 29.052,38 28.5,38 Z" />
      <path
        d="M25.5,46 L11.5,46 C10.948,46 10.5,46.448 10.5,47 C10.5,47.552 10.948,48 11.5,48 L25.5,48 C26.052,48 26.5,47.552 26.5,47 C26.5,46.448 26.052,46 25.5,46 Z" />
      <path
        d="M2,2 L31,2 L31,16 L45,16 L45,33 L47,33 L47,14.586 L32.414,0 L0,0 L0,60 L34,60 L34,58 L2,58 L2,2 Z M33,3.414 L43.586,14 L33,14 L33,3.414 Z" />
      <path
        d="M46,36 C39.383,36 34,41.383 34,48 C34,54.617 39.383,60 46,60 C52.617,60 58,54.617 58,48 C58,41.383 52.617,36 46,36 Z M46,58 C40.486,58 36,53.514 36,48 C36,42.486 40.486,38 46,38 C51.514,38 56,42.486 56,48 C56,53.514 51.514,58 46,58 Z"
        fill="#e84040" />
      <path
        d="M51.19325,43.29325 C50.80225,42.90225 50.17025,42.90225 49.77925,43.29325 L46.24325,46.82925 L42.70725,43.29325 C42.31625,42.90225 41.68425,42.90225 41.29325,43.29325 C40.90225,43.68425 40.90225,44.31625 41.29325,44.70725 L44.82925,48.24325 L41.29325,51.77925 C40.90225,52.17025 40.90225,52.80225 41.29325,53.19325 C41.48825,53.38825 41.74425,53.48625 42.00025,53.48625 C42.25625,53.48625 42.51225,53.38825 42.70725,53.19325 L46.24325,49.65725 L49.77925,53.19325 C49.97425,53.38825 50.23025,53.48625 50.48625,53.48625 C50.74225,53.48625 50.99825,53.38825 51.19325,53.19325 C51.58425,52.80225 51.58425,52.17025 51.19325,51.77925 L47.65725,48.24325 L51.19325,44.70725 C51.58325,44.31725 51.58325,43.68425 51.19325,43.29325 Z"
        fill="#e84040" />
    </g>
  </symbol>
  <symbol id="up" viewBox="0 0 60 60">
    <title>up</title>
    <g fill="#ccc">
      <path d="M37,22H12c-0.552,0-1,0.448-1,1s0.448,1,1,1h25c0.552,0,1-0.448,1-1S37.552,22,37,22z"/>
      <path d="M12,16h10c0.552,0,1-0.448,1-1s-0.448-1-1-1H12c-0.552,0-1,0.448-1,1S11.448,16,12,16z"/>
      <path d="M38,31c0-0.552-0.448-1-1-1H12c-0.552,0-1,0.448-1,1s0.448,1,1,1h25C37.552,32,38,31.552,38,31z"/>
      <path d="M30,39c0-0.552-0.448-1-1-1H12c-0.552,0-1,0.448-1,1s0.448,1,1,1h17C29.552,40,30,39.552,30,39z"/>
      <path d="M12,46c-0.552,0-1,0.448-1,1s0.448,1,1,1h14c0.552,0,1-0.448,1-1s-0.448-1-1-1H12z"/>
      <path d="M3,2h29v14h14v17h2V14.586L33.414,0H1v60h31v-2H3V2z M34,3.414L44.586,14H34V3.414z"/>
      <path fill="#4ea31e"
            d="M35,36v24h24V36H35z M57,58h-9V45.414l4.293,4.293l1.414-1.414L47,41.586l-6.707,6.707l1.414,1.414L46,45.414V58h-9V38h20 V58z"/>
    </g>
  </symbol>
  <symbol id="down" viewBox="0 0 60 60">
    <title>down</title>
    <g fill="#ccc">
      <path d="M37,22H12c-0.552,0-1,0.448-1,1s0.448,1,1,1h25c0.552,0,1-0.448,1-1S37.552,22,37,22z"/>
      <path d="M12,16h10c0.552,0,1-0.448,1-1s-0.448-1-1-1H12c-0.552,0-1,0.448-1,1S11.448,16,12,16z"/>
      <path d="M38,31c0-0.552-0.448-1-1-1H12c-0.552,0-1,0.448-1,1s0.448,1,1,1h25C37.552,32,38,31.552,38,31z"/>
      <path d="M30,39c0-0.552-0.448-1-1-1H12c-0.552,0-1,0.448-1,1s0.448,1,1,1h17C29.552,40,30,39.552,30,39z"/>
      <path d="M12,46c-0.552,0-1,0.448-1,1s0.448,1,1,1h14c0.552,0,1-0.448,1-1s-0.448-1-1-1H12z"/>
      <path d="M3,2h29v14h14v17h2V14.586L33.414,0H1v60h31v-2H3V2z M34,3.414L44.586,14H34V3.414z"/>
      <path fill="#4ea31e"
            d="M35,36v24h24V36H35z M57,58H37V38h9v12.586l-4.293-4.293l-1.414,1.414L47,54.414l6.707-6.707l-1.414-1.414L48,50.586V38h9 V58z"/>
    </g>
  </symbol>
  <symbol id="find" viewBox="0 0 60 60">
    <title>find</title>
    <g fill="#ccc">
      <path d="M36.491,22h-25c-0.553,0-1,0.448-1,1s0.447,1,1,1h25c0.553,0,1-0.448,1-1S37.044,22,36.491,22z"/>
      <path d="M11.491,16h10c0.553,0,1-0.448,1-1s-0.447-1-1-1h-10c-0.553,0-1,0.448-1,1S10.938,16,11.491,16z"/>
      <path
        d="M37.491,31c0-0.552-0.447-1-1-1h-25c-0.553,0-1,0.448-1,1s0.447,1,1,1h25C37.044,32,37.491,31.552,37.491,31z"/>
      <path
        d="M29.491,39c0-0.552-0.447-1-1-1h-17c-0.553,0-1,0.448-1,1s0.447,1,1,1h17C29.044,40,29.491,39.552,29.491,39z"/>
      <path d="M11.491,46c-0.553,0-1,0.448-1,1s0.447,1,1,1h14c0.553,0,1-0.448,1-1s-0.447-1-1-1H11.491z"/>
      <path d="M2.491,2h29v14h14v15h2V14.586L32.905,0H0.491v60h37v-2h-35V2z M33.491,3.414L44.077,14H33.491V3.414z"/>
      <path fill="#4ea31e"
            d="M59.232,58.291l-5.97-6.244c1.746-1.919,2.82-4.458,2.82-7.251C56.083,38.843,51.24,34,45.287,34 s-10.796,4.843-10.796,10.796s4.843,10.796,10.796,10.796c2.442,0,4.689-0.824,6.499-2.196l6.001,6.276 c0.196,0.206,0.459,0.309,0.723,0.309c0.249,0,0.497-0.092,0.691-0.277C59.599,59.323,59.614,58.689,59.232,58.291z M36.491,44.796 c0-4.85,3.946-8.796,8.796-8.796s8.796,3.946,8.796,8.796s-3.946,8.796-8.796,8.796S36.491,49.646,36.491,44.796z"/>
    </g>
  </symbol>
  <symbol id="edit" viewBox="0 0 60 60">
    <title>edit</title>
    <g fill="#ccc">
      <path d="M36.719,22h-25c-0.552,0-1,0.448-1,1s0.448,1,1,1h25c0.552,0,1-0.448,1-1S37.271,22,36.719,22z"/>
      <path d="M11.719,16h10c0.552,0,1-0.448,1-1s-0.448-1-1-1h-10c-0.552,0-1,0.448-1,1S11.167,16,11.719,16z"/>
      <path d="M36.719,30h-25c-0.552,0-1,0.448-1,1s0.448,1,1,1h25c0.552,0,1-0.448,1-1S37.271,30,36.719,30z"/>
      <path d="M28.719,38h-17c-0.552,0-1,0.448-1,1s0.448,1,1,1h17c0.552,0,1-0.448,1-1S29.271,38,28.719,38z"/>
      <path d="M25.719,48c0.552,0,1-0.448,1-1s-0.448-1-1-1h-14c-0.552,0-1,0.448-1,1s0.448,1,1,1H25.719z"/>
      <path d="M2.719,2h29v14h14v18h2V14.586L33.133,0H0.719v60h29v-2h-27V2z M33.719,3.414L44.305,14H33.719V3.414z"/>
      <path fill="#f49530"
            d="M58.407,37.162l-2.849-2.85c-1.128-1.128-3.094-1.128-4.222,0l-15.391,15.39l-2.121,7.779L33.305,58 c-0.388,0.388-0.389,1.014-0.006,1.405l-0.005,0.02l0.02-0.005c0.194,0.19,0.446,0.287,0.698,0.287 c0.256,0,0.512-0.098,0.707-0.293l0.519-0.519l7.779-2.121l15.39-15.391c0.564-0.564,0.875-1.313,0.875-2.111 S58.971,37.725,58.407,37.162z M38.254,50.222l10.243-10.243l4.243,4.243L42.497,54.465L38.254,50.222z M37.351,52.147l3.22,3.22 l-4.427,1.207L37.351,52.147z M56.993,39.969l-2.839,2.839l-4.243-4.243l2.839-2.839c0.372-0.372,1.021-0.373,1.393,0l2.85,2.85 c0.186,0.186,0.289,0.433,0.289,0.696C57.281,39.535,57.179,39.783,56.993,39.969z"/>
    </g>
  </symbol>
  <symbol id="check-blue" viewBox="0 0 60 60">
    <title>check</title>
    <g fill="#ccc">
      <path d="M11.5,24 L36.5,24 C37.052,24 37.5,23.552 37.5,23 C37.5,22.448 37.052,22 36.5,22 L11.5,22 C10.948,22 10.5,22.448 10.5,23 C10.5,23.552 10.948,24 11.5,24 Z" />
      <path d="M11.5,16 L21.5,16 C22.052,16 22.5,15.552 22.5,15 C22.5,14.448 22.052,14 21.5,14 L11.5,14 C10.948,14 10.5,14.448 10.5,15 C10.5,15.552 10.948,16 11.5,16 Z" />
      <path d="M11.5,32 L36.5,32 C37.052,32 37.5,31.552 37.5,31 C37.5,30.448 37.052,30 36.5,30 L11.5,30 C10.948,30 10.5,30.448 10.5,31 C10.5,31.552 10.948,32 11.5,32 Z" />
      <path d="M28.5,38 L11.5,38 C10.948,38 10.5,38.448 10.5,39 C10.5,39.552 10.948,40 11.5,40 L28.5,40 C29.052,40 29.5,39.552 29.5,39 C29.5,38.448 29.052,38 28.5,38 Z" />
      <path d="M25.5,46 L11.5,46 C10.948,46 10.5,46.448 10.5,47 C10.5,47.552 10.948,48 11.5,48 L25.5,48 C26.052,48 26.5,47.552 26.5,47 C26.5,46.448 26.052,46 25.5,46 Z" />
      <path d="M2,2 L31,2 L31,16 L45,16 L45,33 L47,33 L47,14.586 L32.414,0 L0,0 L0,60 L34,60 L34,58 L2,58 L2,2 Z M33,3.414 L43.586,14 L33,14 L33,3.414 Z" />
      <path d="M46,36 C39.383,36 34,41.383 34,48 C34,54.617 39.383,60 46,60 C52.617,60 58,54.617 58,48 C58,41.383 52.617,36 46,36 Z M46,58 C40.486,58 36,53.514 36,48 C36,42.486 40.486,38 46,38 C51.514,38 56,42.486 56,48 C56,53.514 51.514,58 46,58 Z"
            fill="#55bad0" />
      <path d="M51.1794746,43.4290618 L45.5834746,51.4690618 L41.6344746,48.2270618 C41.2084746,47.8760618 40.5774746,47.9390618 40.2274746,48.3660618 C39.8764746,48.7930618 39.9384746,49.4230618 40.3664746,49.7730618 L45.1524746,53.7020618 C45.3324746,53.8490618 45.5564746,53.9290618 45.7864746,53.9290618 C45.8314746,53.9290618 45.8774746,53.9260618 45.9234746,53.9200618 C46.1994746,53.8810618 46.4474746,53.7300618 46.6074746,53.5010618 L52.8214746,44.5720618 C53.1364746,44.1190618 53.0254746,43.4950618 52.5714746,43.1800618 C52.1174746,42.8630618 51.4954746,42.9760618 51.1794746,43.4290618 Z"
            fill="#55bad0" />
    </g>
  </symbol>
  <symbol id="cloud-blue" viewBox="0 0 60 60">
    <title>cloud</title>
    <g fill="#ccc">
      <path d="M36,22H11c-0.553,0-1,0.448-1,1s0.447,1,1,1h25c0.553,0,1-0.448,1-1S36.553,22,36,22z"/>
      <path d="M11,16h10c0.553,0,1-0.448,1-1s-0.447-1-1-1H11c-0.553,0-1,0.448-1,1S10.447,16,11,16z"/>
      <path d="M37,31c0-0.552-0.447-1-1-1H11c-0.553,0-1,0.448-1,1s0.447,1,1,1h25C36.553,32,37,31.552,37,31z"/>
      <path d="M29,39c0-0.552-0.447-1-1-1H11c-0.553,0-1,0.448-1,1s0.447,1,1,1h17C28.553,40,29,39.552,29,39z"/>
      <path d="M11,46c-0.553,0-1,0.448-1,1s0.447,1,1,1h14c0.553,0,1-0.448,1-1s-0.447-1-1-1H11z"/>
      <path d="M2,2h29v14h14v19h2V14.586L32.414,0H0v60h33v-2H2V2z M33,3.414L43.586,14H33V3.414z"/>
      <path fill="#55bad0"
            d="M56,45.333C55.57,41.225,52.147,38,48.046,38c-2.564,0-4.984,1.287-6.479,3.402c-0.292-0.051-0.587-0.076-0.884-0.076 c-2.32,0-4.381,1.577-5.066,3.813c-1.907,1.132-3.116,3.242-3.116,5.502c0,3.506,2.785,6.359,6.208,6.359h10.774 c0.059,0,0.116-0.003,0.185-0.007C49.725,56.997,49.783,57,49.842,57h4.31C57.376,57,60,54.313,60,51.011 C60,48.411,58.358,46.138,56,45.333z M54.151,55l-4.344-0.002l-0.178-0.006L38.708,55c-2.32,0-4.208-1.956-4.208-4.359 c0-1.665,0.949-3.209,2.417-3.935l0.435-0.214l0.102-0.474c0.331-1.56,1.689-2.692,3.229-2.692c0.345,0,0.688,0.057,1.019,0.168 l0.777,0.262l0.409-0.711C43.983,41.138,45.912,40,48.046,40c3.265,0,5.955,2.747,5.999,6.124l0.011,0.814l0.799,0.155 C56.677,47.446,58,49.094,58,51.011C58,53.21,56.273,55,54.151,55z"/>
    </g>
  </symbol>
  <symbol id="edit-blue" viewBox="0 0 60 60">
    <title>edit</title>
    <g fill="#ccc">
      <path d="M36.719,22h-25c-0.552,0-1,0.448-1,1s0.448,1,1,1h25c0.552,0,1-0.448,1-1S37.271,22,36.719,22z"/>
      <path d="M11.719,16h10c0.552,0,1-0.448,1-1s-0.448-1-1-1h-10c-0.552,0-1,0.448-1,1S11.167,16,11.719,16z"/>
      <path d="M36.719,30h-25c-0.552,0-1,0.448-1,1s0.448,1,1,1h25c0.552,0,1-0.448,1-1S37.271,30,36.719,30z"/>
      <path d="M28.719,38h-17c-0.552,0-1,0.448-1,1s0.448,1,1,1h17c0.552,0,1-0.448,1-1S29.271,38,28.719,38z"/>
      <path d="M25.719,48c0.552,0,1-0.448,1-1s-0.448-1-1-1h-14c-0.552,0-1,0.448-1,1s0.448,1,1,1H25.719z"/>
      <path d="M2.719,2h29v14h14v18h2V14.586L33.133,0H0.719v60h29v-2h-27V2z M33.719,3.414L44.305,14H33.719V3.414z"/>
      <path fill="#55bad0"
            d="M58.407,37.162l-2.849-2.85c-1.128-1.128-3.094-1.128-4.222,0l-15.391,15.39l-2.121,7.779L33.305,58 c-0.388,0.388-0.389,1.014-0.006,1.405l-0.005,0.02l0.02-0.005c0.194,0.19,0.446,0.287,0.698,0.287 c0.256,0,0.512-0.098,0.707-0.293l0.519-0.519l7.779-2.121l15.39-15.391c0.564-0.564,0.875-1.313,0.875-2.111 S58.971,37.725,58.407,37.162z M38.254,50.222l10.243-10.243l4.243,4.243L42.497,54.465L38.254,50.222z M37.351,52.147l3.22,3.22 l-4.427,1.207L37.351,52.147z M56.993,39.969l-2.839,2.839l-4.243-4.243l2.839-2.839c0.372-0.372,1.021-0.373,1.393,0l2.85,2.85 c0.186,0.186,0.289,0.433,0.289,0.696C57.281,39.535,57.179,39.783,56.993,39.969z"/>
    </g>
  </symbol>
  <symbol id="down-blue" viewBox="0 0 60 60">
    <g fill="#ccc">
      <path d="M37,22H12c-0.552,0-1,0.448-1,1s0.448,1,1,1h25c0.552,0,1-0.448,1-1S37.552,22,37,22z"/>
      <path d="M12,16h10c0.552,0,1-0.448,1-1s-0.448-1-1-1H12c-0.552,0-1,0.448-1,1S11.448,16,12,16z"/>
      <path d="M38,31c0-0.552-0.448-1-1-1H12c-0.552,0-1,0.448-1,1s0.448,1,1,1h25C37.552,32,38,31.552,38,31z"/>
      <path d="M30,39c0-0.552-0.448-1-1-1H12c-0.552,0-1,0.448-1,1s0.448,1,1,1h17C29.552,40,30,39.552,30,39z"/>
      <path d="M12,46c-0.552,0-1,0.448-1,1s0.448,1,1,1h14c0.552,0,1-0.448,1-1s-0.448-1-1-1H12z"/>
      <path d="M3,2h29v14h14v17h2V14.586L33.414,0H1v60h31v-2H3V2z M34,3.414L44.586,14H34V3.414z"/>
      <path fill="#55bad0"
            d="M35,36v24h24V36H35z M57,58H37V38h9v12.586l-4.293-4.293l-1.414,1.414L47,54.414l6.707-6.707l-1.414-1.414L48,50.586V38h9 V58z"/>
    </g>
  </symbol>
  <symbol id="clock-blue" viewBox="0 0 60 60">
    <title>clock</title>
    <g fill="#ccc">
      <path d="M38,23c0-0.552-0.447-1-1-1H12c-0.553,0-1,0.448-1,1s0.447,1,1,1h25C37.553,24,38,23.552,38,23z"/>
      <path d="M12,16h10c0.553,0,1-0.448,1-1s-0.447-1-1-1H12c-0.553,0-1,0.448-1,1S11.447,16,12,16z"/>
      <path d="M31,30H12c-0.553,0-1,0.448-1,1s0.447,1,1,1h19c0.553,0,1-0.448,1-1S31.553,30,31,30z"/>
      <path d="M32,39c0-0.552-0.447-1-1-1H12c-0.553,0-1,0.448-1,1s0.447,1,1,1h19C31.553,40,32,39.552,32,39z"/>
      <path d="M12,46c-0.553,0-1,0.448-1,1s0.447,1,1,1h16c0.553,0,1-0.448,1-1s-0.447-1-1-1H12z"/>
      <path d="M3,2h29v14h14v17h2V14.586L33.414,0H1v60h34v-2H3V2z M34,3.414L44.586,14H34V3.414z"/>
    </g>
    <g fill="#55bad0">
      <path d="M47,36c-6.617,0-12,5.383-12,12s5.383,12,12,12s12-5.383,12-12S53.617,36,47,36z M47,58c-5.514,0-10-4.486-10-10 s4.486-10,10-10s10,4.486,10,10S52.514,58,47,58z"/>
      <path d="M53,47h-5v-5c0-0.552-0.447-1-1-1s-1,0.448-1,1v6c0,0.552,0.447,1,1,1h6c0.553,0,1-0.448,1-1S53.553,47,53,47z"/>
    </g>
  </symbol>
</svg>
