<?xml version="1.0" encoding="utf-8"?>
<svg xmlns="http://www.w3.org/2000/svg" style="display: none">
  <symbol id="laptop" viewBox="0 0 480 272">
    <g fill="none" stroke="#949494" stroke-width="1px">
      <path d="M269.571,2.824v233.59c0,0,1.461,32.46-32.764,33.13C202.488,270.216,4,269.947,4,269.947"/>
      <path d="M4.001,132.463h82.696c0,0,10.677,0,10.677,11.058s0,99.526,0,99.526s0,9.479-9.152,9.479s-84.222,0-84.222,0"
      />
      <path d="M170.045,112h-22.117c-1.746,0-3.16-1.139-3.16-2.546v-8.909c0-1.407,1.414-2.546,3.16-2.546h22.117
  c1.746,0,3.16,1.139,3.16,2.546v8.909C173.204,110.861,171.79,112,170.045,112z"/>
      <path d="M236.395,112h-22.117c-1.746,0-3.16-1.139-3.16-2.546v-8.909c0-1.407,1.414-2.546,3.16-2.546h22.117
  c1.746,0,3.16,1.139,3.16,2.546v8.909C239.555,110.861,238.141,112,236.395,112z"/>
      <path d="M203.22,112h-22.117c-1.746,0-3.16-1.215-3.16-2.716V98.346v-12.14c0-1.5,1.414-2.716,3.16-2.716h22.117
  c1.746,0,3.16,1.215,3.16,2.716v23.08C206.38,110.785,204.966,112,203.22,112z"/>
      <line x1="206.38" y1="98" x2="177.944" y2="98"/>
      <path d="M135.29,112h-23.697c-1.746,0-3.16-1.215-3.16-2.716V86.206c0-1.5,1.414-2.716,3.16-2.716h23.697
  c1.746,0,3.16,1.215,3.16,2.716v23.08C138.449,110.785,137.035,112,135.29,112z"/>
      <path d="M100.535,112H73.679c-1.746,0-3.16-1.215-3.16-2.716V86.206c0-1.5,1.414-2.716,3.16-2.716h26.856
  c1.746,0,3.16,1.215,3.16,2.716v23.08C103.694,110.785,102.28,112,100.535,112z"/>
      <path d="M4,83.49h58.089c2.039,0,3.691,1.215,3.691,2.716v23.08c0,1.5-1.651,2.715-3.691,2.715H4"/>
      <path d="M45.243,45.575H23.126c-1.746,0-3.16-1.414-3.16-3.16V20.299c0-1.746,1.414-3.16,3.16-3.16h22.117
  c1.746,0,3.16,1.414,3.16,3.16v22.117C48.402,44.161,46.988,45.575,45.243,45.575z"/>
      <path d="M4.084,17.139h8.935c1.343,0,2.43,1.414,2.43,3.16v22.117c-0.001,1.745-1.088,3.159-2.43,3.159H4"/>
      <path d="M29.445,78.751H7.328c-1.746,0-3.16-1.414-3.16-3.16V53.474c0-1.746,1.414-3.16,3.16-3.16h22.117
  c1.746,0,3.16,1.414,3.16,3.16v22.117C32.604,77.337,31.19,78.751,29.445,78.751z"/>
      <path d="M62.62,78.751H40.503c-1.746,0-3.16-1.414-3.16-3.16V53.474c0-1.746,1.414-3.16,3.16-3.16H62.62
  c1.746,0,3.16,1.414,3.16,3.16v22.117C65.78,77.337,64.366,78.751,62.62,78.751z"/>
      <path d="M95.795,78.751H73.679c-1.746,0-3.16-1.414-3.16-3.16V53.474c0-1.746,1.414-3.16,3.16-3.16h22.117
  c1.746,0,3.16,1.414,3.16,3.16v22.117C98.955,77.337,97.541,78.751,95.795,78.751z"/>
      <path d="M128.971,78.751h-22.117c-1.746,0-3.16-1.414-3.16-3.16V53.474c0-1.746,1.414-3.16,3.16-3.16h22.117
  c1.746,0,3.16,1.414,3.16,3.16v22.117C132.13,77.337,130.716,78.751,128.971,78.751z"/>
      <path d="M162.146,78.751h-22.117c-1.746,0-3.16-1.414-3.16-3.16V53.474c0-1.746,1.414-3.16,3.16-3.16h22.117
  c1.746,0,3.16,1.414,3.16,3.16v22.117C165.305,77.337,163.892,78.751,162.146,78.751z"/>
      <path d="M236.395,78.751h-63.191c-1.746,0-3.16-1.414-3.16-3.16V53.474c0-1.746,1.414-3.16,3.16-3.16h63.191
  c1.746,0,3.16,1.414,3.16,3.16v22.117C239.555,77.337,238.141,78.751,236.395,78.751z"/>
      <path d="M78.418,45.575H56.301c-1.746,0-3.16-1.414-3.16-3.16V20.299c0-1.746,1.414-3.16,3.16-3.16h22.117
  c1.746,0,3.16,1.414,3.16,3.16v22.117C81.577,44.161,80.164,45.575,78.418,45.575z"/>
      <path d="M111.593,45.575H89.476c-1.746,0-3.16-1.414-3.16-3.16V20.299c0-1.746,1.414-3.16,3.16-3.16h22.117
  c1.746,0,3.16,1.414,3.16,3.16v22.117C114.753,44.161,113.339,45.575,111.593,45.575z"/>
      <path d="M144.768,45.575h-22.117c-1.746,0-3.16-1.414-3.16-3.16V20.299c0-1.746,1.414-3.16,3.16-3.16h22.117
  c1.746,0,3.16,1.414,3.16,3.16v22.117C147.928,44.161,146.514,45.575,144.768,45.575z"/>
      <path d="M177.944,45.575h-22.117c-1.746,0-3.16-1.414-3.16-3.16V20.299c0-1.746,1.414-3.16,3.16-3.16h22.117
  c1.746,0,3.16,1.414,3.16,3.16v22.117C181.103,44.161,179.689,45.575,177.944,45.575z"/>
      <path d="M211.119,45.575h-22.117c-1.746,0-3.16-1.414-3.16-3.16V20.299c0-1.746,1.414-3.16,3.16-3.16h22.117
  c1.746,0,3.16,1.414,3.16,3.16v22.117C214.278,44.161,212.865,45.575,211.119,45.575z"/>
      <path d="M222.177,17.139h14.218c1.746,0,3.16,1.414,3.16,3.16v22.117c0,1.746-1.414,3.16-3.16,3.16h-14.218
  c-1.746,0-3.16-1.414-3.16-3.16V20.299C219.018,18.553,220.432,17.139,222.177,17.139z"/>
    </g>
    <g fill="#ffffff" stroke="#f49530" stroke-width="1px">
      <path class="st2" d="M363.335,104.281h-14.526c-1.746,0-3.16-1.415-3.16-3.16V86.596c0-1.746,1.415-3.16,3.16-3.16h14.526
  c1.746,0,3.16,1.415,3.16,3.16v14.526C366.495,102.868,365.081,104.281,363.335,104.281z"/>
      <path class="st2" d="M423.749,79.294h-0.226h-56.537c-1.746,0-3.16,1.414-3.16,3.16v21.953c0,1.742,1.398,3.156,3.141,3.16
  c12.278,0.025,56.377,0.118,56.902,0.118c8.981,0,16.014-8.34,13.776-17.698C436.128,83.646,430.267,79.294,423.749,79.294z"/>
      <circle class="st2" cx="423.343" cy="93.49" r="6.215"/>
      <line class="st2" x1="345.648" y1="93.858" x2="363.826" y2="93.858"/>
      <line class="st2" x1="350.645" y1="88.917" x2="354.738" y2="88.917"/>
      <line class="st2" x1="350.645" y1="98.801" x2="354.738" y2="98.801"/>
    </g>
  </symbol>

  <symbol id="laptop-blue" viewBox="0 0 480 272">
    <g fill="none" stroke="#949494" stroke-width="1px">
      <path d="M269.571,2.824v233.59c0,0,1.461,32.46-32.764,33.13C202.488,270.216,4,269.947,4,269.947"/>
      <path d="M4.001,132.463h82.696c0,0,10.677,0,10.677,11.058s0,99.526,0,99.526s0,9.479-9.152,9.479s-84.222,0-84.222,0"
      />
      <path d="M170.045,112h-22.117c-1.746,0-3.16-1.139-3.16-2.546v-8.909c0-1.407,1.414-2.546,3.16-2.546h22.117
  c1.746,0,3.16,1.139,3.16,2.546v8.909C173.204,110.861,171.79,112,170.045,112z"/>
      <path d="M236.395,112h-22.117c-1.746,0-3.16-1.139-3.16-2.546v-8.909c0-1.407,1.414-2.546,3.16-2.546h22.117
  c1.746,0,3.16,1.139,3.16,2.546v8.909C239.555,110.861,238.141,112,236.395,112z"/>
      <path d="M203.22,112h-22.117c-1.746,0-3.16-1.215-3.16-2.716V98.346v-12.14c0-1.5,1.414-2.716,3.16-2.716h22.117
  c1.746,0,3.16,1.215,3.16,2.716v23.08C206.38,110.785,204.966,112,203.22,112z"/>
      <line x1="206.38" y1="98" x2="177.944" y2="98"/>
      <path d="M135.29,112h-23.697c-1.746,0-3.16-1.215-3.16-2.716V86.206c0-1.5,1.414-2.716,3.16-2.716h23.697
  c1.746,0,3.16,1.215,3.16,2.716v23.08C138.449,110.785,137.035,112,135.29,112z"/>
      <path d="M100.535,112H73.679c-1.746,0-3.16-1.215-3.16-2.716V86.206c0-1.5,1.414-2.716,3.16-2.716h26.856
  c1.746,0,3.16,1.215,3.16,2.716v23.08C103.694,110.785,102.28,112,100.535,112z"/>
      <path d="M4,83.49h58.089c2.039,0,3.691,1.215,3.691,2.716v23.08c0,1.5-1.651,2.715-3.691,2.715H4"/>
      <path d="M45.243,45.575H23.126c-1.746,0-3.16-1.414-3.16-3.16V20.299c0-1.746,1.414-3.16,3.16-3.16h22.117
  c1.746,0,3.16,1.414,3.16,3.16v22.117C48.402,44.161,46.988,45.575,45.243,45.575z"/>
      <path d="M4.084,17.139h8.935c1.343,0,2.43,1.414,2.43,3.16v22.117c-0.001,1.745-1.088,3.159-2.43,3.159H4"/>
      <path d="M29.445,78.751H7.328c-1.746,0-3.16-1.414-3.16-3.16V53.474c0-1.746,1.414-3.16,3.16-3.16h22.117
  c1.746,0,3.16,1.414,3.16,3.16v22.117C32.604,77.337,31.19,78.751,29.445,78.751z"/>
      <path d="M62.62,78.751H40.503c-1.746,0-3.16-1.414-3.16-3.16V53.474c0-1.746,1.414-3.16,3.16-3.16H62.62
  c1.746,0,3.16,1.414,3.16,3.16v22.117C65.78,77.337,64.366,78.751,62.62,78.751z"/>
      <path d="M95.795,78.751H73.679c-1.746,0-3.16-1.414-3.16-3.16V53.474c0-1.746,1.414-3.16,3.16-3.16h22.117
  c1.746,0,3.16,1.414,3.16,3.16v22.117C98.955,77.337,97.541,78.751,95.795,78.751z"/>
      <path d="M128.971,78.751h-22.117c-1.746,0-3.16-1.414-3.16-3.16V53.474c0-1.746,1.414-3.16,3.16-3.16h22.117
  c1.746,0,3.16,1.414,3.16,3.16v22.117C132.13,77.337,130.716,78.751,128.971,78.751z"/>
      <path d="M162.146,78.751h-22.117c-1.746,0-3.16-1.414-3.16-3.16V53.474c0-1.746,1.414-3.16,3.16-3.16h22.117
  c1.746,0,3.16,1.414,3.16,3.16v22.117C165.305,77.337,163.892,78.751,162.146,78.751z"/>
      <path d="M236.395,78.751h-63.191c-1.746,0-3.16-1.414-3.16-3.16V53.474c0-1.746,1.414-3.16,3.16-3.16h63.191
  c1.746,0,3.16,1.414,3.16,3.16v22.117C239.555,77.337,238.141,78.751,236.395,78.751z"/>
      <path d="M78.418,45.575H56.301c-1.746,0-3.16-1.414-3.16-3.16V20.299c0-1.746,1.414-3.16,3.16-3.16h22.117
  c1.746,0,3.16,1.414,3.16,3.16v22.117C81.577,44.161,80.164,45.575,78.418,45.575z"/>
      <path d="M111.593,45.575H89.476c-1.746,0-3.16-1.414-3.16-3.16V20.299c0-1.746,1.414-3.16,3.16-3.16h22.117
  c1.746,0,3.16,1.414,3.16,3.16v22.117C114.753,44.161,113.339,45.575,111.593,45.575z"/>
      <path d="M144.768,45.575h-22.117c-1.746,0-3.16-1.414-3.16-3.16V20.299c0-1.746,1.414-3.16,3.16-3.16h22.117
  c1.746,0,3.16,1.414,3.16,3.16v22.117C147.928,44.161,146.514,45.575,144.768,45.575z"/>
      <path d="M177.944,45.575h-22.117c-1.746,0-3.16-1.414-3.16-3.16V20.299c0-1.746,1.414-3.16,3.16-3.16h22.117
  c1.746,0,3.16,1.414,3.16,3.16v22.117C181.103,44.161,179.689,45.575,177.944,45.575z"/>
      <path d="M211.119,45.575h-22.117c-1.746,0-3.16-1.414-3.16-3.16V20.299c0-1.746,1.414-3.16,3.16-3.16h22.117
  c1.746,0,3.16,1.414,3.16,3.16v22.117C214.278,44.161,212.865,45.575,211.119,45.575z"/>
      <path d="M222.177,17.139h14.218c1.746,0,3.16,1.414,3.16,3.16v22.117c0,1.746-1.414,3.16-3.16,3.16h-14.218
  c-1.746,0-3.16-1.414-3.16-3.16V20.299C219.018,18.553,220.432,17.139,222.177,17.139z"/>
    </g>
    <g fill="#ffffff" stroke="#5cc2d8" stroke-width="1px">
      <path class="st2" d="M363.335,104.281h-14.526c-1.746,0-3.16-1.415-3.16-3.16V86.596c0-1.746,1.415-3.16,3.16-3.16h14.526
  c1.746,0,3.16,1.415,3.16,3.16v14.526C366.495,102.868,365.081,104.281,363.335,104.281z"/>
      <path class="st2" d="M423.749,79.294h-0.226h-56.537c-1.746,0-3.16,1.414-3.16,3.16v21.953c0,1.742,1.398,3.156,3.141,3.16
  c12.278,0.025,56.377,0.118,56.902,0.118c8.981,0,16.014-8.34,13.776-17.698C436.128,83.646,430.267,79.294,423.749,79.294z"/>
      <circle class="st2" cx="423.343" cy="93.49" r="6.215"/>
      <line class="st2" x1="345.648" y1="93.858" x2="363.826" y2="93.858"/>
      <line class="st2" x1="350.645" y1="88.917" x2="354.738" y2="88.917"/>
      <line class="st2" x1="350.645" y1="98.801" x2="354.738" y2="98.801"/>
    </g>
  </symbol>
</svg>
