<?xml version="1.0" encoding="utf-8"?>
<svg baseProfile="full" xmlns="http://www.w3.org/2000/svg" xmlns:xlink="http://www.w3.org/1999/xlink" style="display: none;">
  <symbol id="fz-status-success" viewBox="0 0 48 48" fill="none">
    <path class="qrt2" fill="#17bb4f" d="M26.009 1.065c.07-.548.573-.934 1.12-.863 10.753 1.4 19.268 9.916 20.669 20.669.071.547-.315 1.05-.863 1.12-.547.072-1.05-.314-1.12-.862-1.284-9.853-9.09-17.66-18.944-18.944-.548-.07-.934-.573-.862-1.12z"/>
    <path class="qrt1" fill="#17bb4f" d="M21.992 1.06c.071.549-.315 1.05-.863 1.122C10.336 3.588 2 12.819 2 23.996s8.336 20.409 19.13 21.815c.547.071.933.573.862 1.12-.072.548-.573.934-1.121.863C9.094 46.26 0 36.19 0 23.996 0 11.802 9.094 1.732 20.87.198c.549-.07 1.05.315 1.122.863z"/>
    <path class="qrt3" fill="#17bb4f" d="M26.009 46.935c.07.548.573.934 1.12.863 10.753-1.4 19.268-9.916 20.669-20.669.071-.547-.315-1.05-.863-1.12-.547-.072-1.05.314-1.12.862-1.284 9.853-9.09 17.66-18.944 18.944-.548.07-.934.573-.862 1.12z"/>
    <circle cx="24" cy="24" r="12" fill="#0EB757"/>
    <path fill="#fff" fill-rule="evenodd" d="M30.707 20.293c.39.39.39 1.024 0 1.414l-7 7c-.39.39-1.024.39-1.414 0l-4-4c-.39-.39-.39-1.024 0-1.414.39-.39 1.024-.39 1.414 0L23 26.586l6.293-6.293c.39-.39 1.024-.39 1.414 0z" clip-rule="evenodd"/>
  </symbol>
  <symbol id="fz-status-warning" viewBox="0 0 48 48" fill="none">
    <path class="qrt2" fill="#17bb4f" d="M26.009 1.065c.07-.548.573-.934 1.12-.863 10.753 1.4 19.268 9.916 20.669 20.669.071.547-.315 1.05-.863 1.12-.547.072-1.05-.314-1.12-.862-1.284-9.853-9.09-17.66-18.944-18.944-.548-.07-.934-.573-.862-1.12z"/>
    <path class="qrt1" fill="#17bb4f" d="M21.992 1.06c.071.549-.315 1.05-.863 1.122C10.336 3.588 2 12.819 2 23.996s8.336 20.409 19.13 21.815c.547.071.933.573.862 1.12-.072.548-.573.934-1.121.863C9.094 46.26 0 36.19 0 23.996 0 11.802 9.094 1.732 20.87.198c.549-.07 1.05.315 1.122.863z"/>
    <path class="qrt3" fill="#ff890c" d="M26.009 46.935c.07.548.573.934 1.12.863 10.753-1.4 19.268-9.916 20.669-20.669.071-.547-.315-1.05-.863-1.12-.547-.072-1.05.314-1.12.862-1.284 9.853-9.09 17.66-18.944 18.944-.548.07-.934.573-.862 1.12z"/>
    <circle cx="24" cy="24" r="12" fill="#ff890c"/>
    <path fill="#fff" d="M25 18c0-.552-.448-1-1-1s-1 .448-1 1v8c0 .552.448 1 1 1s1-.448 1-1v-8zM24 31c.552 0 1-.448 1-1s-.448-1-1-1-1 .448-1 1 .448 1 1 1z"/>
  </symbol>
  <symbol id="fz-status-danger" viewBox="0 0 48 48" fill="none">
    <path class="qrt2" fill="#17bb4f" d="M26.009 1.065c.07-.548.573-.934 1.12-.863 10.753 1.4 19.268 9.916 20.669 20.669.071.547-.315 1.05-.863 1.12-.547.072-1.05-.314-1.12-.862-1.284-9.853-9.09-17.66-18.944-18.944-.548-.07-.934-.573-.862-1.12z"/>
    <path class="qrt1" fill="#17bb4f" d="M21.992 1.06c.071.549-.315 1.05-.863 1.122C10.336 3.588 2 12.819 2 23.996s8.336 20.409 19.13 21.815c.547.071.933.573.862 1.12-.072.548-.573.934-1.121.863C9.094 46.26 0 36.19 0 23.996 0 11.802 9.094 1.732 20.87.198c.549-.07 1.05.315 1.122.863z"/>
    <path class="qrt3" fill="#f7142f" d="M26.009 46.935c.07.548.573.934 1.12.863 10.753-1.4 19.268-9.916 20.669-20.669.071-.547-.315-1.05-.863-1.12-.547-.072-1.05.314-1.12.862-1.284 9.853-9.09 17.66-18.944 18.944-.548.07-.934.573-.862 1.12z"/>
    <circle cx="24" cy="24" r="12" fill="#f7142f"/>
    <path fill="#fff" d="M28.707 20.707c.39-.39.39-1.024 0-1.414-.39-.39-1.024-.39-1.414 0L24 22.586l-3.293-3.293c-.39-.39-1.024-.39-1.414 0-.39.39-.39 1.024 0 1.414L22.586 24l-3.293 3.293c-.39.39-.39 1.024 0 1.414.39.39 1.024.39 1.414 0L24 25.414l3.293 3.293c.39.39 1.024.39 1.414 0 .39-.39.39-1.024 0-1.414L25.414 24l3.293-3.293z"/> </symbol>
  </symbol>
  <symbol id="fz-status-lock" viewBox="0 0 48 48" fill="none">
    <path class="qrt2" fill="rgba(170, 178, 183, 0.8)" d="M26.009 1.065c.07-.548.573-.934 1.12-.863 10.753 1.4 19.268 9.916 20.669 20.669.071.547-.315 1.05-.863 1.12-.547.072-1.05-.314-1.12-.862-1.284-9.853-9.09-17.66-18.944-18.944-.548-.07-.934-.573-.862-1.12z"/>
    <path class="qrt1" fill="rgba(170, 178, 183, 0.8)" d="M21.992 1.06c.071.549-.315 1.05-.863 1.122C10.336 3.588 2 12.819 2 23.996s8.336 20.409 19.13 21.815c.547.071.933.573.862 1.12-.072.548-.573.934-1.121.863C9.094 46.26 0 36.19 0 23.996 0 11.802 9.094 1.732 20.87.198c.549-.07 1.05.315 1.122.863z"/>
    <path class="qrt3" fill="rgba(170, 178, 183, 0.8)" d="M26.009 46.935c.07.548.573.934 1.12.863 10.753-1.4 19.268-9.916 20.669-20.669.071-.547-.315-1.05-.863-1.12-.547-.072-1.05.314-1.12.862-1.284 9.853-9.09 17.66-18.944 18.944-.548.07-.934.573-.862 1.12z"/>
    <path d="M29.0007 20.6667H28.1673V19C28.1673 16.7 26.3007 14.8334 24.0007 14.8334C21.7007 14.8334 19.834 16.7 19.834 19V20.6667H19.0007C18.084 20.6667 17.334 21.4167 17.334 22.3334V30.6667C17.334 31.5834 18.084 32.3334 19.0007 32.3334H29.0007C29.9173 32.3334 30.6673 31.5834 30.6673 30.6667V22.3334C30.6673 21.4167 29.9173 20.6667 29.0007 20.6667ZM24.0007 28.1667C23.084 28.1667 22.334 27.4167 22.334 26.5C22.334 25.5834 23.084 24.8334 24.0007 24.8334C24.9173 24.8334 25.6673 25.5834 25.6673 26.5C25.6673 27.4167 24.9173 28.1667 24.0007 28.1667ZM21.5007 20.6667V19C21.5007 17.6167 22.6173 16.5 24.0007 16.5C25.384 16.5 26.5007 17.6167 26.5007 19V20.6667H21.5007Z" fill="#949494"/>
  </symbol>
  <symbol id="fz-status-quest" viewBox="0 0 48 48" fill="none">
    <path class="qrt2" fill="rgba(170, 178, 183, 0.8)" d="M26.009 1.065c.07-.548.573-.934 1.12-.863 10.753 1.4 19.268 9.916 20.669 20.669.071.547-.315 1.05-.863 1.12-.547.072-1.05-.314-1.12-.862-1.284-9.853-9.09-17.66-18.944-18.944-.548-.07-.934-.573-.862-1.12z"/>
    <path class="qrt1" fill="#17bb4f" d="M21.992 1.06c.071.549-.315 1.05-.863 1.122C10.336 3.588 2 12.819 2 23.996s8.336 20.409 19.13 21.815c.547.071.933.573.862 1.12-.072.548-.573.934-1.121.863C9.094 46.26 0 36.19 0 23.996 0 11.802 9.094 1.732 20.87.198c.549-.07 1.05.315 1.122.863z"/>
    <path class="qrt3" fill="#ff890c" d="M26.009 46.935c.07.548.573.934 1.12.863 10.753-1.4 19.268-9.916 20.669-20.669.071-.547-.315-1.05-.863-1.12-.547-.072-1.05.314-1.12.862-1.284 9.853-9.09 17.66-18.944 18.944-.548.07-.934.573-.862 1.12z"/>
    <circle cx="24" cy="24" r="12" fill="rgba(170, 178, 183, 0.8)"/>
    <path fill="#fff" d="M22.166 20.2c.31-.708 1.016-1.2 1.834-1.2 1.105 0 2 .895 2 2s-.895 2-2 2c-.552 0-1 .448-1 1v2c0 .552.448 1 1 1s1-.448 1-1v-1.126c1.725-.444 3-2.01 3-3.874 0-2.21-1.79-4-4-4-1.642 0-3.05.989-3.667 2.4-.22.506.01 1.095.516 1.316.506.221 1.096-.01 1.317-.516zM24 31c.552 0 1-.448 1-1s-.448-1-1-1-1 .448-1 1 .448 1 1 1z"/>
  </symbol>

  <symbol id="fz-status-success-ext" viewBox="0 0 40 40" fill="none">
    <circle cx="20" cy="20" r="20" fill="#B4E9C6"/>
    <path d="M20 8C13.3832 8 8 13.382 8 20C8 26.618 13.3832 32 20 32C26.6168 32 32 26.618 32 20C32 13.382 26.6168 8 20 8Z" fill="#0EB757"/>
    <path d="M25.8283 16.9999C25.3597 16.5313 24.5999 16.5313 24.1313 16.9999L18.9929 22.1383L16.4001 19.5455C15.9315 19.0769 15.1717 19.0769 14.703 19.5455C14.2344 20.0141 14.2344 20.7739 14.703 21.2425L18.0971 24.6367C18.3435 24.883 18.6702 24.9998 18.9929 24.9872C19.3155 24.9998 19.6423 24.883 19.8886 24.6367L25.8283 18.697C26.2969 18.2283 26.2969 17.4685 25.8283 16.9999Z" fill="white"/>
  </symbol>
  <symbol id="fz-status-warning-ext" viewBox="0 0 40 40" fill="none">
    <circle cx="20" cy="20" r="20" fill="#FFD5A9"/>
    <path d="M19.9992 9.19995C14.0441 9.19995 9.19922 14.0438 9.19922 20C9.19922 25.9562 14.0441 30.7999 19.9992 30.7999C25.9543 30.7999 30.7992 25.9562 30.7992 20C30.7992 14.0438 25.9543 9.19995 19.9992 9.19995Z" fill="#FF890C"/>
    <rect x="18.8008" y="14" width="2.4" height="9.6" rx="1" fill="white"/>
    <path fill-rule="evenodd" clip-rule="evenodd" d="M20.0008 27.2001C20.6635 27.2001 21.2008 26.6628 21.2008 26C21.2008 25.3373 20.6635 24.8 20.0008 24.8C19.338 24.8 18.8008 25.3373 18.8008 26C18.8008 26.6628 19.338 27.2001 20.0008 27.2001Z" fill="white"/>  
  </symbol>
  <symbol id="fz-status-danger-ext" viewBox="0 0 40 40" fill="none">
    <circle cx="20" cy="20" r="20" fill="#F6E3E5"/>
    <path d="M19.9992 30.7999C14.0441 30.7999 9.19922 25.9562 9.19922 20C9.19922 14.0438 14.0441 9.19995 19.9992 9.19995C25.9543 9.19995 30.7992 14.0438 30.7992 20C30.7992 25.9562 25.9543 30.7999 19.9992 30.7999Z" fill="#D0021B"/>
    <path fill-rule="evenodd" clip-rule="evenodd" d="M21.6834 20.0001L25.0509 23.3676C25.5159 23.8326 25.5159 24.5864 25.0509 25.0514C24.5859 25.5163 23.8321 25.5163 23.3671 25.0514L19.9996 21.6839L16.6321 25.0514C16.1671 25.5163 15.4133 25.5163 14.9483 25.0514C14.4834 24.5864 14.4834 23.8326 14.9483 23.3676L18.3158 20.0001L14.9483 16.6326C14.4834 16.1676 14.4834 15.4138 14.9483 14.9488C15.4133 14.4839 16.1671 14.4839 16.6321 14.9488L19.9996 18.3163L23.3671 14.9488C23.8321 14.4839 24.5859 14.4839 25.0509 14.9488C25.5159 15.4138 25.5159 16.1676 25.0509 16.6326L21.6834 20.0001Z" fill="white"/>
  </symbol>
  <symbol id="fz-status-time-ext" viewBox="0 0 40 40" fill="none">
    <circle cx="20" cy="20" r="20" fill="#E4E8EB"/>
    <path d="M20 30C14.486 30 10 25.515 10 20C10 14.485 14.486 10 20 10C25.514 10 30 14.485 30 20C30 25.515 25.514 30 20 30Z" fill="#B2B8BF"/>
    <path fill-rule="evenodd" clip-rule="evenodd" d="M20 14.5C20.5523 14.5 21 14.9477 21 15.5V20.0721L23.4702 22.43C23.8697 22.8114 23.8844 23.4444 23.5031 23.8439C23.1217 24.2434 22.4888 24.2581 22.0893 23.8767L19.3095 21.2234C19.1118 21.0347 19 20.7733 19 20.5V15.5C19 14.9477 19.4477 14.5 20 14.5Z" fill="white"/>
  </symbol>

  <symbol id="fz-risk" viewBox="0 0 48 48" fill="none">
    <path class="qrt1 opacity-3" fill="transparent" d="M22 1.194C10.715 2.664 1 12.314 1 24c0 11.686 9.715 21.336 21 22.806V1.194z"/>
    <path class="qrt2 opacity-3" fill="transparent"  d="M46.806 22C45.464 11.697 36.303 2.536 26 1.194V22h20.806z"/>
    <path class="qrt3 opacity-3" fill="transparent" d="M46.806 26.004C45.464 36.307 36.303 45.468 26 46.81V26.004h20.806z"/>
    <path class="qrt2" fill="rgba(170, 178, 183, 0.8)" d="M26.009 1.065c.07-.548.573-.934 1.12-.863 10.753 1.4 19.268 9.916 20.669 20.669.071.547-.315 1.05-.863 1.12-.547.072-1.05-.314-1.12-.862-1.284-9.853-9.09-17.66-18.944-18.944-.548-.07-.934-.573-.862-1.12z"/>
    <path class="qrt1" fill="rgba(170, 178, 183, 0.8)" d="M21.992 1.06c.071.549-.315 1.05-.863 1.122C10.336 3.588 2 12.819 2 23.996s8.336 20.409 19.13 21.815c.547.071.933.573.862 1.12-.072.548-.573.934-1.121.863C9.094 46.26 0 36.19 0 23.996 0 11.802 9.094 1.732 20.87.198c.549-.07 1.05.315 1.122.863z"/>
    <path class="qrt3" fill="rgba(170, 178, 183, 0.8)" d="M26.009 46.935c.07.548.573.934 1.12.863 10.753-1.4 19.268-9.916 20.669-20.669.071-.547-.315-1.05-.863-1.12-.547-.072-1.05.314-1.12.862-1.284 9.853-9.09 17.66-18.944 18.944-.548.07-.934.573-.862 1.12z"/>
  </symbol>

  <symbol id="fz-puls-active" viewBox="0 0 32 32" fill="none">
    <path fill="#1F1F22" d="M12.886 3.675c-.145-.424-.555-.7-1.003-.673-.448.025-.823.346-.92.784L7.894 17.81l-1.928-7.073c-.11-.4-.454-.691-.866-.732-.413-.041-.808.177-.993.548L2.382 14H1c-.552 0-1 .448-1 1s.448 1 1 1h2c.379 0 .725-.214.894-.553l.83-1.659 2.311 8.475c.121.444.53.748.99.737.46-.012.853-.336.952-.786l3.177-14.512.9 2.623c.18.522.748.8 1.27.62.523-.178.801-.747.622-1.27l-2.06-6zM24.707 11.293c-.259-.259-.639-.356-.99-.252-.351.103-.617.39-.695.748l-1.948 9.032-1.127 4.363-.985-3.458c-.152-.531-.705-.84-1.236-.688-.531.152-.84.705-.688 1.236l1.995 7c.124.434.523.732.974.726.451-.006.843-.313.956-.75l2.052-7.949.01-.039 1.565-7.257 1.703 1.702c.187.188.442.293.707.293h3c.552 0 1-.448 1-1s-.448-1-1-1h-2.586l-2.707-2.707z"/>
    <path fill="#0EB757" fill-rule="evenodd" d="M13 16c0-1.657 1.343-3 3-3s3 1.343 3 3-1.343 3-3 3-3-1.343-3-3zm3-1c-.552 0-1 .448-1 1s.448 1 1 1 1-.448 1-1-.448-1-1-1z" clip-rule="evenodd"/>  
  </symbol>
  <symbol id="fz-finhelper" viewBox="0 0 32 32" fill="none">
    <path fill="#0EB757" fill-rule="evenodd" d="M15 8c0-2.761 2.239-5 5-5h5c2.761 0 5 2.239 5 5v2c0 2.761-2.239 5-5 5h-3.466c-.82 0-1.603.335-2.17.927l-.918.962C17.199 18.192 15 17.31 15 15.507V8zm5-3c-1.657 0-3 1.343-3 3v7.507l.92-.962c.942-.987 2.248-1.545 3.613-1.545H25c1.657 0 3-1.343 3-3V8c0-1.657-1.343-3-3-3h-5z" clip-rule="evenodd"/>
    <path fill="#1F1F22" fill-rule="evenodd" d="M9 12c-2.21 0-4 1.79-4 4s1.79 4 4 4 4-1.79 4-4-1.79-4-4-4zm-2 4c0-1.105.895-2 2-2s2 .895 2 2-.895 2-2 2-2-.895-2-2zM13.54 21.379c-.628-.51-1.541-.506-2.163.014-.665.555-1.527.867-2.429.867-.884 0-1.734-.301-2.392-.838l-.002-.001c-.628-.509-1.54-.504-2.161.014l-.002.001C2.881 22.698 2 24.527 2 26.464c0 .396.039.797.113 1.192.154.814.88 1.344 1.65 1.344h10.473c.77 0 1.497-.528 1.65-1.344.076-.396.114-.797.114-1.192 0-1.97-.907-3.82-2.46-5.084v-.001zm-4.592 2.88c1.274 0 2.512-.411 3.512-1.172.99.889 1.54 2.109 1.54 3.377 0 .175-.011.355-.034.536H4.034c-.023-.181-.034-.361-.034-.536 0-1.245.534-2.45 1.493-3.335.99.734 2.208 1.13 3.455 1.13z" clip-rule="evenodd"/>
  </symbol>
  <symbol id="fz-sound" viewBox="0 0 40 40" fill="none">
    <path d="M28.8722 7.00623C27.9777 6.881 27.151 7.50465 27.0258 8.39919C26.9005 9.29374 27.5242 10.1204 28.4187 10.2457C33.2164 10.9931 36.7541 15.1247 36.7541 19.9802C36.7541 24.8357 33.2164 28.9673 28.4187 29.7147C27.5331 29.8433 26.9194 30.6655 27.048 31.5511C27.1766 32.4367 27.9988 33.0504 28.8844 32.9218C35.2779 31.9461 40.0009 26.4478 40.0009 19.9802C40.0009 13.5126 35.2779 8.01431 28.8844 7.03863L28.8722 7.00623Z" fill="#17BB4F"/>
    <path d="M28.1054 23.3062C27.3626 23.5696 26.9172 24.3293 27.0502 25.1061C27.1832 25.8828 27.8559 26.4512 28.6439 26.4525C28.8275 26.4532 29.0098 26.4217 29.1825 26.3594C31.685 25.4726 33.5031 22.8082 33.5031 19.9736C33.5031 17.1391 31.685 14.4706 29.1825 13.5879C28.6315 13.3723 28.0067 13.4744 27.5529 13.8541C27.0992 14.2339 26.8886 14.8308 27.0036 15.4112C27.1187 15.9917 27.5411 16.4631 28.1054 16.6411C29.3161 17.0703 30.2637 18.5321 30.2637 19.9736C30.2637 21.4152 29.3161 22.877 28.1054 23.3062Z" fill="#17BB4F"/>
    <path fill-rule="evenodd" clip-rule="evenodd" d="M18.5375 0.920242C19.3585 0.0225741 20.5983 -0.246889 21.6745 0.238424C22.7601 0.724422 23.4647 1.87763 23.4546 3.15206V36.8111C23.4533 38.0731 22.7503 39.2094 21.6745 39.6884C21.3245 39.8483 20.9485 39.9302 20.5688 39.9293C19.8073 39.9314 19.0763 39.6042 18.5375 39.0202L11.032 30.8793H5.02598C2.25021 30.8793 0 28.4373 0 25.4248V14.5157C0 11.5032 2.25021 9.06115 5.02598 9.06115H11.032L18.5375 0.920242ZM12.8718 27.7748L19.8182 35.5793V4.36115L12.8718 12.1657C12.568 12.5066 12.1562 12.6979 11.7269 12.6975H5.25382C4.36008 12.6975 3.63556 13.5115 3.63556 14.5157V25.4248C3.63556 26.4289 4.36008 27.243 5.25382 27.243H11.7269C12.1562 27.2426 12.568 27.4339 12.8718 27.7748Z" fill="#17BB4F"/>
  </symbol>
  <symbol id="fz-sound" viewBox="0 0 40 40" fill="none">
    <path d="M28.8722 7.00623C27.9777 6.881 27.151 7.50465 27.0258 8.39919C26.9005 9.29374 27.5242 10.1204 28.4187 10.2457C33.2164 10.9931 36.7541 15.1247 36.7541 19.9802C36.7541 24.8357 33.2164 28.9673 28.4187 29.7147C27.5331 29.8433 26.9194 30.6655 27.048 31.5511C27.1766 32.4367 27.9988 33.0504 28.8844 32.9218C35.2779 31.9461 40.0009 26.4478 40.0009 19.9802C40.0009 13.5126 35.2779 8.01431 28.8844 7.03863L28.8722 7.00623Z" fill="#17BB4F"/>
    <path d="M28.1054 23.3062C27.3626 23.5696 26.9172 24.3293 27.0502 25.1061C27.1832 25.8828 27.8559 26.4512 28.6439 26.4525C28.8275 26.4532 29.0098 26.4217 29.1825 26.3594C31.685 25.4726 33.5031 22.8082 33.5031 19.9736C33.5031 17.1391 31.685 14.4706 29.1825 13.5879C28.6315 13.3723 28.0067 13.4744 27.5529 13.8541C27.0992 14.2339 26.8886 14.8308 27.0036 15.4112C27.1187 15.9917 27.5411 16.4631 28.1054 16.6411C29.3161 17.0703 30.2637 18.5321 30.2637 19.9736C30.2637 21.4152 29.3161 22.877 28.1054 23.3062Z" fill="#17BB4F"/>
    <path fill-rule="evenodd" clip-rule="evenodd" d="M18.5375 0.920242C19.3585 0.0225741 20.5983 -0.246889 21.6745 0.238424C22.7601 0.724422 23.4647 1.87763 23.4546 3.15206V36.8111C23.4533 38.0731 22.7503 39.2094 21.6745 39.6884C21.3245 39.8483 20.9485 39.9302 20.5688 39.9293C19.8073 39.9314 19.0763 39.6042 18.5375 39.0202L11.032 30.8793H5.02598C2.25021 30.8793 0 28.4373 0 25.4248V14.5157C0 11.5032 2.25021 9.06115 5.02598 9.06115H11.032L18.5375 0.920242ZM12.8718 27.7748L19.8182 35.5793V4.36115L12.8718 12.1657C12.568 12.5066 12.1562 12.6979 11.7269 12.6975H5.25382C4.36008 12.6975 3.63556 13.5115 3.63556 14.5157V25.4248C3.63556 26.4289 4.36008 27.243 5.25382 27.243H11.7269C12.1562 27.2426 12.568 27.4339 12.8718 27.7748Z" fill="#17BB4F"/>
  </symbol>
  <symbol id="fz-loudspeaker-off" viewBox="0 0 24 24" fill="none">
    <g fill="none" fill-rule="evenodd" stroke="#9B9B9B" stroke-linecap="round" stroke-linejoin="round" stroke-width="2">
      <g stroke-opacity=".5">
          <path d="M10.938 12.518v5.299a1 1 0 0 1-1.715.699L7.16 16.403M3.648 14.418a2 2 0 0 1-.64-1.465v-2.396A2 2 0 0 1 4.267 8.7l1.836-.735a2 2 0 0 0 .69-.462l2.43-2.496a1 1 0 0 1 1.716.697v1.772M16.255 11.808c0 1.372-.397 2.697-1.19 3.975M19.99 8.226c.17.427.292.796.367 1.108.197.813.295 1.638.295 2.474 0 2.058-.595 4.045-1.784 5.963"/>
      </g>
      <path d="M20.327 3.015L4.064 19.278"/>
  </g> 
  </symbol>
  <symbol id="fz-filter-active" viewBox="0 0 24 24" fill="none">
    <g fill="none" fill-rule="evenodd">
        <path d="M0 0h24v24H0z"/>
        <path stroke="#1F1F22" stroke-linecap="round" stroke-linejoin="round" stroke-width="2" d="M20.039 12H12m-4.038 0H4.439M20.039 18h-7.55M8.57 18H4.44M11 6H4.439"/>
        <path stroke="#1F1F22" stroke-linecap="round" stroke-linejoin="round" stroke-width="2" d="M8.126 9.5v5M12.126 15.5v5"/>
        <circle cx="18.786" cy="5.367" r="4.078" fill="#0EB757"/>
    </g>
  </symbol>
  <symbol id="fz-filter-no-active" viewBox="0 0 24 24" fill="none">
    <g fill="none" fill-rule="evenodd">
        <path d="M0 0h24v24H0z"/>
        <path stroke="#1F1F22" stroke-linecap="round" stroke-opacity="0.5" stroke-linejoin="round" stroke-width="2" d="M20.039 12H12m-4.038 0H4.439M20.039 18h-7.55M8.57 18H4.44M11 6H4.439"/>
        <path stroke="#1F1F22" stroke-linecap="round" stroke-linejoin="round" stroke-width="2" d="M8.126 9.5v5M12.126 15.5v5"/>
        <circle cx="18.786" cy="5.367" r="4.078" fill="#9B9B9B"/>
    </g>
  </symbol>
</svg>
