<svg xmlns="http://www.w3.org/2000/svg" style="display: none;">
  <symbol id="paper-plane" viewBox="0 0 512 512"><title>paper-plane</title>
    <path d="M511.878,24.411v-0.123c0-0.244-0.122-0.366-0.244-0.61v-0.122c-0.366-0.854-1.098-1.587-1.953-1.953
      c-0.488-0.244-0.976-0.366-1.464-0.366c-0.244,0-0.488,0-0.732,0c0,0,0,0-0.122,0c-0.244,0-0.366,0.122-0.61,0.122
      c0,0,0,0-0.122,0c-0.244,0.122-0.488,0.122-0.61,0.244c0,0-0.122,0-0.122,0.122L2.197,283.767C0.854,284.499,0,285.963,0,287.55
      c0.122,1.587,1.098,2.929,2.563,3.539l148.291,55.655l48.576,141.334c0,0,0,0.122,0.122,0.122c0,0.122,0,0.122,0.122,0.244
      s0.122,0.366,0.244,0.488l0.122,0.122c0.122,0.122,0.244,0.366,0.366,0.488s0.366,0.366,0.61,0.488c0,0,0.122,0,0.122,0.122
      c0.122,0.122,0.244,0.122,0.366,0.244c0.122,0,0.122,0.122,0.244,0.122s0.244,0.122,0.366,0.122s0.244,0,0.366,0.122
      c0.122,0,0.122,0,0.244,0c0.244,0,0.366,0,0.61,0c0.122,0,0.244,0,0.244,0c0.488,0,0.976-0.244,1.464-0.366
      c0.122,0,0.122-0.122,0.244-0.122c0.244-0.122,0.488-0.244,0.732-0.488c0.244-0.244,0.366-0.488,0.61-0.732c0,0,0,0,0-0.122
      l52.725-79.821c1.22-1.831,0.732-4.271-1.098-5.492c-1.831-1.22-4.271-0.732-5.492,1.098l-41.741,63.222l18.795-99.959
      l196.989,82.505c1.098,0.488,2.319,0.366,3.417-0.122c1.098-0.61,1.831-1.587,2.075-2.807L512,26.12v-0.122
      c0-0.122,0-0.244,0-0.366s0-0.244,0-0.488c0-0.122,0-0.122,0-0.244S512,24.533,511.878,24.411z M13.792,286.696L481.976,43.329
      L153.173,338.934L13.792,286.696z M223.717,359.682c-0.244,0.244-0.488,0.61-0.61,0.976c0,0,0,0,0,0.122
      c-0.122,0.244-0.244,0.488-0.244,0.854l-20.626,109.357l-43.572-126.2L469.16,65.663L223.717,359.682z M425.344,441.211
      L233.238,360.78L501.259,39.789L425.344,441.211z"/>
    <path d="M464.156,120.097c-2.197-0.366-4.271,0.976-4.638,3.173l-5.736,30.513c-0.365,2.076,1.099,4.272,3.174,4.638
      c0.244,0,0.488,0.122,0.732,0.122c1.831,0,3.539-1.342,3.905-3.295l5.736-30.513C467.695,122.538,466.353,120.464,464.156,120.097 z"/>
    <path d="M452.805,181.001c-2.197-0.366-4.271,0.976-4.638,3.173l-43.206,228.6c-0.487,2.197,0.855,4.272,3.052,4.638
      c0.244,0,0.488,0.122,0.732,0.122c1.831,0,3.539-1.342,3.905-3.295l43.328-228.6C456.344,183.442,455.002,181.368,452.805,181.001 z"/>
  </symbol>
  <symbol id="email" viewBox="0 0 512 512"><title>email</title>
    <g style="fill: #ddd;">
      <path d="M466.231,124.064h-10.13V32.038c0-2.197-1.831-4.027-4.027-4.027H56.021c-2.197,0-4.027,1.831-4.027,4.027v92.026H42.23
        C18.185,124.064,0,142.616,0,167.147v272.05c0,25.143,18.551,44.793,42.23,44.793h424.001c24.41,0,45.769-20.992,45.769-44.793
        v-272.05C512,143.836,491.008,124.064,466.231,124.064z M456.1,131.997h10.131c7.445,0,14.524,2.197,20.504,5.858L456.1,162.632
        V131.997z M60.049,168.002V36.066h387.997v132.059c0,0.366,0,0.732,0.122,0.976l-62.001,50.162H218.225
        c-2.197,0-4.027,1.831-4.027,4.027c0,2.196,1.831,4.027,4.027,4.027H376.28l-50.406,40.765H184.052
        c-0.488,0-0.976,0.122-1.464,0.244l-49.918-40.277h51.383c2.197,0,4.027-1.831,4.027-4.027c0-2.196-1.831-4.027-4.027-4.027
        h-60.049c-0.366,0-0.732,0.122-1.098,0.122l-63.101-50.894C59.927,168.856,60.049,168.368,60.049,168.002z M315.987,276.016
        l-61.757,50.04l-62.001-50.04H315.987z M42.108,131.998h9.886v31l-30.268-24.41C27.34,134.439,34.418,131.998,42.108,131.998z
        M504.189,439.197h-0.122v0c0,9.276-4.027,18.063-10.375,24.777L315.377,319.588c-1.709-1.342-4.271-1.098-5.614,0.61
        c-1.342,1.709-1.098,4.271,0.61,5.614L487.59,469.222c-6.102,4.271-13.548,6.834-21.358,6.834H42.23
        c-7.811,0-15.012-2.685-20.748-7.323l176.606-142.92c1.709-1.342,1.953-3.905,0.61-5.614c-1.342-1.709-3.905-1.953-5.614-0.61
        L15.866,462.996c-4.882-6.346-7.934-14.646-7.934-23.8v-272.05c0-8.91,2.929-16.965,7.934-23.067l235.8,190.154
        c0.732,0.61,1.587,0.854,2.563,0.854c0.854,0,1.831-0.244,2.563-0.854l72.132-58.34c1.342-0.244,2.319-1.098,2.929-2.319
        L493.326,142.86c6.591,6.346,10.863,15.012,10.863,24.288V439.197z"/>
      <path d="M403.986,75.976H103.987c-2.197,0-4.027,1.831-4.027,4.027c0,2.197,1.83,4.027,4.027,4.027h299.999
        c2.197,0,4.027-1.831,4.027-4.027C408.013,77.807,406.182,75.976,403.986,75.976z"/>
      <path d="M403.986,124.064H252.033c-2.197,0-4.027,1.831-4.027,4.027s1.831,4.027,4.027,4.027h151.953
        c2.197,0,4.027-1.831,4.027-4.027C408.013,125.773,406.182,124.064,403.986,124.064z"/>
      <path d="M212.001,123.942H103.987c-2.197,0-4.027,1.831-4.027,4.027s1.83,4.027,4.027,4.027h108.014
        c2.197,0,4.027-1.831,4.027-4.027C216.028,125.773,214.197,123.942,212.001,123.942z"/>
      <path d="M403.986,172.03h-72.01c-2.197,0-4.027,1.831-4.027,4.027c0,2.197,1.831,4.027,4.027,4.027h72.01
        c2.197,0,4.027-1.831,4.027-4.027C408.013,173.86,406.182,172.03,403.986,172.03z"/>
      <path d="M291.944,172.031H103.987c-2.197,0-4.027,1.831-4.027,4.027c0,2.196,1.83,4.027,4.027,4.027h187.957
      c2.197,0,4.027-1.831,4.027-4.027C295.971,173.862,294.14,172.031,291.944,172.031z"/>
    </g>
  </symbol>
</svg>
