<svg xmlns="http://www.w3.org/2000/svg" style="display: none;">
  <symbol id="inbox" viewBox="0 0 60 60">
    <title>inbox</title>
    <path
      d="M26.525,10.5l-4.712-6.582l-0.001-0.001L21.515,3.5H0v53h60v-46H26.525z M58,12.5v5H31.537l-3.579-5H58z M2,54.5v-49 h18.485l5,7h0.012l4.69,6.551c0.195,0.272,0.502,0.417,0.813,0.418V19.5h27v35H2z"/>
    <polygon
      points="31,43.086 31,25.5 29,25.5 29,43.086 22.707,36.793 21.293,38.207 30,46.914 38.707,38.207 37.293,36.793 "/>
  </symbol>
  <symbol id="outbox" viewBox="0 0 60 60">
    <title>outbox</title>
    <path
      d="M26.525,10.5l-4.712-6.582l-0.001-0.001L21.515,3.5H0v53h60v-46H26.525z M58,12.5v5H31.537l-3.579-5H58z M2,54.5v-49 h18.485l5,7h0.012l4.69,6.551c0.195,0.272,0.502,0.417,0.813,0.418V19.5h27v35H2z"/>
    <polygon
      points="21.293,32.793 22.707,34.207 29,27.914 29,45.5 31,45.5 31,27.914 37.293,34.207 38.707,32.793 30,24.086 "/>
  </symbol>
  <symbol id="out" viewBox="0 0 58.999 58.999">
    <title>out</title>
    <path
      d="M19.479,12.019c0.256,0,0.512-0.098,0.707-0.293l8.313-8.313v35.586c0,0.553,0.447,1,1,1s1-0.447,1-1V3.413l8.272,8.272 c0.391,0.391,1.023,0.391,1.414,0s0.391-1.023,0-1.414l-9.978-9.978c-0.092-0.093-0.203-0.166-0.327-0.217 c-0.244-0.101-0.519-0.101-0.764,0c-0.123,0.051-0.234,0.125-0.326,0.217L18.772,10.312c-0.391,0.391-0.391,1.023,0,1.414 C18.967,11.922,19.223,12.019,19.479,12.019z"/>
    <path
      d="M36.499,15.999c-0.553,0-1,0.447-1,1s0.447,1,1,1h13v39h-40v-39h13c0.553,0,1-0.447,1-1s-0.447-1-1-1h-15v43h44v-43H36.499 z"/>
  </symbol>
  <symbol id="in" viewBox="0 0 59 59">
    <title>in</title>
    <path
      d="M20.187,28.313c-0.391-0.391-1.023-0.391-1.414,0s-0.391,1.023,0,1.414l9.979,9.979C28.938,39.895,29.192,40,29.458,40 c0.007,0,0.014-0.004,0.021-0.004c0.007,0,0.013,0.004,0.021,0.004c0.333,0,0.613-0.173,0.795-0.423l9.891-9.891 c0.391-0.391,0.391-1.023,0-1.414s-1.023-0.391-1.414,0L30.5,36.544V1c0-0.553-0.447-1-1-1s-1,0.447-1,1v35.628L20.187,28.313z"/>
    <path
      d="M36.5,16c-0.553,0-1,0.447-1,1s0.447,1,1,1h13v39h-40V18h13c0.553,0,1-0.447,1-1s-0.447-1-1-1h-15v43h44V16H36.5z"/>
  </symbol>
  <symbol id="trash" viewBox="0 0 59 59">
    <title>trash</title>
    <path d="M29.5,51c0.552,0,1-0.447,1-1V17c0-0.553-0.448-1-1-1s-1,0.447-1,1v33C28.5,50.553,28.948,51,29.5,51z"/>
    <path d="M19.5,51c0.552,0,1-0.447,1-1V17c0-0.553-0.448-1-1-1s-1,0.447-1,1v33C18.5,50.553,18.948,51,19.5,51z"/>
    <path d="M39.5,51c0.552,0,1-0.447,1-1V17c0-0.553-0.448-1-1-1s-1,0.447-1,1v33C38.5,50.553,38.948,51,39.5,51z"/>
    <path
      d="M52.5,6H38.456c-0.11-1.25-0.495-3.358-1.813-4.711C35.809,0.434,34.751,0,33.499,0H23.5c-1.252,0-2.31,0.434-3.144,1.289 C19.038,2.642,18.653,4.75,18.543,6H6.5c-0.552,0-1,0.447-1,1s0.448,1,1,1h2.041l1.915,46.021C10.493,55.743,11.565,59,15.364,59 h28.272c3.799,0,4.871-3.257,4.907-4.958L50.459,8H52.5c0.552,0,1-0.447,1-1S53.052,6,52.5,6z M21.792,2.681 C22.24,2.223,22.799,2,23.5,2h9.999c0.701,0,1.26,0.223,1.708,0.681c0.805,0.823,1.128,2.271,1.24,3.319H20.553 C20.665,4.952,20.988,3.504,21.792,2.681z M46.544,53.979C46.538,54.288,46.4,57,43.636,57H15.364 c-2.734,0-2.898-2.717-2.909-3.042L10.542,8h37.915L46.544,53.979z"/>
  </symbol>
  <symbol id="draw" viewBox="0 0 60.017 60.017">
    <title>draw</title>
    <path
      d="M59.144,3.731l-2.85-2.851c-1.164-1.161-3.057-1.162-4.221,0.001l-3.126,3.126H0v56h56V11.097l0.305-0.305l0,0l2.839-2.839 C60.308,6.789,60.308,4.895,59.144,3.731z M20.047,36.759l3.22,3.22l-4.428,1.208L20.047,36.759z M52.062,12.206L47.82,7.964 l1.414-1.414l4.243,4.242L52.062,12.206z M50.648,13.62L25.192,39.076l-4.242-4.242L46.406,9.378L50.648,13.62z M54,13.097v44.91H2 v-52h44.947L18.829,34.127l-0.188,0.188l-2.121,7.779l-1.226,1.226c-0.391,0.391-0.391,1.023,0,1.414 c0.195,0.195,0.451,0.293,0.707,0.293s0.512-0.098,0.707-0.293l1.226-1.226l7.779-2.123l26.351-26.35h0l0.447-0.447L54,13.097z M57.73,6.539l-2.839,2.839l-4.243-4.243l2.839-2.839c0.384-0.384,1.009-0.383,1.393,0l2.85,2.85 C58.114,5.529,58.114,6.155,57.73,6.539z"/>
  </symbol>
  <symbol id="settings" viewBox="0 0 54 54">
    <title>settings</title>
    <path
      d="M51.22,21h-5.052c-0.812,0-1.481-0.447-1.792-1.197s-0.153-1.54,0.42-2.114l3.572-3.571 c0.525-0.525,0.814-1.224,0.814-1.966c0-0.743-0.289-1.441-0.814-1.967l-4.553-4.553c-1.05-1.05-2.881-1.052-3.933,0l-3.571,3.571 c-0.574,0.573-1.366,0.733-2.114,0.421C33.447,9.313,33,8.644,33,7.832V2.78C33,1.247,31.753,0,30.22,0H23.78 C22.247,0,21,1.247,21,2.78v5.052c0,0.812-0.447,1.481-1.197,1.792c-0.748,0.313-1.54,0.152-2.114-0.421l-3.571-3.571 c-1.052-1.052-2.883-1.05-3.933,0l-4.553,4.553c-0.525,0.525-0.814,1.224-0.814,1.967c0,0.742,0.289,1.44,0.814,1.966l3.572,3.571 c0.573,0.574,0.73,1.364,0.42,2.114S8.644,21,7.832,21H2.78C1.247,21,0,22.247,0,23.78v6.439C0,31.753,1.247,33,2.78,33h5.052 c0.812,0,1.481,0.447,1.792,1.197s0.153,1.54-0.42,2.114l-3.572,3.571c-0.525,0.525-0.814,1.224-0.814,1.966 c0,0.743,0.289,1.441,0.814,1.967l4.553,4.553c1.051,1.051,2.881,1.053,3.933,0l3.571-3.572c0.574-0.573,1.363-0.731,2.114-0.42 c0.75,0.311,1.197,0.98,1.197,1.792v5.052c0,1.533,1.247,2.78,2.78,2.78h6.439c1.533,0,2.78-1.247,2.78-2.78v-5.052 c0-0.812,0.447-1.481,1.197-1.792c0.751-0.312,1.54-0.153,2.114,0.42l3.571,3.572c1.052,1.052,2.883,1.05,3.933,0l4.553-4.553 c0.525-0.525,0.814-1.224,0.814-1.967c0-0.742-0.289-1.44-0.814-1.966l-3.572-3.571c-0.573-0.574-0.73-1.364-0.42-2.114 S45.356,33,46.168,33h5.052c1.533,0,2.78-1.247,2.78-2.78V23.78C54,22.247,52.753,21,51.22,21z M52,30.22 C52,30.65,51.65,31,51.22,31h-5.052c-1.624,0-3.019,0.932-3.64,2.432c-0.622,1.5-0.295,3.146,0.854,4.294l3.572,3.571 c0.305,0.305,0.305,0.8,0,1.104l-4.553,4.553c-0.304,0.304-0.799,0.306-1.104,0l-3.571-3.572c-1.149-1.149-2.794-1.474-4.294-0.854 c-1.5,0.621-2.432,2.016-2.432,3.64v5.052C31,51.65,30.65,52,30.22,52H23.78C23.35,52,23,51.65,23,51.22v-5.052 c0-1.624-0.932-3.019-2.432-3.64c-0.503-0.209-1.021-0.311-1.533-0.311c-1.014,0-1.997,0.4-2.761,1.164l-3.571,3.572 c-0.306,0.306-0.801,0.304-1.104,0l-4.553-4.553c-0.305-0.305-0.305-0.8,0-1.104l3.572-3.571c1.148-1.148,1.476-2.794,0.854-4.294 C10.851,31.932,9.456,31,7.832,31H2.78C2.35,31,2,30.65,2,30.22V23.78C2,23.35,2.35,23,2.78,23h5.052 c1.624,0,3.019-0.932,3.64-2.432c0.622-1.5,0.295-3.146-0.854-4.294l-3.572-3.571c-0.305-0.305-0.305-0.8,0-1.104l4.553-4.553 c0.304-0.305,0.799-0.305,1.104,0l3.571,3.571c1.147,1.147,2.792,1.476,4.294,0.854C22.068,10.851,23,9.456,23,7.832V2.78 C23,2.35,23.35,2,23.78,2h6.439C30.65,2,31,2.35,31,2.78v5.052c0,1.624,0.932,3.019,2.432,3.64 c1.502,0.622,3.146,0.294,4.294-0.854l3.571-3.571c0.306-0.305,0.801-0.305,1.104,0l4.553,4.553c0.305,0.305,0.305,0.8,0,1.104 l-3.572,3.571c-1.148,1.148-1.476,2.794-0.854,4.294c0.621,1.5,2.016,2.432,3.64,2.432h5.052C51.65,23,52,23.35,52,23.78V30.22z"/>
    <path
      d="M27,18c-4.963,0-9,4.037-9,9s4.037,9,9,9s9-4.037,9-9S31.963,18,27,18z M27,34c-3.859,0-7-3.141-7-7s3.141-7,7-7 s7,3.141,7,7S30.859,34,27,34z"/>
  </symbol>
  <symbol id="star" viewBox="0 0 55.867 55.867">
    <title>star</title>
    <path
      d="M11.287,54.548c-0.207,0-0.414-0.064-0.588-0.191c-0.308-0.224-0.462-0.603-0.397-0.978l3.091-18.018L0.302,22.602 c-0.272-0.266-0.37-0.663-0.253-1.024c0.118-0.362,0.431-0.626,0.808-0.681l18.09-2.629l8.091-16.393 c0.168-0.342,0.516-0.558,0.896-0.558l0,0c0.381,0,0.729,0.216,0.896,0.558l8.09,16.393l18.091,2.629 c0.377,0.055,0.689,0.318,0.808,0.681c0.117,0.361,0.02,0.759-0.253,1.024L42.475,35.363l3.09,18.017 c0.064,0.375-0.09,0.754-0.397,0.978c-0.308,0.226-0.717,0.255-1.054,0.076l-16.18-8.506l-16.182,8.506 C11.606,54.51,11.446,54.548,11.287,54.548z M3.149,22.584l12.016,11.713c0.235,0.229,0.343,0.561,0.287,0.885L12.615,51.72 l14.854-7.808c0.291-0.154,0.638-0.154,0.931,0l14.852,7.808l-2.836-16.538c-0.056-0.324,0.052-0.655,0.287-0.885l12.016-11.713 l-16.605-2.413c-0.326-0.047-0.607-0.252-0.753-0.547L27.934,4.578l-7.427,15.047c-0.146,0.295-0.427,0.5-0.753,0.547L3.149,22.584z "/>
  </symbol>
  <symbol id="edit" viewBox="0 0 55.25 55.25">
    <title>edit</title>
    <path
      d="M52.618,2.631c-3.51-3.508-9.219-3.508-12.729,0L3.827,38.693C3.81,38.71,3.8,38.731,3.785,38.749 c-0.021,0.024-0.039,0.05-0.058,0.076c-0.053,0.074-0.094,0.153-0.125,0.239c-0.009,0.026-0.022,0.049-0.029,0.075 c-0.003,0.01-0.009,0.02-0.012,0.03l-3.535,14.85c-0.016,0.067-0.02,0.135-0.022,0.202C0.004,54.234,0,54.246,0,54.259 c0.001,0.114,0.026,0.225,0.065,0.332c0.009,0.025,0.019,0.047,0.03,0.071c0.049,0.107,0.11,0.21,0.196,0.296 c0.095,0.095,0.207,0.168,0.328,0.218c0.121,0.05,0.25,0.075,0.379,0.075c0.077,0,0.155-0.009,0.231-0.027l14.85-3.535 c0.027-0.006,0.051-0.021,0.077-0.03c0.034-0.011,0.066-0.024,0.099-0.039c0.072-0.033,0.139-0.074,0.201-0.123 c0.024-0.019,0.049-0.033,0.072-0.054c0.008-0.008,0.018-0.012,0.026-0.02l36.063-36.063C56.127,11.85,56.127,6.14,52.618,2.631z M51.204,4.045c2.488,2.489,2.7,6.397,0.65,9.137l-9.787-9.787C44.808,1.345,48.716,1.557,51.204,4.045z M46.254,18.895l-9.9-9.9 l1.414-1.414l9.9,9.9L46.254,18.895z M4.961,50.288c-0.391-0.391-1.023-0.391-1.414,0L2.79,51.045l2.554-10.728l4.422-0.491 l-0.569,5.122c-0.004,0.038,0.01,0.073,0.01,0.11c0,0.038-0.014,0.072-0.01,0.11c0.004,0.033,0.021,0.06,0.028,0.092 c0.012,0.058,0.029,0.111,0.05,0.165c0.026,0.065,0.057,0.124,0.095,0.181c0.031,0.046,0.062,0.087,0.1,0.127 c0.048,0.051,0.1,0.094,0.157,0.134c0.045,0.031,0.088,0.06,0.138,0.084C9.831,45.982,9.9,46,9.972,46.017 c0.038,0.009,0.069,0.03,0.108,0.035c0.036,0.004,0.072,0.006,0.109,0.006c0,0,0.001,0,0.001,0c0,0,0.001,0,0.001,0h0.001 c0,0,0.001,0,0.001,0c0.036,0,0.073-0.002,0.109-0.006l5.122-0.569l-0.491,4.422L4.204,52.459l0.757-0.757 C5.351,51.312,5.351,50.679,4.961,50.288z M17.511,44.809L39.889,22.43c0.391-0.391,0.391-1.023,0-1.414s-1.023-0.391-1.414,0 L16.097,43.395l-4.773,0.53l0.53-4.773l22.38-22.378c0.391-0.391,0.391-1.023,0-1.414s-1.023-0.391-1.414,0L10.44,37.738 l-3.183,0.354L34.94,10.409l9.9,9.9L17.157,47.992L17.511,44.809z M49.082,16.067l-9.9-9.9l1.415-1.415l9.9,9.9L49.082,16.067z"/>
  </symbol>
  <symbol id="list" viewBox="0 0 512 512">
    <title>list</title>
    <path
      d="M136.381,56.057h89.156c4.465,0,8.084-3.618,8.084-8.084c0-4.466-3.62-8.084-8.084-8.084h-89.156 c-4.465,0-8.084,3.618-8.084,8.084C128.296,52.439,131.916,56.057,136.381,56.057z"/>
    <path
      d="M136.381,91.735h178.312c4.466,0,8.084-3.619,8.084-8.084s-3.619-8.084-8.084-8.084H136.381 c-4.465,0-8.084,3.619-8.084,8.084S131.916,91.735,136.381,91.735z"/>
    <path
      d="M136.381,202.885h89.156c4.465,0,8.084-3.618,8.084-8.084c0-4.466-3.62-8.084-8.084-8.084h-89.156 c-4.465,0-8.084,3.618-8.084,8.084C128.296,199.266,131.916,202.885,136.381,202.885z"/>
    <path
      d="M136.381,238.565H312.73c4.466,0,8.084-3.618,8.084-8.084c0-4.466-3.619-8.084-8.084-8.084H136.381 c-4.465,0-8.084,3.619-8.084,8.084C128.296,234.945,131.916,238.565,136.381,238.565z"/>
    <path
      d="M136.381,349.715h89.156c4.465,0,8.084-3.618,8.084-8.084c0-4.466-3.62-8.084-8.084-8.084h-89.156 c-4.465,0-8.084,3.618-8.084,8.084C128.296,346.096,131.916,349.715,136.381,349.715z"/>
    <path
      d="M311.465,369.226H136.381c-4.465,0-8.084,3.618-8.084,8.084c0,4.465,3.62,8.084,8.084,8.084h175.085 c4.466,0,8.084-3.62,8.084-8.084C319.549,372.846,315.931,369.226,311.465,369.226z"/>
    <path
      d="M473.678,404.818l-46.964-18.832v-10.313c12.937-7.034,22.75-19.096,26.841-33.537 c15.697-0.082,28.443-12.871,28.443-28.586c0-9.445-4.606-17.831-11.689-23.04v-21.467c0-39.954-32.505-72.46-72.459-72.46 h-5.365c-5.991,0-11.808,0.744-17.379,2.121v-43.789c0-4.466-3.618-8.084-8.084-8.084h-24.01c-4.466,0-8.084,3.619-8.084,8.084 s3.618,8.084,8.084,8.084h15.927v41.848c-21.215,11.131-36.266,32.46-38.588,57.438H16.168v-99.286h299.785 c4.466,0,8.084-3.619,8.084-8.084s-3.618-8.084-8.084-8.084H8.084c-4.465,0-8.084,3.619-8.084,8.084v115.454 c0,4.466,3.62,8.084,8.084,8.084h311.941v11.972c-1.333,0.97-2.579,2.053-3.725,3.235H8.084c-4.465,0-8.084,3.618-8.084,8.084 v115.454c0,4.466,3.62,8.084,8.084,8.084h281.189c-6.831,9.393-11.941,22.051-11.941,38.424v40.197 c0,4.465,3.619,8.094,8.084,8.094h30.539c4.466,0,8.084-3.618,8.084-8.084c0-4.465-3.618-8.084-8.084-8.084h-22.455v-32.122 c0-33.618,26.456-43.267,27.536-43.644c0.125-0.042,0.25-0.087,0.372-0.136l44.254-17.329c0.201,0.248,0.414,0.49,0.649,0.72 l23.214,22.609c1.51,1.471,3.534,2.293,5.64,2.293c0.042,0,0.085,0,0.127-0.001c2.151-0.033,4.201-0.924,5.693-2.473 l22.704-23.554l44.171,17.713c0.112,0.045,0.273,0.104,0.386,0.144c1.126,0.393,27.585,10.041,27.585,43.66v32.122h-66.491 h-57.389h-11.967h-10.043h-8.12c-4.466,0-8.084,3.62-8.084,8.084c0,4.466,3.618,8.084,8.084,8.084h8.12h10.043h11.967h57.389 h74.575c4.466,0,8.084-3.698,8.084-8.163v-40.128C512,427.524,487.073,409.431,473.678,404.818z M455.651,301.343 c5.781,1.061,10.179,6.127,10.179,12.208s-4.398,11.145-10.179,12.207V301.343z M336.192,269.044 c0.001-31.039,25.254-56.292,56.294-56.292h5.365c31.039,0,56.291,25.253,56.291,56.292v13.202 c-0.011-0.015-0.023-0.028-0.032-0.043c-0.074-0.103-0.149-0.206-0.229-0.306c-0.077-0.096-0.156-0.188-0.238-0.279 c-0.093-0.107-0.186-0.211-0.285-0.314c-0.077-0.079-0.158-0.154-0.238-0.231c-0.11-0.104-0.22-0.206-0.336-0.305 c-0.081-0.068-0.165-0.131-0.248-0.197c-0.121-0.095-0.243-0.189-0.37-0.277c-0.092-0.064-0.186-0.122-0.281-0.181 c-0.123-0.079-0.247-0.157-0.375-0.229c-0.112-0.064-0.23-0.12-0.345-0.178c-0.115-0.057-0.23-0.115-0.347-0.167 c-0.141-0.063-0.287-0.115-0.431-0.169c-0.101-0.038-0.203-0.078-0.305-0.111c-0.163-0.054-0.331-0.097-0.497-0.14 c-0.075-0.021-0.148-0.045-0.224-0.064c-17.592-4.002-23.099-26.746-23.147-26.949c-0.702-3.099-3.153-5.499-6.266-6.135 c-3.111-0.641-6.309,0.607-8.17,3.182c-21.27,29.407-68.086,29.701-68.733,29.701c0,0-0.002,0-0.003,0c-0.011,0-0.021,0-0.03,0 c-0.278,0-0.554,0.015-0.825,0.042c-0.085,0.009-0.167,0.026-0.252,0.038c-0.184,0.024-0.369,0.047-0.549,0.084 c-0.115,0.024-0.227,0.059-0.342,0.087c-0.144,0.036-0.291,0.066-0.431,0.111c-0.131,0.041-0.257,0.094-0.385,0.141 c-0.117,0.043-0.239,0.081-0.355,0.129c-0.148,0.063-0.289,0.136-0.43,0.206c-0.092,0.045-0.185,0.084-0.275,0.133 c-0.146,0.079-0.282,0.168-0.423,0.255c-0.08,0.05-0.164,0.095-0.244,0.148c-0.13,0.088-0.253,0.186-0.379,0.282 c-0.081,0.061-0.165,0.118-0.244,0.182c-0.113,0.094-0.219,0.196-0.327,0.294c-0.083,0.075-0.169,0.147-0.248,0.225 c-0.1,0.1-0.191,0.207-0.285,0.312c-0.079,0.087-0.162,0.17-0.238,0.261c-0.084,0.102-0.16,0.211-0.239,0.319 c-0.076,0.101-0.156,0.198-0.227,0.303c-0.044,0.065-0.081,0.134-0.123,0.201V269.044z M334.929,301.286v24.529 c-5.958-0.913-10.541-6.056-10.541-12.263C324.387,307.342,328.97,302.199,334.929,301.286z M363.867,385.937l-48.183,18.87 c-2.681,0.921-5.828,2.393-9.145,4.432c-0.443-0.075-0.896-0.123-1.36-0.123H16.168V309.83H308.47 c-0.16,1.219-0.25,2.459-0.25,3.721c0,15.764,12.827,28.589,28.593,28.589c0.07,0,0.14-0.009,0.21-0.011 c4.09,14.444,13.905,26.508,26.844,33.543V385.937z M410.544,391.582c0,0.01,0,0.019,0,0.028v0.918l-15.562,16.147 l-14.947-14.559v-12.717c3.29,0.613,6.675,0.95,10.14,0.95h10.231c3.464,0,6.85-0.335,10.138-0.949V391.582z M400.408,366.18 h-10.231c-21.548,0-39.079-17.531-39.079-39.078v-32.491c14.111-1.216,43.491-6.065,64.431-25.453 c4.284,8.459,11.733,18.656,23.954,23.66v34.285C439.482,348.65,421.954,366.18,400.408,366.18z"/>
    <path
      d="M82.589,47.106c4.465,0,8.084-3.618,8.084-8.084c0-4.466-3.62-8.084-8.084-8.084H41.813 c-4.465,0-8.084,3.618-8.084,8.084v53.581c0,4.466,3.62,8.084,8.084,8.084h56.211c4.465,0,8.084-3.619,8.084-8.084V78.146 c0-4.466-3.62-8.084-8.084-8.084c-4.465,0-8.084,3.619-8.084,8.084v6.371H49.897V47.106H82.589z"/>
    <path
      d="M113.825,33.139c-3.25-3.062-8.366-2.91-11.428,0.339L75.544,61.97l-8.301-9.042c-3.019-3.291-8.134-3.507-11.422-0.489 c-3.289,3.02-3.507,8.134-0.489,11.422L69.51,79.306c1.519,1.655,3.657,2.603,5.903,2.618c0.018,0,0.036,0,0.053,0 c2.226,0,4.355-0.918,5.883-2.539l32.813-34.818C117.225,41.318,117.073,36.2,113.825,33.139z"/>
    <path
      d="M82.589,193.935c4.465,0,8.084-3.618,8.084-8.084c0-4.466-3.62-8.084-8.084-8.084H41.813 c-4.465,0-8.084,3.618-8.084,8.084v53.581c0,4.466,3.62,8.084,8.084,8.084h56.211c4.465,0,8.084-3.618,8.084-8.084v-14.456 c0-4.466-3.62-8.084-8.084-8.084c-4.465,0-8.084,3.618-8.084,8.084v6.371H49.897v-37.413H82.589z"/>
    <path
      d="M113.825,179.967c-3.25-3.062-8.366-2.91-11.428,0.34l-26.853,28.492l-8.301-9.042 c-3.019-3.292-8.134-3.507-11.422-0.489c-3.289,3.02-3.507,8.134-0.489,11.422l14.179,15.445 c1.519,1.655,3.657,2.603,5.903,2.618c0.018,0,0.036,0,0.053,0c2.226,0,4.355-0.918,5.883-2.539l32.813-34.818 C117.225,188.147,117.073,183.03,113.825,179.967z"/>
    <path
      d="M98.024,363.723c-4.465,0-8.084,3.618-8.084,8.084v6.371H49.897v-37.413h32.693c4.465,0,8.084-3.62,8.084-8.084 c0-4.466-3.62-8.084-8.084-8.084H41.813c-4.465,0-8.084,3.618-8.084,8.084v53.581c0,4.466,3.62,8.084,8.084,8.084h56.211 c4.465,0,8.084-3.618,8.084-8.084v-14.456C106.108,367.341,102.488,363.723,98.024,363.723z"/>
    <path
      d="M102.397,327.138L75.544,355.63l-8.301-9.042c-3.019-3.292-8.134-3.506-11.422-0.489 c-3.289,3.02-3.507,8.134-0.489,11.422l14.179,15.445c1.519,1.655,3.657,2.603,5.903,2.618c0.018,0,0.036,0,0.053,0 c2.226,0,4.355-0.918,5.883-2.539l32.813-34.818c3.062-3.249,2.91-8.366-0.338-11.428 C110.575,323.736,105.459,323.888,102.397,327.138z"/>
    <path
      d="M8.084,131.625h358.939c4.466,0,8.084-3.618,8.084-8.084V8.084c0-4.466-3.618-8.084-8.084-8.084h-24.01 c-4.466,0-8.084,3.619-8.084,8.084s3.619,8.084,8.084,8.084h15.926v99.287H16.168V16.168h299.785 c4.466,0,8.084-3.619,8.084-8.084S320.419,0,315.954,0H8.084C3.62,0,0,3.62,0,8.084V123.54C0,128.005,3.62,131.625,8.084,131.625 z"/>
  </symbol>
  <symbol id="token" viewBox="0 0 512 512">
    <title>token</title>
    <g>
      <g>
        <path
          d="M294.611,217.388c-9.774-9.773-22.767-15.154-36.588-15.154c-13.822,0-26.816,5.381-36.589,15.154 c-20.176,20.176-20.176,53.004,0,73.179c9.773,9.774,22.767,15.156,36.589,15.156c13.822,0,26.816-5.381,36.589-15.155 C314.788,270.392,314.788,237.564,294.611,217.388z M283.055,279.013c-6.687,6.688-15.578,10.371-25.034,10.371 c-9.458,0-18.348-3.683-25.034-10.371c-13.805-13.804-13.805-36.265,0-50.069c6.687-6.688,15.577-10.37,25.034-10.37 c9.457,0,18.348,3.682,25.034,10.37C296.861,242.748,296.861,265.209,283.055,279.013z"/>
      </g>
    </g>
    <g>
      <g>
        <path
          d="M403.05,73.003c-3.192-3.19-8.364-3.19-11.555,0l-23.11,23.109c-3.191,3.192-3.191,8.364,0,11.555 c1.596,1.595,3.688,2.392,5.778,2.392s4.182-0.797,5.778-2.392l23.109-23.109C406.241,81.366,406.241,76.194,403.05,73.003z"/>
      </g>
    </g>
    <g>
      <g>
        <path
          d="M438.996,108.951c-3.19-3.19-8.363-3.191-11.554,0.001l-23.109,23.11c-3.191,3.19-3.191,8.363,0,11.554 c1.595,1.595,3.686,2.392,5.777,2.392s4.182-0.797,5.778-2.393l23.109-23.11C442.188,117.314,442.188,112.14,438.996,108.951z"/>
      </g>
    </g>
    <g>
      <g>
        <path
          d="M512,116.012c0-2.167-0.861-4.244-2.392-5.778L401.766,2.393c-3.192-3.19-8.364-3.19-11.555,0L303.554,89.05 L286.223,71.72c-1.533-1.532-3.61-2.392-5.778-2.392c-2.168,0-4.244,0.861-5.778,2.392L25.501,320.885 c-13.948,13.949-15.68,35.56-5.196,51.414L2.393,390.211c-3.191,3.192-3.191,8.364,0,11.555l32.737,32.737l-17.332,17.332 c-11.679,11.68-11.68,30.685,0,42.367c5.658,5.657,13.182,8.774,21.184,8.774c8.001,0,15.526-3.116,21.184-8.775l17.331-17.332 l32.737,32.737c1.596,1.595,3.688,2.392,5.778,2.392c2.09,0,4.182-0.797,5.778-2.392l17.912-17.912 c6.802,4.499,14.663,6.749,22.527,6.749c10.46,0,20.923-3.982,28.888-11.945l249.165-249.165c3.191-3.192,3.191-8.364,0-11.555 l-17.334-17.334l86.66-86.655C511.139,120.256,512,118.179,512,116.012z M48.61,482.648c-5.308,5.311-13.949,5.31-19.258,0.001 c-5.31-5.31-5.31-13.949,0-19.258l17.332-17.332l19.257,19.257L48.61,482.648z M422.95,231.556L179.561,474.944 c-7.53,7.529-18.768,9.099-27.875,4.766l39.429-39.43c3.191-3.192,3.191-8.364,0-11.555c-3.192-3.19-8.364-3.19-11.555,0 l-46.21,46.211c-0.015,0.015-17.339,17.339-17.339,17.339l-63.539-63.539c-0.021-0.021-32.748-32.748-32.748-32.748l17.322-17.322 c0.018-0.02,172.833-172.832,172.833-172.832c12.86-12.861,29.957-19.943,48.143-19.943c18.185,0,35.283,7.082,48.142,19.943 c12.861,12.86,19.943,29.957,19.943,48.142c0,18.186-7.082,35.284-19.943,48.143L202.669,405.616 c-3.191,3.192-3.191,8.364,0,11.555c3.192,3.19,8.364,3.189,11.555,0L317.72,313.674c15.946-15.947,24.727-37.148,24.727-59.699 c0-22.55-8.782-43.751-24.727-59.698c-15.947-15.946-37.148-24.727-59.698-24.727c-22.551,0-43.752,8.782-59.699,24.727 L32.291,360.313c-4.333-9.107-2.763-20.345,4.766-27.873L280.445,89.051l17.322,17.322 c0.019,0.018,107.815,107.815,107.815,107.815C405.648,214.254,422.95,231.556,422.95,231.556z M411.393,196.891l-96.284-96.285 l80.88-80.881l96.288,96.288L411.393,196.891z"/>
      </g>
    </g>
  </symbol>
</svg>
