<?xml version="1.0" encoding="UTF-8"?>
<svg width="18px" height="12px" version="1.1" xmlns="http://www.w3.org/2000/svg" xmlns:xlink="http://www.w3.org/1999/xlink">
  <symbol id="brown" viewBox="0 0 17 6">
    <polygon fill="#794834" fill-rule="nonzero" points="16.0551724 10.1931034 12.0275862 0 8.62068966 5.95862069 5.22758621 0 1.1862069 10.1931034 0 10.1931034 0 11.737931 6.09655172 11.737931 6.09655172 10.1931034 5.1862069 10.1931034 6.06896552 7.65517241 8.62068966 11.8482759 11.1724138 7.65517241 12.0551724 10.1931034 11.1448276 10.1931034 11.1448276 11.737931 17.2413793 11.737931 17.2413793 10.1931034"></polygon>
  </symbol>

  <symbol id="blue" viewBox="0 0 17 6">
    <polygon fill="#006DA9" fill-rule="nonzero" points="16.0551724 10.1931034 12.0275862 0 8.62068966 5.95862069 5.22758621 0 1.1862069 10.1931034 0 10.1931034 0 11.737931 6.09655172 11.737931 6.09655172 10.1931034 5.1862069 10.1931034 6.06896552 7.65517241 8.62068966 11.8482759 11.1724138 7.65517241 12.0551724 10.1931034 11.1448276 10.1931034 11.1448276 11.737931 17.2413793 11.737931 17.2413793 10.1931034"></polygon>
  </symbol>

  <symbol id="green" viewBox="0 0 17 6">
    <polygon fill="#47AE5B" fill-rule="nonzero" points="16.0551724 10.1931034 12.0275862 0 8.62068966 5.95862069 5.22758621 0 1.1862069 10.1931034 0 10.1931034 0 11.737931 6.09655172 11.737931 6.09655172 10.1931034 5.1862069 10.1931034 6.06896552 7.65517241 8.62068966 11.8482759 11.1724138 7.65517241 12.0551724 10.1931034 11.1448276 10.1931034 11.1448276 11.737931 17.2413793 11.737931 17.2413793 10.1931034"></polygon>
  </symbol>

  <symbol id="purple" viewBox="0 0 17 6">
    <polygon fill="#804388" fill-rule="nonzero" points="16.0551724 10.1931034 12.0275862 0 8.62068966 5.95862069 5.22758621 0 1.1862069 10.1931034 0 10.1931034 0 11.737931 6.09655172 11.737931 6.09655172 10.1931034 5.1862069 10.1931034 6.06896552 7.65517241 8.62068966 11.8482759 11.1724138 7.65517241 12.0551724 10.1931034 11.1448276 10.1931034 11.1448276 11.737931 17.2413793 11.737931 17.2413793 10.1931034"></polygon>
  </symbol>

  <symbol id="extra-blue" viewBox="0 0 17 6">
    <polygon fill="#79C6BF" fill-rule="nonzero" points="16.0551724 10.1931034 12.0275862 0 8.62068966 5.95862069 5.22758621 0 1.1862069 10.1931034 0 10.1931034 0 11.737931 6.09655172 11.737931 6.09655172 10.1931034 5.1862069 10.1931034 6.06896552 7.65517241 8.62068966 11.8482759 11.1724138 7.65517241 12.0551724 10.1931034 11.1448276 10.1931034 11.1448276 11.737931 17.2413793 11.737931 17.2413793 10.1931034"></polygon>
  </symbol>

  <symbol id="grey" viewBox="0 0 17 6">
    <polygon fill="#9C9C9A" fill-rule="nonzero" points="16.0551724 10.1931034 12.0275862 0 8.62068966 5.95862069 5.22758621 0 1.1862069 10.1931034 0 10.1931034 0 11.737931 6.09655172 11.737931 6.09655172 10.1931034 5.1862069 10.1931034 6.06896552 7.65517241 8.62068966 11.8482759 11.1724138 7.65517241 12.0551724 10.1931034 11.1448276 10.1931034 11.1448276 11.737931 17.2413793 11.737931 17.2413793 10.1931034"></polygon>
  </symbol>

  <symbol id="light-blue" viewBox="0 0 17 6">
    <polygon fill="#0DB9E0" fill-rule="nonzero" points="16.0551724 10.1931034 12.0275862 0 8.62068966 5.95862069 5.22758621 0 1.1862069 10.1931034 0 10.1931034 0 11.737931 6.09655172 11.737931 6.09655172 10.1931034 5.1862069 10.1931034 6.06896552 7.65517241 8.62068966 11.8482759 11.1724138 7.65517241 12.0551724 10.1931034 11.1448276 10.1931034 11.1448276 11.737931 17.2413793 11.737931 17.2413793 10.1931034"></polygon>
  </symbol>

  <symbol id="light-green" viewBox="0 0 17 6">
    <polygon fill="#ADCD4A" fill-rule="nonzero" points="16.0551724 10.1931034 12.0275862 0 8.62068966 5.95862069 5.22758621 0 1.1862069 10.1931034 0 10.1931034 0 11.737931 6.09655172 11.737931 6.09655172 10.1931034 5.1862069 10.1931034 6.06896552 7.65517241 8.62068966 11.8482759 11.1724138 7.65517241 12.0551724 10.1931034 11.1448276 10.1931034 11.1448276 11.737931 17.2413793 11.737931 17.2413793 10.1931034"></polygon>
  </symbol>

  <symbol id="light-purple" viewBox="0 0 17 6">
    <polygon fill="#A7B8D2" fill-rule="nonzero" points="16.0551724 10.1931034 12.0275862 0 8.62068966 5.95862069 5.22758621 0 1.1862069 10.1931034 0 10.1931034 0 11.737931 6.09655172 11.737931 6.09655172 10.1931034 5.1862069 10.1931034 6.06896552 7.65517241 8.62068966 11.8482759 11.1724138 7.65517241 12.0551724 10.1931034 11.1448276 10.1931034 11.1448276 11.737931 17.2413793 11.737931 17.2413793 10.1931034"></polygon>
  </symbol>

  <symbol id="orange" viewBox="0 0 17 6">
    <polygon fill="#E77A39" fill-rule="nonzero" points="16.0551724 10.1931034 12.0275862 0 8.62068966 5.95862069 5.22758621 0 1.1862069 10.1931034 0 10.1931034 0 11.737931 6.09655172 11.737931 6.09655172 10.1931034 5.1862069 10.1931034 6.06896552 7.65517241 8.62068966 11.8482759 11.1724138 7.65517241 12.0551724 10.1931034 11.1448276 10.1931034 11.1448276 11.737931 17.2413793 11.737931 17.2413793 10.1931034"></polygon>
  </symbol>

  <symbol id="pink" viewBox="0 0 17 6">
    <polygon fill="#FFA8AF" fill-rule="nonzero" points="16.0551724 10.1931034 12.0275862 0 8.62068966 5.95862069 5.22758621 0 1.1862069 10.1931034 0 10.1931034 0 11.737931 6.09655172 11.737931 6.09655172 10.1931034 5.1862069 10.1931034 6.06896552 7.65517241 8.62068966 11.8482759 11.1724138 7.65517241 12.0551724 10.1931034 11.1448276 10.1931034 11.1448276 11.737931 17.2413793 11.737931 17.2413793 10.1931034"></polygon>
  </symbol>

  <symbol id="red" viewBox="0 0 17 6">
    <polygon fill="#DA312A" fill-rule="nonzero" points="16.0551724 10.1931034 12.0275862 0 8.62068966 5.95862069 5.22758621 0 1.1862069 10.1931034 0 10.1931034 0 11.737931 6.09655172 11.737931 6.09655172 10.1931034 5.1862069 10.1931034 6.06896552 7.65517241 8.62068966 11.8482759 11.1724138 7.65517241 12.0551724 10.1931034 11.1448276 10.1931034 11.1448276 11.737931 17.2413793 11.737931 17.2413793 10.1931034"></polygon>
  </symbol>

  <symbol id="yellow" viewBox="0 0 17 6">
    <polygon fill="#F9C73F" fill-rule="nonzero" points="16.0551724 10.1931034 12.0275862 0 8.62068966 5.95862069 5.22758621 0 1.1862069 10.1931034 0 10.1931034 0 11.737931 6.09655172 11.737931 6.09655172 10.1931034 5.1862069 10.1931034 6.06896552 7.65517241 8.62068966 11.8482759 11.1724138 7.65517241 12.0551724 10.1931034 11.1448276 10.1931034 11.1448276 11.737931 17.2413793 11.737931 17.2413793 10.1931034"></polygon>
  </symbol>

  <symbol id="dark-pink" viewBox="0 0 17 6">
    <polygon fill="#df63a1" fill-rule="nonzero" points="16.0551724 10.1931034 12.0275862 0 8.62068966 5.95862069 5.22758621 0 1.1862069 10.1931034 0 10.1931034 0 11.737931 6.09655172 11.737931 6.09655172 10.1931034 5.1862069 10.1931034 6.06896552 7.65517241 8.62068966 11.8482759 11.1724138 7.65517241 12.0551724 10.1931034 11.1448276 10.1931034 11.1448276 11.737931 17.2413793 11.737931 17.2413793 10.1931034"></polygon>
  </symbol>
</svg>
