<svg xmlns="http://www.w3.org/2000/svg" style="display: none;">
  <symbol id="rat-2" viewBox="0 0 512 512">
    <title>rat-2</title>
    <path style="fill:#e8c1b5;"
          d="M95.961,388.699H78.844C35.37,388.699,0,353.253,0,309.684v-46.106 c0-77.351,62.791-140.28,139.973-140.28h173.502c6.522,0,11.81,5.3,11.81,11.837c0,6.537-5.288,11.837-11.81,11.837H139.973 c-64.157,0-116.351,52.31-116.351,116.606v46.106c0,30.516,24.772,55.343,55.222,55.343h17.119c6.522,0,11.81,5.3,11.81,11.837 S102.485,388.699,95.961,388.699z"/>
    <g>
      <path style="fill:#3f5666;"
            d="M478.056,278.665c-1.608,5.177-4.658,8.813-8.073,11.363c-9.311,6.954-22.907,3.003-27.057-7.866 c-1.521-3.983-2.155-8.687-0.751-13.922c0.846-3.157,2.535-6.68,4.714-10.315c9.323-15.56,33.112-8.65,32.689,9.494 C479.479,271.66,479.025,275.544,478.056,278.665z"/>
      <path style="fill:#3f5666;"
            d="M512,363.521v0.474c0,13.648-11.037,24.707-24.651,24.707H81.77 c-23.402,0-41.003-21.372-36.594-44.396c17.98-94.089,93.539-158.175,197.642-158.175c119.765,0,177.184,91.252,177.184,91.252 h3.902c25.352,0,48.98,12.903,62.701,34.287l11.943,18.599l6.813,10.594C509.693,347.619,512,355.484,512,363.521z"/>
    </g>
    <path style="fill:#2f3f4a;"
          d="M71.763,344.303c17.186-89.941,86.991-152.453,184.044-157.792 c-4.249-0.239-8.571-0.377-12.989-0.377c-104.103,0-179.664,64.08-197.642,158.169c-4.409,23.032,13.193,44.399,36.594,44.399 h26.588C84.956,388.702,67.354,367.335,71.763,344.303z"/>
    <path style="fill:#e8c1b5;"
          d="M512,363.521v0.475c0,13.643-11.037,24.706-24.651,24.706h-11.727 c-7.038-32.224,10.65-50.167,22.927-58.431l6.813,10.597C509.693,347.62,512,355.485,512,363.521z"/>
    <g>
      <path style="fill:#2f3f4a;"
            d="M248.778,360.824v27.878h-26.269v-27.878c0-24.944-15.652-47.201-39.095-55.573l0,0 c-3.013-1.076-1.766-5.593,1.372-4.966l16.241,3.241c26.646,5.319,46.77,28.04,47.718,55.228 C248.767,359.443,248.778,360.133,248.778,360.824z"/>
      <path style="fill:#2f3f4a;"
            d="M438.951,388.702h-29.373c0-20.833-13.064-39.411-32.65-46.403l-7.111-2.541 c-2.457-0.878-1.463-4.558,1.101-4.078l35.382,6.619c9.788,3.495,17.947,9.893,23.67,18.007 C435.685,368.43,438.951,378.28,438.951,388.702z"/>
      <ellipse style="fill:#2f3f4a;" cx="449.034" cy="319.08" rx="7.377" ry="7.387"/>
    </g>
    <g>
      <path style="fill:#e8c1b5;"
            d="M248.498,381.161v3.215c0,2.395-1.93,4.326-4.323,4.326h-74.04c-2.382,0-4.311-1.931-4.311-4.326 v-3.215c0-13.928,11.274-25.213,25.19-25.213h32.294C237.213,355.948,248.498,367.233,248.498,381.161z"/>
      <path style="fill:#e8c1b5;"
            d="M433.584,381.161v3.215c0,2.395-1.94,4.326-4.323,4.326h-74.04c-2.382,0-4.311-1.931-4.311-4.326 v-3.215c0-13.928,11.274-25.213,25.19-25.213h32.283C422.298,355.948,433.584,367.233,433.584,381.161z"/>
    </g>
    <path style="fill:#3f5666;"
          d="M448.62,265.631c1.086,5.992-0.065,11.201-2.141,15.52c-5.661,11.775-21.248,14.927-31.019,6.269 c-3.581-3.173-6.653-7.526-7.972-13.469c-0.795-3.583-0.943-7.972-0.659-12.726c1.208-20.348,28.477-25.867,37.47-7.584 C446.4,257.915,447.964,262.018,448.62,265.631z"/>
    <path style="fill:#e8c1b5;"
          d="M441.715,269.355c0.701,3.873-0.042,7.239-1.383,10.03c-3.658,7.61-13.732,9.648-20.046,4.052 c-2.314-2.051-4.3-4.864-5.151-8.704c-0.514-2.316-0.609-5.151-0.426-8.224c0.781-13.15,18.404-16.717,24.215-4.901 C440.281,264.369,441.292,267.021,441.715,269.355z"/>
    <g>
      <path style="fill:#c97e67;"
            d="M204.261,376.198v12.504h-16.169v-12.504c0-4.477,3.622-8.092,8.084-8.092 S204.261,371.72,204.261,376.198z"/>
      <path style="fill:#c97e67;"
            d="M226.896,376.198v12.504h-16.169v-12.504c0-4.477,3.622-8.092,8.084-8.092 S226.896,371.72,226.896,376.198z"/>
      <path style="fill:#c97e67;"
            d="M372.844,388.702v-12.504c0-4.477,3.611-8.092,8.084-8.092c4.463,0,8.084,3.614,8.084,8.092v12.504 H372.844z"/>
      <path style="fill:#c97e67;"
            d="M411.648,376.198v12.504h-16.169v-12.504c0-4.477,3.611-8.092,8.084-8.092 C408.026,368.106,411.648,371.72,411.648,376.198z"/>
    </g>
  </symbol>
  <symbol id="rat-1" viewBox="0 0 512 512">
    <title>rat-1</title>
    <path style="fill:#e8c1b5;"
          d="M100.861,384.519H84.267c-42.143,0-76.43-34.33-76.43-76.527v-44.655 c0-74.913,60.869-135.86,135.688-135.86h168.191c6.323,0,11.449,5.133,11.449,11.464c0,6.331-5.126,11.464-11.449,11.464H143.525 c-62.192,0-112.79,50.662-112.79,112.934v44.655c0,29.555,24.015,53.6,53.532,53.6h16.594c6.323,0,11.449,5.133,11.449,11.464 C112.31,379.388,107.184,384.519,100.861,384.519z"/>
    <g>
      <path style="fill:#3f5666;"
            d="M471.258,277.951c-1.559,5.014-4.515,8.536-7.825,11.006c-9.026,6.735-22.206,2.908-26.229-7.618 c-1.474-3.858-2.089-8.414-0.728-13.483c0.82-3.056,2.458-6.47,4.569-9.99c9.037-15.07,32.098-8.377,31.689,9.195 C472.638,271.167,472.198,274.928,471.258,277.951z"/>
      <path style="fill:#3f5666;"
            d="M504.163,360.135v0.46c0,13.218-10.7,23.928-23.897,23.928H87.103 c-22.685,0-39.748-20.699-35.474-42.998c17.429-91.126,90.676-153.192,191.592-153.192c116.099,0,171.76,88.377,171.76,88.377 h3.783c24.576,0,47.48,12.497,60.782,33.207l11.577,18.014l6.604,10.261C501.927,344.733,504.163,352.35,504.163,360.135z"/>
    </g>
    <path style="fill:#2f3f4a;"
          d="M77.403,341.523c16.661-87.108,84.328-147.651,178.41-152.822c-4.119-0.232-8.309-0.366-12.591-0.366 c-100.916,0-174.164,62.062-191.592,153.187c-4.275,22.305,12.788,43,35.473,43h25.774 C90.192,384.522,73.129,363.828,77.403,341.523z"/>
    <path style="fill:#e8c1b5;"
          d="M504.163,360.135v0.461c0,13.214-10.7,23.927-23.897,23.927h-11.368 c-6.823-31.209,10.324-48.587,22.225-56.591l6.604,10.264C501.927,344.735,504.163,352.351,504.163,360.135z"/>
    <g>
      <path style="fill:#2f3f4a;"
            d="M248.999,357.522v27h-25.464v-27c0-24.158-15.172-45.714-37.898-53.823l-32.246-11.504l49.319,9.833 c25.83,5.151,45.338,27.157,46.258,53.488C248.989,356.185,248.999,356.854,248.999,357.522z"/>
      <path style="fill:#2f3f4a;"
            d="M433.351,384.522h-28.473c0-20.177-12.664-38.17-31.65-44.941l-31.284-11.17l59.758,11.17 c9.488,3.385,17.398,9.582,22.946,17.439C430.184,364.889,433.351,374.429,433.351,384.522z"/>
    </g>
    <g>
      <path style="fill:#e8c1b5;"
            d="M244.543,384.519h-71.779c-2.31,0-4.183-1.872-4.183-4.183v-3.121 c0-13.488,10.934-24.42,24.42-24.42h31.302c13.488,0,24.42,10.934,24.42,24.42v3.121 C248.724,382.647,246.852,384.519,244.543,384.519z"/>
      <path style="fill:#e8c1b5;"
            d="M423.961,384.519h-71.779c-2.31,0-4.183-1.872-4.183-4.183v-3.121 c0-13.488,10.934-24.42,24.42-24.42h31.302c13.488,0,24.42,10.934,24.42,24.42v3.121 C428.143,382.647,426.27,384.519,423.961,384.519z"/>
      <path style="fill:#e8c1b5;"
            d="M442.722,265.327c1.052,5.804-0.063,10.848-2.075,15.031c-5.488,11.404-20.598,14.457-30.069,6.072 c-3.471-3.073-6.449-7.289-7.728-13.044c-0.771-3.47-0.913-7.721-0.639-12.325c1.171-19.708,27.605-25.052,36.323-7.345 C440.572,257.855,442.088,261.828,442.722,265.327z"/>
    </g>
    <path
      d="M143.527,158.239h168.187c10.636,0,19.289-8.658,19.289-19.299c0-10.642-8.653-19.299-19.289-19.299H193.829 c-4.329,0-7.837,3.509-7.837,7.837s3.508,7.837,7.837,7.837h117.885c1.994,0,3.615,1.627,3.615,3.626s-1.622,3.626-3.615,3.626 H143.527c-66.517,0-120.633,54.177-120.633,120.769v44.659c0,17.667,7.467,34.201,20.6,45.881c0.495,3.94,1.525,7.79,3.059,11.454 c-18.587-12.302-30.88-33.403-30.88-57.336v-44.659c0-70.591,57.355-128.021,127.854-128.021c4.329,0,7.837-3.509,7.837-7.837 s-3.508-7.837-7.837-7.837C64.386,119.641,0,184.102,0,263.335v44.659c0,46.52,37.804,84.365,84.271,84.365h2.832h13.761h176.703 c4.329,0,7.837-3.509,7.837-7.837s-3.508-7.837-7.837-7.837h-21.018c-0.253-15.519-11.514-28.402-26.301-31.169 c-4.226-22.502-20.136-41.406-41.977-49.198l-45.6-16.269c-4.075-1.451-8.56,0.672-10.014,4.748 c-1.456,4.076,0.671,8.56,4.747,10.014l45.6,16.269c15.438,5.508,26.97,18.339,31.064,33.878h-21.066 c-17.609,0-31.958,14.186-32.243,31.727h-59.894H87.103c-8.452,0-16.391-3.741-21.782-10.262 c-5.409-6.543-7.595-15.082-5.996-23.429c8.294-43.364,29.641-80.074,61.734-106.156c32.734-26.604,74.976-40.666,122.161-40.666 c15.589,0,30.933,1.677,45.609,4.984c4.221,0.953,8.417-1.7,9.368-5.921c0.952-4.222-1.7-8.417-5.922-9.368 c-15.803-3.562-32.308-5.368-49.054-5.368c-99.773,0-176.526,59.316-197.659,151.824c-4.532-7.194-6.995-15.575-6.995-24.328 v-44.659C38.567,205.385,85.652,158.239,143.527,158.239z M193.001,360.632h30.23c0.032,0,0.064,0.004,0.096,0.004 c0.037,0,0.074-0.004,0.111-0.004h0.866c8.965,0,16.293,7.152,16.575,16.051h-13.092v-4.276c0-4.328-3.508-7.837-7.837-7.837 c-4.329,0-7.837,3.509-7.837,7.837v4.276h-6.269v-4.276c0-4.328-3.508-7.837-7.837-7.837c-4.329,0-7.837,3.509-7.837,7.837v4.276 h-13.746C176.708,367.784,184.036,360.632,193.001,360.632z"/>
    <circle cx="443.131" cy="317.095" r="7.155"/>
    <path
      d="M504.316,333.95l-18.177-28.269c-3.644-5.672-7.949-10.795-12.832-15.337c2.443-2.93,4.264-6.293,5.433-10.06 c1.111-3.562,1.707-7.83,1.826-13.048c0.266-11.494-6.956-21.359-17.972-24.548c-7.057-2.043-14.256-0.92-20.075,2.738 c-6.201-7.964-16.25-11.828-26.518-9.752c-6.823,1.376-12.546,5.123-16.394,10.338c-13.693-13.879-33.648-30.447-60.162-43.491 c-3.884-1.91-8.581-0.31-10.491,3.573c-1.911,3.884-0.311,8.581,3.573,10.492c28.725,14.13,49.158,32.711,61.751,46.597 c-0.13,4.602,0.17,8.519,0.921,11.9c1.503,6.77,4.93,12.562,10.184,17.214c4.981,4.409,11.254,6.753,17.778,6.753 c1.816,0,3.652-0.182,5.485-0.551c6.054-1.219,11.338-4.347,15.207-8.853c4.464,1.888,8.707,4.266,12.658,7.123 c6.538,4.728,12.07,10.576,16.441,17.385l7.659,11.912c-10.922,9.229-23.13,25.386-20.848,50.62h-23.799 c-0.285-17.542-14.635-31.727-32.243-31.727h-7.545c-5.744-5.657-12.699-10.037-20.315-12.757l-51.848-18.505 c-4.078-1.453-8.56,0.67-10.015,4.746c-1.456,4.076,0.671,8.56,4.746,10.014l47.776,17.052 c-14.809,2.749-26.092,15.642-26.345,31.177h-12.598c-4.329,0-7.837,3.509-7.837,7.837s3.508,7.837,7.837,7.837h141.322h11.368 c2.187,0,4.324-0.223,6.387-0.647C501.101,388.746,512,375.921,512,360.595v-0.001v-0.46 C512,350.831,509.345,341.779,504.316,333.95z M458.237,257.744c3.301,0.955,6.783,3.855,6.661,9.132 c-0.106,4.591-0.668,7.29-1.123,8.753c-0.618,1.992-1.6,3.699-2.964,5.181c-3.327-2.053-6.796-3.85-10.381-5.394 c0.69-3.756,0.709-7.594,0.004-11.487c-0.24-1.328-0.584-2.71-1.016-4.144C452.076,257.219,455.552,256.969,458.237,257.744z M425.55,283.135c-3.557,0.717-7.121-0.222-9.776-2.573c-2.765-2.448-4.49-5.352-5.273-8.875c-0.56-2.526-0.718-5.944-0.467-10.162 c0.385-6.462,4.936-9.654,9.068-10.488c0.763-0.154,1.57-0.239,2.398-0.239c3.645,0,7.68,1.655,10.005,6.379 c0.685,1.393,1.277,2.705,1.775,3.936c0.025,0.072,0.056,0.141,0.085,0.212c0.812,2.034,1.366,3.841,1.647,5.397v0.001 c0.644,3.548,0.18,6.89-1.416,10.217c-0.006,0.014-0.014,0.026-0.02,0.04C432.031,280.175,429.106,282.418,425.55,283.135z M372.419,360.632h20.334c0.026,0,0.053,0.004,0.079,0.004c0.031,0,0.062-0.003,0.092-0.004h10.797 c8.965,0,16.293,7.152,16.575,16.051h-13.42v-4.276c0-4.328-3.508-7.837-7.837-7.837s-7.837,3.509-7.837,7.837v4.276h-6.269v-4.276 c0-4.328-3.508-7.837-7.837-7.837c-4.329,0-7.837,3.509-7.837,7.837v4.276h-13.419C356.126,367.784,363.454,360.632,372.419,360.632 z M480.266,376.686h-4.741c-1.992-17.649,5.166-29.548,13.648-37.3l1.959,3.046c3.398,5.29,5.194,11.411,5.194,17.704v0.46 c0,7.209-4.756,13.327-11.289,15.367C483.53,376.432,481.927,376.686,480.266,376.686z"/>
  </symbol>
  <symbol id="rat" viewBox="0 0 512 512">
    <title>rat</title>
    <g>
      <g>
        <path
          d="M311.714,119.641H193.829c-4.329,0-7.837,3.509-7.837,7.837c0,4.328,3.508,7.837,7.837,7.837h117.885 c1.994,0,3.615,1.627,3.615,3.626c0,1.999-1.622,3.626-3.615,3.626H143.527c-66.517,0-120.633,54.177-120.633,120.769v44.659 c0,17.667,7.467,34.201,20.6,45.881c0.495,3.94,1.524,7.79,3.059,11.454c-18.587-12.302-30.88-33.403-30.88-57.336v-44.659 c0-70.591,57.356-128.021,127.854-128.021c4.329,0,7.837-3.509,7.837-7.837c0-4.328-3.508-7.837-7.837-7.837 C64.386,119.641,0,184.102,0,263.335v44.659c0,46.52,37.804,84.365,84.271,84.365h2.832h13.761h176.703 c4.329,0,7.837-3.509,7.837-7.837c0-4.328-3.508-7.837-7.837-7.837h-21.018c-0.253-15.519-11.514-28.402-26.301-31.169 c-4.226-22.502-20.136-41.406-41.977-49.198l-45.6-16.269c-4.075-1.451-8.56,0.672-10.014,4.748 c-1.456,4.076,0.671,8.56,4.747,10.014l45.6,16.269c15.438,5.508,26.97,18.339,31.064,33.878h-21.066 c-17.609,0-31.958,14.185-32.243,31.727h-59.894H87.103c-8.452,0-16.391-3.741-21.782-10.262 c-5.409-6.543-7.595-15.082-5.996-23.429c8.294-43.364,29.641-80.074,61.734-106.156c32.734-26.604,74.976-40.666,122.161-40.666 c15.589,0,30.933,1.677,45.609,4.984c4.221,0.953,8.417-1.7,9.367-5.921c0.952-4.222-1.7-8.417-5.922-9.367 c-15.803-3.562-32.308-5.368-49.054-5.368c-99.773,0-176.526,59.316-197.659,151.824c-4.532-7.194-6.995-15.575-6.995-24.328 v-44.659c0.001-57.951,47.086-105.097,104.961-105.097h168.187c10.636,0,19.289-8.658,19.289-19.299 C331.003,128.298,322.35,119.641,311.714,119.641z M193.001,360.632h30.23c0.032,0,0.064,0.004,0.096,0.004 c0.037,0,0.074-0.004,0.111-0.004h0.866c8.965,0,16.293,7.152,16.575,16.051h-13.091v-4.276c0-4.328-3.508-7.837-7.837-7.837 c-4.329,0-7.837,3.509-7.837,7.837v4.276h-6.269v-4.276c0-4.328-3.508-7.837-7.837-7.837c-4.329,0-7.837,3.509-7.837,7.837v4.276 h-13.746C176.708,367.784,184.036,360.632,193.001,360.632z"/>
      </g>
    </g>
    <g>
      <g>
        <circle cx="443.131" cy="317.095" r="7.155"/>
      </g>
    </g>
    <g>
      <g>
        <path
          d="M504.316,333.95l-18.177-28.269c-3.644-5.672-7.949-10.795-12.832-15.337c2.443-2.93,4.264-6.293,5.433-10.06 c1.111-3.562,1.707-7.83,1.826-13.048c0.266-11.494-6.956-21.359-17.972-24.548c-7.057-2.043-14.256-0.919-20.075,2.738 c-6.201-7.964-16.25-11.828-26.518-9.752c-6.823,1.376-12.546,5.123-16.394,10.338c-13.693-13.879-33.648-30.447-60.162-43.491 c-3.884-1.91-8.581-0.31-10.491,3.573c-1.911,3.884-0.311,8.581,3.573,10.492c28.725,14.13,49.158,32.711,61.751,46.597 c-0.13,4.602,0.17,8.519,0.921,11.9c1.503,6.77,4.93,12.562,10.184,17.214c4.981,4.409,11.254,6.753,17.778,6.753 c1.816,0,3.652-0.182,5.485-0.551c6.054-1.219,11.338-4.347,15.207-8.853c4.464,1.888,8.707,4.266,12.658,7.123 c6.538,4.728,12.07,10.576,16.441,17.385l7.659,11.912c-10.922,9.229-23.13,25.386-20.848,50.62h-23.799 c-0.285-17.542-14.635-31.727-32.243-31.727h-7.545c-5.744-5.657-12.699-10.037-20.315-12.757l-51.848-18.505 c-4.078-1.453-8.56,0.67-10.015,4.746c-1.456,4.076,0.671,8.56,4.746,10.014l47.776,17.052 c-14.809,2.749-26.092,15.642-26.345,31.177h-12.598c-4.329,0-7.837,3.509-7.837,7.837c0,4.328,3.508,7.837,7.837,7.837h141.322 h11.368c2.187,0,4.324-0.223,6.388-0.647C501.101,388.746,512,375.921,512,360.595v-0.001v-0.46 C512,350.831,509.345,341.779,504.316,333.95z M433.596,276.941c-0.006,0.014-0.014,0.026-0.02,0.04 c-1.545,3.194-4.47,5.438-8.026,6.154c-3.557,0.717-7.121-0.221-9.776-2.573c-2.765-2.448-4.49-5.352-5.273-8.875 c-0.56-2.526-0.718-5.944-0.467-10.162c0.385-6.462,4.936-9.654,9.068-10.488c0.763-0.154,1.57-0.239,2.398-0.239 c3.645,0,7.68,1.655,10.005,6.379c0.685,1.393,1.277,2.705,1.775,3.936c0.025,0.072,0.056,0.141,0.085,0.212 c0.812,2.034,1.366,3.841,1.647,5.397v0.001C435.656,270.272,435.192,273.614,433.596,276.941z M463.775,275.629 c-0.617,1.992-1.6,3.699-2.964,5.181c-3.327-2.053-6.796-3.85-10.381-5.394c0.69-3.756,0.709-7.594,0.004-11.487 c-0.24-1.328-0.584-2.71-1.016-4.144c2.658-2.566,6.135-2.817,8.819-2.042c3.301,0.955,6.783,3.855,6.661,9.132 C464.793,271.468,464.23,274.167,463.775,275.629z M406.877,376.683v-4.276c0-4.328-3.508-7.837-7.837-7.837 c-4.329,0-7.837,3.509-7.837,7.837v4.276h-6.269v-4.276c0-4.328-3.508-7.837-7.837-7.837s-7.837,3.509-7.837,7.837v4.276h-13.419 c0.284-8.898,7.612-16.051,16.577-16.051h20.334c0.026,0,0.053,0.004,0.079,0.004c0.031,0,0.062-0.003,0.092-0.004h10.797 c8.965,0,16.293,7.152,16.575,16.051H406.877z M496.328,360.595c0,7.209-4.756,13.327-11.289,15.367 c-1.509,0.469-3.112,0.723-4.772,0.723h-4.741c-1.992-17.649,5.166-29.548,13.648-37.3l1.959,3.046 c3.398,5.29,5.194,11.411,5.194,17.704V360.595z"/>
      </g>
    </g>
  </symbol>
</svg>
