<svg fill="none" xmlns="http://www.w3.org/2000/svg">
  <symbol id="check" width="16" height="11" viewBox="0 0 16 11">
    <path fill-rule="evenodd" clip-rule="evenodd" d="M5.63683 8.12258L1.27488 4.23179L0 5.90389L5.51814 10.8326L16 1.69018L14.6351 0L5.63683 8.12258Z" fill="#17BB4F"/>
  </symbol>
  <symbol id="person" width="8" height="12" viewBox="0 0 8 12">
    <path d="M3.32483 1.93834C3.63296 1.92985 3.89141 1.82786 4.10015 1.63238C4.30889 1.43689 4.40828 1.20741 4.39835 0.943951C4.38842 0.680437 4.27409 0.45522 4.05542 0.268274C3.83675 0.081303 3.57332 -0.00793735 3.26519 0.000553228C2.95706 0.00904381 2.69861 0.111033 2.48987 0.30652C2.28113 0.502007 2.17676 0.731483 2.17676 0.994945C2.17676 1.25841 2.29106 1.48365 2.51969 1.67062C2.74832 1.85759 3.0167 1.94683 3.32483 1.93834Z" fill="black" fill-opacity="0.54"/>
    <path d="M7.09708 5.16295L5.457 4.39804L4.11512 2.56225C3.85667 2.29027 3.53861 2.1543 3.16089 2.1543C2.90244 2.1543 2.65395 2.24779 2.41539 2.43476L0.387656 4.19406C0.328016 4.26206 0.288267 4.33855 0.268377 4.42353L0 6.38681V6.4378C0 6.55677 0.0497094 6.65876 0.149098 6.74377C0.248487 6.82872 0.367766 6.87125 0.506935 6.87125C0.646103 6.87125 0.760402 6.82872 0.849861 6.74377C0.93932 6.65876 0.993979 6.56529 1.01387 6.4633L1.22261 4.78049L1.93828 4.16856L1.28225 8.86002L0.119279 11.0783C0.0795291 11.1803 0.0596394 11.2735 0.0596394 11.3588C0.0596394 11.5455 0.134189 11.703 0.283287 11.8305C0.432385 11.958 0.616283 12.0132 0.834951 11.9962C1.13315 11.9962 1.35182 11.877 1.49098 11.6393L2.74341 9.2425C2.74341 9.22542 2.75334 9.19572 2.77323 9.15326C2.79315 9.11068 2.81304 9.07244 2.83287 9.03853C2.85276 9.00449 2.86269 8.97045 2.86269 8.93654L3.01179 7.78915L4.29403 11.5628C4.4332 11.8688 4.68169 12.0132 5.03953 11.9962C5.23833 11.9962 5.41227 11.9325 5.56137 11.805C5.71047 11.6775 5.78502 11.52 5.78502 11.3333C5.78502 11.316 5.78004 11.2951 5.77011 11.2696C5.76018 11.2441 5.7552 11.2228 5.7552 11.2058L3.96602 5.97886L4.17475 4.27055L4.68169 4.95897C4.72144 5.00997 4.77115 5.05247 4.83079 5.08646L6.59015 5.92786C6.70943 5.96185 6.78896 5.97886 6.82871 5.97886C6.96788 5.97886 7.08715 5.93212 7.18654 5.83862C7.28593 5.7451 7.33564 5.63888 7.33564 5.51991C7.33564 5.36693 7.25611 5.24793 7.09708 5.16295Z" fill="black" fill-opacity="0.54"/>
  </symbol>
  <symbol id="favorites" width="14" height="18" viewBox="0 0 14 18">
    <path d="M12 0H2C0.9 0 0 0.9 0 2V18L7 15L14 18V2C14 0.9 13.1 0 12 0ZM12 15L7 12.82L2 15V2H12V15Z" fill="#D0D7DD"/>
  </symbol>
  <symbol id="favorites-checked" width="14" height="18" viewBox="0 0 14 18">
    <path d="M12 0H2C0.9 0 0 0.9 0 2V18L7 15L14 18V2C14 0.9 13.1 0 12 0ZM12 15L7 12.82L2 15V2H12V15Z" fill="#17BB4F"/>
  </symbol>
  <symbol id="subscribe" width="20" height="16" viewBox="0 0 20 16">
    <rect x="1" y="1" width="18" height="14" rx="1" stroke="#D0D7DD" fill="white" stroke-width="2"/>
    <path d="M3.5 4.34788V3.52712L9.735 7.424L10.0038 7.59198L10.2704 7.42059L16.5 3.41583V4.34788L10 8.41038L3.5 4.34788Z" stroke="#74797C"/>
  </symbol>
  <symbol id="compare" viewBox="0 0 20 20">
    <rect x="1" y="3" width="12" height="16" rx="1" fill="white" stroke="#74797C" stroke-width="2"/>
    <rect x="7" y="1" width="12" height="16" rx="1" fill="white" stroke="#D0D7DD" stroke-width="2"/>
  </symbol>
  <symbol id="compare-checked" viewBox="0 0 20 20">
    <rect x="1" y="3" width="12" height="16" rx="1" fill="white" stroke="#74797C" stroke-width="2"/>
    <rect x="7" y="1" width="12" height="16" rx="1" fill="white" stroke="#17BB4F" stroke-width="2"/>
  </symbol>
  <symbol id="map-point-menu" width="14" height="21" viewBox="0 0 14 21">
    <path fill-rule="evenodd" clip-rule="evenodd" fill="white" d="M7.00115 18.4288C11.0138 13.489 13 9.64646 13 7C13 3.92564 10.6471 1 7 1C3.36736 1 1 3.95742 1 7C1 9.6303 2.98718 13.4735 7.00115 18.4288Z" stroke="#D0D7DD" stroke-width="2"/>
    <path d="M7 9.5C5.62 9.5 4.5 8.38 4.5 7C4.5 5.62 5.62 4.5 7 4.5C8.38 4.5 9.5 5.62 9.5 7C9.5 8.38 8.38 9.5 7 9.5Z" fill="#74797C"/>
  </symbol>
  <symbol id="map" width="18" height="19" viewBox="0 0 18 19">
    <path fill="white"  d="M1 2.72076L6 1.05409L11.3286 2.83028C11.7866 2.98297 12.2845 2.96479 12.7302 2.77907L17 1V15.2792L12 16.9459L6.67144 15.1697C6.21335 15.017 5.71548 15.0352 5.26976 15.2209L1 17L1 2.72076Z" stroke="#D0D7DD" stroke-width="2"/>
    <rect x="5" y="3.5" width="2" height="10" rx="1" fill="#4A4A4A"/>
    <rect x="11" y="4.5" width="2" height="10" rx="1" fill="#4A4A4A"/>
  </symbol>
  <symbol id="list" viewBox="0 0 18 13">
    <path d="M1.28521 2.57042C1.99501 2.57042 2.57042 1.99501 2.57042 1.28521C2.57042 0.575408 1.99501 0 1.28521 0C0.575408 0 0 0.575408 0 1.28521C0 1.99501 0.575408 2.57042 1.28521 2.57042Z" fill="#4A4A4A"/>
    <path d="M1.28521 7.713C1.99501 7.713 2.57042 7.13759 2.57042 6.42779C2.57042 5.71799 1.99501 5.14258 1.28521 5.14258C0.575408 5.14258 0 5.71799 0 6.42779C0 7.13759 0.575408 7.713 1.28521 7.713Z" fill="#4A4A4A"/>
    <path d="M1.28521 12.8575C1.99501 12.8575 2.57042 12.2821 2.57042 11.5723C2.57042 10.8625 1.99501 10.2871 1.28521 10.2871C0.575408 10.2871 0 10.8625 0 11.5723C0 12.2821 0.575408 12.8575 1.28521 12.8575Z" fill="#4A4A4A"/>
    <path d="M16.7148 0H6.42828C5.71847 0 5.14307 0.575408 5.14307 1.28521V1.28641C5.14307 1.99621 5.71847 2.57162 6.42828 2.57162H16.7148C17.4246 2.57162 18 1.99621 18 1.28641V1.28521C18 0.575408 17.4246 0 16.7148 0Z" fill="#D0D7DD"/>
    <path d="M16.7148 5.14258H6.42828C5.71847 5.14258 5.14307 5.71799 5.14307 6.42779V6.42899C5.14307 7.13879 5.71847 7.7142 6.42828 7.7142H16.7148C17.4246 7.7142 18 7.13879 18 6.42899V6.42779C18 5.71799 17.4246 5.14258 16.7148 5.14258Z" fill="#D0D7DD"/>
    <path d="M16.7148 10.2852H6.42828C5.71847 10.2852 5.14307 10.8606 5.14307 11.5704V11.5716C5.14307 12.2814 5.71847 12.8568 6.42828 12.8568H16.7148C17.4246 12.8568 18 12.2814 18 11.5716V11.5704C18 10.8606 17.4246 10.2852 16.7148 10.2852Z" fill="#D0D7DD"/>
  </symbol>
  <symbol id="favorites-tile" width="14" height="20" viewBox="0 0 14 20">
    <path d="M12 0H2C0.9 0 0 1 0 2.22222V20L7 16.6667L14 20V2.22222C14 1 13.1 0 12 0ZM12 16.6667L7 14.2444L2 16.6667V2.22222H12V16.6667Z" fill="#17BB4F"/>
  </symbol>
  <symbol id="compare-tile" width="20" height="20" viewBox="0 0 20 20">
    <rect x="7" y="1" width="12" height="16" rx="1" fill="white" stroke="#74797C" stroke-width="2"/>
    <rect x="1" y="3" width="12" height="16" rx="1" fill="#17BB4F" stroke="#17BB4F" stroke-width="2"/>
  </symbol>
  <symbol id="remove" width="18" height="20" viewBox="0 0 18 20">
    <path fill="#AAB2B7" fill-opacity=".8" fill-rule="nonzero" d="M7 16a1 1 0 0 0 1-1V9a1 1 0 0 0-2 0v6a1 1 0 0 0 1 1zM17 4h-4V3a3 3 0 0 0-3-3H8a3 3 0 0 0-3 3v1H1a1 1 0 1 0 0 2h1v11a3 3 0 0 0 3 3h8a3 3 0 0 0 3-3V6h1a1 1 0 0 0 0-2zM7 3a1 1 0 0 1 1-1h2a1 1 0 0 1 1 1v1H7V3zm7 14a1 1 0 0 1-1 1H5a1 1 0 0 1-1-1V6h10v11zm-3-1a1 1 0 0 0 1-1V9a1 1 0 0 0-2 0v6a1 1 0 0 0 1 1z"/>
  </symbol>
  <symbol id="edit" width="20" height="20" viewBox="0 0 20 20">
    <path fill="#AAB2B7" fill-opacity=".8" fill-rule="nonzero" d="M20 5.24a1 1 0 0 0-.29-.71L15.47.29a1 1 0 0 0-.71-.29 1 1 0 0 0-.71.29l-2.83 2.83L.29 14.05a1 1 0 0 0-.29.71V19a1 1 0 0 0 1 1h4.24a1 1 0 0 0 .76-.29L16.87 8.78 19.71 6a1.19 1.19 0 0 0 .22-.33 1 1 0 0 0 0-.24.7.7 0 0 0 0-.14l.07-.05zM4.83 18H2v-2.83l9.93-9.93 2.83 2.83L4.83 18zM16.17 6.66l-2.83-2.83 1.42-1.41 2.82 2.82-1.41 1.42z"/>
  </symbol>
  <symbol id="accept" width="18" height="18" viewBox="0 0 18 18" fill="none">
    <path d="M9 0C4.037 0 0 4.036 0 9C0 13.963 4.037 18 9 18C13.963 18 18 13.963 18 9C18 4.036 13.963 0 9 0Z" fill="#AAB2B7" fill-opacity="0.8"/>
    <path fill-rule="evenodd" clip-rule="evenodd" d="M8.16053 13.1566C8.02275 13.1622 7.88531 13.1391 7.75691 13.0888C7.6285 13.0386 7.51192 12.9622 7.41453 12.8646L4.58653 10.0366C4.39875 9.84909 4.29316 9.59467 4.29297 9.32931C4.29278 9.06394 4.39802 8.80937 4.58553 8.6216C4.77303 8.43383 5.02745 8.32823 5.29282 8.32804C5.55818 8.32786 5.81275 8.43309 6.00053 8.6206L8.16053 10.7816L12.4445 6.5006C12.5368 6.40509 12.6471 6.32891 12.7691 6.2765C12.8911 6.22409 13.0223 6.1965 13.1551 6.19535C13.2879 6.1942 13.4196 6.2195 13.5425 6.26978C13.6654 6.32006 13.777 6.39431 13.8709 6.48821C13.9648 6.5821 14.0391 6.69375 14.0893 6.81665C14.1396 6.93954 14.1649 7.07122 14.1638 7.204C14.1626 7.33678 14.135 7.468 14.0826 7.59001C14.0302 7.71201 13.954 7.82235 13.8585 7.9146L8.90853 12.8646C8.81113 12.9622 8.69455 13.0386 8.56614 13.0888C8.43774 13.1391 8.3003 13.1622 8.16252 13.1566H8.16053Z" fill="white"/>
  </symbol>
  <symbol id="decline" width="18" height="18" viewBox="0 0 18 18">
    <path d="M9 18C4.037 18 0 13.963 0 9C0 4.036 4.037 0 9 0C13.963 0 18 4.036 18 9C18 13.963 13.963 18 9 18Z" fill="#AAB2B7" fill-opacity="0.8"/>
    <path fill-rule="evenodd" clip-rule="evenodd" d="M10.4028 9.00078L13.2088 11.8068C13.3949 11.9928 13.4994 12.2452 13.4994 12.5083C13.4994 12.7714 13.3949 13.0237 13.2088 13.2098C13.0228 13.3958 12.7704 13.5003 12.5073 13.5003C12.2442 13.5003 11.9919 13.3958 11.8058 13.2098L8.9998 10.4038L6.1938 13.2108C6.00775 13.3968 5.75541 13.5013 5.4923 13.5013C5.22919 13.5013 4.97685 13.3968 4.7908 13.2108C4.60475 13.0247 4.50023 12.7724 4.50023 12.5093C4.50023 12.2462 4.60475 11.9938 4.7908 11.8078L7.5968 9.00078L4.7898 6.19478C4.69761 6.10259 4.62449 5.99315 4.57459 5.8727C4.5247 5.75225 4.49902 5.62315 4.49902 5.49278C4.49902 5.3624 4.5247 5.23331 4.57459 5.11286C4.62449 4.99241 4.69761 4.88297 4.7898 4.79078C4.88199 4.69859 4.99143 4.62546 5.11188 4.57557C5.23233 4.52568 5.36143 4.5 5.4918 4.5C5.62217 4.5 5.75127 4.52568 5.87172 4.57557C5.99217 4.62546 6.10161 4.69859 6.1938 4.79078L8.9998 7.59778L11.8058 4.79178C11.9919 4.60573 12.2442 4.50121 12.5073 4.50121C12.7704 4.50121 13.0228 4.60573 13.2088 4.79178C13.3949 4.97783 13.4994 5.23016 13.4994 5.49328C13.4994 5.75639 13.3949 6.00873 13.2088 6.19478L10.4028 9.00078Z" fill="white"/>
  </symbol>
  <symbol id="eye" viewBox="0 0 20 16">
    <path fill="#AAB2B7" fill-opacity=".8" fill-rule="nonzero" d="M19.92 7.6C17.9 2.91 14.1 0 10 0S2.1 2.91.08 7.6a1 1 0 0 0 0 .8C2.1 13.09 5.9 16 10 16s7.9-2.91 9.92-7.6a1 1 0 0 0 0-.8zM10 14c-3.17 0-6.17-2.29-7.9-6C3.83 4.29 6.83 2 10 2s6.17 2.29 7.9 6c-1.73 3.71-4.73 6-7.9 6zm0-10a4 4 0 1 0 0 8 4 4 0 0 0 0-8zm0 6a2 2 0 1 1 0-4 2 2 0 0 1 0 4z"/>
  </symbol>
  <symbol id="eye-close" viewBox="0 0 20 20">
    <path fill="#AAB2B7" fill-opacity=".8" fill-rule="nonzero" d="M8.94 4.08A6.93 6.93 0 0 1 10 4c3.18 0 6.17 2.29 7.91 6a15.23 15.23 0 0 1-.9 1.64 1 1 0 0 0 1.7 1.05 15.77 15.77 0 0 0 1.21-2.3 1 1 0 0 0 0-.79C17.9 4.91 14.1 2 10 2a7.77 7.77 0 0 0-1.4.12 1.014 1.014 0 1 0 .34 2v-.04zM1.71.29A1.004 1.004 0 0 0 .29 1.71l3.1 3.09A14.62 14.62 0 0 0 .08 9.6a1 1 0 0 0 0 .8C2.1 15.09 5.9 18 10 18a9.26 9.26 0 0 0 5.05-1.54l3.24 3.25a1 1 0 0 0 1.42 0 1 1 0 0 0 0-1.42l-18-18zm6.36 9.19l2.45 2.45a2 2 0 0 1-2.45-2.45zM10 16c-3.18 0-6.17-2.29-7.9-6a12.09 12.09 0 0 1 2.7-3.79L6.57 8A4 4 0 0 0 12 13.43L13.59 15A7.24 7.24 0 0 1 10 16z"/>
  </symbol>
  <symbol id="close" viewBox="0 0 17 17">
    <path d="M9.4158 8.00409L15.7158 1.71409C15.9041 1.52579 16.0099 1.27039 16.0099 1.00409C16.0099 0.73779 15.9041 0.482395 15.7158 0.294092C15.5275 0.105788 15.2721 3.57059e-08 15.0058 3.17377e-08C14.7395 2.77695e-08 14.4841 0.105788 14.2958 0.294092L8.0058 6.59409L1.7158 0.294092C1.62256 0.200853 1.51187 0.126892 1.39005 0.0764319C1.26823 0.0259716 1.13766 9.82428e-10 1.0058 0C0.873939 -9.82427e-10 0.743371 0.0259716 0.621549 0.0764319C0.499727 0.126892 0.389037 0.200853 0.295798 0.294092C0.20256 0.38733 0.128599 0.49802 0.0781386 0.619842C0.0276783 0.741664 0.00170668 0.872232 0.00170668 1.00409C0.00170669 1.13595 0.0276783 1.26652 0.0781386 1.38834C0.128599 1.51016 0.20256 1.62085 0.295798 1.71409L6.5958 8.00409L0.295798 14.2941C0.20207 14.3871 0.127676 14.4977 0.0769069 14.6195C0.0261382 14.7414 0 14.8721 0 15.0041C0 15.1361 0.0261382 15.2668 0.0769069 15.3887C0.127676 15.5105 0.20207 15.6211 0.295798 15.7141C0.388761 15.8078 0.499362 15.8822 0.621222 15.933C0.743081 15.9838 0.873786 16.0099 1.0058 16.0099C1.13781 16.0099 1.26852 15.9838 1.39037 15.933C1.51223 15.8822 1.62284 15.8078 1.7158 15.7141L8.0058 9.41409L14.2958 15.7141C14.3888 15.8078 14.4994 15.8822 14.6212 15.933C14.7431 15.9838 14.8738 16.0099 15.0058 16.0099C15.1378 16.0099 15.2685 15.9838 15.3904 15.933C15.5122 15.8822 15.6228 15.8078 15.7158 15.7141C15.8095 15.6211 15.8839 15.5105 15.9347 15.3887C15.9855 15.2668 16.0116 15.1361 16.0116 15.0041C16.0116 14.8721 15.9855 14.7414 15.9347 14.6195C15.8839 14.4977 15.8095 14.3871 15.7158 14.2941L9.4158 8.00409Z" fill="#4A4A4A"/>
  </symbol>
</svg>
