<?xml version="1.0" encoding="utf-8"?>
<svg xmlns="http://www.w3.org/2000/svg" style="display: none">
  <symbol id="passport" class="icon-relations" viewBox="0 0 512 512">
    <circle fill="#B9DBF0" cx="256" cy="256" r="256"/>

    <path fill="white" d="M164.1,75.6h178.3l47,47v242.2H164.1V75.6z"/>
    <g fill="#E5E5E5">
      <path d="M191.7,225.4h154.5v5.1H191.7V225.4z M191.7,206.7L191.7,206.7H310v5.1H191.7V206.7z M191.7,197.2
    L191.7,197.2h154.5v5.1H191.7V197.2z M191.7,187.7L191.7,187.7h154.5v5.1H191.7V187.7z M191.7,178.1L191.7,178.1h154.5v5.1H191.7
    V178.1z M191.7,168.6L191.7,168.6h154.5v5.1H191.7V168.6z M191.7,263.5L191.7,263.5H310v5.1H191.7V263.5z M191.7,254L191.7,254
    h154.5v5.1H191.7V254z M191.7,244.5L191.7,244.5h154.5v5.1H191.7V244.5z M191.7,235L191.7,235h154.5v5.1H191.7V235z"/>
      <path d="M343.5,75.6v47h47L343.5,75.6z"/>
    </g>
    <rect fill="#4EA31E" x="119.3" y="147.2" width="205.2" height="270"/>
    <g fill="#359B1D">
      <rect x="184.1" y="352.4" width="75.6" height="10.8"/>
      <rect x="157.1" y="374"   width="129.6" height="10.8"/>
      <rect x="216.5" y="314.6" width="10.8" height="10.8"/>
      <rect x="194.9" y="314.6" width="10.8" height="10.8"/>
      <rect x="238.1" y="314.6" width="10.8" height="10.8"/>
    </g>
    <g fill="#F49530">
      <path d="M248.9,206.6h54v10.8c0,6-4.8,10.8-10.8,10.8h-43.2V206.6z"/>
      <path d="M248.9,249.8h32.4v10.8c0,6-4.8,10.8-10.8,10.8h-21.6V249.8z"/>
      <path d="M194.9,206.6h-54v10.8c0,6,4.8,10.8,10.8,10.8h43.2V206.6z"/>
      <path d="M194.9,249.8h-32.4v10.8c0,6,4.8,10.8,10.8,10.8h21.6V249.8z"/>
    </g>
    <g fill="#fbb03b">
      <path d="M248.9,228.2h43.2V239c0,6-4.8,10.8-10.8,10.8h-32.4V228.2z"/>
      <path d="M194.9,228.2h-43.2V239c0,6,4.8,10.8,10.8,10.8h32.4V228.2z"/>
      <polygon points="259.7,282.2 221.9,298.4 184.1,282.2 184.1,195.8 259.7,195.8 	"/>
    </g>
    <circle fill="#F49530" cx="221.9" cy="239" r="16.2"/>
  </symbol>

  <symbol id="sale" viewBox="0 0 505 505">
    <circle fill="#B9DBF0" cx="252.5" cy="252.5" r="252.5"/>

    <path fill="#fbb03b" d="M88,299.8l108.1,108.1c5.9,5.9,15.6,5.9,21.5,0l181.1-181.1c5.9-5.9,5.9-15.6,0-21.5l-11.2-11.2
	c20.2-23.9,19.1-59.7-3.5-82.3s-58.4-23.7-82.3-3.5l-11.2-11.2c-5.9-5.9-15.6-5.9-21.5,0L87.9,278.2C82,284.2,82,293.8,88,299.8z
	 M347.8,148c-6-6-6-15.7,0-21.7s15.7-6,21.7,0s6,15.7,0,21.7S353.8,154,347.8,148z"/>
    <g fill="white">
      <path d="M437.7,219.7c4.9,0.6,9.2-0.9,12.5-4.2c4.9-5,7.4-13.7,7.3-25.4c-0.1-15.3-12.7-35.3-30.6-48.7
	c-10-7.5-20.8-12.4-31.9-14.6c-8.4-1.7-16.9-1.9-25.4-0.5c-2.6,0.5-5.3,1.1-7.9,1.8l-0.5,0.1l-0.4,0.2c-0.7,0.4-1.6,1-2.4,1.8
	c-1.7,1.7-2.4,3.8-1.9,6.1c0.4,2,1.5,3.6,2.7,5c2.5,3.1,5.3,5.8,8.3,8.3c0.7-0.5,1.4-1.1,2-1.7c1.5-1.4,2.6-3.1,3.3-4.8
	c-2.6-2.2-5-4.5-7.1-7c0-0.1-0.1-0.2-0.2-0.3c2.8-0.8,5.6-1.3,8.3-1.6c9.3-1.2,17.8,0,25.2,2.2c9.9,3,17.8,7.9,22.9,11.7
	c17.6,13.2,27.2,31.5,27.3,42.1c0.1,9.1-1.7,16.2-4.9,19.4c-1.5,1.5-3.3,2.1-5.6,1.8c-4.6-0.5-17.4-5.6-39.3-39.5
	c-1,3.2-2.2,6.4-3.7,9.5C411.8,205.2,426.2,218.3,437.7,219.7z"/>
      <path d="M219.7,266.9c-3.9,3.9-8.5,5.8-13.9,5.7c-5.4-0.1-10.2-2.2-14.4-6.4c-4.2-4.2-6.3-9-6.3-14.4
	c-0.1-5.4,1.8-10.1,5.7-13.9c3.8-3.8,8.5-5.7,13.9-5.7c5.4,0.1,10.2,2.2,14.4,6.4c4.2,4.2,6.3,9,6.3,14.4
	C225.5,258.3,223.6,263,219.7,266.9z M273,289.1l-118,19.5l-16.9-16.9l118.1-19.4L273,289.1z M198.8,252.9c-0.1,1.6,0.4,3,1.6,4.2
	c1.2,1.2,2.6,1.7,4.3,1.6c1.7-0.1,3.2-0.9,4.7-2.3c1.4-1.4,2.2-3,2.4-4.8c0.2-1.7-0.3-3.2-1.5-4.3c-1.1-1.1-2.6-1.6-4.3-1.5
	c-1.7,0.2-3.3,1-4.8,2.4C199.7,249.7,198.9,251.3,198.8,252.9z M218.2,345.8c-3.9,3.9-8.5,5.8-13.9,5.7c-5.4-0.1-10.2-2.2-14.4-6.4
	c-4.2-4.2-6.3-9-6.3-14.4c-0.1-5.4,1.8-10.1,5.7-13.9c3.8-3.8,8.5-5.7,13.9-5.7c5.4,0.1,10.2,2.2,14.4,6.3c4.2,4.2,6.3,9,6.3,14.4
	C224,337.3,222.1,342,218.2,345.8z M197.3,331.9c-0.1,1.6,0.4,3.1,1.6,4.2c1.2,1.2,2.6,1.7,4.3,1.6c1.7-0.1,3.2-0.9,4.7-2.3
	c1.4-1.4,2.2-3,2.4-4.8c0.2-1.7-0.3-3.2-1.5-4.3c-1.1-1.1-2.6-1.6-4.3-1.5c-1.7,0.2-3.3,1-4.8,2.4
	C198.2,328.7,197.4,330.2,197.3,331.9z"/>
    </g>
  </symbol>

  <symbol id="excel-valid" viewBox="0 0 130 130">
    <circle fill="#B9DBF0" cx="65" cy="65" r="65" />
    <g fill="none" fill-rule="evenodd">
      <path fill="white" fill-rule="nonzero"
            d="M38.28,18.71 L91.85,18.71 C93.9597277,18.71 95.67,20.4202723 95.67,22.53 L95.67,111.28 L49.53,111.28 L34.45,96.17 L34.45,22.53 C34.4499965,21.515138 34.8538321,20.5419875 35.5723853,19.8253104 C36.2909385,19.1086333 37.2651415,18.7073433 38.28,18.71 Z"/>
      <polygon fill="#CCC" fill-rule="nonzero" stroke="#CCC" stroke-width=".25" points="49.32 111 49.32 96 34.32 96"/>
      <path fill="#4EA31E" fill-rule="nonzero"
            d="M95.68,34 L95.68,22.53 C95.68,20.4202723 93.9697277,18.71 91.86,18.71 L38.28,18.71 C36.1702723,18.71 34.46,20.4202723 34.46,22.53 L34.46,34 L95.68,34 Z"/>
      <circle cx="89.82" cy="26.47" r="1.5" fill="white" fill-rule="nonzero"/>
      <circle cx="83.82" cy="26.47" r="1.5" fill="white" fill-rule="nonzero"/>
      <circle cx="77.82" cy="26.47" r="1.5" fill="white" fill-rule="nonzero"/>
      <circle cx="81.82" cy="101.47" r="6.5" fill="#F49530" fill-rule="nonzero"/>
      <polyline stroke="white" points="86.15 98.77 80.74 104.17 77.49 100.92"/>
      <rect width="47.5" height="45.5" x="41.25" y="42.97" stroke="#CCC"/>
      <path stroke="#CCC"
            d="M41.75 52.47L88.75 52.47M41.75 61.47L88.75 61.47M41.75 70.47L88.75 70.47M41.75 79.47L88.75 79.47M57.25 42.97L57.25 88.97M73.25 42.97L73.25 88.97"/>
      <rect width="13" height="4" x="58.75" y="55.14" fill="#4EA31E" fill-rule="nonzero"/>
      <path stroke="#CCC"
            d="M58.75 47.64L71.75 47.64M74.75 47.64L87.75 47.64M42.75 47.64L55.75 47.64M42.75 57.14L55.75 57.14M42.75 66.14L55.75 66.14M42.75 75.14L55.75 75.14M42.75 84.14L55.75 84.14"/>
      <rect width="12" height="4" x="74.75" y="55.14" fill="#4EA31E" fill-rule="nonzero"/>
      <rect width="13" height="4" x="58.75" y="64.14" fill="#4EA31E" fill-rule="nonzero"/>
      <rect width="12" height="4" x="74.75" y="64.14" fill="#4EA31E" fill-rule="nonzero"/>
      <rect width="13" height="4" x="58.75" y="73.14" fill="#4EA31E" fill-rule="nonzero"/>
      <rect width="12" height="4" x="74.75" y="73.14" fill="#4EA31E" fill-rule="nonzero"/>
      <rect width="13" height="4" x="58.75" y="82.14" fill="#4EA31E" fill-rule="nonzero"/>
      <rect width="12" height="4" x="74.75" y="82.14" fill="#4EA31E" fill-rule="nonzero"/>
    </g>
  </symbol>

  <symbol id="excel-invalid" viewBox="0 0 130 130">
    <g fill="none" fill-rule="evenodd">
      <circle fill="#B9DBF0" cx="65" cy="65" r="65" fill-rule="nonzero"/>
      <path fill="white" fill-rule="nonzero"
            d="M38.28,18.71 L91.85,18.71 C93.9597277,18.71 95.67,20.4202723 95.67,22.53 L95.67,111.28 L49.53,111.28 L34.45,96.17 L34.45,22.53 C34.4499965,21.515138 34.8538321,20.5419875 35.5723853,19.8253104 C36.2909385,19.1086333 37.2651415,18.7073433 38.28,18.71 Z"/>
      <polygon fill="#CCC" fill-rule="nonzero" stroke="#CCC" stroke-width=".25" points="49.32 111 49.32 96 34.32 96"/>
      <path fill="#4EA31E" fill-rule="nonzero"
            d="M95.68,34 L95.68,22.53 C95.68,20.4202723 93.9697277,18.71 91.86,18.71 L38.28,18.71 C36.1702723,18.71 34.46,20.4202723 34.46,22.53 L34.46,34 L95.68,34 Z"/>
      <circle cx="89.82" cy="26.47" r="1.5" fill="white" fill-rule="nonzero"/>
      <circle cx="83.82" cy="26.47" r="1.5" fill="white" fill-rule="nonzero"/>
      <circle cx="77.82" cy="26.47" r="1.5" fill="white" fill-rule="nonzero"/>
      <rect width="47.5" height="45.5" x="41.25" y="42.97" stroke="#CCC"/>
      <path stroke="#CCC"
            d="M41.75 52.47L88.75 52.47M41.75 61.47L88.75 61.47M41.75 70.47L88.75 70.47M41.75 79.47L88.75 79.47M57.25 42.97L57.25 88.97M73.25 42.97L73.25 88.97"/>
      <rect width="13" height="4" x="58.75" y="55.14" fill="#EB6762" fill-rule="nonzero"/>
      <path stroke="#CCC"
            d="M58.75 47.64L71.75 47.64M74.75 47.64L87.75 47.64M42.75 47.64L55.75 47.64M42.75 57.14L55.75 57.14M42.75 66.14L55.75 66.14M42.75 75.14L55.75 75.14M42.75 84.14L55.75 84.14"/>
      <rect width="12" height="4" x="74.75" y="55.14" fill="#EB6762" fill-rule="nonzero"/>
      <rect width="13" height="4" x="58.75" y="64.14" fill="#4EA31E" fill-rule="nonzero"/>
      <rect width="13" height="4" x="58.75" y="73.14" fill="#EB6762" fill-rule="nonzero"/>
      <rect width="12" height="4" x="74.75" y="73.14" fill="#EB6762" fill-rule="nonzero"/>
      <rect width="13" height="4" x="58.75" y="82.14" fill="#4EA31E" fill-rule="nonzero"/>
      <circle cx="82.66" cy="101.61" r="6.5" fill="#EB6762" fill-rule="nonzero"/>
      <path stroke="white" d="M82.66 96.86L82.66 103.36M82.66 104.86L82.66 106.36"/>
      <path stroke="dimgray" d="M78.5 64L83 68.5M83 64L78.5 68.5M78.5 82L83 86.5M83 82L78.5 86.5"/>
    </g>
  </symbol>

  <symbol id="clock" viewBox="0 0 130 130">
    <circle fill="#B9DBF0"  cx="65" cy="65" r="65"/>
    <circle fill="darkgrey" cx="65" cy="65" r="45"/>
    <circle fill="white"    cx="65" cy="65" r="40"/>
    <g fill="darkgray">
      <circle cx="65"  cy="100" r="2" />
      <circle cx="30"  cy="65"  r="2" />
      <circle cx="100" cy="65"  r="2" />
    </g>
    <g stroke="#F49530" stroke-linecap="round" stroke-linejoin="round" stroke-width="4">
      <path d="M65,64 L65,31"/>
      <path d="M65,65 L84,57"/>
    </g>
    <circle fill="#F49530" cx="65" cy="65" r="5" />
    <g fill="none" fill-rule="evenodd">
      <circle fill="#4EA31E" cx="95" cy="95" r="15" fill-rule="nonzero"/>
      <path stroke="white" d="M90.1 95L97.55 95C99.4863796 95.0000001 101.275668 93.9669539 102.243858 92.2900001 103.212048 90.6130462 103.212048 88.5469538 102.243858 86.8699999 101.275668 85.1930461 99.4863796 84.1599999 97.55 84.16L93.15 84.16 93.15 106.51M90.1 99.74L99.24 99.74"/>
    </g>
  </symbol>

  <symbol id="analytics" viewBox="0 0 512 512">
    <title>analytics</title>
    <circle fill="#B9DBF0" cx="256" cy="256" r="256"/>
    <path   fill="white" stroke="#B9DBF0" stroke-width="0" d="M78.319,71.721h304.705v406.587C345.591,499.743,302.228,512,256,512C114.614,512,0,397.386,0,256 C0,183.628,30.039,118.282,78.319,71.721z"/>


    <g fill="#eb6762">
      <circle fill="#eb6762" cx="427.156" cy="392.264" r="80.153"/>
      <rect x="165.487" y="381.176" width="13.255" height="13.255"/>
      <path d="M86.6,276.359l61.761-1.436l47.485-56.117l0.431-0.512l0.672,0.011l96.524,1.43v-42.101h2.852v43.542 v1.441l-1.444-0.021l-97.296-1.441l-47.464,56.092l-0.411,0.486l-0.649,0.015L86.654,279.2L86.6,276.359z"/>
    </g>
    <g fill="#4ea31e">
      <rect x="165.487" y="408.692" width="13.255" height="13.255"/>
      <path d="M507.255,394.846c-1.365,43.07-36.701,77.567-80.104,77.567c-44.266,0-80.149-35.884-80.149-80.149 c0-28.28,14.647-53.136,36.768-67.402l43.381,67.402L507.255,394.846L507.255,394.846z"/>
      <path   d="M79.92,226.611l41.364-34.107l0.556-0.46l0.692,0.175l59.34,15.015l38.614-49.341l0.305-0.392 l0.481-0.115l41.367-9.986l6.261-16.002l2.654,1.037l-6.53,16.69l-0.269,0.689l-0.723,0.176l-41.61,10.043l-38.881,49.682 l-0.574,0.734l-0.891-0.227l-59.542-15.065l-40.807,33.647L79.92,226.611L79.92,226.611z"/>
    </g>
    <g fill="#fbb03b">
      <rect x="165.487" y="353.649" width="13.255" height="13.255"/>
      <path d="M383.766,324.862c11.216-7.233,24.354-11.742,38.478-12.595l4.907,79.996L383.766,324.862 L383.766,324.862z"/>
      <path d="M93.257,328.864l31.204-95.791l0.371-1.141l1.184,0.172l89.67,12.912l30.757-65.805l2.574,1.204 l-31.202,66.764l-0.448,0.957l-1.041-0.15l-89.528-12.892l-30.834,94.652L93.257,328.864L93.257,328.864z"/>
    </g>
    <g fill="darkgray">
      <path d="M59.29,340.003h270.711v2.357H59.29V340.003z"/>
      <path d="M61.795,342.36V129.582h-2.357V342.36H61.795z"/>
      <path d="M187.784,354.676h118.515v2.524H187.784V354.676z M187.784,363.349h67.679v2.522h-67.679V363.349z"/>
      <path d="M187.784,382.2h88.573v2.522h-88.573V382.2z M187.784,390.872h67.679v2.524h-67.679V390.872z"/>
      <path d="M187.784,409.725h108.534v2.524H187.784V409.725z M187.784,418.398h67.679v2.522h-67.679V418.398z"/>
      <path d="M187.784,437.25h98.553v2.522h-98.553V437.25z M187.784,445.922h67.679v2.524h-67.679V445.922z"/>
    </g>
    <g fill="dimgray">
      <path d="M427.152,312.113c5.319,0,10.514,0.525,15.545,1.511l-15.545,78.638l-4.907-79.996 C423.869,312.168,425.504,312.113,427.152,312.113z"/>
      <rect x="165.487" y="436.218" width="13.255" height="13.255"/>
      <path d="M85.73,309.628l95.526-13.003l23.797-30.242l0.458-0.585l0.745,0.045l58.249,3.484l24.707-23.719 l1.972,2.05l-25.157,24.152l-0.45,0.431l-0.619-0.035l-58.125-3.477l-23.692,30.107l-0.354,0.45l-0.575,0.079l-96.103,13.081 L85.73,309.628L85.73,309.628z"/>
    </g>
  </symbol>

  <symbol id="users-search" viewBox="0 0 512 512">
    <circle fill="#B9DBF0" cx="256" cy="256" r="256"/>
    <circle fill="#ecf0f1" cx="256" cy="256" r="146.595"/>
    <path fill="#4ea31e"
          d="M232.795,281.677l-20.563,5.953l-42.375,10.05c0,0-5.169-3.617-8.324,6.064 c-1.422,4.365-5.436,26.97-9.414,50.48c27.612,24.586,63.996,39.533,103.875,39.533s76.264-14.947,103.875-39.533 c-3.977-23.505-7.99-46.115-9.414-50.48c-3.15-9.681-8.324-6.064-8.324-6.064l-42.375-10.05l-20.563-5.953l-23.206,1.035 l-23.206-1.035L232.795,281.677L232.795,281.677z"/>
    <path fill="#f0ba7d"
          d="M236.684,243.478h7.677h23.28h7.677l3.132,33.316l5.556,4.563l11.723,7.635l-39.723,96.018 l-39.723-96.018l11.723-7.635l5.561-4.559l3.127-33.316L236.684,243.478z"/>
    <path fill="#f2f2f2"
          d="M223.94,283.82l-7.616,2.489l39.677,98.697l40.028-98.481l-8.129-2.638l-19.921,14.393h-23.88 L223.94,283.82z"/>
    <path fill="#f49530"
          d="M248.854,296.966l2.739,6.91l-6.083,78.739l10.495,8.222l10.495-8.222l-6.083-78.739l2.739-6.91 l-7.15-0.291L248.854,296.966z"/>
    <path fill="#359b1d"
          d="M224.49,283.64l-12.217,3.991l-2.346,31.718c0,0,0.647,2.605,2.587,2.369l11.026,4.24 c0,0,0.721,0.739,0.079,1.672l-9.437,6.614l26.896,58.799c4.813,0.457,9.686,0.698,14.619,0.712l-31.201-110.116h-0.004V283.64z M270.933,393.044l26.892-58.795l-9.437-6.614c-0.647-0.933,0.079-1.672,0.079-1.672l11.026-4.24 c1.94,0.236,2.587-2.369,2.587-2.369l-2.337-31.612l-11.838-3.843L256.32,393.762c4.928-0.009,9.801-0.255,14.615-0.712v-0.006 H270.933z"/>
    <path fill="#fed298"
          d="M300.993,184.398c0,2.886,1.104,5.718,1.021,8.49c10.351-1.833,5.354,27.525-0.503,31.566 c-0.466,0.318-1.612-0.392-2.577-0.984c-2.032,10.799-19.371,39.654-30.393,51.801c-3.062,3.371-21.788,3.317-24.818,0.13 c-11.289-11.866-28.609-41.067-30.651-51.926c-0.965,0.591-2.111,1.302-2.577,0.984c-5.857-4.037-10.855-33.399-0.503-31.566 c-0.083-2.772,1.025-5.598,1.025-8.49c0.573-22.799,22.208-34.181,44.989-34.277c22.781,0.097,44.416,11.478,44.989,34.277v-0.005 H300.993z"/>
    <path fill="dimgray"
          d="M287.123,155.168c3.266-0.365,15.058,3.085,16.471,15.002c1.418,11.912,0.739,22.892,0.739,22.892 s-6.91,1.668-7.778,8.43c-0.868,6.762-0.25,6.762-0.25,6.762l-2.503-0.536l-1.783-11.593c-10.337-6.185,0.079-15.344-10.259-17.487 c-27.917,18.998-52.554,15.746-63.663,6.809c0,0,2.591,9.349,0.596,12.683c-2,3.335-0.808,8.586-0.808,8.586l-2.596-0.12 c0,0,0.471-13.769-5.294-13.709c-21.903-34.531,47.437-77.428,77.127-37.714v-0.004H287.123z"/>
    <g>
      <path fill="white"
            d="M233.289,272.037c0.813,0.06-9.455,11.908-9.455,11.908l8.739,30.619l23.427-17.889 C243.114,290.203,235.423,281.824,233.289,272.037z"/>
      <path fill="white"
            d="M278.716,272.037c-0.813,0.06,9.451,11.908,9.451,11.908l-8.739,30.619L256,296.674 C268.887,290.203,276.578,281.824,278.716,272.037z"/>
    </g>
    <path fill="#4ea31e"
          d="M88.652,278.73l-10.439,3.021l-21.506,5.104c0,0-2.624-1.838-4.227,3.076 c-0.721,2.217-2.758,13.69-4.776,25.621c14.014,12.481,32.481,20.065,52.721,20.065c10.268,0,20.079-1.954,29.08-5.505 c-9.113-15.515-15.45-32.854-18.337-51.335l-10.744,0.48l-11.778-0.527H88.652z"/>
    <path fill="#f0ba7d"
          d="M90.628,259.344h3.893h11.815h3.118c0.286,12.706,2.18,25.016,5.501,36.726l-14.527,35.109 l-20.162-48.734l5.949-3.875l2.823-2.315l1.584-16.91H90.628z"/>
    <path fill="#f2f2f2"
          d="M84.157,279.82l-3.866,1.266l20.139,50.093l14.425-35.483c-1.146-4.083-2.116-8.24-2.91-12.462 l-5.436,3.926h-12.12L84.157,279.82z"/>
    <path fill="#f49530"
          d="M96.804,286.49l1.39,3.506l-3.086,39.962l5.326,4.171l5.331-4.171l-3.085-39.963l1.39-3.506 l-3.631-0.148l-3.631,0.148L96.804,286.49L96.804,286.49z"/>
    <path fill="#359b1d"
          d="M84.439,279.727l-6.199,2.023l-1.192,16.097c0,0,0.328,1.325,1.311,1.206l5.593,2.153 c0,0,0.369,0.378,0.042,0.85l-4.79,3.357l13.648,29.843c2.443,0.231,4.919,0.355,7.418,0.36l-15.838-55.889H84.439z M108.009,335.256l11.616-25.395c-2.457-6.222-4.494-12.651-6.092-19.257l-12.938,45.012c2.503-0.005,4.974-0.13,7.418-0.36H108.009 z"/>
    <path fill="#fed298"
          d="M77.598,224.956c0,1.57-0.559,3.109-0.517,4.614c-5.252-0.998-2.716,14.97,0.258,17.169 c0.236,0.176,0.817-0.213,1.307-0.536c1.03,5.871,9.829,21.57,15.427,28.175c1.557,1.833,11.058,1.801,12.596,0.069 c1.058-1.192,2.222-2.707,3.418-4.42c-0.439-4.619-0.67-9.293-0.67-14.028c0-15.617,2.452-30.655,6.974-44.767 c-4.259-3.257-10.033-4.896-15.954-4.923c-11.562,0.051-22.545,6.245-22.836,18.647L77.598,224.956L77.598,224.956z"/>
    <path fill="dimgray"
          d="M84.638,209.058c-1.658-0.199-7.644,1.682-8.361,8.157c-0.716,6.48-0.374,12.453-0.374,12.453 s3.506,0.905,3.949,4.582c0.439,3.681,0.125,3.681,0.125,3.681l1.271-0.291l0.905-6.305c5.247-3.362-0.037-8.347,5.21-9.511 c9.428,6.873,18.116,8.393,24.54,7.206c1.418-7.607,3.418-15.007,5.958-22.152c-9.354-7.815-24.586-10.189-33.219,2.185 L84.638,209.058z"/>
    <g>
      <path fill="white"
            d="M88.905,273.839c0.411,0.032-4.799,6.041-4.799,6.041l4.434,15.538l11.889-9.08 c-6.54-3.284-10.444-7.538-11.529-12.504L88.905,273.839z"/>
      <path fill="white"
            d="M113.607,290.92l-1.285,4.503l-11.894-9.08c5.164-2.591,8.679-5.788,10.467-9.46 c0.679,4.758,1.584,9.437,2.707,14.037H113.607z"/>
    </g>
    <path fill="#4ea31e"
          d="M406.979,278.73l-6.452,1.87c-2.84,16.808-8.54,32.638-16.582,46.984 c10.509,5.145,22.324,8.037,34.813,8.037c20.241,0,38.707-7.589,52.721-20.065c-2.018-11.931-4.055-23.405-4.776-25.621 c-1.598-4.914-4.227-3.076-4.227-3.076l-21.506-5.104l-10.434-3.021l-11.778,0.527l-11.778-0.527L406.979,278.73L406.979,278.73z"/>
    <path fill="#f0ba7d"
          d="M408.952,259.344h3.893h11.815h3.893l1.589,16.905l2.823,2.315l5.949,3.875l-20.162,48.734 l-19.062-46.069c0.258-1.275,0.494-2.559,0.721-3.848l4.129-2.688l2.823-2.315l1.584-16.91H408.952z"/>
    <path fill="#f2f2f2"
          d="M402.485,279.82l-1.935,0.633c-0.213,1.257-0.434,2.503-0.679,3.746l18.887,46.98l20.319-49.982 l-4.129-1.339l-10.111,7.303h-12.12L402.485,279.82z"/>
    <path fill="#f49530"
          d="M415.132,286.49l1.39,3.506l-3.086,39.962l5.326,4.171l5.331-4.171l-3.085-39.963l1.39-3.506 l-3.631-0.148l-3.631,0.148L415.132,286.49L415.132,286.49z"/>
    <path fill="#359b1d"
          d="M402.762,279.727l-2.213,0.721c-1.062,6.324-2.526,12.508-4.37,18.531 c0.143,0.065,0.309,0.097,0.503,0.074l5.593,2.153c0,0,0.369,0.378,0.042,0.85l-4.79,3.357l13.648,29.843 c2.443,0.231,4.914,0.355,7.418,0.36l-15.838-55.889H402.762z M426.332,335.256l13.649-29.843l-4.79-3.357 c-0.328-0.471,0.042-0.85,0.042-0.85l5.593-2.153c0.984,0.12,1.311-1.206,1.311-1.206l-1.187-16.046l-6.009-1.949l-16.028,55.76 c2.503-0.005,4.974-0.13,7.418-0.36V335.256z"/>
    <path fill="#fed298"
          d="M402.55,259.247c3.113,5.728,6.92,11.676,9.848,15.132c1.557,1.833,11.058,1.801,12.596,0.069 c5.732-6.452,14.522-22.338,15.557-28.245c0.49,0.318,1.072,0.707,1.307,0.536c2.974-2.194,5.51-18.167,0.259-17.169 c0.042-1.506-0.517-3.044-0.517-4.614c-0.291-12.402-11.27-18.591-22.836-18.647c-9.039,0.042-17.728,3.834-21.224,11.418 c3.294,12.203,5.058,25.03,5.058,38.273c0,1.086-0.019,2.167-0.042,3.247h-0.006V259.247z"/>
    <path fill="dimgray"
          d="M402.966,209.058c-1.211-0.143-4.721,0.817-6.813,3.862c1.833,5.977,3.294,12.115,4.361,18.388 c5.192-3.362-0.06-8.328,5.178-9.492c14.17,10.333,26.674,8.563,32.314,3.705c0,0-1.316,5.085-0.3,6.896 c1.012,1.815,0.406,4.67,0.406,4.67l1.316-0.065c0,0-0.241-7.487,2.688-7.455c11.117-18.781-24.078-42.111-39.146-20.513 L402.966,209.058z"/>
    <g>
      <path fill="white"
            d="M407.229,273.839c0.411,0.032-4.799,6.041-4.799,6.041l4.434,15.538l11.889-9.08 c-6.54-3.284-10.444-7.538-11.529-12.504L407.229,273.839z"/>
      <path fill="white"
            d="M430.287,273.839c-0.411,0.032,4.799,6.041,4.799,6.041l-4.434,15.538l-11.894-9.08 c6.54-3.284,10.444-7.538,11.529-12.504L430.287,273.839L430.287,273.839z"/>
    </g>
    <path fill="darkgray"
          d="M266.901,409.898v28.471h-21.798v-28.471c3.603,0.258,7.233,0.397,10.901,0.397 C259.667,410.296,263.302,410.157,266.901,409.898z"/>
    <path fill="darkgray"
          d="M256,100.573c42.92,0,81.778,17.399,109.907,45.525c28.124,28.129,45.525,66.989,45.525,109.907 s-17.399,81.778-45.525,109.907c-28.129,28.124-66.989,45.525-109.907,45.525s-81.778-17.399-109.907-45.525 c-28.124-28.129-45.525-66.984-45.525-109.907c0-42.92,17.399-81.778,45.525-109.907C174.221,117.973,213.076,100.573,256,100.573z M353.404,158.601c-24.929-24.924-59.368-40.347-97.405-40.347s-72.476,15.418-97.405,40.347 c-24.924,24.929-40.347,59.368-40.347,97.405c0,38.037,15.418,72.476,40.347,97.405c24.929,24.924,59.363,40.347,97.405,40.347 c38.037,0,72.476-15.418,97.405-40.347c24.924-24.929,40.347-59.363,40.347-97.405C393.751,217.967,378.333,183.529,353.404,158.601 z"/>
    <path fill="#f49530"
          d="M235.728,438.365h40.549c4.457,0,8.106,3.649,8.106,8.106v63.954 C275.062,511.455,265.598,512,256,512c-9.593,0-19.062-0.545-28.384-1.575v-63.954c0-4.457,3.649-8.106,8.106-8.106L235.728,438.365 L235.728,438.365z"/>
    <path fill="#f49530"
          d="M227.622,448.347h56.762v4.415h-56.762V448.347z M227.622,456.924h56.762v4.415h-56.762V456.924z"/>
    <g>
      <path fill="white"
            d="M213.663,387.478c-55.058-18.328-94.758-70.263-94.758-131.473s39.7-113.145,94.753-131.474 c-47.529,24.619-80.014,74.25-80.014,131.474S166.129,362.86,213.663,387.478z"/>
      <path fill="white"
            d="M312.827,374.629c44.203-16.536,76.074-63.4,76.074-118.628s-31.871-102.093-76.074-118.628 c5.053,2.942,9.894,6.282,14.49,9.982c33.561,21.519,56.19,62.111,56.19,108.647c0,46.541-22.633,87.137-56.199,108.656 c-4.596,3.695-9.432,7.034-14.485,9.977L312.827,374.629z"/>
    </g>
  </symbol>

  <symbol id="users-check" viewBox="0 0 512 512">
    <g fill="none" fill-rule="evenodd">
      <circle fill="#B9DBF0" fill-rule="nonzero" cx="256" cy="256" r="256"/>
      <g fill-rule="nonzero">
        <path fill="#F0BA7D" d="M119.082 210.306h20.445l1.654 17.236 2.944 2.363 6.201 3.946-21.017 49.682-21.02-49.683 6.201-3.947 2.945-2.362 1.654-17.236h-.007z"/>
        <path fill="#ECF0F1" d="M112.335 231.176l-16.94 5.416 33.91 46.947 28.85-48.515-11.97-3.796-10.547 7.44h-12.641l-10.664-7.487z"/>
        <path fill="#F49530" d="M125.519 237.983l1.449 3.568-3.223 40.743 5.556 4.256 5.556-4.256-3.223-40.743 1.445-3.568-3.782-.154-3.783.154z"/>
        <path d="M112.626 231.087l-29.967 9.574s-3.88 2.01-5.049 8.152c-1.02 5.335-1.588 10.766-2.35 17.78 13.724 14.036 32.869 22.75 54.044 22.75 21.18 0 40.32-8.716 54.043-22.75-.761-7.016-1.328-12.45-2.349-17.78-1.17-6.142-5.054-8.152-5.054-8.152l-29.761-9.443-16.88 49.527-16.676-49.66h-.001v.002z" fill="#359B1D"/>
        <path d="M105.493 175.25c0 1.605-.583 3.174-.54 4.709-5.475-1.022-2.836 15.261.267 17.5.251.182.854-.217 1.363-.546 1.076 5.992 10.25 21.988 16.085 28.725 1.624 1.867 11.534 1.837 13.133.067 5.978-6.579 15.143-22.772 16.224-28.79.514.325 1.118.722 1.364.545 3.102-2.239 5.744-18.518.266-17.5.047-1.534-.54-3.104-.54-4.708-.307-12.636-11.749-18.95-23.808-19.004-12.058.055-23.503 6.368-23.808 19.004l-.006-.002z" fill="#FED298"/>
        <path d="M112.835 159.045c-1.724-.197-7.966 1.717-8.711 8.322-.753 6.605-.394 12.69-.394 12.69s3.655.929 4.12 4.673c.46 3.75.128 3.75.128 3.75l1.329-.298.943-6.429c5.47-3.427-.05-8.512 5.425-9.698 14.778 10.537 27.81 8.732 33.69 3.78 0 0-1.376 5.183-.314 7.028 1.054 1.853.424 4.759.424 4.759l1.376-.062s-.252-7.638 2.8-7.604c11.59-19.147-25.107-42.93-40.816-20.916v.005z" fill="dimgray"/>
        <g fill="white">
          <path d="M117.286 225.087c.429.024-5.002 6.154-5.002 6.154l4.625 15.845 12.395-9.254c-6.815-3.349-10.888-7.689-12.02-12.745h.002z"/>
          <path d="M141.32 225.087c-.424.024 5.003 6.154 5.003 6.154l-4.62 15.845-12.4-9.254c6.82-3.349 10.888-7.689 12.02-12.745h-.002z"/>
        </g>
      </g>
      <g fill-rule="nonzero">
        <path d="M348.938 235.852c5.1-8.547 13.14-18.454 4.976-33.515-12.013-52.323 43.356-62.926 51.718-41.329 13.626 5.106 13.262 33.281 6.264 48.012-.32 6.066-6.643 11.355 4.789 27l.824-.18c-14.84 4.284-52.884 2.316-68.575.016l.004-.004z" fill="dimgray"/>
        <path d="M363.495 208.758c4.168 8.733 5.71 12.138 10.895 16.067-.82 15.055-8.94 15.055-17.997 19.742l57.646 1.267c-9.704-5.51-18.8-4.754-19.673-21.009 5.185-3.927 6.729-7.332 10.905-16.067 1.023.53 2.096 1.25 2.932.32.824-.929 4.779-13.015 4.066-14.643-1.282-2.947-3.177 2.56-3.593.751-.958-4.77-3.929-10.374-4.982-22.785-11.91 21.937-46.203 12.919-44.736 22.177-6.686-4.654 1.439 14.307 1.595 14.5.842.933 1.915.21 2.942-.32z" fill="#FED298"/>
        <path d="M374.39 224.819c-.224 4.141-1 7.146-2.198 9.416l12.997 7.73 11.7-6.96c-1.374-2.397-2.263-5.624-2.513-10.188-2.767 2.051-4.827 4.246-9.106 4.256-4.472.01-6.844-2.132-10.874-4.256l-.006.002z" fill="#F0BA7D"/>
        <path d="M371.622 235.215c-1.47 2.296-3.433 3.764-5.716 4.978l.006.006 19.13 36.118 17.755-36.144c-2.55-1.362-4.687-3.054-6.19-5.847v-.006l-12.14 6.007-.374.026-10.773-5.746-1.702.608h.004z" fill="#ECF0F1"/>
        <path d="M381.394 240.468l1.138 3.361-2.518 38.313 4.339 3.998 4.348-3.998-2.518-38.313 1.134-3.361-2.958-.15-2.959.15h-.006z" fill="#F49530"/>
        <path d="M365.912 240.193c-6.361 3.377-18.007-.705-25.257 10.968-.909 1.454-1.442 14.404-3.331 23.574 13.294 9.362 29.523 14.865 47.05 14.865 17.549 0 33.808-5.526 47.12-14.903-1.68-9.166-1.67-22.086-2.568-23.538-7.276-11.7-19.757-7.587-26.123-10.988l-17.754 36.144-19.131-36.118-.006-.006v.002z" fill="#359B1D"/>
        <path d="M373.002 230.93l-2.884 5.981 8.575 14.35 5.6-10.94L373 230.933l.002-.002zm22.762 0l2.939 5.842-8.628 14.488-5.6-10.94 11.29-9.39z" fill="white"/>
        <path d="M367.369 239.34l17.148 33.27 16.888-33.254a26.554 26.554 0 0 0 2.71 1.476l-19.598 38.137-19.778-38.18a26.07 26.07 0 0 0 2.628-1.443v-.006h.002z" fill="#4EA31E"/>
      </g>
      <g fill-rule="nonzero">
        <path d="M207.46 244.343l-46.994 11.128s-5.732-4.005-9.23 6.714c-1.578 4.833-6.03 29.862-10.441 55.893 30.622 27.223 70.972 43.773 115.198 43.773 44.227 0 84.578-16.55 115.199-43.773-4.41-26.025-8.861-51.06-10.44-55.893-3.494-10.719-9.232-6.714-9.232-6.714l-46.994-11.128-22.805-6.591-25.735 1.146-25.736-1.146-22.79 6.591z" fill="#4EA31E"/>
        <path fill="#F0BA7D" d="M234.578 195.457H277.424l3.473 36.888 6.162 5.053 13 8.453-44.052 106.315-44.054-106.315 13.001-8.453 6.168-5.048 3.467-36.889z"/>
        <path fill="#F2F2F2" d="M220.445 240.125L212 242.88 256 352.16l44.392-109.041-9.016-2.921-22.092 15.936h-26.483z"/>
        <path fill="#F49530" d="M248.075 254.68l3.038 7.651-6.747 87.183 11.64 9.104 11.639-9.104-6.746-87.183 3.037-7.65-7.93-.323z"/>
        <path d="M221.055 239.925l-13.549 4.42-2.601 35.119s.717 2.884 2.869 2.623l12.228 4.694s.8.819.087 1.852l-10.466 7.323 29.828 65.104c5.338.506 10.742.773 16.213.789l-34.602-121.925h-.005v.001h-.002zm51.506 121.136l29.823-65.1-10.465-7.323c-.718-1.033.087-1.851.087-1.851l12.228-4.695c2.152.261 2.87-2.623 2.87-2.623l-2.593-35.002-13.128-4.255-35.028 121.644c5.465-.01 10.87-.282 16.208-.788v-.007h-.002z" fill="#359B1D"/>
        <path d="M305.898 130.041c0 3.196 1.224 6.331 1.132 9.4 11.48-2.029 5.938 30.477-.558 34.952-.517.352-1.788-.435-2.858-1.09-2.253 11.957-21.482 43.906-33.706 57.356-3.396 3.732-24.163 3.673-27.523.144-12.52-13.139-31.728-45.471-33.993-57.494-1.07.654-2.34 1.441-2.858 1.09-6.495-4.47-12.038-36.981-.557-34.952-.092-3.07 1.136-6.198 1.136-9.4.636-25.244 24.63-37.847 49.894-37.953 25.264.107 49.257 12.709 49.893 37.953v-.006h-.002z" fill="#FED298"/>
        <path d="M290.516 97.677c3.622-.404 16.7 3.415 18.266 16.61 1.573 13.19.82 25.347.82 25.347s-7.663 1.847-8.626 9.334c-.963 7.487-.277 7.487-.277 7.487l-2.776-.593-1.978-12.836c-11.463-6.849.088-16.99-11.377-19.363-30.96 21.036-58.283 17.435-70.603 7.54 0 0 2.874 10.351.661 14.043-2.218 3.692-.896 9.506-.896 9.506l-2.879-.132s.522-15.246-5.871-15.18c-24.29-38.233 52.608-85.73 85.535-41.758v-.005z" fill="dimgray"/>
        <g fill="white">
          <path d="M230.813 227.078c.902.067-10.485 13.185-10.485 13.185l9.691 33.902L256 254.358c-14.29-7.166-22.82-16.443-25.187-27.28zM281.192 227.078c-.901.067 10.482 13.185 10.482 13.185l-9.692 33.902L256 254.357c14.292-7.165 22.821-16.442 25.192-27.279z"/>
        </g>
      </g>
      <g transform="rotate(-30 696.844 -200.038)">
        <ellipse fill="#ECF0F1" fill-rule="nonzero" cx="89.594" cy="88.748" rx="84.107" ry="83.947"/>
        <path d="M95.757 177.462v16.304H83.251v-16.304a87.65 87.65 0 0 0 6.254.228 86.93 86.93 0 0 0 6.252-.228z" fill="darkgray" fill-rule="nonzero"/>
        <path d="M89.503.328c24.625 0 46.919 9.964 63.057 26.07 16.136 16.108 26.12 38.361 26.12 62.938 0 24.577-9.983 46.83-26.12 62.938-16.138 16.105-38.434 26.07-63.057 26.07-24.624 0-46.92-9.964-63.058-26.07C10.31 136.166.325 113.916.325 89.336c0-24.578 9.983-46.83 26.12-62.938C42.583 10.292 64.875.328 89.503.328zm55.884 33.23c-14.303-14.273-34.062-23.105-55.885-23.105s-41.582 8.83-55.885 23.105C19.317 47.833 10.47 67.555 10.47 89.336c0 21.782 8.846 41.504 23.148 55.78 14.303 14.272 34.06 23.104 55.885 23.104 21.823 0 41.582-8.83 55.885-23.105 14.3-14.275 23.148-33.994 23.148-55.779 0-21.783-8.845-41.503-23.148-55.778z" fill="darkgray" fill-rule="nonzero"/>
        <path d="M101.136 193.764c2.558 0 4.651 2.09 4.651 4.642l.182 31.031c-5.348.59-11.31 1.02-16.817 1.02-5.503 0-10.51.033-15.859-.557l-.075-31.494c0-2.553 2.093-4.642 4.65-4.642h23.268z" fill="#F49530" fill-rule="nonzero"/>
        <path d="M73.221 199.48h32.567v2.528H73.22v-2.528zm0 4.912h32.567v2.528H73.22v-2.528z" fill="#f49530" fill-rule="nonzero"/>
        <g fill-rule="nonzero" fill="white">
          <path d="M65.233 164.196C33.644 153.7 10.867 123.96 10.867 88.908S33.644 24.116 65.23 13.62C37.96 27.718 19.323 56.139 19.323 88.908c0 32.77 18.638 61.19 45.91 75.288zM122.127 156.838c25.36-9.47 43.646-36.306 43.646-67.932 0-31.626-18.285-58.463-43.646-67.932a67.118 67.118 0 0 1 8.313 5.716c19.255 12.323 32.238 35.568 32.238 62.216 0 26.652-12.985 49.9-32.243 62.222a67.441 67.441 0 0 1-8.31 5.713l.002-.003z"/>
        </g>
        <path fill="#4EA31E" d="M52.308 118.038L35.093 61.733l19.122-4.414 11.477 37.537 86.05-19.868 5.737 18.767z"/>
      </g>
    </g>
  </symbol>

  <symbol id="users-group" viewBox="0 0 512 512">
    <circle fill="#B9DBF0" cx="256" cy="256" r="256"/>
    <g>
      <path fill="white"
            d="M196.337,231.508H379.99L263.449,123.226c2.339-2.096,4.485-4.401,6.41-6.888l125.32,116.443 l3.517,3.266l-3.352,3.457L284.215,354.076c-2.109-2.318-4.367-4.506-6.752-6.544l103.388-106.591H196.337 c0.116-1.558,0.176-3.129,0.176-4.716C196.513,234.638,196.452,233.066,196.337,231.508z"/>
      <circle fill="white" cx="391.972" cy="236.227" r="48.806"/>
      <path fill="white"
            d="M228.807,329.564c41.362,0,74.889,33.527,74.889,74.889s-33.527,74.889-74.889,74.889 s-74.889-33.527-74.889-74.889S187.445,329.564,228.807,329.564z"/>
      <path fill="white"
            d="M133.865,173.577c34.6,0,62.645,28.048,62.645,62.645c0,34.6-28.045,62.645-62.645,62.645 s-62.645-28.045-62.645-62.645S99.268,173.577,133.865,173.577z"/>
      <path fill="white"
            d="M228.805,32.654c28.672,0,51.912,23.242,51.912,51.914s-23.242,51.912-51.912,51.912 c-28.672,0-51.914-23.242-51.914-51.912C176.89,55.896,200.133,32.654,228.805,32.654z"/>
    </g>
    <g>
      <circle fill="#f5f5f5" cx="228.802" cy="84.574" r="40.231"/>
      <circle fill="#f5f5f5" cx="133.868" cy="236.227" r="51.339"/>
    </g>
    <path fill="#f0ba7d"
          d="M126.927,233.922h2.757h8.363h2.76l1.123,11.696l1.999,1.603l4.21,2.678l-14.269,33.713 L119.6,249.898l4.21-2.678l1.999-1.603l1.123-11.696H126.927z"/>
    <path fill="#ecf0f1"
          d="M122.347,248.084l-11.501,3.675l23.022,31.857l19.586-32.921l-8.126-2.576l-7.161,5.049h-8.582 l-7.24-5.081L122.347,248.084z"/>
    <path fill="#f49530"
          d="M131.297,252.703l0.984,2.421l-2.188,27.647l3.772,2.888l3.772-2.888l-2.188-27.647l0.981-2.421 l-2.568-0.105l-2.568,0.105L131.297,252.703L131.297,252.703z"/>
    <path fill="#359b1d"
          d="M122.544,248.023L102.2,254.52c0,0-2.634,1.364-3.428,5.532c-0.693,3.62-1.078,7.305-1.595,12.065 c9.317,9.524,22.314,15.437,36.69,15.437c14.379,0,27.373-5.914,36.69-15.437c-0.517-4.761-0.902-8.448-1.595-12.065 c-0.794-4.168-3.431-5.532-3.431-5.532l-20.205-6.408l-11.46,33.608l-11.321-33.698h-0.001V248.023z"/>
    <path fill="#4ea31e"
          d="M122.547,248.023l-4.391,1.403l-0.842,11.132c0,0,0.231,0.918,0.928,0.836l3.96,1.487 c0,0,0.257,0.259,0.029,0.588l-3.391,2.324l11.484,21.64c1.173,0.079,2.35,0.126,3.544,0.126c1.191,0,2.371-0.047,3.544-0.126 l11.483-21.64l-3.389-2.324c-0.231-0.328,0.029-0.588,0.029-0.588l3.96-1.487c0.698,0.081,0.928-0.836,0.928-0.836l-0.839-11.098 l-4.252-1.345l-11.46,33.606l-11.318-33.698H122.547z"/>
    <path fill="#fed298"
          d="M117.702,210.134c0,1.089-0.396,2.154-0.367,3.195c-3.717-0.693-1.925,10.356,0.181,11.875 c0.171,0.124,0.58-0.147,0.926-0.37c0.73,4.066,6.958,14.92,10.92,19.492c1.102,1.267,7.83,1.246,8.916,0.045 c4.058-4.464,10.28-15.452,11.014-19.536c0.349,0.221,0.759,0.49,0.926,0.37c2.106-1.519,3.9-12.566,0.181-11.875 c0.032-1.041-0.367-2.106-0.367-3.195c-0.208-8.574-7.976-12.858-16.163-12.895c-8.186,0.037-15.956,4.321-16.163,12.895 L117.702,210.134L117.702,210.134z"/>
    <path fill="dimgray"
          d="M122.686,199.138c-1.17-0.134-5.408,1.165-5.914,5.647c-0.511,4.482-0.267,8.611-0.267,8.611 s2.481,0.63,2.797,3.171c0.312,2.544,0.087,2.544,0.087,2.544l0.902-0.202l0.64-4.362c3.714-2.326-0.034-5.776,3.683-6.581 c10.033,7.15,18.88,5.925,22.872,2.565c0,0-0.934,3.517-0.213,4.769c0.716,1.257,0.288,3.229,0.288,3.229l0.934-0.042 c0,0-0.171-5.183,1.901-5.16c7.869-12.992-17.045-29.131-27.71-14.193L122.686,199.138L122.686,199.138z"/>
    <g>
      <path fill="white"
            d="M125.708,243.952c0.291,0.016-3.396,4.176-3.396,4.176l3.14,10.752l8.415-6.28 c-4.627-2.272-7.392-5.217-8.16-8.648L125.708,243.952L125.708,243.952z"/>
      <path fill="white"
            d="M142.025,243.952c-0.288,0.016,3.396,4.176,3.396,4.176l-3.137,10.752l-8.418-6.28 c4.63-2.272,7.392-5.217,8.16-8.648L142.025,243.952L142.025,243.952z"/>
    </g>
    <path fill="dimgray"
          d="M211.338,98.208c2.513-4.229,6.476-9.131,2.452-16.583c-5.92-25.889,21.367-31.135,25.488-20.449 c6.715,2.526,6.536,16.467,3.087,23.756c-0.158,3.001-3.274,5.618,2.36,13.359l0.406-0.089l0,0 c-7.313,2.12-26.062,1.146-33.795,0.008L211.338,98.208L211.338,98.208z"/>
    <path fill="#fed298"
          d="M218.512,84.802c2.054,4.321,2.814,6.006,5.369,7.95c-0.404,7.449-4.406,7.449-8.869,9.768 l28.409,0.627c-4.782-2.726-9.265-2.352-9.695-10.395c2.555-1.943,3.316-3.628,5.374-7.95c0.504,0.262,1.033,0.619,1.445,0.158 c0.406-0.459,2.355-6.439,2.004-7.245c-0.632-1.458-1.566,1.267-1.771,0.372c-0.472-2.36-1.936-5.133-2.455-11.274 c-5.87,10.854-22.77,6.392-22.047,10.973c-3.295-2.303,0.709,7.079,0.786,7.174C217.477,85.422,218.006,85.064,218.512,84.802 C218.513,84.802,218.512,84.802,218.512,84.802z"/>
    <path fill="#f0ba7d"
          d="M223.881,92.749c-0.11,2.049-0.493,3.536-1.083,4.659l6.405,3.825l5.766-3.444 c-0.677-1.186-1.115-2.783-1.238-5.041c-1.364,1.015-2.379,2.101-4.488,2.106c-2.204,0.005-3.373-1.055-5.359-2.106L223.881,92.749z "/>
    <path fill="#ecf0f1"
          d="M222.517,97.893c-0.724,1.136-1.692,1.862-2.817,2.463l0.003,0.003l9.428,17.871l8.75-17.884 c-1.257-0.674-2.31-1.511-3.051-2.893V97.45l-5.983,2.972l-0.184,0.013l-5.309-2.843l-0.839,0.301H222.517z"/>
    <path fill="#f49530"
          d="M227.333,100.492l0.561,1.663l-1.241,18.957l2.138,1.978l2.143-1.978l-1.241-18.957l0.559-1.663 l-1.458-0.074l-1.458,0.074C227.336,100.492,227.333,100.492,227.333,100.492z"/>
    <path fill="#359b1d"
          d="M219.703,100.356c-3.135,1.671-8.874-0.349-12.447,5.427c-0.448,0.719-0.711,7.127-1.642,11.664 c6.552,4.632,14.55,7.355,23.188,7.355c8.648,0,16.661-2.734,23.221-7.374c-0.828-4.535-0.823-10.928-1.265-11.646 c-3.586-5.789-9.737-3.754-12.874-5.437l-8.75,17.884l-9.428-17.871l-0.003-0.003L219.703,100.356L219.703,100.356z"/>
    <path fill="white"
          d="M223.197,95.773l-1.421,2.959l4.226,7.1l2.76-5.413l-5.566-4.645L223.197,95.773L223.197,95.773z M234.415,95.773l1.448,2.89l-4.252,7.169l-2.76-5.413L234.415,95.773z"/>
    <path fill="#4ea31e"
          d="M220.421,99.934l8.451,16.462l8.323-16.454c0.42,0.264,0.865,0.506,1.335,0.73l-9.658,18.87 l-9.747-18.891c0.456-0.221,0.886-0.454,1.295-0.714V99.934z"/>
    <circle fill="#f5f5f5" cx="228.802" cy="404.448" r="64.903"/>
    <path fill="#f0ba7d"
          d="M220.031,401.542h3.486h10.573h3.488l1.419,14.788l2.526,2.028l5.323,3.389l-18.041,42.624 l-18.044-42.624l5.322-3.389l2.526-2.028l1.419-14.788H220.031z"/>
    <path fill="#ecf0f1"
          d="M214.241,419.447l-14.545,4.645l29.107,40.276l24.763-41.627l-10.274-3.258l-9.052,6.384h-10.852 l-9.154-6.423L214.241,419.447z"/>
    <path fill="#f49530"
          d="M225.56,425.286l1.246,3.064l-2.765,34.955l4.769,3.651l4.772-3.651l-2.765-34.955l1.241-3.064 l-3.248-0.129l-3.248,0.129H225.56z"/>
    <path fill="#359b1d"
          d="M214.491,419.37l-25.724,8.215c0,0-3.331,1.724-4.335,6.995c-0.876,4.574-1.364,9.236-2.017,15.255 c11.783,12.042,28.213,19.518,46.393,19.518s34.61-7.475,46.39-19.518c-0.653-6.02-1.141-10.681-2.017-15.255 c-1.005-5.273-4.336-6.995-4.336-6.995l-25.548-8.102l-14.49,42.496l-14.314-42.606L214.491,419.37z"/>
    <path fill="#4ea31e"
          d="M214.496,419.37l-5.553,1.774l-1.065,14.075c0,0,0.291,1.16,1.173,1.057l5.007,1.88 c0,0,0.325,0.325,0.034,0.743l-4.286,2.938l14.519,27.36c1.482,0.1,2.972,0.158,4.48,0.158c1.506,0,2.995-0.058,4.48-0.158 l14.519-27.36l-4.286-2.938c-0.291-0.414,0.034-0.743,0.034-0.743l5.007-1.88c0.881,0.102,1.175-1.057,1.175-1.057l-1.062-14.034 l-5.374-1.7l-14.49,42.49L214.496,419.37z"/>
    <path fill="#fed298"
          d="M208.372,371.464c0,1.377-0.501,2.723-0.464,4.042c-4.703-0.873-2.434,13.091,0.229,15.014 c0.215,0.155,0.732-0.187,1.17-0.467c0.92,5.141,8.798,18.865,13.805,24.646c1.39,1.603,9.9,1.579,11.271,0.058 c5.131-5.642,12.997-19.536,13.926-24.701c0.441,0.28,0.955,0.622,1.17,0.467c2.663-1.922,4.934-15.888,0.229-15.014 c0.037-1.316-0.464-2.665-0.464-4.042c-0.259-10.844-10.085-16.257-20.436-16.305c-10.353,0.045-20.176,5.461-20.436,16.305 L208.372,371.464z"/>
    <path fill="dimgray"
          d="M214.671,357.563c-1.479-0.168-6.839,1.471-7.48,7.14c-0.646,5.668-0.338,10.888-0.338,10.888 s3.137,0.794,3.536,4.008c0.393,3.219,0.108,3.219,0.108,3.219l1.141-0.257l0.813-5.516c4.693-2.94-0.042-7.303,4.656-8.32 c12.685,9.039,23.872,7.491,28.921,3.242c0,0-1.181,4.446-0.27,6.03c0.907,1.59,0.364,4.084,0.364,4.084l1.181-0.053 c0,0-0.215-6.552,2.402-6.521c9.949-16.428-21.551-36.835-35.035-17.944h0.002V357.563z"/>
    <g>
      <path fill="white"
            d="M218.491,414.222c0.37,0.021-4.294,5.28-4.294,5.28l3.971,13.595l10.639-7.942 c-5.852-2.874-9.346-6.594-10.316-10.936v0.003H218.491z"/>
      <path fill="white"
            d="M239.121,414.222c-0.364,0.021,4.294,5.28,4.294,5.28l-3.966,13.595l-10.644-7.942 c5.855-2.874,9.346-6.594,10.316-10.936L239.121,414.222L239.121,414.222z"/>
    </g>
    <circle fill="#f49530" cx="391.972" cy="236.227" r="39.133"/>
    <path fill="white"
          d="M385.253,209.909h13.441v19.594h19.597v13.443h-19.597v19.594h-13.441v-19.594h-19.597v-13.443 h19.597V209.909z"/>
  </symbol>

  <symbol id="deal" viewBox="0 0 512 512">
    <circle fill="#B9DBF0" cx="256" cy="256" r="256"/>
    <path fill="#fed298"
          d="M85.421,166.503l85.319,42.406c0,0,62.95-20.373,72.748-17.188c0.952,0.309,2.56,0.947,4.669,1.833 l0.008,0.005c19.555,8.236,82.871,38.477,82.871,38.477l-18.047-1.152c7.342,9.43,17.567,21.773,23.376,25.372 c9.781,6.056-13.512,23.292-33.071,10.712c-19.563-12.577-24.688-27.948-24.688-27.948l-9.674,0.999l67.847,62.304l10.778,12.919 c9.325,11.177-2.254,27.321-17.483,22.4c0.243,0.184-0.619-0.068-0.391,0.551c0.871,2.345,2.631,7.976,1.044,10.723 c-5.576,9.666-13.973,17.104-31.76,3.557c4.31,3.282,6.951,11.006,3.961,15.497c-4.068,6.112-8.553,8.869-13.459,10.364 c-5.17,1.576-12.966-3.365-17.27-6.644c4.307,3.279,6.359,11.058,3.488,15.638c-3.533,5.637-14.757,13.921-21.873,8.498 l-22.358-17.028c0,0-54.424-52.699-71.24-66.724c-16.821-14.031-39.681-42.577-39.681-42.577l-100.524-55.78l65.415-47.217 L85.421,166.503z"/>
    <path fill="#f49530"
          d="M0.936,234.181l73.591,49.184l77.778-102.116L58.69,92.886 C26.384,131.93,5.445,180.714,0.934,234.181H0.936z"/>
    <path fill="white" d="M150.235,183.965l-65.552,86.06l12.566,9.574l65.552-86.063L150.235,183.965z"/>
    <path fill="#f0ba7d"
          d="M426.579,166.503l-85.319,42.406c-6.82,3.389-31.324-12.666-51.484-15.113 c-14.597-1.771-32.232,3.89-31.182,4.435l45.703,21.126c0,0,22.279,30.847,32.061,36.898c9.781,6.054-13.512,23.292-33.071,10.712 c-19.563-12.577-24.688-27.948-24.688-27.948l-40.436,4.168l-77.958,68.891c-10.791,9.537-7.491,14.514-0.234,23.816 c3.318,4.26,15.513,2.825,20.625,0.871c-11.806,8.981,5.217,32.111,21.907,19.389c-10.093,7.691,4.383,34.807,24.596,19.405 c-10.083,13.592,10.468,23.478,19.109,21.021l6.259-1.779l-1.598-1.217c-0.517,0-16.887-16.787-17.878-18.823 c-5.6-11.494,9.157-27.059,22.387-15.93l11.387,8.743l-6.597-8.365c-8.415-11.027-1.938-22.413,6.122-25.865 c5.907-2.526,12.021,0.28,17.005,5.196l12.577,10.077l-10.715-12.52c0,0-10.277-11.609-0.844-21.976 c9.433-10.364,22.216,2.062,22.216,2.062l15.046,12.439l-12.95-14.999c0,0-11.216-11.791-3.667-19.68 c10.486-10.959,23.46-0.166,33.703,10.628c2.943,3.103,5.975,7.869,8.276,10.069c11.305-12.724,18.912-26.516,18.912-26.516 l126.146-74.412l-65.413-47.217L426.579,166.503z"/>
    <path fill="#4ea31e"
          d="M511.063,234.179l-73.594,49.187L359.695,181.25l93.615-88.364 c32.308,39.041,53.242,87.826,57.756,141.293H511.063z"/>
    <path fill="white" d="M361.759,183.965l65.557,86.06l-12.569,9.574l-65.549-86.063L361.759,183.965z"/>
    <path fill="#ecf0f1"
          d="M67.369,256.189c2.573,0,4.661,2.088,4.661,4.661c0,2.573-2.085,4.661-4.661,4.661 c-2.573,0-4.661-2.085-4.661-4.661C62.708,258.277,64.793,256.189,67.369,256.189z M53.504,247.501c2.573,0,4.661,2.085,4.661,4.661 c0,2.573-2.088,4.661-4.661,4.661c-2.573,0-4.661-2.088-4.661-4.661C48.843,249.589,50.928,247.501,53.504,247.501z"/>
    <path fill="white"
          d="M447.447,258.717c-2.573,0-4.661,2.088-4.661,4.661s2.085,4.661,4.661,4.661 c2.573,0,4.661-2.085,4.661-4.661C452.108,260.805,450.023,258.717,447.447,258.717z M461.312,250.03 c-2.573,0-4.661,2.085-4.661,4.661c0,2.573,2.088,4.661,4.661,4.661c2.573,0,4.661-2.088,4.661-4.661S463.888,250.03,461.312,250.03 z"/>
  </symbol>
  <symbol id="network" viewBox="0 0 512.001 512.001">
    <title>network</title>
    <circle fill="#B9DBF0" cx="256" cy="256" r="256"/>
    <g>
      <path fill="white"
            d="M263.079,253.67c27.66,0,50.083,22.423,50.083,50.083c0,27.66-22.423,50.083-50.083,50.083 s-50.083-22.423-50.083-50.083C212.996,276.093,235.42,253.67,263.079,253.67z"/>
      <path fill="white"
            d="M119.824,232.135H60.141v-6.125h59.683v-50.645h6.127v104.353h94.656v6.125h-97.719h-3.063v-3.063 v-50.643L119.824,232.135z M402.591,232.135h59.683v-6.125h-59.683v-50.645h-6.125v104.353h-89.61v6.125h92.674h3.063v-3.063 v-50.643L402.591,232.135z"/>
    </g>
    <path fill="#4ea31e"
          d="M263.082,261.435c5.724,0,11.189,1.142,16.179,3.208c5.186,2.148,9.845,5.29,13.743,9.188 c3.898,3.896,7.04,8.557,9.188,13.743c2.066,4.989,3.208,10.456,3.208,16.181c0,5.724-1.142,11.189-3.208,16.179 c-2.148,5.186-5.29,9.845-9.188,13.743c-3.898,3.898-8.557,7.042-13.743,9.188c-4.989,2.066-10.458,3.208-16.179,3.208 c-5.726,0-11.192-1.142-16.181-3.208c-5.186-2.148-9.845-5.29-13.743-9.188c-3.896-3.898-7.04-8.557-9.188-13.743 c-2.066-4.989-3.208-10.456-3.208-16.179c0-5.726,1.142-11.192,3.208-16.181c2.148-5.186,5.292-9.847,9.188-13.743 c3.898-3.898,8.557-7.042,13.743-9.188C251.89,262.577,257.356,261.435,263.082,261.435z M228.697,319.963h12.246 c-0.84-2.21-1.501-4.453-1.982-6.712c-0.514-2.423-0.824-4.874-0.928-7.336h-12.894c0.133,2.399,0.494,4.745,1.056,7.016 c0.607,2.449,1.451,4.805,2.502,7.033L228.697,319.963L228.697,319.963z M245.584,319.963h15.337v-14.048h-18.583 c0.11,2.319,0.423,4.635,0.941,6.932C243.819,315.242,244.589,317.621,245.584,319.963z M265.242,319.963h15.337 c0.994-2.341,1.762-4.721,2.301-7.115c0.518-2.297,0.831-4.615,0.944-6.932h-18.583V319.963z M285.22,319.963h12.246 c1.052-2.227,1.896-4.584,2.502-7.033c0.562-2.269,0.921-4.617,1.054-7.016h-12.894c-0.104,2.46-0.414,4.912-0.928,7.336 c-0.481,2.258-1.14,4.502-1.98,6.712L285.22,319.963L285.22,319.963z M295.067,324.282h-11.739c-0.56,1.127-1.173,2.243-1.832,3.349 c-0.757,1.266-1.585,2.524-2.48,3.764c-1.546,2.146-3.29,4.227-5.223,6.227c-1.147,1.187-2.363,2.348-3.654,3.481 c3.222-0.604,6.304-1.619,9.185-2.983c3.964-1.876,7.556-4.423,10.625-7.496h0.004c1.162-1.16,2.252-2.399,3.255-3.702 c0.655-0.849,1.276-1.731,1.861-2.639L295.067,324.282L295.067,324.282z M278.458,324.282h-13.218v15.31 c1.786-1.44,3.444-2.928,4.965-4.462c1.995-2.013,3.768-4.101,5.318-6.251c0.686-0.95,1.342-1.938,1.969-2.956 c0.335-0.549,0.657-1.096,0.963-1.643L278.458,324.282z M260.919,324.282h-13.218c0.306,0.547,0.629,1.094,0.963,1.643 c0.626,1.019,1.283,2.006,1.969,2.956c1.552,2.15,3.324,4.238,5.318,6.251c1.524,1.535,3.177,3.023,4.965,4.462v-15.31 L260.919,324.282z M242.83,324.282h-11.736c0.582,0.908,1.204,1.79,1.858,2.639c1.003,1.303,2.092,2.542,3.255,3.702h0.004 c3.069,3.071,6.661,5.62,10.625,7.496c2.884,1.364,5.966,2.379,9.188,2.983c-1.289-1.133-2.509-2.294-3.654-3.481 c-1.936-2-3.678-4.081-5.224-6.227c-0.897-1.24-1.725-2.496-2.48-3.764c-0.662-1.107-1.272-2.223-1.834-3.349L242.83,324.282 L242.83,324.282z M231.093,283.226h11.944c0.52-1.036,1.089-2.073,1.7-3.104c0.708-1.195,1.473-2.374,2.287-3.534 c1.563-2.223,3.333-4.385,5.307-6.471c1.206-1.276,2.491-2.524,3.849-3.74c-3.266,0.598-6.387,1.616-9.307,2.994 c-3.98,1.878-7.585,4.431-10.665,7.514C234.286,278.807,232.566,280.934,231.093,283.226z M247.921,283.226h12.998V267.98 c-1.792,1.479-3.459,3.023-4.998,4.615c-2.006,2.073-3.799,4.24-5.368,6.473c-0.64,0.908-1.24,1.827-1.801,2.748 c-0.284,0.467-0.56,0.937-0.826,1.411L247.921,283.226L247.921,283.226z M265.239,283.226h12.996 c-0.266-0.474-0.542-0.943-0.826-1.411c-0.56-0.921-1.162-1.838-1.801-2.748c-1.572-2.234-3.362-4.398-5.368-6.473 c-1.539-1.592-3.208-3.135-4.998-4.615v15.247H265.239z M283.121,283.226h11.946c-0.584-0.908-1.204-1.788-1.858-2.637 c-0.997-1.294-2.084-2.533-3.259-3.704c-3.078-3.085-6.683-5.636-10.665-7.514c-2.917-1.378-6.039-2.396-9.305-2.994 c1.358,1.215,2.644,2.463,3.851,3.74c1.971,2.086,3.742,4.249,5.305,6.471c0.813,1.16,1.579,2.339,2.287,3.534 C282.034,281.154,282.602,282.188,283.121,283.226L283.121,283.226z M297.463,287.547h-12.427c0.857,2.21,1.539,4.454,2.046,6.721 c0.542,2.425,0.882,4.874,1.019,7.327h12.921c-0.133-2.401-0.492-4.747-1.054-7.016c-0.607-2.449-1.451-4.805-2.502-7.031H297.463z M280.383,287.547h-15.143v14.048h18.552c-0.141-2.304-0.485-4.61-1.03-6.905C282.188,292.272,281.395,289.884,280.383,287.547z M260.919,287.547h-15.143c-1.012,2.337-1.803,4.725-2.376,7.141c-0.545,2.294-0.891,4.602-1.03,6.905h18.552v-14.047H260.919z M241.124,287.547h-12.427c-1.052,2.227-1.896,4.582-2.502,7.031c-0.562,2.269-0.924,4.615-1.056,7.016h12.923 c0.137-2.454,0.474-4.901,1.019-7.327c0.507-2.267,1.189-4.511,2.046-6.721H241.124z"/>
    <path fill="white"
          d="M258.144,204.617h-67.131h-3.063v-3.063v-47.324h6.125v44.262h64.069v-61.811V55.187h6.125v81.494 v23.524h64.067v-44.262h6.125v47.324v3.063h-3.063h-67.129v90.097h-6.125L258.144,204.617L258.144,204.617z"/>
    <path fill="#fed298"
          d="M309.253,371.19h-0.002c-3.819-2.824-8.368-1.147-11.977,1.951l-22.408,19.233l-1.674-5.75 l-1.625-14.263l0.789-31.037l0.688-31.294c0.108-4.901-3.702-9.139-8.506-9.139l0,0c-4.805,0-8.842,3.777-8.96,8.676l-1.275,53.655 l-2.321,0.082l0.829-12.506c0.324-4.89-3.704-9.011-8.504-9.139c-4.805-0.126-8.636,3.788-8.962,8.676l-0.899,13.595l-2.628,0.095 l0.73-8.762c0.405-4.879-3.702-9.137-8.504-9.137l0,0c-4.807,0-8.552,3.795-8.96,8.678l-0.824,9.847l-3.151,0.113l0.212-5.031 c0.208-4.892-3.702-9.137-8.506-9.137l0,0c-4.807,0-8.753,3.782-8.96,8.676l-0.441,10.427l-0.241,1.773l2.161,56.255 c0.291,7.633,3.31,14.095,6.617,17.837c0.948,1.072,1.916,1.92,2.855,2.509l-2.143,58.351c17.204,3.647,35.041,5.578,53.333,5.578 c2.875,0,5.735-0.064,8.59-0.159l-2.675-66.051c5.7-2.728,13.375-9.461,15.062-14.303l0.015,0.031l34.171-48.117 c2.767-3.896,1.905-9.393-1.911-12.213L309.253,371.19L309.253,371.19z"/>
    <path fill="#4ea31e"
          d="M269.559,477.369l-70.279-0.826l-2.123,28.652c18.893,4.445,38.591,6.807,58.843,6.807 c4.952,0,9.869-0.157,14.75-0.434l-1.193-34.197L269.559,477.369L269.559,477.369z"/>
    <g>
      <path fill="white" d="M267.537,464.585l-65.991-1.111l-0.064,13.026l65.991,1.111L267.537,464.585z"/>
      <path fill="white"
            d="M258.746,308.599l-0.275,7.686l11.734,0.284l0.277-7.686 C270.702,302.833,258.376,302.604,258.746,308.599z M301.944,373.695l-6.508,6.533l8.282,8.488l6.508-6.533 C314.456,377.936,306.137,369.481,301.944,373.695z"/>
    </g>
    <path fill="#4ea31e"
          d="M261.207,29.895c9.015,0,16.322,7.309,16.322,16.322c0,9.015-7.309,16.325-16.322,16.325 c-9.015,0-16.325-7.309-16.325-16.325C244.882,37.204,252.192,29.895,261.207,29.895z"/>
    <path fill="#f49530"
          d="M334.463,99.615c9.013,0,16.322,7.309,16.322,16.325c0,9.013-7.309,16.322-16.322,16.322 c-9.015,0-16.322-7.309-16.322-16.322C318.141,106.924,325.45,99.615,334.463,99.615z"/>
    <path fill="#eb6762"
          d="M194.079,131.139c12.748,0,23.085,10.337,23.085,23.087c0,12.748-10.337,23.083-23.085,23.083 s-23.087-10.337-23.087-23.083C170.992,141.474,181.328,131.139,194.079,131.139z"/>
    <path fill="#4ea31e"
          d="M122.889,163.822c6.375,0,11.54,5.168,11.54,11.54c0,6.375-5.166,11.542-11.54,11.542 s-11.542-5.168-11.542-11.542C111.347,168.988,116.514,163.822,122.889,163.822z"/>
    <path fill="#f49530"
          d="M60.274,205.459c12.751,0,23.087,10.337,23.087,23.087c0,12.748-10.337,23.085-23.087,23.085 c-12.748,0-23.085-10.337-23.085-23.085C37.189,215.795,47.524,205.459,60.274,205.459z"/>
    <path fill="#eb6762"
          d="M462.409,217.003c6.377,0,11.542,5.168,11.542,11.542c0,6.372-5.166,11.54-11.542,11.54 c-6.375,0-11.54-5.168-11.54-11.54C450.868,222.171,456.036,217.003,462.409,217.003z"/>
    <path fill="#4ea31e"
          d="M399.529,152.278c12.748,0,23.087,10.337,23.087,23.087c0,12.751-10.337,23.085-23.087,23.085 c-12.748,0-23.083-10.334-23.083-23.085S386.78,152.278,399.529,152.278z"/>
  </symbol>
  <symbol id="clipboard" viewBox="0 0 512 512">
    <title>clipboard</title>
    <circle fill="#B9DBF0" cx="256" cy="256" r="256"/>
    <path fill="darkgray"    d="M93.627,91.969h324.751v361.945C374.194,490.204,317.643,512,256,512s-118.19-21.791-162.373-58.086 V91.969z"/>
    <path fill="white"   d="M108.052,107.567h295.897V464.94C362.172,494.573,311.12,512,256,512s-106.172-17.422-147.948-47.056 V107.571V107.567z"/>
    <g>
      <rect x="444.402" y="77.01" fill="#4EA31E" width="8.143" height="189.7"/>
      <rect x="460.69" y="77.01"  fill="#4EA31E" width="8.143" height="189.7"/>
      <rect x="449.861" y="77.01" fill="#359B1D" width="13.515" height="189.7"/>
    </g>
    <path fill="white" d="M456.635,307.111l12.203-40.41H444.41l12.23,40.41H456.635z"/>
    <path fill="darkgray" d="M450.395,59.033h12.453c3.294,0,5.99,2.693,5.99,5.99v5.99H444.41v-5.99 c0-3.298,2.693-5.99,5.99-5.99C450.4,59.033,450.395,59.033,450.395,59.033z"/>
    <path fill="dimgray" d="M456.131,310.03h1.016l4.064-18.069h-9.113L456.131,310.03z"/>
    <circle fill="#359b1d" cx="256" cy="188.292" r="44.442"/>
    <g fill="#fbb03b">
      <rect x="193.821" y="260.691" width="49.054" height="49.054"/>
      <rect x="269.134" y="260.691" width="49.054" height="49.054"/>
      <rect x="122.211" y="260.691" width="49.054" height="49.054"/>
      <rect x="340.734" y="260.691" width="49.054" height="49.054"/>
    </g>
    <g fill="darkgray">
      <rect x="193.821" y="356.584" width="49.054" height="49.054"/>
      <rect x="269.134" y="356.584" width="49.054" height="49.054"/>
      <rect x="340.734" y="356.584" width="49.054" height="49.054"/>
      <path d="M144.974,260.688v-47.269c0-7.39,3.025-14.115,7.899-18.988l0.005-0.005l0.005-0.005 c4.877-4.872,11.602-7.899,18.988-7.899h39.689v3.538H171.87c-6.424,0-12.267,2.628-16.494,6.859l-0.009,0.009 c-4.231,4.231-6.859,10.069-6.859,16.494v47.269h-3.538L144.974,260.688z M300.446,186.525h39.689 c7.39,0,14.115,3.025,18.992,7.903l0.005-0.005c4.872,4.872,7.899,11.597,7.899,18.997v47.269h-3.538v-47.269 c0-6.42-2.628-12.263-6.864-16.494v-0.009c-4.231-4.231-10.069-6.859-16.494-6.859h-39.689v-3.538L300.446,186.525L300.446,186.525 z M367.03,309.739v46.848h-3.538v-46.848H367.03z"/>
      <path d="M238.634,228.417v15.021v1.769h-1.769h-16.752v15.482h-3.538v-17.251v-1.769h1.769h16.752v-13.251 H238.634z M220.112,309.744v46.849h-3.538v-46.849H220.112z M291.888,356.593v-46.849h3.538v46.849H291.888z M291.888,260.688 v-15.482h-16.752h-1.769v-1.769v-15.021h3.538v13.251h16.752h1.769v1.769v17.251H291.888z"/>
    </g>
    <g fill="white">
      <path d="M229.442,173.629h55.139v3.769h-55.139V173.629z M229.442,201.439h32.285v3.769h-32.285V201.439z M229.442,187.536h55.139v3.769h-55.139V187.536z"/>
      <path d="M132.176,276.872h29.13v1.991h-29.13V276.872z M132.176,291.565h17.057v1.991h-17.057V291.565z M132.176,284.221h29.13v1.991h-29.13V284.221z"/>
      <path d="M203.78,276.872h29.13v1.991h-29.13V276.872z M203.78,291.565h17.057v1.991H203.78V291.565z M203.78,284.221h29.13v1.991h-29.13V284.221z"/>
      <path d="M279.089,276.872h29.131v1.991h-29.131V276.872z M279.089,291.565h17.057v1.991h-17.057V291.565z M279.089,284.221h29.131v1.991h-29.131V284.221z"/>
      <path d="M350.694,276.872h29.131v1.991h-29.131V276.872z M350.694,291.565h17.057v1.991h-17.057V291.565z M350.694,284.221h29.131v1.991h-29.131V284.221z"/>
      <path d="M203.78,372.776h29.13v1.991h-29.13V372.776z M203.78,387.468h17.057v1.991H203.78V387.468z M203.78,380.125h29.13v1.991h-29.13V380.125z"/>
      <path d="M279.089,372.776h29.131v1.991h-29.131V372.776z M279.089,387.468h17.057v1.991h-17.057V387.468z M279.089,380.125h29.131v1.991h-29.131V380.125z"/>
      <path d="M350.694,372.776h29.131v1.991h-29.131V372.776z M350.694,387.468h17.057v1.991h-17.057V387.468z M350.694,380.125h29.131v1.991h-29.131V380.125z"/>
    </g>
  </symbol>
  <symbol id="template" viewBox="0 0 170 170">
    <g fill="none" fill-rule="evenodd">
      <circle fill="#B9DBF0" cx="84.992" cy="84.992" r="84.992" fill-rule="nonzero"/>
      <path fill="#4ea31e" fill-rule="nonzero" d="M92.415 43.68a4.186 4.186 0 0 0-4.664-3.648l-54.076 6.64a4.186 4.186 0 0 0-3.643 4.667l8.553 69.664a4.186 4.186 0 0 0 4.664 3.648l54.076-6.64a4.186 4.186 0 0 0 3.643-4.668"/>
      <path fill="#4ea31e" fill-rule="nonzero" d="M84.585 43.68a4.186 4.186 0 0 1 4.664-3.648l54.076 6.64a4.186 4.186 0 0 1 3.643 4.667l-8.553 69.664a4.186 4.186 0 0 1-4.664 3.648l-54.076-6.64a4.186 4.186 0 0 1-3.643-4.668"/>
      <path fill="white" fill-rule="nonzero" d="M125.759 43.991A4.993 4.993 0 0 0 120.767 39H55.992A4.996 4.996 0 0 0 51 43.991v83.467a4.993 4.993 0 0 0 4.992 4.99h64.775a4.996 4.996 0 0 0 4.992-4.99V43.99z"/>
      <rect width="50" height="2" x="63" y="58" fill="#e5e5e5" rx="1"/>
      <rect width="50" height="2" x="63" y="68" fill="#e5e5e5" rx="1"/>
    </g>
  </symbol>
  <symbol id="list" viewBox="0 0 170 170">
    <g fill="none">
      <circle fill="#B9DBF0" cx="84.992" cy="84.992" r="84.992"/>
      <path fill="#4ea31e" d="M119.967 133.983H49.934c-2.172 0-3.934-1.753-3.934-3.915V41.004c0-2.162 1.762-3.915 3.934-3.915h70.033c2.173 0 3.934 1.753 3.934 3.915v89.064c0 2.162-1.761 3.915-3.934 3.915z"/>
      <path fill="white" d="M52.942 42.814h64.327v85.149H52.942z"/>
      <path fill="#bbb" d="M65.602 33h38.951v13.506H65.602z"/>
      <g fill="#f49530">
          <path d="M57.574 58.082h6.492v6.46h-6.492zM57.574 74.771h6.492v6.46h-6.492zM57.574 91.454h6.492v6.46h-6.492zM57.574 108.143h6.492v6.46h-6.492z"/>
      </g>
      <g fill="#e5e5e5" transform="translate(69.686 61.623)">
          <rect width="38" height="2" x=".061" y=".062" rx="1"/>
          <rect width="38" height="2" x=".061" y="16.898" rx="1"/>
          <rect width="38" height="2" x=".061" y="33.728" rx="1"/>
          <rect width="38" height="2" x=".061" y="50.564" rx="1"/>
      </g>
    </g>
  </symbol>
  <symbol id="add-point" viewBox="0 0 170 170">
    <g fill="none" fill-rule="evenodd">
      <circle fill="#B9DBF0" cx="84.992" cy="84.992" r="84.992" fill-rule="nonzero"/>
      <path fill="white" fill-rule="nonzero" d="M125.759 43.991A4.993 4.993 0 0 0 120.767 39H55.992A4.996 4.996 0 0 0 51 43.991v83.467a4.993 4.993 0 0 0 4.992 4.99h64.775a4.996 4.996 0 0 0 4.992-4.99V43.99z"/>
      <rect id="a" width="57" height="29" x="60" y="85" rx="3" fill="#e5e5e5"/>
      <path stroke="#f49530" stroke-dasharray="3" stroke-width="1" fill="white" d="M58 83h61v33H58z"/>
      <rect width="30" height="2" x="64" y="93"  fill="#e5e5e5" rx="1"/>
      <rect width="50" height="2" x="64" y="58"  fill="#e5e5e5" rx="1"/>
      <rect width="50" height="2" x="64" y="69"  fill="#e5e5e5" rx="1"/>
      <rect width="30" height="2" x="64" y="102" fill="#e5e5e5" rx="1"/>
      <path fill="#4EA31E" d="M104 94h4v15h-4z"/>
      <path fill="#4EA31E" d="M113.5 99.5v4h-15v-4z"/>
    </g>
  </symbol>


  <symbol id="business" viewBox="0 0 512 512">
    <g fill-rule="nonzero" fill="none">
      <circle fill="#B9DBF0" cx="256" cy="256" r="256"/>
      <path fill="white" d="M112.9 153.297h286.2v222.874H112.9z"/>
      <path fill="darkgray" d="M102.3 121.457h307.4v31.839H102.3z"/>
      <path fill="darkgray" d="M409.7 381.477H102.3c-2.93 0-5.3-2.372-5.3-5.306a5.298 5.298 0 0 1 5.3-5.307h307.4c2.93 0 5.3 2.372 5.3 5.307a5.298 5.298 0 0 1-5.3 5.306z"/>
      <path fill="darkgray" d="M256 397.397c-2.93 0-5.3-2.372-5.3-5.307v-15.92a5.298 5.298 0 0 1 5.3-5.306c2.93 0 5.3 2.372 5.3 5.307v15.92a5.298 5.298 0 0 1-5.3 5.306z"/>
      <path fill="darkgray" d="M256 434.543c-11.692 0-21.2-9.52-21.2-21.227 0-11.706 9.508-21.226 21.2-21.226s21.2 9.52 21.2 21.226c0 11.707-9.508 21.227-21.2 21.227zm0-31.84c-5.846 0-10.6 4.76-10.6 10.613 0 5.854 4.754 10.613 10.6 10.613s10.6-4.76 10.6-10.613-4.754-10.613-10.6-10.613z"/>
      <g>
        <path fill="#f49530" fill-opacity=".4" d="M165.15 309.688h33.833v47.25H165.15z"/>
        <path fill="#f49530" fill-opacity=".6" d="M215.9 279.313h33.833v77.625H215.9z"/>
        <path fill="#f49530" fill-opacity=".8" d="M266.65 252.313h33.833v104.625H266.65z"/>
        <path fill="#f49530" d="M317.4 225.313h33.833v131.625H317.4z"/>
        <path fill="#359B1D" d="M182.168 260.176a3.38 3.38 0 0 1-2.933-1.687 3.371 3.371 0 0 1 1.238-4.61l131.852-75.938a3.387 3.387 0 0 1 4.622 1.235 3.371 3.371 0 0 1-1.239 4.61l-131.852 75.938a3.372 3.372 0 0 1-1.688.452z"/>
        <path fill="#359B1D" d="M314.02 184.239c-.108 0-.216-.007-.332-.017l-28.968-2.801a3.374 3.374 0 0 1-3.038-3.686 3.364 3.364 0 0 1 3.695-3.03l28.968 2.8a3.374 3.374 0 0 1-.325 6.734z"/>
        <path fill="#359B1D" d="M301.962 210.665a3.34 3.34 0 0 1-1.4-.304 3.368 3.368 0 0 1-1.679-4.468l12.051-26.427a3.379 3.379 0 0 1 4.48-1.674 3.368 3.368 0 0 1 1.678 4.469l-12.051 26.426a3.377 3.377 0 0 1-3.08 1.978z"/>
      </g>
    </g>
  </symbol>
  <symbol id="advantage" viewBox="0 0 512 512">
    <g fill="none" fill-rule="evenodd">
      <circle fill="#B9DBF0" fill-rule="nonzero" cx="256" cy="256" r="256"/>
      <path d="M100 313.376a7 7 0 0 1 7.003-7.002h89.568V404H100v-90.624zM320.735 325.475h84.255a7.001 7.001 0 0 1 7.01 7.003V404h-91.265v-78.525z" fill="#E5E5E5"/>
      <path d="M195.51 285.785c0-3.867 3.138-7 6.992-7h112.302a6.991 6.991 0 0 1 6.992 7V404H195.51V285.785z" fill="white"/>
      <path d="M216.547 228.2c-28.876 0-50.383-17.056-62.195-49.325-8.6-23.494-9.002-46.612-9.016-47.584a5.371 5.371 0 0 1 1.542-3.839 5.348 5.348 0 0 1 3.81-1.596h49.703a5.358 5.358 0 0 1 5.353 5.364 5.358 5.358 0 0 1-5.353 5.363h-44.05c.62 7.96 2.5 23.508 8.146 38.827 10.286 27.912 27.802 42.064 52.061 42.064a5.358 5.358 0 0 1 5.353 5.363 5.358 5.358 0 0 1-5.354 5.364z" fill="#f49530" fill-rule="nonzero"/>
      <path d="M300.462 228.2a5.358 5.358 0 0 1-5.353-5.363 5.358 5.358 0 0 1 5.353-5.363c24.328 0 41.872-14.23 52.146-42.292 5.596-15.29 7.454-30.692 8.066-38.599h-44.056a5.358 5.358 0 0 1-5.352-5.363 5.358 5.358 0 0 1 5.352-5.364h49.703c1.432 0 2.804.575 3.81 1.596a5.371 5.371 0 0 1 1.542 3.839c-.013.973-.416 24.09-9.016 47.584-11.812 32.27-33.32 49.326-62.195 49.326z" fill="#f49530" fill-rule="nonzero"/>
      <path d="M258.505 109H191.98s0 134.85 55.82 134.85v22.893l10.705.86V109z" fill="#fbb03b" fill-rule="nonzero"/>
      <path d="M258.505 109h66.525s0 134.85-55.82 134.85v22.893l-10.705.86V109z" fill="#f49530" fill-rule="nonzero"/>
      <path d="M258.505 279.096v-8.428h-38.233s-19.88 4.351-19.88 8.702l58.113-.274z" fill="#fbb03b" fill-rule="nonzero"/>
      <path fill="#f49530" fill-rule="nonzero" d="M229.448 263.772h29.057v6.896h-29.057zM258.505 279.096v-8.428h38.232s19.881 4.351 19.881 8.702l-58.113-.274z"/>
      <path fill="#f49530" fill-rule="nonzero" d="M258.505 263.772h29.057v6.896h-29.057z"/>
      <g fill-rule="nonzero" fill="#fbb03b">
        <path d="M280 225.467c-.9 0-1.804-.242-2.533-.735-1.592-1.078-1.747-2.944-.348-4.17 12.645-11.069 19.258-27.99 22.58-40.235.434-1.597 2.465-2.623 4.54-2.289 2.076.334 3.407 1.899 2.973 3.495-3.51 12.941-10.58 30.894-24.329 42.93-.76.665-1.82 1.004-2.884 1.004zM306.536 168.224c-.132 0-.267-.005-.401-.015-2.108-.17-3.64-1.62-3.42-3.244.366-2.714.482-4.34.483-4.355.115-1.629 1.925-2.905 4.038-2.79 2.117.087 3.74 1.479 3.626 3.108-.005.07-.126 1.772-.514 4.648-.205 1.518-1.871 2.648-3.812 2.648z"/>
      </g>
      <text font-family="AmericanTypewriter-Bold, American Typewriter" font-size="48" font-weight="bold" fill="#f49530" transform="translate(100 109)">
        <tspan x="149" y="247">I</tspan>
      </text>
      <text font-family="AmericanTypewriter-Bold, American Typewriter" font-size="36" font-weight="bold" fill="darkgray" transform="translate(100 109)">
        <tspan x="33" y="259">II</tspan>
      </text>
      <text font-family="AmericanTypewriter-Bold, American Typewriter" font-size="36" font-weight="bold" fill="darkgray" transform="translate(100 109)">
        <tspan x="241.898" y="269">III</tspan>
      </text>
    </g>
  </symbol>
  <symbol id="recommend" viewBox="0 0 188 140">
    <g id="XMLID_18_">
      <g>
        <path fill="#4EA31E" d="M38,21.1c3.4,0,6.1,2.7,6.1,6.1c0,3.4-2.7,6.1-6.1,6.1c-3.3,0-6.1-2.7-6.1-6.1C31.9,23.8,34.6,21.1,38,21.1z
     M36.9,30.3l4.9-4.9l-0.9-0.9l-4,4l-1.8-1.8l-0.9,0.9L36.9,30.3z"/>
        <polygon fill="white" points="41.7,25.4 36.9,30.3 34.2,27.6 35.1,26.7 36.9,28.5 40.9,24.5 		"/>
      </g>
    </g>
    <g id="XMLID_19_">
      <g>
        <polygon fill="white" points="34.2,52.8 35.1,51.9 36.9,53.7 40.9,49.6 41.7,50.5 36.9,55.4 		"/>
        <path fill="#4EA31E" d="M35.1,51.9l-0.9,0.9l2.7,2.7l4.9-4.9l-0.9-0.9l-4,4L35.1,51.9z M31.9,52.3c0-3.3,2.7-6.1,6.1-6.1
    c3.4,0,6.1,2.7,6.1,6.1c0,3.4-2.7,6.1-6.1,6.1C34.6,58.4,31.9,55.7,31.9,52.3z"/>
      </g>
    </g>
    <g id="XMLID_20_">
      <g>
        <path fill="#F49530" d="M38,71.4c3.4,0,6.1,2.7,6.1,6.1c0,3.4-2.7,6.1-6.1,6.1c-3.3,0-6.1-2.7-6.1-6.1C31.9,74.1,34.6,71.4,38,71.4z
     M36.9,80.6l4.9-4.9l-0.9-0.9l-4,4L35.1,77l-0.9,0.9L36.9,80.6z"/>
        <polygon fill="white" points="41.7,75.7 36.9,80.6 34.2,77.9 35.1,77 36.9,78.8 40.9,74.8 		"/>
      </g>
    </g>
    <rect x="49.7" y="44.4" fill="#CECECE" width="26.5" height="3.6"/>
    <rect x="49.7" y="69.4" fill="#CECECE" width="26.5" height="3.6"/>
    <rect x="49.7" y="49.1" fill="#EFEFEF" width="100" height="3.1"/>
    <rect x="49.7" y="53.7" fill="#EFEFEF" width="91.3" height="3.1"/>
    <rect x="49.7" y="58.4" fill="#EFEFEF" width="100" height="3.1"/>
    <rect x="50" y="75.6" fill="#EFEFEF" width="100" height="3.1"/>
    <rect x="50" y="80.2" fill="#EFEFEF" width="91.3" height="3.1"/>
    <rect x="50" y="84.9" fill="#EFEFEF" width="100" height="3.1"/>
    <rect x="49.7" y="18.4" fill="#CECECE" width="26.5" height="3.6"/>
    <rect x="50" y="24.6" fill="#EFEFEF" width="100" height="3.1"/>
    <rect x="50" y="29.2" fill="#EFEFEF" width="91.3" height="3.1"/>
    <rect x="50" y="33.9" fill="#EFEFEF" width="100" height="3.1"/>
    <path fill="#CACACA" d="M165.3,84.5c1.1,0.9,1.3,2.6,0.4,3.7c-0.9,1.1-2.6,1.3-3.7,0.4l-16.7-13.5c-4.2,4.2-9.8,7.1-16.1,7.8
c-14.6,1.6-27.7-9-29.3-23.6c-1.6-14.6,9-27.7,23.6-29.3c14.6-1.6,27.7,9,29.3,23.6c0.7,6.4-0.9,12.5-4.2,17.4L165.3,84.5z
 M128.5,77.7c11.7-1.3,20.2-11.8,18.9-23.5C146.2,42.5,135.6,34,124,35.3c-11.7,1.3-20.2,11.8-18.9,23.5S116.8,78.9,128.5,77.7z"/>
    <g>
      <path fill="white" d="M106.2,49.3c-0.2,0.4-0.3,0.9-0.4,1.4h41.1c-0.1-0.5-0.3-0.9-0.4-1.4H106.2z"/>
      <path fill="white" d="M105.4,60.9h41.8c0.1-0.4,0.2-0.9,0.2-1.4h-42.2C105.2,60,105.3,60.4,105.4,60.9z"/>
      <path fill="white" d="M128.5,77.7c5.9-0.6,11-3.6,14.4-8h-33.4C113.9,75.2,121,78.5,128.5,77.7z"/>
      <path fill="white" d="M124,35.3c-4.6,0.5-8.6,2.4-11.8,5.2h28.2C136,36.7,130.1,34.6,124,35.3z"/>
      <path fill="#EFEFEF" d="M109.5,69.7H143c2-2.6,3.5-5.6,4.2-8.8h-41.8C106.1,64.2,107.5,67.2,109.5,69.7z"/>
      <path fill="#EFEFEF" d="M105,58.8c0,0.2,0.1,0.5,0.1,0.7h42.2c0.2-1.7,0.3-3.5,0.1-5.3c-0.1-1.2-0.4-2.4-0.7-3.5h-41.1
  C105,53.2,104.7,56,105,58.8z"/>
      <path fill="#EFEFEF" d="M140.4,40.5h-28.2c-2.7,2.4-4.8,5.4-6,8.8h40.2C145.1,45.8,143,42.8,140.4,40.5z"/>
    </g>
    <g>
      <path fill="#E2E5E7" d="M183.9,91.8c-0.1,0.8-0.6,1.6-1.6,1.9c0,0.3,0,0.6,0,0.9c-0.2,1.5,0,2.9,0.5,4.3c0.8,2.7-2.3,4-4.3,2.8
  c-0.6,0.9-1.6,1.4-3,1.1c-4.5-1-9.1-0.1-13.7,0c-1.1,0-1.9-0.5-2.3-1.2c-2.4-0.1-4.9-0.2-7.3-0.3c-0.4,0.2-0.8,0.4-1.4,0.4
  c-3.1,0.1-6.2,0.5-9.3,0.7c-0.1,1.2-1,2.5-2.6,2.6c-20.3,2.1-41-4.5-61.2-0.8c-2,0.4-3.3-1.1-3.5-2.5c-7.9,0.9-15.8,2.1-23.8,2.7
  c-11.8,1-23.6-2.6-35.3-0.6c-1.8,0.3-3-0.8-3.4-2.1c-0.8,0.3-1.5,0.6-2.2,1c-3.1,1.7-5.9-2.8-2.9-4.5c-2.2,0-4.3,0-6.5,0.1v21.3
  c0,2.5,2.1,4.5,4.7,4.5h178.5c2.6,0,4.8-2,4.8-4.5v-28C186.6,91.6,185.3,91.7,183.9,91.8z"/>
      <path fill="#CACACA" d="M183.3,0H4.7C2.1,0,0,2,0,4.5V107h188V4.5C188,2,185.9,0,183.3,0z M179.6,101H85.4h-78V7h138.5h33.8V101z"/>
      <rect x="71.4" y="124" fill="#C1C1C1" width="44.1" height="12"/>
      <rect x="47.3" y="136" fill="#E2E5E7" width="94.5" height="4"/>
    </g>
  </symbol>
  <symbol id="upload" viewBox="0 0 187 126">
    <g>
      <path fill="white" d="M180.7,111.1h-55c-2.6,0-4.8-2.1-4.8-4.8V28.2c0-2.6,2.1-4.8,4.8-4.8h55c2.6,0,4.8,2.1,4.8,4.8v78.1
C185.5,109,183.4,111.1,180.7,111.1z"/>
      <path fill="#E2E5E7" d="M180.7,112.6h-55c-3.4,0-6.3-2.8-6.3-6.3V28.2c0-3.4,2.8-6.3,6.3-6.3h55c3.4,0,6.3,2.8,6.3,6.3v78.1
  C187,109.8,184.2,112.6,180.7,112.6z M125.8,25c-1.8,0-3.3,1.5-3.3,3.3v78.1c0,1.8,1.5,3.3,3.3,3.3h55c1.8,0,3.3-1.5,3.3-3.3V28.2
  c0-1.8-1.5-3.3-3.3-3.3H125.8z"/>
    </g>
    <g>
      <path fill="white" d="M58.8,111.1H8.5c-3.9,0-7-3.1-7-7V30.5c0-3.9,3.1-7,7-7h50.3c3.9,0,7,3.1,7,7v73.6
  C65.8,108,62.7,111.1,58.8,111.1z"/>
      <path fill="#E2E5E7" d="M58.8,112.6H8.5c-4.7,0-8.5-3.8-8.5-8.5V30.5C0,25.8,3.8,22,8.5,22h50.3c4.7,0,8.5,3.8,8.5,8.5v73.6
  C67.3,108.8,63.5,112.6,58.8,112.6z M8.5,25c-3,0-5.5,2.5-5.5,5.5v73.6c0,3,2.5,5.5,5.5,5.5h50.3c3,0,5.5-2.5,5.5-5.5V30.5
  c0-3-2.5-5.5-5.5-5.5H8.5z"/>
    </g>
    <g>
      <path fill="white" d="M144.4,119H42.5c-2.7,0-4.9-2.2-4.9-4.9V7.3c0-2.7,2.2-4.9,4.9-4.9h101.9c2.7,0,4.9,2.2,4.9,4.9v106.8
  C149.3,116.8,147.1,119,144.4,119z"/>
      <path fill="#E2E5E7" d="M144.4,120.5H42.5c-3.5,0-6.4-2.9-6.4-6.4V7.3c0-3.5,2.9-6.4,6.4-6.4h101.9c3.5,0,6.4,2.9,6.4,6.4v106.8
  C150.8,117.6,147.9,120.5,144.4,120.5z M42.5,3.9c-1.9,0-3.4,1.5-3.4,3.4v106.8c0,1.9,1.5,3.4,3.4,3.4h101.9c1.9,0,3.4-1.5,3.4-3.4
  V7.3c0-1.9-1.5-3.4-3.4-3.4H42.5z"/>
    </g>
    <g id="XMLID_25_">
      <g>
        <circle fill="#E2E5E7" cx="91.9" cy="24.3" r="10.6"/>
      </g>
    </g>
    <rect x="56.2" y="46" fill="#4EA31E" width="38.9" height="4.6"/>
    <rect x="56.2" y="52.3" fill="#E5E5E5" width="67.5" height="4.3"/>
    <rect x="56.2" y="58.7" fill="#E5E5E5" width="61.6" height="4.3"/>
    <rect x="56.2" y="65.1" fill="#E5E5E5" width="51.5" height="3.9"/>
    <rect x="56.2" y="80.4" fill="#F49530" width="38.9" height="4.6"/>
    <rect x="56.2" y="86.8" fill="#E5E5E5" width="59.2" height="4.3"/>
    <rect x="56.2" y="99.5" fill="#CECECE" width="44.9" height="4.6"/>
    <rect x="56.2" y="105.8" fill="#E5E5E5" width="67.5" height="4.3"/>
    <g>
      <g id="XMLID_24_">
        <g>
          <path fill="#969696" d="M142.3,120.4c0.4,0.4,0.4,1.1,0,1.5l-3.8,3.8c-0.4,0.4-1.1,0.4-1.5,0l-6.7-6.7l-2.1,6.4
      c-0.1,0.4-0.5,0.7-0.9,0.7c0,0-0.1,0-0.1,0c-0.4,0-0.8-0.2-0.9-0.6L112.9,98c-0.2-0.4-0.1-0.9,0.2-1.2c0.3-0.3,0.8-0.4,1.2-0.2
      l27.6,13.8c0.4,0.2,0.6,0.6,0.6,1c0,0.4-0.3,0.8-0.7,0.9l-5.8,1.8L142.3,120.4z M140,121.1l-6.8-6.8c-0.3-0.2-0.4-0.6-0.3-1
      c0.1-0.4,0.3-0.6,0.7-0.7l5-1.6l-22.5-11.2l10.9,22.5l1.8-5.5c0.1-0.4,0.4-0.6,0.7-0.7c0.1,0,0.2,0,0.2,0c0.3,0,0.5,0.1,0.7,0.3
      l7.2,7.2L140,121.1z"/>
          <path fill="#969696" d="M133.2,114.3l6.8,6.8l-2.4,2.4l-7.2-7.2c-0.2-0.2-0.5-0.3-0.7-0.3c-0.1,0-0.2,0-0.2,0
      c-0.4,0.1-0.6,0.3-0.7,0.7l-1.8,5.5l-10.9-22.5l22.5,11.2l-5,1.6c-0.4,0.1-0.6,0.4-0.7,0.7C132.8,113.7,132.9,114.1,133.2,114.3z
      "/>
        </g>
      </g>
    </g>
  </symbol>
  <symbol id="rate" viewBox="0 0 210 127">
    <g id="XMLID_15_">
      <g>
        <path fill="#4EA31E" d="M38.7,20.4c4.9,0,8.9,4,8.9,8.9c0,4.9-4,8.9-8.9,8.9c-4.9,0-8.9-4-8.9-8.9C29.8,24.4,33.8,20.4,38.7,20.4z
     M37,34l7.2-7.2l-1.3-1.3L37,31.3l-2.6-2.6L33.1,30L37,34z"/>
        <polygon fill="white" points="44.2,26.7 37,34 33.1,30 34.4,28.7 37,31.3 42.9,25.4 		"/>
      </g>
    </g>
    <rect x="56" y="21.3" fill="#EFEFEF" width="129" height="7.6"/>
    <rect x="56" y="31.5" fill="#EFEFEF" width="129" height="4.6"/>
    <rect x="23" y="50.8" fill="#EFEFEF" width="40.8" height="4.6"/>
    <rect x="23" y="57.6" fill="#EFEFEF" width="163" height="4.6"/>
    <rect x="23" y="64.4" fill="#EFEFEF" width="148.7" height="4.6"/>
    <rect x="23" y="71.3" fill="#EFEFEF" width="163" height="4.6"/>
    <rect x="23" y="78.1" fill="#EFEFEF" width="148.7" height="4.6"/>
    <rect x="23" y="84.9" fill="#EFEFEF" width="163" height="4.6"/>
    <rect x="23" y="91.8" fill="#EFEFEF" width="163" height="4.6"/>
    <g>
      <g>
        <g id="XMLID_12_">
          <g>
            <path fill="#4EA31E" d="M103.8,80.9c0.1,1.3-0.4,2.6-1.3,3.9c0.2,0.5,0.4,1.2,0.4,2c0.1,1.4-0.3,3.3-2.2,5.1
        c0.1,0.9,0.1,2.3-0.7,3.7c-1,1.9-3.1,3.1-6,3.8c-1.3,0.3-2.8,0.4-4.5,0.4c-1,0-2.1-0.1-3.3-0.1c-6.4,0.1-12.6-0.7-13-0.7
        l-2.3-0.3c-0.7,0.5-1.5,0.7-2.3,0.7h-5.9c-2.2,0-4-1.8-4-4V79.4c0-2.2,1.8-4,4-4h5.9c0.7,0,1.4,0.2,1.9,0.5
        c0.4-0.9,1-1.9,1.9-2.9c0.1-0.1,0.1-0.1,0.2-0.1c3-2.4,6.6-10.8,7.9-14.2c-0.1-1.1-0.3-3.4,0.8-4.6c0.5-0.6,1.2-0.9,1.9-0.9
        c0.8,0,3.3,0.2,5,2.4c1.5,2.1,1.6,5.3,0.3,9.4c-1.1,3.5-1.3,5-1.2,5.7c0.5-0.1,1-0.2,1.5-0.3h0c0.1,0,2.2-0.5,4.8-0.6
        c3.6-0.2,6.3,0.5,7.8,1.9c2.1,1.9,1.9,4.4,1.2,6C103.1,78.3,103.7,79.4,103.8,80.9z M100,83.7c0.8-0.9,1.3-1.8,1.2-2.6
        c-0.1-1.3-1.1-2.3-1.1-2.3c-0.5-0.4-0.6-1.1-0.2-1.7c0.1-0.2,1.2-2.1-0.3-3.6c-1.9-1.7-7.2-1.3-10.2-0.6c0,0-0.1,0-0.1,0
        c-0.5,0.1-1.1,0.2-1.7,0.3c-0.6,0.2-1.5,0.2-2.1-0.4c-1.3-1.2-1.2-3.8,0.5-8.7c1.1-3.3,1.1-5.7,0.1-7.1
        c-0.8-1.2-2.2-1.3-2.7-1.3c-0.2,0.4-0.3,1.7-0.1,2.8c0,0.2,0,0.4-0.1,0.7c-0.2,0.5-4.5,12.2-8.8,15.7c-1.1,1.2-1.6,2.7-1.8,3.3
        c0.1,0.4,0.2,0.8,0.2,1.2v15.8c0,0.3,0,0.6-0.1,0.9l1,0.1h0c0.1,0,6.4,0.8,12.7,0.7c0,0,0.1,0,0.1,0c2.9,0.2,5.3,0.2,7.1-0.2
        c2.2-0.5,3.6-1.3,4.3-2.5c0.7-1.2,0.3-2.5,0.3-2.5c-0.2-0.5,0-1.2,0.5-1.5c1.3-1,1.9-2.1,1.8-3.4c-0.1-0.9-0.5-1.6-0.5-1.6
        C99.5,84.7,99.6,84.1,100,83.7z M70,95.3V79.4c0-0.8-0.6-1.4-1.4-1.4h-5.9c-0.8,0-1.4,0.6-1.4,1.4v15.8c0,0.8,0.6,1.4,1.4,1.4v0
        h5.9C69.3,96.7,70,96.1,70,95.3z"/>
            <path fill="white" d="M101.2,81c0,0.9-0.4,1.8-1.2,2.6c-0.4,0.4-0.5,1.1-0.2,1.6c0,0,0.4,0.7,0.5,1.6c0.1,1.3-0.5,2.4-1.8,3.4
        c-0.5,0.3-0.6,1-0.5,1.5c0,0,0.4,1.3-0.3,2.5c-0.7,1.2-2.1,2-4.3,2.5c-1.8,0.4-4.2,0.5-7.1,0.2c0,0-0.1,0-0.1,0
        c-6.3,0.1-12.6-0.7-12.7-0.7h0l-1-0.1c0.1-0.3,0.1-0.6,0.1-0.9V79.4c0-0.4-0.1-0.8-0.2-1.2c0.2-0.7,0.7-2.1,1.8-3.3
        c4.4-3.5,8.6-15.2,8.8-15.7c0.1-0.2,0.1-0.4,0.1-0.7c-0.2-1.1-0.1-2.4,0.1-2.8c0.5,0,1.9,0.2,2.7,1.3c1,1.4,1,3.8-0.1,7.1
        c-1.6,5-1.8,7.6-0.5,8.7c0.6,0.6,1.5,0.6,2.1,0.4c0.6-0.1,1.2-0.3,1.7-0.3c0,0,0.1,0,0.1,0c3-0.7,8.3-1.1,10.2,0.6
        c1.6,1.4,0.5,3.3,0.3,3.6c-0.4,0.5-0.3,1.3,0.2,1.7C100.1,78.8,101.1,79.7,101.2,81z"/>
            <path fill="white" d="M70,79.4v15.8c0,0.8-0.6,1.4-1.4,1.4h-5.9v0c-0.8,0-1.4-0.6-1.4-1.4V79.4c0-0.8,0.6-1.4,1.4-1.4h5.9
        C69.3,78,70,78.7,70,79.4z"/>
          </g>
        </g>
      </g>
      <g>
        <g id="XMLID_16_">
          <g>
            <path fill="#F49530" d="M106.8,76c-0.1-1.3,0.4-2.6,1.3-3.7c-0.2-0.5-0.3-1.1-0.4-1.9c-0.1-1.3,0.3-3.2,2.1-4.9
        c-0.1-0.9-0.1-2.2,0.6-3.6c1-1.8,3-3,5.8-3.6c1.2-0.3,2.7-0.4,4.4-0.4c1,0,2,0,3.1,0.1c6.2-0.1,12.2,0.6,12.5,0.7l2.2,0.3
        c0.6-0.4,1.4-0.7,2.3-0.7h5.7c2.1,0,3.9,1.7,3.9,3.9v15.3c0,2.1-1.7,3.9-3.9,3.9h-5.7c-0.7,0-1.3-0.2-1.9-0.5
        c-0.4,0.9-1,1.8-1.8,2.8c0,0-0.1,0.1-0.2,0.1c-2.9,2.3-6.4,10.4-7.7,13.7c0.1,1,0.2,3.3-0.8,4.5c-0.5,0.5-1.1,0.8-1.8,0.8
        c-0.7,0-3.2-0.2-4.8-2.3c-1.5-2.1-1.6-5.1-0.2-9.1c1.1-3.4,1.2-4.9,1.2-5.5c-0.5,0.1-1,0.2-1.5,0.3h0c-0.1,0-2.1,0.5-4.6,0.6
        c-3.5,0.2-6-0.4-7.5-1.8c-2-1.9-1.8-4.3-1.2-5.8C107.5,78.5,106.9,77.4,106.8,76z M110.5,73.4c-0.8,0.8-1.2,1.7-1.2,2.5
        c0,1.2,1,2.2,1,2.2c0.5,0.4,0.6,1.1,0.2,1.6c-0.1,0.2-1.2,2,0.3,3.4c1.8,1.6,7,1.3,9.8,0.6c0,0,0.1,0,0.1,0
        c0.5-0.1,1.1-0.2,1.6-0.3c0.6-0.2,1.4-0.2,2,0.4c1.2,1.1,1.1,3.6-0.5,8.4c-1,3.1-1.1,5.5-0.1,6.8c0.8,1.1,2.1,1.3,2.6,1.3
        c0.2-0.4,0.3-1.7,0.1-2.7c0-0.2,0-0.4,0.1-0.6c0.2-0.5,4.3-11.8,8.5-15.1c1.1-1.2,1.6-2.6,1.7-3.2c-0.1-0.4-0.2-0.8-0.2-1.2
        V62.1c0-0.3,0-0.6,0.1-0.8l-0.9-0.1h0c-0.1,0-6.2-0.8-12.2-0.7c0,0-0.1,0-0.1,0c-2.8-0.2-5.1-0.2-6.8,0.2
        c-2.1,0.4-3.5,1.3-4.1,2.4c-0.7,1.2-0.3,2.4-0.3,2.4c0.2,0.5,0,1.1-0.4,1.4c-1.2,0.9-1.8,2-1.8,3.2c0,0.9,0.4,1.6,0.4,1.6
        C111,72.3,110.9,72.9,110.5,73.4z M139.4,62.2v15.3c0,0.8,0.6,1.4,1.4,1.4h5.7c0.7,0,1.4-0.6,1.4-1.4V62.1
        c0-0.8-0.6-1.4-1.4-1.4v0h-5.7C140.1,60.8,139.4,61.4,139.4,62.2z"/>
            <path fill="white" d="M109.3,75.9c0-0.8,0.4-1.7,1.2-2.5c0.4-0.4,0.5-1,0.2-1.5c0,0-0.4-0.7-0.4-1.6c-0.1-1.2,0.5-2.3,1.8-3.2
        c0.4-0.3,0.6-0.9,0.4-1.4c0,0-0.4-1.2,0.3-2.4c0.6-1.1,2-1.9,4.1-2.4c1.7-0.4,4-0.4,6.8-0.2c0,0,0.1,0,0.1,0
        c6-0.1,12.1,0.7,12.2,0.7h0l0.9,0.1c-0.1,0.3-0.1,0.5-0.1,0.8v15.3c0,0.4,0.1,0.8,0.2,1.2c-0.2,0.6-0.6,2-1.7,3.2
        c-4.2,3.3-8.3,14.6-8.5,15.1c-0.1,0.2-0.1,0.4-0.1,0.6c0.2,1.1,0.1,2.3-0.1,2.7c-0.5,0-1.8-0.2-2.6-1.3c-1-1.3-0.9-3.7,0.1-6.8
        c1.6-4.8,1.7-7.3,0.5-8.4c-0.6-0.6-1.4-0.6-2-0.4c-0.6,0.1-1.1,0.2-1.6,0.3c0,0-0.1,0-0.1,0c-2.9,0.6-8.1,1-9.8-0.6
        c-1.5-1.4-0.4-3.2-0.3-3.4c0.3-0.5,0.2-1.2-0.2-1.6C110.4,78.1,109.4,77.1,109.3,75.9z"/>
            <path fill="white" d="M139.4,77.4V62.2c0-0.8,0.6-1.4,1.4-1.4h5.7v0c0.8,0,1.4,0.6,1.4,1.4v15.3c0,0.8-0.6,1.4-1.4,1.4h-5.7
        C140,78.8,139.4,78.2,139.4,77.4z"/>
          </g>
        </g>
      </g>
    </g>
    <path fill="#C1C1C1" d="M5.6,126.5h198.7c3.1,0,5.7-2.3,5.7-5.2v-3.6c0-1-0.9-1.8-2-1.8H1.9c-1.1,0-2,0.8-2,1.8v3.6
C-0.1,124.2,2.5,126.5,5.6,126.5z"/>
    <path fill="#CECECE" d="M193.1,0H16.8c-4.9,0-8.8,3.6-8.8,8v108.3h194V8C202,3.6,198,0,193.1,0z M195.1,104.8c0,2.9-2.6,5.3-5.9,5.3
H20.6c-3.2,0-5.9-2.4-5.9-5.3V11.6c0-2.9,2.6-5.3,5.9-5.3h168.6c3.2,0,5.9,2.4,5.9,5.3L195.1,104.8z"/>
  </symbol>
  <symbol id="info" viewBox="0 0 198 104">
    <g id="XMLID_26_">
      <g>
        <path fill="white" d="M138,92.2v7.6c-1.7-1.4-4.9-4.1-9-7.6H138z"/>
        <path fill="#EFEFEF" d="M197.5,19.6v68.2c0,2.4-2.1,4.4-4.7,4.4H141v-0.5h51.8c2.3,0,4.2-1.8,4.2-3.9V19.6c0-2.1-1.9-3.9-4.2-3.9
    H141v-0.5h51.8C195.4,15.2,197.5,17.2,197.5,19.6z"/>
        <path fill="#EFEFEF" d="M197,19.6v68.2c0,2.2-1.9,3.9-4.2,3.9H141v-0.5h51.8c2.1,0,3.7-1.5,3.7-3.4V19.6c0-1.9-1.7-3.4-3.7-3.4H141
    v-0.5h51.8C195.1,15.7,197,17.5,197,19.6z"/>
        <path fill="white" d="M196.5,19.6v68.2c0,1.9-1.7,3.4-3.7,3.4H141v-75h51.8C194.8,16.2,196.5,17.7,196.5,19.6z"/>
        <path fill="#E2E5E7" d="M1.5,101.2l0.3-0.2c0.4-0.3,38.3-31.8,54.5-47l1.1,1C43.1,68.3,12.2,94.2,4.5,100.6
    c-0.6,0.5-0.2,1.5,0.5,1.5h50h31h50c0.8,0,1.1-1,0.5-1.5c-2-1.7-5.6-4.7-10-8.4h2.3c4.1,3.5,7.3,6.2,9,7.6v3.2h3v-0.7
    c0.4,0.5,0.1,1.3-0.6,1.3H0.8c-0.7,0-1.1-0.9-0.5-1.4L1.5,101.2z"/>
        <path fill="#E2E5E7" d="M141,1c0,0.1,0,0.2,0,0.4V1z"/>
        <path fill="#E2E5E7" d="M141,102.3v0.7h-3v-3.2c0.9,0.7,1.3,1.1,1.4,1.1L141,102.3C140.9,102.3,141,102.3,141,102.3z"/>
        <path fill="#E2E5E7" d="M141,92.2v10.1c0,0-0.1-0.1-0.1-0.1l-1.5-1.3c0,0-0.5-0.4-1.4-1.1v-7.6H141z"/>
        <rect x="138" y="91.7" fill="#EFEFEF" width="3" height="0.5"/>
        <rect x="138" y="91.2" fill="#EFEFEF" width="3" height="0.5"/>
        <rect x="138" y="16.2" fill="white" width="3" height="75"/>
        <rect x="138" y="15.7" fill="#EFEFEF" width="3" height="0.5"/>
        <rect x="138" y="15.2" fill="#EFEFEF" width="3" height="0.5"/>
        <path fill="#E2E5E7" d="M141,1.4v13.9h-3V4.3l2.8-2.6C140.9,1.6,141,1.5,141,1.4z"/>
        <path fill="#E2E5E7" d="M141,1v0.4c0,0.1-0.1,0.3-0.2,0.4L138,4.3V1H141z"/>
        <path fill="#E2E5E7" d="M1.5,2.8l-1.1-1c-0.5-0.5-0.2-1.3,0.5-1.3h139.3c0.4,0,0.7,0.3,0.8,0.6h-3v3.3l-11.7,10.9h-2.2l12.8-12
    c0.5-0.5,0.2-1.3-0.5-1.3H4.7c-0.7,0-1,0.9-0.5,1.3l53.2,49.7L57.3,53c-0.3,0.3-0.7,0.6-1,0.9L1.5,2.8z"/>
        <path fill="#EFEFEF" d="M138,91.7v0.5h-9c-0.2-0.2-0.4-0.3-0.6-0.5H138z"/>
        <path fill="#EFEFEF" d="M138,91.2v0.5h-9.6c-0.2-0.2-0.4-0.3-0.6-0.5H138z"/>
        <path fill="white" d="M138,16.2v75h-10.2C115.2,80.6,95.4,63.8,84.8,54l40.4-37.7H138z"/>
        <polygon fill="#EFEFEF" points="138,15.7 138,16.2 125.3,16.2 125.8,15.7 		"/>
        <polygon fill="#EFEFEF" points="138,15.2 138,15.7 125.8,15.7 126.3,15.2 		"/>
        <polygon fill="white" points="138,4.3 138,15.2 126.3,15.2 		"/>
        <path fill="#E2E5E7" d="M136.4,1.9c0.7,0,1,0.9,0.5,1.3l-12.8,12h-2.2l11.2-10.5c0.5-0.5,0.2-1.3-0.5-1.3H8.5c-0.7,0-1,0.9-0.5,1.3
    l56.4,52.7c3.4,3.2,8.9,3.2,12.3,0l5.2-4.8v0.3l-5.2,4.8h0c-3.4,3.2-8.9,3.2-12.3,0l-5.5-5.2c-0.3-0.3-0.8-0.3-1.1,0l-0.4,0.4
    L4.2,3.2C3.7,2.8,4,1.9,4.7,1.9H136.4z"/>
        <path fill="#E2E5E7" d="M136.6,100.6c0.6,0.5,0.2,1.5-0.5,1.5h-50h-31h-50c-0.8,0-1.1-1-0.5-1.5c7.7-6.4,38.6-32.3,52.9-45.6l5,4.6
    c2.3,2.1,5.2,3.2,8.2,3.2c3,0,5.9-1.1,8.2-3.2l3.1-2.9V57l-3.1,2.9c-4.5,4.3-11.9,4.3-16.4,0l-3.5-3.3c-0.3-0.3-0.8-0.3-1,0
    c-13,12.1-38.6,33.7-49.3,42.6c-0.6,0.5-0.2,1.4,0.5,1.4h123.1c0.7,0,1.1-0.9,0.5-1.4c-2.2-1.8-5.1-4.3-8.3-7h2.3
    C131.1,96,134.6,99,136.6,100.6z"/>
        <path fill="white" d="M132.6,3.4c0.7,0,1.1,0.9,0.5,1.3l-11.2,10.5H86.7c-2.6,0-4.8,2-4.8,4.4v33l-5.2,4.8c-3.4,3.2-8.9,3.2-12.3,0
    L8,4.7C7.5,4.3,7.8,3.4,8.5,3.4H132.6z"/>
        <path fill="white" d="M132.6,99.2c0.6,0.5,0.2,1.4-0.5,1.4H9c-0.7,0-1.1-0.9-0.5-1.4c10.7-8.9,36.3-30.5,49.3-42.6
    c0.3-0.3,0.8-0.3,1,0l3.5,3.3c4.5,4.3,11.9,4.3,16.4,0l3.1-2.9v30.8c0,2.4,2.1,4.4,4.8,4.4h37.7C127.6,95,130.4,97.4,132.6,99.2z"
        />
        <path fill="#E2E5E7" d="M129,92.2h-2.3c-0.2-0.2-0.4-0.3-0.6-0.5h2.3C128.6,91.9,128.8,92.1,129,92.2z"/>
        <path fill="#E2E5E7" d="M128.4,91.7H126c-0.2-0.2-0.4-0.3-0.6-0.5h2.3C128,91.4,128.2,91.6,128.4,91.7z"/>
        <path fill="#E2E5E7" d="M127.8,91.2h-2.3C112.8,80.6,94,64.6,83.8,55l1.1-1C95.4,63.8,115.2,80.6,127.8,91.2z"/>
        <path fill="#E2E5E7" d="M126.6,92.2h-2.3c-0.2-0.2-0.4-0.3-0.6-0.5h2.3C126.2,91.9,126.4,92.1,126.6,92.2z"/>
        <polygon fill="#E2E5E7" points="126.3,15.2 125.8,15.7 123.6,15.7 124.1,15.2 		"/>
        <path fill="#E2E5E7" d="M126,91.7h-2.3c-0.2-0.2-0.4-0.3-0.6-0.5h2.3C125.6,91.4,125.8,91.6,126,91.7z"/>
        <polygon fill="#E2E5E7" points="125.8,15.7 125.3,16.2 123.1,16.2 123.6,15.7 		"/>
        <path fill="#E2E5E7" d="M125.4,91.2h-2.3c-12.4-10.4-29.8-25.3-39.8-34.6c-0.1-0.1-0.3-0.2-0.4-0.2v-0.7l0.8-0.8
    C94,64.6,112.8,80.6,125.4,91.2z"/>
        <path fill="#E2E5E7" d="M125.3,16.2L84.8,54c-0.3-0.3-0.7-0.6-1-0.9l-0.1-0.1l39.3-36.7H125.3z"/>
        <path fill="white" d="M124.3,92.2H86.7c-2.6,0-4.8-2-4.8-4.4V57l0.4-0.4c0,0,0.1-0.1,0.1-0.1v31.3c0,2.2,1.9,3.9,4.3,3.9h37
    C123.9,91.9,124.1,92.1,124.3,92.2z"/>
        <polygon fill="#E2E5E7" points="124.1,15.2 123.6,15.7 121.4,15.7 121.9,15.2 		"/>
        <path fill="white" d="M123.7,91.7h-37c-2.3,0-4.3-1.8-4.3-3.9V56.6c0.2-0.1,0.3-0.1,0.5-0.1v31.4c0,1.9,1.7,3.4,3.8,3.4h36.5
    C123.3,91.4,123.5,91.6,123.7,91.7z"/>
        <polygon fill="#E2E5E7" points="123.6,15.7 123.1,16.2 120.9,16.2 121.4,15.7 		"/>
        <path fill="white" d="M123.1,91.2H86.7c-2.1,0-3.8-1.5-3.8-3.4V56.5c0.2,0,0.3,0.1,0.4,0.2C93.3,65.9,110.7,80.8,123.1,91.2z"/>
        <path fill="#E2E5E7" d="M123.1,16.2L83.8,52.9l-0.4-0.4c-0.1-0.1-0.3-0.2-0.4-0.2v-0.7l38-35.5H123.1z"/>
        <path fill="white" d="M121.9,15.2l-0.5,0.5H86.7c-2.3,0-4.3,1.8-4.3,3.9v32.5l-0.5,0.5v-33c0-2.4,2.1-4.4,4.8-4.4H121.9z"/>
        <path fill="white" d="M121.4,15.7l-0.5,0.5H86.7c-2.1,0-3.8,1.5-3.8,3.4v32.1l-0.5,0.5V19.6c0-2.1,1.9-3.9,4.3-3.9H121.4z"/>
        <path fill="white" d="M120.9,16.2l-38,35.5V19.6c0-1.9,1.7-3.4,3.8-3.4H120.9z"/>
        <path fill="#E2E5E7" d="M84.8,54l-1.1,1c-0.1-0.1-0.3-0.2-0.4-0.3c-0.1-0.1-0.3-0.2-0.5-0.2v-0.7l0.8-0.8l0.1,0.1
    C84.2,53.3,84.5,53.6,84.8,54z"/>
        <path fill="#E2E5E7" d="M83.3,52.6l0.4,0.4l-0.8,0.8v-1.4C83.1,52.4,83.2,52.4,83.3,52.6z"/>
        <path fill="#E2E5E7" d="M83.8,55l-0.8,0.8v-1.3c0.2,0,0.3,0.1,0.5,0.2C83.5,54.8,83.6,54.9,83.8,55z"/>
        <path fill="#E2E5E7" d="M82.9,55.8v0.7c-0.2,0-0.3,0-0.5,0.1v-0.3L82.9,55.8z"/>
        <path fill="#E2E5E7" d="M82.9,54.4v1.3l-0.5,0.5v-1.7C82.6,54.4,82.7,54.4,82.9,54.4z"/>
        <path fill="#E2E5E7" d="M82.9,53.7v0.7c-0.2,0-0.3,0-0.5,0.1v-0.3L82.9,53.7z"/>
        <path fill="#E2E5E7" d="M82.9,52.3v1.4l-0.5,0.5v-1.7C82.6,52.4,82.7,52.3,82.9,52.3z"/>
        <path fill="#E2E5E7" d="M82.9,51.7v0.7c-0.2,0-0.3,0-0.5,0.1v-0.3L82.9,51.7z"/>
        <path fill="#E2E5E7" d="M82.4,56.2v0.3c0,0-0.1,0-0.1,0.1L81.9,57v-0.3L82.4,56.2z"/>
        <path fill="#E2E5E7" d="M82.4,54.5v1.7l-0.5,0.5V55l0.3-0.3C82.3,54.6,82.3,54.6,82.4,54.5z"/>
        <path fill="#E2E5E7" d="M82.4,54.2v0.3c-0.1,0-0.1,0.1-0.2,0.1L81.9,55v-0.3L82.4,54.2z"/>
        <path fill="#E2E5E7" d="M82.4,52.5v1.7l-0.5,0.5v-1.7l0.4-0.4C82.3,52.5,82.4,52.5,82.4,52.5z"/>
        <path fill="#E2E5E7" d="M82.4,52.1v0.3c0,0-0.1,0-0.1,0.1l-0.4,0.4v-0.3L82.4,52.1z"/>
        <path fill="#E2E5E7" d="M81.9,55v1.7l-3.1,2.9c-2.3,2.1-5.2,3.2-8.2,3.2c-3,0-6-1.1-8.2-3.2l-5-4.6c0.1-0.1,0.3-0.2,0.4-0.4
    c0.3-0.3,0.8-0.3,1.1,0l4.5,4.2c4,3.8,10.4,3.8,14.4,0L81.9,55z"/>
        <path fill="#E2E5E7" d="M81.9,54.7V55l-4.1,3.9c-4,3.8-10.4,3.8-14.4,0l-4.5-4.2c-0.3-0.3-0.8-0.3-1.1,0c-0.1,0.1-0.2,0.2-0.4,0.4
    l-1.1-1c0.4-0.3,0.7-0.6,1-0.9l0.1-0.1l6,5.6c4,3.8,10.4,3.8,14.4,0L81.9,54.7z"/>
        <path fill="#E2E5E7" d="M81.9,52.9v1.7l-4.1,3.9c-4,3.8-10.4,3.8-14.4,0l-6-5.6l0.4-0.4c0.3-0.3,0.8-0.3,1.1,0l5.5,5.2
    c3.4,3.2,8.9,3.2,12.3,0h0L81.9,52.9z"/>
        <path fill="white" d="M1.5,2.8L56.3,54C40.1,69.1,2.2,100.6,1.8,101l-0.3,0.2V2.8z"/>
      </g>
      <g>
        <polyline fill="none" stroke="#E2E5E7" stroke-width="3" stroke-miterlimit="10" points="1.5,1 1.5,2.8 1.5,101.2 1.5,103 		"/>
      </g>
    </g>
    <g id="XMLID_22_">
      <g>
        <path fill="#4EA31E" d="M20.1,11.4c7.2,0,13.1,5.9,13.1,13.1c0,7.2-5.9,13.1-13.1,13.1C12.8,37.6,7,31.7,7,24.5
    C7,17.3,12.8,11.4,20.1,11.4z M17.7,31.2l10.6-10.6l-1.9-1.9l-8.6,8.6l-3.8-3.8l-1.9,1.9L17.7,31.2z"/>
        <polygon fill="white" points="28.2,20.7 17.7,31.2 11.9,25.5 13.8,23.6 17.7,27.4 26.3,18.8 		"/>
      </g>
    </g>
    <g>
      <g>
        <g>
          <circle fill="#F49530" cx="180.5" cy="26.7" r="2.5"/>
          <path fill="#F49530" d="M184,31.9v-1.3H177v1.3c0.5,0,0.9,0.4,1.2,0.9v6c-0.2,0.5-0.6,0.9-1.2,0.9v1.2h6.9v-1.2
      c-0.5,0-0.9-0.4-1.2-0.9v-6C183,32.4,183.4,31.9,184,31.9z"/>
        </g>
      </g>
      <rect x="121.2" y="27.6" fill="#CECECE" width="32.7" height="3.9"/>
      <rect x="121.2" y="33" fill="#E5E5E5" width="44.3" height="3.6"/>
      <rect x="121.2" y="38.4" fill="#E5E5E5" width="40.4" height="3.6"/>
      <rect x="121.2" y="43.7" fill="#E5E5E5" width="44.3" height="3.6"/>
      <rect x="121.2" y="60" fill="#CECECE" width="43.1" height="3.9"/>
      <rect x="121.2" y="65.4" fill="#E5E5E5" width="33.8" height="3.6"/>
      <rect x="121.2" y="70.7" fill="#E5E5E5" width="38.5" height="3.6"/>
      <rect x="121.2" y="76.1" fill="#E5E5E5" width="35" height="3.6"/>
    </g>
  </symbol>
  <symbol id="fill-form" viewBox="0 0 180 180">
    <circle fill="#B9DBF0" cx="90" cy="90" r="90"/>
    <path fill="white" d="M142.14,137.59H37.86c-1,0-1.82-0.81-1.82-1.82V41.63c0-1,0.81-1.82,1.82-1.82h104.28c1,0,1.82,0.81,1.82,1.82
      v94.15C143.96,136.78,143.15,137.59,142.14,137.59z"/>
    <path fill="#359B1D" d="M143.96,54.167H36.04V40.833c0-1.025,0.831-1.856,1.856-1.856H142.67c0.712,0,1.29,0.577,1.29,1.29V54.167z"/>
    <path fill="white" d="M79.12,45.06H45.33c-0.87,0-1.58,0.71-1.58,1.58s0.71,1.58,1.58,1.58h33.79c0.87,0,1.58-0.71,1.58-1.58
          C80.7,45.77,79.99,45.06,79.12,45.06z"/>
    <path fill="#E5E5E5" d="M79.075,73.875h-24.26c-1.208,0-2.187-0.979-2.187-2.188v0c0-1.208,0.979-2.187,2.187-2.187h24.26
        c1.208,0,2.187,0.979,2.187,2.187v0C81.263,72.896,80.283,73.875,79.075,73.875z"/>
    <path fill="#E5E5E5" d="M79.075,83.798h-24.26c-1.208,0-2.187-0.979-2.187-2.188l0,0c0-1.208,0.979-2.188,2.187-2.188h24.26
        c1.208,0,2.187,0.979,2.187,2.188l0,0C81.263,82.818,80.283,83.798,79.075,83.798z"/>
    <path fill="#E5E5E5" d="M79.075,93.618h-24.26c-1.208,0-2.187-0.979-2.187-2.188l0,0c0-1.208,0.979-2.188,2.187-2.188h24.26
        c1.208,0,2.187,0.979,2.187,2.188l0,0C81.263,92.638,80.283,93.618,79.075,93.618z"/>
    <path fill="#E5E5E5" d="M79.075,103.4h-24.26c-1.208,0-2.187-0.979-2.187-2.188l0,0c0-1.208,0.979-2.188,2.187-2.188h24.26
        c1.208,0,2.187,0.979,2.187,2.188l0,0C81.263,102.421,80.283,103.4,79.075,103.4z"/>
    <path fill="#E5E5E5" d="M123.634,103.4H96.301c-2.065,0-3.738-1.674-3.738-3.738V73.238c0-2.065,1.674-3.738,3.738-3.738h27.333
        c2.065,0,3.738,1.674,3.738,3.738v26.423C127.372,101.726,125.699,103.4,123.634,103.4z"/>
    <path fill="#359B1D" d="M86.979,120.333H56.711c-2.255,0-4.083-1.828-4.083-4.083v0c0-2.255,1.828-4.083,4.083-4.083h30.268
        c2.255,0,4.083,1.828,4.083,4.083v0C91.063,118.505,89.234,120.333,86.979,120.333z"/>
    <polygon fill="white" stroke="darkgray" stroke-width="3" stroke-linecap="round" stroke-linejoin="round" stroke-miterlimit="10" points="109.5,88.197 116.479,114.01 123.563,107.052 135.521,118.885 140.167,114.093 128.75,102.004
      135.396,94.947 "/>
  </symbol>
  <symbol id="calendar" viewBox="0 0 508 508">
    <circle fill="#B9DBF0" cx="254" cy="254" r="254"/>
    <path fill="white" d="M391.6,401.2H116.4c-11.2,0-20-9.2-20-20V126.8c0-11.2,9.2-20,20-20h275.2c11.2,0,20,9.2,20,20v254
	C411.6,392,402.8,401.2,391.6,401.2z"/>
    <path fill="#4ea31e" d="M411.6,168v-41.2c0-11.2-8.8-20-20-20H116.4c-11.2,0-20,8.8-20,20V168H411.6z"/>
    <rect x="183.2" y="259.6" fill="#F69530" width="31.6" height="31.6"/>
    <g>
      <rect x="183.2" y="207.2" fill="#e5e5e5" width="31.6" height="31.6"/>
      <rect x="238" y="207.2"   fill="#e5e5e5" width="31.6" height="31.6"/>
      <rect x="293.2" y="207.2" fill="#e5e5e5" width="31.6" height="31.6"/>
      <rect x="348" y="207.2"   fill="#e5e5e5" width="31.6" height="31.6"/>
      <rect x="128.4" y="259.6" fill="#e5e5e5" width="31.6" height="31.6"/>
      <rect x="238" y="259.6"   fill="#e5e5e5" width="31.6" height="31.6"/>
      <rect x="293.2" y="259.6" fill="#e5e5e5" width="31.6" height="31.6"/>
      <rect x="348" y="259.6"   fill="#e5e5e5" width="31.6" height="31.6"/>
      <rect x="128.4" y="312"   fill="#e5e5e5" width="31.6" height="31.6"/>
      <rect x="183.2" y="312"   fill="#e5e5e5" width="31.6" height="31.6"/>
      <rect x="238" y="312"     fill="#e5e5e5" width="31.6" height="31.6"/>
      <rect x="293.2" y="312"   fill="#e5e5e5" width="31.6" height="31.6"/>
    </g>
    <g>
      <circle fill="#B9DBF0" cx="343.6" cy="137.2" r="14.4"/>
      <circle fill="#B9DBF0" cx="164.4" cy="137.2" r="14.4"/>
    </g>
  </symbol>
  <symbol id="invoice" viewBox="0 0 180 180">
    <circle fill="#B9DBF0" cx="90" cy="90" r="90"/>
    <path id="SVGCleanerId_0_3_" fill="#E6E7E8" d="M60.8,35.13c-4.3,0-7.78,3.48-7.78,7.78v81.71l54.5,0.02v13.2
      c0,5.08,3.71,9.62,8.77,10.1c5.8,0.55,10.69-3.99,10.69-9.68v-36.97v-46.7v-9.73c0-5.37,4.35-9.73,9.73-9.73H60.8z"/>
    <path id="SVGCleanerId_0_2_" fill="white" d="M60.8,35.13c-4.3,0-7.78,3.48-7.78,7.78v81.71l54.5,0.02v13.2
        c0,5.08,3.71,9.62,8.77,10.1c5.8,0.55,10.69-3.99,10.69-9.68v-36.97v-46.7v-9.73c0-5.37,4.35-9.73,9.73-9.73H60.8z"/>
    <path fill="#E5E5E5" d="M136.7,35.13L136.7,35.13c-5.37,0-9.73,4.36-9.73,9.73V58.5h15.55c2.16,0,3.91-1.75,3.91-3.91v-9.73
        C146.43,39.49,142.07,35.13,136.7,35.13"/>
    <path fill="#E5E5E5" d="M117.24,147.99L117.24,147.99c-5.37,0-9.73-4.36-9.73-9.73v-13.62l-70.03-0.02c-2.16,0-3.91,1.75-3.91,3.91
        v9.73c0,5.37,4.36,9.73,9.73,9.73H117.24L117.24,147.99z"/>
    <path fill="#E5E5E5" d="M101.67,48.75H78.33c-1.07,0-1.95-0.87-1.95-1.95s0.87-1.95,1.95-1.95h23.35c1.07,0,1.95,0.87,1.95,1.95
        S102.75,48.75,101.67,48.75"/>
    <path fill="#E5E5E5" d="M115.3,60.43H64.7c-1.07,0-1.95-0.87-1.95-1.95c0-1.08,0.87-1.95,1.95-1.95h50.59c1.07,0,1.95,0.87,1.95,1.95
        C117.24,59.56,116.37,60.43,115.3,60.43"/>
    <path fill="#E5E5E5" d="M115.3,72.1H64.7c-1.07,0-1.95-0.87-1.95-1.95c0-1.08,0.87-1.95,1.95-1.95h50.59c1.07,0,1.95,0.87,1.95,1.95
        C117.24,71.23,116.37,72.1,115.3,72.1"/>
    <path fill="#E5E5E5" d="M87.99,83.77H64.7c-1.07,0-1.95-0.87-1.95-1.95c0-1.08,0.87-1.95,1.95-1.95h23.29c1.07,0,1.95,0.87,1.95,1.95
        C89.94,82.91,89.07,83.77,87.99,83.77"/>
    <path fill="#E5E5E5" d="M80.66,95.45H64.7c-1.07,0-1.95-0.87-1.95-1.95c0-1.08,0.87-1.95,1.95-1.95h15.96c1.07,0,1.95,0.87,1.95,1.95
        C82.61,94.58,81.74,95.45,80.66,95.45"/>
    <path fill="#E5E5E5" d="M81.89,107.12H64.7c-1.07,0-1.95-0.87-1.95-1.95s0.87-1.95,1.95-1.95h17.19c1.07,0,1.95,0.87,1.95,1.95
        S82.97,107.12,81.89,107.12"/>
    <path fill="#359B1D" d="M131.19,97.4c0-10.75-8.71-19.46-19.46-19.46S92.27,86.65,92.27,97.4s8.71,19.46,19.46,19.46
      S131.19,108.14,131.19,97.4"/>
    <path fill="white" d="M113.25,87.48h-6.41c-0.6,0-1.12,0.52-1.12,1.15v14.35h-1.3c-0.55,0-1,0.45-1,1s0.45,1,1,1h1.3v1.62
      c0,0.63,0.52,1.15,1.12,1.15c0.63,0,1.15-0.52,1.15-1.15v-1.62h4.88c0.55,0,1-0.45,1-1s-0.45-1-1-1h-4.88v-2.47h4.89
      c4.28,0,7.91-2.24,7.91-6.58v-0.06C120.79,89.9,117.79,87.48,113.25,87.48z M118.49,94.01c0,2.64-2.19,4.43-5.52,4.43h-4.97v-8.85
      h5.09c3.25,0,5.41,1.49,5.41,4.37V94.01z"/>
  </symbol>
  <symbol id="shipping" viewBox="0 0 180 180">
    <circle fill="#B9DBF0" cx="90" cy="90" r="90"/>
    <rect x="43.19" y="98.72"  fill="#359B1D" width="18.72" height="32.77"/>
    <rect x="29.14" y="101.06" fill="#4EA31E" width="14.04" height="28.08"/>
    <path fill="#fed298" d="M61.91,127.09l20.7,8.59c8.98,3.66,19.01,3.77,28.07,0.31l36.15-13.78c3.25-1.27,4.86-4.93,3.59-8.18
        c-0.01-0.02-0.01-0.03-0.02-0.05l0,0c-1.22-3.17-4.78-4.76-7.95-3.54c-0.06,0.02-0.12,0.05-0.17,0.07l-19.57,8.31
        c-1.08,0.44-2.22,0.72-3.38,0.83c3.15-0.7,5.14-3.83,4.44-6.98c-0.59-2.67-2.95-4.56-5.68-4.58H99.92c-2.2,0-4.37-0.51-6.34-1.5
        c-7.27-3.63-15.28-5.53-23.4-5.53h-8.27L61.91,127.09L61.91,127.09z"/>
    <path fill="#f0ba7d" d="M93.6,106.58c1.97,0.98,4.14,1.5,6.34,1.5h18.15c3.23,0,5.85,2.62,5.85,5.85c0,0.8-0.17,1.59-0.5,2.32
          c-0.93-2.12-3.03-3.49-5.35-3.49H99.93c-2.2,0-4.37-0.51-6.34-1.5c-7.27-3.63-15.28-5.53-23.4-5.53h-8.28v-4.68h8.28
          C78.31,101.05,86.33,102.94,93.6,106.58z"/>
    <path fill="#f0ba7d" d="M150.41,113.96L150.41,113.96c0.59,1.5,0.58,3.17-0.01,4.66c-1.23-3.17-4.8-4.73-7.97-3.5
          c-0.05,0.02-0.1,0.04-0.15,0.06l-19.57,8.31c-1.51,0.64-3.13,0.97-4.77,0.97H89.99v-4.69h27.95c1.64,0,3.26-0.33,4.77-0.97
          l19.57-8.31c3.13-1.32,6.74,0.16,8.05,3.29C150.36,113.85,150.38,113.9,150.41,113.96z"/>
    <path fill="#fbb03b" d="M121.49,84.4H51.31c-3.09,0-5.59-2.5-5.59-5.59V50.84c0-3.09,2.5-5.59,5.59-5.59l70.18,0
        c0.77,0,1.4,0.63,1.4,1.4V83C122.88,83.78,122.26,84.4,121.49,84.4z"/>
    <path fill="#F49530" d="M122.88,81.61l0-33.56h3.23c0.67,0,1.22,0.55,1.22,1.22l0,31.12c0,0.67-0.55,1.22-1.22,1.22L122.88,81.61z"/>
    <path fill="#F49530" d="M121.49,84.4l-2.81,0l0-39.16l2.81,0c0.77,0,1.4,0.63,1.4,1.4v36.36C122.88,83.78,122.26,84.4,121.49,84.4z"
        />
    <path fill="#B9DBF0" d="M52.54,76.14l0-22.64c0-1.01,0.82-1.83,1.83-1.83h0.53c1.01,0,1.83,0.82,1.83,1.83v22.64
        c0,1.01-0.82,1.83-1.83,1.83h-0.53C53.36,77.97,52.54,77.16,52.54,76.14z"/>
    <rect x="127.33" y="50.6"  fill="white" width="17.28" height="28.47"/>
    <rect x="136.62" y="53.81" fill="darkgray" width="4" height="7.11"/>
    <rect x="136.62" y="68.75" fill="darkgray" width="4" height="7.11"/>
    <rect x="127.33" y="64.14" fill="darkgray" width="17.28" height="1.4"/>
  </symbol>
</svg>
