<?xml version="1.0" encoding="utf-8"?>
<svg baseProfile="full" xmlns="http://www.w3.org/2000/svg" xmlns:xlink="http://www.w3.org/1999/xlink" style="display: none">

  <symbol id="scanner-doc" width="25" height="28" viewBox="0 0 25 28">
    <path d="M20.0667 0H0.466766C0.208923 0 0 0.208923 0 0.466766V27.5332C0 27.7911 0.208923 28 0.466766 28H20.0667C20.3245 28 20.5334 27.7911 20.5334 27.5332V15.1266L22.7299 12.93L24.5966 11.0633C24.7788 10.8811 24.7788 10.5857 24.5966 10.4034L23.1967 9.00336C23.0145 8.82114 22.719 8.82114 22.5368 9.00336L20.67 10.87L20.5332 11.0067V0.466766C20.5334 0.208923 20.3245 0 20.0667 0V0ZM19.5999 11.9402L18.6666 12.8736V2.3334C18.6666 2.07556 18.4577 1.86664 18.2 1.86664H14.4668V0.933319H19.5999V11.9402ZM11.3368 20.2034C11.3156 20.2286 11.2972 20.2562 11.2821 20.2854C11.2729 20.3 11.2569 20.3089 11.249 20.3247L9.84909 23.1247C9.73181 23.3543 9.82303 23.6353 10.0525 23.7525C10.1851 23.8203 10.3423 23.8205 10.4752 23.7534L13.2752 22.3533C13.291 22.3454 13.3 22.3296 13.3145 22.3202C13.3438 22.305 13.3713 22.2867 13.3965 22.2655L17.7333 17.9264V25.1998H2.79996V2.79996H6.06668V4.20004C6.06668 4.45767 6.2756 4.6666 6.53345 4.6666H14C14.2578 4.6666 14.4668 4.45767 14.4668 4.20004V2.79996H17.7333V13.8069L11.3368 20.2034ZM11.7946 21.3234L12.2791 21.8077L11.3103 22.2922L11.7946 21.3234ZM13.5332 0.933319V3.73328H7V0.933319H13.5332ZM19.5999 27.0667H0.933319V0.933319H6.06668V1.86664H2.3334C2.07556 1.86664 1.86664 2.07556 1.86664 2.3334V25.6666C1.86664 25.9244 2.07556 26.1334 2.3334 26.1334H18.2C18.4579 26.1334 18.6668 25.9244 18.6668 25.6666V16.9933L19.6001 16.0598V27.0667H19.5999ZM19.7368 14.6035L17.87 16.4701L13.0667 21.2734L12.3265 20.5334L21 11.8599L21.7402 12.6001L19.7368 14.6035ZM22.8666 9.99329L23.6068 10.7333L22.4001 11.9402L21.6599 11.2L22.8666 9.99329Z" fill="#52A81F"/>
    <path d="M15.7291 9.9368C15.5469 9.75479 15.2515 9.75479 15.0692 9.9368L9.82585 15.1804L7.35253 12.2963C7.17757 12.107 6.88234 12.0955 6.69307 12.2702C6.51363 12.436 6.49227 12.7118 6.64415 12.903L9.44411 16.1697C9.52849 16.2682 9.65026 16.3271 9.77993 16.332H9.79915C9.92284 16.332 10.0416 16.2829 10.129 16.1953L15.7291 10.5954C15.9103 10.4132 15.9103 10.119 15.7291 9.9368Z" fill="#52A81F"/>
  </symbol>

  <symbol id="scanner-buch" width="50" height="50" viewBox="0 0 40 40">
   <path d="M15.0323 23.1613H17.7419V16.8387H15.0323V23.1613ZM15.9355 17.7419H16.8387V22.2581H15.9355V17.7419ZM11.4194 23.1613H14.129V20.4516H11.4194V23.1613ZM12.3226 21.3548H13.2258V22.2581H12.3226V21.3548ZM11.4194 19.5484H14.129V16.8387H11.4194V19.5484ZM12.3226 17.7419H13.2258V18.6452H12.3226V17.7419ZM7.80645 23.1613H10.5161V20.4516H7.80645V23.1613ZM8.70968 21.3548H9.6129V22.2581H8.70968V21.3548ZM7.80645 19.5484H10.5161V16.8387H7.80645V19.5484ZM8.70968 17.7419H9.6129V18.6452H8.70968V17.7419ZM11.4194 15.9355H14.129V13.2258H11.4194V15.9355ZM12.3226 14.129H13.2258V15.0323H12.3226V14.129ZM15.0323 15.9355H17.7419V13.2258H15.0323V15.9355ZM15.9355 14.129H16.8387V15.0323H15.9355V14.129ZM7.80645 15.9355H10.5161V13.2258H7.80645V15.9355ZM8.70968 14.129H9.6129V15.0323H8.70968V14.129ZM7.80645 12.3226H17.7419V7.80645H7.80645V12.3226ZM8.70968 8.70968H16.8387V11.4194H8.70968V8.70968ZM32.1935 15.0323H19.5484V7.35484C19.5484 6.60796 18.9404 6 18.1935 6H7.35484C6.60796 6 6 6.60796 6 7.35484V23.6129C6 24.3598 6.60796 24.9677 7.35484 24.9677H13.2258V32.1935H21.4005C21.61 33.2227 22.5227 34 23.6129 34C24.7031 34 25.6158 33.2227 25.8253 32.1935H34V16.8387H32.1935V15.0323ZM31.2903 15.9355V29.4839H24.0645V15.9355H31.2903ZM23.1613 15.9355V29.4839H15.9355V24.9677H22.2581V24.0645H19.4653C19.516 23.9227 19.5484 23.7719 19.5484 23.6129V23.1613H22.2581V22.2581H19.5484V21.3548H22.2581V20.4516H19.5484V19.5484H22.2581V18.6452H19.5484V17.7419H22.2581V16.8387H19.5484V15.9355H23.1613ZM6.90323 23.6129V7.35484C6.90323 7.10566 7.1061 6.90323 7.35484 6.90323H18.1935C18.4423 6.90323 18.6452 7.10566 18.6452 7.35484V23.6129C18.6452 23.8621 18.4423 24.0645 18.1935 24.0645H7.35484C7.1061 24.0645 6.90323 23.8621 6.90323 23.6129ZM33.0968 17.7419V31.2903H24.9677V31.7419C24.9677 32.4888 24.3598 33.0968 23.6129 33.0968C22.866 33.0968 22.2581 32.4888 22.2581 31.7419V31.2903H14.129V24.9677H15.0323V30.3871H32.1935V17.7419H33.0968ZM28.5806 22.2581C28.5806 21.7599 28.1756 21.3548 27.6774 21.3548C26.6811 21.3548 25.871 20.5447 25.871 19.5484C25.871 18.7089 26.4489 18.0079 27.2258 17.8061V16.8387H28.129V17.8061C28.9059 18.0079 29.4839 18.7089 29.4839 19.5484H28.5806C28.5806 19.0502 28.1756 18.6452 27.6774 18.6452C27.1793 18.6452 26.7742 19.0502 26.7742 19.5484C26.7742 20.0465 27.1793 20.4516 27.6774 20.4516C28.6737 20.4516 29.4839 21.2618 29.4839 22.2581C29.4839 23.0976 28.9059 23.7986 28.129 24.0003V24.9677H27.2258V24.0003C26.4489 23.7986 25.871 23.0976 25.871 22.2581H26.7742C26.7742 22.7562 27.1793 23.1613 27.6774 23.1613C28.1756 23.1613 28.5806 22.7562 28.5806 22.2581ZM30.3871 26.7742H24.9677V25.871H30.3871V26.7742ZM24.9677 28.5806V27.6774H30.3871V28.5806H24.9677ZM16.8387 25.871H22.2581V26.7742H16.8387V25.871ZM16.8387 27.6774H22.2581V28.5806H16.8387V27.6774Z" fill="#52A81F"/>
  </symbol>

  <symbol id="scanner-sheet" width="40" height="40" viewBox="0 0 40 40">
    <path d="M20.4838 8.18799C20.181 8.18799 19.9375 8.43189 19.9375 8.73432C19.9375 9.01579 20.1493 9.25002 20.4291 9.2778C20.7532 9.30996 21.0302 9.05757 21.0302 8.73432C21.0302 8.43146 20.7863 8.18799 20.4838 8.18799Z" fill="#52A81F"/>
    <path d="M31.4219 9.28125C29.9141 9.28125 28.6875 8.05461 28.6875 6.54688C28.6875 6.24489 28.4426 6 28.1406 6H12.8281C12.5261 6 12.2812 6.24489 12.2812 6.54688C12.2812 8.05461 11.0546 9.28125 9.54688 9.28125C9.24489 9.28125 9 9.52614 9 9.82812V18.7526C9 25.7076 13.5333 31.9396 20.3273 33.977C20.3786 33.9923 20.4314 34 20.4844 34C20.5373 34 20.5903 33.9923 20.6415 33.9769C27.2883 31.9831 31.9688 25.8597 31.9688 18.7526V9.82812C31.9688 9.52614 31.7239 9.28125 31.4219 9.28125ZM30.875 18.7526C30.875 25.2849 26.7067 30.942 20.4844 32.8813C14.3117 30.9575 10.0938 25.2491 10.0938 18.7526V10.3361C11.7678 10.0955 13.0955 8.76779 13.3361 7.09375H27.6327C27.8732 8.76779 29.201 10.0955 30.875 10.3361V18.7526Z" fill="#52A81F"/>
    <path d="M29.4538 11.058C28.3133 10.5586 27.4102 9.65542 26.9107 8.51497C26.8235 8.31602 26.627 8.1875 26.4098 8.1875H22.6708C22.3688 8.1875 22.1239 8.43239 22.1239 8.73438C22.1239 9.03636 22.3688 9.28125 22.6708 9.28125H26.064C26.6418 10.4122 27.5565 11.3269 28.6875 11.9048V18.7526C28.6875 24.1045 25.4747 28.7223 20.4844 30.5708C15.4941 28.7222 12.2812 24.1045 12.2812 18.7526V11.9048C13.4122 11.3269 14.3269 10.4122 14.9048 9.28125H18.298C18.6 9.28125 18.8448 9.03636 18.8448 8.73438C18.8448 8.43239 18.6 8.1875 18.298 8.1875H14.559C14.3418 8.1875 14.1452 8.31607 14.058 8.51497C13.5586 9.65542 12.6554 10.5586 11.515 11.058C11.3161 11.1452 11.1875 11.3418 11.1875 11.559V18.7526C11.1875 24.6158 14.8139 29.7258 20.3019 31.6679C20.3609 31.6888 20.4226 31.6992 20.4844 31.6992C20.5461 31.6992 20.6078 31.6888 20.6668 31.6679C26.1503 29.7274 29.7812 24.6205 29.7812 18.7526V11.559C29.7812 11.3418 29.6527 11.1452 29.4538 11.058Z" fill="#52A81F"/>
    <path d="M20.4844 13.9844C17.7705 13.9844 15.5625 16.1923 15.5625 18.9062C15.5625 21.6202 17.7705 23.8281 20.4844 23.8281C23.1983 23.8281 25.4062 21.6202 25.4062 18.9062C25.4062 16.1923 23.1983 13.9844 20.4844 13.9844ZM20.4844 22.7344C18.3735 22.7344 16.6562 21.0171 16.6562 18.9062C16.6562 16.7954 18.3735 15.0781 20.4844 15.0781C22.5952 15.0781 24.3125 16.7954 24.3125 18.9062C24.3125 21.0171 22.5952 22.7344 20.4844 22.7344Z" fill="#52A81F"/>
    <path d="M23.0586 17.4257C22.845 17.2122 22.4988 17.2122 22.2852 17.4257L19.9375 19.7734L19.2305 19.0664C19.0169 18.8529 18.6707 18.8529 18.457 19.0664C18.2435 19.28 18.2435 19.6263 18.457 19.8399L19.5508 20.9336C19.6577 21.0403 19.7975 21.0938 19.9375 21.0938C20.0775 21.0938 20.2174 21.0403 20.3242 20.9336L23.0586 18.1992C23.2722 17.9856 23.2722 17.6394 23.0586 17.4257Z" fill="#52A81F"/>
  </symbol>

  <symbol id="scanner-scale" width="23" height="28" viewBox="0 0 23 28">
   <path d="M0 4.79442V28H22.5806V0H4.31524L0 4.79442ZM4.06452 1.6285V4.51613H1.46554L4.06452 1.6285ZM21.6774 27.0968H0.903226V5.41935H4.96774V0.903226H21.6774V27.0968ZM20.7742 2.70968H14.4516V1.80645H20.7742V2.70968ZM20.7742 4.51613H10.8387V3.6129H20.7742V4.51613ZM18.9677 6.32258H13.0851C12.6723 5.77747 12.0246 5.41935 11.2903 5.41935C10.556 5.41935 9.90792 5.77747 9.49556 6.32258H3.6129C3.11476 6.32258 2.70968 6.72766 2.70968 7.22581V8.12903C2.70968 8.62717 3.11476 9.03226 3.6129 9.03226H4.81228L3.72845 12.6452H2.70968V13.0968C2.70968 14.3418 3.72272 15.3548 4.96774 15.3548H6.77419C8.01922 15.3548 9.03226 14.3418 9.03226 13.0968V12.6452H8.01348L6.92966 9.03226H9.49512C9.62125 9.19897 9.76877 9.34605 9.93504 9.47218V21.6774H9.48343C8.23841 21.6774 7.22537 22.6905 7.22537 23.9355V24.3871H15.3544V23.9355C15.3544 22.6905 14.3414 21.6774 13.0963 21.6774H12.6447V9.47218C12.8114 9.34605 12.9585 9.19853 13.0846 9.03226H15.6501L14.5663 12.6452H13.5484V13.0968C13.5484 14.3418 14.5614 15.3548 15.8065 15.3548H17.6129C18.8579 15.3548 19.871 14.3418 19.871 13.0968V12.6452H18.8522L17.7684 9.03226H18.9677C19.4659 9.03226 19.871 8.62717 19.871 8.12903V7.22581C19.871 6.72766 19.4659 6.32258 18.9677 6.32258ZM6.77419 14.4516H4.96774C4.37875 14.4516 3.87664 14.0741 3.69008 13.5484H8.05141C7.8653 14.0741 7.36319 14.4516 6.77419 14.4516ZM7.07034 12.6452H4.67159L5.75542 9.03226H5.98652L7.07034 12.6452ZM3.6129 8.12903V7.22581H9.0779C9.04813 7.37179 9.03226 7.52306 9.03226 7.67742C9.03226 7.83178 9.04813 7.98305 9.0779 8.12903H3.6129ZM14.3744 23.4839H8.20621C8.39277 22.9582 8.89488 22.5806 9.48387 22.5806H13.0968C13.6858 22.5806 14.1879 22.9582 14.3744 23.4839ZM11.7419 21.6774H10.8387V9.88984C10.9847 9.91961 11.136 9.93548 11.2903 9.93548C11.4447 9.93548 11.596 9.91961 11.7419 9.88984V21.6774ZM11.2903 9.03226C10.5434 9.03226 9.93548 8.4243 9.93548 7.67742C9.93548 6.93054 10.5434 6.32258 11.2903 6.32258C12.0372 6.32258 12.6452 6.93054 12.6452 7.67742C12.6452 8.4243 12.0372 9.03226 11.2903 9.03226ZM17.6129 14.4516H15.8065C15.2175 14.4516 14.7153 14.0741 14.5288 13.5484H18.8901C18.704 14.0741 18.2019 14.4516 17.6129 14.4516ZM17.9091 12.6452H15.5103L16.5941 9.03226H16.8252L17.9091 12.6452ZM18.9677 8.12903H13.5027C13.5325 7.98305 13.5484 7.83178 13.5484 7.67742C13.5484 7.52306 13.5325 7.37179 13.5027 7.22581H18.9677V8.12903Z" fill="#52A81F"/>
  </symbol>

  <symbol id="scanner-basket" width="40" height="40" viewBox="0 0 40 40">
   <path d="M27.6562 31.0625C27.9581 31.0625 28.2031 30.8175 28.2031 30.5156C28.2031 30.2138 27.9581 29.9688 27.6562 29.9688C27.3544 29.9688 27.1094 30.2138 27.1094 30.5156C27.1094 30.8175 27.3544 31.0625 27.6562 31.0625Z" fill="#52A81F"/>
   <path d="M18.5781 31.0625C18.88 31.0625 19.125 30.8175 19.125 30.5156C19.125 30.2138 18.88 29.9688 18.5781 29.9688C18.2763 29.9688 18.0312 30.2138 18.0312 30.5156C18.0312 30.8175 18.2763 31.0625 18.5781 31.0625Z" fill="#52A81F"/>
   <path d="M33.8841 13.7729C33.7805 13.64 33.6214 13.5625 33.4531 13.5625H13.7654L12.5189 8.26465C12.3433 7.51996 11.6864 7 10.9219 7H7.64062C6.73593 7 6 7.73593 6 8.64062C6 9.54531 6.73593 10.2812 7.64062 10.2812H9.6224L13.6998 27.6103C13.8754 28.355 14.5323 28.8749 15.2969 28.8749H16.3921C16.0479 29.3323 15.8437 29.9005 15.8437 30.5156C15.8437 32.0233 17.0703 33.2499 18.5781 33.2499C20.0858 33.2499 21.3125 32.0233 21.3125 30.5156C21.3125 29.9005 21.1082 29.3323 20.7641 28.8749H25.4702C25.1261 29.3323 24.9218 29.9005 24.9218 30.5156C24.9218 32.0233 26.1485 33.2499 27.6562 33.2499C29.1639 33.2499 30.3906 32.0233 30.3906 30.5156C30.3906 29.9005 30.1863 29.3323 29.8422 28.8749H29.8437C30.7484 28.8749 31.4843 28.139 31.4843 27.2343C31.4843 26.3296 30.7484 25.5937 29.8437 25.5937H16.5963L16.0815 23.4062H19.2873H19.2884H19.2892H27.2732H27.2742H27.2753H30.4115C31.1654 23.4062 31.8201 22.8952 32.0034 22.1634L33.9837 14.242C34.0245 14.0786 33.9878 13.9056 33.8841 13.7729ZM31.9323 17.9375H28.4398L28.8499 14.6562H32.7526L31.9323 17.9375ZM25.4687 19.0312H27.2008L26.7906 22.3125H23.8281V20.6718C23.8281 20.3698 23.5833 20.125 23.2812 20.125C22.9791 20.125 22.7343 20.3698 22.7343 20.6718V22.3125H19.7718L19.3617 19.0312H21.0937C21.3958 19.0312 21.6406 18.7864 21.6406 18.4843C21.6406 18.1823 21.3958 17.9375 21.0937 17.9375H19.2249L18.8148 14.6562H22.7343V16.2969C22.7343 16.5989 22.9791 16.8437 23.2812 16.8437C23.5833 16.8437 23.8281 16.5989 23.8281 16.2969V14.6562H27.7476L27.3375 17.9375H25.4687C25.1666 17.9375 24.9218 18.1823 24.9218 18.4843C24.9218 18.7864 25.1666 19.0312 25.4687 19.0312ZM15.8241 22.3125L15.052 19.0312H18.2594L18.6695 22.3125H15.8241ZM17.7125 14.6562L18.1227 17.9375H14.7946L14.0228 14.6562H17.7125ZM20.2187 30.5156C20.2187 31.4203 19.4828 32.1562 18.5781 32.1562C17.6734 32.1562 16.9375 31.4203 16.9375 30.5156C16.9375 29.6109 17.6734 28.8749 18.5781 28.8749C19.4828 28.8749 20.2187 29.6109 20.2187 30.5156ZM29.2968 30.5156C29.2968 31.4203 28.5609 32.1562 27.6562 32.1562C26.7515 32.1562 26.0156 31.4203 26.0156 30.5156C26.0156 29.6109 26.7515 28.8749 27.6562 28.8749C28.5609 28.8749 29.2968 29.6109 29.2968 30.5156ZM29.8437 26.6875C30.1453 26.6875 30.3906 26.9327 30.3906 27.2343C30.3906 27.536 30.1453 27.7812 29.8437 27.7812H15.2969C15.042 27.7812 14.823 27.6077 14.7645 27.3595L10.4886 9.18749H7.64062C7.33899 9.18749 7.09375 8.94226 7.09375 8.64062C7.09375 8.33899 7.33899 8.09375 7.64062 8.09375H10.9219C11.1767 8.09375 11.3957 8.26721 11.4542 8.51544L14.8551 22.9689C14.8553 22.9698 14.8555 22.9706 14.8557 22.9717L15.7301 26.6875H29.8437ZM30.9424 21.8978C30.8813 22.142 30.6629 22.3125 30.4113 22.3125H27.8929L28.303 19.0312H31.6591L30.9424 21.8978Z" fill="#52A81F"/>
   <path d="M23.2812 17.9375C22.9794 17.9375 22.7344 18.1825 22.7344 18.4844C22.7344 18.7862 22.9794 19.0312 23.2812 19.0312C23.5831 19.0312 23.8281 18.7862 23.8281 18.4844C23.8281 18.1825 23.5831 17.9375 23.2812 17.9375Z" fill="#52A81F"/>
  </symbol>

  <symbol id="scanner-cert" width="20" height="30" viewBox="0 0 20 30">
    <path fill-rule="evenodd" clip-rule="evenodd" d="M19.7484 5.86829C19.7481 5.86188 19.7479 5.85547 19.7474 5.84907C19.7456 5.82366 19.7431 5.79871 19.7381 5.77399C19.7381 5.77399 19.7381 5.77399 19.7381 5.77376C19.733 5.74905 19.7259 5.72456 19.7179 5.70075C19.7158 5.6948 19.7138 5.68885 19.7115 5.6829C19.703 5.66024 19.6934 5.63804 19.6824 5.61652C19.6817 5.61538 19.6813 5.61423 19.6806 5.61309C19.6687 5.59066 19.655 5.56937 19.6401 5.54854C19.6364 5.54328 19.6325 5.53825 19.6286 5.53298C19.6129 5.51238 19.5964 5.49247 19.5778 5.47393L14.2756 0.171661C14.257 0.153122 14.2371 0.136642 14.2165 0.120849C14.2112 0.116958 14.206 0.112839 14.2007 0.109176C14.1799 0.0942992 14.1588 0.0805663 14.1366 0.0688933C14.135 0.0679778 14.1334 0.0675201 14.1321 0.0666045C14.111 0.0556182 14.089 0.046234 14.0668 0.0377654C14.0606 0.0354766 14.0547 0.0334167 14.0483 0.0313567C14.0245 0.0233459 14.0005 0.0162506 13.9755 0.0112152C13.9753 0.0112152 13.975 0.0112152 13.975 0.0112152C13.9506 0.00640868 13.9256 0.0036621 13.9004 0.00183105C13.894 0.00160217 13.8876 0.0011444 13.8812 0.000915526C13.8746 0.000686647 13.8679 0 13.8613 0H0.585937C0.262298 0 0 0.262298 0 0.585937V25.6654C0 25.989 0.262298 26.2513 0.585937 26.2513H9.40749V29.414C9.40749 29.6271 9.5233 29.8235 9.70984 29.9267C9.89661 30.0299 10.1243 30.0238 10.3049 29.9105L12.5365 28.5104L14.7681 29.9105C14.8631 29.97 14.9714 30 15.0796 30C15.1771 30 15.2749 29.9757 15.3632 29.9269C15.5497 29.8237 15.6656 29.6273 15.6656 29.414V26.2513H19.1633C19.487 26.2513 19.7493 25.989 19.7493 25.6654V5.88821C19.7493 5.88157 19.7486 5.87493 19.7484 5.86829ZM14.4472 2.00065L17.7488 5.30227H14.4472V2.00065ZM9.11841 18.0979C9.07721 17.986 9.01015 17.8031 9.00854 17.7282C9.05432 17.6715 9.21317 17.571 9.31044 17.5097C9.51918 17.3778 9.75584 17.2281 9.9275 16.9942C10.1008 16.7578 10.1713 16.4847 10.2335 16.2439C10.2608 16.1387 10.3047 15.9686 10.3422 15.9043C10.3628 15.8999 10.4061 15.8938 10.4873 15.8938C10.5526 15.8938 10.6256 15.8974 10.703 15.9013C10.7918 15.9057 10.8833 15.9102 10.979 15.9102C11.19 15.9102 11.3603 15.8864 11.5148 15.8349C11.7846 15.7452 12.0005 15.5715 12.1909 15.4181C12.2962 15.3335 12.4724 15.1916 12.5338 15.1829C12.6008 15.1916 12.7768 15.3335 12.8821 15.4181C13.0726 15.5715 13.2886 15.7452 13.5585 15.8349C13.713 15.8864 13.883 15.9102 14.0943 15.9102C14.1897 15.9102 14.2815 15.9057 14.3701 15.9013C14.4475 15.8974 14.5205 15.8938 14.5859 15.8938C14.6672 15.8938 14.7102 15.8997 14.731 15.9043C14.7686 15.9686 14.8125 16.1387 14.8395 16.2439C14.9018 16.4847 14.9725 16.7578 15.1458 16.9942C15.3172 17.2281 15.5539 17.3776 15.7628 17.5097C15.8599 17.5712 16.0187 17.6715 16.0645 17.7282C16.0629 17.8031 15.9958 17.986 15.9549 18.0979C15.8677 18.3352 15.769 18.6044 15.769 18.9026C15.769 19.2009 15.8677 19.47 15.9546 19.7076C15.9958 19.8195 16.0629 20.0024 16.0645 20.0773C16.0187 20.134 15.8599 20.2343 15.7628 20.2958C15.5539 20.4277 15.3172 20.5774 15.1458 20.8113C14.9725 21.0477 14.9018 21.3208 14.8395 21.5616C14.8125 21.6666 14.7683 21.8369 14.731 21.9012C14.7102 21.9056 14.6672 21.9117 14.5859 21.9117C14.5205 21.9117 14.4475 21.9081 14.3701 21.9042C14.2815 21.8998 14.1897 21.8953 14.0943 21.8953C13.883 21.8953 13.713 21.9191 13.5585 21.9706C13.2886 22.0603 13.0726 22.2342 12.8821 22.3874C12.7785 22.4711 12.6054 22.6101 12.5365 22.6224C12.4676 22.6101 12.2948 22.4711 12.1911 22.3874C12.0005 22.2342 11.7846 22.0603 11.5148 21.9706C11.3603 21.9191 11.19 21.8953 10.979 21.8953C10.8835 21.8953 10.7918 21.8998 10.703 21.9042C10.6258 21.9081 10.5528 21.9117 10.4873 21.9117C10.4061 21.9117 10.3631 21.9056 10.3422 21.9012C10.3047 21.8369 10.2608 21.6668 10.2335 21.5616C10.1715 21.3208 10.1008 21.0477 9.9275 20.8113C9.75607 20.5774 9.51941 20.4277 9.31044 20.2958C9.21339 20.2345 9.05455 20.134 9.00877 20.0773C9.01038 20.0026 9.07744 19.8195 9.11841 19.7076C9.20561 19.4703 9.30426 19.2011 9.30426 18.9029C9.30426 18.6044 9.20538 18.3352 9.11841 18.0979ZM14.4937 28.3548L12.848 27.3223C12.6576 27.203 12.4154 27.203 12.225 27.3223L10.5794 28.3548V23.0818C10.6416 23.08 10.7027 23.0777 10.762 23.0747C10.8396 23.0706 10.9128 23.0669 10.979 23.0669C11.0829 23.0669 11.1273 23.0765 11.1445 23.0822C11.2143 23.1056 11.3484 23.2136 11.4562 23.3004C11.7297 23.5205 12.0701 23.7945 12.5365 23.7945C13.003 23.7945 13.3433 23.5205 13.6168 23.3004C13.7246 23.2136 13.8588 23.1056 13.9284 23.0825C13.9457 23.0767 13.9902 23.0671 14.0941 23.0671C14.1602 23.0671 14.2335 23.0708 14.311 23.0747C14.3703 23.0777 14.4314 23.0802 14.4935 23.0818V28.3548H14.4937ZM15.6656 25.0795V22.6096C15.8397 22.3729 15.9125 22.0928 15.9741 21.8547C16.0064 21.7298 16.0505 21.5588 16.0908 21.5041C16.1309 21.4492 16.2799 21.3551 16.3886 21.2864C16.677 21.1042 17.0359 20.8774 17.1785 20.4485C17.3195 20.0253 17.1727 19.6254 17.0549 19.3041C17.0013 19.1583 16.9407 18.9928 16.9407 18.9026C16.9407 18.8125 17.0013 18.6472 17.0549 18.5014C17.1727 18.1801 17.3195 17.78 17.1785 17.3568C17.0359 16.9281 16.677 16.7013 16.3886 16.5191C16.2799 16.4504 16.1309 16.3561 16.0908 16.3016C16.0505 16.2467 16.0064 16.0757 15.9741 15.9508C15.8899 15.6246 15.785 15.2186 15.4262 14.9553C15.1405 14.7461 14.8098 14.7219 14.5857 14.7219C14.4909 14.7219 14.3994 14.7265 14.311 14.731C14.2335 14.7349 14.1602 14.7386 14.0943 14.7386C13.9902 14.7386 13.9457 14.729 13.9286 14.7233C13.859 14.7001 13.7249 14.5921 13.6171 14.5051C13.3433 14.2852 13.003 14.0112 12.5365 14.0112C12.0703 14.0112 11.7297 14.2852 11.4562 14.5051C11.3484 14.5919 11.2143 14.7001 11.1447 14.7233C11.1275 14.729 11.0829 14.7386 10.979 14.7386C10.9131 14.7386 10.8396 14.7349 10.762 14.7308C10.6737 14.7265 10.5823 14.7219 10.4873 14.7219C10.2635 14.7219 9.93277 14.7461 9.64735 14.9553C9.28824 15.2186 9.18318 15.6246 9.09895 15.9508C9.06668 16.0757 9.02251 16.2467 8.98245 16.3014C8.94217 16.3561 8.79317 16.4504 8.68445 16.5191C8.39606 16.7013 8.0374 16.9281 7.89458 17.3568C7.75359 17.7802 7.9003 18.1801 8.01818 18.5014C8.07173 18.6472 8.13239 18.8125 8.13239 18.9026C8.13239 18.9928 8.07173 19.1583 8.01818 19.3041C7.9003 19.6254 7.75359 20.0253 7.89458 20.4487C8.0374 20.8774 8.39629 21.1042 8.68445 21.2864C8.7934 21.3551 8.94217 21.4494 8.98245 21.5041C9.02251 21.5588 9.06668 21.7298 9.09895 21.8547C9.16052 22.0928 9.23354 22.3732 9.40771 22.6096V25.0795H1.17187V1.17187H13.2754V5.88821C13.2754 6.21184 13.5377 6.47414 13.8613 6.47414H18.5774V25.0795H15.6656Z" fill="#52A81F"/>
    <path fill-rule="evenodd" clip-rule="evenodd" d="M3.44922 6.47363H10.9982C11.3216 6.47363 11.5841 6.21133 11.5841 5.8877C11.5841 5.56406 11.3216 5.30176 10.9982 5.30176H3.44922C3.12558 5.30176 2.86328 5.56406 2.86328 5.8877C2.86328 6.21133 3.12581 6.47363 3.44922 6.47363Z" fill="#52A81F"/>
    <path fill-rule="evenodd" clip-rule="evenodd" d="M16.3659 8.25977H3.44922C3.12558 8.25977 2.86328 8.52206 2.86328 8.8457C2.86328 9.16934 3.12558 9.43164 3.44922 9.43164H16.3659C16.6896 9.43164 16.9519 9.16934 16.9519 8.8457C16.9519 8.52206 16.6896 8.25977 16.3659 8.25977Z" fill="#52A81F"/>
    <path fill-rule="evenodd" clip-rule="evenodd" d="M14.0222 11.2173H3.44922C3.12558 11.2173 2.86328 11.4798 2.86328 11.8032C2.86328 12.1269 3.12558 12.3892 3.44922 12.3892H14.0222C14.3458 12.3892 14.6081 12.1269 14.6081 11.8032C14.6081 11.4798 14.3458 11.2173 14.0222 11.2173Z" fill="#52A81F"/>
    <path fill-rule="evenodd" clip-rule="evenodd" d="M16.3672 11.2173C16.0445 11.2173 15.7812 11.4805 15.7812 11.8032C15.7812 12.1259 16.0445 12.3892 16.3672 12.3892C16.6901 12.3892 16.9531 12.1259 16.9531 11.8032C16.9531 11.4805 16.6901 11.2173 16.3672 11.2173Z" fill="#52A81F"/>
  </symbol>

  <symbol id="scanner-board" width="28" height="28" viewBox="0 0 28 28">
    <path d="M17.8281 4.92188C17.8281 5.22394 17.5833 5.46875 17.2812 5.46875C16.9792 5.46875 16.7344 5.22394 16.7344 4.92188C16.7344 4.61981 16.9792 4.375 17.2812 4.375C17.5833 4.375 17.8281 4.61981 17.8281 4.92188Z" fill="#52A81F"/>
    <path d="M28 1.64062C28 0.735931 27.2641 0 26.3594 0H1.64062C0.734222 0 0 0.734222 0 1.64062C0 2.35349 0.457153 2.96146 1.09375 3.18726V20.0156H0.546875C0.244812 20.0156 0 20.2604 0 20.5625C0 20.8646 0.244812 21.1094 0.546875 21.1094H13.4531V24.8127C12.8165 25.0385 12.3594 25.6465 12.3594 26.3594C12.3594 27.2641 13.0953 28 14 28C14.9047 28 15.6406 27.2641 15.6406 26.3594C15.6406 25.6465 15.1835 25.0385 14.5469 24.8127V21.1094H27.4531C27.7552 21.1094 28 20.8646 28 20.5625C28 20.2604 27.7552 20.0156 27.4531 20.0156H26.9062V3.18811C27.5292 2.96829 28 2.36972 28 1.64062ZM14 26.9062C13.6984 26.9062 13.4531 26.661 13.4531 26.3594C13.4531 26.0577 13.6984 25.8125 14 25.8125C14.3016 25.8125 14.5469 26.0577 14.5469 26.3594C14.5469 26.661 14.3016 26.9062 14 26.9062ZM1.64062 1.09375H26.3594C26.661 1.09375 26.9062 1.33899 26.9062 1.64062C26.9062 1.94269 26.6612 2.1875 26.3594 2.1875H1.64062C1.33899 2.1875 1.09375 1.94226 1.09375 1.64062C1.09375 1.33856 1.33878 1.09375 1.64062 1.09375ZM2.1875 20.0156V3.28125H25.8125V20.0156H2.1875Z" fill="#52A81F"/>
    <path d="M23.1418 15.8065C23.1401 15.8048 23.1386 15.8027 23.1367 15.8009L22.0429 14.7072C21.8293 14.4936 21.4832 14.4936 21.2696 14.7072C21.056 14.9206 21.056 15.2669 21.2696 15.4805L21.4296 15.6407H6.89062V7.33591L7.05084 7.49613C7.26447 7.70975 7.61053 7.70975 7.82416 7.49613C8.03778 7.28251 8.03778 6.93644 7.82416 6.72282L6.73041 5.62907C6.7287 5.62714 6.72678 5.62565 6.72507 5.62394C6.51144 5.41587 6.16815 5.41779 5.95709 5.62907L4.86334 6.72282C4.64972 6.93623 4.64972 7.28251 4.86334 7.49613C5.07697 7.70975 5.42303 7.70975 5.63687 7.49613L5.79709 7.33591V15.6407H3.82812C3.52606 15.6407 3.28125 15.8855 3.28125 16.1876C3.28125 16.4897 3.52606 16.7345 3.82812 16.7345H5.79688V18.3751C5.79688 18.6772 6.04169 18.922 6.34375 18.922C6.64581 18.922 6.89062 18.6772 6.89062 18.3751V16.7345H21.4296L21.2696 16.8947C21.056 17.1083 21.056 17.4544 21.2696 17.668C21.4832 17.8816 21.8293 17.8816 22.0429 17.668L23.1367 16.5743C23.1386 16.5725 23.1401 16.5704 23.1418 16.5687C23.3443 16.3602 23.3522 16.0229 23.1418 15.8065Z" fill="#52A81F"/>
    <path d="M24.1719 4.375H19.4688C19.1667 4.375 18.9219 4.61981 18.9219 4.92188C18.9219 5.22394 19.1667 5.46875 19.4688 5.46875H24.1719C24.4739 5.46875 24.7188 5.22394 24.7188 4.92188C24.7188 4.61981 24.4739 4.375 24.1719 4.375Z" fill="#52A81F"/>
    <path d="M8.73591 10.2798C9.04182 10.5248 9.38255 11.0522 9.71239 11.5623C10.3409 12.5348 10.9345 13.4531 11.8125 13.4531C12.6901 13.4531 13.2837 12.5348 13.9124 11.5626C14.1622 11.1761 14.4206 10.7764 14.665 10.4994C14.9459 10.1811 15.0795 10.1719 15.0938 10.1719C15.1081 10.1719 15.2416 10.1811 15.5225 10.4994C15.7669 10.7764 16.0254 11.1761 16.2751 11.5626C16.9038 12.5348 17.4974 13.4531 18.375 13.4531C19.253 13.4531 19.8467 12.5348 20.4751 11.5623C20.8048 11.0522 21.1457 10.5248 21.4516 10.2798C21.6872 10.0907 21.725 9.74655 21.536 9.51093C21.3472 9.2753 21.003 9.23749 20.7672 9.42633C20.3235 9.78244 19.9336 10.3853 19.5566 10.9685C19.3068 11.3549 19.0484 11.7546 18.804 12.0317C18.5233 12.3502 18.3893 12.3594 18.375 12.3594C18.3607 12.3594 18.2272 12.3502 17.9463 12.0319C17.7019 11.7548 17.4434 11.3551 17.1937 10.9687C16.565 9.99649 15.9713 9.07812 15.0938 9.07812C14.2162 9.07812 13.6225 9.99649 12.9938 10.9687C12.7441 11.3551 12.4856 11.7548 12.2413 12.0319C11.9603 12.3502 11.8268 12.3594 11.8125 12.3594C11.7982 12.3594 11.6643 12.3502 11.3833 12.0317C11.139 11.7546 10.8807 11.3549 10.631 10.9685C10.2539 10.3855 9.86406 9.78244 9.42036 9.42633C9.18474 9.23749 8.84038 9.2753 8.65153 9.51093C8.46248 9.74655 8.5005 10.0907 8.73591 10.2798Z" fill="#52A81F"/>
  </symbol>

  <symbol id="scanner-list" width="23" height="28" viewBox="0 0 23 28">
    <path d="M6.04896 5.61096C5.80686 5.61096 5.61053 5.80723 5.61053 6.04938C5.61053 6.58122 5.17784 7.0139 4.64601 7.0139C4.11417 7.0139 3.68149 6.58122 3.68149 6.04938C3.68149 5.51755 4.11417 5.08486 4.64601 5.08486C4.88811 5.08486 5.08444 4.88859 5.08444 4.64644C5.08444 4.40428 4.88816 4.20801 4.64601 4.20801C3.63068 4.20801 2.80469 5.03406 2.80469 6.04933C2.80469 7.0646 3.63074 7.89065 4.64601 7.89065C5.66128 7.89065 6.48733 7.0646 6.48733 6.04933C6.48738 5.80723 6.29106 5.61096 6.04896 5.61096Z" fill="#52A81F"/>
    <path d="M6.04896 10.7555C5.80686 10.7555 5.61053 10.9518 5.61053 11.1939C5.61053 11.7257 5.17784 12.1584 4.64601 12.1584C4.11417 12.1584 3.68149 11.7257 3.68149 11.1939C3.68149 10.6621 4.11417 10.2294 4.64601 10.2294C4.88811 10.2294 5.08444 10.0331 5.08444 9.79097C5.08444 9.54881 4.88816 9.35254 4.64601 9.35254C3.63068 9.35254 2.80469 10.1786 2.80469 11.1939C2.80469 12.2091 3.63074 13.0352 4.64601 13.0352C5.66128 13.0352 6.48733 12.2091 6.48733 11.1939C6.48738 10.9518 6.29106 10.7555 6.04896 10.7555Z" fill="#52A81F"/>
    <path d="M11.1924 11.6904H7.9189C7.6768 11.6904 7.48047 11.8867 7.48047 12.1289C7.48047 12.371 7.67674 12.5673 7.9189 12.5673H11.1924C11.4345 12.5673 11.6308 12.371 11.6308 12.1289C11.6308 11.8867 11.4345 11.6904 11.1924 11.6904Z" fill="#52A81F"/>
    <path d="M11.1924 9.82031H7.9189C7.6768 9.82031 7.48047 10.0166 7.48047 10.2587C7.48047 10.5009 7.67674 10.6972 7.9189 10.6972H11.1924C11.4345 10.6972 11.6308 10.5009 11.6308 10.2587C11.6308 10.0166 11.4345 9.82031 11.1924 9.82031Z" fill="#52A81F"/>
    <path d="M10.2571 16.8345H7.9189C7.6768 16.8345 7.48047 17.0307 7.48047 17.2729C7.48047 17.5151 7.67674 17.7113 7.9189 17.7113H10.2571C10.4992 17.7113 10.6955 17.5151 10.6955 17.2729C10.6955 17.0307 10.4992 16.8345 10.2571 16.8345Z" fill="#52A81F"/>
    <path d="M11.1924 14.9644H7.9189C7.6768 14.9644 7.48047 15.1606 7.48047 15.4028C7.48047 15.6449 7.67674 15.8412 7.9189 15.8412H11.1924C11.4345 15.8412 11.6308 15.6449 11.6308 15.4028C11.6308 15.1606 11.4345 14.9644 11.1924 14.9644Z" fill="#52A81F"/>
    <path d="M15.4012 6.54688H7.9189C7.6768 6.54688 7.48047 6.74315 7.48047 6.9853C7.48047 7.22746 7.67674 7.42373 7.9189 7.42373H15.4011C15.6432 7.42373 15.8395 7.22746 15.8395 6.9853C15.8395 6.74315 15.6433 6.54688 15.4012 6.54688Z" fill="#52A81F"/>
    <path d="M13.5306 4.67578H7.9189C7.6768 4.67578 7.48047 4.87205 7.48047 5.11421C7.48047 5.35636 7.67674 5.55264 7.9189 5.55264H13.5306C13.7727 5.55264 13.969 5.35636 13.969 5.11421C13.969 4.87205 13.7727 4.67578 13.5306 4.67578Z" fill="#52A81F"/>
    <path d="M6.04896 15.8995C5.80686 15.8995 5.61053 16.0958 5.61053 16.338C5.61053 16.8698 5.17784 17.3025 4.64601 17.3025C4.11417 17.3025 3.68149 16.8698 3.68149 16.338C3.68149 15.8061 4.11417 15.3734 4.64601 15.3734C4.88811 15.3734 5.08444 15.1772 5.08444 14.935C5.08444 14.6929 4.88816 14.4966 4.64601 14.4966C3.63068 14.4966 2.80469 15.3226 2.80469 16.3379C2.80469 17.3532 3.63074 18.1792 4.64601 18.1792C5.66128 18.1792 6.48733 17.3532 6.48733 16.3379C6.48738 16.0958 6.29106 15.8995 6.04896 15.8995Z" fill="#52A81F"/>
    <path d="M17.2734 0H1.37369C0.616271 0 0 0.616216 0 1.37369V21.0145C0 21.772 0.616217 22.3882 1.37369 22.3882H9.32358C9.56568 22.3882 9.76201 22.1919 9.76201 21.9498C9.76201 21.7077 9.56574 21.5114 9.32358 21.5114H1.37369C1.09971 21.5114 0.876801 21.2885 0.876801 21.0145V1.37369C0.876801 1.09971 1.09971 0.876801 1.37369 0.876801H17.2734C17.5474 0.876801 17.7703 1.09971 17.7703 1.37369V15.8706C17.7703 16.1127 17.9666 16.309 18.2087 16.309C18.4508 16.309 18.6472 16.1127 18.6472 15.8706V1.37369C18.6471 0.616216 18.0309 0 17.2734 0Z" fill="#52A81F"/>
    <path d="M21.4131 17.7782C21.0056 17.7376 20.5984 17.8531 20.2761 18.0978C20.0193 17.6669 19.5815 17.3613 19.0749 17.3106C18.6673 17.27 18.2601 17.3855 17.9379 17.6301C17.6811 17.1993 17.2433 16.8937 16.7367 16.8429C16.4255 16.8119 16.1148 16.8718 15.8417 17.0108V11.4276C15.8417 10.9743 15.6489 10.5398 15.3125 10.2354C14.9765 9.93138 14.5236 9.78296 14.07 9.82835C13.2607 9.90939 12.6267 10.6412 12.6267 11.4943V17.0916L11.338 18.3803C10.6531 19.0652 10.3767 20.0369 10.5985 20.9797L11.577 25.1379C11.9734 26.8229 13.4592 27.9997 15.1901 27.9997H19.1444C21.1911 27.9997 22.8563 26.3346 22.8563 24.2878V19.4443C22.8564 18.591 22.2224 17.8592 21.4131 17.7782ZM21.9795 24.2877C21.9795 25.8509 20.7077 27.1227 19.1445 27.1227H15.1902C13.8681 27.1227 12.7333 26.2239 12.4305 24.937L11.4521 20.7787C11.3002 20.1337 11.4894 19.4688 11.958 19.0002L12.6267 18.3315V19.8451C12.6267 20.0872 12.823 20.2835 13.0652 20.2835C13.3073 20.2835 13.5036 20.0872 13.5036 19.8451V11.4943C13.5036 11.086 13.7908 10.7375 14.1574 10.7008C14.368 10.6797 14.5694 10.7454 14.7243 10.8856C14.8773 11.024 14.965 11.2216 14.965 11.4277V19.1437C14.965 19.3858 15.1613 19.5822 15.4034 19.5822C15.6456 19.5822 15.8419 19.3859 15.8419 19.1437V18.4423C15.8419 18.2362 15.9295 18.0386 16.0825 17.9002C16.2375 17.76 16.4388 17.6942 16.6494 17.7154C17.016 17.7521 17.3033 18.1007 17.3033 18.5089V19.6112C17.3033 19.8533 17.4995 20.0497 17.7417 20.0497C17.9838 20.0497 18.1801 19.8534 18.1801 19.6112V18.9098C18.1801 18.7037 18.2678 18.5061 18.4208 18.3677C18.5758 18.2275 18.7771 18.1618 18.9877 18.1829C19.3543 18.2196 19.6415 18.5682 19.6415 18.9764V20.0788C19.6415 20.3209 19.8378 20.5173 20.08 20.5173C20.3221 20.5173 20.5184 20.321 20.5184 20.0788V19.3773C20.5184 19.1713 20.606 18.9737 20.7591 18.8353C20.914 18.6951 21.1152 18.6293 21.326 18.6506C21.6926 18.6872 21.9798 19.0358 21.9798 19.444V24.2877H21.9795Z" fill="#52A81F"/>
  </symbol>

  <symbol id="scanner-home" width="28" height="28" viewBox="0 0 28 28">
   <path d="M27.656 8.63565L18.4003 2.68055C18.2155 2.56166 17.9694 2.61515 17.8506 2.79983C17.7317 2.98456 17.7851 3.23065 17.9698 3.34955L27.0902 9.21758H24.9641L14.5819 2.53771C14.2284 2.31032 13.7716 2.31037 13.4181 2.53771L3.03591 9.21758H0.909764L13.9995 0.795034L15.8534 1.98777C16.0382 2.10661 16.2842 2.05323 16.4031 1.8685C16.5219 1.68376 16.4685 1.43767 16.2838 1.31878L14.43 0.126041C14.1688 -0.0420137 13.8313 -0.0420137 13.5701 0.126041L0.344021 8.63565C0.06238 8.81688 -0.0634014 9.15452 0.031044 9.47587C0.125489 9.79721 0.413966 10.0131 0.748873 10.0131H2.75503V11.3841V12.5849C2.75503 12.9014 2.97958 13.1666 3.27774 13.2293V13.9293C3.27774 14.2925 3.57316 14.5879 3.93628 14.5879H3.99097V19.4612C3.99097 19.6809 4.16903 19.859 4.38871 19.859C4.60839 19.859 4.78646 19.6809 4.78646 19.4612V14.1902C4.78646 13.9705 4.60839 13.7924 4.38871 13.7924H4.07328V13.2433H6.8904V13.7923H6.57496C6.35528 13.7923 6.17722 13.9704 6.17722 14.19V22.9781C6.17722 23.1978 6.35528 23.3759 6.57496 23.3759H6.8904V23.9728H4.07328V23.3759H4.38871C4.60839 23.3759 4.78646 23.1978 4.78646 22.9781V21.9615C4.78646 21.7418 4.60839 21.5637 4.38871 21.5637C4.16903 21.5637 3.99097 21.7418 3.99097 21.9615V22.5804H3.93628C3.57316 22.5804 3.27774 22.8757 3.27774 23.2389V23.9389C2.97952 24.0017 2.75503 24.2668 2.75503 24.5834V25.3863H1.34606C0.906373 25.3863 0.548662 25.744 0.548662 26.1837V27.0204C0.548662 27.46 0.906373 27.8178 1.34606 27.8178H26.6539C27.0936 27.8178 27.4513 27.46 27.4513 27.0204V26.1837C27.4513 25.744 27.0936 25.3863 26.6539 25.3863H25.245V24.5834C25.245 24.2668 25.0204 24.0017 24.7223 23.9389V23.2389C24.7223 22.8757 24.4268 22.5804 24.0637 22.5804H24.009V14.5878H24.0637C24.4268 14.5878 24.7223 14.2924 24.7223 13.9292V13.2292C25.0205 13.1665 25.245 12.9013 25.245 12.5847V11.384V10.013H27.2511C27.586 10.013 27.8745 9.7971 27.969 9.47576C28.0634 9.15452 27.9376 8.81683 27.656 8.63565ZM13.8485 3.2067C13.9406 3.14748 14.0594 3.14753 14.1515 3.2067L23.4939 9.21763H4.50613L13.8485 3.2067ZM3.55052 10.0131H24.4494V10.9863H20.1892H16.329H11.671H7.81084H3.55052V10.0131ZM16.2041 23.939V23.239C16.2041 22.8759 15.9087 22.5805 15.5456 22.5805H15.4909V14.5879H15.5456C15.9087 14.5879 16.2041 14.2925 16.2041 13.9293V13.2293C16.5023 13.1666 16.7268 12.9014 16.7268 12.5849V11.7819H19.7914V12.5849C19.7914 12.9014 20.016 13.1666 20.3141 13.2293V13.9293C20.3141 14.2925 20.6095 14.5879 20.9727 14.5879H21.0274V22.5805H20.9727C20.6095 22.5805 20.3141 22.8759 20.3141 23.239V23.939C20.016 24.0018 19.7914 24.2669 19.7914 24.5835V25.3864H16.7268V24.5835C16.7268 24.2669 16.5023 24.0018 16.2041 23.939ZM7.68588 23.939V23.239C7.68588 22.8759 7.39046 22.5805 7.02733 22.5805H6.97265V14.5879H7.02733C7.39046 14.5879 7.68588 14.2925 7.68588 13.9293V13.2293C7.98404 13.1666 8.20859 12.9014 8.20859 12.5849V11.7819H11.2732V12.5849C11.2732 12.9014 11.4978 13.1666 11.7959 13.2293V13.9293C11.7959 14.2925 12.0913 14.5879 12.4545 14.5879H12.5092V22.5805H12.4545C12.0913 22.5805 11.7959 22.8759 11.7959 23.239V23.939C11.4978 24.0018 11.2732 24.2669 11.2732 24.5835V25.3864H8.20859V24.5835C8.20859 24.2669 7.98404 24.0018 7.68588 23.939ZM15.0932 23.3759H15.4086V23.9728H12.5915V23.3759H12.9069C13.1266 23.3759 13.3046 23.1978 13.3046 22.9781V14.1901C13.3046 13.9704 13.1266 13.7923 12.9069 13.7923H12.5915V13.2433H15.4086V13.7923H15.0932C14.8735 13.7923 14.6954 13.9704 14.6954 14.19V22.9781C14.6954 23.1978 14.8735 23.3759 15.0932 23.3759ZM12.1937 12.4479H12.1919H12.0687V11.7819H15.9313V12.4479H15.8063C15.8061 12.4479 15.8057 12.4479 15.8055 12.4479C15.8052 12.4479 15.8049 12.4479 15.8046 12.4479H12.1937ZM12.0687 24.7487C12.1075 24.7613 12.1489 24.7684 12.1919 24.7684H15.8045C15.8489 24.7684 15.8914 24.7608 15.9313 24.7474V25.3863H12.0687V24.7487ZM3.67553 12.4479H3.55057V11.7819H7.41316V12.4479H7.4131H7.28814H3.67553ZM3.55052 24.748C3.58984 24.761 3.63178 24.7684 3.67548 24.7684H7.28814C7.33183 24.7684 7.37378 24.761 7.4131 24.748V25.3863H3.55052V24.748ZM26.6559 26.1837L26.6548 27.0223C26.6548 27.0223 26.6545 27.0223 26.6539 27.0223L1.34415 27.0205L1.34606 26.1819L26.6559 26.1837ZM24.3234 24.7683C24.3675 24.7683 24.4098 24.7608 24.4495 24.7476V25.3863H20.5869V24.7484C20.6259 24.7612 20.6675 24.7683 20.7108 24.7683H24.3234ZM21.425 13.7924H21.1096V13.2433H23.9267V13.7923H23.6113C23.3916 13.7923 23.2135 13.9704 23.2135 14.19V22.9781C23.2135 23.1978 23.3916 23.3759 23.6113 23.3759H23.9267V23.9728H21.1096V23.3759H21.425C21.6447 23.3759 21.8228 23.1979 21.8228 22.9782V14.1901C21.8228 13.9704 21.6447 13.7924 21.425 13.7924ZM24.4495 12.4479H24.3245C24.3244 12.4479 24.3241 12.4479 24.324 12.4479C24.3238 12.4479 24.3236 12.4479 24.3234 12.4479H20.7119H20.7108H20.587V11.7819H24.4495V12.4479Z" fill="#52A81F"/>
  </symbol>

  <symbol id="scanner-light-signal" width="22" height="28" viewBox="0 0 22 28">
    <path d="M13.9961 12.1586C13.9961 10.4694 12.6686 9.08465 11.0021 8.99201C12.6686 8.89942 13.9961 7.51468 13.9961 5.82544C13.9961 4.07648 12.5732 2.65356 10.8242 2.65356C9.07526 2.65356 7.65234 4.07648 7.65234 5.82544C7.65234 7.51468 8.97983 8.89942 10.6463 8.99206C8.97983 9.08465 7.65234 10.4694 7.65234 12.1586C7.65234 13.779 8.87395 15.1186 10.4444 15.307C8.87395 15.4954 7.65234 16.835 7.65234 18.4554C7.65234 20.2043 9.07526 21.6272 10.8242 21.6272C12.5732 21.6272 13.9961 20.2043 13.9961 18.4554C13.9961 16.835 12.7745 15.4954 11.204 15.307C12.7745 15.1186 13.9961 13.779 13.9961 12.1586ZM8.74609 5.82544C8.74609 4.67957 9.67835 3.74731 10.8242 3.74731C11.9701 3.74731 12.9023 4.67957 12.9023 5.82544C12.9023 6.97131 11.9701 7.90356 10.8242 7.90356C9.67835 7.90356 8.74609 6.97131 8.74609 5.82544ZM12.9023 18.4553C12.9023 19.6012 11.9701 20.5334 10.8242 20.5334C9.67835 20.5334 8.74609 19.6012 8.74609 18.4553C8.74609 17.3094 9.67835 16.3772 10.8242 16.3772C11.9701 16.3772 12.9023 17.3094 12.9023 18.4553ZM10.8242 14.2368C9.67835 14.2368 8.74609 13.3045 8.74609 12.1586C8.74609 11.0128 9.67835 10.0805 10.8242 10.0805C11.9701 10.0805 12.9023 11.0128 12.9023 12.1586C12.9023 13.3045 11.9701 14.2368 10.8242 14.2368Z" fill="#52A81F"/>
    <path d="M11.2109 0.160234C11.1091 0.0585156 10.968 0 10.8242 0C10.6804 0 10.5393 0.0585156 10.4376 0.160234C10.3359 0.261953 10.2773 0.403047 10.2773 0.546875C10.2773 0.690703 10.3359 0.831797 10.4376 0.933516C10.5393 1.03523 10.6804 1.09375 10.8242 1.09375C10.968 1.09375 11.1091 1.03523 11.2109 0.933516C11.3126 0.831797 11.3711 0.690703 11.3711 0.546875C11.3711 0.403047 11.3126 0.261953 11.2109 0.160234Z" fill="#52A81F"/>
    <path d="M19.7425 15.3202H16.8402V15.0104L20.6567 11.194C21.0277 10.8229 21.1377 10.2699 20.9369 9.78507C20.7361 9.30027 20.2673 8.98702 19.7425 8.98702H16.8402V8.67721L20.6566 4.86079C21.0277 4.48973 21.1377 3.93673 20.9369 3.45187C20.7361 2.96707 20.2672 2.65377 19.7424 2.65377H16.8402V1.64062C16.8402 0.735984 16.1042 0 15.1996 0H13.0941C12.7921 0 12.5473 0.244836 12.5473 0.546875C12.5473 0.848914 12.7921 1.09375 13.0941 1.09375H15.1996C15.5012 1.09375 15.7465 1.33908 15.7465 1.64062V22.6406C15.7465 22.9422 15.5012 23.1875 15.1996 23.1875H6.4496C6.14806 23.1875 5.90273 22.9422 5.90273 22.6406V1.64062C5.90273 1.33908 6.14806 1.09375 6.4496 1.09375H8.50038C8.80242 1.09375 9.04726 0.848914 9.04726 0.546875C9.04726 0.244836 8.80242 0 8.50038 0H6.4496C5.54496 0 4.80898 0.735984 4.80898 1.64062V2.65382H1.90677C1.38199 2.65382 0.913151 2.96712 0.712338 3.45193C0.511526 3.93679 0.621502 4.48979 0.992612 4.86084L4.80898 8.67721V8.98702H1.90677C1.38199 8.98702 0.913151 9.30032 0.712338 9.78507C0.511526 10.2699 0.621502 10.8229 0.992612 11.194L4.80898 15.0105V15.3203H1.90677C1.38199 15.3203 0.913151 15.6336 0.712338 16.1183C0.511526 16.6032 0.621502 17.1562 0.992612 17.5273L4.80898 21.3437V22.6406C4.80898 23.5453 5.54496 24.2812 6.4496 24.2812H8.75342V27.4531C8.75342 27.7552 8.99826 28 9.3003 28C9.60234 28 9.84717 27.7552 9.84717 27.4531V24.2812H11.8159V27.4531C11.8159 27.7552 12.0608 28 12.3628 28C12.6648 28 12.9097 27.7552 12.9097 27.4531V24.2812H15.1996C16.1042 24.2812 16.8402 23.5453 16.8402 22.6406V21.3437L20.6567 17.5272C21.0277 17.1561 21.1377 16.6031 20.9369 16.1183C20.7361 15.6335 20.2673 15.3202 19.7425 15.3202ZM16.8402 3.74757H19.7424C19.8582 3.74757 19.9074 3.82457 19.9264 3.87051C19.9454 3.91639 19.9651 4.00559 19.8832 4.08745L16.8402 7.13037V3.74757ZM16.8402 10.0808H19.7424C19.8582 10.0808 19.9074 10.1578 19.9264 10.2036C19.9453 10.2495 19.9651 10.3388 19.8832 10.4206L16.8402 13.4636V10.0808ZM4.80898 19.7968L1.766 16.7538C1.68414 16.6719 1.70382 16.5827 1.7228 16.5368C1.74178 16.491 1.79099 16.414 1.90671 16.414H4.80898V19.7968ZM4.80898 13.4636L1.766 10.4206C1.68414 10.3387 1.70382 10.2495 1.7228 10.2036C1.74178 10.1578 1.79099 10.0808 1.90671 10.0808H4.80898V13.4636ZM4.80898 7.13037L1.76595 4.0874C1.68408 4.00553 1.70377 3.91634 1.7228 3.87045C1.74183 3.82457 1.79099 3.74752 1.90671 3.74752H4.80898V7.13037ZM19.8832 16.7538L16.8402 19.7968V16.414H19.7424V16.414C19.8582 16.414 19.9074 16.491 19.9264 16.5368C19.9453 16.5827 19.9651 16.672 19.8832 16.7538Z" fill="#52A81F"/>
  </symbol>

  <symbol id="scanner-sberbank" width="23" height="22" viewBox="0 0 23 22">
    <path fill-rule="evenodd" clip-rule="evenodd" d="M6.95376 6.5839L17.2106 0.654634C16.7798 0.408878 16.3317 0.189951 15.8678 0L6.99066 5.13351L3.01 2.83317C2.71702 3.14976 2.4425 3.48244 2.1875 3.82907L6.95376 6.58551V6.5839Z" fill="#52A81F"/>
    <path fill-rule="evenodd" clip-rule="evenodd" d="M6.95737 9.50289L19.4251 2.29332C19.092 1.97835 18.7398 1.68269 18.3709 1.40796L6.95846 8.00796L6.95574 8.00689V8.0085L1.51401 4.86142C1.29699 5.23435 1.10167 5.62069 0.929688 6.0183L6.9552 9.50342L6.95737 9.50289Z" fill="#52A81F"/>
    <path fill-rule="evenodd" clip-rule="evenodd" d="M6.95717 12.4219L21.0796 4.25509C20.8377 3.89343 20.5762 3.54572 20.2957 3.21411L6.9588 10.927L6.95717 10.9254V10.9286L0.497077 7.19128C0.365781 7.6184 0.259984 8.05626 0.179688 8.5027L6.95717 12.4219Z" fill="#52A81F"/>
    <path fill-rule="evenodd" clip-rule="evenodd" d="M21.7045 5.31743L6.95706 13.8454L6.95544 13.8438V13.8459L0.0195316 9.83548C0.00651055 10.0544 0 10.2755 0 10.4976C0 16.7703 5.14171 21.855 11.4841 21.855C17.8264 21.855 22.9676 16.7703 22.9676 10.4976C22.9676 8.63138 22.5119 6.87031 21.7045 5.31689V5.31743Z" fill="#52A81F"/>
  </symbol>

  <symbol id="scanner-favorite-empty" width="100%" height="100%" viewBox="0 0 383 211">
    <path d="M81.441 105.75L81.5852 105.5H81.8742H121.126H121.415L121.559 105.75L141.433 140.25L141.577 140.5L141.433 140.75L121.559 175.25L121.415 175.5H121.126H81.8742H81.5852L81.441 175.25L61.5667 140.75L61.423 140.5L61.5667 140.25L81.441 105.75Z" stroke="#CBE5BC" fill="none"/>
    <path d="M81.441 35.7504L81.5852 35.5H81.8742H121.126H121.415L121.559 35.7504L141.433 70.2504L141.577 70.5L141.433 70.7496L121.559 105.25L121.415 105.5H121.126H81.8742H81.5852L81.441 105.25L61.5667 70.7496L61.423 70.5L61.5667 70.2504L81.441 35.7504Z" stroke="#CBE5BC" fill="none"/>
    <path d="M84.3585 111H118.642L136 140.5L118.642 170H84.3585L67 140.5L84.3585 111Z" fill="#CBE5BC"/>
    <path d="M84.3585 111H118.642L136 140.5L118.642 170H84.3585L67 140.5L84.3585 111Z" stroke="#52A81F" fill="#CBE5BC"/>
    <path d="M141.441 70.7504L141.585 70.5H141.874H181.126H181.415L181.559 70.7504L201.433 105.25L201.577 105.5L201.433 105.75L181.559 140.25L181.415 140.5H181.126H141.874H141.585L141.441 140.25L121.567 105.75L121.423 105.5L121.567 105.25L141.441 70.7504Z" stroke="#CBE5BC" fill="none"/>
    <path d="M144.358 76H178.642L196 105.5L178.642 135H144.358L127 105.5L144.358 76Z" fill="#CBE5BC"/>
    <path d="M144.358 76H178.642L196 105.5L178.642 135H144.358L127 105.5L144.358 76Z" stroke="#52A81F" fill="#CBE5BC"/>
    <path d="M84.3585 41H118.642L136 70.5L118.642 100H84.3585L67 70.5L84.3585 41Z" fill="#CBE5BC"/>
    <path d="M84.3585 41H118.642L136 70.5L118.642 100H84.3585L67 70.5L84.3585 41Z" stroke="#52A81F" fill="#CBE5BC"/>
    <path d="M21.441 70.7504L21.5852 70.5H21.8742H61.1258H61.4148L61.559 70.7504L81.4333 105.25L81.577 105.5L81.4333 105.75L61.559 140.25L61.4148 140.5H61.1258H21.8742H21.5852L21.441 140.25L1.56675 105.75L1.42297 105.5L1.56675 105.25L21.441 70.7504Z" stroke="#CBE5BC" fill="none"/>
    <path d="M21.441 0.750418L21.5852 0.5H21.8742H61.1258H61.4148L61.559 0.750418L81.4333 35.2504L81.577 35.5L81.4333 35.7496L61.559 70.2496L61.4148 70.5H61.1258H21.8742H21.5852L21.441 70.2496L1.56675 35.7496L1.42297 35.5L1.56675 35.2504L21.441 0.750418Z" stroke="#CBE5BC" fill="none"/>
    <path d="M24.3585 76H58.6415L76 105.5L58.6415 135H24.3585L7 105.5L24.3585 76Z" fill="#CBE5BC"/>
    <path d="M24.3585 76H58.6415L76 105.5L58.6415 135H24.3585L7 105.5L24.3585 76Z" stroke="#52A81F" fill="#CBE5BC"/>
    <path d="M24.3585 6H58.6415L76 35.5L58.6415 65H24.3585L7 35.5L24.3585 6Z" fill="#CBE5BC"/>
    <path d="M24.3585 6H58.6415L76 35.5L58.6415 65H24.3585L7 35.5L24.3585 6Z" stroke="#52A81F" fill="#CBE5BC"/>
    <path d="M141.441 140.75L141.585 140.5H141.874H181.126H181.415L181.559 140.75L201.433 175.25L201.577 175.5L201.433 175.75L181.559 210.25L181.415 210.5H181.126H141.874H141.585L141.441 210.25L121.567 175.75L121.423 175.5L121.567 175.25L141.441 140.75Z" stroke="#CBE5BC" fill="none"/>
    <path d="M144.358 146H178.642L196 175.5L178.642 205H144.358L127 175.5L144.358 146Z" fill="#CBE5BC"/>
    <path d="M144.358 146H178.642L196 175.5L178.642 205H144.358L127 175.5L144.358 146Z" stroke="#52A81F" fill="#CBE5BC"/>
    <path d="M201.441 35.7504L201.585 35.5H201.874H241.126H241.415L241.559 35.7504L261.433 70.2504L261.577 70.5L261.433 70.7496L241.559 105.25L241.415 105.5H241.126H201.874H201.585L201.441 105.25L181.567 70.7496L181.423 70.5L181.567 70.2504L201.441 35.7504Z" stroke="#CBE5BC" fill="none"/>
    <path d="M204.358 41H238.642L256 70.5L238.642 100H204.358L187 70.5L204.358 41Z" fill="#CBE5BC"/>
    <path d="M204.358 41H238.642L256 70.5L238.642 100H204.358L187 70.5L204.358 41Z" stroke="#52A81F" fill="#CBE5BC"/>
    <path d="M201.441 105.75L201.585 105.5H201.874H241.126H241.415L241.559 105.75L261.433 140.25L261.577 140.5L261.433 140.75L241.559 175.25L241.415 175.5H241.126H201.874H201.585L201.441 175.25L181.567 140.75L181.423 140.5L181.567 140.25L201.441 105.75Z" stroke="#CBE5BC" fill="none"/>
    <path d="M204.358 111H238.642L256 140.5L238.642 170H204.358L187 140.5L204.358 111Z" fill="#CBE5BC"/>
    <path d="M204.358 111H238.642L256 140.5L238.642 170H204.358L187 140.5L204.358 111Z" stroke="#52A81F" fill="#CBE5BC"/>
    <path d="M261.441 0.750418L261.585 0.5H261.874H301.126H301.415L301.559 0.750418L321.433 35.2504L321.577 35.5L321.433 35.7496L301.559 70.2496L301.415 70.5H301.126H261.874H261.585L261.441 70.2496L241.567 35.7496L241.423 35.5L241.567 35.2504L261.441 0.750418Z" stroke="#CBE5BC" fill="none"/>
    <path d="M264.358 6H298.642L316 35.5L298.642 65H264.358L247 35.5L264.358 6Z" fill="#CBE5BC"/>
    <path d="M264.358 6H298.642L316 35.5L298.642 65H264.358L247 35.5L264.358 6Z" stroke="#52A81F" fill="#CBE5BC"/>
    <path d="M321.441 105.75L321.585 105.5H321.874H361.126H361.415L361.559 105.75L381.433 140.25L381.577 140.5L381.433 140.75L361.559 175.25L361.415 175.5H361.126H321.874H321.585L321.441 175.25L301.567 140.75L301.423 140.5L301.567 140.25L321.441 105.75Z" stroke="#CBE5BC" fill="none"/>
    <path d="M324.358 111H358.642L376 140.5L358.642 170H324.358L307 140.5L324.358 111Z" fill="#CBE5BC"/>
    <path d="M324.358 111H358.642L376 140.5L358.642 170H324.358L307 140.5L324.358 111Z" stroke="#52A81F" fill="#CBE5BC"/>
    <path d="M261.441 70.7504L261.585 70.5H261.874H301.126H301.415L301.559 70.7504L321.433 105.25L321.577 105.5L321.433 105.75L301.559 140.25L301.415 140.5H301.126H261.874H261.585L261.441 140.25L241.567 105.75L241.423 105.5L241.567 105.25L261.441 70.7504Z" stroke="#CBE5BC" fill="none"/>
    <path d="M264.358 76H298.642L316 105.5L298.642 135H264.358L247 105.5L264.358 76Z" fill="#CBE5BC"/>
    <path d="M264.358 76H298.642L316 105.5L298.642 135H264.358L247 105.5L264.358 76Z" stroke="#52A81F" fill="#CBE5BC"/>
    <path d="M345.068 138.219L342 130.618L338.932 138.219H332.182L337.091 143.92L335.863 150.255L342 147.087L348.136 150.255L346.909 143.92L351.818 138.219H345.068Z" fill="white"/>
    <path d="M225.068 68.2193L222 60.6182L218.932 68.2193H212.182L217.091 73.9202L215.863 80.2545L222 77.0874L228.136 80.2545L226.909 73.9202L231.818 68.2193H225.068Z" fill="white"/>
    <path d="M165.068 104.219L162 96.6182L158.932 104.219H152.182L157.091 109.92L155.863 116.255L162 113.087L168.136 116.255L166.909 109.92L171.818 104.219H165.068Z" fill="white"/>
  </symbol>

  <symbol width="100%" height="100%" id="scanner-result-empty" viewBox="0 0 114 137">
    <mask fill="white" id="path-1-inside-1">
      <path clip-rule="evenodd" d="M89.6328 46L69.6213 11H30.3787L10.3672 46L30.3787 81H69.6213L89.6328 46ZM74.8428 2H25.1572L0 46L25.1572 90H69.0281C69.087 90.0979 69.1497 90.1944 69.2162 90.2894L100.453 134.9C102.009 137.122 105.071 137.662 107.293 136.106C109.514 134.55 110.054 131.488 108.499 129.267L77.6122 85.1562L100 46L74.8428 2Z" fill-rule="evenodd"/>
    </mask>
    <path clip-rule="evenodd" d="M89.6328 46L69.6213 11H30.3787L10.3672 46L30.3787 81H69.6213L89.6328 46ZM74.8428 2H25.1572L0 46L25.1572 90H69.0281C69.087 90.0979 69.1497 90.1944 69.2162 90.2894L100.453 134.9C102.009 137.122 105.071 137.662 107.293 136.106C109.514 134.55 110.054 131.488 108.499 129.267L77.6122 85.1562L100 46L74.8428 2Z" fill-rule="evenodd" fill="white"/>
    <path d="M69.6213 11L70.4895 10.5036L70.2015 10H69.6213V11ZM89.6328 46L90.5009 46.4964L90.7847 46L90.5009 45.5036L89.6328 46ZM30.3787 11V10H29.7985L29.5105 10.5036L30.3787 11ZM10.3672 46L9.4991 45.5036L9.2153 46L9.4991 46.4964L10.3672 46ZM30.3787 81L29.5105 81.4964L29.7985 82H30.3787V81ZM69.6213 81V82H70.2015L70.4895 81.4964L69.6213 81ZM25.1572 2V1H24.5771L24.2891 1.50365L25.1572 2ZM74.8428 2L75.7109 1.50365L75.4229 1H74.8428V2ZM0 46L-0.868121 45.5036L-1.15191 46L-0.868121 46.4964L0 46ZM25.1572 90L24.2891 90.4964L24.5771 91H25.1572V90ZM69.0281 90L69.885 89.4845L69.5936 89H69.0281V90ZM69.2162 90.2894L68.397 90.863L68.3971 90.863L69.2162 90.2894ZM100.453 134.9L99.6338 135.474L100.453 134.9ZM107.293 136.106L106.719 135.287H106.719L107.293 136.106ZM108.499 129.267L109.318 128.693L108.499 129.267ZM77.6122 85.1562L76.7441 84.6599L76.4293 85.2104L76.7931 85.7298L77.6122 85.1562ZM100 46L100.868 46.4964L101.152 46L100.868 45.5036L100 46ZM68.7532 11.4964L88.7647 46.4964L90.5009 45.5036L70.4895 10.5036L68.7532 11.4964ZM30.3787 12H69.6213V10H30.3787V12ZM11.2353 46.4964L31.2468 11.4964L29.5105 10.5036L9.4991 45.5036L11.2353 46.4964ZM31.2468 80.5036L11.2353 45.5036L9.4991 46.4964L29.5105 81.4964L31.2468 80.5036ZM69.6213 80H30.3787V82H69.6213V80ZM88.7647 45.5036L68.7532 80.5036L70.4895 81.4964L90.5009 46.4964L88.7647 45.5036ZM25.1572 3H74.8428V1H25.1572V3ZM0.868121 46.4964L26.0254 2.49635L24.2891 1.50365L-0.868121 45.5036L0.868121 46.4964ZM26.0254 89.5036L0.868121 45.5036L-0.868121 46.4964L24.2891 90.4964L26.0254 89.5036ZM69.0281 89H25.1572V91H69.0281V89ZM70.0354 89.7158C69.9821 89.6397 69.932 89.5626 69.885 89.4845L68.1712 90.5155C68.242 90.6332 68.3173 90.7491 68.397 90.863L70.0354 89.7158ZM101.272 134.327L70.0354 89.7158L68.3971 90.863L99.6338 135.474L101.272 134.327ZM106.719 135.287C104.95 136.526 102.511 136.096 101.272 134.327L99.6338 135.474C101.506 138.148 105.192 138.798 107.866 136.925L106.719 135.287ZM107.679 129.84C108.918 131.609 108.488 134.048 106.719 135.287L107.866 136.925C110.54 135.053 111.19 131.367 109.318 128.693L107.679 129.84ZM76.7931 85.7298L107.679 129.84L109.318 128.693L78.4314 84.5827L76.7931 85.7298ZM99.1319 45.5036L76.7441 84.6599L78.4803 85.6526L100.868 46.4964L99.1319 45.5036ZM73.9746 2.49635L99.1319 46.4964L100.868 45.5036L75.7109 1.50365L73.9746 2.49635Z" fill="#CBE5BC" mask="url(#path-1-inside-1)"/>
    <path clip-rule="evenodd" d="M93.6328 44L73.6213 9H34.3787L14.3672 44L34.3787 79H73.6213L93.6328 44ZM78.8428 0H29.1572L4 44L29.1572 88H73.0281C73.087 88.0979 73.1497 88.1944 73.2162 88.2894L104.453 132.9C106.009 135.122 109.071 135.662 111.293 134.106C113.514 132.55 114.054 129.488 112.499 127.267L81.6122 83.1562L104 44L78.8428 0Z" fill-rule="evenodd" fill="#CBE5BC"/>
    <ellipse cx="42.1542" cy="38.4507" fill="#52A81F" rx="1.5624" ry="1.95301"/>
    <path d="M42.1533 52.1218C42.1533 52.1218 46.4499 47.4346 54.262 47.4346C62.074 47.4346 66.3706 52.1218 66.3706 52.1218" stroke="#52A81F" fill="#CBE5BC"/>
    <ellipse cx="35.9042" cy="46.2628" fill="#E8F1E3" rx="2.34361" ry="3.51541"/>
    <ellipse cx="72.6209" cy="46.2628" fill="#E8F1E3" rx="2.34361" ry="3.51541"/>
    <ellipse cx="66.371" cy="38.4507" fill="#52A81F" rx="1.5624" ry="1.95301"/>
  </symbol>

  <symbol width="100%" height="100%" id="scanner-result-ok" viewBox="0 0 114 137">
    <mask fill="white" id="path-1-inside-1">
      <path clip-rule="evenodd" d="M89.6328 46L69.6213 11H30.3787L10.3672 46L30.3787 81H69.6213L89.6328 46ZM74.8428 2H25.1572L0 46L25.1572 90H69.0281C69.087 90.0979 69.1497 90.1944 69.2162 90.2894L100.453 134.9C102.009 137.122 105.071 137.662 107.293 136.106C109.514 134.55 110.054 131.488 108.499 129.267L77.6122 85.1562L100 46L74.8428 2Z" fill-rule="evenodd"/>
    </mask>
    <path clip-rule="evenodd" d="M89.6328 46L69.6213 11H30.3787L10.3672 46L30.3787 81H69.6213L89.6328 46ZM74.8428 2H25.1572L0 46L25.1572 90H69.0281C69.087 90.0979 69.1497 90.1944 69.2162 90.2894L100.453 134.9C102.009 137.122 105.071 137.662 107.293 136.106C109.514 134.55 110.054 131.488 108.499 129.267L77.6122 85.1562L100 46L74.8428 2Z" fill-rule="evenodd" fill="white"/>
    <path d="M69.6213 11L70.4895 10.5036L70.2015 10H69.6213V11ZM89.6328 46L90.5009 46.4964L90.7847 46L90.5009 45.5036L89.6328 46ZM30.3787 11V10H29.7985L29.5105 10.5036L30.3787 11ZM10.3672 46L9.4991 45.5036L9.2153 46L9.4991 46.4964L10.3672 46ZM30.3787 81L29.5105 81.4964L29.7985 82H30.3787V81ZM69.6213 81V82H70.2015L70.4895 81.4964L69.6213 81ZM25.1572 2V1H24.5771L24.2891 1.50365L25.1572 2ZM74.8428 2L75.7109 1.50365L75.4229 1H74.8428V2ZM0 46L-0.868121 45.5036L-1.15191 46L-0.868121 46.4964L0 46ZM25.1572 90L24.2891 90.4964L24.5771 91H25.1572V90ZM69.0281 90L69.885 89.4845L69.5936 89H69.0281V90ZM69.2162 90.2894L68.397 90.863L68.3971 90.863L69.2162 90.2894ZM100.453 134.9L99.6338 135.474L100.453 134.9ZM107.293 136.106L106.719 135.287H106.719L107.293 136.106ZM108.499 129.267L109.318 128.693L108.499 129.267ZM77.6122 85.1562L76.7441 84.6599L76.4293 85.2104L76.7931 85.7298L77.6122 85.1562ZM100 46L100.868 46.4964L101.152 46L100.868 45.5036L100 46ZM68.7532 11.4964L88.7647 46.4964L90.5009 45.5036L70.4895 10.5036L68.7532 11.4964ZM30.3787 12H69.6213V10H30.3787V12ZM11.2353 46.4964L31.2468 11.4964L29.5105 10.5036L9.4991 45.5036L11.2353 46.4964ZM31.2468 80.5036L11.2353 45.5036L9.4991 46.4964L29.5105 81.4964L31.2468 80.5036ZM69.6213 80H30.3787V82H69.6213V80ZM88.7647 45.5036L68.7532 80.5036L70.4895 81.4964L90.5009 46.4964L88.7647 45.5036ZM25.1572 3H74.8428V1H25.1572V3ZM0.868121 46.4964L26.0254 2.49635L24.2891 1.50365L-0.868121 45.5036L0.868121 46.4964ZM26.0254 89.5036L0.868121 45.5036L-0.868121 46.4964L24.2891 90.4964L26.0254 89.5036ZM69.0281 89H25.1572V91H69.0281V89ZM70.0354 89.7158C69.9821 89.6397 69.932 89.5626 69.885 89.4845L68.1712 90.5155C68.242 90.6332 68.3173 90.7491 68.397 90.863L70.0354 89.7158ZM101.272 134.327L70.0354 89.7158L68.3971 90.863L99.6338 135.474L101.272 134.327ZM106.719 135.287C104.95 136.526 102.511 136.096 101.272 134.327L99.6338 135.474C101.506 138.148 105.192 138.798 107.866 136.925L106.719 135.287ZM107.679 129.84C108.918 131.609 108.488 134.048 106.719 135.287L107.866 136.925C110.54 135.053 111.19 131.367 109.318 128.693L107.679 129.84ZM76.7931 85.7298L107.679 129.84L109.318 128.693L78.4314 84.5827L76.7931 85.7298ZM99.1319 45.5036L76.7441 84.6599L78.4803 85.6526L100.868 46.4964L99.1319 45.5036ZM73.9746 2.49635L99.1319 46.4964L100.868 45.5036L75.7109 1.50365L73.9746 2.49635Z" fill="#CBE5BC" mask="url(#path-1-inside-1)"/>
    <path clip-rule="evenodd" d="M93.6328 44L73.6213 9H34.3787L14.3672 44L34.3787 79H73.6213L93.6328 44ZM78.8428 0H29.1572L4 44L29.1572 88H73.0281C73.087 88.0979 73.1497 88.1944 73.2162 88.2894L104.453 132.9C106.009 135.122 109.071 135.662 111.293 134.106C113.514 132.55 114.054 129.488 112.499 127.267L81.6122 83.1562L104 44L78.8428 0Z" fill-rule="evenodd" fill="#CBE5BC"/>
    <ellipse cx="42.1542" cy="38.4507" fill="#52A81F" rx="1.5624" ry="1.95301"/>
    <path d="m 41.467505,52.799061 c 0,0 4.567573,5.230399 12.87225,5.230399 8.304782,0 12.872355,-5.230399 12.872355,-5.230399" stroke="#52A81F" fill="#CBE5BC"/>
    <ellipse cx="35.9042" cy="46.2628" fill="#E8F1E3" rx="2.34361" ry="3.51541"/>
    <ellipse cx="72.6209" cy="46.2628" fill="#E8F1E3" rx="2.34361" ry="3.51541"/>
    <ellipse cx="66.371" cy="38.4507" fill="#52A81F" rx="1.5624" ry="1.95301"/>
  </symbol>

  <symbol id="scanner-check" width="18" height="18" viewBox="0 0 18 18" style="width: 18px;">
    <g fill-rule="evenodd">
      <path fill="none" d="M-1-1h20v20H-1z"/>
      <path fill="inherit" fill-rule="nonzero" d="M9 0C4.037 0 0 4.036 0 9c0 4.963 4.037 9 9 9s9-4.037 9-9c0-4.964-4.037-9-9-9z"/>
      <path fill="#FFF" d="M8.16 13.156a.997.997 0 0 1-.746-.292l-2.828-2.828A1 1 0 0 1 6 8.62l2.16 2.161L12.444 6.5a1 1 0 1 1 1.414 1.414l-4.95 4.95a.997.997 0 0 1-.746.292z"/>
    </g>
  </symbol>

  <symbol id="scanner-exclamation" width="18" height="18" viewBox="0 0 18 18">
    <g fill="none" fill-rule="evenodd" transform="translate(-1 -1)">
      <path d="M0 0h20v20H0z"/>
      <path fill="#FF890C" fill-rule="nonzero" d="M10 1c-4.963 0-9 4.036-9 9 0 4.963 4.037 9 9 9s9-4.037 9-9c0-4.964-4.037-9-9-9z"/>
      <rect width="2" height="8" x="9" y="5" fill="#FFF" rx="1"/>
      <circle cx="10" cy="15" r="1" fill="#FFF"/>
    </g>
  </symbol>

  <symbol id="scanner-question" width="20" height="20" viewBox="0 0 20 20"> 
    <g>
      <path fill="rgba(170, 178, 183, 0.8)" fill-rule="nonzero" stroke-width="1.25007784" d="m 9.1145,14.113013 a 1.975,1.975246 0 0 0 -0.15,0.187523 0.95,0.95011833 0 0 0 -0.1125,0.225028 0.8,0.80009965 0 0 0 -0.075,0.225028 1.7,1.7002118 0 0 0 0,0.250031 1.05,1.0501308 0 0 0 0.1,0.475059 1.125,1.1251401 0 0 0 0.675,0.675084 1.175,1.1751464 0 0 0 0.95,0 1.125,1.1251401 0 0 0 0.675,-0.675084 1.25,1.2501557 0 0 0 0.075,-0.475059 1.25,1.2501557 0 0 0 -2.1375,-0.88761 z m 0.8875,5.888233 a 10,10.001246 0 1 1 0,-20.0024918 10,10.001246 0 0 1 0,20.0024918 z m 0,-16.2520247 A 3.75,3.7504671 0 0 0 6.7520002,5.6244548 1.25,1.2501557 0 1 0 8.9145,6.8746105 1.25,1.2501557 0 0 1 10.002,6.2495327 1.25,1.2501557 0 1 1 10.002,8.749844 1.25,1.2501557 0 0 0 8.752,10 v 1.250156 a 1.25,1.2501557 0 1 0 2.5,0 v -0.225028 a 3.75,3.7504671 0 0 0 -1.25,-7.2759067 z"/>
    </g>
  </symbol>

  <symbol id="scanner-error" width="20" height="20" viewBox="0 0 20 20">
    <g>
      <path fill="#e84040" fill-rule="evenodd" d="m 0.06779661,9.9322034 c 0,-5.523 4.47599999,-10.00000001 10.00000039,-10.00000001 5.523,0 10,4.47600001 10,10.00000001 0,5.5229996 -4.476,9.9999996 -10,9.9999996 -5.5230004,0 -10.00000039,-4.476 -10.00000039,-9.9999996 z m 10.03600039,-1.379 -3.5360004,-3.535 -1.414,1.414 3.535,3.536 -3.535,3.5349996 1.414,1.414 3.5360004,-3.535 3.535,3.535 1.414,-1.414 -3.535,-3.5349996 3.535,-3.536 -1.414,-1.414 z"/>
    </g>
  </symbol>  

  <symbol id="scanner-light" width="30" height="44" viewBox="2 0 30 44">
    <g fill="none" fill-rule="evenodd">
      <g fill-rule="nonzero">
        <path fill="#56C816" d="M27.4 42a1 1 0 1 1 0 2H9.011C4.603 44 1 40.556 1 36.298V9.702C1 5.444 4.604 2 9.013 2h11.973C25.396 2 29 5.446 29 9.706v26.19a1 1 0 0 1-2 0V9.706C27 6.571 24.31 4 20.986 4H9.013C5.69 4 3 6.57 3 9.702v26.596C3 39.43 5.688 42 9.011 42h18.39zM15 39a7.5 7.5 0 1 1 0-15 7.5 7.5 0 0 1 0 15zm0-2a5.5 5.5 0 1 0 0-11 5.5 5.5 0 0 0 0 11zm3.933-7.94a.9.9 0 0 1-1.266 1.28c-.582-.576-1.548-.94-2.617-.94-1.07 0-2.035.364-2.617.94a.9.9 0 1 1-1.266-1.28c.933-.923 2.357-1.46 3.883-1.46 1.526 0 2.95.537 3.883 1.46z"/>
        <path fill="#FDA81B" d="M15 22a7.5 7.5 0 1 1 0-15 7.5 7.5 0 0 1 0 15zm0-2a5.5 5.5 0 1 0 0-11 5.5 5.5 0 0 0 0 11zm3.933-7.94a.9.9 0 0 1-1.266 1.28c-.582-.576-1.548-.94-2.617-.94-1.07 0-2.035.364-2.617.94a.9.9 0 1 1-1.266-1.28c.933-.923 2.357-1.46 3.883-1.46 1.526 0 2.95.537 3.883 1.46z"/>
      </g>
    </g>
  </symbol>

  <symbol id="scanner-light-item" width="16" height="16" viewBox="3 4 20 20">
    <g fill="inherit" fill-rule="evenodd">
      <g fill-rule="nonzero">
        <path d="M15 22a7.5 7.5 0 1 1 0-15 7.5 7.5 0 0 1 0 15zm0-2a5.5 5.5 0 1 0 0-11 5.5 5.5 0 0 0 0 11zm3.933-7.94a.9.9 0 0 1-1.266 1.28c-.582-.576-1.548-.94-2.617-.94-1.07 0-2.035.364-2.617.94a.9.9 0 1 1-1.266-1.28c.933-.923 2.357-1.46 3.883-1.46 1.526 0 2.95.537 3.883 1.46z"/>
      </g>
    </g>
  </symbol>

  <symbol id="scanner-plug-risk" width="161" height="234" viewBox="0 0 161 234" fill="none">
    <path d="M71.3181 233.137C53.0763 233.137 34.8429 229.132 20.9596 221.113C7.4465 213.313 0 202.922 0 191.866C0 180.809 7.4465 170.393 20.9596 162.593C48.7262 146.564 93.9016 146.564 121.668 162.593C135.181 170.401 142.628 180.793 142.628 191.866C142.628 202.939 135.181 213.33 121.668 221.13C107.785 229.132 89.5515 233.137 71.3181 233.137ZM71.3181 151.225C53.2025 151.225 35.1374 155.205 21.3046 163.165C8.00183 170.83 0.681544 181.028 0.681544 191.866C0.681544 202.703 8.00183 212.901 21.2961 220.541C48.8776 236.469 93.7501 236.469 121.332 220.541C134.626 212.867 141.946 202.686 141.946 191.866C141.946 181.045 134.626 170.83 121.323 163.182C107.541 155.205 89.4253 151.225 71.3097 151.225H71.3181Z" fill="#17BB4F"/>
    <path d="M32.9835 176.989C32.9835 176.989 32.1421 177.932 31.2418 179.043C30.3415 180.153 27.8173 181.727 26.7487 182.408C25.6801 183.09 20.8588 186.985 19.8912 190.713C18.9235 194.44 22.5079 194.836 26.1092 194.079C29.7104 193.321 33.0088 189.914 33.968 188.685C34.9272 187.457 38.276 184.63 42.6598 182.215C47.0435 179.8 44.2753 176.779 44.2753 176.779L32.9835 176.989Z" fill="black"/>
    <path d="M66.2529 187.12C66.7835 188.323 67.1405 189.595 67.3131 190.898C67.5739 193.027 67.9947 197.629 68.1545 199.009C68.4702 201.805 67.7486 204.619 66.1267 206.918C63.8212 210.158 62.618 211.445 59.3954 210.284C56.1728 209.123 56.1223 203.788 56.6103 201.029C57.0748 197.871 57.3362 194.687 57.3929 191.495C57.3417 191.135 57.3942 190.767 57.5443 190.435L66.2529 187.12Z" fill="black"/>
    <path d="M20.4127 114.456C20.4127 114.456 21.7169 138.857 27.7414 151.655C30.6081 159.67 32.3771 168.037 33.0002 176.527C32.7591 177.22 32.6792 177.96 32.7667 178.689C32.8541 179.418 33.1067 180.117 33.5051 180.734C34.885 182.602 43.2823 184.099 44.5023 177.848C45.7224 171.596 44.8894 159.9 43.2402 155.071C41.5911 150.241 43.3075 136.762 43.3075 136.762C43.3075 136.762 45.6298 138.158 48.8693 147.7C52.1087 157.242 54.4142 160.893 55.508 163.527C56.6019 166.161 57.9818 182.492 57.5358 190.452C57.5358 190.452 64.3176 191.243 66.194 187.928C68.0703 184.613 68.2891 167.902 67.6496 162.585C67.0101 157.267 64.3428 140.237 64.5195 134.944C64.6962 129.652 65.6723 125.327 64.326 120.076C62.9798 114.826 26.9926 104.022 26.9926 104.022L20.4127 114.456Z" fill="#74797C" fill-opacity="0.8"/>
    <path d="M64.5195 135.062C64.6878 129.769 65.6723 125.445 64.326 120.194C63.8212 118.225 58.4361 115.465 51.8731 112.79C40.9348 112.075 27.043 111.275 26.0923 111.452C24.399 111.951 22.7453 112.575 21.1447 113.32L20.4127 114.456C20.4127 114.456 20.4969 115.937 20.6988 118.351C23.223 119.05 28.1537 118.141 28.1537 118.141C28.8857 119.824 33.2947 125.815 38.663 128.305C44.0312 130.796 59.4879 129.492 60.405 130.468C61.3222 131.444 61.8354 144.772 61.785 146.505C61.7345 148.238 63.5603 158.882 65.2516 168.306C66.9344 177.562 65.0412 188.946 64.9823 189.341C65.4774 189.019 65.8919 188.587 66.194 188.079C68.0619 184.798 68.2891 168.054 67.6496 162.736C67.0101 157.418 64.3428 140.354 64.5195 135.062Z" fill="#4A4A4A"/>
    <path d="M30.291 34.3112C30.291 34.3112 22.4238 36.3222 19.7733 37.0458C19.5606 37.1009 19.3641 37.206 19.2002 37.3524C19.0363 37.4987 18.9097 37.6821 18.831 37.8873C18.1158 39.8562 16.3067 45.9564 17.9895 54.7155C19.2093 60.6803 19.7736 66.7605 19.6724 72.8479L16.5002 91.9985C16.5002 91.9985 12.3689 110.274 12.7728 110.762C13.1767 111.25 23.5933 118.747 26.7571 117.577C29.9208 116.408 28.8185 114.616 28.8185 114.616C28.8185 114.616 31.7466 127.708 43.173 127.287C54.5994 126.867 63.9559 126.656 65.7733 121.986C67.5908 117.317 64.6206 97.9473 62.4077 90.2988C60.1948 82.6504 55.0033 67.4461 55.0033 67.4461L71.3098 48.4975L56.7113 37.9377C56.7113 37.9377 53.1269 31.6692 51.6629 30.9035C50.1988 30.1378 49.5173 30.8278 49.5173 30.8278L30.291 34.3112Z" fill="#74797C" fill-opacity="0.8"/>
    <path d="M26.9252 113.404C26.9252 114.06 26.5886 115.087 24.5524 115.81C22.3563 116.652 16.8283 113.463 13.1934 111.073C15.0192 112.504 23.9466 118.646 26.8411 117.603C27.3473 117.422 27.8237 117.167 28.2546 116.845C27.7234 115.734 27.279 114.584 26.9252 113.404Z" fill="#E4EDF7"/>
    <path d="M65.6892 120.472C63.7708 125.402 53.9094 125.621 41.8436 126.067C39.1765 126.21 36.5308 125.522 34.2709 124.098C35.4686 125.204 36.8757 126.057 38.4091 126.609C39.9424 127.162 41.5709 127.401 43.1983 127.312C54.6331 126.892 63.9811 126.681 65.7986 122.012C66.396 120.48 66.4801 117.359 66.2361 113.597C66.3623 116.652 66.2109 119.134 65.6892 120.472Z" fill="#E4EDF7"/>
    <path d="M51.3936 30.752C51.3936 30.752 54.4058 34.2102 50.325 39.0988C46.3975 44.1739 42.9072 49.5726 39.8915 55.2371C37.6196 59.4442 35.4909 61.6571 34.3381 65.2247C34.3381 65.2247 34.0521 61.0176 33.7239 54.5556C33.4042 48.4469 33.1602 42.0943 33.3873 40.4872C33.8669 37.172 48.1121 29.2291 51.3936 30.752Z" fill="#F0F6FF"/>
    <path d="M40.7245 41.6736C40.7245 41.6736 39.252 42.6412 38.7051 42.5823C38.1581 42.5234 36.4837 40.9499 36.4837 40.9499C36.4837 40.9499 32.3272 40.9499 31.8307 39.2166C31.4934 37.7024 31.0635 36.2103 30.5434 34.7487C30.0974 33.8316 28.1958 29.4478 28.1285 27.6472C28.0612 25.8466 28.0528 22.5987 27.2366 20.9159C26.4204 19.2331 24.9564 2.2534 41.4228 2.30388C57.8893 2.35437 53.2026 19.5781 53.2026 19.5781C53.2026 19.5781 54.4142 20.0577 53.7495 22.2706C53.0848 24.4835 52.9081 24.7275 52.5715 25.8214C52.3774 26.8728 51.8421 27.8309 51.0486 28.5475L50.8214 30.5753C51.0512 31.6199 51.0721 32.6997 50.8829 33.7524C50.6937 34.8051 50.2982 35.81 49.7192 36.7092C47.7671 39.772 40.7245 41.6736 40.7245 41.6736Z" fill="#FCD1C5"/>
    <path d="M19.3523 37.2309C19.3523 37.2309 17.6021 37.5338 12.2844 51.9977C9.25531 60.0752 4.6023 68.4725 3.71882 74.4381C2.83533 80.4038 3.57578 86.7396 4.76217 87.1519C5.94856 87.5642 26.5463 94.6741 33.0168 96.9291C33.1003 96.9571 33.1888 96.9665 33.2764 96.9568C33.3639 96.9471 33.4482 96.9184 33.5235 96.8727C33.5988 96.8271 33.6632 96.7656 33.7123 96.6925C33.7614 96.6194 33.7939 96.5364 33.8077 96.4495L35.3391 86.5208L22.4991 81.952C22.4991 81.952 19.9749 79.0575 17.7031 78.0057C17.7031 78.0057 20.1264 73.2518 19.9328 71.9812C19.7393 70.7107 19.7814 57.45 18.1574 52.0986C16.5335 46.7473 19.3523 37.2309 19.3523 37.2309Z" fill="#74797C" fill-opacity="0.8"/>
    <path d="M27.7668 74.9094C27.7668 74.9094 25.983 73.7819 25.5539 73.622C25.1248 73.4621 22.7184 72.6965 22.2808 72.5113C21.4894 72.434 20.6911 72.4652 19.908 72.6039C19.7868 72.6188 19.671 72.6634 19.5712 72.7339C19.4714 72.8044 19.3905 72.8985 19.3359 73.0078C18.8226 74.0259 17.3922 76.9792 17.5857 78.0562C17.5857 78.0562 21.8854 80.5805 22.3902 81.8005L23.0633 81.9267C23.0633 81.9267 25.739 75.8097 27.7668 74.9094Z" fill="#FCD1C5"/>
    <path d="M62.4493 90.3241C61.9108 88.4898 61.2125 86.2095 60.4468 83.8115L35.0277 95.4987C37.7714 98.364 41.1101 100.593 44.8085 102.027C48.507 103.462 52.4751 104.069 56.4332 103.803C59.3917 103.558 62.2414 102.575 64.7211 100.943C64.1497 97.3659 63.3914 93.8215 62.4493 90.3241Z" fill="#74797C" fill-opacity="0.8"/>
    <path d="M71.3095 48.4974C71.3095 48.4974 64.5782 49.608 59.3026 58.426C55.8069 64.5118 52.8047 70.868 50.3247 77.4335L50.1649 78.5694C50.0682 79.2616 49.8141 79.9224 49.422 80.5009C49.0299 81.0795 48.5103 81.5604 47.9032 81.9066C47.2961 82.2528 46.6177 82.4551 45.9201 82.498C45.2225 82.5409 44.5244 82.4231 43.8795 82.1539C38.0317 79.6885 29.3651 76.0116 27.7665 74.9093C26.122 76.0197 24.7185 77.4505 23.64 79.116C22.5614 80.7815 21.83 82.6476 21.4895 84.6024C20.5135 89.9622 20.7996 89.9706 20.7996 89.9706C20.7996 89.9706 43.8963 100.068 52.7143 99.6973C61.5323 99.3271 71.9322 70.0628 73.0092 64.0383C74.0862 58.0137 75.2389 50.0876 71.3095 48.4974Z" fill="#74797C" fill-opacity="0.8"/>
    <path d="M43.6777 82.0361C43.6777 82.0361 44.4518 81.2788 45.4447 80.3533C46.4376 79.4277 47.9689 75.8517 48.2803 75.5236C48.5916 75.1954 51.9236 72.4693 53.5812 72.3851C55.2387 72.301 54.0608 74.1857 53.6821 74.455C53.3035 74.7242 51.7048 75.5741 51.7048 75.5741C51.7048 75.5741 50.0725 77.0213 49.8874 77.2569C49.7022 77.4925 54.5151 76.8025 55.2976 77.2569C55.4552 77.3723 55.5851 77.5214 55.6778 77.6934C55.7704 77.8654 55.8235 78.0558 55.8332 78.2509C55.8429 78.4461 55.8089 78.6409 55.7337 78.8212C55.6585 79.0014 55.544 79.1627 55.3986 79.2931C55.1207 79.4958 54.791 79.6154 54.4478 79.6381C54.6094 80.0367 54.6122 80.4819 54.4557 80.8825C54.2992 81.2831 53.9953 81.6086 53.6064 81.7921C52.176 82.4989 51.8394 82.1371 51.8394 82.1371C51.8394 82.1371 51.7805 84.6613 49.3741 84.2154L43.6777 82.0361Z" fill="#FCD1C5"/>
    <path d="M26.6725 12.241C26.6725 12.241 24.7036 19.1321 30.2905 17.0454C35.8775 14.9587 40.926 11.5678 42.735 12.7542C44.1065 13.663 44.1234 16.5574 44.0476 17.8953C44.0244 18.3471 44.1582 18.793 44.4263 19.1574L46.1596 21.547C46.3597 21.8175 46.4819 22.1376 46.513 22.4726L46.6728 24.1554C46.6918 24.3652 46.7887 24.5602 46.9445 24.702C47.1003 24.8437 47.3036 24.9219 47.5142 24.9211H47.9013C48.1055 24.9231 48.3034 24.8508 48.4582 24.7176C48.613 24.5845 48.7141 24.3996 48.7427 24.1974L49.1129 21.6732C49.1129 21.6732 50.3582 18.3076 53.2022 19.536C53.2022 19.536 55.0196 16.9613 54.254 11.5678C53.4883 6.1744 50.9388 0.671561 40.3118 0.0236741C29.6847 -0.624213 26.6725 12.241 26.6725 12.241Z" fill="#AA8383"/>
    <path d="M43.8036 47.614L42.1797 46.4276C41.3656 47.1495 40.6973 48.0206 40.2108 48.9939C39.6723 50.2981 40.3538 54.3957 40.3538 54.3957L39.891 55.2371L39.2684 54.1686L38.6373 49.322C38.6373 49.322 39.0833 45.7124 39.1338 45.6198C39.1842 45.5272 42.2049 45.8638 42.2049 45.8638C42.8444 46.3401 43.387 46.9341 43.8036 47.614Z" fill="#C4CCD6"/>
    <path d="M36.0462 42.9777C35.1773 43.0595 34.3407 43.348 33.6061 43.8191C33.6061 43.8191 35.3899 43.8612 35.676 43.8864C35.962 43.9117 36.0462 42.9777 36.0462 42.9777Z" fill="#C4CCD6"/>
    <path d="M42.2051 45.8638L39.2854 43.2807C39.2854 43.2807 34.8007 42.4392 35.2046 43.6845C35.6084 44.9298 35.3897 47.757 35.701 48.8676C35.7166 48.9182 35.7393 48.9664 35.7683 49.0107C35.5616 50.0819 35.2341 51.1263 34.7923 52.1239C34.2369 53.0999 33.6564 54.1938 33.6564 54.1938L34.0855 67.8415C34.0855 67.8415 38.8395 57.3659 39.8744 55.2203C39.8744 55.2203 39.5799 50.2391 39.0751 49.3304C39.7314 47.0754 42.2051 45.8638 42.2051 45.8638Z" fill="#3ED170"/>
    <path d="M48.8017 28.2783C45.7221 37.8872 36.5171 40.95 36.5171 40.95C36.5171 40.95 38.1999 42.515 38.7384 42.5823C39.2769 42.6496 40.7242 41.6736 40.7242 41.6736C40.7242 41.6736 47.7668 39.772 49.7357 36.7093C50.3147 35.81 50.7102 34.8051 50.8994 33.7524C51.0886 32.6997 51.0677 31.62 50.8379 30.5754L51.0651 28.5476C50.6985 28.7104 50.2947 28.7714 49.8964 28.724C49.4981 28.6766 49.1199 28.5227 48.8017 28.2783Z" fill="#E2B1A6"/>
    <path d="M56.6104 39.2251C56.6104 39.2251 55.424 43.7519 55.2641 43.9286C54.1691 43.9792 53.0718 43.9426 51.9826 43.8192L53.5645 46.6379C53.5645 46.6379 38.377 63.7943 35.3395 72.89C41.2007 63.814 47.8211 55.2513 55.1295 47.2942L53.2111 44.5597L56.4253 45.0982L56.6104 39.2251Z" fill="#4A4A4A"/>
    <path d="M30.8459 35.9268L30.0466 36.8944L31.0395 37.7358L28.2207 40.4199C28.2207 40.4199 27.8084 58.7627 31.6537 70.8117C31.6537 70.8117 26.6052 59.806 27.1521 39.9487L30.2233 37.7442L29.1715 36.7682L30.8459 35.9268Z" fill="#4A4A4A"/>
    <path d="M43.3073 136.795L43.4167 136.879L39.2601 132.672C41.1954 135.264 39.3611 147.38 39.2097 150.148C39.0582 152.917 41.5824 158.563 42.651 165.21C43.7196 171.857 42.1378 181.432 42.1294 181.466C42.7594 181.074 43.2975 180.551 43.7069 179.933C44.1164 179.314 44.3877 178.614 44.5021 177.881C45.7222 171.604 44.8892 159.934 43.24 155.104C41.5908 150.275 43.3073 136.795 43.3073 136.795Z" fill="#4A4A4A"/>
    <path d="M52.6893 99.6637C61.4989 99.3103 71.9324 70.0628 73.0094 64.0383C73.1861 63.037 73.3628 61.9769 73.5227 60.9083C73.5227 60.9924 71.3771 67.3114 69.3156 72.9152C67.2541 78.519 55.9035 95.7932 49.9126 97.0553C44.5108 98.1912 24.746 89.5836 20.9176 87.8755C20.6315 89.9202 20.7745 89.937 20.7745 89.937C20.7745 89.937 43.8713 100 52.6893 99.6637Z" fill="#74797C" fill-opacity="0.8"/>
    <path d="M47.8848 24.9379C48.089 24.9399 48.287 24.8676 48.4418 24.7345C48.5966 24.6014 48.6977 24.4165 48.7263 24.2143L49.0965 21.6901C49.0965 21.6901 50.3418 18.3244 53.1857 19.5529C53.1857 19.5529 54.8686 17.1044 54.288 11.9802C51.3262 16.8519 44.4351 19.1574 44.4351 19.1574L46.1684 21.547C46.3684 21.8175 46.4907 22.1376 46.5218 22.4726L46.6816 24.1554C46.7006 24.3652 46.7975 24.5602 46.9533 24.702C47.1091 24.8438 47.3124 24.9219 47.523 24.9211L47.8848 24.9379Z" fill="#936D6D"/>
    <path d="M48.0281 117.821L98.6306 63.4829L149.233 59.3853C149.233 59.3853 157.344 127.918 98.6306 200.7C39.8916 195.77 48.0281 117.821 48.0281 117.821Z" fill="#0AA63F"/>
    <path d="M149.233 59.3433L160.626 65.9147L110.015 70.0124L98.6306 63.4409L149.233 59.3433Z" fill="#17BB4F"/>
    <path d="M59.4118 124.351L110.014 70.0124L130.823 67.9088L160.617 65.9147C160.617 65.9147 168.753 134.515 110.014 207.272C51.2754 202.341 59.4118 124.351 59.4118 124.351Z" fill="#3ED170"/>
    <path opacity="0.3" d="M65.5547 125.192L111.067 76.3397L129.78 74.4466L156.57 72.6544C156.57 72.6544 163.882 134.338 111.067 199.75C58.2428 195.315 65.5547 125.192 65.5547 125.192Z" fill="#B4E9C6"/>
    <path d="M59.4123 124.351L110.015 70.0123L160.617 65.9147L159.187 65.0732L107.911 69.2214L57.3087 123.577C57.3087 123.577 50.4849 188.778 94.2383 203.713C52.8408 187.431 59.4123 124.351 59.4123 124.351Z" fill="#E4EDF7"/>
  </symbol>
  
  <symbol id="scanner-lights-question" width="20" height="20" viewBox="0 0 20 20" fill="none">
    <circle cx="10" cy="10" r="10" fill="#E4E8EB"/>
    <path d="M10 2C5.5816 2 2 5.5816 2 10C2 14.4184 5.5816 18 10 18C14.4184 18 18 14.4184 18 10C18 7.87827 17.1571 5.84344 15.6569 4.34315C14.1566 2.84285 12.1217 2 10 2Z" fill="#AAB2B7" fill-opacity="0.8"/>
    <path d="M9.43203 12.632C9.39763 12.67 9.36557 12.7101 9.33603 12.752C9.30576 12.7966 9.28154 12.845 9.26403 12.896C9.24097 12.9413 9.22479 12.9899 9.21603 13.04C9.21211 13.0933 9.21211 13.1467 9.21603 13.2C9.21333 13.3049 9.23525 13.4091 9.28003 13.504C9.31596 13.6033 9.37329 13.6934 9.44794 13.7681C9.5226 13.8427 9.61276 13.9001 9.71203 13.936C9.80779 13.9783 9.91134 14.0002 10.016 14.0002C10.1207 14.0002 10.2243 13.9783 10.32 13.936C10.4193 13.9001 10.5095 13.8427 10.5841 13.7681C10.6588 13.6934 10.7161 13.6033 10.752 13.504C10.7876 13.4067 10.8039 13.3035 10.8 13.2C10.801 13.0411 10.7545 12.8855 10.6667 12.7531C10.5789 12.6207 10.4536 12.5174 10.3068 12.4565C10.1601 12.3956 9.99849 12.3797 9.84269 12.411C9.68689 12.4422 9.54393 12.5192 9.43203 12.632ZM10 6C9.57848 5.99973 9.1643 6.1105 8.79916 6.32115C8.43402 6.53181 8.13081 6.83493 7.92003 7.2C7.86215 7.29106 7.82328 7.39288 7.80577 7.49934C7.78826 7.60581 7.79247 7.71471 7.81814 7.81951C7.84381 7.92431 7.89041 8.02283 7.95514 8.10915C8.01987 8.19547 8.1014 8.2678 8.19481 8.3218C8.28822 8.37579 8.39159 8.41033 8.4987 8.42334C8.60581 8.43635 8.71444 8.42756 8.81806 8.3975C8.92169 8.36744 9.01816 8.31673 9.10167 8.24842C9.18519 8.1801 9.25402 8.0956 9.30403 8C9.37452 7.87792 9.47601 7.77663 9.59823 7.70638C9.72045 7.63614 9.85906 7.59944 10 7.6C10.2122 7.6 10.4157 7.68429 10.5657 7.83432C10.7157 7.98434 10.8 8.18783 10.8 8.4C10.8 8.61217 10.7157 8.81566 10.5657 8.96569C10.4157 9.11572 10.2122 9.2 10 9.2C9.78786 9.2 9.58438 9.28429 9.43435 9.43432C9.28432 9.58434 9.20003 9.78783 9.20003 10V10.8C9.20003 11.0122 9.28432 11.2157 9.43435 11.3657C9.58438 11.5157 9.78786 11.6 10 11.6C10.2122 11.6 10.4157 11.5157 10.5657 11.3657C10.7157 11.2157 10.8 11.0122 10.8 10.8V10.656C11.3291 10.464 11.7739 10.0922 12.0566 9.6055C12.3394 9.11881 12.4421 8.54823 12.3468 7.99351C12.2514 7.43879 11.9642 6.93521 11.5352 6.57081C11.1063 6.20641 10.5629 6.00437 10 6Z" fill="white"/>
  </symbol>

  <symbol id="scanner-question-blank" viewBox="0 0 20 20" fill="none" xmlns="http://www.w3.org/2000/svg">
    <path d="M9.29 13.29C9.24699 13.3375 9.20692 13.3876 9.17 13.44C9.13215 13.4957 9.10189 13.5563 9.08 13.62C9.05117 13.6767 9.03095 13.7374 9.02 13.8C9.01509 13.8666 9.01509 13.9334 9.02 14C9.01662 14.1312 9.04402 14.2613 9.1 14.38C9.14491 14.5041 9.21657 14.6168 9.30989 14.7101C9.4032 14.8034 9.5159 14.8751 9.64 14.92C9.7597 14.9729 9.88913 15.0002 10.02 15.0002C10.1509 15.0002 10.2803 14.9729 10.4 14.92C10.5241 14.8751 10.6368 14.8034 10.7301 14.7101C10.8234 14.6168 10.8951 14.5041 10.94 14.38C10.9844 14.2584 11.0048 14.1294 11 14C11.0012 13.8014 10.9431 13.6069 10.8333 13.4414C10.7235 13.2759 10.5669 13.1468 10.3835 13.0706C10.2 12.9945 9.99807 12.9747 9.80332 13.0137C9.60857 13.0528 9.42987 13.149 9.29 13.29ZM10 0C4.477 0 0 4.477 0 10C0 15.523 4.477 20 10 20C15.523 20 20 15.523 20 10C20 7.34784 18.9464 4.8043 17.0711 2.92893C15.1957 1.05357 12.6522 0 10 0V0ZM10 18C7.87827 18 5.84344 17.1571 4.34315 15.6569C2.84285 14.1566 2 12.1217 2 10C2 7.87827 2.84285 5.84344 4.34315 4.34315C5.84344 2.84285 7.87827 2 10 2C12.1217 2 14.1566 2.84285 15.6569 4.34315C17.1571 5.84344 18 7.87827 18 10C18 12.1217 17.1571 14.1566 15.6569 15.6569C14.1566 17.1571 12.1217 18 10 18ZM10 5C9.47306 4.99966 8.95533 5.13812 8.49891 5.40144C8.04248 5.66476 7.66347 6.04366 7.4 6.5C7.32765 6.61382 7.27906 6.7411 7.25717 6.87418C7.23529 7.00726 7.24054 7.14339 7.27263 7.27439C7.30472 7.40538 7.36297 7.52853 7.44388 7.63643C7.5248 7.74433 7.62671 7.83475 7.74347 7.90224C7.86024 7.96974 7.98945 8.01292 8.12333 8.02918C8.25722 8.04544 8.39301 8.03445 8.52254 7.99688C8.65207 7.9593 8.77265 7.89591 8.87705 7.81052C8.98144 7.72513 9.06748 7.6195 9.13 7.5C9.2181 7.3474 9.34497 7.22078 9.49775 7.13298C9.65052 7.04517 9.82379 6.9993 10 7C10.2652 7 10.5196 7.10536 10.7071 7.29289C10.8946 7.48043 11 7.73478 11 8C11 8.26522 10.8946 8.51957 10.7071 8.70711C10.5196 8.89464 10.2652 9 10 9C9.73478 9 9.48043 9.10536 9.29289 9.29289C9.10536 9.48043 9 9.73478 9 10V11C9 11.2652 9.10536 11.5196 9.29289 11.7071C9.48043 11.8946 9.73478 12 10 12C10.2652 12 10.5196 11.8946 10.7071 11.7071C10.8946 11.5196 11 11.2652 11 11V10.82C11.6614 10.58 12.2174 10.1152 12.5708 9.50687C12.9242 8.89851 13.0525 8.18529 12.9334 7.49189C12.8143 6.79849 12.4552 6.16902 11.919 5.71352C11.3828 5.25801 10.7035 5.00546 10 5Z" fill="#AAB2B7" fill-opacity="0.8"/>
  </symbol>

  <symbol id="scanner-lights-good" width="20" height="20" viewBox="0 0 20 20" fill="none">
    <circle cx="10" cy="10" r="10" fill="#B4E9C6"/>
    <path d="M10 2C5.58844 2 2 5.58756 2 10C2 14.4116 5.58844 18 10 18C14.4116 18 18 14.4116 18 10C18 5.58756 14.4116 2 10 2Z" fill="#17BB4F"/>
    <path fill-rule="evenodd" clip-rule="evenodd" d="M9.25326 13.6942C9.13079 13.6992 9.00862 13.6787 8.89449 13.634C8.78035 13.5893 8.67672 13.5214 8.59015 13.4347L6.07637 10.9209C5.90946 10.7542 5.8156 10.5281 5.81543 10.2922C5.81526 10.0563 5.90881 9.83002 6.07548 9.66311C6.24215 9.4962 6.46831 9.40234 6.70418 9.40217C6.94006 9.402 7.16635 9.49555 7.33326 9.66222L9.25326 11.5831L13.0613 7.77778C13.1433 7.69288 13.2413 7.62516 13.3498 7.57857C13.4582 7.53199 13.5749 7.50747 13.6929 7.50644C13.8109 7.50542 13.928 7.52791 14.0372 7.5726C14.1465 7.6173 14.2457 7.6833 14.3292 7.76676C14.4126 7.85022 14.4786 7.94946 14.5233 8.05871C14.568 8.16795 14.5905 8.285 14.5895 8.40302C14.5885 8.52105 14.5639 8.63769 14.5173 8.74614C14.4708 8.85458 14.403 8.95267 14.3181 9.03467L9.91815 13.4347C9.83157 13.5214 9.72795 13.5893 9.61381 13.634C9.49967 13.6787 9.37751 13.6992 9.25504 13.6942H9.25326Z" fill="white"/>
  </symbol>

  <symbol id="scanner-lights-bad" width="20" height="20" viewBox="0 0 20 20" fill="none">
    <circle cx="10" cy="10" r="10" fill="#EA9EA7"/>
    <path d="M10 18C5.58844 18 2 14.4116 2 10C2 5.58756 5.58844 2 10 2C14.4116 2 18 5.58756 18 10C18 14.4116 14.4116 18 10 18Z" fill="#F7142F"/>
    <path fill-rule="evenodd" clip-rule="evenodd" d="M11.2471 9.99996L13.7413 12.4942C13.9067 12.6596 13.9996 12.8839 13.9996 13.1177C13.9996 13.3516 13.9067 13.5759 13.7413 13.7413C13.5759 13.9067 13.3516 13.9996 13.1177 13.9996C12.8839 13.9996 12.6596 13.9067 12.4942 13.7413L9.99996 11.2471L7.50574 13.7422C7.34036 13.9076 7.11606 14.0005 6.88218 14.0005C6.6483 14.0005 6.424 13.9076 6.25863 13.7422C6.09325 13.5768 6.00034 13.3525 6.00034 13.1186C6.00034 12.8847 6.09325 12.6604 6.25863 12.4951L8.75285 9.99996L6.25774 7.50574C6.17579 7.42379 6.11079 7.32651 6.06644 7.21944C6.02209 7.11238 5.99927 6.99762 5.99927 6.88174C5.99927 6.76585 6.02209 6.6511 6.06644 6.54403C6.11079 6.43696 6.17579 6.33968 6.25774 6.25774C6.33968 6.17579 6.43696 6.11079 6.54403 6.06644C6.6511 6.02209 6.76585 5.99927 6.88174 5.99927C6.99762 5.99927 7.11238 6.02209 7.21944 6.06644C7.32651 6.11079 7.42379 6.17579 7.50574 6.25774L9.99996 8.75285L12.4942 6.25863C12.6596 6.09325 12.8839 6.00034 13.1177 6.00034C13.3516 6.00034 13.5759 6.09325 13.7413 6.25863C13.9067 6.424 13.9996 6.6483 13.9996 6.88218C13.9996 7.11606 13.9067 7.34036 13.7413 7.50574L11.2471 9.99996Z" fill="white"/>
  </symbol>

  <symbol id="scanner-lights-exclamation" width="20" height="20" viewBox="0 0 20 20" fill="none">
    <circle cx="10" cy="10" r="10" fill="#FFD5A9"/>
    <path d="M10 2C5.58844 2 2 5.58756 2 10C2 14.4116 5.58844 18 10 18C14.4116 18 18 14.4116 18 10C18 5.58756 14.4116 2 10 2Z" fill="#FF890C"/>
    <path d="M10.8889 6.44443C10.8889 5.95351 10.4909 5.55554 9.99997 5.55554C9.50905 5.55554 9.11108 5.95351 9.11108 6.44443V11.7778C9.11108 12.2687 9.50905 12.6667 9.99997 12.6667C10.4909 12.6667 10.8889 12.2687 10.8889 11.7778V6.44443Z" fill="white"/>
    <path d="M9.99997 15.3333C10.4909 15.3333 10.8889 14.9354 10.8889 14.4444C10.8889 13.9535 10.4909 13.5555 9.99997 13.5555C9.50905 13.5555 9.11108 13.9535 9.11108 14.4444C9.11108 14.9354 9.50905 15.3333 9.99997 15.3333Z" fill="white"/>
  </symbol>

  <symbol id="scanner-eyelash" viewBox="0 0 20 13" fill="none">
    <path fill-rule="evenodd" clip-rule="evenodd" d="M11.0077 9.38998V11.44C11.0077 11.7052 10.9024 11.9596 10.7148 12.1471C10.5273 12.3346 10.273 12.44 10.0077 12.44C9.74252 12.44 9.48816 12.3346 9.30063 12.1471C9.11309 11.9596 9.00774 11.7052 9.00774 11.44V9.43998L9.00974 9.39198C8.70774 9.36198 8.40974 9.31798 8.11574 9.26198L8.11074 9.27698L7.52674 11.189C7.48832 11.3146 7.42555 11.4314 7.34199 11.5328C7.25844 11.6341 7.15574 11.718 7.03975 11.7797C6.92377 11.8413 6.79678 11.8795 6.66604 11.8921C6.53529 11.9047 6.40335 11.8914 6.27774 11.853C6.15213 11.8146 6.03531 11.7518 5.93396 11.6682C5.83262 11.5847 5.74872 11.482 5.68706 11.366C5.6254 11.25 5.58719 11.123 5.57461 10.9923C5.56203 10.8615 5.57532 10.7296 5.61374 10.604L6.19874 8.69198C5.8075 8.53025 5.42676 8.34422 5.05874 8.13498L4.09274 9.74098C4.02638 9.85606 3.93776 9.95677 3.83205 10.0372C3.72634 10.1177 3.60566 10.1763 3.47706 10.2095C3.34845 10.2428 3.21451 10.2502 3.08304 10.2311C2.95157 10.2121 2.82522 10.167 2.71135 10.0986C2.59749 10.0302 2.4984 9.93975 2.41987 9.8326C2.34134 9.72546 2.28495 9.60374 2.25398 9.47456C2.22302 9.34538 2.2181 9.21132 2.23952 9.08022C2.26094 8.94911 2.30827 8.82359 2.37874 8.71098L3.40874 6.99698C3.4133 6.98925 3.41797 6.98159 3.42274 6.97398C3.17868 6.76108 2.94507 6.53648 2.72274 6.30098L1.71974 7.33698C1.62847 7.43153 1.51947 7.50718 1.39896 7.55961C1.27846 7.61204 1.14881 7.64022 1.01741 7.64254C0.886019 7.64486 0.755453 7.62128 0.633171 7.57314C0.51089 7.525 0.399287 7.45325 0.304736 7.36198C0.210184 7.27071 0.134535 7.16172 0.0821074 7.04121C0.0296799 6.92071 0.00150106 6.79105 -0.000820401 6.65966C-0.00314186 6.52826 0.0204396 6.3977 0.0685775 6.27542C0.116715 6.15314 0.188467 6.04153 0.279736 5.94698L1.48974 4.69798C1.02409 3.94487 0.660889 3.13306 0.409736 2.28398C0.368655 2.15704 0.35339 2.02317 0.364843 1.89024C0.376295 1.75731 0.414231 1.62802 0.476418 1.50998C0.538605 1.39194 0.623785 1.28753 0.72694 1.20292C0.830095 1.1183 0.94914 1.05518 1.07706 1.01728C1.20499 0.979373 1.3392 0.967452 1.4718 0.982215C1.6044 0.996978 1.73271 1.03813 1.84916 1.10324C1.96562 1.16835 2.06787 1.25611 2.14988 1.36134C2.2319 1.46657 2.29203 1.58715 2.32674 1.71598C2.8176 3.36969 3.82966 4.82053 5.2121 5.8523C6.59453 6.88408 8.27334 7.44156 9.99836 7.44167C11.7234 7.44178 13.4023 6.88452 14.7848 5.85293C16.1674 4.82133 17.1797 3.37062 17.6707 1.71698C17.7054 1.58815 17.7656 1.46757 17.8476 1.36234C17.9296 1.25711 18.0319 1.16935 18.1483 1.10424C18.2648 1.03913 18.3931 0.997978 18.5257 0.983215C18.6583 0.968452 18.7925 0.980373 18.9204 1.01828C19.0483 1.05618 19.1674 1.1193 19.2705 1.20392C19.3737 1.28853 19.4589 1.39294 19.5211 1.51098C19.5832 1.62902 19.6212 1.75831 19.6326 1.89124C19.6441 2.02417 19.6288 2.15804 19.5877 2.28498C19.3373 3.1343 18.9748 3.94645 18.5097 4.69998L19.7177 5.94898C19.9018 6.13933 20.0028 6.39498 19.9985 6.65974C19.9942 6.92451 19.8849 7.17673 19.6947 7.36098V7.36198C19.5039 7.54637 19.2476 7.64741 18.9823 7.64291C18.7169 7.63841 18.4642 7.52873 18.2797 7.33798L17.2767 6.30298C17.0577 6.53498 16.8287 6.75598 16.5887 6.96498L16.6087 6.99798L17.6387 8.71198C17.7697 8.93903 17.8062 9.2084 17.7405 9.46213C17.6748 9.71585 17.5122 9.93365 17.2875 10.0686C17.0629 10.2036 16.7942 10.2451 16.5393 10.184C16.2845 10.1229 16.0638 9.96415 15.9247 9.74198L14.9547 8.12798C14.6332 8.31191 14.3017 8.47783 13.9617 8.62498L14.5667 10.605C14.6086 10.7315 14.6247 10.865 14.6142 10.9978C14.6037 11.1306 14.5668 11.26 14.5056 11.3783C14.4444 11.4967 14.3602 11.6016 14.2579 11.6869C14.1556 11.7723 14.0373 11.8363 13.9099 11.8753C13.7825 11.9142 13.6486 11.9274 13.5161 11.9139C13.3836 11.9004 13.2551 11.8606 13.1381 11.7967C13.0212 11.7329 12.9182 11.6463 12.8352 11.5421C12.7522 11.4379 12.6908 11.3182 12.6547 11.19L12.0547 9.22998C11.7091 9.30177 11.36 9.35518 11.0087 9.38998H11.0077Z" fill="#AAB2B7" fill-opacity="0.8"/>
  </symbol>

  <symbol id="scanner-eye" viewBox="0 0 20 16">
      <path fill="inherit" fill-opacity=".8" fill-rule="nonzero" d="M19.92 7.6C17.9 2.91 14.1 0 10 0S2.1 2.91.08 7.6a1 1 0 0 0 0 .8C2.1 13.09 5.9 16 10 16s7.9-2.91 9.92-7.6a1 1 0 0 0 0-.8zM10 14c-3.17 0-6.17-2.29-7.9-6C3.83 4.29 6.83 2 10 2s6.17 2.29 7.9 6c-1.73 3.71-4.73 6-7.9 6zm0-10a4 4 0 1 0 0 8 4 4 0 0 0 0-8zm0 6a2 2 0 1 1 0-4 2 2 0 0 1 0 4z"/>
  </symbol>

  <symbol id="scanner-in" viewBox="0 0 16 20" fill="none">
    <path d="M16 10C16 9.73478 15.8946 9.48043 15.7071 9.29289C15.5196 9.10536 15.2652 9 15 9H7.41L9.71 6.71C9.8983 6.5217 10.0041 6.2663 10.0041 6C10.0041 5.7337 9.8983 5.4783 9.71 5.29C9.5217 5.1017 9.2663 4.99591 9 4.99591C8.7337 4.99591 8.4783 5.1017 8.29 5.29L4.29 9.29C4.19896 9.3851 4.12759 9.49725 4.08 9.62C3.97998 9.86346 3.97998 10.1365 4.08 10.38C4.12759 10.5028 4.19896 10.6149 4.29 10.71L8.29 14.71C8.38296 14.8037 8.49356 14.8781 8.61542 14.9289C8.73728 14.9797 8.86799 15.0058 9 15.0058C9.13201 15.0058 9.26272 14.9797 9.38458 14.9289C9.50644 14.8781 9.61704 14.8037 9.71 14.71C9.80373 14.617 9.87812 14.5064 9.92889 14.3846C9.97966 14.2627 10.0058 14.132 10.0058 14C10.0058 13.868 9.97966 13.7373 9.92889 13.6154C9.87812 13.4936 9.80373 13.383 9.71 13.29L7.41 11H15C15.2652 11 15.5196 10.8946 15.7071 10.7071C15.8946 10.5196 16 10.2652 16 10ZM13 0H3C2.20435 0 1.44129 0.31607 0.87868 0.87868C0.31607 1.44129 0 2.20435 0 3L0 17C0 17.7956 0.31607 18.5587 0.87868 19.1213C1.44129 19.6839 2.20435 20 3 20H13C13.7956 20 14.5587 19.6839 15.1213 19.1213C15.6839 18.5587 16 17.7956 16 17V14C16 13.7348 15.8946 13.4804 15.7071 13.2929C15.5196 13.1054 15.2652 13 15 13C14.7348 13 14.4804 13.1054 14.2929 13.2929C14.1054 13.4804 14 13.7348 14 14V17C14 17.2652 13.8946 17.5196 13.7071 17.7071C13.5196 17.8946 13.2652 18 13 18H3C2.73478 18 2.48043 17.8946 2.29289 17.7071C2.10536 17.5196 2 17.2652 2 17V3C2 2.73478 2.10536 2.48043 2.29289 2.29289C2.48043 2.10536 2.73478 2 3 2H13C13.2652 2 13.5196 2.10536 13.7071 2.29289C13.8946 2.48043 14 2.73478 14 3V6C14 6.26522 14.1054 6.51957 14.2929 6.70711C14.4804 6.89464 14.7348 7 15 7C15.2652 7 15.5196 6.89464 15.7071 6.70711C15.8946 6.51957 16 6.26522 16 6V3C16 2.20435 15.6839 1.44129 15.1213 0.87868C14.5587 0.31607 13.7956 0 13 0V0Z" fill="#AAB2B7" fill-opacity="0.8"/>
  </symbol>

  <symbol id="scanner-star" viewBox="0 0 16 16">
    <path fill="#F6A623" fill-rule="nonzero" d="M11.39 13.479L8 11.607 4.61 13.48l.657-3.96-2.746-2.807 3.79-.584L8 2.521l1.689 3.607 3.79.584-2.746 2.807.657 3.96z"/>
  </symbol>

  <symbol id="scanner-star-empty" width="25" viewBox="0 0 18 17">
    <path fill="transparent" d="M7.95364 13.0996L7.95352 13.0997L4.33438 15.0013L5.02419 10.9724C5.0242 10.9723 5.02421 10.9723 5.02422 10.9722C5.02425 10.972 5.02427 10.9719 5.0243 10.9717C5.07907 10.6525 5.05549 10.3247 4.95556 10.0166C4.85557 9.70823 4.68213 9.42882 4.45019 9.20239L4.44964 9.20186L1.52164 6.34786L1.52148 6.3477L1.52222 6.3476L5.56822 5.7606L5.56889 5.7605C5.88999 5.71369 6.19489 5.58946 6.45726 5.39851C6.7194 5.20774 6.93123 4.95609 7.07451 4.66527C7.07463 4.66501 7.07476 4.66475 7.07489 4.6645L8.88414 1L10.6933 4.66434C10.6934 4.66449 10.6935 4.66464 10.6936 4.6648C10.8366 4.95551 11.0482 5.2071 11.3101 5.39793C11.5721 5.58885 11.8766 5.71323 12.1973 5.76034L12.1991 5.7606L16.2451 6.3476L16.2458 6.3477L16.2456 6.34786L13.318 9.20155C13.3179 9.20165 13.3177 9.20176 13.3176 9.20186C13.0855 9.42804 12.9118 9.70725 12.8115 10.0155C12.7112 10.3238 12.6873 10.6519 12.742 10.9716L12.742 10.972L13.4329 15.0013L9.81377 13.0997L9.81364 13.0996C9.5268 12.949 9.20765 12.8703 8.88364 12.8703C8.55964 12.8703 8.24049 12.949 7.95364 13.0996Z" stroke="#AAB2B7" stroke-width="2"/>
  </symbol>

  <symbol id="scanner-star-yellow" width="25" viewBox="0 0 18 17">
    <path fill="inherit" d="M7.95364 13.0996L7.95352 13.0997L4.33438 15.0013L5.02419 10.9724C5.0242 10.9723 5.02421 10.9723 5.02422 10.9722C5.02425 10.972 5.02427 10.9719 5.0243 10.9717C5.07907 10.6525 5.05549 10.3247 4.95556 10.0166C4.85557 9.70823 4.68213 9.42882 4.45019 9.20239L4.44964 9.20186L1.52164 6.34786L1.52148 6.3477L1.52222 6.3476L5.56822 5.7606L5.56889 5.7605C5.88999 5.71369 6.19489 5.58946 6.45726 5.39851C6.7194 5.20774 6.93123 4.95609 7.07451 4.66527C7.07463 4.66501 7.07476 4.66475 7.07489 4.6645L8.88414 1L10.6933 4.66434C10.6934 4.66449 10.6935 4.66464 10.6936 4.6648C10.8366 4.95551 11.0482 5.2071 11.3101 5.39793C11.5721 5.58885 11.8766 5.71323 12.1973 5.76034L12.1991 5.7606L16.2451 6.3476L16.2458 6.3477L16.2456 6.34786L13.318 9.20155C13.3179 9.20165 13.3177 9.20176 13.3176 9.20186C13.0855 9.42804 12.9118 9.70725 12.8115 10.0155C12.7112 10.3238 12.6873 10.6519 12.742 10.9716L12.742 10.972L13.4329 15.0013L9.81377 13.0997L9.81364 13.0996C9.5268 12.949 9.20765 12.8703 8.88364 12.8703C8.55964 12.8703 8.24049 12.949 7.95364 13.0996Z" stroke="#FF890C" stroke-width="2"/>
  </symbol>

  <symbol id="advice-user-tie" viewBox="0 0 18 20">
    <path d="M17.7351 16.0326C17.7959 16.5905 17.8969 18.1132 17.9856 19.7366L18 20H15.8664L15.8538 19.7653C15.7737 18.2735 15.6759 16.8135 15.6196 16.2957C15.5817 15.9501 15.0182 15.6346 13.9904 15.3508C13.8514 15.3124 12.6348 15.0152 12.4144 14.9349C12.2444 14.8729 12.1365 14.8125 12.0685 14.7136C11.9731 14.575 11.8246 14.2944 11.6303 13.897C11.604 13.8431 11.604 13.8431 11.5778 13.7891C11.475 13.5767 11.3678 13.3493 11.2625 13.122C11.1993 12.9857 11.1508 12.8795 11.1243 12.8209C10.8684 12.2705 11.0208 11.5748 11.4603 11.1865L11.4547 11.1768C11.4776 11.1615 11.5007 11.1472 11.524 11.134C11.5454 11.1175 11.5674 11.1017 11.59 11.0867L11.5957 11.0964C12.1258 10.8432 12.6953 11.102 12.8972 11.7165L13.2248 12.7136C14.3404 12.9545 15.1836 13.1421 15.4976 13.2246C16.755 13.5523 17.5763 14.587 17.7351 16.0326ZM4.77493 12.7136L5.1025 11.7165C5.30441 11.102 5.8739 10.8432 6.40399 11.0964L6.4097 11.0867C6.43229 11.1017 6.4543 11.1175 6.47571 11.134C6.49893 11.1472 6.52204 11.1615 6.545 11.1768L6.53932 11.1865C6.97886 11.5748 7.13129 12.2703 6.87643 12.8186C6.84885 12.8795 6.80031 12.9857 6.73716 13.122C6.63189 13.3493 6.52471 13.5767 6.42189 13.7891C6.3957 13.8431 6.3957 13.8431 6.36941 13.897C6.17511 14.2944 6.0266 14.575 5.93123 14.7136C5.86316 14.8125 5.75532 14.8729 5.58536 14.9349C5.36495 15.0152 4.1484 15.3124 4.00944 15.3508C2.98169 15.6346 2.4182 15.9501 2.38026 16.2954C2.32396 16.8135 2.22622 18.2735 2.14609 19.7653L2.13348 20H0L0.0143949 19.7366C0.103126 18.1132 0.204099 16.5905 0.26495 16.0324C0.423701 14.587 1.24498 13.5523 2.50232 13.2246C2.81624 13.1421 3.65939 12.9545 4.77493 12.7136ZM8.99983 11C6.14282 11 4 8.4289 4 5.04895C4 2.3102 6.28645 0 8.99983 0C11.7135 0 14 2.31015 14 5.04895C14 8.42882 11.8569 11 8.99983 11ZM8.99983 1.66193C7.22035 1.66193 5.67001 3.23885 5.67001 5.04454C5.67001 7.47612 7.08923 9.33807 8.99983 9.33807C10.9103 9.33807 12.33 7.47588 12.33 5.04454C12.33 3.23891 10.7794 1.66193 8.99983 1.66193Z" fill="#BBC1C5"/>
    <path d="M7.87655 16.102C7.41165 15.69 7.32306 14.9164 7.67963 14.377L8.31062 13.4223C8.6829 12.8591 9.31718 12.8593 9.68935 13.4223L10.3203 14.377C10.6776 14.9174 10.5896 15.6888 10.1231 16.102L9.98573 16.2237L11 20H7L8.01389 16.2237L7.87655 16.102Z" fill="#4A4A4A"/>
  </symbol> 

  <symbol id="advice-aim" viewBox="0 0 20 20">
    <path d="M4.49969 6.79795C4.75182 6.36377 4.60424 5.80741 4.17006 5.55528C3.73588 5.30315 3.17951 5.45072 2.92738 5.8849C1.46612 8.40126 1.43267 11.524 2.91475 14.091C5.17409 18.0043 10.178 19.3451 14.0913 17.0857C18.0046 14.8264 19.3454 9.82247 17.0861 5.90917C14.8267 1.99587 9.8228 0.65507 5.9095 2.91442C5.47469 3.16546 5.32571 3.72145 5.57675 4.15626C5.82779 4.59107 6.38378 4.74005 6.81859 4.48901C9.86227 2.73174 13.7542 3.77458 15.5115 6.81826C17.2687 9.86194 16.2259 13.7539 13.1822 15.5112C10.1385 17.2684 6.24661 16.2256 4.48934 13.1819C3.3362 11.1846 3.3622 8.75674 4.49969 6.79795Z" fill="#BBC1C5"/>
    <path d="M15.5003 6.79795C15.2482 6.36377 15.3958 5.80741 15.8299 5.55528C16.2641 5.30315 16.8205 5.45072 17.0726 5.8849C18.5339 8.40126 18.5673 11.524 17.0853 14.091C14.8259 18.0043 9.82199 19.3451 5.90868 17.0857C1.99538 14.8264 0.654582 9.82247 2.91393 5.90917C5.17327 1.99587 10.1772 0.65507 14.0905 2.91442C14.5253 3.16546 14.6743 3.72145 14.4233 4.15626C14.1722 4.59107 13.6162 4.74005 13.1814 4.48901C10.1377 2.73174 6.24579 3.77458 4.48852 6.81826C2.73125 9.86194 3.77409 13.7539 6.81777 15.5112C9.86145 17.2684 13.7534 16.2256 15.5107 13.1819C16.6638 11.1846 16.6378 8.75674 15.5003 6.79795Z" fill="#BBC1C5"/>
    <path d="M9.09082 0.909091C9.09082 0.407014 9.49783 0 9.99991 0C10.502 0 10.909 0.407014 10.909 0.909091V6.36364C10.909 6.86571 10.502 7.27273 9.99991 7.27273C9.49783 7.27273 9.09082 6.86571 9.09082 6.36364V0.909091Z" fill="#4A4A4A"/>
    <path d="M9.09082 13.6361C9.09082 13.1341 9.49783 12.7271 9.99991 12.7271C10.502 12.7271 10.909 13.1341 10.909 13.6361V19.0907C10.909 19.5928 10.502 19.9998 9.99991 19.9998C9.49783 19.9998 9.09082 19.5928 9.09082 19.0907V13.6361Z" fill="#4A4A4A"/>
    <path d="M13.6366 10.909C13.1346 10.909 12.7275 10.502 12.7275 9.99991C12.7275 9.49783 13.1346 9.09082 13.6366 9.09082H19.0912C19.5933 9.09082 20.0003 9.49783 20.0003 9.99991C20.0003 10.502 19.5933 10.909 19.0912 10.909H13.6366Z" fill="#4A4A4A"/>
    <path d="M0.909091 10.909C0.407014 10.909 0 10.502 0 9.99991C0 9.49783 0.407014 9.09082 0.909091 9.09082H6.36364C6.86571 9.09082 7.27273 9.49783 7.27273 9.99991C7.27273 10.502 6.86571 10.909 6.36364 10.909H0.909091Z" fill="#4A4A4A"/>
    <path d="M9.99956 14.5455C7.48917 14.5455 5.4541 12.5104 5.4541 10C5.4541 7.48966 7.48917 5.45459 9.99956 5.45459C12.5099 5.45459 14.545 7.48966 14.545 10C14.545 12.5104 12.5099 14.5455 9.99956 14.5455ZM9.99956 12.7273C11.5058 12.7273 12.7268 11.5063 12.7268 10C12.7268 8.49381 11.5058 7.27277 9.99956 7.27277C8.49332 7.27277 7.27228 8.49381 7.27228 10C7.27228 11.5063 8.49332 12.7273 9.99956 12.7273Z" fill="#BBC1C5"/>
  </symbol>

  <symbol id="advice-tally" viewBox="0 0 24 24">
    <path d="M12.8385 19.6751C12.4687 20.0855 11.8335 20.1161 11.4246 19.7479L4.35677 13.3843C3.94567 13.0141 3.91037 12.3834 4.27543 11.9783L11.0514 4.45862C11.4176 4.05225 12.1663 3.72591 12.7062 3.72959L18.309 3.76777C18.8568 3.7715 19.3569 4.21932 19.427 4.77561L20.1399 10.4309C20.2096 10.9838 19.9683 11.7625 19.5965 12.175L12.8385 19.6751ZM20.957 3.04074C20.888 2.49358 20.3817 2.04695 19.8299 2.04319L11.9493 1.98942C11.3958 1.98564 10.6435 2.3195 10.2744 2.72901L2.50156 11.355C1.76142 12.1763 1.82466 13.4393 2.65166 14.1839L10.8068 21.526C11.6298 22.267 12.8947 22.2044 13.6377 21.3798L21.414 12.7498C21.7856 12.3374 22.0297 11.5495 21.962 11.0123L20.957 3.04074Z" fill="#BBC1C5"/>
    <path fill-rule="evenodd" clip-rule="evenodd" d="M11.6452 8.15095C12.0075 7.73414 12.6391 7.68997 13.056 8.0523C13.4728 8.41463 13.5169 9.04626 13.1546 9.46307L9.21825 13.9913C8.85592 14.4081 8.2243 14.4523 7.80748 14.09C7.39067 13.7276 7.3465 13.096 7.70883 12.6792L11.6452 8.15095ZM15.0907 6.61349C15.6312 5.99165 16.5731 5.92578 17.1949 6.46634C17.8164 7.0066 17.8823 7.94882 17.342 8.56998C16.8015 9.19182 15.8596 9.25768 15.2378 8.71712C14.6163 8.1772 14.5504 7.23498 15.0907 6.61349Z" fill="#4A4A4A"/>
    <path fill-rule="evenodd" clip-rule="evenodd" d="M14.8473 10.9348L10.9109 15.4631C10.5486 15.8799 10.5928 16.5115 11.0096 16.8738C11.4264 17.2362 12.058 17.192 12.4204 16.7752L16.3567 12.2469C16.719 11.8301 16.6749 11.1985 16.2581 10.8362C15.8413 10.4738 15.2096 10.518 14.8473 10.9348Z" fill="#4A4A4A"/>
  </symbol>

  <symbol id="advice-aim-green" viewBox="0 0 20 20" fill="none">
    <path d="M4.4992 6.79795C4.75133 6.36377 4.60375 5.80741 4.16957 5.55528C3.73539 5.30315 3.17903 5.45073 2.9269 5.8849C1.46563 8.40126 1.43219 11.524 2.91426 14.091C5.17361 18.0043 10.1775 19.3451 14.0908 17.0857C18.0041 14.8264 19.3449 9.82247 17.0856 5.90917C14.8262 1.99587 9.82232 0.65507 5.90901 2.91442C5.4742 3.16545 5.32522 3.72145 5.57626 4.15626C5.8273 4.59107 6.38329 4.74005 6.8181 4.48901C9.86178 2.73174 13.7537 3.77458 15.511 6.81826C17.2683 9.86194 16.2254 13.7539 13.1817 15.5111C10.1381 17.2684 6.24612 16.2256 4.48885 13.1819C3.33571 11.1846 3.36172 8.75674 4.4992 6.79795Z" fill="#17BB4F"/>
    <path d="M15.5008 6.79795C15.2487 6.36377 15.3963 5.80741 15.8304 5.55528C16.2646 5.30315 16.821 5.45073 17.0731 5.8849C18.5344 8.40126 18.5678 11.524 17.0857 14.091C14.8264 18.0043 9.82247 19.3451 5.90917 17.0857C1.99587 14.8264 0.65507 9.82247 2.91442 5.90917C5.17376 1.99587 10.1777 0.65507 14.091 2.91442C14.5258 3.16545 14.6748 3.72145 14.4237 4.15626C14.1727 4.59107 13.6167 4.74005 13.1819 4.48901C10.1382 2.73174 6.24628 3.77458 4.48901 6.81826C2.73174 9.86194 3.77458 13.7539 6.81826 15.5111C9.86194 17.2684 13.7539 16.2256 15.5111 13.1819C16.6643 11.1846 16.6383 8.75674 15.5008 6.79795Z" fill="#17BB4F"/>
    <path d="M9.09082 0.909091C9.09082 0.407014 9.49783 0 9.99991 0C10.502 0 10.909 0.407014 10.909 0.909091V6.36364C10.909 6.86571 10.502 7.27273 9.99991 7.27273C9.49783 7.27273 9.09082 6.86571 9.09082 6.36364V0.909091Z" fill="#17BB4F"/>
    <path d="M9.09082 13.6364C9.09082 13.1343 9.49783 12.7273 9.99991 12.7273C10.502 12.7273 10.909 13.1343 10.909 13.6364V19.0909C10.909 19.593 10.502 20 9.99991 20C9.49783 20 9.09082 19.593 9.09082 19.0909V13.6364Z" fill="#17BB4F"/>
    <path d="M13.6361 10.909C13.1341 10.909 12.7271 10.502 12.7271 9.99991C12.7271 9.49783 13.1341 9.09082 13.6361 9.09082H19.0907C19.5928 9.09082 19.9998 9.49783 19.9998 9.99991C19.9998 10.502 19.5928 10.909 19.0907 10.909H13.6361Z" fill="#17BB4F"/>
    <path d="M0.909091 10.909C0.407014 10.909 0 10.502 0 9.99991C0 9.49783 0.407014 9.09082 0.909091 9.09082H6.36364C6.86571 9.09082 7.27273 9.49783 7.27273 9.99991C7.27273 10.502 6.86571 10.909 6.36364 10.909H0.909091Z" fill="#17BB4F"/>
    <path fill-rule="evenodd" clip-rule="evenodd" d="M5.45459 10C5.45459 12.5104 7.48966 14.5455 10 14.5455C12.5104 14.5455 14.5455 12.5104 14.5455 10C14.5455 7.48966 12.5104 5.45459 10 5.45459C7.48966 5.45459 5.45459 7.48966 5.45459 10ZM12.7273 10C12.7273 11.5063 11.5063 12.7273 10 12.7273C8.49381 12.7273 7.27277 11.5063 7.27277 10C7.27277 8.49381 8.49381 7.27277 10 7.27277C11.5063 7.27277 12.7273 8.49381 12.7273 10Z" fill="#17BB4F"/>
  </symbol> 
</svg>

