<?xml version="1.0" encoding="utf-8"?>
<svg xmlns="http://www.w3.org/2000/svg" style="display: none">
    <symbol id="expertise" viewBox="0 0 200 200">
        <g fill="#0E0F0F">
            <path d="M70.8,67.6c-1.7,0-3,1.3-3,3v36.3c0,1.7,1.3,3,3,3c1.7,0,3-1.3,3-3V70.6
		C73.8,68.9,72.5,67.6,70.8,67.6z"/>
            <path d="M89.7,43c-1.7,0-3,1.3-3,3v61.2c0,1.7,1.3,3,3,3s3-1.3,3-3V46C92.7,44.3,91.4,43,89.7,43z"/>
            <path d="M51.9,83.8c-1.7,0-3,1.3-3,3v20c0,1.7,1.3,3,3,3s3-1.3,3-3v-20C54.9,85.1,53.6,83.8,51.9,83.8z
		"/>
            <path d="M108.6,62.3c-1.7,0-3,1.3-3,3v41.9c0,1.7,1.3,3,3,3s3-1.3,3-3V65.3
		C111.6,63.6,110.3,62.3,108.6,62.3z"/>
            <path d="M175.3,147.7l-35.4-35.5C146.3,102,150,89.9,150,77c0-36.9-30-66.9-66.9-66.9
		S16.2,40.1,16.2,77s30,66.9,66.9,66.9c14.9,0,28.7-4.9,39.9-13.2l34.7,34.7c2.4,2.4,5.6,3.7,8.8,3.7s6.4-1.2,8.8-3.7
		C180.2,160.5,180.2,152.5,175.3,147.7z M22.2,77c0-33.6,27.3-60.9,60.9-60.9S144,43.4,144,77s-27.3,60.9-60.9,60.9
		S22.2,110.5,22.2,77z M171.1,161.1c-2.5,2.5-6.7,2.5-9.2,0l-34.3-34.3c3.2-2.9,6.2-6.1,8.8-9.6l34.7,34.7
		C173.6,154.4,173.6,158.5,171.1,161.1z"/>
        </g>
    </symbol>
    <symbol id="analytics" viewBox="0 0 200 200">
        <g fill="#0E0F0F">
            <path d="M170.8,116.8V42.6h-35.7c-1.5-19.4-17.8-34.7-37.6-34.7s-36,15.3-37.6,34.7H24.3v74.3
		C10.6,118.4,0,130,0,144.1c0,15.1,12.3,27.3,27.3,27.3c14.1,0,25.7-10.7,27.2-24.3h15.9c1.5,13.7,13.1,24.3,27.2,24.3
		s25.7-10.7,27.2-24.3h15.9c1.5,13.7,13.1,24.3,27.2,24.3c15.1,0,27.3-12.3,27.3-27.3C195.2,130,184.5,118.3,170.8,116.8z
		 M164.8,116.8c-12.7,1.4-22.8,11.5-24.2,24.2h-15.9c-1.4-12.7-11.5-22.8-24.2-24.2V83.2c18.4-1.5,33.1-16.2,34.6-34.6h29.7
		L164.8,116.8L164.8,116.8z M97.6,14c17.5,0,31.7,14.2,31.7,31.7s-14.2,31.7-31.7,31.7S65.9,63.2,65.9,45.7S80.1,14,97.6,14z
		 M60,48.6C61.5,67,76.2,81.7,94.6,83.2v33.7c-12.7,1.4-22.8,11.5-24.2,24.2H54.5c-1.4-12.7-11.5-22.8-24.2-24.2V48.6H60L60,48.6z
		 M27.3,165.4c-11.8,0-21.3-9.6-21.3-21.3s9.6-21.3,21.3-21.3s21.3,9.6,21.3,21.3S39,165.4,27.3,165.4z M97.6,165.4
		c-11.8,0-21.3-9.6-21.3-21.3s9.6-21.3,21.3-21.3s21.3,9.6,21.3,21.3S109.3,165.4,97.6,165.4z M167.8,165.4
		c-11.8,0-21.3-9.6-21.3-21.3s9.6-21.3,21.3-21.3s21.3,9.6,21.3,21.3S179.6,165.4,167.8,165.4z"/>
            <polygon points="97.6,37.1 114.1,53.7 118.3,49.4 97.6,28.7 76.8,49.4 81,53.7 	"/>
            <polygon points="97.6,149.3 88.3,140.1 84.1,144.3 97.6,157.8 111,144.3 106.8,140.1 	"/>
            <polygon points="29.8,130.6 16.4,144.1 29.8,157.5 34.1,153.3 24.8,144.1 34.1,134.8 	"/>
            <polygon points="163,134.8 172.3,144.1 163,153.3 167.3,157.5 180.8,144.1 167.3,130.6 	"/>
        </g>
    </symbol>
    <symbol id="credit" viewBox="0 0 200 200">
        <g fill="#0E0F0F">
            <path d="M184.2,85.6L97.6,0L11,85.6c-1.5,1.4-1.9,3.6-1.1,5.5c0.8,1.9,2.6,3.1,4.7,3.1h15v79
		c0,3.3,2.7,6,6,6h124c3.3,0,6-2.7,6-6v-79h15c2.1,0,3.9-1.2,4.7-3.1S185.7,87.1,184.2,85.6z M159.6,88.3v85h-124v-85H16.9L97.6,8.5
		l80.7,79.8L159.6,88.3L159.6,88.3z"/>
            <path d="M104.2,142.5c0,7.7,6.3,14,14,14s14-6.3,14-14s-6.3-14-14-14S104.2,134.8,104.2,142.5z
		 M126.2,142.5c0,4.4-3.6,8-8,8s-8-3.6-8-8s3.6-8,8-8S126.2,138.1,126.2,142.5z"/>
            <path d="M77,115.3c7.7,0,14-6.3,14-14s-6.3-14-14-14s-14,6.3-14,14S69.3,115.3,77,115.3z M77,93.3
		c4.4,0,8,3.6,8,8s-3.6,8-8,8s-8-3.6-8-8S72.6,93.3,77,93.3z"/>
            <path d="M67.3,151.9c0.6,0.6,1.4,0.9,2.1,0.9s1.5-0.3,2.1-0.9l55.7-55.7c1.2-1.2,1.2-3.1,0-4.2
		c-1.2-1.2-3.1-1.2-4.2,0l-55.7,55.7C66.1,148.9,66.1,150.8,67.3,151.9z"/>
        </g>
    </symbol>
    <symbol id="ird" viewBox="0 0 200 200">
        <g fill="#0E0F0F">
            <path d="M26.7,15.1h75.8v34.4c0,1.7,1.3,3,3,3h34.4v15.7h6V48.3L106.8,9.1H20.7v160.9h75.2v-6H26.7
		V15.1L26.7,15.1z M108.5,46.5V19.4l27.1,27.1H108.5z"/>
            <path d="M100.7,62.8h-54c-1.7,0-3,1.3-3,3c0,1.7,1.3,3,3,3h54c1.7,0,3-1.3,3-3
		C103.7,64.1,102.3,62.8,100.7,62.8z"/>
            <path d="M100.7,84.3h-54c-1.7,0-3,1.3-3,3s1.3,3,3,3h54c1.7,0,3-1.3,3-3S102.3,84.3,100.7,84.3z"/>
            <path d="M103.7,108.8c0-1.7-1.3-3-3-3h-54c-1.7,0-3,1.3-3,3s1.3,3,3,3h54
		C102.3,111.8,103.7,110.4,103.7,108.8z"/>
            <path d="M171.5,144.9h-22.2c-0.5-7.6-0.2-21.9,5-28.1c8.7-10.4,7.7-20.3,7.7-20.7
		c-1.4-16.8-15.9-21.6-23.4-21.8c-0.1,0-0.1,0-0.2,0c-7.5,0.2-22.1,5-23.4,21.7c0,0.4-1,10.4,7.7,20.8c5.2,6.1,5.5,20.5,5,28.1
		h-22.2c-1.7,0-3,1.3-3,3v10.5c0,6.3,5.2,11.5,11.5,11.5h49c6.3,0,11.5-5.2,11.5-11.5v-10.5C174.5,146.4,173.1,144.9,171.5,144.9z
		 M168.5,158.4c0,3-2.5,5.5-5.5,5.5h-49c-3,0-5.5-2.5-5.5-5.5v-7.5h22c1.5,0,2.8-1.2,3-2.7c0.1-1,2.5-24.9-6.2-35.3
		c-7-8.3-6.3-15.9-6.3-16.3c1.2-15.1,16.1-16.2,17.5-16.2c1.4,0.1,16.3,1.1,17.5,16.3c0,0.3,0.7,8-6.3,16.3
		c-8.7,10.4-6.3,34.2-6.2,35.3c0.2,1.5,1.4,2.7,3,2.7h22V158.4z"/>
        </g>
    </symbol>
    <symbol id="spk" viewBox="0 0 200 200">
        <g fill="#0E0F0F">
            <path d="M150.2,135.4c0,19.4-15.8,35.2-35.2,35.2H66.4c-19.4,0-35.2-15.8-35.2-35.2V80.1h13.6h92h10v-6
		h-10V48.6c0-25.4-20.6-46-46-46s-46,20.6-46,46v25.5H25.2v61.3c0,22.7,18.5,41.2,41.2,41.2h48.6c22.7,0,41.2-18.5,41.2-41.2v-30.1
		h-6L150.2,135.4L150.2,135.4z M50.7,48.7c0-22.1,17.9-40,40-40s40,17.9,40,40v25.5h-80V48.7z"/>
            <polygon points="61.5,115.7 57.7,120.3 93.8,151 169.9,75.5 165.7,71.3 93.5,142.8 	"/>
        </g>
    </symbol>
    <symbol id="freshdoc" viewBox="0 0 200 200">
        <g fill="#0E0F0F">
            <path d="M132.6,38.8h-6.9v-9.7c0-3.3-2.7-5.9-5.9-5.9h-14.6c-3.3,0-5.9,2.7-5.9,5.9v9.7H89v-9.7
		c0-3.3-2.7-5.9-5.9-5.9H68.5c-3.3,0-5.9,2.7-5.9,5.9v9.7H52.2v-9.7c0-3.3-2.7-5.9-5.9-5.9H31.7c-3.3,0-5.9,2.7-5.9,5.9v9.7h-6.9
		v52.1h113.7L132.6,38.8L132.6,38.8z M105.2,29.1h14.5v9.6h-14.5V29.1z M68.5,29.1H83v9.6H68.5V29.1z M31.7,29.1h14.5v9.6H31.7V29.1
		z M126.6,84.8H24.9V44.7h0.9h26.4h10.3h26.4h10.3h26.4h0.9L126.6,84.8L126.6,84.8z"/>
            <path d="M18.9,156h69.6v-52.1H18.9V156z M24.9,110h57.6v40.1H24.9V110z"/>
            <path d="M169.9,104v-9.7c0-3.3-2.7-5.9-5.9-5.9h-14.6c-3.3,0-5.9,2.7-5.9,5.9v9.7h-41.8v52.1h74.6V104
		H169.9z M149.4,94.3h14.5v9.6h-14.5V94.3z M170.3,150h-62.6v-40.1h35.8h26.4h0.4L170.3,150L170.3,150z"/>
        </g>
    </symbol>
    <symbol id="blockchain" viewBox="0 0 200 200">
        <g fill="#0E0F0F">
            <path d="M53.3,31.3c-7.7,0-14,6.3-14,14s6.3,14,14,14c6.7,0,12.3-4.7,13.7-11h53.2v-6H67
		C65.6,35.9,59.9,31.3,53.3,31.3z M53.3,53.3c-4.4,0-8-3.6-8-8s3.6-8,8-8s8,3.6,8,8S57.6,53.3,53.3,53.3z"/>
            <polygon points="43.3,64.6 33.8,64.6 33.8,25.8 72.8,25.8 72.8,35.6 78.8,35.6 78.8,19.8 27.8,19.8
		27.8,70.6 43.3,70.6 	"/>
            <polygon points="116.6,20.1 116.6,35.3 122.6,35.3 122.6,26.1 161.4,26.1 161.4,64.9 152.1,64.9
		152.1,70.9 167.4,70.9 167.4,20.1 	"/>
            <polygon points="152.3,114.4 161.4,114.4 161.4,153.4 122.6,153.4 122.6,143.8 116.6,143.8
		116.6,159.4 167.4,159.4 167.4,108.4 152.3,108.4 	"/>
            <polygon points="72.8,153.4 33.8,153.4 33.8,114.4 43.3,114.4 43.3,108.4 27.8,108.4 27.8,159.4
		78.8,159.4 78.8,143.9 72.8,143.9 	"/>
            <path d="M145.1,111.4V58.8c6.3-1.4,11-7,11-13.7c0-7.7-6.3-14-14-14s-14,6.3-14,14
		c0,6.7,4.7,12.3,11,13.7v52.6H145.1z M134.1,45.3c0-4.4,3.6-8,8-8s8,3.6,8,8s-3.6,8-8,8S134.1,49.6,134.1,45.3z"/>
            <path d="M75.8,136.8h52.6c1.4,6.3,7,11,13.7,11c7.7,0,14-6.3,14-14s-6.3-14-14-14
		c-6.7,0-12.3,4.7-13.7,11H75.8V136.8z M142.1,125.8c4.4,0,8,3.6,8,8s-3.6,8-8,8s-8-3.6-8-8S137.6,125.8,142.1,125.8z"/>
            <path d="M50.3,67.6v52.4c-6.3,1.4-11,7-11,13.7c0,7.7,6.3,14,14,14s14-6.3,14-14
		c0-6.7-4.7-12.3-11-13.7V67.6H50.3z M61.3,133.8c0,4.4-3.6,8-8,8s-8-3.6-8-8s3.6-8,8-8S61.3,129.4,61.3,133.8z"/>
        </g>
    </symbol>
    <symbol id="pay" viewBox="0 0 200 200">
        <g fill="#0E0F0F">
            <path d="M172.4,128.5v-95c0-7.9-6.4-14.2-14.2-14.2H36.9c-7.9,0-14.2,6.4-14.2,14.2v95H6.6v9.6
		c0,12,9.8,21.8,21.8,21.8h138.3c12,0,21.8-9.8,21.8-21.8v-9.6H172.4z M28.7,33.5c0-4.5,3.7-8.2,8.2-8.2h121.3
		c4.5,0,8.2,3.7,8.2,8.2v95h-10.7V36.6H39.4v91.9H28.7V33.5z M149.7,128.5H45.4V42.6h104.3V128.5z M182.5,138.1
		c0,8.7-7.1,15.8-15.8,15.8H28.4c-8.7,0-15.8-7.1-15.8-15.8v-3.6h10.1h16.7h116.3h16.7h10.1L182.5,138.1L182.5,138.1z"/>
            <polygon points="82.2,94.7 69.8,82.3 104.2,82.3 104.2,76.3 69.8,76.3 82.2,63.8 78,59.6 58.3,79.3
		78,98.9 	"/>
            <polygon points="93.5,93.8 93.5,99.8 128,99.8 115.5,112.3 119.8,116.5 139.5,96.8 119.8,77.1
		115.5,81.4 128,93.8 	"/>
        </g>
    </symbol>
</svg>
