<svg xmlns="http://www.w3.org/2000/svg" style="display: none;">
  <symbol id="building" stroke="none" stroke-width="1" fill-rule="evenodd">
    <rect x="0" y="0" width="18" height="18" fill="none"></rect>
    <g transform="translate(1.000000, 1.000000)" fill="#949494">
      <path d="M16.0003228,3.00610816 L9.95843506,3.00610816 L9.95843506,8.10038488e-14 C9.95843506,8.10038488e-14 9.53076923,7.90478794e-14 9.34945055,7.90478794e-14 L0.352747253,7.90478794e-14 C0.171428571,7.90478794e-14 0.0263736264,0.143673469 0.0263736264,0.323265306 L0.0263736264,15.6702041 C0.0263736264,15.8497959 0.171428571,15.9934694 0.352747253,15.9934694 L9.34945055,15.9934694 L15.6739491,15.9934694 C15.8552678,15.9934694 16.0003228,15.8497959 16.0003228,15.6702041 L16.0003228,3.30338687 C16.0003228,3.12379504 16.1816415,3.00610816 16.0003228,3.00610816 Z M9.02307692,15.0180744 L0.994048956,15.0180744 L0.994048956,0.953036231 L9.02307692,0.953036231 L9.02307692,4.28408163 L9.02307692,15.0180744 Z M15.0264305,15.0109615 L9.95564748,15.0109615 L9.95564748,3.92978294 L15.0264305,3.92978294 L15.0264305,15.0109615 Z" id="Shape" />
      <path d="M11.337587,12.0078125 L13.6349237,12.0078125 C13.8308206,12.0078125 14,11.6834981 14,11.5039062 C14,11.3243144 13.8308206,11 13.6349237,11 L11.337587,11 C11.1416901,11 11,11.3243144 11,11.5039062 C11,11.6834981 11.1416901,12.0078125 11.337587,12.0078125 Z" id="Shape" />
      <path d="M11.337587,14.0078125 L13.6349237,14.0078125 C13.8308206,14.0078125 14,13.6834981 14,13.5039062 C14,13.3243144 13.8308206,13 13.6349237,13 L11.337587,13 C11.1416901,13 11,13.3243144 11,13.5039062 C11,13.6834981 11.1416901,14.0078125 11.337587,14.0078125 Z" id="Shape-Copy-4" />
      <path d="M11.337587,10.0078125 L13.6349237,10.0078125 C13.8308206,10.0078125 14,9.68349809 14,9.50390625 C14,9.32431441 13.8308206,9 13.6349237,9 L11.337587,9 C11.1416901,9 11,9.32431441 11,9.50390625 C11,9.68349809 11.1416901,10.0078125 11.337587,10.0078125 Z" id="Shape-Copy" />
      <path d="M11.337587,8.0078125 L13.6349237,8.0078125 C13.8308206,8.0078125 14,7.68349809 14,7.50390625 C14,7.32431441 13.8308206,7 13.6349237,7 L11.337587,7 C11.1416901,7 11,7.32431441 11,7.50390625 C11,7.68349809 11.1416901,8.0078125 11.337587,8.0078125 Z" id="Shape-Copy-2" />
      <path d="M11.337587,6.0078125 L13.6349237,6.0078125 C13.8308206,6.0078125 14,5.68349809 14,5.50390625 C14,5.32431441 13.8308206,5 13.6349237,5 L11.337587,5 C11.1416901,5 11,5.32431441 11,5.50390625 C11,5.68349809 11.1416901,6.0078125 11.337587,6.0078125 Z" id="Shape-Copy-3" />
      <path d="M2.22505799,3.0078125 L3.7566158,3.0078125 C3.88721376,3.0078125 4,2.68349809 4,2.50390625 C4,2.32431441 3.88721376,2 3.7566158,2 L2.22505799,2 C2.09446004,2 2,2.32431441 2,2.50390625 C2,2.68349809 2.09446004,3.0078125 2.22505799,3.0078125 Z" id="Shape-Copy-5" />
      <path d="M2.22505799,5.0078125 L3.7566158,5.0078125 C3.88721376,5.0078125 4,4.68349809 4,4.50390625 C4,4.32431441 3.88721376,4 3.7566158,4 L2.22505799,4 C2.09446004,4 2,4.32431441 2,4.50390625 C2,4.68349809 2.09446004,5.0078125 2.22505799,5.0078125 Z" id="Shape-Copy-7" />
      <path d="M2.22505799,7.0078125 L3.7566158,7.0078125 C3.88721376,7.0078125 4,6.68349809 4,6.50390625 C4,6.32431441 3.88721376,6 3.7566158,6 L2.22505799,6 C2.09446004,6 2,6.32431441 2,6.50390625 C2,6.68349809 2.09446004,7.0078125 2.22505799,7.0078125 Z" id="Shape-Copy-9" />
      <path d="M2.22505799,9.0078125 L3.7566158,9.0078125 C3.88721376,9.0078125 4,8.68349809 4,8.50390625 C4,8.32431441 3.88721376,8 3.7566158,8 L2.22505799,8 C2.09446004,8 2,8.32431441 2,8.50390625 C2,8.68349809 2.09446004,9.0078125 2.22505799,9.0078125 Z" id="Shape-Copy-11" />
      <path d="M2.22505799,11.0078125 L3.7566158,11.0078125 C3.88721376,11.0078125 4,10.6834981 4,10.5039062 C4,10.3243144 3.88721376,10 3.7566158,10 L2.22505799,10 C2.09446004,10 2,10.3243144 2,10.5039062 C2,10.6834981 2.09446004,11.0078125 2.22505799,11.0078125 Z" id="Shape-Copy-13" />
      <path d="M2.22505799,13.0078125 L3.7566158,13.0078125 C3.88721376,13.0078125 4,12.6834981 4,12.5039062 C4,12.3243144 3.88721376,12 3.7566158,12 L2.22505799,12 C2.09446004,12 2,12.3243144 2,12.5039062 C2,12.6834981 2.09446004,13.0078125 2.22505799,13.0078125 Z" id="Shape-Copy-15" />
      <path d="M6.22505799,3.0078125 L7.7566158,3.0078125 C7.88721376,3.0078125 8,2.68349809 8,2.50390625 C8,2.32431441 7.88721376,2 7.7566158,2 L6.22505799,2 C6.09446004,2 6,2.32431441 6,2.50390625 C6,2.68349809 6.09446004,3.0078125 6.22505799,3.0078125 Z" id="Shape-Copy-6" />
      <path d="M6.22505799,5.0078125 L7.7566158,5.0078125 C7.88721376,5.0078125 8,4.68349809 8,4.50390625 C8,4.32431441 7.88721376,4 7.7566158,4 L6.22505799,4 C6.09446004,4 6,4.32431441 6,4.50390625 C6,4.68349809 6.09446004,5.0078125 6.22505799,5.0078125 Z" id="Shape-Copy-8" />
      <path d="M6.22505799,7.0078125 L7.7566158,7.0078125 C7.88721376,7.0078125 8,6.68349809 8,6.50390625 C8,6.32431441 7.88721376,6 7.7566158,6 L6.22505799,6 C6.09446004,6 6,6.32431441 6,6.50390625 C6,6.68349809 6.09446004,7.0078125 6.22505799,7.0078125 Z" id="Shape-Copy-10" />
      <path d="M6.22505799,9.0078125 L7.7566158,9.0078125 C7.88721376,9.0078125 8,8.68349809 8,8.50390625 C8,8.32431441 7.88721376,8 7.7566158,8 L6.22505799,8 C6.09446004,8 6,8.32431441 6,8.50390625 C6,8.68349809 6.09446004,9.0078125 6.22505799,9.0078125 Z" id="Shape-Copy-12" />
      <path d="M6.22505799,11.0078125 L7.7566158,11.0078125 C7.88721376,11.0078125 8,10.6834981 8,10.5039062 C8,10.3243144 7.88721376,10 7.7566158,10 L6.22505799,10 C6.09446004,10 6,10.3243144 6,10.5039062 C6,10.6834981 6.09446004,11.0078125 6.22505799,11.0078125 Z" id="Shape-Copy-14" />
      <path d="M6,15 L8,15 L8,13.5 C8,12.965401 8,12 8,12 L6,12 C6,12 6,12.965401 6,13.5 C6,14.034599 6,15 6,15 Z" id="Shape-Copy-16" />
    </g>
  </symbol>
  <symbol id="drill" stroke="none" stroke-width="1" fill-rule="evenodd">
    <rect x="0" y="0" width="18" height="18" fill="none"></rect>
    <g fill="#949494" transform="translate(0.000000, 3.000000)">
      <path d="M16,0.00517475728 L8.02819824,0.00517475728 C7.57521412,0.00517475728 7.00808964,0.584521593 7.00808964,1.03475703 L6.03206332,1.03475703 C5.49884033,1.03475703 4.99688889,1.34442139 4.99688889,2.00115967 C4.41066667,2.00115967 4.01342773,2.41593114 4.01342773,2.99859619 L1.48576966,2.99859619 C1.32589665,2.99859619 0.992736816,3.36557219 0.992736816,3.5244751 C0.992736816,3.68337801 1.32589665,3.9938856 1.48576966,3.9938856 L4.01342773,3.9938856 C4.01342773,4.57655065 4.41066667,4.99691828 4.99688889,4.99691828 L4.99688889,4.99691828 C4.99688889,5.44715372 5.57907919,6.01393996 6.03206332,6.01393996 L7.00808964,6.01393996 C7.00808964,6.4641754 7.47492063,7 7.92790476,7 L10.0595556,7 L10.0595556,11.1666986 C10.0595556,12.1995675 10.0290093,12.9823301 11.0681839,12.9823301 L14.9962771,12.9823301 C15.5824994,12.9823301 15.9752009,12.6129296 15.9752009,12.0302646 L16,7 C16.5405273,7 16.9874603,6.4641754 16.9874603,6.01393996 L16.9874603,1.03475703 C16.9875238,0.584521593 16.4529841,0.00517475728 16,0.00517475728 Z M4.97833252,3.45507812 C4.97833252,3.45507812 6.16930159,2.00517476 6.3291746,2.00517476 L7.0255127,2.00517476 L7.0255127,5.03712136 L6.3291746,5.03712136 C6.16930159,5.03714716 4.97833252,3.45507812 4.97833252,3.45507812 Z M16.0680531,6.00107003 C16.0680531,6.15997294 16.1575121,6.00107003 15.997639,6.00107003 L15.0350217,6.00107003 C14.8751487,6.00107003 15.0350217,6.02052691 15.0350217,6.17942982 L15.0350217,11.984108 L11,11.984108 L11,6.00107003 C11,6.00107003 11.0735503,6.00107003 10.9136773,6.00107003 L8,6.00107003 L8,1 L15.9077516,0.971754986 C16.0676246,0.971754986 15.997639,0.88784809 15.997639,1.046751 L15.997639,6.00107003 L16.0680531,6.00107003 Z" id="Shape" />
      <path d="M14,6 L16,6 L16,7 C16,7 14.8161621,7 14,7 C13.2575684,7 13.3083496,6 14,6 Z" id="Rectangle-7" />
      <path d="M14.0446167,8 L16,8 L16,9 L14.0446167,9 C13.3591309,9 13.3740845,8 14.0446167,8 Z" id="Rectangle-7-Copy" />
    </g>
  </symbol>
  <symbol id="home" stroke="none" stroke-width="1" fill-rule="evenodd">
    <rect x="0" y="0" width="18" height="18" fill="none"></rect>
    <g transform="translate(9.000000, 9.000000) scale(-1, 1) translate(-9.000000, -9.000000) translate(0.000000, 1.000000)" id="Shape" fill="#949494">
      <path d="M17.8089474,6.32537991 L9.29329825,0.117624454 C9.12908772,-0.00206113537 8.906,-0.00206113537 8.74185965,0.117624454 L0.226140351,6.32537991 C0.0181403509,6.47703057 -0.0270526316,6.76782533 0.125263158,6.97491703 C0.277578947,7.18200873 0.569684211,7.2269345 0.777649123,7.07535371 L9.01754386,1.06857642 L17.2574386,7.07531878 C17.3405263,7.13593013 17.4370877,7.16510044 17.532807,7.16510044 C17.6765263,7.16510044 17.8183509,7.09924891 17.9097895,6.9748821 C18.0621404,6.76782533 18.0169474,6.47703057 17.8089474,6.32537991 Z" />
      <path d="M15.5524912,7.18054148 C15.2947368,7.18054148 15.0857193,7.38861135 15.0857193,7.64527511 L15.0857193,15.0426201 L10.9746094,15.042655 L10.9746094,11.0047162 C10.9746094,9.72331878 10.1943986,8.9753418 9.01757895,8.99822998 C7.84075928,9.02111816 7.01031494,9.72338865 7.01031494,11.0047162 L7.01031494,15.042655 L2.94940351,15.042655 L2.94940351,7.64531004 C2.94940351,7.38864629 2.74038596,7.18057642 2.48263158,7.18057642 C2.22487719,7.18057642 2.01585965,7.38864629 2.01585965,7.64531004 L2.01585965,15.5074236 C2.01585965,15.7640873 2.22487719,15.9721572 2.48263158,15.9721572 L6.94500732,15.9721572 C7.5020752,15.9721572 7.96630116,15.5431965 7.96517835,15.042655 C7.96630116,15.0317904 7.96517835,11.0047162 7.96517835,11.0047162 C7.96517835,10.2358428 8.4588623,9.99615479 9.01757895,9.99023438 C9.57629559,9.98431396 10.0011662,10.2358428 10.0011662,11.0046812 L10.0011662,15.0068821 C10.0011662,15.020262 10.0018679,15.0319301 10.0029907,15.042655 C10.0011662,15.5387573 10.5079956,15.9968262 10.9746094,15.9968262 L15.5525263,15.9721572 C15.8103158,15.9721572 16.0192982,15.7640873 16.0192982,15.5074236 L16.0192982,7.64531004 C16.0192632,7.38861135 15.8102807,7.18054148 15.5524912,7.18054148 Z" />
    </g>
  </symbol>
  <symbol id="profile" width="20" height="20" viewBox="0 0 20 20">
    <path d="M9.97045 10.6207C12.6306 10.6207 14.7882 8.46305 14.7882 5.80297C14.7882 3.14289 12.6305 1 9.97045 1C7.31037 1 5.15272 3.15765 5.15272 5.80297C5.15272 8.44829 7.31034 10.6207 9.97045 10.6207ZM9.97045 2.25616C11.9212 2.25616 13.5173 3.85221 13.5173 5.80297C13.5173 7.75373 11.9212 9.34975 9.97045 9.34975C8.01972 9.34975 6.42364 7.7537 6.42364 5.80294C6.42364 3.85218 8.01969 2.25616 9.97045 2.25616Z"/>
    <path d="M1.63546 18.1429H18.3645C18.7192 18.1429 19 17.8621 19 17.5074C19 14.1823 16.2956 11.4631 12.9557 11.4631H7.04434C3.71922 11.4631 1 14.1675 1 17.5074C1 17.8621 1.28078 18.1429 1.63546 18.1429ZM7.04434 12.734H12.9557C15.3793 12.734 17.3744 14.5369 17.6847 16.8719H2.31527C2.6256 14.5517 4.6207 12.734 7.04434 12.734Z"/>
  </symbol> 
  <symbol id="person" stroke="none" stroke-width="1" fill="none" fill-rule="evenodd">
    <g fill="#949494" transform="translate(1.000000, 1.000000)">
      <path d="M14.9753551,11.0684705 C14.5031051,10.5963455 13.60625,10.61725 12.3605,9.994125 C11.7325,9.680125 11.2425147,9.27581979 10.9891397,9.03656979 C11.9778426,7.69287206 11.9778426,6.141 11.9778426,4.8515 C11.9778426,3.9765 12.110875,2.88775 11.621125,1.916625 C11.179625,1.042 10.193,0 8.00025,0 C5.807,0 4.820375,1.042 4.379375,1.9165 C3.889,2.88775 4.00323202,3.9765 4.00323202,4.8515 C4.00323202,6.1415 3.97101895,7.73244479 5.03276895,9.03656979 C4.77876895,9.27631979 4.267,9.680625 3.639,9.994 C2.393625,10.617 1.51562365,10.5962205 1.04299865,11.0684705 C-0.00312634884,12.1153455 0.000125,12.6509151 0.000125,14.646375 C0.000125,14.9101435 0.1325,15.3475 0.3835,15.602375 C0.6335,15.85625 0.976375,15.999875 1.332875,15.999875 L14.6665,15.999875 C15.024,15.999875 15.366,15.856375 15.6165,15.602375 C15.867,15.3475 15.999875,15.0583066 15.999875,14.645875 C15.999875,12.927436 16.0213551,12.1153455 14.9753551,11.0684705 Z M14.904375,14.900375 C14.840875,14.964375 14.756375,15 14.6665,15 L1.332875,15 C1.2445,15 1.158125,14.963875 1.096,14.900375 C1.034,14.837375 0.99975,16.3935505 0.99975,14.661625 C0.99975,12.9296995 0.975041851,12.7064122 1.76429185,11.9169122 C2.12866685,11.5526622 2.965,11.44975 4.086375,10.888625 C5.283375,10.2905 5.44217406,10.0621448 5.74792406,9.77314482 C6.05367406,9.48414482 5.97639564,9.3469645 5.99862229,9.007375 C6.02083314,8.668027 5.74792406,8.18598439 5.74792406,8.18598439 C4.82492406,7.05223439 4.99206543,5.900875 4.99206543,4.851625 C4.99206543,4.0425 4.888875,3.126 5.27175,2.36725 C5.73025,1.46 6.647375,1 8.00025,1 C9.352,1 10.270125,1.46 10.72825,2.36675 C11.111125,3.126 11.0413818,4.0425 11.0413818,4.851625 C11.0413818,5.9005 11.1625808,7.17185948 10.2384558,8.30610948 C10.2384558,8.30610948 9.93634189,8.6868401 9.95859316,9.02635948 C9.98084443,9.36587886 10.2384558,9.77314482 10.2384558,9.77314482 C10.2384558,9.77314482 10.7155,10.290125 11.913,10.88875 C13.034375,11.44925 13.672859,11.3659183 14.2850564,11.9169122 C14.9600996,12.5244689 14.9995,12.8280318 14.9995,14.66175 C14.9995,14.7505159 14.966375,14.837375 14.904375,14.900375 Z" id="Shape" />
    </g>
  </symbol>
  <symbol id="truck" stroke="none" stroke-width="1" fill-rule="evenodd">
    <rect x="0" y="0" width="18" height="18" fill="none"></rect>
    <g id="delivery-truck" transform="translate(1.000000, 3.000000)" fill="#949494">
      <path d="M16,6.59344482 L12.3395386,2.97961426 L10.9735718,2.97961426 L10.977025,1.0123028 C10.977025,0.415928286 10.562765,0.0130352192 9.97812366,0.0130352192 L1.02481555,0.0130352192 C0.469572056,0.0130352192 0.00345324649,0.503025454 0.00345324649,1.0123028 C0.00345324649,1.99264948 -1.13686838e-13,9.99688721 -1.13686838e-13,9.99688721 C-1.13686838e-13,10.618042 0.519348145,10.9953613 1.0213623,10.9953613 C1.0213623,12.2531128 1.82159907,13.008744 3.06026911,13.008744 C4.29893915,13.008744 4.9691947,12.1605221 4.9691947,10.9953613 L10.9735718,10.9953613 C10.977025,12.4701538 12.1955873,13.008744 13.0065308,13.008744 C13.8174742,13.008744 15.020752,12.5054932 15.020752,10.9953613 C15.5533447,10.9953613 16,10.5878906 16,9.99688721 L16,7.07904379 C15.9999543,6.96355738 16.0744035,6.68032837 16,6.59344482 Z M2.9999725,12.0130352 C2.44856318,12.0130352 2,11.5659138 2,11.0163443 C2,10.4667747 2.44856318,10.0196533 2.9999725,10.0196533 C3.55138182,10.0196533 4,10.4667747 4,11.0163443 C4,11.5659138 3.55138182,12.0130352 2.9999725,12.0130352 Z M4.86724854,10.0196533 C4.63928223,9.60650635 3.81167586,9.01019287 3.00073242,9.01019287 C2.18978898,9.01019287 1.61181641,9.25994873 1.17132568,10.0196533 L1.02264404,10.0196533 L0.932146213,1.01539484 L10.0039673,1.01539484 L10.0039673,10.0196533 C10.0039673,10.0196533 5.46805675,10.0196533 4.86724854,10.0196533 Z M12.9999725,11.9653422 C12.4485632,11.9653422 12,11.5167364 12,10.9653422 C12,10.4139481 12.4485632,9.96534223 12.9999725,9.96534223 C13.5513818,9.96534223 14,10.4139481 14,10.9653422 C14,11.5167364 13.5514368,11.9653422 12.9999725,11.9653422 Z M13,8.97880974 C11.9745483,8.97880974 11.5223999,9.48168945 11,10.0196533 L11,4 L11.9732666,4 L15,7.00982666 L14.9999595,10.0196533 C14.5179443,9.4899292 14.0254517,8.97880974 13,8.97880974 Z" id="Shape" />
    </g>
  </symbol>
  <symbol id="money" stroke="none" stroke-width="1" fill-rule="evenodd">
    <rect x="0" y="0" width="18" height="18" fill="none"></rect>
    <g transform="translate(1.000000, 1.000000)" fill="#949494">
      <path d="M15.0266113,0 L1.00954967,1.0658141e-14 C0.590026855,1.0658141e-14 0,0.488098145 0,1.01049805 L0,15.0257568 C0,15.5496216 0.486938477,16 1.00954967,16 L15.0266113,16 C15.5220337,16 16,15.5476074 16,15.0257568 L16,1.01049805 C16,0.527648926 15.5093384,0 15.0266113,0 Z M15,15 L1,15 L1,1.0090332 L15,1.0090332 L15,15 Z" id="Shape" />
    </g>
    <path d="M10.4463111,14 C11.7639561,14 13.4353894,14 14.3865002,14 C15.1739758,14 15.1928967,15 14.3865002,15 C12.89474,15 12.0542276,15 10.4463111,15 C9.80337033,15 9.90109149,14 10.4463111,14 Z" id="Rectangle-7-Copy-2" fill="#949494" />
    <path d="M10.4463111,12 C11.7639561,12 13.4353894,12 14.3865002,12 C15.1739758,12 15.1928967,13 14.3865002,13 C12.89474,13 12.0542276,13 10.4463111,13 C9.80337033,13 9.90109149,12 10.4463111,12 Z" id="Rectangle-7-Copy-3" fill="#949494" />
    <path d="M10.4463111,10 C11.7639561,10 13.4353894,10 14.3865002,10 C15.1739758,10 15.1928967,11 14.3865002,11 C12.89474,11 12.0542276,11 10.4463111,11 C9.80337033,11 9.90109149,10 10.4463111,10 Z" id="Rectangle-7-Copy-4" fill="#949494" />
    <path d="M5.5,4.75471698 C6.42721053,4.75471698 7.21052632,5.28611321 7.21052632,5.91509434 C7.21052632,6.14954717 7.38726316,6.33962264 7.60526316,6.33962264 C7.82326316,6.33962264 8,6.14954717 8,5.91509434 C8,4.89650943 7.10263158,4.07762264 5.89473684,3.92966038 L5.89473684,3.4245283 C5.89473684,3.19007547 5.718,3 5.5,3 C5.282,3 5.10526316,3.19007547 5.10526316,3.4245283 L5.10526316,3.92966038 C3.89736842,4.07762264 3,4.89650943 3,5.91509434 C3,7.04190566 4.09810526,7.9245283 5.5,7.9245283 C6.42721053,7.9245283 7.21052632,8.45592453 7.21052632,9.08490566 C7.21052632,9.71388679 6.42721053,10.245283 5.5,10.245283 C4.57278947,10.245283 3.78947368,9.71388679 3.78947368,9.08490566 C3.78947368,8.85045283 3.61273684,8.66037736 3.39473684,8.66037736 C3.17673684,8.66037736 3,8.85045283 3,9.08490566 C3,10.1034906 3.89736842,10.9223774 5.10526316,11.0703396 L5.10526316,11.5754717 C5.10526316,11.8099245 5.282,12 5.5,12 C5.718,12 5.89473684,11.8099245 5.89473684,11.5754717 L5.89473684,11.0703396 C7.10263158,10.9223774 8,10.1034906 8,9.08490566 C8,7.95809434 6.90189474,7.0754717 5.5,7.0754717 C4.57278947,7.0754717 3.78947368,6.54407547 3.78947368,5.91509434 C3.78947368,5.28611321 4.57278947,4.75471698 5.5,4.75471698 Z" id="Shape" fill="#949494" />
  </symbol>
  <symbol id="medal" viewBox="0 0 400 400">
    <g fill="#777777">
      <path d="M373.488,337.075l-59.2-104c6-2.8,9.6-9.2,9.2-16.4l-4.4-36.8l25.2-26.4c5.6-5.6,6-15.2,0.4-22l-25.2-27.2l5.2-37.2
				c0.8-8-4.8-16-12.8-17.6l-36.4-7.2l-17.6-32.4c-3.6-7.6-12.4-10.8-20.4-7.6h-0.4l-33.6,15.6l-32.8-16c-3.6-2-8-2.4-12-1.2
				c-4,1.2-7.2,4-9.2,7.6l-18,32.4l-36.4,6.4c-8.4,1.6-14,9.2-13.2,18l4.4,36.8l-25.2,26.4c-5.6,5.6-6,15.2-0.4,22l25.2,27.2
				l-5.2,37.2c-0.8,7.2,3.6,14,10.4,16.8l-59.6,105.6c-1.6,2.4-1.2,5.6,0,8c1.6,2.4,4,4,6.8,4h64l29.2,50.8c1.6,2.4,4,4,6.8,4
				s5.6-1.6,6.8-4l57.2-97.6l57.2,98.8c1.6,2.4,4,4,6.8,4s5.6-1.6,6.8-4l29.2-52h64c2.8,0,5.6-1.6,6.8-4
				C375.088,342.675,375.088,339.475,373.488,337.075z M138.688,379.875l-24.8-42.8c-1.6-2.4-4-4-6.8-4h-55.2l55.2-97.6l22.8,4
				l17.6,32.4c3.6,7.6,12.4,10.8,20.4,7.6h0.4l16.4-7.6l8,14L138.688,379.875z M161.888,265.075c-0.4,0-0.4,0-0.4,0l-17.6-33.2
				c-2.4-4-6.4-7.2-11.2-7.6l-36.8-6.8l5.2-36.8c0.8-4.8-0.8-10-4-13.2l-24.8-27.2l25.2-26.4c3.6-3.6,5.2-8.4,4.4-13.2l-4.4-36.4
				c0,0,0-0.4,0.4-0.8l36.4-6.4c4.4-0.8,8.8-3.6,11.2-8l18-32.4l32.8,16c4.4,2.4,10,2.4,14.4,0l33.2-15.2c0.4,0,0.4,0,0.4,0
				l17.6,33.2c2.4,4,6.4,7.2,10.8,7.6l36.4,7.2l-5.2,36.8c-0.8,4.8,0.8,10,4,13.2l25.2,27.2l-25.6,26.4c-3.6,3.6-5.2,8.4-4.4,13.2
				l4.4,36.8l-36,6c-4.4,0.8-8.8,3.6-11.2,8l-18,32.4l-32.8-16c-4.4-2.4-10-2.4-14.4,0L161.888,265.075z M297.888,333.075
				c-2.8,0-5.6,1.6-6.8,4l-24.8,44l-56.4-97.6c-0.4-1.2-0.8-2-1.6-2.8l-8.8-15.6l2.8-1.2l32.8,16c2.4,1.2,4.8,1.6,7.2,1.6
				c5.6,0,11.2-2.8,14-8l18-32.4l24-4.4l54.8,96.4H297.888z"/>
      <path d="M282.288,141.075c0-44-36-80-80-80s-80,36-80,80s36,80,80,80S282.288,185.075,282.288,141.075z M202.288,205.075
				c-35.2,0-64-28.8-64-64s28.8-64,64-64s64,28.8,64,64S237.488,205.075,202.288,205.075z"/>
    </g>
  </symbol>
  <symbol id="medal-blue" viewBox="0 0 400 400">
    <g fill="#4ea9bd">
      <path d="M373.488,337.075l-59.2-104c6-2.8,9.6-9.2,9.2-16.4l-4.4-36.8l25.2-26.4c5.6-5.6,6-15.2,0.4-22l-25.2-27.2l5.2-37.2
				c0.8-8-4.8-16-12.8-17.6l-36.4-7.2l-17.6-32.4c-3.6-7.6-12.4-10.8-20.4-7.6h-0.4l-33.6,15.6l-32.8-16c-3.6-2-8-2.4-12-1.2
				c-4,1.2-7.2,4-9.2,7.6l-18,32.4l-36.4,6.4c-8.4,1.6-14,9.2-13.2,18l4.4,36.8l-25.2,26.4c-5.6,5.6-6,15.2-0.4,22l25.2,27.2
				l-5.2,37.2c-0.8,7.2,3.6,14,10.4,16.8l-59.6,105.6c-1.6,2.4-1.2,5.6,0,8c1.6,2.4,4,4,6.8,4h64l29.2,50.8c1.6,2.4,4,4,6.8,4
				s5.6-1.6,6.8-4l57.2-97.6l57.2,98.8c1.6,2.4,4,4,6.8,4s5.6-1.6,6.8-4l29.2-52h64c2.8,0,5.6-1.6,6.8-4
				C375.088,342.675,375.088,339.475,373.488,337.075z M138.688,379.875l-24.8-42.8c-1.6-2.4-4-4-6.8-4h-55.2l55.2-97.6l22.8,4
				l17.6,32.4c3.6,7.6,12.4,10.8,20.4,7.6h0.4l16.4-7.6l8,14L138.688,379.875z M161.888,265.075c-0.4,0-0.4,0-0.4,0l-17.6-33.2
				c-2.4-4-6.4-7.2-11.2-7.6l-36.8-6.8l5.2-36.8c0.8-4.8-0.8-10-4-13.2l-24.8-27.2l25.2-26.4c3.6-3.6,5.2-8.4,4.4-13.2l-4.4-36.4
				c0,0,0-0.4,0.4-0.8l36.4-6.4c4.4-0.8,8.8-3.6,11.2-8l18-32.4l32.8,16c4.4,2.4,10,2.4,14.4,0l33.2-15.2c0.4,0,0.4,0,0.4,0
				l17.6,33.2c2.4,4,6.4,7.2,10.8,7.6l36.4,7.2l-5.2,36.8c-0.8,4.8,0.8,10,4,13.2l25.2,27.2l-25.6,26.4c-3.6,3.6-5.2,8.4-4.4,13.2
				l4.4,36.8l-36,6c-4.4,0.8-8.8,3.6-11.2,8l-18,32.4l-32.8-16c-4.4-2.4-10-2.4-14.4,0L161.888,265.075z M297.888,333.075
				c-2.8,0-5.6,1.6-6.8,4l-24.8,44l-56.4-97.6c-0.4-1.2-0.8-2-1.6-2.8l-8.8-15.6l2.8-1.2l32.8,16c2.4,1.2,4.8,1.6,7.2,1.6
				c5.6,0,11.2-2.8,14-8l18-32.4l24-4.4l54.8,96.4H297.888z"/>
      <path d="M282.288,141.075c0-44-36-80-80-80s-80,36-80,80s36,80,80,80S282.288,185.075,282.288,141.075z M202.288,205.075
				c-35.2,0-64-28.8-64-64s28.8-64,64-64s64,28.8,64,64S237.488,205.075,202.288,205.075z"/>
    </g>
  </symbol>
  <symbol id="handshake" viewBox="0 0 512 512">
    <g fill="#777777">
      <path d="M404.267,315.41c-10.048-20.949-45.995-50.027-80.725-78.123c-19.371-15.659-37.675-30.464-49.344-42.133
			c-2.923-2.944-7.296-3.883-11.157-2.496c-7.189,2.603-11.627,4.608-15.125,6.165c-5.333,2.389-7.125,3.2-14.315,3.925
			c-3.179,0.32-6.037,2.027-7.808,4.672c-15.083,22.549-30.699,20.629-41.131,17.131c-3.328-1.109-3.925-2.539-4.245-3.904
			c-2.24-9.365,9.003-31.168,23.573-45.739c34.667-34.688,52.544-43.371,90.304-26.496c42.837,19.157,85.76,34.155,86.187,34.304
			c5.611,1.941,11.648-1.003,13.589-6.571c1.92-5.568-1.003-11.648-6.571-13.589c-0.427-0.149-42.496-14.848-84.48-33.643
			c-48.917-21.867-75.755-7.467-114.091,30.891c-14.592,14.592-34.411,44.117-29.291,65.771c2.197,9.216,8.683,16.043,18.325,19.221
			c24.171,7.979,46.229,0.341,62.656-21.461c6.784-1.045,10.475-2.581,16.021-5.077c2.005-0.896,4.352-1.941,7.467-3.2
			c12.203,11.456,28.672,24.789,46.016,38.805c31.36,25.365,66.923,54.123,74.923,70.763c3.947,8.213-0.299,13.568-3.179,16.021
			c-4.224,3.627-10.005,4.779-13.141,2.581c-3.456-2.368-7.957-2.517-11.52-0.384c-3.584,2.133-5.589,6.165-5.141,10.304
			c0.725,6.784-5.483,10.667-8.171,12.011c-6.827,3.456-13.952,2.859-16.619,0.384c-2.987-2.773-7.275-3.584-11.072-2.176
			c-3.797,1.429-6.443,4.928-6.827,8.981c-0.64,6.997-5.824,13.717-12.587,16.341c-3.264,1.237-8,1.984-12.245-1.899
			c-2.645-2.389-6.315-3.307-9.749-2.475c-3.477,0.853-6.272,3.371-7.488,6.72c-0.405,1.067-1.323,3.627-11.307,3.627
			c-7.104,0-19.883-4.8-26.133-8.939c-7.488-4.928-54.443-39.957-94.997-73.92c-5.696-4.8-15.552-15.083-24.256-24.171
			c-7.723-8.064-14.784-15.381-18.411-18.453c-4.544-3.84-11.264-3.264-15.04,1.259c-3.797,4.501-3.243,11.243,1.259,15.04
			c3.307,2.795,9.707,9.557,16.768,16.917c9.515,9.941,19.349,20.224,25.963,25.771c39.723,33.259,87.467,69.163,96.981,75.413
			c7.851,5.163,24.768,12.416,37.867,12.416c10.517,0,18.603-2.411,24.213-7.125c7.509,2.923,16.043,2.944,24.256-0.256
			c9.707-3.755,17.685-11.328,22.208-20.501c8.405,1.792,18.027,0.533,26.773-3.861c8.555-4.309,14.741-10.901,17.813-18.603
			c8.491,0.448,17.237-2.56,24.469-8.768C407.979,346.407,411.349,330.109,404.267,315.41z"/>
      <path d="M213.333,138.663h-96c-5.888,0-10.667,4.779-10.667,10.667s4.779,10.667,10.667,10.667h96
			c5.888,0,10.667-4.779,10.667-10.667S219.221,138.663,213.333,138.663z"/>
      <path d="M435.52,292.711c-3.307-4.885-9.92-6.229-14.805-2.901l-31.189,20.949c-4.885,3.285-6.187,9.92-2.901,14.805
			c2.069,3.051,5.44,4.715,8.875,4.715c2.027,0,4.096-0.576,5.931-1.813l31.189-20.949
			C437.504,304.231,438.805,297.597,435.52,292.711z"/>
      <path d="M369.301,343.613c-7.637-6.016-41.792-40.981-62.912-62.997c-4.075-4.267-10.837-4.416-15.083-0.32
			c-4.267,4.075-4.395,10.837-0.32,15.083c5.483,5.717,53.845,56.128,65.088,65.003c1.941,1.536,4.288,2.283,6.592,2.283
			c3.136,0,6.272-1.408,8.405-4.075C374.72,353.981,373.931,347.261,369.301,343.613z"/>
      <path d="M326.677,365.01c-12.779-10.219-44.885-44.331-52.139-52.224c-4.011-4.352-10.731-4.608-15.083-0.64
			c-4.331,3.989-4.629,10.752-0.64,15.083c0.384,0.405,38.699,41.771,54.528,54.443c1.963,1.557,4.331,2.325,6.656,2.325
			c3.115,0,6.229-1.387,8.341-3.989C332.011,375.399,331.264,368.679,326.677,365.01z"/>
      <path d="M284.224,386.493c-15.211-12.821-46.336-45.952-52.416-52.459c-4.032-4.309-10.795-4.544-15.083-0.512
			c-4.309,4.032-4.523,10.773-0.512,15.083c8.747,9.365,38.528,40.939,54.251,54.208c2.005,1.685,4.437,2.517,6.869,2.517
			c3.029,0,6.059-1.301,8.171-3.797C289.301,397.01,288.725,390.29,284.224,386.493z"/>
      <path d="M124.672,120.253C106.389,102.93,33.28,97.319,11.307,96.018c-3.029-0.149-5.824,0.853-7.957,2.88
			C1.216,100.903,0,103.719,0,106.663v192c0,5.888,4.779,10.667,10.667,10.667h64c4.608,0,8.704-2.965,10.133-7.36
			c1.557-4.779,38.315-117.589,43.157-173.056C128.235,125.671,127.04,122.471,124.672,120.253z M66.88,287.997H21.333V118.098
			c34.283,2.709,71.275,8.597,84.715,15.125C100.395,179.943,74.816,262.951,66.88,287.997z"/>
      <path d="M501.333,117.33c-83.755,0-130.219,21.44-132.16,22.336c-2.773,1.301-4.843,3.712-5.696,6.635s-0.427,6.059,1.173,8.661
			c13.184,21.227,54.464,139.115,62.4,167.872c1.28,4.629,5.483,7.829,10.283,7.829h64c5.888,0,10.667-4.779,10.667-10.667v-192
			C512,122.087,507.221,117.33,501.333,117.33z M490.667,309.33h-45.355c-10.112-32.939-39.979-118.827-56.64-154.325
			c16.277-5.525,51.243-15.019,101.995-16.213V309.33z"/>
    </g>
  </symbol>
  <symbol id="handshake-blue" viewBox="0 0 512 512">
    <g fill="#4ea9bd">
      <path d="M404.267,315.41c-10.048-20.949-45.995-50.027-80.725-78.123c-19.371-15.659-37.675-30.464-49.344-42.133
			c-2.923-2.944-7.296-3.883-11.157-2.496c-7.189,2.603-11.627,4.608-15.125,6.165c-5.333,2.389-7.125,3.2-14.315,3.925
			c-3.179,0.32-6.037,2.027-7.808,4.672c-15.083,22.549-30.699,20.629-41.131,17.131c-3.328-1.109-3.925-2.539-4.245-3.904
			c-2.24-9.365,9.003-31.168,23.573-45.739c34.667-34.688,52.544-43.371,90.304-26.496c42.837,19.157,85.76,34.155,86.187,34.304
			c5.611,1.941,11.648-1.003,13.589-6.571c1.92-5.568-1.003-11.648-6.571-13.589c-0.427-0.149-42.496-14.848-84.48-33.643
			c-48.917-21.867-75.755-7.467-114.091,30.891c-14.592,14.592-34.411,44.117-29.291,65.771c2.197,9.216,8.683,16.043,18.325,19.221
			c24.171,7.979,46.229,0.341,62.656-21.461c6.784-1.045,10.475-2.581,16.021-5.077c2.005-0.896,4.352-1.941,7.467-3.2
			c12.203,11.456,28.672,24.789,46.016,38.805c31.36,25.365,66.923,54.123,74.923,70.763c3.947,8.213-0.299,13.568-3.179,16.021
			c-4.224,3.627-10.005,4.779-13.141,2.581c-3.456-2.368-7.957-2.517-11.52-0.384c-3.584,2.133-5.589,6.165-5.141,10.304
			c0.725,6.784-5.483,10.667-8.171,12.011c-6.827,3.456-13.952,2.859-16.619,0.384c-2.987-2.773-7.275-3.584-11.072-2.176
			c-3.797,1.429-6.443,4.928-6.827,8.981c-0.64,6.997-5.824,13.717-12.587,16.341c-3.264,1.237-8,1.984-12.245-1.899
			c-2.645-2.389-6.315-3.307-9.749-2.475c-3.477,0.853-6.272,3.371-7.488,6.72c-0.405,1.067-1.323,3.627-11.307,3.627
			c-7.104,0-19.883-4.8-26.133-8.939c-7.488-4.928-54.443-39.957-94.997-73.92c-5.696-4.8-15.552-15.083-24.256-24.171
			c-7.723-8.064-14.784-15.381-18.411-18.453c-4.544-3.84-11.264-3.264-15.04,1.259c-3.797,4.501-3.243,11.243,1.259,15.04
			c3.307,2.795,9.707,9.557,16.768,16.917c9.515,9.941,19.349,20.224,25.963,25.771c39.723,33.259,87.467,69.163,96.981,75.413
			c7.851,5.163,24.768,12.416,37.867,12.416c10.517,0,18.603-2.411,24.213-7.125c7.509,2.923,16.043,2.944,24.256-0.256
			c9.707-3.755,17.685-11.328,22.208-20.501c8.405,1.792,18.027,0.533,26.773-3.861c8.555-4.309,14.741-10.901,17.813-18.603
			c8.491,0.448,17.237-2.56,24.469-8.768C407.979,346.407,411.349,330.109,404.267,315.41z"/>
      <path d="M213.333,138.663h-96c-5.888,0-10.667,4.779-10.667,10.667s4.779,10.667,10.667,10.667h96
			c5.888,0,10.667-4.779,10.667-10.667S219.221,138.663,213.333,138.663z"/>
      <path d="M435.52,292.711c-3.307-4.885-9.92-6.229-14.805-2.901l-31.189,20.949c-4.885,3.285-6.187,9.92-2.901,14.805
			c2.069,3.051,5.44,4.715,8.875,4.715c2.027,0,4.096-0.576,5.931-1.813l31.189-20.949
			C437.504,304.231,438.805,297.597,435.52,292.711z"/>
      <path d="M369.301,343.613c-7.637-6.016-41.792-40.981-62.912-62.997c-4.075-4.267-10.837-4.416-15.083-0.32
			c-4.267,4.075-4.395,10.837-0.32,15.083c5.483,5.717,53.845,56.128,65.088,65.003c1.941,1.536,4.288,2.283,6.592,2.283
			c3.136,0,6.272-1.408,8.405-4.075C374.72,353.981,373.931,347.261,369.301,343.613z"/>
      <path d="M326.677,365.01c-12.779-10.219-44.885-44.331-52.139-52.224c-4.011-4.352-10.731-4.608-15.083-0.64
			c-4.331,3.989-4.629,10.752-0.64,15.083c0.384,0.405,38.699,41.771,54.528,54.443c1.963,1.557,4.331,2.325,6.656,2.325
			c3.115,0,6.229-1.387,8.341-3.989C332.011,375.399,331.264,368.679,326.677,365.01z"/>
      <path d="M284.224,386.493c-15.211-12.821-46.336-45.952-52.416-52.459c-4.032-4.309-10.795-4.544-15.083-0.512
			c-4.309,4.032-4.523,10.773-0.512,15.083c8.747,9.365,38.528,40.939,54.251,54.208c2.005,1.685,4.437,2.517,6.869,2.517
			c3.029,0,6.059-1.301,8.171-3.797C289.301,397.01,288.725,390.29,284.224,386.493z"/>
      <path d="M124.672,120.253C106.389,102.93,33.28,97.319,11.307,96.018c-3.029-0.149-5.824,0.853-7.957,2.88
			C1.216,100.903,0,103.719,0,106.663v192c0,5.888,4.779,10.667,10.667,10.667h64c4.608,0,8.704-2.965,10.133-7.36
			c1.557-4.779,38.315-117.589,43.157-173.056C128.235,125.671,127.04,122.471,124.672,120.253z M66.88,287.997H21.333V118.098
			c34.283,2.709,71.275,8.597,84.715,15.125C100.395,179.943,74.816,262.951,66.88,287.997z"/>
      <path d="M501.333,117.33c-83.755,0-130.219,21.44-132.16,22.336c-2.773,1.301-4.843,3.712-5.696,6.635s-0.427,6.059,1.173,8.661
			c13.184,21.227,54.464,139.115,62.4,167.872c1.28,4.629,5.483,7.829,10.283,7.829h64c5.888,0,10.667-4.779,10.667-10.667v-192
			C512,122.087,507.221,117.33,501.333,117.33z M490.667,309.33h-45.355c-10.112-32.939-39.979-118.827-56.64-154.325
			c16.277-5.525,51.243-15.019,101.995-16.213V309.33z"/>
    </g>
  </symbol>
</svg>
