<svg xmlns="http://www.w3.org/2000/svg" style="display: none;" width="100%" height="100%">
    <symbol id="fl" viewBox="0 0 512 512">
        <title>fl</title>
        <g id="fl">
            <path d="M421.054,414.843c-4.142,0-7.5,3.358-7.5,7.5v70.514c0,2.283-1.858,4.141-4.141,4.141h-40.317V349.301    c0-4.142-3.358-7.5-7.5-7.5c-4.142,0-7.5,3.358-7.5,7.5v147.698h-81.185l23.543-25.9c2.572-2.83,3.785-6.861,3.244-10.787    c-0.01-0.076-0.022-0.152-0.035-0.228L277.24,327.617l6.041-9.094c3.34,2.372,5.913,4.656,10.738,4.656    c4.908,0,9.497-2.747,11.755-7.269v-0.001l23.65-47.4l53.876,20.865c1.949,0.836,30.252,13.582,30.252,47.238v50.73    c-0.001,4.141,3.357,7.5,7.5,7.5c4.142,0,7.5-3.358,7.5-7.5v-50.73c0-44.344-37.969-60.463-39.585-61.128    c-0.047-0.02-0.095-0.039-0.143-0.057l-89.668-34.726v-21.03c14.242-11.076,24.117-27.495,26.596-46.227    c7.101-0.5,13.69-3.152,19.071-7.779c7.027-6.043,11.059-14.838,11.059-24.126c0-7.708-2.781-15.068-7.737-20.803V92.953    C348.144,41.699,306.446,0,255.192,0c-51.254,0-92.952,41.699-92.952,92.953v28.511c-5.009,5.677-7.733,12.665-7.733,20.074    c0,9.291,4.03,18.085,11.059,24.129c5.377,4.625,11.962,7.274,19.061,7.775c2.499,19.083,12.662,36.114,28.117,47.339v19.92    l-89.571,34.725c-0.047,0.018-0.094,0.037-0.141,0.056c-1.617,0.665-39.585,16.784-39.585,61.128v156.245    c0,10.555,8.587,19.142,19.142,19.142h71.457c4.142,0,7.5-3.358,7.5-7.5c0-4.142-3.358-7.5-7.5-7.5h-16.137V349.301    c0-4.142-3.358-7.5-7.5-7.5c-4.142,0-7.5,3.358-7.5,7.5v147.698h-40.319c-2.283,0-4.141-1.858-4.141-4.141V336.611    c0-33.769,28.493-46.486,30.243-47.234l53.834-20.87l23.652,47.402c2.263,4.533,6.858,7.27,11.756,7.27    c4.801,0,7.349-2.249,10.738-4.656l6.041,9.094l-22.421,132.468c-0.013,0.075-0.024,0.15-0.035,0.226    c-0.542,3.924,0.671,7.957,3.244,10.789l23.543,25.9h-29.995c-4.142,0-7.5,3.358-7.5,7.5s3.358,7.5,7.5,7.5h200.365    c10.555,0,19.142-8.588,19.142-19.142v-70.514C428.554,418.201,425.196,414.843,421.054,414.843z M315.375,263.069l-22.049,44.19    c-0.548-0.389-12.233-8.691-26.517-18.834c6.198-7.651-1.053,1.299,27.235-33.617L315.375,263.069z M271.043,309.833l-5.718,8.607    h-18.703l-5.718-8.607l15.07-10.703L271.043,309.833z M227.743,243.121v-14.036c9.112,3.673,18.85,5.376,28.36,5.376    c9.833,0,19.476-2.096,28.052-5.846v14.567l-28.181,34.785L227.743,243.121z M340.881,141.539    c-0.001,4.913-2.129,9.562-5.839,12.753c-2.453,2.11-5.416,3.459-8.661,3.987v-33.477    C335.001,126.202,340.881,133.352,340.881,141.539z M184.007,158.279c-8.718-1.415-14.5-8.623-14.5-16.741    c0-8.018,6.647-14.544,14.5-16.359V158.279z M184.41,109.896c-2.389,0.274-5.127,0.921-7.168,1.615V92.953    c0-42.983,34.968-77.952,77.951-77.952c42.983,0,77.951,34.969,77.951,77.952v18.043c-2.18-0.663-4.441-1.101-6.762-1.307    c0-7.237,0.063-5.841-23.612-31.294c-4.354-4.678-11.556-5.658-17.037-2.077c-26.13,17.069-58.005,25.644-87.415,23.532    C191.867,99.367,185.991,103.616,184.41,109.896z M199.008,164.184v-46.792v-2.465c32.375,1.896,66.318-7.722,93.739-25.283    c10.858,11.658,16.738,17.773,18.634,20.099c0,5.884,0,47.705,0,54.44c0,30.447-24.826,55.276-55.277,55.276    C221.91,219.46,199.008,192.934,199.008,164.184z M218.623,307.259l-22.049-44.19l21.293-8.247l27.241,33.625    C231.255,298.284,219.88,306.366,218.623,307.259z M227.228,461.702l21.709-128.263h14.071l21.709,128.263l-28.744,31.623    L227.228,461.702z" />
        </g>
    </symbol>
    <symbol id="ip" viewBox="0 0 512 512">
        <title>ip</title>
        <g>
            <path d="M310.7,260.177l-38.202-14.735l-21.927-21.926c-1.426-1.426-3.292-2.158-5.173-2.191v-17.918    c10.377-11.025,17.75-25.021,20.668-40.801c0.006-0.007,0.013-0.015,0.02-0.021c1.91,0.113,3.838-0.027,5.744-0.417    c10.306-2.11,17.787-11.678,17.787-22.751v-5.743c0-6.491-2.668-12.44-6.996-16.653c7.033-37.871,1.355-68.717-16.492-89.326    C248.923,7.826,221.183-1.664,185.905,0.239c-32.856,1.776-53.958,16.993-60.433,22.358c-9.112,1.184-35.099,7.751-35.099,44.089    c0,20.121,3.269,36.855,5.565,46.131c-7.733,3.615-12.934,11.686-12.934,20.942v5.657c0,11.073,7.48,20.641,17.788,22.751    c1.904,0.39,3.835,0.53,5.743,0.417c0.007,0.007,0.014,0.015,0.02,0.022c2.918,15.779,10.291,29.775,20.668,40.8v17.918    c-1.881,0.033-3.747,0.765-5.173,2.191l-21.926,21.926l-42.969,16.574c-20.664,7.97-33.951,28.193-33.065,50.323l6.103,152.379    c0.162,4.037,3.485,7.2,7.489,7.2c0.102,0,0.204-0.002,0.306-0.006c4.139-0.166,7.359-3.655,7.194-7.794L39.079,311.74    c-0.162-4.05,0.349-8.009,1.442-11.754l24.362,24.362c6.935,6.935,10.754,16.156,10.754,25.963v114.108c0,4.142,3.358,7.5,7.5,7.5    s7.5-3.358,7.5-7.5V350.311c0-13.814-5.379-26.802-15.148-36.57L48,286.252c3.852-4.455,8.797-8.019,14.554-10.24l40.091-15.464    l30.606,45.908c3.71,5.566,9.656,9.136,16.313,9.795c0.741,0.073,1.48,0.109,2.216,0.109c4.091,0,8.051-1.145,11.505-3.247    l-6.573,150.979c-0.18,4.138,3.028,7.639,7.167,7.819c0.111,0.005,0.222,0.007,0.332,0.007c3.992,0,7.312-3.146,7.487-7.174    l6.095-139.989h17.043l6.095,139.989c0.175,4.027,3.495,7.174,7.487,7.174c0.11,0,0.221-0.002,0.332-0.007    c4.138-0.18,7.347-3.681,7.167-7.819l-6.573-150.979c3.454,2.102,7.413,3.247,11.504,3.247c0.735,0,1.475-0.036,2.215-0.109    c6.651-0.657,12.597-4.228,16.308-9.794l30.606-45.908l35.323,13.625c0.888,0.342,1.8,0.504,2.698,0.504    c3.01,0,5.851-1.826,6.999-4.803C316.489,266.01,314.564,261.669,310.7,260.177z M121.289,159.797    c-1.356-7.377-8.192-12.728-15.553-12.192c-0.632,0.045-1.284,0.001-1.937-0.132c-3.304-0.676-5.795-4.14-5.795-8.056v-5.657    c0-3.832,2.579-7.286,5.871-7.864c2.771-0.486,5.424,0.532,7.106,2.725c1.397,1.821,3.259,3.123,5.39,3.767    c3.113,0.939,6.549,0.388,9.19-1.477c6.096-4.303,11.263-9.761,15.356-16.221c2.217-3.499,1.178-8.133-2.32-10.35    c-3.501-2.219-8.133-1.178-10.35,2.32c-2.334,3.683-5.126,6.919-8.329,9.656c-2.552-2.248-5.568-3.857-8.808-4.744    c-2.009-7.565-5.737-24.366-5.737-44.887c0-12.215,3.786-20.805,11.254-25.528c5.813-3.678,11.951-3.819,11.953-3.82    c1.918,0,3.784-0.755,5.177-2.073c0.192-0.183,19.642-18.247,52.957-20.047c30.478-1.651,54.017,6.063,68.074,22.296    c14.24,16.445,18.933,41.712,13.692,73.323c-2.254-0.105-4.753,0.059-7.238,0.495l-7.516-18.051    c-1.439-3.456-5.208-5.321-8.828-4.371c-0.732,0.192-73.627,18.791-104.363-19.472c-2.593-3.229-7.314-3.745-10.544-1.15    c-3.229,2.594-3.745,7.314-1.15,10.544c31.177,38.815,93.263,30.113,113.46,26.035l5.842,14.03    c2.389,5.736,8.499,8.869,14.526,7.449c2.363-0.557,4.934-0.658,6.056-0.435c3.358,0.668,5.89,4.005,5.89,7.763v5.743    c0,3.917-2.492,7.38-5.794,8.056c-0.655,0.134-1.305,0.178-1.938,0.132c-7.358-0.538-14.198,4.815-15.552,12.193    c-5.764,31.378-33.109,54.152-65.021,54.152C154.397,213.949,127.052,191.175,121.289,159.797z M156.872,299.24    c-1.541,1.54-3.668,2.301-5.834,2.085c-2.167-0.214-4.102-1.376-5.31-3.188l-30.834-46.252l12.8-12.8l47.644,41.688    L156.872,299.24z M178.441,309.756l0.495-11.368l7.373-7.374l7.374,7.374l0.495,11.368H178.441z M186.309,270.442l-44.088-38.577    v-15.947c12.772,8.276,27.951,13.032,44.088,13.032s31.316-4.756,44.087-13.032v15.947L186.309,270.442z M226.892,298.136    c-1.209,1.813-3.144,2.975-5.311,3.189c-1.274,0.129-3.724,0.022-5.832-2.085l-18.466-18.467l47.643-41.688l12.8,12.8    L226.892,298.136z" />
        </g>
        <g>
            <path d="M487.951,352.193c0-17.396-14.152-31.548-31.548-31.548H407.79v-16.548c0-12.976-10.557-23.532-23.532-23.532H336.16    c-12.976,0-23.532,10.557-23.532,23.532v16.548h-48.613c-17.396,0-31.548,14.152-31.548,31.548v22.267    c0,8.209,2.764,16.092,8.016,23.382v83.424c0,16.946,13.787,30.733,30.733,30.733h177.987c16.946,0,30.733-13.787,30.733-30.733    v-83.424c5.252-7.291,8.016-15.174,8.016-23.383L487.951,352.193L487.951,352.193z M327.627,304.096L327.627,304.096    c0.001-4.705,3.829-8.532,8.533-8.532h48.097c4.705,0,8.532,3.828,8.532,8.532v16.548h-65.162V304.096z M472.95,374.461    c0,12.874-12.182,25.641-33.097,35.178v-1.332c0-4.142-3.358-7.5-7.5-7.5h-32.064c-4.142,0-7.5,3.358-7.5,7.5v24.048    c0,12.976,10.557,23.532,23.532,23.532s23.532-10.557,23.532-23.532v-6.414c9.738-3.896,18.145-8.43,25.081-13.467v68.793    c0.001,8.675-7.056,15.732-15.732,15.732H271.216c-8.675,0-15.733-7.058-15.733-15.733v-68.793    c6.936,5.037,15.342,9.571,25.081,13.468v6.414c0,12.976,10.557,23.532,23.532,23.532c11.145,0,20.499-7.791,22.918-18.211    c10.769,1.439,21.895,2.179,33.195,2.179c2.74,0,5.517-0.044,8.253-0.131c4.14-0.131,7.39-3.594,7.258-7.734    c-0.131-4.14-3.564-7.401-7.734-7.258c-2.579,0.082-5.195,0.123-7.778,0.123c-11.119,0-22.046-0.757-32.581-2.232v-14.316    c0-4.142-3.358-7.5-7.5-7.5h-32.064c-4.142,0-7.5,3.358-7.5,7.5v1.332c-20.915-9.537-33.097-22.305-33.097-35.178v-22.267    c0-9.125,7.423-16.548,16.548-16.548h192.388c9.125,0,16.548,7.423,16.548,16.548V374.461z M424.855,415.806v16.548    c0,4.705-3.828,8.532-8.532,8.532s-8.532-3.828-8.532-8.532v-16.548H424.855z M295.563,432.354v-16.548h17.064v16.548    c0,4.705-3.828,8.532-8.532,8.532S295.563,437.059,295.563,432.354z" />
        </g>
    </symbol>
    <symbol id="company" viewBox="0 0 532 532">
        <g>
            <path fill="#fff" d="M129.5,517c-2.8,0-5-2.2-5-5V78.3c0-2.8,2.2-5,5-5h324.3c2.8,0,5,2.2,5,5V512c0,2.8-2.2,5-5,5H129.5z" />
            <path fill="#fff" d="M453.7,78.3V512H129.5V78.3H453.7 M453.7,68.3H129.5c-5.5,0-10,4.5-10,10V512c0,5.5,4.5,10,10,10h324.3
                        c5.5,0,10-4.5,10-10V78.3C463.7,72.7,459.3,68.3,453.7,68.3L453.7,68.3z" />
        </g>
        <g>
            <path fill="#fff" d="M188,103c-2.8,0-5-2.2-5-5V27.1c0-2.8,2.2-5,5-5h188.9c2.8,0,5,2.2,5,5V98c0,2.8-2.2,5-5,5H188z" />
            <path fill="#fff" d="M376.9,27.1V98H188V27.1H376.9 M376.9,17.1H188c-5.5,0-10,4.5-10,10V98c0,5.5,4.5,10,10,10h188.9
                        c5.5,0,10-4.5,10-10V27.1C386.9,21.5,382.5,17.1,376.9,17.1L376.9,17.1z" />
        </g>
        <g>
            <path fill="#fff" d="M453.7,509.9c-2.8,0-5-2.2-5-5V469c0-2.8,2.2-5,5-5H480c2.8,0,5,2.2,5,5v35.9c0,2.8-2.2,5-5,5H453.7z" />
            <path fill="#fff" d="M480,469v35.9h-26.3V469H480 M480,459h-26.3c-5.5,0-10,4.5-10,10v35.9c0,5.5,4.5,10,10,10H480
                        c5.5,0,10-4.5,10-10V469C490,463.5,485.5,459,480,459L480,459z" />
        </g>
        <g>
            <path fill="#fff" d="M480,509.9c-2.8,0-5-2.2-5-5v-26c0-2.8,2.2-5,5-5h26c2.8,0,5,2.2,5,5v26c0,2.8-2.2,5-5,5H480z" />
            <path fill="#fff" d="M506,478.9v26h-26v-26H506 M506,468.9h-26c-5.5,0-10,4.5-10,10v26c0,5.5,4.5,10,10,10h26
                        c5.5,0,10-4.5,10-10v-26C516,473.4,511.5,468.9,506,468.9L506,468.9z" />
        </g>
        <g>
            <path fill="#fff" d="M112.4,527c-2.8,0-5-2.2-5-5v-35c0-2.8,2.2-5,5-5h341.3c2.8,0,5,2.2,5,5v35c0,2.8-2.2,5-5,5H112.4z" />
            <path fill="#fff" d="M453.7,487v35H112.4v-35H453.7 M453.7,477H112.4c-5.5,0-10,4.5-10,10v35c0,5.5,4.5,10,10,10h341.3
                        c5.5,0,10-4.5,10-10v-35C463.7,481.4,459.3,477,453.7,477L453.7,477z" />
        </g>
        <g>
            <path fill="#fff" d="M21,460c-2.8,0-5-2.2-5-5v-91c0-2.8,2.2-5,5-5h61c2.8,0,5,2.2,5,5v91c0,2.8-2.2,5-5,5H21z" />
            <path fill="#fff" d="M82,364v91H21v-91H82 M82,354H21c-5.5,0-10,4.5-10,10v91c0,5.5,4.5,10,10,10h61c5.5,0,10-4.5,10-10v-91
                        C92,358.5,87.5,354,82,354L82,354z" />
        </g>
        <g>
            <path fill="#fff" d="M34,369c-2.8,0-5-2.2-5-5v-35c0-2.8,2.2-5,5-5h35c2.8,0,5,2.2,5,5v35c0,2.8-2.2,5-5,5H34z" />
            <path fill="#fff" d="M69,329v35H34v-35H69 M69,319H34c-5.5,0-10,4.5-10,10v35c0,5.5,4.5,10,10,10h35c5.5,0,10-4.5,10-10v-35
                        C79,323.5,74.5,319,69,319L69,319z" />
        </g>
        <g>
            <path d="M155.1,527c-7.5,0-13.5-6.1-13.5-13.5V103.9c0-7.5,6.1-13.5,13.5-13.5h256c7.5,0,13.5,6.1,13.5,13.5v341.3
                        c0,7.5-6.1,13.5-13.5,13.5h-37.7v41.2h24.4c-0.2-1.2-0.2-2.4-0.2-3.5c0-16.9,13.7-30.6,30.6-30.6c0.6,0,1.2,0,1.8,0.1
                        c7.2-10.6,19.3-17.1,32.3-17.1c13,0,25.1,6.5,32.3,17.1c0.6,0,1.2-0.1,1.8-0.1c16.9,0,30.6,13.7,30.6,30.6S513.3,527,496.4,527
                        H155.1z M428.1,492.9c-1.9,0-3.5,1.6-3.5,3.5c0,1.9,1.6,3.5,3.5,3.5h68.3c1.9,0,3.5-1.6,3.5-3.5c0-1-0.5-1.8-1-2.2
                        c-0.8-0.8-1.8-1.2-2.8-1.2c-0.6,0-1.1,0.2-1.6,0.5c-2.2,1.4-4.7,2.2-7.3,2.2c-1.7,0-3.5-0.3-5.1-1c-4.1-1.6-7.1-5.2-8.1-9.5
                        c-1.3-5.5-6.1-9.3-11.7-9.3c-5.6,0-10.4,3.8-11.7,9.3c-1,4.3-4,7.8-8.1,9.5c-1.6,0.7-3.3,1-5.1,1c-2.6,0-5.1-0.7-7.3-2.2
                        C429.4,493.1,428.8,492.9,428.1,492.9z M346.3,499.9v-41.2h-24.1v41.2H346.3z M295.1,499.9v-41.2H271v41.2H295.1z M243.9,499.9
                        v-41.2h-24.1v41.2H243.9z M192.7,499.9v-41.2h-24.1v41.2H192.7z M397.5,431.7v-41.2h-24.1v41.2H397.5z M346.3,431.7v-41.2h-24.1
                        v41.2H346.3z M295.1,431.7v-41.2H271v41.2H295.1z M243.9,431.7v-41.2h-24.1v41.2H243.9z M192.7,431.7v-41.2h-24.1v41.2H192.7z
                         M397.5,363.4v-41.2h-24.1v41.2H397.5z M346.3,363.4v-41.2h-24.1v41.2H346.3z M295.1,363.4v-41.2H271v41.2H295.1z M243.9,363.4
                        v-41.2h-24.1v41.2H243.9z M192.7,363.4v-41.2h-24.1v41.2H192.7z M397.5,295.1v-41.2h-24.1v41.2H397.5z M346.3,295.1v-41.2h-24.1
                        v41.2H346.3z M295.1,295.1v-41.2H271v41.2H295.1z M243.9,295.1v-41.2h-24.1v41.2H243.9z M192.7,295.1v-41.2h-24.1v41.2H192.7z
                         M397.5,226.9v-41.2h-24.1v41.2H397.5z M346.3,226.9v-41.2h-24.1v41.2H346.3z M295.1,226.9v-41.2H271v41.2H295.1z M243.9,226.9
                        v-41.2h-24.1v41.2H243.9z M192.7,226.9v-41.2h-24.1v41.2H192.7z M397.5,158.6v-41.2h-24.1v41.2H397.5z M346.3,158.6v-41.2h-24.1
                        v41.2H346.3z M295.1,158.6v-41.2H271v41.2H295.1z M243.9,158.6v-41.2h-24.1v41.2H243.9z M192.7,158.6v-41.2h-24.1v41.2H192.7z" />
            <path fill="#fff" d="M411.1,95.3c4.7,0,8.5,3.8,8.5,8.5v341.3c0,4.7-3.8,8.5-8.5,8.5h-42.7v51.2h35.7c-1-2.7-1.6-5.5-1.6-8.5
                        c0-14.1,11.5-25.6,25.6-25.6c1.5,0,2.9,0.1,4.4,0.4c5.9-10.6,17.1-17.5,29.7-17.5s23.9,6.8,29.7,17.5c1.4-0.3,2.9-0.4,4.4-0.4
                        c14.1,0,25.6,11.5,25.6,25.6c0,14.1-11.5,25.6-25.6,25.6H155.1c-4.7,0-8.5-3.8-8.5-8.5V103.9c0-4.7,3.8-8.5,8.5-8.5H411.1
                         M368.4,163.6h34.1v-51.2h-34.1V163.6 M317.2,163.6h34.1v-51.2h-34.1V163.6 M266,163.6h34.1v-51.2H266V163.6 M214.8,163.6h34.1
                        v-51.2h-34.1V163.6 M163.6,163.6h34.1v-51.2h-34.1V163.6 M368.4,231.9h34.1v-51.2h-34.1V231.9 M317.2,231.9h34.1v-51.2h-34.1
                        V231.9 M266,231.9h34.1v-51.2H266V231.9 M214.8,231.9h34.1v-51.2h-34.1V231.9 M163.6,231.9h34.1v-51.2h-34.1V231.9 M368.4,300.1
                        h34.1v-51.2h-34.1V300.1 M317.2,300.1h34.1v-51.2h-34.1V300.1 M266,300.1h34.1v-51.2H266V300.1 M214.8,300.1h34.1v-51.2h-34.1
                        V300.1 M163.6,300.1h34.1v-51.2h-34.1V300.1 M368.4,368.4h34.1v-51.2h-34.1V368.4 M317.2,368.4h34.1v-51.2h-34.1V368.4
                         M266,368.4h34.1v-51.2H266V368.4 M214.8,368.4h34.1v-51.2h-34.1V368.4 M163.6,368.4h34.1v-51.2h-34.1V368.4 M368.4,436.7h34.1
                        v-51.2h-34.1V436.7 M317.2,436.7h34.1v-51.2h-34.1V436.7 M266,436.7h34.1v-51.2H266V436.7 M214.8,436.7h34.1v-51.2h-34.1V436.7
                         M163.6,436.7h34.1v-51.2h-34.1V436.7 M317.2,504.9h34.1v-51.2h-34.1V504.9 M266,504.9h34.1v-51.2H266V504.9 M214.8,504.9h34.1
                        v-51.2h-34.1V504.9 M163.6,504.9h34.1v-51.2h-34.1V504.9 M437.4,490.6c-1.6,0-3.2-0.5-4.6-1.4c-1.4-0.9-3-1.4-4.6-1.4
                        c-4.7,0-8.5,3.8-8.5,8.5s3.8,8.5,8.5,8.5h68.3c4.7,0,8.5-3.8,8.5-8.5c0-4.8-4.3-8.4-8.8-8.4c-1.5,0-3,0.4-4.4,1.3
                        c-1.4,0.9-3,1.4-4.6,1.4c-1.1,0-2.2-0.2-3.2-0.6c-2.6-1-4.5-3.3-5.1-6c-1.8-7.8-8.6-13.2-16.6-13.2s-14.8,5.4-16.6,13.2
                        c-0.6,2.7-2.5,4.9-5.1,6C439.6,490.4,438.5,490.6,437.4,490.6 M411.1,85.3h-256c-10.2,0-18.5,8.3-18.5,18.5v409.6
                        c0,10.2,8.3,18.5,18.5,18.5h341.3c19.6,0,35.6-16,35.6-35.6c0-19.4-15.6-35.2-34.9-35.6c-8.2-10.7-21.1-17.1-34.9-17.1
                        s-26.6,6.4-34.9,17.1c-3,0.1-5.9,0.5-8.6,1.2c6.4-2.9,10.8-9.4,10.8-16.8V103.9C429.6,93.6,421.3,85.3,411.1,85.3L411.1,85.3z
                         M378.4,122.4h14.1v31.2h-14.1V122.4L378.4,122.4z M327.2,122.4h14.1v31.2h-14.1V122.4L327.2,122.4z M276,122.4h14.1v31.2H276
                        V122.4L276,122.4z M224.8,122.4h14.1v31.2h-14.1V122.4L224.8,122.4z M173.6,122.4h14.1v31.2h-14.1V122.4L173.6,122.4z
                         M378.4,190.7h14.1v31.2h-14.1V190.7L378.4,190.7z M327.2,190.7h14.1v31.2h-14.1V190.7L327.2,190.7z M276,190.7h14.1v31.2H276
                        V190.7L276,190.7z M224.8,190.7h14.1v31.2h-14.1V190.7L224.8,190.7z M173.6,190.7h14.1v31.2h-14.1V190.7L173.6,190.7z
                         M378.4,258.9h14.1v31.2h-14.1V258.9L378.4,258.9z M327.2,258.9h14.1v31.2h-14.1V258.9L327.2,258.9z M276,258.9h14.1v31.2H276
                        V258.9L276,258.9z M224.8,258.9h14.1v31.2h-14.1V258.9L224.8,258.9z M173.6,258.9h14.1v31.2h-14.1V258.9L173.6,258.9z
                         M378.4,327.2h14.1v31.2h-14.1V327.2L378.4,327.2z M327.2,327.2h14.1v31.2h-14.1V327.2L327.2,327.2z M276,327.2h14.1v31.2H276
                        V327.2L276,327.2z M224.8,327.2h14.1v31.2h-14.1V327.2L224.8,327.2z M173.6,327.2h14.1v31.2h-14.1V327.2L173.6,327.2z
                         M378.4,395.5h14.1v31.2h-14.1V395.5L378.4,395.5z M327.2,395.5h14.1v31.2h-14.1V395.5L327.2,395.5z M276,395.5h14.1v31.2H276
                        V395.5L276,395.5z M224.8,395.5h14.1v31.2h-14.1V395.5L224.8,395.5z M173.6,395.5h14.1v31.2h-14.1V395.5L173.6,395.5z
                         M378.4,463.7h32.7c1.3,0,2.7-0.1,3.9-0.4c-12.7,5.1-21.8,17.3-22.4,31.6h-14.2V463.7L378.4,463.7z M327.2,463.7h14.1v31.2
                        h-14.1V463.7L327.2,463.7z M276,463.7h14.1v31.2H276V463.7L276,463.7z M224.8,463.7h14.1v31.2h-14.1V463.7L224.8,463.7z
                         M173.6,463.7h14.1v31.2h-14.1V463.7L173.6,463.7z M450.7,494.9c2.3-2.4,3.9-5.4,4.7-8.7c0.7-3.2,3.6-5.5,6.8-5.5
                        s6.1,2.2,6.8,5.5c0.8,3.3,2.4,6.3,4.7,8.7H450.7L450.7,494.9z" />
        </g>
        <g>
            <path d="M18.5,527C11.1,527,5,520.9,5,513.5c0-7.5,6.1-13.5,13.5-13.5h20.6v-26.1C19.1,467.9,5,449.3,5,428.1
                        c0-4.7,0.5-115.9,47.7-115.9c47.1,0,47.7,111.2,47.7,115.9c0,21.2-14.1,39.8-34.1,45.7v26.1h41.2V69.7c0-7.5,6.1-13.5,13.5-13.5
                        h54.7V35.6c0-7.5,6.1-13.5,13.5-13.5h54.7v-3.5c0-7.5,6.1-13.5,13.5-13.5h51.2c7.5,0,13.5,6.1,13.5,13.5v3.5h54.7
                        c7.5,0,13.5,6.1,13.5,13.5v20.6h54.7c7.5,0,13.5,6.1,13.5,13.5v362.5c0,7.5-6.1,13.5-13.5,13.5s-13.5-6.1-13.5-13.5v-349H223.3
                        c-7.5,0-13.5-6.1-13.5-13.5c0-7.5,6.1-13.5,13.5-13.5h140.1v-7.1h-54.7c-7.5,0-13.5-6.1-13.5-13.5v-3.5H271v3.5
                        c0,7.5-6.1,13.5-13.5,13.5h-54.7v20.6c0,7.5-6.1,13.5-13.5,13.5h-54.7v430.2c0,7.5-6.1,13.5-13.5,13.5H18.5z M52.7,339.3
                        c-1.6,0-7.6,5-13.3,27.2c-4.6,18-7.3,41-7.3,61.6c0,11.4,9.2,20.6,20.6,20.6s20.6-9.2,20.6-20.6c0-20.6-2.7-43.6-7.3-61.6
                        C60.3,344.3,54.3,339.3,52.7,339.3z" />
            <path fill="#fff" d="M308.7,10c4.7,0,8.5,3.8,8.5,8.5v8.5h59.7c4.7,0,8.5,3.8,8.5,8.5v25.6h59.7c4.7,0,8.5,3.8,8.5,8.5v362.5
                        c0,4.7-3.8,8.5-8.5,8.5c-4.7,0-8.5-3.8-8.5-8.5v-354H223.3c-4.7,0-8.5-3.8-8.5-8.5s3.8-8.5,8.5-8.5h145.1V44.1h-59.7
                        c-4.7,0-8.5-3.8-8.5-8.5v-8.5H266v8.5c0,4.7-3.8,8.5-8.5,8.5h-59.7v25.6c0,4.7-3.8,8.5-8.5,8.5h-59.7v435.2
                        c0,4.7-3.8,8.5-8.5,8.5H18.5c-4.7,0-8.5-3.8-8.5-8.5c0-4.7,3.8-8.5,8.5-8.5h25.6v-35C24.7,466,10,448.7,10,428.1
                        c0-1.1,0.5-110.9,42.7-110.9c42.2,0,42.7,109.8,42.7,110.9c0,20.6-14.7,37.8-34.1,41.8v35h51.2V69.7c0-4.7,3.8-8.5,8.5-8.5h59.7
                        V35.6c0-4.7,3.8-8.5,8.5-8.5h59.7v-8.5c0-4.7,3.8-8.5,8.5-8.5H308.7 M52.7,453.7c14.1,0,25.6-11.5,25.6-25.6
                        c0-42.5-11.4-93.9-25.6-93.9s-25.6,51.4-25.6,93.9C27.1,442.2,38.6,453.7,52.7,453.7 M308.7,0h-51.2c-9.7,0-17.7,7.5-18.5,17.1
                        h-49.8c-10.2,0-18.5,8.3-18.5,18.5v15.6h-49.7c-10.2,0-18.5,8.3-18.5,18.5v317.7c-0.7-5.6-1.6-11.3-2.8-17.1
                        c-3.3-17.1-8-30.9-13.9-41c-10.6-18.3-23.9-22.2-33.1-22.2c-9.2,0-22.5,3.8-33.1,22.2c-5.9,10.1-10.5,23.9-13.9,41
                        C0.1,399.2,0,427.8,0,428.1c0,22.1,13.9,41.7,34.1,49.3v17.5H18.5C8.3,494.9,0,503.2,0,513.5C0,523.7,8.3,532,18.5,532h102.4
                        c10.2,0,18.5-8.3,18.5-18.5V88.3h49.7c7.7,0,14.2-4.7,17.1-11.3c2.8,6.6,9.4,11.3,17.1,11.3h203.3v344
                        c0,10.2,8.3,18.5,18.5,18.5s18.5-8.3,18.5-18.5V69.7c0-10.2-8.3-18.5-18.5-18.5h-49.7V35.6c0-10.2-8.3-18.5-18.5-18.5h-49.8
                        C326.4,7.5,318.4,0,308.7,0L308.7,0z M275.9,37.1h14.2c0.5,5.9,3.7,11.1,8.5,14.1h-31.2C272.2,48.1,275.5,43,275.9,37.1
                        L275.9,37.1z M207.7,54.1h5.6c-2.2,1.4-4.2,3.4-5.6,5.6V54.1L207.7,54.1z M52.7,443.7c-8.6,0-15.6-7-15.6-15.6
                        c0-18.3,2.2-38.5,6-55.5c3.5-15.7,7.3-23.6,9.6-26.9c2.3,3.3,6.1,11.2,9.6,26.9c3.8,16.9,6,37.2,6,55.5
                        C68.3,436.7,61.3,443.7,52.7,443.7L52.7,443.7z M71.2,477.4c14.7-5.5,26.1-17.4,31.2-32v49.5H71.2V477.4L71.2,477.4z" />
        </g>
    </symbol>
    <symbol id="connect" viewBox="0 0 65 65">
        <g>
            <path fill="#fff" d="M32.5,63.2c-15,0-30.9-3.3-30.9-9.5s15.9-9.5,30.9-9.5s30.9,3.3,30.9,9.5S47.5,63.2,32.5,63.2z" />
            <path fill="#fff" d="M32.5,45.2c16.5,0,29.9,3.8,29.9,8.5S49,62.2,32.5,62.2S2.6,58.4,2.6,53.7S16,45.2,32.5,45.2 M32.5,43.2
                    c-15.4,0-31.9,3.3-31.9,10.5s16.6,10.5,31.9,10.5S64.4,61,64.4,53.7S47.9,43.2,32.5,43.2L32.5,43.2z" />
        </g>
        <g>
            <circle fill="#fff" cx="32.5" cy="21.5" r="6"></circle>
            <path fill="#fff" d="M32.5,16.5c2.8,0,5,2.2,5,5s-2.2,5-5,5s-5-2.2-5-5S29.7,16.5,32.5,16.5 M32.5,14.5c-3.9,0-7,3.1-7,7
                    s3.1,7,7,7s7-3.1,7-7S36.4,14.5,32.5,14.5L32.5,14.5z" />
        </g>
        <g>
            <path fill="#fff" d="M32.3,54.7c-0.3,0-0.6-0.2-0.8-0.4L17.8,34.5c-5.5-7.3-4.7-19.3,1.7-25.6c3.4-3.4,8-5.3,12.8-5.3
                    c4.8,0,9.4,1.9,12.9,5.3c6.4,6.4,7.2,18.4,1.7,25.7L33.1,54.3C33,54.6,32.6,54.7,32.3,54.7z M32.5,15.5c-3.3,0-6,2.7-6,6
                    s2.7,6,6,6s6-2.7,6-6S35.8,15.5,32.5,15.5z" />
            <path fill="#fff" d="M32.3,4.5c4.6,0,8.9,1.8,12.1,5c6.1,6,6.8,17.4,1.6,24.4L32.3,53.7L18.6,33.9c-5.2-6.9-4.5-18.3,1.6-24.4
                    C23.4,6.3,27.7,4.5,32.3,4.5 M32.5,28.5c3.9,0,7-3.1,7-7c0-3.9-3.1-7-7-7c-3.9,0-7,3.1-7,7C25.5,25.4,28.6,28.5,32.5,28.5
                     M32.3,2.5c-5.1,0-9.9,2-13.6,5.6c-6.7,6.7-7.5,19.3-1.8,27l13.7,19.8c0.4,0.5,1,0.9,1.6,0.9c0.7,0,1.3-0.3,1.6-0.9l13.7-19.8
                    c5.7-7.7,4.9-20.3-1.8-27C42.3,4.5,37.4,2.5,32.3,2.5L32.3,2.5z M32.5,26.5c-2.8,0-5-2.2-5-5s2.2-5,5-5s5,2.2,5,5
                    S35.3,26.5,32.5,26.5L32.5,26.5z" />
        </g>
        <g>
            <path d="M32.5,29.5c-4.4,0-8-3.6-8-8s3.6-8,8-8s8,3.6,8,8S36.9,29.5,32.5,29.5z M32.5,17.5c-2.2,0-4,1.8-4,4s1.8,4,4,4
                    c2.2,0,4-1.8,4-4S34.7,17.5,32.5,17.5z" />
            <path fill="#fff" d="M32.5,14.5c3.9,0,7,3.1,7,7s-3.1,7-7,7s-7-3.1-7-7S28.6,14.5,32.5,14.5 M32.5,26.5c2.8,0,5-2.2,5-5
                    s-2.2-5-5-5s-5,2.2-5,5S29.7,26.5,32.5,26.5 M32.5,12.5c-5,0-9,4-9,9s4,9,9,9s9-4,9-9S37.5,12.5,32.5,12.5L32.5,12.5z M32.5,24.5
                    c-1.7,0-3-1.3-3-3s1.3-3,3-3s3,1.3,3,3S34.2,24.5,32.5,24.5L32.5,24.5z" />
        </g>
        <g>
            <path d="M32.3,58.3c-0.3,0-0.6-0.2-0.8-0.4L16.1,35.6c-6-8-5.1-21.2,1.9-28.2c3.8-3.8,8.9-5.9,14.3-5.9c5.4,0,10.5,2.1,14.3,5.9
                    c7,7,7.9,20.2,1.9,28.3L33.1,57.8C33,58.1,32.6,58.3,32.3,58.3z M32.3,5.5c-4.3,0-8.4,1.7-11.4,4.7c-5.7,5.7-6.4,16.5-1.5,23.1
                    L32.3,52l12.9-18.6c5-6.6,4.3-17.4-1.5-23.1C40.7,7.2,36.6,5.5,32.3,5.5z" />
            <path fill="#fff" d="M32.3,2.5c5.1,0,9.9,2,13.6,5.6c6.7,6.7,7.5,19.3,1.8,27L32.3,57.3L17,35.1c-5.7-7.6-4.9-20.3,1.8-27
                    C22.4,4.5,27.2,2.5,32.3,2.5 M32.3,53.7L46,33.9c5.2-7,4.5-18.3-1.6-24.4c-3.3-3.2-7.6-5-12.1-5c-4.6,0-8.9,1.8-12.1,5
                    c-6,6-6.8,17.4-1.6,24.4L32.3,53.7 M32.3,0.5c-5.6,0-11,2.2-15,6.2c-7.3,7.3-8.3,21.1-2,29.5l15.3,22.2c0.4,0.5,1,0.9,1.6,0.9
                    c0.7,0,1.3-0.3,1.6-0.9l15.3-22.1c6.3-8.4,5.4-22.2-2-29.6C43.3,2.7,38,0.5,32.3,0.5L32.3,0.5z M32.3,50.2L20.2,32.8
                    c0,0,0,0,0-0.1c-4.6-6.1-3.9-16.5,1.4-21.8c2.9-2.9,6.7-4.4,10.7-4.4c4,0,7.9,1.6,10.7,4.4c5.4,5.4,6,15.6,1.4,21.8c0,0,0,0,0,0.1
                    L32.3,50.2L32.3,50.2z" />
        </g>
        <g>
            <path d="M32.5,63.5c-18.5,0-31-3.8-31-9.5c0-4.4,7.4-8.1,18.8-9.5c0.1,0,0.2,0,0.2,0c1,0,1.9,0.8,2,1.8c0.1,1.1-0.7,2.1-1.8,2.2
                    c-5.4,0.6-9,1.8-11,2.6c-3.5,1.4-4.2,2.7-4.2,2.9c0,1.3,8.4,5.5,27,5.5c18.6,0,27-4.2,27-5.5c0-0.8-4-4.2-15.2-5.5
                    c-1.1-0.1-1.9-1.1-1.8-2.2c0.1-1,1-1.8,2-1.8c0.1,0,0.2,0,0.2,0c11.4,1.3,18.8,5.1,18.8,9.5C63.5,59.7,51,63.5,32.5,63.5z" />
            <path fill="#fff" d="M20.5,45.5c0.5,0,0.9,0.4,1,0.9c0.1,0.5-0.3,1-0.9,1.1c-4.8,0.6-8.6,1.6-11.3,2.7c-3.2,1.3-4.9,2.8-4.9,3.8
                    c0,2.7,10.7,6.5,28,6.5s28-3.8,28-6.5c0-1.9-5.6-5.3-16.1-6.5c-0.5-0.1-0.9-0.6-0.9-1.1c0.1-0.5,0.5-0.9,1-0.9c0,0,0.1,0,0.1,0
                    c10.5,1.2,17.9,4.7,17.9,8.5c0,4.2-10.3,8.5-30,8.5s-30-4.3-30-8.5c0-3.8,7.4-7.3,17.9-8.5C20.4,45.5,20.5,45.5,20.5,45.5
                     M20.5,43.5C20.5,43.5,20.5,43.5,20.5,43.5c-0.1,0-0.2,0-0.4,0C10.7,44.6,0.5,48,0.5,54c0,6.4,12.6,10.5,32,10.5s32-4.1,32-10.5
                    c0-6-10.2-9.4-19.6-10.5c-0.1,0-0.2,0-0.4,0c-1.5,0-2.8,1.1-3,2.7c-0.2,1.6,1,3.1,2.6,3.3c8.7,1,13,3.4,14.1,4.5
                    c-1.8,1.6-10.4,4.5-25.8,4.5c-15.3,0-24-3-25.8-4.5c0.4-0.4,1.5-1.2,3.4-2c2-0.8,5.4-1.9,10.7-2.5c0.8-0.1,1.5-0.5,2-1.1
                    c0.5-0.6,0.7-1.4,0.6-2.2C23.3,44.6,22,43.5,20.5,43.5L20.5,43.5z" />
        </g>
    </symbol>
    <symbol id="arrow-black" viewBox="0 0 15 15">
        <g stroke="#000000" fill="#000000">
            <line stroke-width="1" x1="0" y1="9" x2="10" y2="9"></line>
            <polygon stroke-linejoin="miter" points="9,14 9,4 14,9"></polygon>
        </g>
    </symbol>
    <symbol id="arrow-green" viewBox="0 0 15 15">
        <g stroke="#4EA31E" fill="#4EA31E">
            <line stroke-width="1" x1="0" y1="9" x2="10" y2="9"></line>
            <polygon stroke-linejoin="miter" points="9,14 9,4 14,9"></polygon>
        </g>
    </symbol>
    <symbol id="line" viewBox="0 0 15 15">
        <g stroke="#336699" fill="#336699">
            <line stroke-width="1" x1="0" y1="9" x2="5" y2="9"></line>
            <line stroke-width="1" x1="7" y1="9" x2="12" y2="9"></line>
        </g>
    </symbol>
    <symbol id="pin" viewBox="0 0 53 53">
        <path d="M52.963,21.297c-0.068-0.329-0.297-0.603-0.609-0.727c-8.574-3.416-16.173-0.665-18.361,0.288L19.114,8.2  c0.52-4.568-1.944-7.692-2.054-7.828C16.881,0.151,16.618,0.016,16.335,0c-0.282-0.006-0.561,0.091-0.761,0.292L0.32,15.546  c-0.202,0.201-0.308,0.479-0.291,0.765c0.016,0.284,0.153,0.549,0.376,0.726c2.775,2.202,6.349,2.167,7.726,2.055l12.721,14.953  c-0.868,2.23-3.52,10.27-0.307,18.337c0.124,0.313,0.397,0.541,0.727,0.609c0.067,0.014,0.135,0.021,0.202,0.021  c0.263,0,0.518-0.104,0.707-0.293l14.57-14.57l13.57,13.57c0.195,0.195,0.451,0.293,0.707,0.293s0.512-0.098,0.707-0.293  c0.391-0.391,0.391-1.023,0-1.414l-13.57-13.57l14.527-14.528C52.929,21.969,53.031,21.627,52.963,21.297z M35.314,36.755  L21.89,50.18c-2.437-8.005,0.993-15.827,1.03-15.909c0.158-0.353,0.1-0.765-0.15-1.059L9.31,17.39  c-0.191-0.225-0.473-0.352-0.764-0.352c-0.051,0-0.103,0.004-0.154,0.013c-0.036,0.006-3.173,0.472-5.794-0.955l13.5-13.5  c0.604,1.156,1.391,3.26,0.964,5.848C17.004,8.79,17.133,9.141,17.4,9.368l15.785,13.43c0.309,0.262,0.748,0.309,1.105,0.128  c0.077-0.04,7.378-3.695,15.869-1.017L35.314,36.755z" />
    </symbol>
    <symbol id="hide" viewBox="0 0 44 44">
        <path d="M38.059,28H5.941C2.665,28,0,25.309,0,22s2.665-6,5.941-6h32.117C41.335,16,44,18.691,44,22S41.335,28,38.059,28z M5.941,18  C3.805,18,2,19.832,2,22s1.805,4,3.941,4h32.117C40.195,26,42,24.168,42,22s-1.805-4-3.941-4H5.941z" />
    </symbol>
    <symbol id="card" viewBox="0 0 60 60">
        <g>
            <path d="M55.783,8H4.217C1.892,8,0,9.892,0,12.217v35.566C0,50.108,1.892,52,4.217,52h51.566C58.108,52,60,50.108,60,47.783V12.217   C60,9.892,58.108,8,55.783,8z M58,47.783C58,49.006,57.006,50,55.783,50H4.217C2.994,50,2,49.006,2,47.783V12.217   C2,10.994,2.994,10,4.217,10h51.566C57.006,10,58,10.994,58,12.217V47.783z" />
            <path d="M22.638,36.246L19,34.388v-0.387c1.628-0.889,2.773-2.353,3.412-4.364C23.381,29.123,24,28.122,24,27v-1   c0-0.926-0.431-1.785-1.151-2.349c-0.624-3.78-3.262-5.696-7.849-5.696c-0.217,0-0.429,0.008-0.636,0.024   c-0.864,0.071-2.129-0.004-3.224-0.74c-0.409-0.276-0.718-0.544-0.915-0.793c-0.336-0.429-0.901-0.579-1.402-0.373   c-0.502,0.206-0.797,0.708-0.734,1.247c0.042,0.374,0.105,0.809,0.2,1.286c0.193,0.975,0.193,0.975-0.078,1.558   c-0.102,0.221-0.228,0.49-0.376,0.853c-0.331,0.811-0.566,1.699-0.701,2.647C6.424,24.229,6,25.083,6,26v1   c0,1.122,0.619,2.123,1.588,2.637c0.639,2.012,1.784,3.476,3.412,4.364v0.376l-3.769,1.858C5.855,36.985,5,38.425,5,39.993v1.325   C5,42.121,5,44,15,44s10-1.879,10-2.682v-1.245C25,38.442,24.095,36.977,22.638,36.246z M23,41.092C22.376,41.472,19.838,42,15,42   s-7.376-0.528-8-0.908v-1.099c0-0.835,0.455-1.603,1.152-1.982l3.857-1.901c0.602-0.294,0.99-0.917,0.99-1.588v-1.803l-0.604-0.26   c-1.517-0.654-2.503-1.901-3.015-3.814l-0.143-0.533l-0.526-0.164C8.293,27.817,8,27.428,8,27v-1c0-0.362,0.207-0.698,0.541-0.876   l0.469-0.25l0.055-0.529c0.099-0.938,0.308-1.803,0.622-2.57c0.133-0.325,0.246-0.568,0.338-0.767   c0.339-0.728,0.462-1.104,0.377-1.875c1.176,0.672,2.589,0.958,4.122,0.841c0.155-0.013,0.314-0.019,0.477-0.019   c3.744,0,5.572,1.356,5.929,4.398l0.062,0.522l0.465,0.246C21.791,25.299,22,25.636,22,26v1c0,0.428-0.293,0.817-0.712,0.947   l-0.526,0.164l-0.143,0.533c-0.512,1.913-1.498,3.16-3.015,3.814L17,32.719v1.811c0,0.669,0.37,1.272,0.964,1.575l3.775,1.929   C22.517,38.422,23,39.204,23,40.073V41.092z" />
            <path d="M30,23h10c0.553,0,1-0.447,1-1s-0.447-1-1-1H30c-0.553,0-1,0.447-1,1S29.447,23,30,23z" />
            <path d="M44,23h1c0.553,0,1-0.447,1-1s-0.447-1-1-1h-1c-0.553,0-1,0.447-1,1S43.447,23,44,23z" />
            <path d="M31,38h-1c-0.553,0-1,0.447-1,1s0.447,1,1,1h1c0.553,0,1-0.447,1-1S31.553,38,31,38z" />
            <path d="M37,38h-2c-0.553,0-1,0.447-1,1s0.447,1,1,1h2c0.553,0,1-0.447,1-1S37.553,38,37,38z" />
            <path d="M42,38h-1c-0.553,0-1,0.447-1,1s0.447,1,1,1h1c0.553,0,1-0.447,1-1S42.553,38,42,38z" />
            <path d="M48,38h-2c-0.553,0-1,0.447-1,1s0.447,1,1,1h2c0.553,0,1-0.447,1-1S48.553,38,48,38z" />
            <path d="M51.29,38.29C51.109,38.479,51,38.74,51,39s0.109,0.52,0.29,0.71C51.479,39.89,51.74,40,52,40s0.52-0.11,0.71-0.29   C52.89,39.52,53,39.26,53,39s-0.11-0.521-0.29-0.71C52.33,37.92,51.66,37.92,51.29,38.29z" />
            <path d="M52,27H30c-0.553,0-1,0.447-1,1s0.447,1,1,1h22c0.553,0,1-0.447,1-1S52.553,27,52,27z" />
            <path d="M52,33H30c-0.553,0-1,0.447-1,1s0.447,1,1,1h22c0.553,0,1-0.447,1-1S52.553,33,52,33z" />
        </g>
    </symbol>
    <symbol id="relations" viewBox="0 0 67 67">
        <title>relations</title>
        <g id="relations">
            <path d="M 51.992188 21.707031 C 51.007812 22.605469 50.546875 23.9375 50.75 25.257812 L 41.898438 31.179688 C 41.785156 31.054688 41.691406 30.929688 41.566406 30.804688 C 40.566406 29.808594 39.347656 29.054688 38.015625 28.59375 L 41.207031 8.613281 C 43.582031 8.507812 45.425781 6.5 45.324219 4.121094 C 45.222656 1.746094 43.210938 -0.0976562 40.832031 0.00390625 C 38.457031 0.105469 36.613281 2.117188 36.714844 4.496094 C 36.78125 5.929688 37.554688 7.246094 38.785156 7.988281 L 35.570312 28.085938 C 34 27.988281 32.429688 28.277344 31.003906 28.941406 L 27.46875 22.738281 C 29.125 21.078125 29.125 18.390625 27.46875 16.734375 C 25.8125 15.074219 23.121094 15.074219 21.460938 16.726562 C 19.804688 18.386719 19.804688 21.074219 21.460938 22.730469 C 22.253906 23.53125 23.335938 23.976562 24.460938 23.976562 C 24.726562 23.976562 24.996094 23.953125 25.253906 23.90625 L 28.890625 30.355469 C 28.691406 30.515625 28.507812 30.691406 28.324219 30.878906 C 27.023438 32.175781 26.144531 33.828125 25.777344 35.621094 L 8.308594 35.695312 C 8.117188 35.03125 7.753906 34.425781 7.269531 33.933594 C 5.613281 32.269531 2.929688 32.257812 1.265625 33.914062 C -0.398438 35.5625 -0.410156 38.253906 1.246094 39.917969 C 2.042969 40.722656 3.128906 41.171875 4.261719 41.167969 C 6.125 41.183594 7.765625 39.960938 8.296875 38.175781 L 25.589844 38.101562 C 25.808594 41.851562 28.253906 45.101562 31.796875 46.347656 L 29.214844 57.703125 C 26.917969 57.78125 25.117188 59.703125 25.195312 62 C 25.273438 64.292969 27.195312 66.089844 29.492188 66.019531 C 31.78125 65.941406 33.582031 64.019531 33.503906 61.722656 C 33.472656 60.679688 33.046875 59.6875 32.316406 58.945312 C 32.128906 58.738281 31.925781 58.550781 31.695312 58.390625 L 34.304688 46.832031 L 35.046875 46.832031 C 37.515625 46.816406 39.878906 45.835938 41.625 44.089844 C 41.800781 43.914062 41.949219 43.738281 42.113281 43.554688 L 48.140625 47.363281 C 47.441406 49.589844 48.675781 51.972656 50.910156 52.671875 C 53.140625 53.378906 55.511719 52.136719 56.21875 49.90625 C 56.695312 48.398438 56.285156 46.753906 55.167969 45.636719 C 53.625 44.175781 51.25 44.042969 49.558594 45.328125 L 43.449219 41.480469 C 44.6875 38.863281 44.65625 35.824219 43.363281 33.238281 L 51.867188 27.550781 L 52.003906 27.714844 C 53.746094 29.28125 56.429688 29.140625 58 27.398438 C 59.453125 25.78125 59.453125 23.332031 58 21.714844 C 56.324219 20.109375 53.679688 20.101562 51.992188 21.707031 Z M 39.769531 3.148438 C 40.449219 2.457031 41.566406 2.453125 42.257812 3.132812 C 42.949219 3.820312 42.960938 4.933594 42.273438 5.625 C 41.585938 6.320312 40.472656 6.324219 39.78125 5.644531 C 39.445312 5.3125 39.257812 4.859375 39.257812 4.386719 C 39.257812 3.925781 39.4375 3.476562 39.769531 3.148438 Z M 23.242188 20.921875 C 22.550781 20.242188 22.546875 19.121094 23.234375 18.429688 C 23.917969 17.738281 25.035156 17.734375 25.726562 18.421875 C 26.414062 19.105469 26.421875 20.222656 25.734375 20.914062 C 25.734375 20.917969 25.730469 20.921875 25.726562 20.921875 C 25.042969 21.609375 23.933594 21.613281 23.253906 20.933594 C 23.25 20.925781 23.25 20.925781 23.242188 20.921875 Z M 30.582031 63.128906 C 29.890625 63.8125 28.769531 63.808594 28.089844 63.117188 C 27.402344 62.425781 27.410156 61.3125 28.097656 60.628906 C 28.789062 59.941406 29.90625 59.945312 30.589844 60.636719 C 30.921875 60.96875 31.101562 61.421875 31.101562 61.886719 C 31.101562 62.359375 30.910156 62.8125 30.582031 63.144531 Z M 52.164062 46.867188 C 53.140625 46.871094 53.925781 47.660156 53.925781 48.632812 C 53.925781 49.605469 53.132812 50.394531 52.160156 50.394531 C 51.1875 50.394531 50.398438 49.601562 50.398438 48.628906 C 50.398438 48.15625 50.589844 47.707031 50.925781 47.378906 C 51.253906 47.054688 51.703125 46.875 52.164062 46.882812 Z M 4.300781 38.625 C 3.328125 38.632812 2.535156 37.84375 2.53125 36.871094 C 2.523438 35.898438 3.308594 35.105469 4.28125 35.101562 C 5.253906 35.097656 6.046875 35.878906 6.050781 36.851562 C 6.058594 37.320312 5.871094 37.773438 5.542969 38.101562 C 5.214844 38.4375 4.769531 38.625 4.300781 38.625 Z M 30.109375 42.351562 C 27.417969 39.652344 27.417969 35.28125 30.117188 32.589844 C 32.8125 29.894531 37.183594 29.898438 39.878906 32.601562 C 42.566406 35.289062 42.566406 39.65625 39.878906 42.351562 C 37.167969 45.042969 32.792969 45.03125 30.097656 42.328125 C 30.097656 42.328125 30.097656 42.328125 30.09375 42.328125 Z M 56.238281 25.953125 C 55.546875 26.632812 54.433594 26.632812 53.746094 25.945312 C 53.0625 25.253906 53.066406 24.132812 53.757812 23.449219 C 54.449219 22.765625 55.5625 22.765625 56.25 23.457031 C 56.578125 23.792969 56.765625 24.242188 56.757812 24.710938 C 56.757812 25.175781 56.570312 25.621094 56.238281 25.953125 Z M 56.238281 25.953125 " style=" stroke:none;fill-rule:nonzero;fill:#949494;fill-opacity:1;" />
        </g>
    </symbol>
    <symbol id="relations-black" viewBox="0 0 67 67">
        <title>relations</title>
        <g id="relations">
            <path d="M 51.992188 21.707031 C 51.007812 22.605469 50.546875 23.9375 50.75 25.257812 L 41.898438 31.179688 C 41.785156 31.054688 41.691406 30.929688 41.566406 30.804688 C 40.566406 29.808594 39.347656 29.054688 38.015625 28.59375 L 41.207031 8.613281 C 43.582031 8.507812 45.425781 6.5 45.324219 4.121094 C 45.222656 1.746094 43.210938 -0.0976562 40.832031 0.00390625 C 38.457031 0.105469 36.613281 2.117188 36.714844 4.496094 C 36.78125 5.929688 37.554688 7.246094 38.785156 7.988281 L 35.570312 28.085938 C 34 27.988281 32.429688 28.277344 31.003906 28.941406 L 27.46875 22.738281 C 29.125 21.078125 29.125 18.390625 27.46875 16.734375 C 25.8125 15.074219 23.121094 15.074219 21.460938 16.726562 C 19.804688 18.386719 19.804688 21.074219 21.460938 22.730469 C 22.253906 23.53125 23.335938 23.976562 24.460938 23.976562 C 24.726562 23.976562 24.996094 23.953125 25.253906 23.90625 L 28.890625 30.355469 C 28.691406 30.515625 28.507812 30.691406 28.324219 30.878906 C 27.023438 32.175781 26.144531 33.828125 25.777344 35.621094 L 8.308594 35.695312 C 8.117188 35.03125 7.753906 34.425781 7.269531 33.933594 C 5.613281 32.269531 2.929688 32.257812 1.265625 33.914062 C -0.398438 35.5625 -0.410156 38.253906 1.246094 39.917969 C 2.042969 40.722656 3.128906 41.171875 4.261719 41.167969 C 6.125 41.183594 7.765625 39.960938 8.296875 38.175781 L 25.589844 38.101562 C 25.808594 41.851562 28.253906 45.101562 31.796875 46.347656 L 29.214844 57.703125 C 26.917969 57.78125 25.117188 59.703125 25.195312 62 C 25.273438 64.292969 27.195312 66.089844 29.492188 66.019531 C 31.78125 65.941406 33.582031 64.019531 33.503906 61.722656 C 33.472656 60.679688 33.046875 59.6875 32.316406 58.945312 C 32.128906 58.738281 31.925781 58.550781 31.695312 58.390625 L 34.304688 46.832031 L 35.046875 46.832031 C 37.515625 46.816406 39.878906 45.835938 41.625 44.089844 C 41.800781 43.914062 41.949219 43.738281 42.113281 43.554688 L 48.140625 47.363281 C 47.441406 49.589844 48.675781 51.972656 50.910156 52.671875 C 53.140625 53.378906 55.511719 52.136719 56.21875 49.90625 C 56.695312 48.398438 56.285156 46.753906 55.167969 45.636719 C 53.625 44.175781 51.25 44.042969 49.558594 45.328125 L 43.449219 41.480469 C 44.6875 38.863281 44.65625 35.824219 43.363281 33.238281 L 51.867188 27.550781 L 52.003906 27.714844 C 53.746094 29.28125 56.429688 29.140625 58 27.398438 C 59.453125 25.78125 59.453125 23.332031 58 21.714844 C 56.324219 20.109375 53.679688 20.101562 51.992188 21.707031 Z M 39.769531 3.148438 C 40.449219 2.457031 41.566406 2.453125 42.257812 3.132812 C 42.949219 3.820312 42.960938 4.933594 42.273438 5.625 C 41.585938 6.320312 40.472656 6.324219 39.78125 5.644531 C 39.445312 5.3125 39.257812 4.859375 39.257812 4.386719 C 39.257812 3.925781 39.4375 3.476562 39.769531 3.148438 Z M 23.242188 20.921875 C 22.550781 20.242188 22.546875 19.121094 23.234375 18.429688 C 23.917969 17.738281 25.035156 17.734375 25.726562 18.421875 C 26.414062 19.105469 26.421875 20.222656 25.734375 20.914062 C 25.734375 20.917969 25.730469 20.921875 25.726562 20.921875 C 25.042969 21.609375 23.933594 21.613281 23.253906 20.933594 C 23.25 20.925781 23.25 20.925781 23.242188 20.921875 Z M 30.582031 63.128906 C 29.890625 63.8125 28.769531 63.808594 28.089844 63.117188 C 27.402344 62.425781 27.410156 61.3125 28.097656 60.628906 C 28.789062 59.941406 29.90625 59.945312 30.589844 60.636719 C 30.921875 60.96875 31.101562 61.421875 31.101562 61.886719 C 31.101562 62.359375 30.910156 62.8125 30.582031 63.144531 Z M 52.164062 46.867188 C 53.140625 46.871094 53.925781 47.660156 53.925781 48.632812 C 53.925781 49.605469 53.132812 50.394531 52.160156 50.394531 C 51.1875 50.394531 50.398438 49.601562 50.398438 48.628906 C 50.398438 48.15625 50.589844 47.707031 50.925781 47.378906 C 51.253906 47.054688 51.703125 46.875 52.164062 46.882812 Z M 4.300781 38.625 C 3.328125 38.632812 2.535156 37.84375 2.53125 36.871094 C 2.523438 35.898438 3.308594 35.105469 4.28125 35.101562 C 5.253906 35.097656 6.046875 35.878906 6.050781 36.851562 C 6.058594 37.320312 5.871094 37.773438 5.542969 38.101562 C 5.214844 38.4375 4.769531 38.625 4.300781 38.625 Z M 30.109375 42.351562 C 27.417969 39.652344 27.417969 35.28125 30.117188 32.589844 C 32.8125 29.894531 37.183594 29.898438 39.878906 32.601562 C 42.566406 35.289062 42.566406 39.65625 39.878906 42.351562 C 37.167969 45.042969 32.792969 45.03125 30.097656 42.328125 C 30.097656 42.328125 30.097656 42.328125 30.09375 42.328125 Z M 56.238281 25.953125 C 55.546875 26.632812 54.433594 26.632812 53.746094 25.945312 C 53.0625 25.253906 53.066406 24.132812 53.757812 23.449219 C 54.449219 22.765625 55.5625 22.765625 56.25 23.457031 C 56.578125 23.792969 56.765625 24.242188 56.757812 24.710938 C 56.757812 25.175781 56.570312 25.621094 56.238281 25.953125 Z M 56.238281 25.953125 " style=" stroke:none;fill-rule:nonzero;fill:#000000;fill-opacity:1;" />
        </g>
    </symbol>
</svg>
