<?xml version="1.0" encoding="utf-8"?>
<svg xmlns="http://www.w3.org/2000/svg" style="display: none">
  <symbol id="babycare" viewBox="0 0 60 60">
    <title>Беременность и отпуск по уходу за ребенком</title>
    <g fill="#556080">
      <path d="M5.414,47H2v-2h2.586l3.574-3.574c0.626-0.626,1.641-0.626,2.267,0l0.281,0.281L5.414,47z"/>
      <path d="M27,30c-0.256,0-0.512-0.098-0.707-0.293l-4-4c-0.391-0.391-0.391-1.023,0-1.414 s1.023-0.391,1.414,0l4,4c0.391,0.391,0.391,1.023,0,1.414C27.512,29.902,27.256,30,27,30z"/>
    </g>
    <polygon fill="#8697CB" points="24,44 23.444,44 23,44 23,48 39,48 39,36.2 "/>
    <path fill="#31BCEB" d="M35,4v17L18.556,38L10,41v3h13.444H24l16.691-8.679C45.796,32.666,49,27.389,49,21.634v0 c0-2.789-0.756-5.526-2.188-7.92L35,4z"/>
    <rect fill="#2C2F38" y="54" width="59" height="2"/>
    <path fill="#556080" d="M56,6c-0.277,0-0.527,0.113-0.708,0.294L13.293,48.293l1.414,1.414L33,31.414l16.293,16.293 l1.414-1.414L34.414,30L56.376,8.038C57.299,8.215,58,9.026,58,10c0,0.553,0.447,1,1,1s1-0.447,1-1C60,7.794,58.206,6,56,6z"/>
    <g fill="#8697CB">
      <circle cx="50" cy="47" r="8"/>
      <circle cx="14" cy="49" r="6"/>
    </g>
    <g fill="#556080">
      <path d="M50,56c-4.963,0-9-4.037-9-9s4.037-9,9-9s9,4.037,9,9S54.963,56,50,56z M50,40 c-3.859,0-7,3.141-7,7s3.141,7,7,7s7-3.141,7-7S53.859,40,50,40z"/>
      <path d="M14,56c-3.859,0-7-3.141-7-7s3.141-7,7-7s7,3.141,7,7S17.859,56,14,56z M14,44 c-2.757,0-5,2.243-5,5s2.243,5,5,5s5-2.243,5-5S16.757,44,14,44z"/>
    </g>
  </symbol>
  <symbol id="trip" viewBox="0 0 512 512">
    <title>Командировка</title>
    <polygon style="fill:#C6CBCB;" points="0,28.912 331.169,448.395 360.607,348.517 "/>
    <polygon style="fill:#D672AD;" points="231.47,234.064 208.737,293.313 331.169,448.395 360.607,348.517 "/>
    <polygon style="fill:#D1D5D5;" points="331.169,448.395 300.681,373.749 0,28.912 267.039,395.827 "/>
    <g fill="#E2E5E7">
      <polygon points="300.681,373.749 128.262,483.087 0,28.912 "/>
      <polygon points="360.607,348.517 0,28.912 512,282.283 "/>
    </g>
    <g fill="#EA8EBC">
      <polygon points="182.646,238.382 123.753,467.124 128.262,483.087 300.845,373.618 "/>
      <polygon points="490.927,271.856 231.47,234.064 360.482,348.94 512,282.283 "/>
    </g>
    <g fill="#D672AD">
      <polygon points="182.646,238.382 123.753,467.124 191.301,248.285 "/>
      <polygon points="231.47,234.064 242.976,244.31 490.927,271.856 "/>
    </g>
    <polygon fill="#C6CBCB" points="300.845,373.618 266.658,395.304 292.821,416.96 "/>
    <g fill="#EA8EBC">
      <polygon points="12.714,73.934 23.006,55.296 0,28.912 "/>
      <polygon points="27.91,53.648 51.141,54.22 0,28.912 "/>
    </g>
  </symbol>
  <symbol id="holiday" viewBox="0 0 60 60">
    <title>Отпуск</title>
    <path fill="#F4E6CE" d="M52.125,27.875L52.125,27.875c-1.167-1.167-3.076-1.167-4.243,0L31.757,44H4.037c-1.65,0-3,1.35-3,3 c0,1.65,1.35,3,3,3h28c1.172,0,2.255-0.333,3.118-0.912l16.971-16.971C53.292,30.951,53.292,29.042,52.125,27.875z"/>
    <g fill="none" stroke="#7F6E5D" stroke-width="2" stroke-linecap="round" stroke-miterlimit="10">
      <polyline points="1,53 36,53 59,30 "/>
      <line x1="59" y1="57" x2="46" y2="44"/>
    </g>
    <g stroke-width="2" stroke-linecap="round" stroke-miterlimit="10">
      <path fill="#CB8252" stroke="#7F6E5D" d="M57.513,56H1v-3h54 l2.655,2.655C57.783,55.783,57.692,56,57.513,56z"/>
      <circle fill="#F29C1F" stroke="#F0C419" stroke-linejoin="round" cx="17" cy="13" r="7"/>
    </g>
    <g fill="none" stroke="#F0C419" stroke-width="2" stroke-linecap="round" stroke-linejoin="round" stroke-miterlimit="10">
      <line x1="17" y1="6" x2="17" y2="3"/>
      <line x1="17" y1="23" x2="17" y2="20"/>
      <line x1="24" y1="13" x2="27" y2="13"/>
      <line x1="7" y1="13" x2="10" y2="13"/>
      <line x1="12.05" y1="8.05" x2="9.929" y2="5.929"/>
      <line x1="24.071" y1="20.071" x2="21.95" y2="17.95"/>
      <line x1="21.95" y1="8.05" x2="24.071" y2="5.929"/>
      <line x1="9.929" y1="20.071" x2="12.05" y2="17.95"/>
    </g>
    <path fill="#81CCB8" stroke="#81CCB8" stroke-width="2" stroke-linejoin="round" stroke-miterlimit="10" d="M38.966,7.914 c-1.49-0.86-3.403-0.414-4.231,1.021c3.452-5.979,10.847-7.594,16.825-4.142s8.277,10.664,4.825,16.642 c0.828-1.435,0.259-3.315-1.231-4.175c-1.49-0.86-3.37-0.395-4.198,1.04c0.828-1.435,0.292-3.295-1.198-4.156 c-1.49-0.86-3.37-0.394-4.198,1.04c0.828-1.435,0.292-3.295-1.198-4.156s-3.37-0.394-4.198,1.04 C40.992,10.634,40.456,8.774,38.966,7.914z"/>
    <path fill="#546A79" d="M31.757,44l0.741-0.741l14.128-27.806c0.25-0.492,0.054-1.095-0.438-1.345 c-0.493-0.248-1.095-0.053-1.345,0.438l-14.734,29c-0.074,0.146-0.098,0.3-0.097,0.453H31.757z"/>
  </symbol>
  <symbol id="disease" viewBox="0 0 409.97 409.97">
    <title>Болезнь</title>
    <path fill="#EBF0F3" d="M392.186,17.388c-0.442-0.441-0.833-0.916-1.291-1.348c-24.178-22.767-62.753-20.385-86.236,3.099 L83.313,240.485C68.688,255.11,63.11,275.34,66.552,294.257c1.465,8.051-1.624,16.267-7.409,22.052L30.72,344.732l17.061,17.061 L392.186,17.388z"/>
    <path fill="#64798A" d="M30.72,344.732L7.771,367.68c-8.926,8.926-10.636,23.482-2.645,33.251 c0.541,0.66,1.183,1.16,1.77,1.746l40.885-40.885L30.72,344.732z"/>
    <path fill="#3A556A" d="M6.896,402.677c9.426,9.401,24.612,9.518,34.028,0.103l23.922-23.923l-17.065-17.064L6.896,402.677z"/>
    <path fill="#D5D6DB" d="M392.186,17.388L47.781,361.793l17.065,17.064l28.423-28.422c5.786-5.786,14-8.875,22.05-7.411 c18.917,3.442,39.147-2.137,53.772-16.761l223.144-223.145C415.918,79.434,415.863,41.076,392.186,17.388z"/>
    <path fill="#FFFFFF" d="M313.467,24.35L90.321,247.496c-19.785,19.785-19.785,51.978,0,71.763L385.231,24.35 C365.446,4.565,333.253,4.565,313.467,24.35z"/>
    <path fill="#E1E6E9" d="M385.231,24.35L90.321,319.26c19.785,19.785,51.978,19.785,71.763,0L385.231,96.113 C405.016,76.328,405.016,44.135,385.231,24.35z"/>
    <path fill="#EBF0F3" d="M351.846,57.732c-3.183-3.182-8.34-3.181-11.522,0.001L42.023,356.034l11.522,11.521L351.845,69.254 C355.027,66.072,355.029,60.914,351.846,57.732z"/>
    <path fill="#E56353" d="M235.342,162.712L42.022,356.034l5.762,5.762l199.083-199.083 C243.684,159.531,238.525,159.53,235.342,162.712z"/>
    <path fill="#D15241" d="M246.864,174.234c3.182-3.182,3.185-8.338,0.003-11.521L47.784,361.796l5.759,5.759L246.864,174.234z "/>
    <g fill="#64798A">
      <rect x="381.197" y="75.45" transform="matrix(-0.7071 0.7071 -0.7071 -0.7071 713.6942 -125.6628)" width="3.354" height="19.067"/>
      <rect x="373.451" y="83.252" transform="matrix(-0.7071 0.7071 -0.7071 -0.7071 705.9935 -106.8603)" width="3.354" height="19.067"/>
      <rect x="365.639" y="91.018" transform="matrix(-0.7071 0.7071 -0.7071 -0.7071 698.1485 -88.0789)" width="3.354" height="19.067"/>
      <rect x="357.88" y="98.793" transform="matrix(-0.7071 0.7071 -0.7071 -0.7071 690.4062 -69.3085)" width="3.354" height="19.067"/>
      <rect x="344.802" y="93.853" transform="matrix(-0.7071 0.7071 -0.7071 -0.7071 669.848 -55.7928)" width="3.354" height="33.961"/>
      <rect x="341.069" y="115.568" transform="matrix(-0.7071 0.7071 -0.7071 -0.7071 673.5682 -28.7849)" width="3.354" height="19.067"/>
      <rect x="333.279" y="123.357" transform="matrix(-0.7071 0.7071 -0.7071 -0.7071 665.7706 -9.9977)" width="3.354" height="19.067"/>
      <rect x="325.506" y="131.164" transform="matrix(-0.7071 0.7071 -0.7071 -0.7071 658.0248 8.8329)" width="3.354" height="19.067"/>
      <rect x="317.72" y="138.941" transform="matrix(-0.7071 0.7071 -0.7071 -0.7071 650.2322 27.6143)" width="3.354" height="19.067"/>
      <rect x="304.674" y="134.006" transform="matrix(-0.7071 0.7071 -0.7071 -0.7071 629.739 41.1322)" width="3.354" height="33.966"/>
      <rect x="300.901" y="155.8" transform="matrix(-0.7071 0.7071 -0.7071 -0.7071 633.4413 68.2874)" width="3.354" height="19.067"/>
      <rect x="293.103" y="163.524" transform="matrix(-0.7071 0.7071 -0.7071 -0.7071 625.5928 86.9939)" width="3.354" height="19.067"/>
      <rect x="285.336" y="171.346" transform="matrix(-0.7071 0.7071 -0.7071 -0.7071 617.8628 105.8312)" width="3.354" height="19.067"/>
      <rect x="277.534" y="179.127" transform="matrix(-0.7071 0.7071 -0.7071 -0.7071 610.0461 124.6316)" width="3.354" height="19.067"/>
      <rect x="264.482" y="174.186" transform="matrix(-0.7071 0.7071 -0.7071 -0.7071 589.539 138.1439)" width="3.354" height="33.966"/>
      <rect x="260.72" y="195.927" transform="matrix(-0.7071 0.7071 -0.7071 -0.7071 593.2223 165.2008)" width="3.354" height="19.067"/>
      <rect x="252.964" y="203.676" transform="matrix(-0.7071 0.7071 -0.7071 -0.7071 585.462 183.9237)" width="3.354" height="19.067"/>
      <rect x="245.152" y="211.489" transform="matrix(-0.7071 0.7071 -0.7071 -0.7071 577.649 202.7636)" width="3.354" height="19.067"/>
      <rect x="237.401" y="219.273" transform="matrix(-0.7071 0.7071 -0.7071 -0.7071 569.9225 221.5434)" width="3.354" height="19.067"/>
      <rect x="224.308" y="214.348" transform="matrix(-0.7071 0.7071 -0.7071 -0.7071 549.3556 235.1123)" width="3.354" height="33.966"/>
      <rect x="220.568" y="236.113" transform="matrix(-0.7071 0.7071 -0.7071 -0.7071 553.0944 262.194)" width="3.354" height="19.067"/>
      <rect x="212.786" y="243.909" transform="matrix(-0.7071 0.7071 -0.7071 -0.7071 545.3214 281.0052)" width="3.354" height="19.067"/>
      <rect x="205" y="251.698" transform="matrix(-0.7071 0.7071 -0.7071 -0.7071 537.5364 299.8139)" width="3.354" height="19.067"/>
      <rect x="197.215" y="259.46" transform="matrix(-0.7071 0.7071 -0.7071 -0.7071 529.7383 318.5517)" width="3.354" height="19.067"/>
      <rect x="184.157" y="254.512" transform="matrix(-0.7071 0.7071 -0.7071 -0.7071 509.2138 332.0679)" width="3.354" height="33.966"/>
      <rect x="180.414" y="276.251" transform="matrix(-0.7071 0.7071 -0.7071 -0.7071 512.9308 359.0996)" width="3.354" height="19.067"/>
      <rect x="172.605" y="284.041" transform="matrix(-0.7071 0.7071 -0.7071 -0.7071 505.1061 377.9273)" width="3.354" height="19.067"/>
      <rect x="164.851" y="291.821" transform="matrix(-0.7071 0.7071 -0.7071 -0.7071 497.3702 396.6912)" width="3.354" height="19.067"/>
      <rect x="157.034" y="299.6" transform="matrix(-0.7071 0.7071 -0.7071 -0.7071 489.5222 415.5105)" width="3.354" height="19.067"/>
      <rect x="144.005" y="294.675" transform="matrix(-0.7071 0.7071 -0.7071 -0.7071 469.0683 429.0151)" width="3.354" height="33.961"/>
    </g>
  </symbol>
  <symbol id="birthday" viewBox="0 0 512 512">
    <path fill="#E1E1E3" d="M255.99,90.042c-4.807,0-8.705-3.897-8.705-8.705V46.624c0-4.807,3.897-8.705,8.705-8.705
      c4.807,0,8.705,3.897,8.705,8.705v34.713C264.694,86.145,260.797,90.042,255.99,90.042z"/>
    <path fill="#D9D9DB" d="M463.879,509.904H48.121C21.545,509.904,0,488.359,0,461.783l0,0h512l0,0
      C512,488.359,490.455,509.904,463.879,509.904z"/>
    <path fill="#E1E1E3" d="M33.658,461.783H0c0,26.576,21.545,48.121,48.121,48.121h33.658
      C55.203,509.904,33.658,488.359,33.658,461.783z"/>
    <g fill="#C8C6CD">
      <path d="M458.611,461.783c0,26.576-21.545,48.121-48.121,48.121h53.389
        c26.576,0,48.121-21.545,48.121-48.121H458.611z"/>
      <path d="M396.483,461.783c0,26.576-13.851,48.121-30.936,48.121h34.322
        c17.086,0,30.936-21.545,30.936-48.121H396.483z"/>
    </g>
    <path fill="#EDA156" d="M275.872,32.412c0,10.975-8.896,19.871-19.871,19.871c-10.975,0-19.871-8.896-19.871-19.871
      c0-8.152,10.963-22.141,16.604-28.799c1.714-2.023,4.821-2.023,6.536,0C264.909,10.271,275.872,24.26,275.872,32.412z"/>
    <path fill="#D9D9DB" d="M279.687,175.406h-47.371V77.973c0-5.198,4.214-9.412,9.412-9.412h28.547
      c5.198,0,9.412,4.214,9.412,9.412v97.433H279.687z"/>
    <g fill="#F9DE8F">
      <path d="M441.295,318.594H70.704c-18.026,0-32.638,14.612-32.638,32.638v110.55h435.868v-110.55
        C473.934,333.207,459.321,318.594,441.295,318.594z"/>
      <path d="M392.016,175.406H120.927c-15.629,0-28.3,12.671-28.3,28.3v114.889h327.689V203.705
        C420.316,188.075,407.645,175.406,392.016,175.406z"/>
    </g>
    <g fill="#F7CF6D">
      <path d="M441.295,318.594h-28.639c18.026,0,32.638,14.612,32.638,32.638v110.55h28.639v-110.55
        C473.934,333.207,459.321,318.594,441.295,318.594z"/>
      <path d="M392.016,175.406h-28.629c15.629,0,28.817,12.573,28.817,28.202v114.889l28.111,0.098V203.705
        C420.316,188.075,407.645,175.406,392.016,175.406z"/>
    </g>
    <path fill="#F09EA0" d="M392.016,175.406H120.927c-15.629,0-28.3,12.671-28.3,28.3v36.719h0.48
      c18.194-0.427,17.913-23.188,35.247-23.286c17.394-0.097,23.907,27.057,41.713,27.107c17.919,0.05,24.792-27.413,43.394-27.572
      c18.148-0.156,24.944,25.871,43.685,25.854c18.572-0.016,26.262-25.589,43.407-25.087c16.801,0.491,20.939,25.392,37.747,25.887
      c17.264,0.507,25.571-25.402,43.407-25.087c17.548,0.309,21.033,26.804,38.129,27.061l0.48-0.033v-41.562
      C420.316,188.075,407.645,175.406,392.016,175.406z"/>
    <path fill="#EF8990" d="M392.016,175.406h-28.629c15.629,0,28.817,12.573,28.817,28.202v18.598
      c9.471,7.468,14.6,22.898,27.63,23.094l0.48-0.032v-41.562C420.316,188.075,407.645,175.406,392.016,175.406z"/>
    <path fill="#F09EA0" d="M441.286,318.594H70.694c-18.026,0-32.638,14.612-32.638,32.638v34.05
      c17.709-0.814,17.598-23.159,34.777-23.256c17.394-0.098,23.908,27.057,41.713,27.107c17.919,0.05,24.792-27.413,43.394-27.572
      c18.148-0.156,24.944,25.871,43.685,25.854c18.572-0.016,26.262-25.589,43.407-25.087c16.801,0.491,20.939,25.392,37.747,25.887
      c17.264,0.507,25.571-25.402,43.407-25.087c17.548,0.309,21.707,24.03,38.802,24.287c18.572-0.016,26.262-25.589,43.407-25.087
      c16.801,0.491,20.939,25.392,37.747,25.887c11.187,0.328,18.613-10.434,27.307-17.967l0.472-0.245v-18.77
      C473.924,333.207,459.312,318.594,441.286,318.594z"/>
    <path fill="#EF8990" d="M441.295,318.594h-28.639c18.026,0,32.638,14.612,32.638,32.638v36.929
      c0.283,0.023,0.568,0.045,0.859,0.053c11.187,0.328,18.613-10.434,27.307-17.967l0.472-0.245v-18.77
      C473.934,333.207,459.321,318.594,441.295,318.594z"/>
  </symbol>
</svg>
