<?xml version="1.0" encoding="utf-8"?>
<svg xmlns="http://www.w3.org/2000/svg" style="display: none">
  <symbol id="aeroplane" viewBox="0 0 372.064 372.064">
    <path d="M365.437,35.312c-4.096-2.56-8.704-3.584-14.336-3.072c-9.728,1.536-17.92,5.12-25.6,10.752
      c-6.656,5.12-14.336,11.264-23.04,18.432c-4.096,3.584-8.192,7.168-12.288,10.752c-2.56,2.56-5.12,4.608-7.68,7.168
      c-2.56,2.048-4.608,3.072-7.68,2.56c-1.536-0.512-3.584-1.024-5.632-1.536l-95.744-35.84c-3.072-1.024-6.144-2.048-9.728-3.072
      c-7.168-2.048-12.288,0-15.36,2.56c-5.632,4.096-10.24,9.216-13.312,14.848c-3.584,5.632-2.56,11.776,2.56,16.384
      c2.048,2.048,4.096,3.584,5.632,4.608c17.408,12.288,35.328,24.064,52.736,36.352c6.656,4.608,12.8,8.704,17.408,14.336
      c1.024,1.536,2.048,2.56,3.072,4.096l-33.28,31.744c-3.584,3.584-7.168,6.656-10.752,10.24c-0.512,0-1.024-0.512-1.536-0.512
      l-5.632-2.56c-4.608-2.048-8.704-4.608-13.312-6.656c-5.632-2.56-11.776-2.048-16.384,2.048c-2.56,2.048-5.12,4.608-7.68,7.168
      c-4.608,4.608-5.12,10.24-1.024,15.36c1.024,1.536,2.048,2.56,3.072,3.584l9.728,12.288c11.264,14.848,23.04,29.696,34.816,44.032
      c1.536,2.048,3.072,3.584,5.12,4.608c2.048,1.024,6.144,3.584,11.264,2.048c6.144-2.048,10.752-6.144,12.8-12.288
      c2.048-5.12,2.56-10.752,0.512-16.896l-1.024-4.608c-1.024-4.096-2.048-8.192-3.072-12.288
      c13.824-10.752,27.648-20.992,40.96-31.744l6.656-5.12l1.536,2.56c3.584,5.632,6.656,11.264,8.704,17.408l23.552,60.416
      c1.536,3.584,2.56,7.168,4.096,10.24c2.56,5.632,6.656,8.704,11.776,8.704c2.048,0,4.096-0.512,6.144-1.536
      c1.536-0.512,3.072-1.024,4.096-2.048c8.192-4.096,13.312-9.728,15.36-17.408c1.536-6.144,1.024-11.776,0.512-15.872l-12.288-89.6
      c-1.024-7.168-2.048-14.848-3.072-22.016c-0.512-3.584,0.512-5.632,3.072-7.68l10.752-9.216
      c8.704-7.168,16.896-14.336,25.6-21.504c7.168-6.144,11.776-11.776,15.872-17.92c3.072-4.608,6.144-10.24,7.68-16.384
      C373.629,46.576,371.069,39.408,365.437,35.312z M361.341,51.184c-1.536,5.12-4.096,9.728-6.656,13.824
      c-3.072,5.12-7.68,10.24-13.824,15.36c-8.192,7.168-16.896,14.336-25.6,21.504l-10.24,8.704
      c-5.632,4.096-8.192,10.24-7.168,17.408c1.024,7.168,2.048,14.336,3.072,22.016l12.288,89.6c0.512,5.12,0.512,8.704-0.512,11.776
      c-1.536,4.608-4.608,8.192-9.728,10.752c-1.024,0.512-2.048,1.024-3.584,1.536c-3.072,1.024-4.096,0.512-5.12-2.048
      c-1.536-3.072-2.56-6.656-4.096-10.24l-22.528-60.416c-2.56-6.656-6.144-12.8-9.728-18.944l-3.072-5.12l-4.608-6.656
      l-15.872,11.776c-14.336,10.752-28.672,22.016-42.496,32.768c-3.584,2.56-3.072,5.632-2.56,7.68
      c1.024,4.608,2.56,9.216,3.584,13.824l1.024,4.608c1.024,4.096,1.024,7.68-0.512,10.752c-1.536,3.072-3.584,5.12-7.168,6.144
      c0,0-1.024,0-2.56-1.024c-1.024-0.512-2.048-1.536-2.56-2.56c-11.776-14.848-23.04-29.184-34.304-44.032l-9.728-12.288
      c-1.024-1.024-1.536-2.048-2.56-3.584c-0.512-0.512-0.512-1.024-0.512-1.024s0.512-0.512,1.024-1.024
      c2.048-2.048,4.608-4.608,6.656-6.144c1.536-1.536,3.584-1.536,5.632-0.512c4.608,2.048,8.704,4.096,13.312,6.656l5.632,2.56
      c1.024,0.512,2.048,1.024,3.072,1.536c2.56,1.536,5.632,1.024,8.192-1.024c4.096-4.096,8.192-7.68,12.288-11.776l35.328-33.28
      l4.096-4.096l-2.56-3.584c-0.512-1.024-1.024-1.536-1.536-2.56c-1.536-2.048-2.56-4.096-4.096-5.632
      c-5.632-6.656-12.288-11.776-19.456-16.384c-17.408-11.776-35.328-24.064-52.736-36.352c-1.536-1.024-3.072-2.048-4.608-3.584
      c-1.536-1.536-1.536-2.048-0.512-3.072c2.56-4.608,6.656-8.704,11.264-12.288c1.024-1.024,2.56-1.536,6.144-0.512
      c3.584,1.024,6.656,2.048,9.216,3.072l95.744,35.84c2.56,1.024,5.12,1.536,7.168,2.048c5.632,1.024,11.264-0.512,15.872-4.608
      c2.56-2.56,5.12-4.608,7.68-7.168c4.096-3.584,8.192-7.168,12.288-10.752c8.704-7.168,15.872-13.312,22.528-18.432
      c6.144-4.608,13.312-7.68,20.992-8.704c2.56-0.512,4.608,0,6.656,1.024C361.341,45.04,362.365,48.112,361.341,51.184z"/>
    <path d="M136.061,228.848c-1.536-2.048-5.12-2.56-7.168-1.024L1.917,324.592c-2.048,1.536-2.56,5.12-1.024,7.168
      c1.024,1.536,2.56,2.048,4.096,2.048c1.024,0,2.048-0.512,3.072-1.024l126.976-96.768
      C137.597,234.48,137.597,231.408,136.061,228.848z"/>
    <path d="M152.957,252.912c-2.048-2.048-5.12-2.56-7.68-1.024L67.965,311.28c-2.048,1.536-2.56,5.12-1.024,7.168
      c1.024,1.536,2.56,2.048,4.096,2.048c1.024,0,2.048-0.512,3.072-1.024l77.824-59.392
      C153.981,258.544,154.493,254.96,152.957,252.912z"/>
    <path d="M61.821,322.032c-1.536-2.048-5.12-2.56-7.168-1.024l-12.8,9.728c-2.048,1.536-2.56,5.12-1.024,7.168
      c1.024,1.536,2.56,2.048,4.096,2.048c1.024,0,2.048-0.512,3.072-1.024l12.8-9.728C62.845,327.664,63.357,324.08,61.821,322.032z"/>
    <path d="M44.925,264.688c-1.536-2.048-5.12-2.56-7.168-1.024l-12.8,9.728c-2.048,1.536-2.56,5.12-1.024,7.168
      c1.024,1.536,2.56,2.048,4.096,2.048c1.024,0,2.048-0.512,3.072-1.024l12.8-9.728C45.949,270.32,46.461,266.736,44.925,264.688z"/>
    <path d="M119.165,208.88c-1.536-2.048-5.12-2.56-7.168-1.024l-60.928,46.08c-2.048,1.536-2.56,5.12-1.024,7.168
      c1.024,1.024,2.56,2.048,4.096,2.048c1.024,0,2.048-0.512,3.072-1.024l60.928-46.08
      C120.189,214.512,120.701,210.928,119.165,208.88z"/>
  </symbol>
  <symbol id="express" viewBox="0 0 512 512">
    <rect y="376.163" width="512" height="15.673"/>
    <rect y="186.943" width="16.696" height="15.673"/>
    <path d="M472.619,277.884L408.1,213.365c-17.037-17.037-39.688-26.419-63.782-26.419h-85.024H33.391v15.674h226.317
      c3.93,37.475,35.707,66.783,74.206,66.783h108.058l19.566,19.566c5.956,5.955,9.236,13.869,9.236,22.285
      c0,8.415-3.281,16.329-9.237,22.284c-5.955,5.956-13.869,9.236-22.284,9.236H111.304v15.673H439.25
      c12.602,0,24.452-4.91,33.369-13.826c8.917-8.916,13.826-20.766,13.826-33.368C486.445,298.651,481.535,286.8,472.619,277.884z
       M333.913,253.728c-29.846,0-54.583-22.297-58.428-51.109h68.833c19.907,0,38.623,7.752,52.699,21.829l29.28,29.28H333.913z"/>
    <path d="M170.25,220.338v49.065h71.326v-49.065H170.25z M225.902,253.728h-39.979v-17.717h39.979V253.728z"/>
    <path d="M81.207,220.338v49.065h71.326v-49.065H81.207z M136.86,253.728H96.881v-17.717h39.979V253.728z"/>
    <polygon points="0,220.338 0,236.011 47.816,236.011 47.816,253.728 0,253.728 0,269.402 63.489,269.402 63.489,220.338 		"/>
    <rect x="33.391" y="342.768" width="55.651" height="15.674"/>
    <rect y="342.768" width="16.696" height="15.674"/>
    <rect x="66.783" y="309.384" width="100.174" height="15.673"/>
    <rect x="33.391" y="309.384" width="16.696" height="15.673"/>
    <rect x="189.221" y="153.558" width="100.174" height="15.673"/>
    <rect x="155.826" y="153.558" width="16.695" height="15.673"/>
    <rect x="133.569" y="120.163" width="66.783" height="15.673"/>
    <rect x="100.174" y="120.163" width="16.696" height="15.673"/>
    <rect x="355.725" y="287.117" width="15.674" height="15.673"/>
    <rect x="324.378" y="287.117" width="15.673" height="15.673"/>
    <rect x="418.419" y="287.117" width="15.673" height="15.673"/>
    <rect x="387.072" y="287.117" width="15.673" height="15.673"/>
  </symbol>
  <symbol id="flight" viewBox="0 0 512 512">
    <g fill="#959595">
      <path d="M488,0H24C10.768,0,0,10.768,0,24v264v48c0,13.232,10.768,24,24,24h175.24l-6.544,72H136c-4.416,0-8,3.576-8,8
        s3.584,8,8,8h64h112h64c4.416,0,8-3.576,8-8s-3.584-8-8-8h-56.696l-6.544-72H488c13.232,0,24-10.768,24-24v-48V24
        C512,10.768,501.232,0,488,0z M208.76,432l6.544-72h81.392l6.544,72H208.76z M496,336c0,4.416-3.592,8-8,8H304h-96H24
        c-4.408,0-8-3.584-8-8v-40h480V336z M496,280H16V24c0-4.416,3.592-8,8-8h464c4.408,0,8,3.584,8,8V280z"/>
      <path d="M251.576,136.84l-59.816-29.904C192,104.632,192,104.312,192,104c0-31.4-17.568-56-40-56s-40,24.6-40,56
        c0,0.312,0,0.632,0.24,2.936L52.424,136.84C49.712,138.2,48,140.968,48,144v16c0,4.424,3.584,8,8,8h65.752l5.048,20.184
        l-34.92,20.952C89.472,210.584,88,213.184,88,216v8c0,4.424,3.584,8,8,8h31.728c3.408,10.632,11.776,24,24.296,24
        c12.48,0,20.84-13.376,24.24-24H208c4.416,0,8-3.576,8-8v-8c0-2.816-1.472-5.416-3.88-6.856l-34.92-20.952L182.248,168H248
        c4.416,0,8-3.576,8-8v-16C256,140.968,254.288,138.2,251.576,136.84z M240,152h-64c-3.672,0-6.872,2.496-7.76,6.064l-8,32
        c-0.848,3.416,0.624,6.984,3.648,8.8L192.448,216H169.92c-4.048,0-7.48,3.192-7.96,7.216c-0.936,7.72-7.248,16.784-9.984,16.784
        c-2.68,0-9-9.064-9.976-17.136c-0.56-3.936-3.936-6.864-7.92-6.864h-22.528l28.568-17.144c3.016-1.816,4.496-5.384,3.648-8.8
        l-8-32c-0.896-3.56-4.096-6.056-7.768-6.056H64v-3.056L113.888,124l0.952,5.712c0.712,4.28,4.696,7.224,9.008,6.608
        c4.304-0.608,7.328-4.536,6.824-8.848C128.368,107.68,128.024,104.2,128,104c0-21.68,10.992-40,24-40s24,18.32,24.008,39.632
        c-0.04,0.568-0.376,4.048-2.688,23.832c-0.504,4.312,2.52,8.24,6.824,8.848c4.328,0.648,8.296-2.328,9.008-6.608l0.952-5.712
        L240,148.944V152z"/>
      <path d="M364,40c-33.088,0-60,26.912-60,60s26.912,60,60,60s60-26.912,60-60S397.088,40,364,40z M364,144
        c-24.264,0-44-19.744-44-44s19.736-44,44-44c24.264,0,44,19.744,44,44S388.264,144,364,144z"/>
      <path d="M368,96V80h-16v24c0,4.424,3.584,8,8,8h24V96H368z"/>
      <rect x="272" y="176" width="88" height="16"/>
      <rect x="384" y="176" width="72" height="16"/>
      <rect x="272" y="240" width="96" height="16"/>
      <rect x="392" y="240" width="64" height="16"/>
      <rect x="272" y="208" width="40" height="16"/>
      <rect x="336" y="208" width="120" height="16"/>
      <rect x="232" y="312" width="48" height="16"/>
      <path d="M344,464H24c-13.232,0-24,10.768-24,24v16c0,4.424,3.584,8,8,8h352c4.416,0,8-3.576,8-8v-16
        C368,474.768,357.232,464,344,464z M352,496H16v-8c0-4.416,3.592-8,8-8h320c4.408,0,8,3.584,8,8V496z"/>
      <path d="M488,464h-64c-13.232,0-24,10.768-24,24v16c0,4.424,3.584,8,8,8h96c4.416,0,8-3.576,8-8v-16
        C512,474.768,501.232,464,488,464z M496,496h-80v-8c0-4.416,3.592-8,8-8h64c4.408,0,8,3.584,8,8V496z"/>
      <rect x="432" y="384" width="16" height="16"/>
      <rect x="464" y="384" width="16" height="16"/>
      <rect x="400" y="384" width="16" height="16"/>
      <rect x="368" y="384" width="16" height="16"/>
      <rect x="96" y="384" width="16" height="16"/>
      <rect x="128" y="384" width="16" height="16"/>
      <rect x="64" y="384" width="16" height="16"/>
      <rect x="32" y="384" width="16" height="16"/>
      <rect x="248" y="384" width="16" height="16"/>
    </g>
  </symbol>
  <symbol id="hotel" viewBox="0 0 512 512">
    <g fill="#E8EAEA">
      <rect y="166.4" width="113.067" height="345.6"/>
      <rect x="398.933" y="166.4" width="113.067" height="345.6"/>
    </g>
    <path fill="#FF7058" d="M0,172.8L0,172.8h512l0,0c0-12.8-10.667-23.467-23.467-23.467H23.467C10.667,149.333,0,160,0,172.8z"/>
    <rect x="113.067" y="108.8" fill="#F2F2F2" width="285.867" height="403.2"/>
    <path fill="#FF7058" d="M414.933,85.333H97.067c-6.4,0-11.733,5.333-11.733,11.733S90.667,108.8,97.067,108.8h317.867
      c6.4,0,11.733-5.333,11.733-11.733S421.333,85.333,414.933,85.333z"/>
    <g fill="#54C0EB">
      <rect x="32" y="198.4" width="49.067" height="54.4"/>
      <rect x="32" y="274.133" width="49.067" height="54.4"/>
      <rect x="32" y="349.867" width="49.067" height="54.4"/>
      <rect x="32" y="425.6" width="49.067" height="54.4"/>
      <rect x="430.933" y="198.4" width="49.067" height="54.4"/>
      <rect x="430.933" y="274.133" width="49.067" height="54.4"/>
      <rect x="430.933" y="349.867" width="49.067" height="54.4"/>
      <rect x="430.933" y="425.6" width="49.067" height="54.4"/>
    </g>
    <rect x="145.067" y="293.333" fill="#84DBFF" width="53.333" height="54.4"/>
    <rect x="198.4" y="378.667" fill="#40596B" width="114.133" height="133.333"/>
    <rect y="489.6" fill="#ACB3BA" width="512" height="22.4"/>
    <g fill="#84DBFF">
      <rect x="145.067" y="141.867" width="53.333" height="54.4"/>
      <rect x="145.067" y="217.6" width="53.333" height="54.4"/>
      <rect x="229.333" y="141.867" width="53.333" height="54.4"/>
      <rect x="229.333" y="217.6" width="53.333" height="54.4"/>
      <rect x="229.333" y="293.333" width="53.333" height="54.4"/>
      <rect x="313.6" y="141.867" width="53.333" height="54.4"/>
      <rect x="313.6" y="217.6" width="53.333" height="54.4"/>
      <rect x="313.6" y="293.333" width="53.333" height="54.4"/>
    </g>
    <g fill="#40596B">
      <path d="M147.2,1.067h13.867V64H147.2V39.467h-25.6V64h-13.867V1.067H121.6v26.667h25.6L147.2,1.067
        L147.2,1.067z"/>
      <path d="M229.333,55.467c-6.4,6.4-13.867,9.6-23.467,9.6s-17.067-3.2-23.467-9.6
        c-6.4-6.4-9.6-13.867-9.6-23.467s3.2-17.067,9.6-23.467C188.8,3.2,196.267,0,205.867,0c9.6,0,17.067,3.2,23.467,9.6
        c6.4,6.4,9.6,13.867,9.6,23.467C238.933,41.6,235.733,50.133,229.333,55.467z M225.067,33.067c0-5.333-2.133-10.667-5.333-14.933
        c-3.2-4.267-8.533-6.4-13.867-6.4s-9.6,2.133-13.867,6.4c-3.2,4.267-5.333,8.533-5.333,14.933S188.8,43.733,192,46.933
        c4.267,4.267,8.533,6.4,13.867,6.4c5.333,0,9.6-2.133,13.867-6.4S225.067,38.4,225.067,33.067z"/>
      <path d="M276.267,13.867v51.2H262.4v-51.2h-18.133v-12.8H294.4V12.8h-18.133V13.867z"/>
      <path d="M349.867,1.067v12.8h-32v12.8h28.8V38.4h-28.8v12.8h32V64h-46.933V1.067H349.867z"/>
      <path d="M363.733,65.067v-64H377.6V51.2h26.667V64h-40.533V65.067z"/>
    </g>
  </symbol>
  <symbol id="invoice" viewBox="0 0 512 512">
    <polygon fill="#EDEBED" points="400.29,7.5 373.57,23.532 344.178,7.5 314.785,23.532 285.393,7.5 256,23.532 226.607,7.5
      197.215,23.532 167.823,7.5 138.43,23.532 111.71,7.5 111.71,504.5 138.43,488.468 167.823,504.5 197.215,488.468 226.607,504.5
      256,488.468 285.393,504.5 314.785,488.468 344.178,504.5 373.57,488.468 400.29,504.5 "/>
    <path fill="#DBD9DC" d="M135.758,312.113V21.93L111.71,7.5v497l26.72-16.032l29.393,16.032l29.393-16.032l29.392,16.032
      L256,488.468l29.393,16.032l29.392-16.032l29.393,16.032l29.393-16.032l26.72,16.032v-32.065h-104.21
      C207.537,472.436,135.758,400.657,135.758,312.113z"/>
    <path d="M348.186,80.161h-20.041c-4.142,0-7.5,3.357-7.5,7.5s3.358,7.5,7.5,7.5h20.041c4.142,0,7.5-3.357,7.5-7.5
      S352.328,80.161,348.186,80.161z"/>
    <path d="M348.186,120.242h-20.041c-4.142,0-7.5,3.357-7.5,7.5s3.358,7.5,7.5,7.5h20.041c4.142,0,7.5-3.357,7.5-7.5
      S352.328,120.242,348.186,120.242z"/>
    <path d="M348.186,160.322h-20.041c-4.142,0-7.5,3.357-7.5,7.5s3.358,7.5,7.5,7.5h20.041c4.142,0,7.5-3.357,7.5-7.5
      S352.328,160.322,348.186,160.322z"/>
    <path d="M348.186,200.404h-20.041c-4.142,0-7.5,3.357-7.5,7.5s3.358,7.5,7.5,7.5h20.041c4.142,0,7.5-3.357,7.5-7.5
      S352.328,200.404,348.186,200.404z"/>
    <path d="M348.186,240.484h-20.041c-4.142,0-7.5,3.357-7.5,7.5s3.358,7.5,7.5,7.5h20.041c4.142,0,7.5-3.357,7.5-7.5
      S352.328,240.484,348.186,240.484z"/>
    <path d="M348.186,280.565h-20.041c-4.142,0-7.5,3.357-7.5,7.5s3.358,7.5,7.5,7.5h20.041c4.142,0,7.5-3.357,7.5-7.5
      S352.328,280.565,348.186,280.565z"/>
    <path d="M348.186,320.646h-20.041c-4.142,0-7.5,3.357-7.5,7.5s3.358,7.5,7.5,7.5h20.041c4.142,0,7.5-3.357,7.5-7.5
      S352.328,320.646,348.186,320.646z"/>
    <path d="M159.807,95.161h88.177c4.142,0,7.5-3.357,7.5-7.5s-3.358-7.5-7.5-7.5h-88.177c-4.142,0-7.5,3.357-7.5,7.5
      S155.665,95.161,159.807,95.161z"/>
    <path d="M159.807,135.242H276.17c4.142,0,7.5-3.357,7.5-7.5s-3.358-7.5-7.5-7.5H159.807c-4.142,0-7.5,3.357-7.5,7.5
      C152.307,131.885,155.665,135.242,159.807,135.242z"/>
    <path d="M159.807,175.322h64.129c4.142,0,7.5-3.357,7.5-7.5s-3.358-7.5-7.5-7.5h-64.129c-4.142,0-7.5,3.357-7.5,7.5
      S155.665,175.322,159.807,175.322z"/>
    <path d="M159.807,215.404h88.177c4.142,0,7.5-3.357,7.5-7.5s-3.358-7.5-7.5-7.5h-88.177c-4.142,0-7.5,3.357-7.5,7.5
      S155.665,215.404,159.807,215.404z"/>
    <path d="M159.807,255.484h120.242c4.142,0,7.5-3.357,7.5-7.5s-3.358-7.5-7.5-7.5H159.807c-4.142,0-7.5,3.357-7.5,7.5
      S155.665,255.484,159.807,255.484z"/>
    <path d="M159.807,295.565h64.129c4.142,0,7.5-3.357,7.5-7.5s-3.358-7.5-7.5-7.5h-64.129c-4.142,0-7.5,3.357-7.5,7.5
      S155.665,295.565,159.807,295.565z"/>
    <path d="M255.484,328.146c0-4.143-3.358-7.5-7.5-7.5h-88.177c-4.142,0-7.5,3.357-7.5,7.5s3.358,7.5,7.5,7.5h88.177
      C252.126,335.646,255.484,332.288,255.484,328.146z"/>
    <path d="M312.113,376.758H199.887c-4.142,0-7.5,3.357-7.5,7.5s3.358,7.5,7.5,7.5h112.226c4.142,0,7.5-3.357,7.5-7.5
      S316.255,376.758,312.113,376.758z"/>
    <path d="M288.065,416.839h-64.129c-4.142,0-7.5,3.357-7.5,7.5s3.358,7.5,7.5,7.5h64.129c4.142,0,7.5-3.357,7.5-7.5
      S292.207,416.839,288.065,416.839z"/>
    <path d="M403.986,0.974c-2.352-1.331-5.237-1.295-7.554,0.095l-23.039,13.824L347.769,0.916c-2.238-1.221-4.944-1.221-7.183,0
      l-25.801,14.073L288.984,0.916c-2.238-1.221-4.944-1.221-7.183,0L256,14.989L230.199,0.916c-2.238-1.221-4.944-1.221-7.183,0
      l-25.801,14.073L171.414,0.916c-2.238-1.221-4.944-1.221-7.183,0l-25.624,13.977L115.568,1.069
      c-2.317-1.391-5.203-1.426-7.554-0.095s-3.805,3.824-3.805,6.526v497c0,2.702,1.454,5.195,3.805,6.526
      c2.352,1.331,5.237,1.295,7.554-0.095l23.039-13.824l25.624,13.977c2.238,1.221,4.944,1.221,7.183,0l25.801-14.073l25.801,14.073
      c2.237,1.22,4.943,1.22,7.183,0L256,497.011l25.801,14.073c2.238,1.221,4.944,1.221,7.183,0l25.801-14.073l25.801,14.073
      c2.238,1.221,4.944,1.221,7.183,0l25.624-13.977l23.039,13.824c1.187,0.712,2.522,1.068,3.859,1.068
      c1.273,0,2.548-0.324,3.695-0.974c2.351-1.331,3.805-3.824,3.805-6.526V7.5C407.791,4.798,406.337,2.305,403.986,0.974z
       M392.791,491.254l-15.362-9.218c-2.281-1.367-5.116-1.426-7.45-0.152l-25.801,14.073l-25.801-14.073
      c-2.239-1.221-4.945-1.221-7.183,0l-25.801,14.073l-25.801-14.073c-1.119-0.61-2.355-0.916-3.591-0.916
      c-1.236,0-2.472,0.306-3.591,0.916l-25.801,14.073l-25.801-14.073c-2.238-1.222-4.944-1.222-7.183,0l-25.801,14.073l-25.801-14.073
      c-2.334-1.274-5.169-1.216-7.45,0.152l-15.362,9.218V20.746l15.362,9.218c2.281,1.367,5.116,1.426,7.45,0.152l25.801-14.073
      l25.801,14.073c2.239,1.222,4.945,1.22,7.183,0l25.801-14.073l25.801,14.073c2.238,1.221,4.944,1.221,7.183,0l25.801-14.073
      l25.801,14.073c2.237,1.22,4.943,1.221,7.183,0l25.801-14.073l25.801,14.073c2.333,1.272,5.168,1.215,7.45-0.152l15.362-9.218
      v470.508H392.791z"/>
  </symbol>
  <symbol id="manager" viewBox="0 0 512 512">
    <path d="M120,232c48.8,0,88-39.2,88-88s-39.2-88-88-88s-88,39.2-88,88S71.2,232,120,232z M120,72c40,0,72,32,72,72s-32,72-72,72
      s-72-32-72-72S80,72,120,72z"/>
    <circle cx="120" cy="280" r="8"/>
    <circle cx="120" cy="8" r="8"/>
    <circle cx="16" cy="144" r="8"/>
    <circle cx="16" cy="216" r="8"/>
    <circle cx="224" cy="144" r="8"/>
    <circle cx="120" cy="192" r="8"/>
    <path d="M96,132.8c4.8,0,8-3.2,8-8c0-11.2,8.8-20,20-20s20,8.8,20,20c0,4-1.6,8.8-4.8,12c-4.8,4-12,7.2-19.2,7.2
      c-4.8,0-8,3.2-8,8v16c0,4.8,3.2,8,8,8s8-3.2,8-8v-8c8.8-1.6,16.8-5.6,22.4-11.2c6.4-6.4,9.6-15.2,9.6-24c0-20-16-36-36-36
      s-36,16-36,36C88,129.6,91.2,132.8,96,132.8z"/>
    <circle cx="224" cy="216" r="8"/>
    <circle cx="224" cy="72" r="8"/>
    <circle cx="16" cy="72" r="8"/>
    <path d="M472,296h-16V176c0-0.442-0.036-0.866-0.089-1.279c0.053-1.168,0.089-2.34,0.089-3.521V76.8C456,34.4,421.6,0,379.2,0
      h-46.4C290.4,0,256,34.4,256,76.8V168v3.2V280c0,4.8,3.2,8,8,8s8-3.2,8-8v-61.917c4.555,5.898,9.947,11.111,16,15.469V264
      c0,4.8,3.2,8,8,8s8-3.2,8-8v-21.609c8.897,3.605,18.613,5.609,28.8,5.609h46.4c10.187,0,19.903-2.003,28.8-5.609V264
      c0,4.8,3.2,8,8,8s8-3.2,8-8v-30.448c6.053-4.358,11.445-9.571,16-15.469V296h-24c-13.6,0-24-10.4-24-24v-8c0-4.8-3.2-8-8-8
      s-8,3.2-8,8v8c0,14.56,7.44,27.086,18.797,34.074L351.2,356l-43.053-49.303C320.095,299.848,328,287.006,328,272v-8
      c0-4.8-3.2-8-8-8s-8,3.2-8,8v8c0,13.6-10.4,24-24,24h-56c-24.8,0-40,12-40,32c0,4.8,3.2,8,8,8s8-3.2,8-8c0-4,0-16,24-16h56
      c1.202,0,2.387-0.061,3.56-0.16l54.04,61.76c1.6,1.6,4,2.4,6.4,2.4c2.4,0,4.8-0.8,4.8-2.4l54.174-61.913
      c1.645,0.199,3.32,0.313,5.026,0.313h56c13.6,0,24,10.4,24,24v168c0,4.8,3.2,8,8,8s8-3.2,8-8V336C512,313.6,494.4,296,472,296z
       M379.2,232h-46.4c-33.6,0-60.8-27.2-60.8-60.8V168V76.8c0-33.6,27.2-60.8,60.8-60.8h46.4c33.6,0,60.8,27.2,60.8,60.8v94.4
      C440,204.8,412.8,232,379.2,232z"/>
    <path d="M144,399.2c-17.6,0-32,14.4-32,32c0,17.6,14.4,32,32,32c17.6,0,32-14.4,32-32C176,413.6,161.6,399.2,144,399.2z
       M144,447.2c-8.8,0-16-7.2-16-16s7.2-16,16-16s16,7.2,16,16C160,440,152.8,447.2,144,447.2z"/>
    <circle cx="311.2" cy="116.8" r="11.2"/>
    <circle cx="400.8" cy="116.8" r="11.2"/>
    <path d="M383.2,181.6l-6.4,6.4c-4,4-9.6,6.4-15.2,6.4h-20c-5.6,0-11.2-2.4-15.2-6.4l-6.4-6.4c-3.2-3.2-8-3.2-11.2,0
      c-3.2,3.2-3.2,8,0,11.2l6.4,6.4c7.2,7.2,16.8,11.2,27.2,11.2h20c10.4,0,19.2-4,25.6-11.2l6.4-6.4c3.2-3.2,3.2-8,0-11.2
      C391.2,178.4,386.4,178.4,383.2,181.6z"/>
    <path d="M456,360c-4.8,0-8,3.2-8,8v88H328c-2.4,0-4,0.8-5.6,2.4l-16,16c-3.2,3.2-3.2,8,0,11.2c1.6,1.6,3.2,2.4,5.6,2.4
      c2.4,0,4-0.8,5.6-2.4l13.6-13.6H456c4.8,0,8-3.2,8-8v-96C464,363.2,460.8,360,456,360z"/>
    <path d="M400,496H288v-53.761c6.155,3.79,12.554,5.761,19.2,5.761c20.8,0,34.4-18.4,34.4-19.2c2.4-3.2,1.6-8.8-1.6-11.2
      c-3.2-2.4-8.8-1.6-11.2,1.6c0,0.8-9.6,12.8-21.6,12.8c-6.4,0-12.8-3.17-19.2-10.053V360c0-4.8-3.2-8-8-8H8c-4.8,0-8,3.2-8,8v144
      c0,4.8,3.2,8,8,8h272h120c4.8,0,8-3.2,8-8S404.8,496,400,496z M16,368h256v53.856c-0.552,1.647-0.591,3.503,0,5.177V496H16V368z"
      />
    <path d="M424,72c-56.8-0.8-80-35.2-80.8-36.8c-2.4-2.4-4.8-3.2-8-3.2c-3.2,0.8-5.6,2.4-6.4,5.6C319.2,63.2,289.6,64,288,64
      c-4.8,0-8,3.2-8,8s3.2,8,8,8c1.6,0,33.6,0,49.6-25.6C350.4,67.2,378.4,87.2,424,88c4,0,8-3.2,8-8C432,76,428.8,72,424,72z"/>
    <path d="M429.6,428.8c2.4-3.2,1.6-8.8-1.6-11.2c-3.2-2.4-8.8-1.6-11.2,1.6c0,0.8-9.6,12.8-21.6,12.8c-7.2,0-14.4-4-21.6-12.8
      c-2.4-3.2-8-3.2-11.2-0.8c-3.2,2.4-4,8-0.8,11.2c10.4,12,21.6,18.4,33.6,18.4C416,448,429.6,429.6,429.6,428.8z"/>
    <path d="M388.8,47.2l16,8c0.8,0.8,2.4,0.8,3.2,0.8c3.2,0,5.6-1.6,7.2-4c2.4-4,0.8-8.8-3.2-10.4l-16-8c-4-2.4-8.8-0.8-10.4,3.2
      C383.2,40.8,384.8,45.6,388.8,47.2z"/>
  </symbol>

  <symbol id="taxi" viewBox="0 0 512 512">
    <path d="M415.902,275.935c-22.05,0-39.991,17.941-39.991,39.991c0,22.049,17.941,39.99,39.991,39.99
      c22.049,0,39.99-17.942,39.99-39.99C455.892,293.877,437.951,275.935,415.902,275.935z M415.902,347.918
      c-17.644,0-31.993-14.348-31.993-31.992c0-17.644,14.348-31.993,31.993-31.993c17.643,0,31.992,14.349,31.992,31.993
      C447.894,333.569,433.546,347.918,415.902,347.918z"/>
    <path d="M416.144,311.926h-0.086c-2.203,0-3.953,1.789-3.953,4c0,2.21,1.828,3.998,4.039,3.998c2.202,0,3.998-1.788,3.998-3.998
      C420.142,313.715,418.346,311.926,416.144,311.926z"/>
    <path d="M415.902,291.931c-2.211,0-4,1.789-4,3.999v7.998c0,2.211,1.789,3.999,4,3.999c2.21,0,3.998-1.788,3.998-3.999v-7.998
      C419.9,293.72,418.112,291.931,415.902,291.931z"/>
    <path d="M415.902,291.931c-2.211,0-4,1.789-4,3.999v7.998c0,2.211,1.789,3.999,4,3.999c2.21,0,3.998-1.788,3.998-3.999v-7.998
      C419.9,293.72,418.112,291.931,415.902,291.931z"/>
    <path d="M415.902,323.924c-2.211,0-4,1.788-4,3.998v7.998c0,2.211,1.789,4,4,4c2.21,0,3.998-1.789,3.998-4v-7.998
      C419.9,325.712,418.112,323.924,415.902,323.924z"/>
    <path d="M410.246,304.616l-5.655-5.654c-1.562-1.562-4.092-1.562-5.654,0c-1.562,1.561-1.562,4.092,0,5.654l5.654,5.655
      c0.781,0.78,1.805,1.171,2.828,1.171c1.023,0,2.046-0.391,2.827-1.171C411.808,308.708,411.808,306.178,410.246,304.616z"/>
    <path d="M432.866,327.236l-5.654-5.655c-1.562-1.562-4.093-1.562-5.655,0s-1.562,4.093,0,5.655l5.655,5.654
      c0.78,0.781,1.804,1.172,2.827,1.172c1.023,0,2.046-0.391,2.827-1.172C434.428,331.328,434.428,328.798,432.866,327.236z"/>
    <path d="M403.904,311.926h-7.998c-2.21,0-3.999,1.789-3.999,4c0,2.21,1.789,3.998,3.999,3.998h7.998c2.211,0,4-1.788,4-3.998
      C407.904,313.715,406.115,311.926,403.904,311.926z"/>
    <path d="M435.896,311.926h-7.998c-2.21,0-3.998,1.789-3.998,4c0,2.21,1.788,3.998,3.998,3.998h7.998c2.211,0,4-1.788,4-3.998
      C439.896,313.715,438.107,311.926,435.896,311.926z"/>
    <path d="M410.246,321.581c-1.562-1.562-4.093-1.562-5.655,0l-5.654,5.655c-1.562,1.561-1.562,4.092,0,5.654
      c0.78,0.781,1.804,1.172,2.827,1.172c1.024,0,2.046-0.391,2.827-1.172l5.655-5.654
      C411.808,325.674,411.808,323.143,410.246,321.581z"/>
    <path d="M432.865,298.962c-1.561-1.562-4.092-1.562-5.654,0l-5.655,5.654c-1.562,1.562-1.562,4.093,0,5.655
      c0.781,0.78,1.805,1.171,2.828,1.171s2.046-0.391,2.827-1.171l5.654-5.655C434.427,303.054,434.427,300.524,432.865,298.962z"/>
    <path d="M103.975,275.935c-22.05,0-39.99,17.941-39.99,39.991c0,22.049,17.94,39.99,39.99,39.99s39.99-17.942,39.99-39.99
      C143.965,293.877,126.025,275.935,103.975,275.935z M103.975,347.918c-17.644,0-31.992-14.348-31.992-31.992
      c0-17.644,14.347-31.993,31.992-31.993s31.992,14.349,31.992,31.993C135.967,333.569,121.619,347.918,103.975,347.918z"/>
    <path d="M104.217,311.926h-0.086c-2.202,0-3.952,1.789-3.952,4c0,2.21,1.828,3.998,4.038,3.998c2.203,0,3.999-1.788,3.999-3.998
      C108.216,313.715,106.42,311.926,104.217,311.926z"/>
    <path d="M103.975,291.931c-2.21,0-3.999,1.789-3.999,3.999v7.998c0,2.211,1.789,3.999,3.999,3.999
      c2.211,0,3.999-1.788,3.999-3.999v-7.998C107.974,293.72,106.185,291.931,103.975,291.931z"/>
    <path d="M103.975,323.924c-2.21,0-3.999,1.788-3.999,3.998v7.998c0,2.211,1.789,4,3.999,4c2.211,0,3.999-1.789,3.999-4v-7.998
      C107.974,325.712,106.185,323.924,103.975,323.924z"/>
    <path d="M98.32,304.616l-5.654-5.654c-1.562-1.562-4.093-1.562-5.655,0c-1.562,1.561-1.562,4.092,0,5.654l5.655,5.655
      c0.781,0.78,1.804,1.171,2.827,1.171s2.046-0.391,2.827-1.171C99.882,308.708,99.882,306.178,98.32,304.616z"/>
    <path d="M120.939,327.236l-5.655-5.655c-1.561-1.562-4.092-1.562-5.654,0c-1.562,1.562-1.562,4.093,0,5.655l5.654,5.654
      c0.782,0.781,1.805,1.172,2.828,1.172c1.023,0,2.047-0.391,2.827-1.172C122.501,331.328,122.501,328.798,120.939,327.236z"/>
    <path d="M91.978,311.926H83.98c-2.21,0-3.999,1.789-3.999,4c0,2.21,1.789,3.998,3.999,3.998h7.998c2.21,0,3.999-1.788,3.999-3.998
      C95.977,313.715,94.188,311.926,91.978,311.926z"/>
    <path d="M123.97,311.926h-7.998c-2.21,0-3.999,1.789-3.999,4c0,2.21,1.789,3.998,3.999,3.998h7.998
      c2.211,0,3.999-1.788,3.999-3.998C127.969,313.715,126.18,311.926,123.97,311.926z"/>
    <path d="M98.319,321.581c-1.561-1.562-4.092-1.562-5.654,0l-5.655,5.655c-1.562,1.561-1.562,4.092,0,5.654
      c0.782,0.781,1.805,1.172,2.828,1.172s2.046-0.391,2.827-1.172l5.654-5.654C99.881,325.674,99.881,323.143,98.319,321.581z"/>
    <path d="M120.94,298.962c-1.562-1.562-4.093-1.562-5.655,0l-5.654,5.654c-1.562,1.562-1.562,4.093,0,5.655
      c0.781,0.78,1.804,1.171,2.827,1.171s2.046-0.391,2.827-1.171l5.655-5.655C122.502,303.054,122.502,300.524,120.94,298.962z"/>
    <path d="M485.151,252.145c-23.69-7.897-95.915-22.417-103.858-24.002c-5.507-3.007-50.871-27.572-88.097-39.983
      c-22.619-7.529-136.687-24.767-242.505,35.922l-31.196,3.897c-1.632,0.203-2.976,1.398-3.382,2.999l-7.889,31.562l-7.802,15.606
      C0.148,278.7,0,279.317,0,279.934c0,12.77,0.992,42.959,10.209,47.566c8.42,4.211,42.942,4.422,49.777,4.422
      c2.21,0,3.999-1.789,3.999-4c0-2.21-1.789-3.998-3.999-3.998c-15.098,0-40.99-0.969-46.153-3.555
      c-3.054-2.108-5.741-20.433-5.835-39.498l7.577-15.145c0.133-0.258,0.234-0.539,0.304-0.82l7.334-29.329l29.274-3.663
      c0.523-0.063,1.039-0.235,1.5-0.508c103.445-59.682,214.7-42.998,236.679-35.656c38.795,12.927,86.824,39.428,87.308,39.694
      c0.358,0.203,0.749,0.344,1.155,0.422c0.789,0.156,79.411,15.84,103.491,23.869c16.199,5.397,20.933,40.412,21.245,61.915
      c-6.139,1.414-26.534,2.273-43.974,2.273c-2.211,0-3.999,1.788-3.999,3.998c0,2.211,1.788,4,3.999,4
      c51.987,0,51.987-4.07,51.988-7.997C511.879,309.177,509.95,260.416,485.151,252.145z"/>
    <path d="M371.911,323.924H147.964c-2.21,0-3.999,1.788-3.999,3.998c0,2.211,1.789,4,3.999,4h223.948c2.211,0,3.999-1.789,3.998-4
      C375.91,325.711,374.122,323.924,371.911,323.924z"/>
    <path d="M239.834,223.026l-7.998-33.758c-0.508-2.156-2.64-3.507-4.812-2.968c-2.148,0.508-3.476,2.664-2.968,4.812l7.998,33.757
      c0.438,1.844,2.078,3.078,3.89,3.078c0.305,0,0.609-0.031,0.922-0.109C239.014,227.33,240.342,225.174,239.834,223.026z"/>
    <path d="M363.914,227.947H99.976c-2.21,0-3.999,1.788-3.999,3.999c0,2.21,1.789,3.999,3.999,3.999h263.938
      c2.211,0,3.999-1.789,3.999-3.999C367.913,229.734,366.125,227.947,363.914,227.947z"/>
    <path d="M135.185,197.578c-1.304-1.773-3.812-2.156-5.592-0.844c-1.007,0.742-24.783,18.348-33.109,33.258
      c-1.078,1.929-0.382,4.366,1.539,5.444c0.617,0.344,1.289,0.508,1.953,0.508c1.399,0,2.757-0.742,3.49-2.046
      c7.482-13.395,30.642-30.555,30.876-30.727C136.114,201.867,136.497,199.359,135.185,197.578z"/>
    <path d="M499.006,267.937h-23.119c-2.21,0-3.999,1.788-3.999,3.999s1.789,3.999,3.999,3.999h23.119
      c2.211,0,3.999-1.788,3.999-3.999S501.217,267.937,499.006,267.937z"/>
    <path d="M478.714,269.108l-15.996-15.996c-1.562-1.562-4.092-1.562-5.654,0c-1.562,1.561-1.562,4.092,0,5.654l15.996,15.997
      c0.781,0.78,1.804,1.171,2.827,1.171c1.024,0,2.046-0.391,2.827-1.171C480.276,273.201,480.276,270.67,478.714,269.108z"/>
    <path d="M51.995,244.044l-35.992-0.102h-0.008c-2.202,0-3.991,1.781-3.999,3.991c-0.008,2.202,1.781,3.999,3.991,4.007
      l35.992,0.102h0.008c2.203,0,3.992-1.782,3.999-3.991C55.994,245.849,54.205,244.052,51.995,244.044z"/>
    <path d="M54.823,245.224c-1.547-1.562-4.077-1.578-5.655-0.016l-15.996,15.895c-1.562,1.553-1.578,4.085-0.016,5.654
      c0.781,0.789,1.804,1.18,2.835,1.18c1.015,0,2.039-0.391,2.82-1.163l15.996-15.895C56.369,249.325,56.385,246.794,54.823,245.224z"/>
    <path d="M35.992,259.939H11.997c-2.21,0-3.999,1.788-3.999,3.999s1.789,3.999,3.999,3.999h23.994c2.211,0,4-1.788,4-3.999
      S38.202,259.939,35.992,259.939z"/>
    <path d="M507.45,307.927h-7.568c-2.21,0-3.999,1.789-3.999,3.999c0,2.211,1.789,4,3.999,4h7.568c2.211,0,3.999-1.789,3.999-4
      C511.449,309.716,509.661,307.927,507.45,307.927z"/>
    <path d="M179.957,259.939h-15.996c-2.21,0-3.999,1.788-3.999,3.999v15.996c0,2.211,1.789,3.999,3.999,3.999h15.996
      c2.211,0,4-1.788,4-3.999v-15.996C183.957,261.727,182.167,259.939,179.957,259.939z M175.958,275.935h-7.998v-7.998h7.998
      V275.935z"/>
    <path d="M195.954,275.935h-15.997c-2.21,0-3.999,1.789-3.999,3.999v15.996c0,2.211,1.789,3.999,3.999,3.999h15.997
      c2.21,0,3.999-1.788,3.999-3.999v-15.996C199.953,277.724,198.164,275.935,195.954,275.935z M191.955,291.93h-7.998v-7.998h7.998
      V291.93z"/>
    <path d="M211.95,259.939h-15.996c-2.211,0-3.999,1.788-3.999,3.999v15.996c0,2.211,1.788,3.999,3.999,3.999h15.996
      c2.21,0,3.999-1.788,3.999-3.999v-15.996C215.949,261.727,214.16,259.939,211.95,259.939z M207.951,275.935h-7.998v-7.998h7.998
      V275.935z"/>
    <path d="M227.946,275.935H211.95c-2.21,0-3.999,1.789-3.999,3.999v15.996c0,2.211,1.789,3.999,3.999,3.999h15.996
      c2.21,0,3.999-1.788,3.999-3.999v-15.996C231.945,277.724,230.156,275.935,227.946,275.935z M223.947,291.93h-7.998v-7.998h7.998
      V291.93z"/>
    <path d="M243.942,259.939h-15.996c-2.21,0-3.999,1.788-3.999,3.999v15.996c0,2.211,1.789,3.999,3.999,3.999h15.996
      c2.21,0,3.999-1.788,3.999-3.999v-15.996C247.941,261.727,246.152,259.939,243.942,259.939z M239.943,275.935h-7.998v-7.998h7.998
      V275.935z"/>
    <path d="M259.938,275.935h-15.996c-2.21,0-3.999,1.789-3.999,3.999v15.996c0,2.211,1.789,3.999,3.999,3.999h15.996
      c2.211,0,3.999-1.788,3.999-3.999v-15.996C263.937,277.724,262.149,275.935,259.938,275.935z M255.939,291.93h-7.998v-7.998h7.998
      V291.93z"/>
    <path d="M275.934,259.939h-15.996c-2.21,0-3.999,1.788-3.999,3.999v15.996c0,2.211,1.789,3.999,3.999,3.999h15.996
      c2.211,0,3.999-1.788,3.999-3.999v-15.996C279.933,261.727,278.145,259.939,275.934,259.939z M271.935,275.935h-7.998v-7.998
      h7.998V275.935z"/>
    <path d="M291.931,275.935h-15.997c-2.21,0-3.999,1.789-3.999,3.999v15.996c0,2.211,1.789,3.999,3.999,3.999h15.997
      c2.21,0,3.998-1.788,3.998-3.999v-15.996C295.929,277.724,294.141,275.935,291.931,275.935z M287.931,291.93h-7.998v-7.998h7.998
      V291.93z"/>
    <path d="M307.927,259.939h-15.996c-2.211,0-4,1.788-4,3.999v15.996c0,2.211,1.789,3.999,4,3.999h15.996
      c2.21,0,3.999-1.788,3.999-3.999v-15.996C311.926,261.727,310.137,259.939,307.927,259.939z M303.927,275.935h-7.998v-7.998h7.998
      V275.935z"/>
    <path d="M323.923,275.935h-15.996c-2.211,0-4,1.789-4,3.999v15.996c0,2.211,1.789,3.999,4,3.999h15.996
      c2.21,0,3.999-1.788,3.999-3.999v-15.996C327.922,277.724,326.133,275.935,323.923,275.935z M319.924,291.93h-7.998v-7.998h7.998
      V291.93z"/>
    <path d="M339.919,259.939h-15.996c-2.211,0-3.999,1.788-3.999,3.999v15.996c0,2.211,1.788,3.999,3.999,3.999h15.996
      c2.21,0,3.999-1.788,3.999-3.999v-15.996C343.918,261.727,342.129,259.939,339.919,259.939z M335.92,275.935h-7.998v-7.998h7.998
      V275.935z"/>
    <path d="M239.826,174.991l-3.999-15.996c-0.539-2.148-2.757-3.43-4.851-2.914c-2.147,0.539-3.444,2.711-2.913,4.851l3.999,15.996
      c0.453,1.82,2.086,3.03,3.882,3.03c0.32,0,0.648-0.039,0.969-0.116C239.06,179.302,240.357,177.13,239.826,174.991z"/>
    <path d="M216.918,156.08c-2.172-0.507-4.32,0.766-4.851,2.914l-3.999,15.996c-0.531,2.141,0.765,4.312,2.913,4.851
      c0.328,0.078,0.649,0.117,0.969,0.117c1.796,0,3.428-1.21,3.882-3.031l3.999-15.996
      C220.362,158.789,219.065,156.619,216.918,156.08z"/>
    <path d="M231.945,155.963h-15.996c-2.21,0-3.999,1.789-3.999,3.999c0,2.211,1.789,3.999,3.999,3.999h15.996
      c2.21,0,3.999-1.788,3.999-3.999C235.944,157.752,234.155,155.963,231.945,155.963z"/>
  </symbol>
  <symbol id="train" viewBox="0 0 512 512">
    <path d="M503.467,452.281h-102.4H307.2h-93.867h-93.867H8.533c-4.719,0-8.533,3.823-8.533,8.533s3.814,8.533,8.533,8.533h494.933
      c4.719,0,8.533-3.823,8.533-8.533S508.186,452.281,503.467,452.281z"/>
    <path d="M477.867,366.948h-21.035l-5.692-8.533h1.126c14.592,0,25.6-18.338,25.6-42.667s-11.008-42.667-25.6-42.667H409.6v-17.067
      c0-11.213-7.287-20.659-17.348-24.115c0.521-1.604,1.067-3.2,1.306-4.958c1.246-9.233-1.724-18.176-7.893-24.678
      c2.577-8.755,2.364-19.806-3.721-28.57c-2.953-4.25-9.242-10.487-21.257-11.767c1.382-13.739-3.959-27.042-15.155-36.531
      c-13.747-11.639-32.469-14.959-49.323-9.455c-1.579-3.814-3.891-6.929-6.938-9.301c-3.678-2.867-8.124-4.514-13.449-4.966
      c2.031-13.252-0.845-26.3-8.422-37.086c-10.103-14.37-26.692-22.485-45.534-21.905c-20.233,0-40.388,10.957-50.159,27.264
      c-7.014,11.733-8.047,25.105-3.098,38.289c-20.369,16.998-22.502,39.799-14.959,55.936c7.689,16.469,26.991,29.705,53.88,25.139
      c3.507,6.997,10.146,13.431,18.662,17.69c11.776,5.888,25.105,6.844,37.658,2.97c1.28,7.996,5.299,13.756,9.199,17.621
      c15.172,15.044,43.776,16.853,65.843,12.177c5.632,4.42,13.107,7.33,20.864,8.422c-0.811,2.475-1.357,5.077-1.357,7.825v17.067
      h-44.544c-4.582-10.035-17.126-17.067-32.256-17.067c-15.13,0-27.674,7.031-32.256,17.067h-61.611v-17.067
      c0-4.71-3.814-8.533-8.533-8.533H59.733c-4.719,0-8.533,3.823-8.533,8.533v25.6c0,3.917,2.662,7.33,6.468,8.277l27.665,6.921
      v70.135H42.667c-4.719,0-8.533,3.823-8.533,8.533v34.133c0,4.71,3.814,8.533,8.533,8.533h42.667
      c0,18.825,15.309,34.133,34.133,34.133s34.133-15.309,34.133-34.133h25.6c0,18.825,15.309,34.133,34.133,34.133
      c18.825,0,34.133-15.309,34.133-34.133h25.6c0,18.825,15.309,34.133,34.133,34.133s34.133-15.309,34.133-34.133h25.6
      c0,18.825,15.309,34.133,34.133,34.133c18.825,0,34.133-15.309,34.133-34.133h42.667c4.719,0,8.533-3.823,8.533-8.533v-34.133
      C486.4,370.771,482.586,366.948,477.867,366.948z M347.674,224.714c-1.613-1.818-3.942-2.833-6.34-2.833
      c-0.725,0-1.459,0.094-2.185,0.282c-21.299,5.632-44.553,2.748-54.084-6.699c-4.343-4.309-5.564-9.89-3.738-17.067
      c0.879-3.405-0.435-6.997-3.294-9.045c-2.85-2.057-6.673-2.133-9.626-0.222c-15.633,10.163-29.389,5.197-34.594,2.603
      c-7.544-3.772-11.733-9.438-11.972-13.082c-0.179-2.577-1.51-4.941-3.627-6.426c-2.125-1.476-4.796-1.911-7.279-1.203
      c-22.912,6.673-36.847-3.422-41.83-14.071c-4.753-10.172-3.721-26.462,14.831-38.912c3.652-2.449,4.838-7.253,2.773-11.119
      c-5.41-10.086-5.53-19.576-0.367-28.203c6.579-10.991,21.513-18.97,35.721-18.97c13.039-0.358,24.602,5.026,31.36,14.652
      c6.605,9.395,7.748,21.589,3.14,33.459c-1.118,2.893-0.58,6.17,1.408,8.55c1.971,2.381,5.137,3.49,8.158,2.91
      c6.05-1.152,10.505-0.879,12.621,0.759c2.057,1.604,2.679,5.453,2.85,8.397c0.162,2.978,1.869,5.658,4.497,7.057
      s5.811,1.331,8.363-0.188c14.729-8.713,31.07-4.523,40.013,3.063c4.241,3.584,13.44,13.611,7.407,29.184
      c-1.092,2.825-0.606,6.016,1.271,8.38c1.877,2.372,4.898,3.55,7.868,3.149c5.769-0.819,13.397-0.725,16.879,4.292
      c3.277,4.719,2.577,12.663,0.043,17.323c-2.125,3.917-0.887,8.806,2.859,11.23c5.103,3.302,6.349,8.721,5.82,12.689
      c-0.418,3.098-1.929,5.564-3.61,6.101C363.708,233.521,352.205,229.792,347.674,224.714z M187.733,290.148H256
      c4.719,0,8.533-3.823,8.533-8.533c0-3.482,6.647-8.533,17.067-8.533c10.419,0,17.067,5.052,17.067,8.533
      c0,4.71,3.814,8.533,8.533,8.533h59.733c4.719,0,8.533-3.823,8.533-8.533v-25.6c0-4.702,3.823-8.533,8.533-8.533
      s8.533,3.831,8.533,8.533v25.6c0,4.71,3.814,8.533,8.533,8.533h51.2c2.125,0,8.533,9.079,8.533,25.6
      c0,16.521-6.409,25.6-8.533,25.6H435.2c-3.149,0-6.042,1.732-7.526,4.506c-1.485,2.773-1.314,6.144,0.427,8.755l8.226,12.331
      H187.733V290.148z M119.467,435.215c-9.412,0-17.067-7.654-17.067-17.067h34.133C136.533,427.569,128.879,435.215,119.467,435.215
      z M213.333,435.215c-9.412,0-17.067-7.654-17.067-17.067H230.4C230.4,427.569,222.746,435.215,213.333,435.215z M307.2,435.215
      c-9.412,0-17.067-7.654-17.067-17.067h34.133C324.267,427.569,316.612,435.215,307.2,435.215z M401.067,435.215
      c-9.412,0-17.067-7.654-17.067-17.067h34.133C418.133,427.569,410.479,435.215,401.067,435.215z M469.333,401.09H51.2v-0.009
      v-17.067h42.667c4.719,0,8.533-3.823,8.533-8.533v-85.333c0-3.917-2.671-7.33-6.468-8.277l-27.665-6.912v-10.402h102.4V375.49
      c0,4.71,3.814,8.533,8.533,8.533h290.133V401.09z"/>
  </symbol>

  <symbol id="travel-arrow-right" viewBox="0 0 30 30" fill="none">
    <path d="M20.565 16.065C20.7016 15.9223 20.8086 15.7541 20.88 15.57C21.03 15.2048 21.03 14.7952 20.88 14.43C20.8086 14.2459 20.7016 14.0777 20.565 13.935L16.065 9.435C15.9251 9.29514 15.7591 9.1842 15.5764 9.10851C15.3936 9.03282 15.1978 8.99386 15 8.99386C14.6005 8.99386 14.2175 9.15254 13.935 9.435C13.7951 9.57486 13.6842 9.74089 13.6085 9.92363C13.5328 10.1064 13.4939 10.3022 13.4939 10.5C13.4939 10.8995 13.6525 11.2825 13.935 11.565L15.885 13.5H10.5C10.1022 13.5 9.72064 13.658 9.43934 13.9393C9.15804 14.2206 9 14.6022 9 15C9 15.3978 9.15804 15.7794 9.43934 16.0607C9.72064 16.342 10.1022 16.5 10.5 16.5H15.885L13.935 18.435C13.7944 18.5744 13.6828 18.7403 13.6067 18.9231C13.5305 19.1059 13.4913 19.302 13.4913 19.5C13.4913 19.698 13.5305 19.8941 13.6067 20.0769C13.6828 20.2597 13.7944 20.4256 13.935 20.565C14.0744 20.7056 14.2403 20.8172 14.4231 20.8933C14.6059 20.9695 14.802 21.0087 15 21.0087C15.198 21.0087 15.3941 20.9695 15.5769 20.8933C15.7597 20.8172 15.9256 20.7056 16.065 20.565L20.565 16.065ZM30 15C30 6.7155 23.2845 0 15 0C6.7155 0 0 6.7155 0 15C0 23.2845 6.7155 30 15 30C23.2845 30 30 23.2845 30 15ZM3 15C3 11.8174 4.26428 8.76515 6.51472 6.51472C8.76515 4.26428 11.8174 3 15 3C18.1826 3 21.2348 4.26428 23.4853 6.51472C25.7357 8.76515 27 11.8174 27 15C27 18.1826 25.7357 21.2348 23.4853 23.4853C21.2348 25.7357 18.1826 27 15 27C11.8174 27 8.76515 25.7357 6.51472 23.4853C4.26428 21.2348 3 18.1826 3 15Z" fill="#AAB2B7" fill-opacity="0.8"/>
  </symbol>
  
</svg>
