<?xml version="1.0" encoding="utf-8"?>
<!-- Generator: Adobe Illustrator 22.1.0, SVG Export Plug-In . SVG Version: 6.00 Build 0)  -->
<svg version="1.1" id="Layer_1" xmlns="http://www.w3.org/2000/svg" xmlns:xlink="http://www.w3.org/1999/xlink" x="0px" y="0px"
	 viewBox="0 0 1070.8 241.4" style="enable-background:new 0 0 1070.8 241.4;" xml:space="preserve">
<style type="text/css">
	.st0{clip-path:url(#SVGID_2_);fill:url(#SVGID_3_);}
	.st1{clip-path:url(#SVGID_5_);fill:url(#SVGID_6_);}
	.st2{clip-path:url(#SVGID_8_);fill:url(#SVGID_9_);}
</style>
<g>
	<g>
		<path d="M267.3,30l-10.9-19.5v-1h9.1l6,12.1h0.3l5.3-12.1h8.8v0.9l-11.4,23.3c-3.2,7.2-6.9,9.9-15.7,6.7l1.1-5.8
			c3,1.1,4.8,1.1,6.4-2.2L267.3,30z"/>
	</g>
	<g>
		<path d="M294.6,34.1c2.4,0,2.9-1.1,3.3-4l2.4-20.6c6.8,0,15,0,21.8,0v24.6h3.2v10.7h-6.7v-3.7h-18.9v3.7h-6.3V34.1H294.6z
			 M306,30.3c-0.1,1.3-0.5,3.1-1.4,3.9h9.3V16.6h-6.4L306,30.3z"/>
	</g>
	<g>
		<path d="M353.7,41.7c-8.4,0-16.2-5.4-16.2-16.4c0-10.9,8.1-16.4,16.3-16.4c8.1,0,16.1,5.5,16.1,16.4
			C370,34.9,363.3,41.7,353.7,41.7z M353.8,33.9c3.9,0,7.9-2.9,7.9-8.6s-3.9-8.6-7.9-8.6c-4.1,0-8,2.8-8,8.6
			C345.8,30.9,349.7,33.9,353.8,33.9z"/>
		<path d="M398.6,9.2c6.5,0,13.6,3.5,14.8,12h-7.9c-1.1-3.3-3.5-4.5-6.9-4.5c-4.8,0-7.9,3.4-7.9,8.7c0,4.6,3.1,8.6,7.9,8.6
			c3.4,0,6.1-1.6,7-5h7.9c-1.2,9-8.2,12.5-14.9,12.5c-8.1,0-16.2-5.4-16.2-16.1C382.5,14.4,390.5,9.2,398.6,9.2z"/>
	</g>
	<g>
		<path d="M424.9,16.7V9.5h23.5v7.2h-7.7v24.4h-8V16.7H424.9z"/>
	</g>
	<g>
		<path d="M475.5,41.7c-8.4,0-16.2-5.4-16.2-16.4c0-10.9,8.1-16.4,16.3-16.4c8.1,0,16.1,5.5,16.1,16.4
			C491.8,34.9,485.1,41.7,475.5,41.7z M475.6,33.9c3.9,0,7.9-2.9,7.9-8.6s-3.9-8.6-7.9-8.6c-4.1,0-8,2.8-8,8.6
			C467.6,30.9,471.5,33.9,475.6,33.9z"/>
	</g>
	<g>
		<path d="M527.2,24.5c2.6,1.3,3.9,3.9,3.9,6.8c0,5.4-3.5,9.6-10,9.6h-15.2V9.3h13.9c5.9,0,10,3.8,10,9.7
			C529.9,21,528.8,23.2,527.2,24.5z M514.2,16.5v5.3h5.1c1.6,0,2.4-1.2,2.4-2.5c0-1.4-0.8-2.8-2.4-2.8H514.2z M514.2,28.5v5.2h6.4
			c1.6,0,2.3-1.2,2.4-2.4c0.1-1.4-0.9-2.8-2.5-2.8H514.2z"/>
	</g>
	<g>
		<path d="M565,16.7h-11.5v4.5h10.6v7.2h-10.6v5.1h11.9v7.5h-20.1V9.5H565V16.7z"/>
		<path d="M580.2,41V9.4c4.7,0,9.3,0,13.9,0c7.6,0,11.5,5.9,11.3,11.9c0,5.8-3.8,11.6-11.3,11.6h-5.7V41H580.2z M594.1,25.7
			c2.2,0,3.4-2.3,3.4-4.6c0-2.3-1.2-4.5-3.4-4.5h-5.8v9.1H594.1z"/>
		<path d="M622.9,29.8c-3.1-2.1-4.6-5.6-4.7-9.2c0-5.6,3.7-11.1,11.4-11.1h13.9v31.6h-8.3v-9.9h-4.3l-5.4,9.9h-8.8v-1.2L622.9,29.8z
			 M635.3,24.4v-7.8h-5.7c-2.3,0-3.4,1.8-3.4,3.8s1.1,4,3.4,4H635.3z"/>
	</g>
	<g>
		<path d="M687.5,41.8c-7.3-0.1-14.5-4.6-15.8-13.4h-4.2v12.7h-8.3V9.5h8.3v11.4h4.3c1.9-8.1,8.8-12.1,15.8-12
			c8,0.1,16.1,5.6,16.1,16.4C703.7,36.3,695.6,41.8,687.5,41.8z M687.6,33.9c4,0,7.9-2.9,7.9-8.7c0-5.7-4-8.5-8-8.5
			c-4.1,0-7.9,2.8-7.9,8.5C679.6,31.1,683.6,33.9,687.6,33.9z"/>
	</g>
	<g>
		<path d="M717.8,9.5h8.3v24.1h7.6V9.5h8.2v24.1h7.6V9.5h8.2v24.6h3.3v10.6h-6.6v-3.6h-36.6V9.5z"/>
		<path d="M778.1,41.2h-2.4V9.5h8.3v15.4l16.5-15.6h2.6v31.7h-8.3V24.8L778.1,41.2z"/>
		<path d="M821.2,41.2h-2.4V9.5h8.3v15.4l16.5-15.6h2.6v31.7h-8.3V24.8L821.2,41.2z M826.2,0.5c0.1,4.8,2.8,7.4,7.5,7.4
			c4.8,0,7.4-2.5,7.6-7.4c-1.5-0.2-2.9-0.4-4.5-0.5c-0.3,1.8-1.4,2.4-3.2,2.4c-1.8,0-2.8-0.8-2.9-2.4L826.2,0.5z"/>
	</g>
	<g>
		<path d="M881.6,41.1V9.5h8.3v24.1h9.1V9.5h8.3v24.6h3.2v10.6h-6.6v-3.6H881.6z"/>
		<path d="M944.8,16.7h-11.5v4.5h10.6v7.2h-10.6v5.1h11.9v7.5H925V9.5h19.7V16.7z"/>
		<path d="M977.9,41.1V28.4h-9.8v12.6h-8.3V9.5h8.3v11.4h9.8V9.5h8.3v31.6H977.9z"/>
		<path d="M999.5,16.7V9.5h23.5v7.2h-7.7v24.4h-8V16.7H999.5z"/>
	</g>
	<g>
		<path d="M1036.2,41V9.4c4.7,0,9.3,0,13.9,0c7.6,0,11.5,5.9,11.3,11.9c0,5.8-3.8,11.6-11.3,11.6h-5.7V41H1036.2z M1050.2,25.7
			c2.2,0,3.4-2.3,3.4-4.6c0-2.3-1.2-4.5-3.4-4.5h-5.8v9.1H1050.2z"/>
	</g>
	<g>
		<path d="M259,112.1V78.9H367v33.2h-35.5v112.2h-36.8V112.1H259z"/>
	</g>
	<g>
		<path d="M405,206.2l-8.3,18.1H357v-5.2l66.7-141.7h17.5l66.1,141.7v5.2H468l-8.5-18.1H405z M417.3,174.4h30.1l-15.2-35.1
			L417.3,174.4z"/>
		<path d="M603.7,224.3v-58.2h-45.1v58.2h-38V78.9h38v52.6h45.1V78.9h38v145.5H603.7z"/>
		<path d="M668.7,192.1c11.2-0.2,13.5-5,15.2-18.5l11-94.8c31.2,0,69,0,100.4,0v113.2h14.5v49.2h-30.8v-17h-86.9v17h-28.9v-49.2
			H668.7z M721.3,174.9c-0.4,5.8-2.1,14.3-6.6,18.1h42.8v-81.5H728L721.3,174.9z"/>
		<path d="M926.2,111.9h-52.8v20.8H922v33.2h-48.6v23.7h54.6v34.7h-92.7V78.9h90.8V111.9z"/>
		<path d="M954.5,224.1V78.7c21.6,0,42.6-0.2,64.2,0c34.9,0,52.8,27.2,52.2,54.6c0,26.6-17.7,53.2-52.2,53.2h-26.2v37.6H954.5z
			 M1018.7,153.5c10,0,15.8-10.6,15.8-21.2c0-10.4-5.4-20.6-15.8-20.6h-26.8v41.8H1018.7z"/>
	</g>
</g>
<path d="M0.1,9h71.3v71.3H0.1V9z M61.2,19.4H10.4v50.8h50.7V19.4z"/>
<path d="M143.9,9h71.3v71.3h-71.3V9z M205.1,19.4h-50.8v50.7h50.8V19.4z"/>
<path d="M71.5,224.2H0.1V153h71.4V224.2z M10.3,214H61v-50.8H10.3V214z"/>
<polygon points="133.3,142.3 133.3,172.9 143.6,172.9 143.6,163.2 153.6,163.2 153.6,183.4 144,183.4 144,203.6 153.8,203.6 
	153.8,193.8 164.1,193.8 164.1,173.6 184.7,173.6 184.7,183.6 184.9,183.4 174.4,183.4 174.4,204.1 174.6,204 164.4,204 
	164.4,224.3 154.1,224.3 154.1,214.7 143.8,214.7 143.8,224.3 123.3,224.3 123.3,214.5 112.9,214.5 112.9,204 112.8,204.1 
	133,204.1 133,193.5 123.2,193.5 123.2,142.3 123,142.5 133.5,142.5 "/>
<polygon points="61.5,132 51.3,132 51.3,142.1 41.1,142.1 41.1,132.4 30.8,132.4 30.8,142 0.1,142 0.1,111.8 9.8,111.8 9.8,131.8 
	20.2,131.8 20.2,111.9 30.5,111.9 30.5,121.5 40.5,121.5 40.5,101.4 20.6,101.4 20.6,91.4 71.6,91.4 71.6,101.3 71.8,101.2 
	51.5,101.2 51.5,111.6 71.8,111.6 71.6,111.5 71.6,121.6 61.4,121.6 61.4,132.2 "/>
<path d="M133.5,142.5V122h20.4v-10.4H164v-10.2c-6.7,0-13.4,0-20.2,0c0,0,0.2,0.1,0.2,0.1V91.4h50.7v19.8H185v-9.6h-10.5v20.2
	l0.1-0.1h-10.2v20.3h-10.3v-9.6h-10.3v9.8h-10.6C133.3,142.3,133.5,142.5,133.5,142.5"/>
<path d="M102.6,101.2H92.4v-10h-10V29.6h19.9v9.7h-9.7v10.3h9.7v10.5h10.6l-0.1-0.2v20.7l0.1-0.1c-3.5,0.1-6.9,0.1-10.4,0.2v-10
	h-9.9v9.9h10c-0.1,6.9-0.1,13.8-0.2,20.7L102.6,101.2z"/>
<path d="M92.2,163c0.1-3.5,0.1-6.9,0.2-10.4l-0.2,0.1h10.4v-10.4l-0.1,0.2h10.4l-0.1-0.2v61.8l0.2-0.1c-3.5,0-7,0-10.4,0l0.1,0.2
	v-10H92.2v10l0.1-0.2h-10v-41.1h10v20.3h9.9V163H92.2z"/>
<path d="M112.9,60.2V29.7h20.2v9.8h-9.6v10.3h9.9v51.7c3.9,0,7.2,0,10.6,0c0,0-0.2-0.1-0.2-0.1c0,3.2,0,6.4,0,10.1h-20.8l0.1,0.2
	V90.8h-10.3V80.6l-0.1,0.1h10V60.1h-10L112.9,60.2z"/>
<polygon points="174.4,121.9 184.7,121.9 184.7,131.9 194.8,131.9 194.8,142.2 205.3,142.2 205.3,152.5 215.3,152.5 215.3,162.6 
	184.9,162.6 184.9,142.6 174.6,142.6 174.6,121.7 "/>
<polygon points="184.7,204 184.7,214.2 205.1,214.2 205.1,224.2 174.6,224.2 174.6,204 174.4,204.1 184.9,204.1 "/>
<polygon points="102.5,204 102.5,224.3 82.3,224.3 82.3,214.6 92.4,214.6 92.4,204 92.2,204.1 102.6,204.1 "/>
<rect x="205.7" y="101.4" width="9.6" height="20.1"/>
<rect x="113.1" y="9.1" width="20" height="9.7"/>
<path d="M92.2,121.9h10.3v20.6l0.1-0.2H92.2l0.2,0.1c0-6.9,0-13.8,0-20.7L92.2,121.9z"/>
<path d="M184.7,183.6c3.5,0,6.9,0,10.4,0l-0.1-0.1V204h-10.3l0.2,0.1v-20.7L184.7,183.6z"/>
<polygon points="195.1,183.6 195.1,173.6 215.3,173.6 215.3,183.4 195,183.4 "/>
<rect x="92.6" y="9" width="9.6" height="9.7"/>
<rect x="164.5" y="152.9" width="9.6" height="9.7"/>
<rect y="91.2" width="9.7" height="9.7"/>
<path d="M82.2,111.2c-3.5,0.1-7.1,0.1-10.6,0.2l0.2,0.1v-10.4l-0.2,0.1h10.5c0,3.5,0,6.8,0,10.1C82.1,111.4,82.2,111.2,82.2,111.2"
	/>
<polygon points="92.4,152.6 82.4,152.6 82.4,142.4 92.4,142.4 92.2,142.3 92.2,152.7 "/>
<polygon points="112.9,142.5 112.9,132.4 123.1,132.4 123.1,142.5 123.2,142.3 112.8,142.3 "/>
<polygon points="61.4,132.2 71.4,132.2 71.4,142 61.5,142 61.5,132 "/>
<polygon points="112.9,111.5 102.6,111.5 102.6,101.2 102.5,101.3 112.8,101.3 112.8,111.6 "/>
<polygon points="123,111.5 123,121.5 112.9,121.5 112.9,111.5 112.8,111.6 123.2,111.6 "/>
<path d="M92.4,121.8H82.2c0-3.6,0-7,0-10.5c0,0-0.1,0.2-0.1,0.2c3.2,0,6.4,0,10.1,0v10.5L92.4,121.8z"/>
<g>
	<defs>
		<path id="SVGID_1_" d="M20.6,29.7H51v30.2H20.6V29.7z M10.4,70.2h50.7V19.4H10.4V70.2z"/>
	</defs>
	<clipPath id="SVGID_2_">
		<use xlink:href="#SVGID_1_"  style="overflow:visible;"/>
	</clipPath>
	
		<linearGradient id="SVGID_3_" gradientUnits="userSpaceOnUse" x1="-420.688" y1="730.9023" x2="-419.688" y2="730.9023" gradientTransform="matrix(-50.7735 -50.7735 -50.7735 50.7735 15811.8447 -58400.1211)">
		<stop  offset="0" style="stop-color:#6ED5CB"/>
		<stop  offset="1" style="stop-color:#0FBBF7"/>
	</linearGradient>
	<polygon class="st0" points="35.8,95.5 -15,44.8 35.8,-6 86.6,44.8 	"/>
</g>
<g>
	<defs>
		<path id="SVGID_4_" d="M164.5,29.7h30.3v30.2h-30.3V29.7z M154.4,70.1h50.8V19.4h-50.8V70.1z"/>
	</defs>
	<clipPath id="SVGID_5_">
		<use xlink:href="#SVGID_4_"  style="overflow:visible;"/>
	</clipPath>
	
		<linearGradient id="SVGID_6_" gradientUnits="userSpaceOnUse" x1="-420.688" y1="730.9023" x2="-419.688" y2="730.9023" gradientTransform="matrix(50.7505 -50.7505 -50.7505 -50.7505 58598.1641 15813.6719)">
		<stop  offset="0" style="stop-color:#6ED5CB"/>
		<stop  offset="1" style="stop-color:#0FBBF7"/>
	</linearGradient>
	<polygon class="st1" points="129,44.8 179.8,-6 230.5,44.8 179.8,95.5 	"/>
</g>
<g>
	<defs>
		<path id="SVGID_7_" d="M20.6,173.4h30.3v30.3H20.6V173.4z M10.3,214H61v-50.8H10.3V214z"/>
	</defs>
	<clipPath id="SVGID_8_">
		<use xlink:href="#SVGID_7_"  style="overflow:visible;"/>
	</clipPath>
	
		<linearGradient id="SVGID_9_" gradientUnits="userSpaceOnUse" x1="-420.688" y1="730.9023" x2="-419.688" y2="730.9023" gradientTransform="matrix(-50.762 50.762 50.762 50.762 -58395.9922 -15583.9004)">
		<stop  offset="0" style="stop-color:#6ED5CB"/>
		<stop  offset="1" style="stop-color:#0FBBF7"/>
	</linearGradient>
	<polygon class="st2" points="86.4,188.6 35.7,239.3 -15.1,188.6 35.7,137.8 	"/>
</g>
<rect x="20.6" y="29.7" width="30.4" height="30.2"/>
<rect x="164.5" y="29.7" width="30.3" height="30.2"/>
<rect x="20.6" y="173.4" width="30.3" height="30.3"/>
</svg>
