<svg xmlns="http://www.w3.org/2000/svg" style="display: none;">
    <symbol id="signature" viewBox="0 0 96 94">
        <title>signature</title>
        <path  fill="#55bad0" d="M95.7,28.9c-0.6-0.9-1.9-1.2-2.8-0.6l-4.3,2.9L64.8,7.4l2.9-4.3c0.6-0.9,
            0.4-2.2-0.6-2.8 c-0.9-0.6-2.2-0.4-2.8,0.6l-8.9,13.4l2.9,2.9c-8.5,6.5-18.2,9.6-28.9,9.6c-3,0-6.2-0.2-9.4-0.7L0,
            94l68-20 c-2.2-14.5,0.5-27.4,8.8-38.3l4.9,4.9l13.4-8.9C96,31.1,96.3,29.8,95.7,28.9z M63.6,71.1L7.9,
            87.5l30.2-30.2c0.5,0.5,1,0.9,1.5,1.3 c0.6,0.5,1.1,0.8,1.5,
            1l1.3-1.8c-0.4-0.3-0.9-0.6-1.4-1c-0.5-0.4-1.1-0.9-1.6-1.4c-0.9-0.9-1.5-1.8-2-2.7c-0.5-0.9-0.7-1.8-0.7-2.8 c0-0.9,
            0.2-1.9,0.6-2.8c0.4-0.9,1.1-1.8,1.9-2.7c0.9-0.9,1.8-1.5,2.7-1.9c0.9-0.4,1.9-0.6,2.8-0.6c0.9,0,1.9,0.2,
            2.8,0.6 c0.9,0.4,1.7,1,2.5,1.7c0.8,0.8,1.4,1.6,1.8,2.5c0.4,0.9,0.6,1.7,0.7,2.5c0,0.8-0.1,1.6-0.4,2.4c-0.3,
            0.8-0.8,1.5-1.5,2.2 c-0.7,0.7-1.2,1.2-1.8,1.5c-0.5,0.4-0.9,0.6-1.3,0.7c-0.4,0.1-0.7,0.2-0.9,
            0.1c-0.3-0.1-0.5-0.2-0.7-0.4c-0.2-0.2-0.3-0.4-0.3-0.6 c0-0.2,0.1-0.4,
            0.3-0.7l5-5c-0.2-0.4-0.5-1-0.9-1.6c-0.4-0.6-0.9-1.2-1.5-1.9c-0.6-0.6-1.3-1.1-2-1.4c-0.7-0.3-1.4-0.4-2.1-0.4 c-0.7,
            0-1.4,0.1-2,0.4c-0.6,0.3-1.2,0.7-1.8,1.3c-0.6,0.6-1.1,1.3-1.4,2c-0.3,0.7-0.5,1.3-0.5,2c0,0.6,0.1,1.3,0.4,1.9 c0.3,
            0.6,0.7,1.2,1.2,1.7c0.7,0.7,1.5,1.2,2.3,1.3c0,0.4,0.1,0.8,0.4,1.2c0.2,0.4,0.5,0.7,0.8,1.1c0.6,0.6,1.2,0.9,1.8,
            1.2 c0.7,0.2,1.3,0.3,2.1,0.2c0.7-0.1,1.5-0.4,2.2-0.8c0.8-0.4,1.5-1,2.3-1.8c1-1,1.7-2.1,2.1-3.2c0.4-1.1,0.6-2.3,
            0.5-3.4 c-0.1-1.1-0.4-2.3-1-3.4c-0.6-1.1-1.4-2.2-2.4-3.2c-0.9-0.9-1.9-1.6-3.1-2.2c-1.2-0.6-2.4-0.9-3.6-0.9c-1.3-0.1-2.6,
            0.1-3.9,0.6 c-1.3,0.5-2.5,1.3-3.7,2.5c-1.2,1.2-2.1,2.5-2.6,3.7c-0.5,1.3-0.7,2.5-0.6,3.8c0.1,1.2,0.5,2.4,1.1,
            3.6c0.4,0.8,0.9,1.5,1.5,2.2 L6.5,86.1l16.4-55.7c2.2,0.2,4.4,0.3,6.5,0.3c11.8,0,22.3-3.5,31.3-10.3l12.9,
            12.9C65.5,43.9,62.1,56.6,63.6,71.1z M44.3,51.9 c-0.1,0.1-0.3,0.3-0.5,0.5c-0.2,0.2-0.3,0.3-0.3,0.4c-0.1,
            0-0.3-0.1-0.5-0.3c-0.2-0.1-0.4-0.3-0.6-0.5c-0.3-0.3-0.6-0.7-0.7-1 c-0.1-0.3-0.1-0.7-0.1-1c0.1-0.3,0.2-0.6,
            0.4-1c0.2-0.3,0.5-0.6,0.8-0.9c0.3-0.3,0.6-0.6,1-0.8c0.3-0.2,0.7-0.3,1-0.3 c0.3,0,0.7,0,1.1,0.1c0.4,0.1,0.7,
            0.4,1.1,0.7c0.2,0.2,0.4,0.5,0.6,0.7L44.3,51.9z M60.6,13.7l3.1-4.7l23.2,23.2l-4.7,3.1L60.6,13.7 z" />
    </symbol>
    <symbol id="key" viewBox="0 0 96 96">
        <title>key</title>
        <path fill="#55bad0" d="M78,0L35.4,42.6C33.7,42.2,31.9,42,30,42C16.7,42,6,52.7,6,66c0,3.9,0.9,7.5,2.5,10.7L0,80l16,
            16l3.3-8.5 C22.5,89.1,26.1,90,30,90c13.3,0,24-10.7,24-24c0-0.6,0-1.3-0.1-1.9L59,
            59l-4-4l2-2v-6l3-3h3l3-3v-3l3-3h6l3-3l-2-6l2-2l6,2l3-3v-4 l2-2h4l3-3V0H78z M14.5,88.8l-7.3-7.3L19,77L14.5,
            88.8z M92,12.3L91.3,13H89h-1.7l-1.2,1.2l-2,2L83,17.3V19v2.3l-0.1,0.1l-3.7-1.2 l-2.3-0.8l-1.7,1.7l-2,2l-1.7,
            1.7l0.8,2.3l1.2,3.7L73.3,31H69h-1.7l-1.2,1.2l-3,3L62,36.3V38v1.3L61.3,40H60h-1.7l-1.2,1.2l-3,3 L53,
            45.3V47v4.3l-0.8,0.8L49.3,55l2.8,2.8l1.2,1.2l-2.3,2.3l-1.3,1.3l0.1,1.8C50,65,50,65.5,50,66c0,11-9,20-20,
            20 c-3.3,0-6.5-0.8-9.3-2.3L26,70l-13.7,5.3C10.8,72.5,10,69.3,10,66c0-11,9-20,20-20c1.5,0,3,0.2,4.5,0.5l2.2,
            0.5l1.6-1.6L79.7,4H92 V12.3z M79.7,10.3c0.4,0.4,0.4,1,0,1.4l-36,36C43.5,47.9,43.3,48,43,
            48s-0.5-0.1-0.7-0.3c-0.4-0.4-0.4-1,0-1.4l36-36 C78.7,9.9,79.3,9.9,79.7,10.3z M30,59c-3.3,0-6,2.7-6,6s2.7,6,6,
            6s6-2.7,6-6S33.3,59,30,59z M30,69c-2.2,0-4-1.8-4-4s1.8-4,4-4 s4,1.8,4,4S32.2,69,30,69z" />
    </symbol>
    <symbol id="token" viewBox="0 0 96 96">
        <title>token</title>
        <path fill="#55bad0" d="M27,81l-4,4l-2-2l4-4L27,81z M15,69l-4,4l2,2l4-4L15,69z M45,83l-4-4L24,96L12.7,
            84.7l-1.4-1.4L0,72l17-17l-4-4 L64,0l32,32L45,83z M14.1,80.5l14.2-14.2l-8.5-8.5L5.7,72L14.1,80.5z M38.2,
            76.2l-8.5-8.5L15.5,81.9l8.5,8.5L38.2,76.2z M44,76 l-0.2,0.2l1.2,1.2L90.3,32L64,5.7L18.7,51l1.2,1.2L20,
            52l11.3,11.3l1.4,1.4L44,76z M43.7,53.7L60,37.4v7.2l-2.7,2.7L56,46l-4,4l4,4 l4-4l-1.3-1.3l3.3-3.3v-10l3-3c1.5,
            0.9,3.5,0.7,4.8-0.6c1.6-1.6,1.6-4.1,0-5.7c-1.6-1.6-4.1-1.6-5.7,0c-1.3,1.3-1.5,3.3-0.6,4.8 l-3,3h-10l-3.3,
            3.3C46.9,37.1,46.5,37,46,37c-1.7,0-3,1.3-3,3s1.3,3,3,3s3-1.3,3-3c0-0.5-0.1-0.9-0.3-1.3l2.7-2.7h7.2L42.3,
            52.3 L40,50l-1,7l7-1L43.7,53.7z" />
    </symbol>
    <symbol id="hands" viewBox="0 0 103.94 90">
        <title>hands</title>
        <g fill="#55bad0">
            <path d="M58.88,90A6.82,6.82,0,0,1,54,88l-9.33-9.33-4.1,4.1a6,6,0,0,1-8.46,0l-1.22-1.22a6,6,0,
            0,1-1.73-3.64l0-.41-.41,0a5.93,5.93,0,0,1-3.63-1.72L23.9,74.51a5.86,5.86,0,0,1-1.73-3.63l0-.42-.41,0a5.94,5.94,0,0,
            1-3.63-1.71l-1.22-1.23a5.89,5.89,0,0,1-1.73-3.63l0-.41-.41,0a5.9,5.9,0,0,1-3.63-1.72L9.84,60.45a6,6,0,0,1,
            0-8.46l4.1-4.1L.55,34.5a1.88,1.88,0,0,1,0-2.65,1.83,1.83,0,0,1,1.33-.55,1.82,1.82,0,0,1,1.32.55L56.7,85.34A3.09,3.09,
            0,1,0,61.07,81L47.72,67.61a1.86,1.86,0,0,1-.55-1.33A1.87,1.87,0,0,1,50.37,65L63.72,78.31a3.12,3.12,0,0,0,2.19.91,3.1,
            3.1,0,0,0,2.19-5.29L54.75,60.58a1.88,1.88,0,1,1,2.65-2.66L70.76,71.28a3.09,3.09,0,1,0,4.37-4.38L61.78,53.55a1.88,1.88,
            0,0,1,0-2.65,1.87,1.87,0,0,1,2.65,0L77.79,64.25a3.09,3.09,0,1,0,4.37-4.38L49.54,27.25l-11.17-1L37.62,30a10.51,10.51,
            0,0,1-10.27,8.41,10.31,10.31,0,0,1-2.07-.21,10.49,10.49,0,0,1-8.2-12.34l1.09-5.37A19.12,19.12,0,0,1,36.86,5.18a19.47,
            19.47,0,0,1,3.72.37h.1L64.5,9.83l.15-.4A6.52,6.52,0,0,1,66.2,7l5-5a6.65,6.65,0,0,1,9.41,0L102,23.31a6.66,6.66,0,0,1,
            0,9.42L81.16,53.56l3.66,3.66a6.84,6.84,0,0,1-4.56,11.67l-.47,0,0,.47a6.79,6.79,0,0,1-6.54,6.54l-.47,0,0,.47A6.79,6.79,
            0,0,1,66.2,83l-.46,0,0,.47A6.84,6.84,0,0,1,58.88,90ZM33.58,75.74a2.23,2.23,0,0,0,0,3.15l1.22,1.22a2.22,2.22,0,0,0,
            3.16,0l3.87-3.86-4.38-4.38Zm-7-7a2.23,2.23,0,0,0,0,3.15l1.22,1.22a2.22,2.22,0,0,0,3.16,0l3.87-3.86-4.38-4.38Zm-7-7a2.23,
            2.23,0,0,0,0,3.15l1.22,1.22a2.22,2.22,0,0,0,3.16,0l3.86-3.87-4.37-4.37Zm-7-7a2.19,2.19,0,0,0-.65,1.57,2.22,2.22,0,0,0,
            .65,1.58L13.71,59a2.25,2.25,0,0,0,3.16,0l3.87-3.87-4.38-4.37ZM37,22.39l13.51,1.18a1.9,1.9,0,0,1,1.17.54L78.5,50.91,
            89.61,39.8,63.23,13.42,39.93,9.25a15.26,15.26,0,0,0-18.08,12L20.76,26.6a6.72,6.72,0,0,0,13.18,2.66L35,23.89a1.88,1.88,
            0,0,1,1.84-1.51ZM75.92,3.75a2.88,2.88,0,0,0-2,.85l-5,5a2.91,2.91,0,0,0,0,4.11L92.27,37.14l7.07-7.07a2.88,2.88,0,0,0,
            .85-2.05A2.85,2.85,0,0,0,99.34,26L78,4.6A2.87,2.87,0,0,0,75.92,3.75Z" />
            <path d="M75.76,13a1.86,1.86,0,1,1,1.85-1.86A1.86,1.86,0,0,1,75.76,13Z" />
        </g>
    </symbol>
</svg>
