<svg xmlns="http://www.w3.org/2000/svg" viewBox="0 0 577.7 410.73"><defs><style>.cls-1{font-size:36px;}.cls-1,.cls-2{font-family:SeroPro-Bold, Sero Pro;font-weight:700;}.cls-2{font-size:135.52px;}.cls-3{fill:none;stroke:#282d33;}.cls-3,.cls-4{stroke-linejoin:round;stroke-width:5px;}.cls-4{fill:#7eecb6;stroke:#231f20;}</style></defs><title>Ресурс 6</title><g id="Слой_2" data-name="Слой 2"><g id="_5" data-name="5"><g id="Layer_30" data-name="Layer 30"><text class="cls-1" transform="translate(268.92 295.36)">дней</text><text class="cls-2" transform="translate(277.89 250.34)">7</text><text/></g></g><g id="Layer_51" data-name="Layer 51"><line class="cls-3" x1="359" y1="118.81" x2="348.38" y2="124.35"/><line class="cls-3" x1="340.07" y1="98.49" x2="332.69" y2="110.5"/><line class="cls-3" x1="312.37" y1="92.03" x2="312.37" y2="104.49"/><line class="cls-3" x1="285.6" y1="98.49" x2="292.06" y2="110.5"/><line class="cls-3" x1="266.21" y1="118.81" x2="276.36" y2="124.35"/><path class="cls-4" d="M486,371.83a16,16,0,0,1,4.87.76,16,16,0,0,1,15.72-19.06,15.93,15.93,0,0,1,10.46,3.9,22.87,22.87,0,0,1,43.39,14.46,16,16,0,0,1-1.23,32H486a16,16,0,0,1,0-32Z"/><path class="cls-3" d="M560.42,371.88c-.41,0-.82-.05-1.23-.05a15.92,15.92,0,0,0-8.46,2.41"/><path class="cls-3" d="M517,357.42a22.86,22.86,0,0,0-1.16,5.25"/><path class="cls-3" d="M490.85,372.59a15.82,15.82,0,0,0,2,5.2"/><path class="cls-3" d="M521.82,336.18a16,16,0,0,0-23.1-2.29,22.88,22.88,0,0,0-43.4,14.46,16,16,0,0,0,1.24,32h6.83"/><path class="cls-3" d="M455.32,348.34c.41,0,.82,0,1.24,0A16,16,0,0,1,465,350.7"/><path class="cls-3" d="M498.75,333.88a22.36,22.36,0,0,1,1.17,5.25"/><path class="cls-3" d="M13.88,69.26a11.4,11.4,0,0,1,3.47.55,11.17,11.17,0,0,1-.22-2.17A11.38,11.38,0,0,1,36,59,16.26,16.26,0,0,1,66.79,69.31,11.38,11.38,0,0,1,65.91,92h-52a11.39,11.39,0,0,1,0-22.77Z"/><path class="cls-3" d="M66.79,69.3c-.29,0-.58,0-.88,0a11.33,11.33,0,0,0-6,1.71"/><path class="cls-3" d="M35.92,59a16.5,16.5,0,0,0-.82,3.74"/><path class="cls-3" d="M17.34,69.81a11.38,11.38,0,0,0,1.42,3.7"/><path class="cls-3" d="M502.46,277a202.28,202.28,0,0,0,13-71.62c0-112-90.83-202.86-202.87-202.86S109.74,93.32,109.74,205.36,200.56,408.23,312.6,408.23a202.23,202.23,0,0,0,81.17-16.89"/><path class="cls-3" d="M156.65,144.9a166.9,166.9,0,0,0-11.26,60.46"/><path class="cls-3" d="M206,334.22A167.21,167.21,0,1,0,172.33,114.3"/><path class="cls-3" d="M180.53,307.93q4.28,5.51,9,10.62"/></g></g></svg>