<svg xmlns="http://www.w3.org/2000/svg" viewBox="0 0 857.42 410.73"><defs><style>.cls-1,.cls-4{fill:#7eecb6;}.cls-2,.cls-3{fill:none;}.cls-2{stroke:#282d33;}.cls-2,.cls-4{stroke-linejoin:round;}.cls-2,.cls-3,.cls-4{stroke-width:5px;}.cls-3{stroke:#1e0f00;stroke-miterlimit:10;}.cls-4{stroke:#231f20;}</style></defs><title>Ресурс 4</title><g id="Слой_2" data-name="Слой 2"><g id="_7" data-name="7"><ellipse class="cls-1" cx="752.5" cy="350.98" rx="25.31" ry="25.26" transform="translate(-26.67 637.93) rotate(-45.22)"/><line class="cls-2" x1="537.57" y1="408.11" x2="537.57" y2="293.84"/><line class="cls-2" x1="633.6" y1="406.52" x2="535.98" y2="406.52"/><line class="cls-2" x1="654.85" y1="406.52" x2="643.25" y2="406.52"/><line class="cls-2" x1="694.6" y1="406.52" x2="675.45" y2="406.52"/><line class="cls-2" x1="816.51" y1="406.52" x2="706.1" y2="406.52"/><line class="cls-2" x1="814.92" y1="218.89" x2="814.92" y2="408.11"/><polyline class="cls-2" points="535.98 42.5 745.58 42.5 814.92 111.84 814.92 190.39"/><line class="cls-2" x1="537.57" y1="299.01" x2="537.57" y2="40.47"/><polyline class="cls-2" points="796.69 119.73 744.69 119.73 744.69 68.5"/><line class="cls-3" x1="634.9" y1="293.4" x2="570" y2="293.4"/><line class="cls-3" x1="700" y1="293.4" x2="654.85" y2="293.4"/><line class="cls-3" x1="665.33" y1="328.07" x2="570" y2="328.07"/><path d="M562.08,118.35h1.51c1.12-1.28,2.83-3.91,3.13-11l.25-5.73h13.27v16.73h2.35v7.73h-4.25v-4.31h-12v4.31h-4.25Zm9-11c-.31,6.88-1.66,9.4-2.61,10.8h7.17V105.42H571.2Z"/><path d="M589.08,116a3,3,0,0,0,3.36,3,10.64,10.64,0,0,0,4.19-1.06l.84,3.05a14.22,14.22,0,0,1-5.68,1.2c-4.47,0-7.33-2.43-7.33-7.25,0-5,3.11-7.69,7.19-7.69,3.75,0,6.22,2.27,6.22,7a11.75,11.75,0,0,1-.12,1.74Zm-.06-2.61h4.7c0-2.24-.92-3.1-2.18-3.1S589.19,111.24,589,113.34Z"/><path d="M605.08,116.06v5.71h-4.5V107.49h4.5v5.71h.14a1.73,1.73,0,0,0,2-1.2l.67-1.34c1.15-2.3,2.07-3.33,5.46-3.33v3.24a1.74,1.74,0,0,0-2,1.21l-.64,1.34a2.82,2.82,0,0,1-2,1.48,4.24,4.24,0,0,1,3,2.44l2.43,4.73H609.5l-2-4c-.62-1.23-1-1.73-2.38-1.73Z"/><path d="M629.48,107.49v14.28H625v-11H621.9c-.31,8.73-1.6,11.14-6.1,11.14-.48,0-.9,0-1.23-.06v-3.14a4.63,4.63,0,0,0,.67.06c2.24,0,2.49-3.11,2.74-11.31Z"/><path d="M633.68,111.72l-.84-3.3a16.09,16.09,0,0,1,6.1-1.26c3.53,0,5.76,1.26,5.76,5.29v6.07c0,2.35.14,2.94.28,3.25h-4.25a3.22,3.22,0,0,1-.36-1.51,5.36,5.36,0,0,1-4,1.84c-2.44,0-4.26-1.56-4.26-4.47s1.93-4.79,6.24-4.79a18.58,18.58,0,0,1,2,.11v-.17c0-1.59-.81-2.18-2.35-2.18A11.26,11.26,0,0,0,633.68,111.72Zm6.63,6.21V115.5a5.53,5.53,0,0,0-1.31-.14c-1.88,0-2.52.61-2.52,1.82s.61,1.7,1.51,1.7A4,4,0,0,0,640.31,117.93Z"/><path d="M652.29,107.49v1.77a5.19,5.19,0,0,1,4.11-2.1c3.11,0,5.23,2.6,5.23,7.25,0,5-2.49,7.69-5.62,7.69a4.43,4.43,0,0,1-3.72-1.93v7.47h-4.51V107.49Zm0,4.57v5.45a3.42,3.42,0,0,0,2.35,1.15c1.42,0,2.49-1.12,2.49-3.94s-1-3.87-2.44-3.87A3.44,3.44,0,0,0,652.29,112.06Z"/><path d="M665.07,111.72l-.84-3.3a16.09,16.09,0,0,1,6.1-1.26c3.53,0,5.77,1.26,5.77,5.29v6.07c0,2.35.14,2.94.28,3.25h-4.26a3.22,3.22,0,0,1-.36-1.51,5.36,5.36,0,0,1-4,1.84c-2.43,0-4.25-1.56-4.25-4.47s1.93-4.79,6.24-4.79a18.54,18.54,0,0,1,2,.11v-.17c0-1.59-.81-2.18-2.35-2.18A11.26,11.26,0,0,0,665.07,111.72Zm6.63,6.21V115.5a5.53,5.53,0,0,0-1.31-.14c-1.88,0-2.52.61-2.52,1.82s.62,1.7,1.51,1.7A4,4,0,0,0,671.7,117.93Z"/><path d="M683.68,118.63h4.08V107.49h4.51v11.39h1.85v6.52h-4.2v-3.63H679.17V107.49h4.51Z"/><path d="M709.93,121.77h-4.15v-8.09l-5.12,8.09h-3.94V107.49h4.14v8.09l5.12-8.09h3.95Z"/><path d="M725.87,107.49v14.28h-4.42v-5h-2.26l-2.41,5h-4.42l3.08-5.8a3.77,3.77,0,0,1-2.13-3.69c0-3.13,2.24-4.79,6-4.79ZM721.45,114v-3.59H720c-1.57,0-2.24.56-2.24,1.79s.67,1.8,2.24,1.8Z"/><path d="M569.33,155.68c-3.81,0-7-2.32-7-7.42s3.2-7.52,7.06-7.52,6.94,2.32,6.94,7.41S573.19,155.68,569.33,155.68Zm0-11.67c-1.37,0-2.49,1.12-2.49,4.25s1.12,4.26,2.49,4.26,2.49-1.12,2.49-4.26S570.75,144,569.38,144Z"/><path d="M585.08,141.07h7.44c3.3,0,5.21,1.29,5.21,3.78a3.18,3.18,0,0,1-2.33,3.22,3.39,3.39,0,0,1,2.91,3.47c0,2.35-1.82,3.8-5.51,3.8h-7.72Zm6.29,5.85c1.4,0,2-.45,2-1.45s-.59-1.43-2-1.43h-1.93v2.88Zm.53,5.63c1.49,0,2.05-.54,2.05-1.49s-.56-1.48-2.05-1.48h-2.46v3Z"/><path d="M607.29,155.68c-3.8,0-6.94-2.32-6.94-7.42s3.19-7.52,7.06-7.52,6.94,2.32,6.94,7.41S611.16,155.68,607.29,155.68Zm.06-11.67c-1.37,0-2.49,1.12-2.49,4.25s1.12,4.26,2.49,4.26,2.49-1.12,2.49-4.26S608.72,144,607.35,144Z"/><path d="M621.12,155.68a13.42,13.42,0,0,1-5.32-1l.84-3.24a10.31,10.31,0,0,0,4.2,1.06c1.54,0,2.49-.5,2.49-1.43s-.84-1.37-3.39-1.37h-1.09v-3h1.37c2,0,2.83-.4,2.83-1.35s-.79-1.31-2-1.31a7.17,7.17,0,0,0-3.58,1.09l-.84-3.22a11.38,11.38,0,0,1,5.18-1.2c3.38,0,5.73,1.4,5.73,4A3.33,3.33,0,0,1,625,148a3.61,3.61,0,0,1,2.83,3.47C627.83,154.06,625.26,155.68,621.12,155.68Z"/><path d="M644.45,148.46c-.08-1-.08-2.18-.08-2.83h-.06a22.12,22.12,0,0,1-.67,2.63l-2.35,7.08h-3.72l-2.35-7.08a23.63,23.63,0,0,1-.67-2.63h-.06c0,.65,0,1.79-.08,2.83l-.51,6.88H630l1.46-14.27h5.26l2,7a24.31,24.31,0,0,1,.73,3.05h.06a27.4,27.4,0,0,1,.78-3.05l2.18-7h5.15L649,155.34h-4Z"/><path d="M655.81,149.52c.34,2.3,1.65,3,3.36,3a10.73,10.73,0,0,0,4.2-1.06l.84,3a14.26,14.26,0,0,1-5.68,1.2c-4.48,0-7.34-2.43-7.34-7.25,0-5,3.11-7.69,7.2-7.69,3.75,0,6.21,2.26,6.21,7a13.18,13.18,0,0,1-.11,1.73Zm-.06-2.6h4.71c0-2.24-.93-3.11-2.19-3.11S655.92,144.82,655.75,146.92Z"/><path d="M680,152.18h3.69V141.07h4.51v11.39H690V159h-4.19v-3.64H667.31V141.07h4.51v11.11h3.69V141.07H680Z"/><path d="M696.38,149.52c.34,2.3,1.65,3,3.36,3a10.73,10.73,0,0,0,4.2-1.06l.84,3a14.26,14.26,0,0,1-5.68,1.2c-4.48,0-7.34-2.43-7.34-7.25,0-5,3.11-7.69,7.2-7.69,3.75,0,6.21,2.26,6.21,7a13.18,13.18,0,0,1-.11,1.73Zm0-2.6H701c0-2.24-.93-3.11-2.19-3.11S696.49,144.82,696.33,146.92Z"/><path d="M716.42,149.64h-4v5.7h-4.51V141.07h4.51v5.29h4v-5.29h4.5v14.27h-4.5Z"/><path d="M737.57,155.34h-4.14v-8.08l-5.12,8.08h-3.95V141.07h4.14v8.09l5.12-8.09h4Z"/><path d="M754.22,155.34h-4.14v-8.08L745,155.34h-4V141.07h4.14v8.09l5.12-8.09h4Z"/><path d="M563.67,168.77h4.56v7.95H575v-7.95h4.57v20.15H575v-8.4h-6.8v8.4h-4.56Z"/><path d="M582.31,185.51h1.51c1.12-1.29,2.82-3.92,3.13-11l.25-5.74h13.27v16.74h2.35v7.72h-4.25v-4.31h-12v4.31h-4.25Zm9-11.06c-.31,6.89-1.66,9.4-2.61,10.8h7.17V172.58h-4.48Z"/><path d="M619.89,187.58a11.47,11.47,0,0,1-6,1.68c-5.32,0-9-3.5-9-10.19,0-6.91,3.94-10.63,9.51-10.63a9.79,9.79,0,0,1,5.37,1.48l-1.06,3.89a7.77,7.77,0,0,0-4.31-1.57c-2.8,0-4.95,2-4.95,6.72s2.13,6.63,5,6.63a7.28,7.28,0,0,0,4.33-1.57Z"/><line class="cls-3" x1="750" y1="259.4" x2="570" y2="259.4"/><line class="cls-3" x1="719.9" y1="224.4" x2="570" y2="224.4"/><line class="cls-3" x1="750" y1="224.4" x2="734.56" y2="224.4"/><line class="cls-2" x1="374.35" y1="408.23" x2="408.54" y2="408.23"/><line class="cls-2" x1="433.67" y1="408.23" x2="447.52" y2="408.23"/><line class="cls-2" x1="86.5" y1="407.76" x2="124.58" y2="407.76"/><line class="cls-2" x1="141.66" y1="407.76" x2="152.28" y2="407.76"/><line class="cls-2" x1="220.88" y1="235.64" x2="231.5" y2="241.18"/><line class="cls-2" x1="239.81" y1="215.33" x2="247.19" y2="227.33"/><line class="cls-2" x1="267.51" y1="208.87" x2="267.51" y2="221.33"/><line class="cls-2" x1="294.28" y1="215.33" x2="287.82" y2="227.33"/><line class="cls-2" x1="313.67" y1="235.64" x2="303.52" y2="241.18"/><polyline class="cls-2" points="363.01 285.67 269.82 245.15 176.62 285.67"/><line class="cls-2" x1="358.96" y1="301.88" x2="180.67" y2="301.88"/><polyline class="cls-2" points="209.03 388.87 209.03 318.09 184.72 318.09 184.72 395.08"/><line class="cls-2" x1="180.67" y1="407.23" x2="358.96" y2="407.23"/><polyline class="cls-2" points="330.6 388.87 330.6 318.09 354.91 318.09 354.91 395.08"/><path class="cls-2" d="M225.24,388.87V326.19a8.11,8.11,0,0,1,16.21,0v62.68"/><path class="cls-2" d="M261.71,388.87V326.19a8.11,8.11,0,0,1,16.21,0v62.68"/><path class="cls-2" d="M298.18,388.87V326.19a8.11,8.11,0,0,1,16.21,0v62.68"/><path class="cls-4" d="M91.72,258.35a16,16,0,0,0-4.87.76A16,16,0,0,0,60.67,244a22.87,22.87,0,0,0-43.39,14.46,16,16,0,0,0,1.23,32H91.72a16,16,0,0,0,0-32Z"/><path class="cls-2" d="M17.28,258.4c.41,0,.82,0,1.23,0A15.92,15.92,0,0,1,27,260.77"/><path class="cls-2" d="M60.71,243.94a22.32,22.32,0,0,1,1.16,5.26"/><path class="cls-2" d="M86.85,259.11a16,16,0,0,1-2,5.21"/><path class="cls-2" d="M55.88,222.7A16,16,0,0,1,79,220.41a22.88,22.88,0,0,1,43.4,14.47,16,16,0,0,1-1.24,32h-6.83"/><path class="cls-2" d="M122.38,234.86c-.41,0-.82-.05-1.24-.05a16,16,0,0,0-8.46,2.42"/><path class="cls-2" d="M79,220.4a22.84,22.84,0,0,0-1.17,5.26"/><path class="cls-2" d="M464.56,266.6a11.4,11.4,0,0,0-3.47.54,11.17,11.17,0,0,0,.22-2.17,11.38,11.38,0,0,0-18.82-8.61,16.26,16.26,0,0,0-30.84,10.28,11.38,11.38,0,0,0,.88,22.72h52a11.38,11.38,0,0,0,0-22.76Z"/><path class="cls-2" d="M411.65,266.63c.29,0,.58,0,.88,0a11.33,11.33,0,0,1,6,1.71"/><path class="cls-2" d="M442.52,256.35a16.5,16.5,0,0,1,.82,3.74"/><path class="cls-2" d="M461.1,267.14a11.38,11.38,0,0,1-1.42,3.7"/><path class="cls-2" d="M255.92,262.71l6.43,3.69,14.51-8.35"/><path class="cls-2" d="M287.22,266.6a17.63,17.63,0,0,1,1,5.93,18.43,18.43,0,0,1-1,6l-.46,1.23a18.83,18.83,0,0,1-4,5.93,19.15,19.15,0,0,1-13.19,5.43,18.07,18.07,0,0,1-7.25-1.5,19.29,19.29,0,0,1-5.89-3.93,18.13,18.13,0,0,1-4-5.93,18.83,18.83,0,0,1-1.46-7.26V271.3l11.32,6.44,23.86-13.69,1,2.55Z"/><line class="cls-2" x1="834.92" y1="338.89" x2="834.92" y2="388.11"/><polyline class="cls-2" points="555.98 22.5 765.58 22.5 834.92 91.84 834.92 320.39"/><line class="cls-2" x1="854.92" y1="258.89" x2="854.92" y2="368.11"/><polyline class="cls-2" points="575.98 2.5 785.58 2.5 854.92 71.84 854.92 240.39"/><g id="Layer_41" data-name="Layer 41"><path class="cls-3" d="M695.83,355.59c3.53-2.25,23.26-12.36,18,0s26-5.8,30.91-8.77a78.89,78.89,0,0,1,16.8-7.83c12.38-3.86,27.15.28,21.61,14"/></g></g></g></svg>