<svg xmlns="http://www.w3.org/2000/svg" viewBox="0 0 833.51 580.38"><defs><style>.cls-1{fill:#7eecb6;}.cls-2,.cls-3{fill:none;stroke:#282d33;stroke-width:5px;}.cls-2{stroke-linejoin:round;}.cls-3{stroke-miterlimit:10;}</style></defs><title>Ресурс 9</title><g id="Слой_2" data-name="Слой 2"><g id="_5" data-name="5"><g id="Layer_33" data-name="Layer 33"><circle class="cls-1" cx="342.72" cy="454.14" r="33.34" transform="translate(-80.03 73.38) rotate(-10.95)"/><ellipse class="cls-1" cx="768.59" cy="427.84" rx="25.31" ry="25.26" transform="translate(-76.47 672.07) rotate(-45.22)"/></g><g id="Layer_29" data-name="Layer 29"><line class="cls-2" x1="63.92" y1="527.65" x2="63.92" y2="380.64"/><line class="cls-2" x1="422.8" y1="525.6" x2="61.87" y2="525.6"/><line class="cls-2" x1="420.75" y1="396.58" x2="420.75" y2="527.65"/><line class="cls-2" x1="420.75" y1="356.92" x2="420.75" y2="377.92"/><polyline class="cls-2" points="132.69 57.26 331.54 57.26 420.75 146.47 420.75 306.92"/><line class="cls-2" x1="61.87" y1="57.26" x2="105.64" y2="57.26"/><line class="cls-2" x1="63.92" y1="387.29" x2="63.92" y2="54.65"/><polyline class="cls-2" points="397.3 156.62 330.39 156.62 330.39 90.71"/><line class="cls-3" x1="276.72" y1="290.86" x2="105.64" y2="290.86"/><line class="cls-3" x1="317.51" y1="290.86" x2="293.86" y2="290.86"/><line class="cls-3" x1="317.51" y1="335.47" x2="105.64" y2="335.47"/><line class="cls-3" x1="176.52" y1="380.07" x2="105.64" y2="380.07"/><line class="cls-3" x1="272.9" y1="380.07" x2="211.57" y2="380.07"/><line class="cls-3" x1="228.3" y1="424.67" x2="105.64" y2="424.67"/><path d="M95.45,154.85h1.94c1.44-1.66,3.64-5,4-14.15l.32-7.38h17.06v21.53h3v9.93h-5.47v-5.54H100.92v5.54H95.45Zm11.63-14.22c-.4,8.85-2.13,12.09-3.35,13.89h9.21v-16.3h-5.76Z"/><path d="M130.19,151.75c.43,2.95,2.12,3.82,4.32,3.82a13.82,13.82,0,0,0,5.4-1.37l1.08,3.92a18.37,18.37,0,0,1-7.31,1.55c-5.76,0-9.43-3.13-9.43-9.32,0-6.48,4-9.9,9.25-9.9,4.82,0,8,2.91,8,9.07a17.45,17.45,0,0,1-.14,2.23Zm-.07-3.35h6c0-2.88-1.18-4-2.8-4C131.59,144.41,130.33,145.7,130.12,148.4Z"/><path d="M150.78,151.9v7.34H145V140.88h5.8v7.34H151a2.22,2.22,0,0,0,2.52-1.54l.86-1.73c1.48-2.95,2.67-4.28,7-4.28v4.17a2.24,2.24,0,0,0-2.52,1.55l-.82,1.73a3.65,3.65,0,0,1-2.52,1.9,5.45,5.45,0,0,1,3.81,3.14l3.13,6.08h-6l-2.56-5.11c-.79-1.59-1.33-2.23-3.06-2.23Z"/><path d="M182.17,140.88v18.36h-5.76V145.13h-4c-.4,11.23-2.06,14.32-7.85,14.32-.61,0-1.15,0-1.59-.07v-4a6,6,0,0,0,.87.07c2.88,0,3.2-4,3.53-14.54Z"/><path d="M187.57,146.32l-1.08-4.25a20.7,20.7,0,0,1,7.85-1.62c4.53,0,7.41,1.62,7.41,6.8v7.81c0,3,.18,3.78.36,4.18h-5.47a4.18,4.18,0,0,1-.47-1.94,6.9,6.9,0,0,1-5.18,2.37c-3.13,0-5.47-2-5.47-5.76s2.48-6.15,8-6.15a22.16,22.16,0,0,1,2.55.14v-.22c0-2.05-1-2.8-3-2.8A14.38,14.38,0,0,0,187.57,146.32Zm8.53,8v-3.13a7.48,7.48,0,0,0-1.69-.18c-2.41,0-3.24.79-3.24,2.34s.79,2.19,1.94,2.19A5.19,5.19,0,0,0,196.1,154.31Z"/><path d="M211.51,140.88v2.27a6.7,6.7,0,0,1,5.29-2.7c4,0,6.73,3.35,6.73,9.32,0,6.44-3.2,9.9-7.23,9.9a5.72,5.72,0,0,1-4.79-2.48v9.61h-5.79V140.88Zm0,5.87v7a4.42,4.42,0,0,0,3,1.47c1.84,0,3.21-1.44,3.21-5.07s-1.3-5-3.13-5A4.42,4.42,0,0,0,211.51,146.75Z"/><path d="M228,146.32l-1.08-4.25a20.7,20.7,0,0,1,7.85-1.62c4.54,0,7.41,1.62,7.41,6.8v7.81c0,3,.19,3.78.37,4.18H237a4.1,4.1,0,0,1-.46-1.94,6.93,6.93,0,0,1-5.19,2.37c-3.13,0-5.47-2-5.47-5.76s2.48-6.15,8-6.15a22.16,22.16,0,0,1,2.55.14v-.22c0-2.05-1-2.8-3-2.8A14.42,14.42,0,0,0,228,146.32Zm8.53,8v-3.13a7.48,7.48,0,0,0-1.69-.18c-2.41,0-3.24.79-3.24,2.34s.79,2.19,1.95,2.19A5.19,5.19,0,0,0,236.49,154.31Z"/><path d="M251.9,155.21h5.26V140.88H263v14.65h2.38v8.39h-5.4v-4.68H246.11V140.88h5.79Z"/><path d="M285.67,159.24h-5.33v-10.4l-6.59,10.4h-5.07V140.88H274v10.4l6.58-10.4h5.08Z"/><path d="M306.19,140.88v18.36H300.5V152.8h-2.91l-3.1,6.44H288.8l4-7.45A4.87,4.87,0,0,1,290,147c0-4,2.88-6.16,7.74-6.16Zm-5.69,8.39v-4.61h-1.91c-2,0-2.88.72-2.88,2.3s.87,2.31,2.88,2.31Z"/><path d="M104.77,202.87c-4.89,0-8.92-3-8.92-9.54s4.1-9.68,9.07-9.68,8.92,3,8.92,9.54S109.74,202.87,104.77,202.87Zm.07-15c-1.76,0-3.2,1.44-3.2,5.47s1.44,5.47,3.2,5.47,3.21-1.44,3.21-5.47S106.61,187.86,104.84,187.86Z"/><path d="M125,184.08h9.58c4.24,0,6.69,1.66,6.69,4.86a4.09,4.09,0,0,1-3,4.14c2.59.65,3.75,2.3,3.75,4.46,0,3-2.34,4.9-7.09,4.9H125Zm8.1,7.52c1.8,0,2.56-.57,2.56-1.87s-.76-1.83-2.56-1.83h-2.48v3.7Zm.68,7.24c1.91,0,2.63-.68,2.63-1.91s-.72-1.91-2.63-1.91h-3.16v3.82Z"/><path d="M153.62,202.87c-4.89,0-8.92-3-8.92-9.54s4.1-9.68,9.07-9.68,8.92,3,8.92,9.54S158.59,202.87,153.62,202.87Zm.07-15c-1.76,0-3.2,1.44-3.2,5.47s1.44,5.47,3.2,5.47,3.21-1.44,3.21-5.47S155.46,187.86,153.69,187.86Z"/><path d="M171.41,202.87a17.38,17.38,0,0,1-6.84-1.3l1.08-4.17a13.2,13.2,0,0,0,5.4,1.37c2,0,3.2-.65,3.2-1.84s-1.08-1.76-4.36-1.76h-1.4v-3.82h1.77c2.55,0,3.63-.5,3.63-1.73s-1-1.69-2.56-1.69a9.27,9.27,0,0,0-4.6,1.41l-1.08-4.14a14.68,14.68,0,0,1,6.66-1.55c4.35,0,7.38,1.8,7.38,5.11,0,1.94-1.05,3.42-3.28,4.21,2.48.83,3.64,2.49,3.64,4.47C180.05,200.78,176.73,202.87,171.41,202.87Z"/><path d="M201.43,193.58c-.11-1.33-.11-2.8-.11-3.63h-.07a31.11,31.11,0,0,1-.86,3.38l-3,9.11h-4.79l-3-9.11a31.66,31.66,0,0,1-.86-3.38h-.08c0,.83,0,2.3-.1,3.63l-.65,8.86h-5l1.88-18.36h6.76l2.63,9a30,30,0,0,1,.94,3.92h.07a39.17,39.17,0,0,1,1-3.92l2.81-9h6.62l1.73,18.36h-5.22Z"/><path d="M216.05,195c.43,3,2.12,3.82,4.32,3.82a13.82,13.82,0,0,0,5.4-1.37l1.08,3.92a18.37,18.37,0,0,1-7.31,1.55c-5.76,0-9.43-3.13-9.43-9.32,0-6.48,4-9.9,9.25-9.9,4.82,0,8,2.91,8,9.07a17.45,17.45,0,0,1-.14,2.23ZM216,191.6H222c0-2.88-1.19-4-2.81-4S216.19,188.9,216,191.6Z"/><path d="M247.15,198.37h4.75V184.08h5.8v14.65h2.37v8.39h-5.4v-4.68H230.84V184.08h5.8v14.29h4.75V184.08h5.76Z"/><path d="M268.25,195c.43,3,2.12,3.82,4.32,3.82A13.74,13.74,0,0,0,278,197.4l1.08,3.92a18.28,18.28,0,0,1-7.3,1.55c-5.76,0-9.43-3.13-9.43-9.32,0-6.48,4-9.9,9.25-9.9,4.82,0,8,2.91,8,9.07a15.86,15.86,0,0,1-.15,2.23Zm-.08-3.35h6.05c0-2.88-1.19-4-2.81-4S268.39,188.9,268.17,191.6Z"/><path d="M294,195.1h-5.18v7.34H283V184.08h5.8v6.8H294v-6.8h5.8v18.36H294Z"/><path d="M321.24,202.44h-5.33V192l-6.59,10.4h-5.07V184.08h5.32v10.4l6.59-10.4h5.08Z"/><path d="M342.66,202.44h-5.33V192l-6.59,10.4h-5.07V184.08H331v10.4l6.59-10.4h5.08Z"/><path d="M97.5,219.72h5.87v10.22h8.75V219.72H118v25.92h-5.86v-10.8h-8.75v10.8H97.5Z"/><path d="M121.48,241.25h1.94c1.44-1.66,3.64-5,4-14.15l.33-7.38h17.06v21.53h3v9.93h-5.47v-5.54H127v5.54h-5.47ZM133.1,227c-.39,8.85-2.12,12.09-3.34,13.89H139v-16.3h-5.76Z"/><path d="M169.82,243.91a14.7,14.7,0,0,1-7.74,2.16c-6.84,0-11.55-4.5-11.55-13.1,0-8.89,5.07-13.68,12.24-13.68a12.57,12.57,0,0,1,6.91,1.91l-1.37,5a10,10,0,0,0-5.54-2c-3.6,0-6.37,2.55-6.37,8.63s2.73,8.54,6.48,8.54a9.41,9.41,0,0,0,5.58-2Z"/><line class="cls-2" x1="553.66" y1="484.97" x2="553.66" y2="370.7"/><line class="cls-2" x1="649.69" y1="483.38" x2="552.07" y2="483.38"/><line class="cls-2" x1="670.94" y1="483.38" x2="659.34" y2="483.38"/><line class="cls-2" x1="710.69" y1="483.38" x2="691.54" y2="483.38"/><line class="cls-2" x1="832.6" y1="483.38" x2="722.19" y2="483.38"/><line class="cls-2" x1="831.01" y1="295.75" x2="831.01" y2="484.97"/><polyline class="cls-2" points="552.07 119.36 761.67 119.36 831.01 188.69 831.01 267.25"/><line class="cls-2" x1="553.66" y1="375.87" x2="553.66" y2="117.33"/><polyline class="cls-2" points="812.78 196.59 760.78 196.59 760.78 145.36"/><line class="cls-3" x1="716.09" y1="370.26" x2="586.09" y2="370.26"/><line class="cls-3" x1="681.43" y1="404.93" x2="586.09" y2="404.93"/><path d="M583.88,186.62c2.18,0,3.75-.64,3.75-2.41,0-1.59-1.26-2.26-2.94-2.26A8.39,8.39,0,0,0,580,183.6L579,179.9a12.36,12.36,0,0,1,6.35-1.76c4,0,6.86,2,6.86,5.4a4.84,4.84,0,0,1-3.56,4.76c2.55.87,3.84,2.63,3.84,4.92,0,3.5-3.05,5.74-7.89,5.74a14.86,14.86,0,0,1-6.44-1.43l1.06-3.77a11.71,11.71,0,0,0,5.26,1.54c2.13,0,3.45-.93,3.45-2.49s-1.46-2.61-4.06-2.61H582v-3.58Z"/><path d="M596,188.58l-.84-3.3a16.09,16.09,0,0,1,6.1-1.26c3.53,0,5.77,1.26,5.77,5.29v6.07c0,2.35.14,2.94.28,3.25H603a3.22,3.22,0,0,1-.36-1.51,5.36,5.36,0,0,1-4,1.84c-2.43,0-4.25-1.57-4.25-4.48s1.93-4.78,6.24-4.78a18.54,18.54,0,0,1,2,.11v-.17c0-1.59-.81-2.18-2.35-2.18A11.26,11.26,0,0,0,596,188.58Zm6.63,6.21v-2.43a5.53,5.53,0,0,0-1.31-.14c-1.88,0-2.52.61-2.52,1.82s.62,1.7,1.51,1.7A4,4,0,0,0,602.62,194.79Z"/><path d="M622.6,184.35v14.28h-4.42v-5h-2.27l-2.4,5h-4.43l3.08-5.8a3.78,3.78,0,0,1-2.12-3.69c0-3.13,2.23-4.79,6-4.79Zm-4.42,6.52v-3.58H616.7c-1.57,0-2.24.56-2.24,1.79s.67,1.79,2.24,1.79Z"/><path d="M626,184.35h7.45c3.3,0,5.2,1.29,5.2,3.78a3.18,3.18,0,0,1-2.32,3.22,3.4,3.4,0,0,1,2.91,3.47c0,2.35-1.82,3.81-5.51,3.81H626Zm6.3,5.85c1.4,0,2-.44,2-1.45s-.58-1.43-2-1.43h-1.93v2.88Zm.53,5.63c1.48,0,2-.53,2-1.49s-.56-1.48-2-1.48h-2.46v3Z"/><path d="M655.14,184.35v14.28h-4.47v-11h-3.11c-.31,8.73-1.6,11.13-6.1,11.13-.48,0-.9,0-1.23,0V195.6a4.51,4.51,0,0,0,.67.06c2.24,0,2.49-3.11,2.74-11.31Z"/><path d="M662.36,192.81c.34,2.29,1.65,3,3.36,3a10.73,10.73,0,0,0,4.2-1.06l.84,3a14.31,14.31,0,0,1-5.69,1.2c-4.47,0-7.33-2.43-7.33-7.25,0-5,3.11-7.69,7.19-7.69,3.75,0,6.22,2.27,6.22,7a13.33,13.33,0,0,1-.11,1.74Zm-.06-2.61H667c0-2.24-.93-3.1-2.19-3.1S662.47,188.1,662.3,190.2Z"/><path d="M682.39,192.92h-4v5.71h-4.5V184.35h4.5v5.29h4v-5.29h4.51v14.28h-4.51Z"/><path d="M703.55,198.63h-4.14v-8.09l-5.12,8.09h-3.95V184.35h4.14v8.09l5.12-8.09h3.95Z"/><path d="M710.77,192.81a3,3,0,0,0,3.35,3,10.69,10.69,0,0,0,4.2-1.06l.84,3a14.26,14.26,0,0,1-5.68,1.2c-4.48,0-7.33-2.43-7.33-7.25,0-5,3.1-7.69,7.19-7.69,3.75,0,6.21,2.27,6.21,7a13.33,13.33,0,0,1-.11,1.74Zm-.06-2.61h4.7c0-2.24-.92-3.1-2.18-3.1S710.88,188.1,710.71,190.2Z"/><path d="M587.85,226.49h-4v5.71h-4.51V217.93h4.51v5.29h4v-5.29h4.51V232.2h-4.51Z"/><path d="M596.55,222.16l-.84-3.31a16.28,16.28,0,0,1,6.1-1.26c3.53,0,5.77,1.26,5.77,5.29V229c0,2.35.14,2.94.28,3.24H603.6a3.18,3.18,0,0,1-.36-1.51,5.33,5.33,0,0,1-4,1.85c-2.44,0-4.25-1.57-4.25-4.48s1.93-4.78,6.24-4.78a16.24,16.24,0,0,1,2,.11v-.17c0-1.59-.81-2.18-2.35-2.18A11.08,11.08,0,0,0,596.55,222.16Zm6.63,6.21v-2.44a6.17,6.17,0,0,0-1.31-.13c-1.88,0-2.52.61-2.52,1.81s.62,1.71,1.51,1.71A4,4,0,0,0,603.18,228.37Z"/><path d="M616.81,217.93h7.44c3.3,0,5.21,1.29,5.21,3.78a3.18,3.18,0,0,1-2.33,3.22A3.39,3.39,0,0,1,630,228.4c0,2.35-1.81,3.8-5.51,3.8h-7.72Zm6.29,5.85c1.4,0,2-.45,2-1.46s-.59-1.42-2-1.42h-1.93v2.88Zm.54,5.62c1.48,0,2-.53,2-1.48s-.56-1.48-2-1.48h-2.47v3Z"/><path d="M639,232.54c-3.8,0-6.94-2.32-6.94-7.42s3.19-7.53,7.06-7.53,6.94,2.33,6.94,7.42S642.89,232.54,639,232.54Zm.06-11.67c-1.37,0-2.49,1.12-2.49,4.25s1.12,4.26,2.49,4.26,2.49-1.12,2.49-4.26S640.45,220.87,639.08,220.87Z"/><path d="M652.85,232.54a13.6,13.6,0,0,1-5.32-1l.84-3.24a10.31,10.31,0,0,0,4.2,1.06c1.54,0,2.49-.51,2.49-1.43s-.84-1.37-3.39-1.37h-1.09v-3H652c2,0,2.83-.39,2.83-1.34s-.79-1.31-2-1.31a7.17,7.17,0,0,0-3.58,1.09l-.84-3.22a11.38,11.38,0,0,1,5.18-1.21c3.38,0,5.73,1.4,5.73,4a3.33,3.33,0,0,1-2.54,3.27,3.6,3.6,0,0,1,2.82,3.47C659.56,230.92,657,232.54,652.85,232.54Z"/><path d="M662.14,217.93h7.44c3.3,0,5.2,1.29,5.2,3.78a3.18,3.18,0,0,1-2.32,3.22,3.39,3.39,0,0,1,2.91,3.47c0,2.35-1.82,3.8-5.51,3.8h-7.72Zm6.29,5.85c1.4,0,2-.45,2-1.46s-.59-1.42-2-1.42H666.5v2.88Zm.53,5.62c1.49,0,2-.53,2-1.48s-.56-1.48-2-1.48H666.5v3Z"/><path d="M682.76,217.93v1.76a5.22,5.22,0,0,1,4.11-2.1c3.11,0,5.23,2.61,5.23,7.25,0,5-2.49,7.7-5.62,7.7a4.43,4.43,0,0,1-3.72-1.93v7.47h-4.51V217.93Zm0,4.56V228a3.42,3.42,0,0,0,2.35,1.15c1.42,0,2.49-1.12,2.49-3.95s-1-3.86-2.44-3.86A3.47,3.47,0,0,0,682.76,222.49Z"/><path d="M695.54,222.16l-.84-3.31a16.28,16.28,0,0,1,6.1-1.26c3.53,0,5.77,1.26,5.77,5.29V229c0,2.35.14,2.94.28,3.24H702.6a3.27,3.27,0,0,1-.37-1.51,5.33,5.33,0,0,1-4,1.85c-2.43,0-4.25-1.57-4.25-4.48s1.93-4.78,6.24-4.78a16.4,16.4,0,0,1,2,.11v-.17c0-1.59-.82-2.18-2.36-2.18A11.08,11.08,0,0,0,695.54,222.16Zm6.64,6.21v-2.44a6.27,6.27,0,0,0-1.32-.13c-1.88,0-2.52.61-2.52,1.81s.62,1.71,1.51,1.71A4.06,4.06,0,0,0,702.18,228.37Z"/><path d="M708.39,217.93h13.4v3.3h-4.45v11h-4.5v-11h-4.45Z"/><path d="M583.54,266.12a13.64,13.64,0,0,1-5.32-1l.84-3.25a10.19,10.19,0,0,0,4.2,1.06c1.54,0,2.49-.5,2.49-1.42s-.84-1.37-3.38-1.37h-1.1v-3h1.37c2,0,2.83-.39,2.83-1.34s-.78-1.32-2-1.32a7.3,7.3,0,0,0-3.58,1.09l-.84-3.21a11.28,11.28,0,0,1,5.18-1.21c3.39,0,5.74,1.4,5.74,4a3.34,3.34,0,0,1-2.55,3.27,3.6,3.6,0,0,1,2.83,3.47C590.26,264.49,587.68,266.12,583.54,266.12Z"/><path d="M593.59,255.73l-.84-3.3a16,16,0,0,1,6.1-1.26c3.52,0,5.76,1.26,5.76,5.29v6.07c0,2.35.14,2.94.28,3.25h-4.25a3.27,3.27,0,0,1-.37-1.51,5.37,5.37,0,0,1-4,1.85c-2.43,0-4.25-1.57-4.25-4.48s1.93-4.79,6.24-4.79a18.71,18.71,0,0,1,2,.11v-.16c0-1.6-.81-2.19-2.35-2.19A11.26,11.26,0,0,0,593.59,255.73Zm6.63,6.22v-2.44a6.21,6.21,0,0,0-1.32-.14c-1.87,0-2.52.62-2.52,1.82s.62,1.71,1.51,1.71A4,4,0,0,0,600.22,262Z"/><path d="M614,265.78a164.91,164.91,0,0,1,6.8-16.26h-8.31v-3.89h13.4v3.64a150.36,150.36,0,0,0-6.94,16.51Z"/><path d="M632.87,262.9h1c1.49-1.35,2.61-3.67,2.61-11.39h10.94V262.9h1.84v6.52H645.1v-3.64h-8v3.64h-4.2Zm5.68-.25h4.5v-7.84h-2.71C640.12,259.57,639.36,261.55,638.55,262.65Z"/><path d="M660.43,260.07h-4v5.71h-4.51V251.51h4.51v5.29h4v-5.29h4.5v14.27h-4.5Z"/><path d="M672.15,260c.34,2.29,1.65,3,3.36,3a10.69,10.69,0,0,0,4.2-1.06l.84,3.05a14.26,14.26,0,0,1-5.68,1.21c-4.48,0-7.34-2.44-7.34-7.25,0-5,3.11-7.7,7.2-7.7,3.75,0,6.21,2.27,6.21,7.05a13.22,13.22,0,0,1-.11,1.74Zm0-2.6h4.7c0-2.24-.93-3.11-2.19-3.11S672.26,255.26,672.1,257.36Z"/><path d="M696.86,265.78h-4.14v-8.09l-5.12,8.09h-4V251.51h4.14v8.08l5.12-8.08h4Zm-4.51-20.15h2.94c0,2.77-1.42,4.51-5,4.51s-5.07-1.74-5.07-4.51h3c0,1.34.56,2.41,2.1,2.41S692.35,247,692.35,245.63Z"/><path d="M588.63,289.17a4.83,4.83,0,0,0-2.66-1c-1.7,0-3,1.2-3,4.11s1.26,4.09,3.08,4.09a4.44,4.44,0,0,0,2.66-.92l.87,3.16a8.72,8.72,0,0,1-4.29,1.06c-4,0-6.83-2.46-6.83-7.27,0-5,3-7.67,7.2-7.67a7.12,7.12,0,0,1,3.8,1Z"/><path d="M601.47,287.35a5.85,5.85,0,0,1,4.34-2.1c3.11,0,5.32,2.66,5.32,7,0,5-2.94,7.47-6.77,7.47-4.23,0-7.17-3.05-7.17-10,0-7.73,3.61-10.61,8.62-10.61a15.48,15.48,0,0,0,3.86-.28v3.81a19.17,19.17,0,0,1-3.86.28C603.1,282.87,601.87,284.13,601.47,287.35Zm.23,2.72v.14c0,4.72,1.09,6.29,2.66,6.29,1.23,0,2.26-1,2.26-3.75s-1-3.8-2.43-3.8A3.73,3.73,0,0,0,601.7,290.07Z"/><path d="M614.49,289.31l-.84-3.3a16,16,0,0,1,6.1-1.26c3.52,0,5.76,1.26,5.76,5.29v6.07c0,2.35.14,2.94.28,3.25h-4.25a3.31,3.31,0,0,1-.37-1.51,5.36,5.36,0,0,1-4,1.84c-2.43,0-4.25-1.56-4.25-4.48s1.93-4.78,6.24-4.78a18.71,18.71,0,0,1,2,.11v-.17c0-1.59-.81-2.18-2.35-2.18A11.26,11.26,0,0,0,614.49,289.31Zm6.63,6.21v-2.43a5.62,5.62,0,0,0-1.32-.14c-1.87,0-2.52.61-2.52,1.82s.62,1.7,1.52,1.7A4,4,0,0,0,621.12,295.52Z"/><path d="M637.12,293.65h-4v5.71h-4.5V285.08h4.5v5.29h4v-5.29h4.51v14.28h-4.51Z"/><path d="M649.57,293.65v5.71h-4.5V285.08h4.5v5.71h.14a1.73,1.73,0,0,0,2-1.2l.67-1.34c1.15-2.3,2.07-3.33,5.46-3.33v3.24a1.74,1.74,0,0,0-2,1.21l-.64,1.34a2.82,2.82,0,0,1-2,1.48,4.24,4.24,0,0,1,3,2.44l2.43,4.73H654l-2-4c-.62-1.23-1-1.73-2.38-1.73Z"/><path d="M666.47,299.69c-3.8,0-6.94-2.32-6.94-7.41s3.19-7.53,7.06-7.53,6.93,2.32,6.93,7.41S670.34,299.69,666.47,299.69Zm.06-11.67c-1.37,0-2.49,1.12-2.49,4.26s1.12,4.25,2.49,4.25,2.49-1.12,2.49-4.25S667.9,288,666.53,288Z"/><path d="M676.07,285.08h7.44c3.31,0,5.21,1.29,5.21,3.78a3.18,3.18,0,0,1-2.32,3.22,3.4,3.4,0,0,1,2.91,3.47c0,2.35-1.82,3.81-5.52,3.81h-7.72Zm6.3,5.85c1.4,0,2-.44,2-1.45s-.58-1.43-2-1.43h-1.94v2.88Zm.53,5.63c1.48,0,2-.53,2-1.48s-.56-1.49-2-1.49h-2.47v3Z"/><path d="M701.51,289.17a4.86,4.86,0,0,0-2.66-1c-1.71,0-3,1.2-3,4.11s1.26,4.09,3.08,4.09a4.44,4.44,0,0,0,2.66-.92l.87,3.16a8.72,8.72,0,0,1-4.29,1.06c-4,0-6.82-2.46-6.82-7.27,0-5,3-7.67,7.19-7.67a7.12,7.12,0,0,1,3.8,1Z"/><path d="M709.25,293.65v5.71h-4.5V285.08h4.5v5.71h.14a1.73,1.73,0,0,0,2-1.2l.67-1.34c1.15-2.3,2.08-3.33,5.46-3.33v3.24a1.74,1.74,0,0,0-2,1.21l-.64,1.34a2.82,2.82,0,0,1-2,1.48,4.24,4.24,0,0,1,3,2.44l2.43,4.73h-4.64l-2-4c-.62-1.23-1-1.73-2.38-1.73Z"/><path d="M726.15,299.69c-3.8,0-6.94-2.32-6.94-7.41s3.19-7.53,7.06-7.53,6.94,2.32,6.94,7.41S730,299.69,726.15,299.69Zm.06-11.67c-1.37,0-2.49,1.12-2.49,4.26s1.12,4.25,2.49,4.25,2.49-1.12,2.49-4.25S727.58,288,726.21,288Z"/><path d="M749,299.36h-4.14v-8.09l-5.12,8.09h-4V285.08h4.14v8.09l5.12-8.09h4Zm-4.51-20.15h2.94c0,2.77-1.42,4.5-5,4.5s-5.06-1.73-5.06-4.5h3c0,1.34.56,2.4,2.09,2.4S744.45,280.55,744.45,279.21Z"/><path d="M589.17,318.66V322h-5.35v11h-4.51V318.66Z"/><path d="M591.63,322.89l-.84-3.3a16,16,0,0,1,6.1-1.26c3.52,0,5.76,1.26,5.76,5.28v6.08c0,2.35.14,2.94.28,3.24h-4.25a3.27,3.27,0,0,1-.37-1.51,5.33,5.33,0,0,1-4,1.85c-2.43,0-4.25-1.57-4.25-4.48S592,324,596.27,324a16.4,16.4,0,0,1,2,.11V324c0-1.59-.81-2.18-2.35-2.18A11.08,11.08,0,0,0,591.63,322.89Zm6.63,6.21v-2.43a5.62,5.62,0,0,0-1.32-.14c-1.87,0-2.52.61-2.52,1.81s.62,1.71,1.52,1.71A4,4,0,0,0,598.26,329.1Z"/><path d="M610.23,318.66v1.76a5.23,5.23,0,0,1,4.12-2.09c3.1,0,5.23,2.6,5.23,7.24,0,5-2.49,7.7-5.62,7.7a4.46,4.46,0,0,1-3.73-1.93v7.47h-4.5V318.66Zm0,4.56v5.46a3.45,3.45,0,0,0,2.35,1.15c1.43,0,2.49-1.12,2.49-3.95s-1-3.86-2.43-3.86A3.48,3.48,0,0,0,610.23,323.22Z"/><path d="M623,322.89l-.84-3.3a16.09,16.09,0,0,1,6.1-1.26c3.53,0,5.77,1.26,5.77,5.28v6.08c0,2.35.14,2.94.28,3.24h-4.26a3.18,3.18,0,0,1-.36-1.51,5.33,5.33,0,0,1-4,1.85c-2.44,0-4.26-1.57-4.26-4.48s1.94-4.78,6.25-4.78a16.24,16.24,0,0,1,2,.11V324c0-1.59-.81-2.18-2.35-2.18A11.08,11.08,0,0,0,623,322.89Zm6.63,6.21v-2.43a5.53,5.53,0,0,0-1.31-.14c-1.88,0-2.52.61-2.52,1.81s.61,1.71,1.51,1.71A4,4,0,0,0,629.65,329.1Z"/><path d="M645.66,327.22h-4v5.71h-4.51V318.66h4.51V324h4v-5.29h4.5v14.27h-4.5Z"/><path d="M652.34,318.66h13.41V322H661.3v11h-4.51V322h-4.45Z"/><path d="M681.11,332.93H677v-8.08l-5.12,8.08h-4V318.66H672v8.09l5.12-8.09h4Z"/><path d="M688.33,327.11c.33,2.3,1.65,3,3.35,3a10.69,10.69,0,0,0,4.2-1.06l.84,3.05a14.26,14.26,0,0,1-5.68,1.2c-4.48,0-7.33-2.43-7.33-7.25,0-5,3.1-7.69,7.19-7.69,3.75,0,6.21,2.26,6.21,7.05a13.18,13.18,0,0,1-.11,1.73Zm-.06-2.6H693c0-2.24-.92-3.11-2.18-3.11S688.44,322.41,688.27,324.51Z"/><path d="M713,332.93h-4.14v-8.08l-5.12,8.08h-3.95V318.66H704v8.09l5.12-8.09H713Zm-4.5-20.15h2.94c0,2.77-1.43,4.51-5,4.51s-5.07-1.74-5.07-4.51h3c0,1.35.56,2.41,2.1,2.41S708.53,314.13,708.53,312.78Z"/><line class="cls-2" x1="420.75" y1="332.92" x2="420.75" y2="337.92"/></g><g id="Layer_31" data-name="Layer 31"><line class="cls-2" x1="0.52" y1="92.96" x2="17.88" y2="89.27"/><line class="cls-2" x1="2.99" y1="51.88" x2="22.75" y2="58.63"/><line class="cls-2" x1="28.54" y1="18.36" x2="40.3" y2="32.61"/><line class="cls-2" x1="65.24" y1="0.49" x2="69.18" y2="20.3"/><line class="cls-2" x1="106.57" y1="5.41" x2="100.19" y2="21.32"/></g><g id="Layer_31_copy" data-name="Layer 31 copy"><line class="cls-2" x1="377.86" y1="579.4" x2="382.72" y2="562.33"/><line class="cls-2" x1="419" y1="579.74" x2="413.61" y2="559.56"/><line class="cls-2" x1="454.19" y1="556.52" x2="440.77" y2="543.82"/><line class="cls-2" x1="474.52" y1="521.12" x2="455.02" y2="515.85"/><line class="cls-2" x1="472.42" y1="479.56" x2="456.11" y2="484.84"/></g></g></g></svg>