<svg xmlns="http://www.w3.org/2000/svg" viewBox="0 0 548.45 359.42"><defs><style>.cls-1{fill:none;stroke:#282d33;}.cls-1,.cls-2,.cls-3{stroke-linejoin:round;stroke-width:5px;}.cls-2{fill:#7eecb6;}.cls-2,.cls-3{stroke:#231f20;}.cls-3{fill:#fff;}</style></defs><title>Ресурс 3</title><g id="Слой_2" data-name="Слой 2"><g id="_3" data-name="3"><path class="cls-1" d="M510.51,309.67V26.13A23.63,23.63,0,0,0,486.88,2.5H61.57A23.63,23.63,0,0,0,37.94,26.13V309.67"/><line class="cls-1" x1="104.83" y1="37.94" x2="69.38" y2="73.38"/><line class="cls-1" x1="149.9" y1="13.94" x2="55.38" y2="108.46"/><path class="cls-2" d="M333.3,309.67l-11.82,11.81H227l-11.82-11.81H2.5a47.25,47.25,0,0,0,47.26,47.25H498.69A47.25,47.25,0,0,0,546,309.67Z"/><path class="cls-1" d="M164.38,68.05l11.14,6.4L200.67,60M157.34,75.15l18.18,10.43,37.41-21.5"/><path class="cls-1" d="M218.62,76.53a30.53,30.53,0,0,1,1.74,10.28,31.86,31.86,0,0,1-1.74,10.44l-.79,2.14A32.9,32.9,0,0,1,211,109.67a31.94,31.94,0,0,1-10.28,6.8,31.61,31.61,0,0,1-12.57,2.61,31.26,31.26,0,0,1-12.58-2.61,33.48,33.48,0,0,1-10.2-6.8,31.43,31.43,0,0,1-6.88-10.28,32.52,32.52,0,0,1-2.53-12.58V84.68l19.61,11.15,41.36-23.72,1.74,4.42Z"/><path d="M251.09,84.2a9.8,9.8,0,0,1-5.16,1.44c-4.56,0-7.7-3-7.7-8.74,0-5.93,3.38-9.12,8.16-9.12A8.42,8.42,0,0,1,251,69.05l-.92,3.34A6.61,6.61,0,0,0,246.39,71c-2.4,0-4.25,1.71-4.25,5.76s1.82,5.69,4.32,5.69a6.26,6.26,0,0,0,3.72-1.34Z"/><path d="M256.18,75.05a5,5,0,0,1,3.72-1.8c2.66,0,4.56,2.28,4.56,6,0,4.27-2.52,6.41-5.81,6.41-3.62,0-6.14-2.62-6.14-8.62,0-6.63,3.09-9.1,7.39-9.1a13,13,0,0,0,3.31-.24V71a16.36,16.36,0,0,1-3.31.24C257.57,71.21,256.51,72.29,256.18,75.05Zm.19,2.33v.12c0,4.06.94,5.4,2.28,5.4,1.06,0,2-.86,2-3.22s-.87-3.26-2.09-3.26A3.21,3.21,0,0,0,256.37,77.38Z"/><path d="M269.93,80.36a2.6,2.6,0,0,0,2.88,2.54,9.22,9.22,0,0,0,3.6-.91l.72,2.61a12.24,12.24,0,0,1-4.87,1c-3.84,0-6.29-2.09-6.29-6.22,0-4.32,2.66-6.6,6.17-6.6,3.21,0,5.33,1.94,5.33,6.05a11.18,11.18,0,0,1-.1,1.49Zm-.05-2.24h4c0-1.92-.79-2.66-1.87-2.66S270,76.32,269.88,78.12Z"/><path d="M283.66,73.11v1.51a4.47,4.47,0,0,1,3.53-1.8c2.66,0,4.48,2.23,4.48,6.22,0,4.29-2.13,6.6-4.82,6.6A3.81,3.81,0,0,1,283.66,84v6.41h-3.87V73.11Zm0,3.91V81.7a2.91,2.91,0,0,0,2,1c1.23,0,2.14-1,2.14-3.38S287,76,285.72,76A2.93,2.93,0,0,0,283.66,77Z"/><path d="M296.83,75.05a5,5,0,0,1,3.72-1.8c2.67,0,4.56,2.28,4.56,6,0,4.27-2.52,6.41-5.8,6.41-3.63,0-6.15-2.62-6.15-8.62,0-6.63,3.1-9.1,7.39-9.1a13.1,13.1,0,0,0,3.32-.24V71a16.52,16.52,0,0,1-3.32.24C298.23,71.21,297.17,72.29,296.83,75.05Zm.2,2.33v.12c0,4.06.93,5.4,2.28,5.4,1.05,0,1.94-.86,1.94-3.22s-.86-3.26-2.09-3.26A3.19,3.19,0,0,0,297,77.38Z"/><path d="M308,76.73l-.72-2.83a13.82,13.82,0,0,1,5.24-1.08c3,0,4.94,1.08,4.94,4.54v5.2a7.69,7.69,0,0,0,.24,2.79H314a2.75,2.75,0,0,1-.31-1.3,4.62,4.62,0,0,1-3.46,1.59,3.5,3.5,0,0,1-3.65-3.84c0-2.57,1.66-4.11,5.36-4.11a13.56,13.56,0,0,1,1.7.1v-.15c0-1.37-.69-1.87-2-1.87A9.68,9.68,0,0,0,308,76.73Zm5.69,5.33V80a5.22,5.22,0,0,0-1.13-.12c-1.6,0-2.16.53-2.16,1.56s.53,1.47,1.3,1.47A3.42,3.42,0,0,0,313.68,82.06Z"/><path d="M327.41,80.45H324v4.9h-3.86V73.11H324v4.53h3.46V73.11h3.86V85.35h-3.86Z"/><path d="M338.09,80.45v4.9h-3.87V73.11h3.87V78h.12a1.48,1.48,0,0,0,1.68-1l.58-1.15c1-2,1.77-2.86,4.68-2.86v2.79a1.48,1.48,0,0,0-1.68,1l-.56,1.15a2.4,2.4,0,0,1-1.68,1.27,3.62,3.62,0,0,1,2.55,2.09l2.09,4.06h-4l-1.7-3.41c-.53-1.06-.89-1.49-2-1.49Z"/><path d="M239.16,114.15V96.87h11.38v3.26H243v3.46h2.83c3.91,0,6.26,1.75,6.26,5.28s-2.52,5.28-6.55,5.28Zm6.39-3c1.85,0,2.71-.69,2.71-2.23s-.86-2.23-2.71-2.23H243v4.46Z"/><path d="M265.61,114.15h-3.55v-6.94l-4.39,6.94h-3.39V101.91h3.55v6.93l4.4-6.93h3.38Z"/><path d="M272.19,114.44a11.62,11.62,0,0,1-4.56-.87l.72-2.78a8.71,8.71,0,0,0,3.6.91c1.32,0,2.13-.43,2.13-1.22s-.72-1.18-2.9-1.18h-.94v-2.55h1.18c1.7,0,2.42-.33,2.42-1.15s-.67-1.13-1.7-1.13a6.2,6.2,0,0,0-3.07.94l-.72-2.76a9.76,9.76,0,0,1,4.44-1c2.9,0,4.92,1.2,4.92,3.41a2.87,2.87,0,0,1-2.19,2.81,3.08,3.08,0,0,1,2.43,3C278,113,275.74,114.44,272.19,114.44Z"/><path d="M287.47,109.25H284v4.9h-3.87V101.91H284v4.53h3.45v-4.53h3.87v12.24h-3.87Z"/><path d="M297.53,109.15a2.6,2.6,0,0,0,2.88,2.55,9.22,9.22,0,0,0,3.6-.91l.72,2.61a12.24,12.24,0,0,1-4.87,1c-3.84,0-6.29-2.09-6.29-6.22,0-4.32,2.66-6.6,6.17-6.6,3.21,0,5.33,1.94,5.33,6a11,11,0,0,1-.1,1.48Zm0-2.23h4c0-1.92-.79-2.66-1.87-2.66S297.63,105.12,297.48,106.92Z"/><path d="M315.48,105.41a4.1,4.1,0,0,0-2.28-.84c-1.46,0-2.57,1-2.57,3.53s1.08,3.5,2.64,3.5a3.77,3.77,0,0,0,2.28-.79l.75,2.71a7.32,7.32,0,0,1-3.67.92c-3.48,0-5.86-2.12-5.86-6.25s2.54-6.57,6.17-6.57a6.06,6.06,0,0,1,3.26.84Z"/><path d="M330.72,114.44c-4.46,0-7.73-3.08-7.73-8.89s3.32-9,7.83-9,7.73,3.07,7.73,8.88S335.23,114.44,330.72,114.44Zm0-14.6c-2.18,0-3.86,1.59-3.86,5.71s1.68,5.72,3.86,5.72,3.86-1.59,3.86-5.72S333,99.84,330.77,99.84Z"/><path d="M348.22,109.25h-3.46v4.9H340.9V101.91h3.86v4.53h3.46v-4.53h3.86v12.24h-3.86Z"/><path d="M366.36,101.91v12.24h-3.84v-9.41h-2.66c-.27,7.49-1.37,9.55-5.24,9.55a10.41,10.41,0,0,1-1.05-.05v-2.68a5.1,5.1,0,0,0,.57,0c1.92,0,2.14-2.66,2.36-9.69Z"/><path d="M370,105.53l-.72-2.83a13.77,13.77,0,0,1,5.23-1.08c3,0,4.95,1.08,4.95,4.53v5.21a7.69,7.69,0,0,0,.24,2.79H376a2.75,2.75,0,0,1-.31-1.3,4.62,4.62,0,0,1-3.46,1.59,3.5,3.5,0,0,1-3.65-3.84c0-2.57,1.66-4.11,5.35-4.11a13.6,13.6,0,0,1,1.71.1v-.15c0-1.37-.7-1.87-2-1.87A9.68,9.68,0,0,0,370,105.53Zm5.69,5.33v-2.09a5.22,5.22,0,0,0-1.13-.12c-1.61,0-2.16.53-2.16,1.56s.53,1.47,1.3,1.47A3.44,3.44,0,0,0,375.65,110.86Z"/><path d="M393.38,114.15h-3.55v-6.94l-4.39,6.94h-3.38V101.91h3.55v6.93l4.39-6.93h3.38Zm-3.86-17.28H392c0,2.37-1.22,3.86-4.32,3.86s-4.34-1.49-4.34-3.86h2.54c0,1.15.48,2.06,1.8,2.06S389.52,98,389.52,96.87Z"/><path d="M403.66,109.25H400.2v4.9h-3.87V101.91h3.87v4.53h3.46v-4.53h3.86v12.24h-3.86Z"/><path d="M186.8,182.63h6.82c4.18,0,6.65,1.61,6.65,5a4.06,4.06,0,0,1-2.7,4.13,4.36,4.36,0,0,1,3.48,4.5c0,3.17-2.29,5.07-7.05,5.07h-7.2Zm6.53,7.8c1.9,0,2.75-.68,2.75-2.27s-.85-2.23-2.75-2.23H191v4.5Zm.65,7.75c2,0,2.89-.71,2.89-2.37s-.92-2.37-2.89-2.37h-3v4.74Z"/><path d="M211.63,201.66c-4.83,0-8.37-3.33-8.37-9.62s3.59-9.73,8.48-9.73,8.37,3.33,8.37,9.63S216.52,201.66,211.63,201.66Zm.05-15.81c-2.36,0-4.18,1.72-4.18,6.19s1.82,6.19,4.18,6.19,4.19-1.72,4.19-6.19S214.05,185.85,211.68,185.85Z"/><path d="M226.89,190.19c2,0,3.49-.59,3.49-2.23,0-1.48-1.17-2.11-2.73-2.11a7.75,7.75,0,0,0-4.32,1.54l-1-3.44a11.52,11.52,0,0,1,5.91-1.64c3.74,0,6.37,1.83,6.37,5a4.49,4.49,0,0,1-3.31,4.42,4.69,4.69,0,0,1,3.57,4.58c0,3.25-2.84,5.33-7.34,5.33a13.85,13.85,0,0,1-6-1.33l1-3.51a10.79,10.79,0,0,0,4.89,1.43c2,0,3.2-.85,3.2-2.31s-1.35-2.42-3.77-2.42h-1.72v-3.33Z"/><path d="M237.87,182.63h6.81c4.19,0,6.65,1.61,6.65,5a4.06,4.06,0,0,1-2.7,4.13,4.37,4.37,0,0,1,3.49,4.5c0,3.17-2.29,5.07-7.05,5.07h-7.2Zm6.52,7.8c1.9,0,2.76-.68,2.76-2.27s-.86-2.23-2.76-2.23H242v4.5Zm.65,7.75c2,0,2.89-.71,2.89-2.37s-.91-2.37-2.89-2.37h-3v4.74Z"/><path d="M255.34,182.63h7c4.39,0,7,2,7,6s-2.76,6-7.33,6h-2.53v6.66h-4.18Zm4.18,8.73h2.53c2.13,0,3.14-.83,3.14-2.62s-1-2.66-3.14-2.66h-2.53Z"/><path d="M286.57,201.35h-4.45l-1.09-3.8h-6.27l-1.09,3.8h-4.29l6.16-18.72h5Zm-10.9-6.95h4.45l-2.21-7.74Z"/><path d="M291.27,186.16h-5v-3.53h14.17v3.53h-5v15.19h-4.24Z"/><path d="M308.69,182.63h4.24V190h6.32v-7.38h4.23v18.72h-4.23v-7.8h-6.32v7.8h-4.24Z"/><path d="M326,198.18h1.4c1-1.2,2.62-3.64,2.91-10.22l.24-5.33h12.32v15.55h2.18v7.17h-3.95v-4H330v4H326Zm8.39-10.28c-.28,6.4-1.53,8.74-2.41,10h6.65V186.16h-4.16Z"/><path d="M360.92,200.1a10.6,10.6,0,0,1-5.59,1.56c-4.94,0-8.34-3.25-8.34-9.47,0-6.42,3.66-9.88,8.84-9.88a9.08,9.08,0,0,1,5,1.38l-1,3.62a7.19,7.19,0,0,0-4-1.46c-2.6,0-4.6,1.85-4.6,6.24s2,6.16,4.68,6.16a6.79,6.79,0,0,0,4-1.45Z"/><path d="M186.17,213.83H201v18.72h-4.24V217.36H190.4v15.19h-4.23Z"/><path d="M212.32,232.86c-4.83,0-8.37-3.33-8.37-9.62s3.59-9.72,8.48-9.72,8.37,3.32,8.37,9.62S217.21,232.86,212.32,232.86Zm.05-15.81c-2.36,0-4.18,1.72-4.18,6.19s1.82,6.19,4.18,6.19,4.19-1.72,4.19-6.19S214.74,217.05,212.37,217.05Z"/><path d="M230.7,221.47h7.08c-.45-3.12-2.19-4.42-4.45-4.42a6.36,6.36,0,0,0-3.88,1.46l-1-3.44a10.56,10.56,0,0,1,5.51-1.55c4.81,0,8.16,3.32,8.16,9.49,0,6.44-3.69,9.85-8.86,9.85a9.54,9.54,0,0,1-5.07-1.35l1-3.51a7.35,7.35,0,0,0,4,1.45c2.28,0,4.13-1.37,4.57-4.65h-7.1Z"/><path d="M255.87,232.55l-2.65-5.36c-.86-1.71-1.46-2.44-3.28-2.44h-.57v7.8h-4.24V213.83h4.24v7.59h.6c1.64,0,2.08-.44,2.57-1.61l.78-1.8c1.3-3,2.39-4.34,6.42-4.34V217c-1.66,0-2.1.5-2.59,1.62l-.78,1.79a4.28,4.28,0,0,1-2.71,2.65,5.69,5.69,0,0,1,3.77,3.46l3.1,6.06Z"/><path d="M275.19,231.3a10.66,10.66,0,0,1-5.59,1.56c-4.94,0-8.35-3.25-8.35-9.46,0-6.43,3.67-9.88,8.84-9.88a9.11,9.11,0,0,1,5,1.37l-1,3.62a7.24,7.24,0,0,0-4-1.46c-2.6,0-4.6,1.85-4.6,6.24s2,6.16,4.68,6.16a6.76,6.76,0,0,0,4-1.45Z"/><path d="M277.92,213.83h14.79v18.72h-4.23V217.36h-6.32v15.19h-4.24Z"/><path d="M304.07,232.86c-4.83,0-8.37-3.33-8.37-9.62s3.59-9.72,8.48-9.72,8.37,3.32,8.37,9.62S309,232.86,304.07,232.86Zm.06-15.81c-2.37,0-4.19,1.72-4.19,6.19s1.82,6.19,4.19,6.19,4.18-1.72,4.18-6.19S306.49,217.05,304.13,217.05Z"/><path d="M315.51,213.83h7c4.4,0,7,2,7,6s-2.76,6-7.34,6H319.7v6.66h-4.19Zm4.19,8.73h2.52c2.14,0,3.15-.83,3.15-2.62s-1-2.66-3.15-2.66H319.7Z"/><path d="M335.72,217.36h-5v-3.53h14.17v3.53h-5v15.19h-4.23Z"/><path d="M345.65,213.83h4.29l4,9.23,4-9.23h4.13l-5.61,12.5c-2.21,4.89-4.06,6.37-8,6.37a15.72,15.72,0,0,1-1.95-.1v-3.46a11.47,11.47,0,0,0,1.85.16c2,0,2.91-.6,4-3h-1.14Z"/><rect class="cls-1" x="112.98" y="156.34" width="322.53" height="104"/><g id="Layer_16" data-name="Layer 16"><path class="cls-3" d="M439.12,291.42l-57.9-42.22v71.57c0,2.16,1.74,2.91,3.47,1.23l16.18-15.7,15.65,27.64c1.32,2.15,4.41,2.62,6.91,1.05l6.54-4.13c2.45-1.54,3.42-4.48,2.19-6.63l-15.06-26.1h19.71C441.34,298.05,442.12,293.35,439.12,291.42Z"/></g></g></g></svg>