<svg xmlns="http://www.w3.org/2000/svg" viewBox="0 0 1162.28 677.43"><defs><style>.cls-1{fill:none;}.cls-1,.cls-7{stroke:#282d33;}.cls-1,.cls-7,.cls-8,.cls-9{stroke-linejoin:round;stroke-width:5px;}.cls-2{font-size:21.63px;font-family:SeroPro-Bold, Sero Pro;font-weight:700;}.cls-3,.cls-7{fill:#fff;}.cls-4{fill:#282d33;}.cls-5,.cls-8{fill:#7fcb2a;}.cls-6,.cls-9{fill:#7eecb6;}.cls-8,.cls-9{stroke:#231f20;}</style></defs><title>Ресурс 8</title><g id="Слой_2" data-name="Слой 2"><g id="Layer_50" data-name="Layer 50"><polyline class="cls-1" points="193.89 386.95 126.69 357.74 59.49 386.95"/><line class="cls-1" x1="190.97" y1="398.64" x2="62.42" y2="398.64"/><polyline class="cls-1" points="82.87 454.15 82.87 410.33 65.34 410.33 65.34 465.84"/><line class="cls-1" x1="77.02" y1="462.92" x2="176.36" y2="462.92"/><line class="cls-1" x1="62.42" y1="474.6" x2="190.97" y2="474.6"/><line class="cls-1" x1="65.34" y1="424.93" x2="74.1" y2="424.93"/><line class="cls-1" x1="65.34" y1="439.54" x2="74.1" y2="439.54"/><line class="cls-1" x1="65.34" y1="454.15" x2="74.1" y2="454.15"/><polyline class="cls-1" points="170.51 454.15 170.51 410.33 188.04 410.33 188.04 465.84"/><line class="cls-1" x1="188.05" y1="424.93" x2="179.28" y2="424.93"/><line class="cls-1" x1="188.05" y1="439.54" x2="179.28" y2="439.54"/><line class="cls-1" x1="188.05" y1="454.15" x2="179.28" y2="454.15"/><path class="cls-1" d="M94.55,454.15v-38a5.85,5.85,0,0,1,11.69,0v38"/><path class="cls-1" d="M120.85,454.15v-38a5.84,5.84,0,0,1,11.68,0v38"/><path class="cls-1" d="M147.14,454.15v-38a5.85,5.85,0,0,1,11.69,0v38"/><text class="cls-2" transform="translate(101.5 389.12)">ФНС</text><circle class="cls-1" cx="131.14" cy="426.97" r="128.64"/><circle class="cls-1" cx="600.87" cy="131.14" r="128.64"/><g id="Layer_53" data-name="Layer 53"><g id="man"><path class="cls-3" d="M1084,431.51V417.19c0-6.33-5.8-11.46-13-11.46h-68.59c-7.15,0-13,5.13-13,11.46v14.32"/><path class="cls-1" d="M1084,434.43V417.19c0-7.5-6.77-13.6-15.08-13.6h-64.21c-8.32,0-15.08,6.1-15.08,13.6v21.63"/><path class="cls-3" d="M1030.49,397.72c5.74.06,11.45.36,17.16,0v8.1l-10.88,6.28-10.87-6.28v-8.14Z"/><path class="cls-4" d="M1028,397.72v6.9l8.73,5,8.74-5v-6.77c1.43-.05,2.85-.13,4.28-.25v9.49l-13,7.51-13-7.51v-9.38C1025.19,397.7,1026.61,397.71,1028,397.72Z"/><polygon class="cls-5" points="1039.76 422.87 1042.77 417.66 1039.76 412.45 1033.75 412.45 1030.74 417.66 1033.75 422.87 1039.76 422.87"/><path class="cls-4" d="M1028.27,417.66l4.24-7.35H1041l4.24,7.35L1041,425h-8.49Zm12,0-1.77-3.07H1035l-1.77,3.07,1.77,3.07h3.55Z"/><polyline class="cls-5" points="1049.62 480.29 1039.76 422.88 1033.75 422.88 1022.78 481.15"/><polyline class="cls-5" points="1022.78 481.15 1039.63 492.65 1049.62 481.61 1039.34 431.51"/><polygon class="cls-4" points="1033.49 433.2 1035.49 425.02 1038.02 425.02 1039.69 433.2 1043.63 432.29 1041.51 420.74 1032 420.74 1029.71 431.94 1033.49 433.2"/><polygon class="cls-3" points="1048.82 420.4 1036.79 412.45 1047.87 406.05 1048.82 420.4"/><path class="cls-4" d="M1032.72,412.32l17.06-9.84,1.46,22.08Zm8.13.25,5.55,3.67-.44-6.62Z"/><polygon class="cls-3" points="1024.69 420.4 1036.72 412.45 1025.64 406.05 1024.69 420.4"/><path class="cls-4" d="M1023.73,402.48l17.06,9.84-18.52,12.24Zm3.82,7.14-.44,6.62,5.55-3.67Z"/><line class="cls-1" x1="1002.84" y1="501.94" x2="1002.84" y2="426.77"/><line class="cls-1" x1="1070.38" y1="427.62" x2="1071.84" y2="499.1"/><polyline class="cls-1" points="1031.81 431.51 1024.35 482.27 1036.42 494.2 1047.86 481.61 1041.36 430.7"/><line class="cls-1" x1="1015.13" y1="495.36" x2="1057.5" y2="495.36"/><line class="cls-1" x1="1002.84" y1="501.94" x2="1002.84" y2="495.36"/><line class="cls-1" x1="1057.17" y1="501.94" x2="1016.76" y2="501.94"/><path class="cls-1" d="M1017.4,495.36c14.48-.06,26.26-.06,40.73,0"/><polyline class="cls-1" points="1084.02 431.51 1084.02 503.7 1071.84 503.7"/><polyline class="cls-1" points="989.69 430.64 989.89 503.7 1003.37 503.7"/></g><path class="cls-3" d="M1010.92,373.6a25.66,25.66,0,0,0,25.66,25.66h0a25.66,25.66,0,0,0,25.67-25.66V359.54a25.66,25.66,0,0,0-25.66-25.66h0a25.66,25.66,0,0,0-25.67,25.66Z"/><path class="cls-4" d="M1008.76,373.6V359.54a27.83,27.83,0,0,1,55.65,0V373.6a27.83,27.83,0,0,1-55.65,0Zm4.32-14.06V373.6a23.51,23.51,0,1,0,47,0V359.54a23.51,23.51,0,0,0-47,0Z"/><path class="cls-3" d="M1014.19,371a5.07,5.07,0,0,0-5.07-5.07h-.42a5.07,5.07,0,0,0-5.07,5.07v6.15a5.07,5.07,0,0,0,5.07,5.07h.42a5.07,5.07,0,0,0,4.64-3"/><path class="cls-4" d="M1008.7,384.39h.42a7.22,7.22,0,0,0,6.61-4.31l-4-1.74a2.91,2.91,0,0,1-2.66,1.73h-.42a2.91,2.91,0,0,1-2.91-2.91V371a2.91,2.91,0,0,1,2.91-2.91h.42A2.91,2.91,0,0,1,1012,371h4.32a7.23,7.23,0,0,0-7.23-7.23h-.42a7.23,7.23,0,0,0-7.23,7.23v6.15A7.23,7.23,0,0,0,1008.7,384.39Z"/><path class="cls-3" d="M1059,365.94c2.73.29,7.17,2.56,7.17,5.37v6.47c0,2.8-4.44,5.08-7.17,5.36Z"/><path class="cls-4" d="M1056.87,363.55l2.39.24c3.72.39,9.1,3.29,9.1,7.52v6.47c0,4.23-5.38,7.12-9.1,7.51l-2.39.25Zm4.32,16.74c1.53-.7,2.85-1.77,2.85-2.51v-6.47c0-.7-1.28-1.8-2.85-2.52Z"/><rect class="cls-4" x="1045.12" y="366.81" width="4.68" height="4.32"/><rect class="cls-4" x="1025.7" y="366.81" width="4.68" height="4.32"/><path class="cls-3" d="M1042.11,387a6.09,6.09,0,0,1-11.06,0"/><path class="cls-6" d="M1012,340.33h3a5.86,5.86,0,0,1-.69-5.09c1.5-3.89,8-5,14.47-2.49.73.29,1.42.61,2.09.95a6.15,6.15,0,0,1,.06-4c1.79-4.61,9.48-5.94,17.18-2.95s12.35,9,10.74,13.58h2.27a5.4,5.4,0,0,1,5.4,5.4v22.52l-.27.68H1059V349.29c0-.28,0-.54,0-.82a113.47,113.47,0,0,1-44.77,0c0,.28-.05.54-.05.82v19.64h-7.24c-.1-.22-.19-.46-.28-.68V345.73A5.4,5.4,0,0,1,1012,340.33Z"/><path class="cls-4" d="M1004.92,369.78l-.21-.52-.24-.6V345.73a7.55,7.55,0,0,1,7.47-7.55,7.17,7.17,0,0,1,.35-3.72c1.27-3.26,4.89-5.21,9.69-5.21a20.62,20.62,0,0,1,6.54,1.12,8,8,0,0,1,.4-1.45c1.44-3.71,5.6-5.93,11.12-5.93a25,25,0,0,1,8.85,1.74c7.33,2.85,12.22,8.35,12.42,13.45a7.57,7.57,0,0,1,7.37,7.55v22.93l-.24.61-.21.51-.56,1.31h-10.83v-20a117,117,0,0,1-40.54,0v20h-10.83Zm7.08-20.49c0-.21,0-.42,0-.63l.11-2.83,2.51.53a111.49,111.49,0,0,0,43.88,0l2.51-.53.1,2.56v.27q0,.31,0,.63v17.49h3.2v-21a3.25,3.25,0,0,0-3.24-3.24h-5.31l1-2.87c1.07-3.05-2.49-8.15-9.48-10.86a20.47,20.47,0,0,0-7.29-1.45c-3.62,0-6.34,1.22-7.1,3.17a4,4,0,0,0,0,2.61l1.43,4.87-4.5-2.34a19.24,19.24,0,0,0-1.87-.86,17,17,0,0,0-6-1.19c-2.91,0-5.07.94-5.66,2.45a3.93,3.93,0,0,0,.55,3.24l1.86,3.23H1012a3.25,3.25,0,0,0-3.24,3.24v21H1012Z"/><polyline class="cls-1" points="1056.87 404.92 1057.46 510.34 1071.78 510.34"/><polyline class="cls-1" points="1016.35 403.9 1016.35 509.68 1003.37 509.68"/><path class="cls-1" d="M1028,380.72a20.65,20.65,0,0,0,17-.16"/><path class="cls-1" d="M1031.93,361.46s-4.58-3.65-8,.61"/><path class="cls-1" d="M1051.67,361.46s-4.57-3.65-8,.61"/><circle class="cls-4" cx="1028.35" cy="368.82" r="2.03"/><rect class="cls-7" x="968.86" y="436.99" width="130.49" height="76.22"/><rect class="cls-7" x="968.86" y="428.21" width="130.49" height="76.22"/><circle class="cls-8" cx="1039.92" cy="467.59" r="10.99"/><path class="cls-8" d="M1042.21,451.2s11.74,1.85,16.47-6.7C1058.68,444.5,1046.56,437.77,1042.21,451.2Z"/></g></g><g id="Layer_51" data-name="Layer 51"><line class="cls-1" x1="703.5" y1="516.92" x2="737.7" y2="516.92"/><line class="cls-1" x1="762.83" y1="516.92" x2="776.68" y2="516.92"/><line class="cls-1" x1="415.66" y1="516.46" x2="453.74" y2="516.46"/><line class="cls-1" x1="470.81" y1="516.46" x2="481.44" y2="516.46"/><line class="cls-1" x1="550.03" y1="344.34" x2="560.65" y2="349.88"/><line class="cls-1" x1="568.96" y1="324.02" x2="576.35" y2="336.03"/><line class="cls-1" x1="596.66" y1="317.56" x2="596.66" y2="330.03"/><line class="cls-1" x1="623.44" y1="324.02" x2="616.98" y2="336.03"/><line class="cls-1" x1="642.83" y1="344.34" x2="632.67" y2="349.88"/><polyline class="cls-1" points="692.17 394.36 598.97 353.84 505.77 394.36"/><line class="cls-1" x1="688.12" y1="410.57" x2="509.82" y2="410.57"/><polyline class="cls-1" points="538.19 497.56 538.19 426.78 513.88 426.78 513.88 503.77"/><line class="cls-1" x1="509.82" y1="515.92" x2="688.12" y2="515.92"/><polyline class="cls-1" points="659.75 497.56 659.75 426.78 684.06 426.78 684.06 503.77"/><path class="cls-1" d="M554.4,497.56V434.88a8.11,8.11,0,0,1,16.21,0v62.68"/><path class="cls-1" d="M590.87,497.56V434.88a8.1,8.1,0,1,1,16.2,0v62.68"/><path class="cls-1" d="M627.33,497.56V434.88a8.11,8.11,0,0,1,16.21,0v62.68"/><path class="cls-9" d="M420.87,367a15.71,15.71,0,0,0-4.87.77,16,16,0,0,0-15.72-19.07,15.89,15.89,0,0,0-10.45,3.91,22.88,22.88,0,0,0-43.4,14.46,16,16,0,0,0,1.24,32h73.2a16,16,0,1,0,0-32Z"/><path class="cls-1" d="M346.43,367.09c.41,0,.82,0,1.24,0a16,16,0,0,1,8.46,2.41"/><path class="cls-1" d="M389.86,352.63a22.44,22.44,0,0,1,1.17,5.26"/><path class="cls-1" d="M416,367.81a15.92,15.92,0,0,1-2,5.2"/><path class="cls-1" d="M385,331.4a16,16,0,0,1,23.11-2.29,22.87,22.87,0,0,1,43.39,14.46,16,16,0,0,1-1.23,32h-6.84"/><path class="cls-1" d="M451.53,343.55c-.41,0-.82,0-1.23,0a15.92,15.92,0,0,0-8.46,2.41"/><path class="cls-1" d="M408.1,329.09a23.06,23.06,0,0,0-1.16,5.26"/><path class="cls-1" d="M793.71,375.29a11.29,11.29,0,0,0-3.46.54,11.91,11.91,0,0,0,.21-2.17,11.38,11.38,0,0,0-18.82-8.61,16.26,16.26,0,0,0-30.84,10.28,11.38,11.38,0,0,0,.88,22.72h52a11.38,11.38,0,0,0,0-22.76Z"/><path class="cls-1" d="M740.8,375.32c.29,0,.58,0,.88,0a11.36,11.36,0,0,1,6,1.71"/><path class="cls-1" d="M771.67,365a16,16,0,0,1,.83,3.74"/><path class="cls-1" d="M790.25,375.83a11.07,11.07,0,0,1-1.42,3.7"/><path class="cls-1" d="M585.07,371.4l6.43,3.69L606,366.74"/><path class="cls-1" d="M616.37,375.3a17.55,17.55,0,0,1,1,5.93,18.38,18.38,0,0,1-1,6l-.45,1.23a19.06,19.06,0,0,1-4,5.93,19.2,19.2,0,0,1-13.19,5.43,18.12,18.12,0,0,1-7.26-1.5,19,19,0,0,1-5.88-3.93,17.82,17.82,0,0,1-4-5.93,18.59,18.59,0,0,1-1.46-7.25V380l11.31,6.43,23.87-13.69,1,2.56Z"/><polyline class="cls-1" points="533.69 124.29 533.69 118.45 548.29 92.16 554.13 92.16"/><polyline class="cls-1" points="668.04 124.29 668.04 118.45 653.44 92.16 647.6 92.16"/><path class="cls-1" d="M630.07,124.29l-8.76,8.76H580.42l-8.76-8.76h-38v55.5H668v-55.5Z"/><polyline class="cls-1" points="554.13 118.45 554.13 103.85 647.6 103.85 647.6 118.45"/><polyline class="cls-1" points="562.89 98 562.89 89.24 638.84 89.24 638.84 98"/><polyline class="cls-1" points="568.74 83.4 568.74 74.64 633 74.64 633 83.4"/><path class="cls-1" d="M612.55,162.26H589.18a2.92,2.92,0,0,1-2.92-2.92V147.66h29.21v11.68A2.92,2.92,0,0,1,612.55,162.26Z"/></g><g id="Layer_54" data-name="Layer 54"><circle class="cls-1" cx="1031.14" cy="426.97" r="128.64"/></g><g id="Layer_55" data-name="Layer 55"><polyline class="cls-1" points="397.51 643.39 412.77 628.12 397.51 612.86"/><line class="cls-1" x1="387.64" y1="628.12" x2="212.13" y2="628.12"/><line class="cls-1" x1="124.93" y1="601.07" x2="124.93" y2="605.29"/><line class="cls-1" x1="95.38" y1="620.07" x2="95.38" y2="624.29"/><polygon class="cls-1" points="118.6 628.37 83.85 604.89 99.49 595.46 108.68 601.23 135.48 618.05 135.48 651.8 118.6 662.69 118.6 628.37"/><path class="cls-1" d="M128.52,613.68,140.59,606c-1.83-1.16-2.21-2.8,0-4.19l-13.28-8.4a6.21,6.21,0,0,1-6.64,0l-12.15,7.68"/><path class="cls-1" d="M92.9,611l-13.2,8.34c2.21,1.4,1.85,3,0,4.19L93,631.93a6.18,6.18,0,0,1,6.62,0L112.14,624"/><polyline class="cls-1" points="118.6 628.58 95.38 643.28 61.62 622.18 86.58 606.73"/><polyline class="cls-1" points="101.84 596.92 124.93 582.08 158.69 603.18 135.36 617.96"/><polyline class="cls-1" points="118.6 644.16 95.38 658.83 61.62 635.62"/><line class="cls-1" x1="158.69" y1="618.73" x2="135.49" y2="633.43"/><polyline class="cls-1" points="118.6 660.23 95.38 674.93 61.62 651.72"/><line class="cls-1" x1="158.69" y1="634.84" x2="135.48" y2="649.54"/></g></g></svg>