<svg xmlns="http://www.w3.org/2000/svg" viewBox="0 0 548.45 359.42"><defs><style>.cls-1{fill:none;stroke:#282d33;}.cls-1,.cls-2{stroke-linejoin:round;stroke-width:5px;}.cls-2{fill:#7eecb6;stroke:#231f20;}</style></defs><title>Ресурс 11</title><g id="Слой_2" data-name="Слой 2"><g id="Layer_58" data-name="Layer 58"><path class="cls-1" d="M510.51,309.67V26.13A23.63,23.63,0,0,0,486.88,2.5H61.57A23.63,23.63,0,0,0,37.94,26.13V309.67"/><line class="cls-1" x1="104.83" y1="37.94" x2="69.38" y2="73.38"/><line class="cls-1" x1="149.9" y1="13.94" x2="55.38" y2="108.46"/><path class="cls-2" d="M333.3,309.67l-11.82,11.81H227l-11.82-11.81H2.5a47.25,47.25,0,0,0,47.26,47.25H498.69A47.25,47.25,0,0,0,546,309.67Z"/><path class="cls-1" d="M164.38,68.05l11.14,6.4L200.67,60M157.34,75.15l18.18,10.43,37.41-21.5"/><path class="cls-1" d="M218.62,76.53a30.53,30.53,0,0,1,1.74,10.28,31.86,31.86,0,0,1-1.74,10.44l-.79,2.14A32.9,32.9,0,0,1,211,109.67a31.94,31.94,0,0,1-10.28,6.8,31.61,31.61,0,0,1-12.57,2.61,31.26,31.26,0,0,1-12.58-2.61,33.48,33.48,0,0,1-10.2-6.8,31.43,31.43,0,0,1-6.88-10.28,32.52,32.52,0,0,1-2.53-12.58V84.68l19.61,11.15,41.36-23.72,1.74,4.42Z"/><path d="M251.09,84.2a9.8,9.8,0,0,1-5.16,1.44c-4.56,0-7.7-3-7.7-8.74,0-5.93,3.38-9.12,8.16-9.12A8.42,8.42,0,0,1,251,69.05l-.92,3.34A6.61,6.61,0,0,0,246.39,71c-2.4,0-4.25,1.71-4.25,5.76s1.82,5.69,4.32,5.69a6.26,6.26,0,0,0,3.72-1.34Z"/><path d="M256.18,75.05a5,5,0,0,1,3.72-1.8c2.66,0,4.56,2.28,4.56,6,0,4.27-2.52,6.41-5.81,6.41-3.62,0-6.14-2.62-6.14-8.62,0-6.63,3.09-9.1,7.39-9.1a13,13,0,0,0,3.31-.24V71a16.36,16.36,0,0,1-3.31.24C257.57,71.21,256.51,72.29,256.18,75.05Zm.19,2.33v.12c0,4.06.94,5.4,2.28,5.4,1.06,0,2-.87,2-3.22s-.87-3.26-2.09-3.26A3.21,3.21,0,0,0,256.37,77.38Z"/><path d="M269.93,80.35a2.6,2.6,0,0,0,2.88,2.55,9.22,9.22,0,0,0,3.6-.91l.72,2.61a12.24,12.24,0,0,1-4.87,1c-3.84,0-6.29-2.09-6.29-6.22,0-4.32,2.66-6.6,6.17-6.6,3.21,0,5.33,1.94,5.33,6.05a11,11,0,0,1-.1,1.48Zm-.05-2.23h4c0-1.92-.79-2.66-1.87-2.66S270,76.32,269.88,78.12Z"/><path d="M283.66,73.11v1.51a4.47,4.47,0,0,1,3.53-1.8c2.66,0,4.48,2.23,4.48,6.21,0,4.3-2.13,6.61-4.82,6.61A3.81,3.81,0,0,1,283.66,84v6.41h-3.87V73.11Zm0,3.91V81.7a2.91,2.91,0,0,0,2,1c1.23,0,2.14-1,2.14-3.38S287,76,285.72,76A2.93,2.93,0,0,0,283.66,77Z"/><path d="M296.83,75.05a5,5,0,0,1,3.72-1.8c2.67,0,4.56,2.28,4.56,6,0,4.27-2.52,6.41-5.8,6.41-3.63,0-6.15-2.62-6.15-8.62,0-6.63,3.1-9.1,7.39-9.1a13.1,13.1,0,0,0,3.32-.24V71a16.52,16.52,0,0,1-3.32.24C298.23,71.21,297.17,72.29,296.83,75.05Zm.2,2.33v.12c0,4.06.93,5.4,2.28,5.4,1.05,0,1.94-.87,1.94-3.22s-.86-3.26-2.09-3.26A3.19,3.19,0,0,0,297,77.38Z"/><path d="M308,76.73l-.72-2.83a13.82,13.82,0,0,1,5.24-1.08c3,0,4.94,1.08,4.94,4.53v5.21a7.69,7.69,0,0,0,.24,2.79H314a2.75,2.75,0,0,1-.31-1.3,4.62,4.62,0,0,1-3.46,1.59,3.5,3.5,0,0,1-3.65-3.84c0-2.57,1.66-4.11,5.36-4.11a13.56,13.56,0,0,1,1.7.1v-.15c0-1.37-.69-1.87-2-1.87A9.68,9.68,0,0,0,308,76.73Zm5.69,5.33V80a5.22,5.22,0,0,0-1.13-.12c-1.6,0-2.16.53-2.16,1.56s.53,1.47,1.3,1.47A3.42,3.42,0,0,0,313.68,82.06Z"/><path d="M327.41,80.45H324v4.9h-3.86V73.11H324v4.53h3.46V73.11h3.86V85.35h-3.86Z"/><path d="M338.09,80.45v4.9h-3.87V73.11h3.87V78h.12a1.48,1.48,0,0,0,1.68-1l.58-1.15c1-2,1.77-2.86,4.68-2.86v2.79a1.48,1.48,0,0,0-1.68,1l-.56,1.15a2.42,2.42,0,0,1-1.68,1.27,3.62,3.62,0,0,1,2.55,2.09l2.09,4.06h-4l-1.7-3.41c-.53-1.06-.89-1.49-2-1.49Z"/><path d="M239.16,114.15V96.87h11.38v3.26H243v3.46h2.83c3.91,0,6.26,1.75,6.26,5.28s-2.52,5.28-6.55,5.28Zm6.39-3c1.85,0,2.71-.69,2.71-2.23s-.86-2.23-2.71-2.23H243v4.46Z"/><path d="M265.61,114.15h-3.55v-6.94l-4.39,6.94h-3.39V101.91h3.55v6.93l4.4-6.93h3.38Z"/><path d="M272.19,114.44a11.62,11.62,0,0,1-4.56-.87l.72-2.78a8.71,8.71,0,0,0,3.6.91c1.32,0,2.13-.43,2.13-1.22s-.72-1.18-2.9-1.18h-.94v-2.55h1.18c1.7,0,2.42-.33,2.42-1.15s-.67-1.13-1.7-1.13a6.2,6.2,0,0,0-3.07.94l-.72-2.76a9.76,9.76,0,0,1,4.44-1c2.9,0,4.92,1.2,4.92,3.41a2.86,2.86,0,0,1-2.19,2.8,3.1,3.1,0,0,1,2.43,3C278,113,275.74,114.44,272.19,114.44Z"/><path d="M287.47,109.25H284v4.9h-3.87V101.91H284v4.53h3.45v-4.53h3.87v12.24h-3.87Z"/><path d="M297.53,109.16a2.6,2.6,0,0,0,2.88,2.54,9.22,9.22,0,0,0,3.6-.91l.72,2.61a12.24,12.24,0,0,1-4.87,1c-3.84,0-6.29-2.09-6.29-6.22,0-4.32,2.66-6.6,6.17-6.6,3.21,0,5.33,1.94,5.33,6a11.29,11.29,0,0,1-.1,1.49Zm0-2.24h4c0-1.92-.79-2.66-1.87-2.66S297.63,105.12,297.48,106.92Z"/><path d="M315.48,105.41a4.1,4.1,0,0,0-2.28-.84c-1.46,0-2.57,1-2.57,3.53s1.08,3.5,2.64,3.5a3.77,3.77,0,0,0,2.28-.79l.75,2.71a7.43,7.43,0,0,1-3.67.92c-3.48,0-5.86-2.12-5.86-6.25s2.54-6.57,6.17-6.57a6.06,6.06,0,0,1,3.26.84Z"/><path d="M330.72,114.44c-4.46,0-7.73-3.08-7.73-8.89s3.32-9,7.83-9,7.73,3.07,7.73,8.88S335.23,114.44,330.72,114.44Zm0-14.6c-2.18,0-3.86,1.59-3.86,5.71s1.68,5.72,3.86,5.72,3.86-1.59,3.86-5.72S333,99.84,330.77,99.84Z"/><path d="M348.22,109.25h-3.46v4.9H340.9V101.91h3.86v4.53h3.46v-4.53h3.86v12.24h-3.86Z"/><path d="M366.36,101.91v12.24h-3.84v-9.41h-2.66c-.27,7.49-1.37,9.55-5.24,9.55a10.41,10.41,0,0,1-1.05-.05v-2.68a5.1,5.1,0,0,0,.57,0c1.92,0,2.14-2.66,2.36-9.69Z"/><path d="M370,105.53l-.72-2.83a13.77,13.77,0,0,1,5.23-1.08c3,0,4.95,1.08,4.95,4.54v5.2a7.69,7.69,0,0,0,.24,2.79H376a2.75,2.75,0,0,1-.31-1.3,4.62,4.62,0,0,1-3.46,1.59,3.5,3.5,0,0,1-3.65-3.85c0-2.56,1.66-4.1,5.35-4.1a13.6,13.6,0,0,1,1.71.1v-.15c0-1.37-.7-1.87-2-1.87A9.68,9.68,0,0,0,370,105.53Zm5.69,5.33v-2.09a5.22,5.22,0,0,0-1.13-.12c-1.61,0-2.16.53-2.16,1.56s.53,1.46,1.3,1.46A3.43,3.43,0,0,0,375.65,110.86Z"/><path d="M393.38,114.15h-3.55v-6.94l-4.39,6.94h-3.38V101.91h3.55v6.93l4.39-6.93h3.38Zm-3.86-17.28H392c0,2.37-1.22,3.86-4.32,3.86s-4.34-1.49-4.34-3.86h2.54c0,1.15.48,2.06,1.8,2.06S389.52,98,389.52,96.87Z"/><path d="M403.66,109.25H400.2v4.9h-3.87V101.91h3.87v4.53h3.46v-4.53h3.86v12.24h-3.86Z"/><g id="Layer_59" data-name="Layer 59"><g id="surface1"><path d="M308.89,176.6l3.63-3.63,2.57,2.57-3.63,3.63Z"/><path d="M301.63,169.33l3.63-3.63,2.57,2.57-3.64,3.63Z"/><path d="M250,251.08a10.57,10.57,0,0,0,15,0l53.75-53.74a1.82,1.82,0,0,0,0-2.57l-4.17-4.17,20.52-20.51a1.82,1.82,0,0,0,0-2.57l-21.8-21.8a1.82,1.82,0,0,0-2.57,0l-20.52,20.51L286,162.07a1.82,1.82,0,0,0-2.57,0l-53.75,53.75a10.59,10.59,0,0,0,0,15Zm62-101.51,19.23,19.23-2.88,2.88-19.23-19.23ZM306.54,155l19.23,19.23L312,188,292.76,168.8Zm-74.26,63.36,52.46-52.46,30.13,30.13-52.46,52.47a7,7,0,0,1-9.84,0l-20.29-20.3A7,7,0,0,1,232.28,218.38Z"/><path d="M278,178.42l3.63-3.64,2.57,2.57L280.58,181Z"/><path d="M263.47,193l10.9-10.9,2.57,2.57L266,195.52Z"/></g></g></g></g></svg>