<svg width="510" height="147" viewBox="0 0 510 147" fill="none" xmlns="http://www.w3.org/2000/svg">
  <mask id="mask0" mask-type="alpha" maskUnits="userSpaceOnUse" x="0" y="0" width="510" height="147">
    <rect x="0.5" y="0.5" width="509" height="146" rx="2.5" fill="white" stroke="#E8E8E8"/>
  </mask>
    <g mask="url(#mask0)">
    <path d="M423.874 0.5H423.585L423.441 0.750418L403.567 35.2504L403.423 35.5L403.567 35.7496L423.441 70.2496L423.585 70.5H423.874H463.126H463.415L463.559 70.2496L483.433 35.7496L483.577 35.5L483.433 35.2504L463.559 0.750418L463.415 0.5H463.126H423.874Z" stroke="#EEEEEE"/>
    <path d="M423.874 70.5H423.585L423.441 70.7504L403.567 105.25L403.423 105.5L403.567 105.75L423.441 140.25L423.585 140.5H423.874H463.126H463.415L463.559 140.25L483.433 105.75L483.577 105.5L483.433 105.25L463.559 70.7504L463.415 70.5H463.126H423.874Z" stroke="#EEEEEE"/>
    <path d="M483.874 35.5H483.585L483.441 35.7504L463.567 70.2504L463.423 70.5L463.567 70.7496L483.441 105.25L483.585 105.5H483.874H523.126H523.415L523.559 105.25L543.433 70.7496L543.577 70.5L543.433 70.2504L523.559 35.7504L523.415 35.5H523.126H483.874Z" stroke="#EEEEEE"/>
    <path d="M363.874 35.5H363.585L363.441 35.7504L343.567 70.2504L343.423 70.5L343.567 70.7496L363.441 105.25L363.585 105.5H363.874H403.126H403.415L403.559 105.25L423.433 70.7496L423.577 70.5L423.433 70.2504L403.559 35.7504L403.415 35.5H403.126H363.874Z" stroke="#EEEEEE"/>
    <path d="M243.874 35.5H243.585L243.441 35.7504L223.567 70.2504L223.423 70.5L223.567 70.7496L243.441 105.25L243.585 105.5H243.874H283.126H283.415L283.559 105.25L303.433 70.7496L303.577 70.5L303.433 70.2504L283.559 35.7504L283.415 35.5H283.126H243.874Z" stroke="#EEEEEE"/>
    <path d="M183.874 70.5H183.585L183.441 70.7504L163.567 105.25L163.423 105.5L163.567 105.75L183.441 140.25L183.585 140.5H183.874H223.126H223.415L223.559 140.25L243.433 105.75L243.577 105.5L243.433 105.25L223.559 70.7504L223.415 70.5H223.126H183.874Z" stroke="#EEEEEE"/>
    <path d="M303.874 70.5H303.585L303.441 70.7504L283.567 105.25L283.423 105.5L283.567 105.75L303.441 140.25L303.585 140.5H303.874H343.126H343.415L343.559 140.25L363.433 105.75L363.577 105.5L363.433 105.25L343.559 70.7504L343.415 70.5H343.126H303.874Z" stroke="#EEEEEE"/>
    <path d="M460.642 6H426.358L409 35.5L426.358 65H460.642L478 35.5L460.642 6Z" fill="black" fill-opacity="0.06"/>
    <path d="M520.642 41H486.358L469 70.5L486.358 100H520.642L538 70.5L520.642 41Z" fill="black" fill-opacity="0.06"/>
    <path d="M400.642 110H366.358L349 139.5L366.358 169H400.642L418 139.5L400.642 110Z" fill="black" fill-opacity="0.06"/>
    <path d="M220.642 76H186.358L169 105.5L186.358 135H220.642L238 105.5L220.642 76Z" fill="black" fill-opacity="0.06"/>
    <path d="M123.874 105.5H123.585L123.441 105.75L103.567 140.25L103.423 140.5L103.567 140.75L123.441 175.25L123.585 175.5H123.874H163.126H163.415L163.559 175.25L183.433 140.75L183.577 140.5L183.433 140.25L163.559 105.75L163.415 105.5H163.126H123.874Z" stroke="#EEEEEE"/>
    <path d="M160.642 111H126.358L109 140.5L126.358 170H160.642L178 140.5L160.642 111Z" fill="black" fill-opacity="0.06"/>
    <path d="M123.874 35.5H123.585L123.441 35.7504L103.567 70.2504L103.423 70.5L103.567 70.7496L123.441 105.25L123.585 105.5H123.874H163.126H163.415L163.559 105.25L183.433 70.7496L183.577 70.5L183.433 70.2504L163.559 35.7504L163.415 35.5H163.126H123.874Z" stroke="#EEEEEE"/>
    <path d="M63.8742 70.5H63.5852L63.441 70.7504L43.5667 105.25L43.423 105.5L43.5667 105.75L63.441 140.25L63.5852 140.5H63.8742H103.126H103.415L103.559 140.25L123.433 105.75L123.577 105.5L123.433 105.25L103.559 70.7504L103.415 70.5H103.126H63.8742Z" stroke="#EEEEEE"/>
    <path d="M100.642 76H66.3585L49 105.5L66.3585 135H100.642L118 105.5L100.642 76Z" fill="black" fill-opacity="0.06"/>
    <path d="M63.8742 0.5H63.5852L63.441 0.750418L43.5667 35.2504L43.423 35.5L43.5667 35.7496L63.441 70.2496L63.5852 70.5H63.8742H103.126H103.415L103.559 70.2496L123.433 35.7496L123.577 35.5L123.433 35.2504L103.559 0.750418L103.415 0.5H103.126H63.8742Z" stroke="#EEEEEE"/>
    <path d="M100.642 6H66.3585L49 35.5L66.3585 65H100.642L118 35.5L100.642 6Z" fill="black" fill-opacity="0.06"/>
    <path d="M3.87421 35.5H3.58522L3.44096 35.7504L-16.4333 70.2504L-16.577 70.5L-16.4333 70.7496L3.44096 105.25L3.58522 105.5H3.87421H43.1258H43.4148L43.559 105.25L63.4333 70.7496L63.577 70.5L63.4333 70.2504L43.559 35.7504L43.4148 35.5H43.1258H3.87421Z" stroke="#EEEEEE"/>
    <path d="M40.6415 41H6.35849L-11 70.5L6.35849 100H40.6415L58 70.5L40.6415 41Z" fill="black" fill-opacity="0.06"/>
    <path d="M340.642 76H306.358L289 105.5L306.358 135H340.642L358 105.5L340.642 76Z" fill="black" fill-opacity="0.06"/>
  </g>
</svg>
