<svg width="510" height="178" viewBox="0 0 510 178" fill="none" xmlns="http://www.w3.org/2000/svg">
  <mask id="mask0" mask-type="alpha" maskUnits="userSpaceOnUse" x="0" y="0" width="510" height="178">
    <rect x="1" y="1" width="508" height="176" rx="2" fill="white" stroke="#52A81F" stroke-width="2"/>
  </mask>
  <g mask="url(#mask0)">
    <path d="M347.874 70.5H347.585L347.441 70.7504L327.567 105.25L327.423 105.5L327.567 105.75L347.441 140.25L347.585 140.5H347.874H387.126H387.415L387.559 140.25L407.433 105.75L407.577 105.5L407.433 105.25L387.559 70.7504L387.415 70.5H387.126H347.874Z" stroke="#52A81F" stroke-opacity="0.1"/>
    <path d="M407.874 105.5H407.585L407.441 105.75L387.567 140.25L387.423 140.5L387.567 140.75L407.441 175.25L407.585 175.5H407.874H447.126H447.415L447.559 175.25L467.433 140.75L467.577 140.5L467.433 140.25L447.559 105.75L447.415 105.5H447.126H407.874Z" stroke="#52A81F" stroke-opacity="0.1"/>
    <path d="M467.874 140.5H467.585L467.441 140.75L447.567 175.25L447.423 175.5L447.567 175.75L467.441 210.25L467.585 210.5H467.874H507.126H507.415L507.559 210.25L527.433 175.75L527.577 175.5L527.433 175.25L507.559 140.75L507.415 140.5H507.126H467.874Z" stroke="#52A81F" stroke-opacity="0.1"/>
    <path d="M347.874 140.5H347.585L347.441 140.75L327.567 175.25L327.423 175.5L327.567 175.75L347.441 210.25L347.585 210.5H347.874H387.126H387.415L387.559 210.25L407.433 175.75L407.577 175.5L407.433 175.25L387.559 140.75L387.415 140.5H387.126H347.874Z" stroke="#52A81F" stroke-opacity="0.1"/>
    <path d="M287.874 105.5H287.585L287.441 105.75L267.567 140.25L267.423 140.5L267.567 140.75L287.441 175.25L287.585 175.5H287.874H327.126H327.415L327.559 175.25L347.433 140.75L347.577 140.5L347.433 140.25L327.559 105.75L327.415 105.5H327.126H287.874Z" stroke="#52A81F" stroke-opacity="0.1"/>
    <path d="M467.874 0.5H467.585L467.441 0.750418L447.567 35.2504L447.423 35.5L447.567 35.7496L467.441 70.2496L467.585 70.5H467.874H507.126H507.415L507.559 70.2496L527.433 35.7496L527.577 35.5L527.433 35.2504L507.559 0.750418L507.415 0.5H507.126H467.874Z" stroke="#52A81F" stroke-opacity="0.1"/>
    <path d="M407.874 35.5H407.585L407.441 35.7504L387.567 70.2504L387.423 70.5L387.567 70.7496L407.441 105.25L407.585 105.5H407.874H447.126H447.415L447.559 105.25L467.433 70.7496L467.577 70.5L467.433 70.2504L447.559 35.7504L447.415 35.5H447.126H407.874Z" stroke="#52A81F" stroke-opacity="0.1"/>
    <path d="M167.874 105.5H167.585L167.441 105.75L147.567 140.25L147.423 140.5L147.567 140.75L167.441 175.25L167.585 175.5H167.874H207.126H207.415L207.559 175.25L227.433 140.75L227.577 140.5L227.433 140.25L207.559 105.75L207.415 105.5H207.126H167.874Z" stroke="#52A81F" stroke-opacity="0.1"/>
    <path d="M227.874 140.5H227.585L227.441 140.75L207.567 175.25L207.423 175.5L207.567 175.75L227.441 210.25L227.585 210.5H227.874H267.126H267.415L267.559 210.25L287.433 175.75L287.577 175.5L287.433 175.25L267.559 140.75L267.415 140.5H267.126H227.874Z" stroke="#52A81F" stroke-opacity="0.1"/>
    <path d="M444.642 41H410.358L393 70.5L410.358 100H444.642L462 70.5L444.642 41Z" fill="#52A81F" fill-opacity="0.1"/>
    <path d="M504.642 6H470.358L453 35.5L470.358 65H504.642L522 35.5L504.642 6Z" fill="#52A81F" fill-opacity="0.1"/>
    <path d="M384.642 76H350.358L333 105.5L350.358 135H384.642L402 105.5L384.642 76Z" fill="#52A81F" fill-opacity="0.1"/>
    <path d="M384.642 76H350.358L333 105.5L350.358 135H384.642L402 105.5L384.642 76Z" stroke="#52A81F"/>
    <path d="M444.642 111H410.358L393 140.5L410.358 170H444.642L462 140.5L444.642 111Z" fill="#52A81F" fill-opacity="0.1"/>
    <path d="M444.642 111H410.358L393 140.5L410.358 170H444.642L462 140.5L444.642 111Z" stroke="#52A81F"/>
    <path d="M504.642 146H470.358L453 175.5L470.358 205H504.642L522 175.5L504.642 146Z" fill="#52A81F" fill-opacity="0.1"/>
    <path d="M504.642 146H470.358L453 175.5L470.358 205H504.642L522 175.5L504.642 146Z" stroke="#52A81F"/>
    <path d="M384.642 146H350.358L333 175.5L350.358 205H384.642L402 175.5L384.642 146Z" fill="#52A81F" fill-opacity="0.1"/>
    <path d="M384.642 146H350.358L333 175.5L350.358 205H384.642L402 175.5L384.642 146Z" stroke="#52A81F"/>
    <path d="M324.642 111H290.358L273 140.5L290.358 170H324.642L342 140.5L324.642 111Z" fill="#52A81F" fill-opacity="0.1"/>
    <path d="M324.642 111H290.358L273 140.5L290.358 170H324.642L342 140.5L324.642 111Z" stroke="#52A81F"/>
    <path d="M204.642 111H170.358L153 140.5L170.358 170H204.642L222 140.5L204.642 111Z" fill="#52A81F" fill-opacity="0.1"/>
    <path d="M204.642 111H170.358L153 140.5L170.358 170H204.642L222 140.5L204.642 111Z" stroke="#52A81F"/>
    <path d="M264.642 146H230.358L213 175.5L230.358 205H264.642L282 175.5L264.642 146Z" fill="#52A81F" fill-opacity="0.1"/>
    <path d="M264.642 146H230.358L213 175.5L230.358 205H264.642L282 175.5L264.642 146Z" stroke="#52A81F"/>
    <path d="M27.1258 70.5H27.4148L27.559 70.7504L47.4333 105.25L47.577 105.5L47.4333 105.75L27.559 140.25L27.4148 140.5H27.1258H-12.1258H-12.4148L-12.559 140.25L-32.4333 105.75L-32.577 105.5L-32.4333 105.25L-12.559 70.7504L-12.4148 70.5H-12.1258H27.1258Z" stroke="#52A81F" stroke-opacity="0.1"/>
    <path d="M27.1258 140.5H27.4148L27.559 140.75L47.4333 175.25L47.577 175.5L47.4333 175.75L27.559 210.25L27.4148 210.5H27.1258H-12.1258H-12.4148L-12.559 210.25L-32.4333 175.75L-32.577 175.5L-32.4333 175.25L-12.559 140.75L-12.4148 140.5H-12.1258H27.1258Z" stroke="#52A81F" stroke-opacity="0.1"/>
    <path d="M147.126 70.5H147.415L147.559 70.7504L167.433 105.25L167.577 105.5L167.433 105.75L147.559 140.25L147.415 140.5H147.126H107.874H107.585L107.441 140.25L87.5667 105.75L87.423 105.5L87.5667 105.25L107.441 70.7504L107.585 70.5H107.874H147.126Z" stroke="#52A81F" stroke-opacity="0.1"/>
    <path d="M147.126 140.5H147.415L147.559 140.75L167.433 175.25L167.577 175.5L167.433 175.75L147.559 210.25L147.415 210.5H147.126H107.874H107.585L107.441 210.25L87.5667 175.75L87.423 175.5L87.5667 175.25L107.441 140.75L107.585 140.5H107.874H147.126Z" stroke="#52A81F" stroke-opacity="0.1"/>
    <path d="M87.1258 105.5H87.4148L87.559 105.75L107.433 140.25L107.577 140.5L107.433 140.75L87.559 175.25L87.4148 175.5H87.1258H47.8742H47.5852L47.441 175.25L27.5667 140.75L27.423 140.5L27.5667 140.25L47.441 105.75L47.5852 105.5H47.8742H87.1258Z" stroke="#52A81F" stroke-opacity="0.1"/>
    <path d="M-9.64151 76H24.6415L42 105.5L24.6415 135H-9.64151L-27 105.5L-9.64151 76Z" fill="#52A81F" fill-opacity="0.1"/>
    <path d="M-9.64151 76H24.6415L42 105.5L24.6415 135H-9.64151L-27 105.5L-9.64151 76Z" stroke="#52A81F"/>
    <path d="M-9.64151 146H24.6415L42 175.5L24.6415 205H-9.64151L-27 175.5L-9.64151 146Z" fill="#52A81F" fill-opacity="0.1"/>
    <path d="M-9.64151 146H24.6415L42 175.5L24.6415 205H-9.64151L-27 175.5L-9.64151 146Z" stroke="#52A81F"/>
    <path d="M110.358 76H144.642L162 105.5L144.642 135H110.358L93 105.5L110.358 76Z" fill="#52A81F" fill-opacity="0.1"/>
    <path d="M110.358 76H144.642L162 105.5L144.642 135H110.358L93 105.5L110.358 76Z" stroke="#52A81F"/>
    <path d="M110.358 146H144.642L162 175.5L144.642 205H110.358L93 175.5L110.358 146Z" fill="#52A81F" fill-opacity="0.1"/>
    <path d="M110.358 146H144.642L162 175.5L144.642 205H110.358L93 175.5L110.358 146Z" stroke="#52A81F"/>
    <path d="M50.3585 111H84.6415L102 140.5L84.6415 170H50.3585L33 140.5L50.3585 111Z" fill="#52A81F" fill-opacity="0.1"/>
    <path d="M50.3585 111H84.6415L102 140.5L84.6415 170H50.3585L33 140.5L50.3585 111Z" stroke="#52A81F"/>
    <path d="M385.874 47.5H385.585L385.441 47.7504L365.567 82.2504L365.423 82.5L365.567 82.7496L385.441 117.25L385.585 117.5H385.874H425.126H425.415L425.559 117.25L445.433 82.7496L445.577 82.5L445.433 82.2504L425.559 47.7504L425.415 47.5H425.126H385.874Z" stroke="#52A81F"/>
    <path d="M445.874 82.5H445.585L445.441 82.7504L425.567 117.25L425.423 117.5L425.567 117.75L445.441 152.25L445.585 152.5H445.874H485.126H485.415L485.559 152.25L505.433 117.75L505.577 117.5L505.433 117.25L485.559 82.7504L485.415 82.5H485.126H445.874Z" stroke="#52A81F"/>
    <path d="M385.874 117.5H385.585L385.441 117.75L365.567 152.25L365.423 152.5L365.567 152.75L385.441 187.25L385.585 187.5H385.874H425.126H425.415L425.559 187.25L445.433 152.75L445.577 152.5L445.433 152.25L425.559 117.75L425.415 117.5H425.126H385.874Z" stroke="#52A81F"/>
    <path d="M325.874 82.5H325.585L325.441 82.7504L305.567 117.25L305.423 117.5L305.567 117.75L325.441 152.25L325.585 152.5H325.874H365.126H365.415L365.559 152.25L385.433 117.75L385.577 117.5L385.433 117.25L365.559 82.7504L365.415 82.5H365.126H325.874Z" stroke="#52A81F"/>
    <path d="M205.874 82.5H205.585L205.441 82.7504L185.567 117.25L185.423 117.5L185.567 117.75L205.441 152.25L205.585 152.5H205.874H245.126H245.415L245.559 152.25L265.433 117.75L265.577 117.5L265.433 117.25L245.559 82.7504L245.415 82.5H245.126H205.874Z" stroke="#52A81F"/>
    <path d="M205.874 152.5H205.585L205.441 152.75L185.567 187.25L185.423 187.5L185.567 187.75L205.441 222.25L205.585 222.5H205.874H245.126H245.415L245.559 222.25L265.433 187.75L265.577 187.5L265.433 187.25L245.559 152.75L245.415 152.5H245.126H205.874Z" stroke="#52A81F"/>
    <path d="M265.874 117.5H265.585L265.441 117.75L245.567 152.25L245.423 152.5L245.567 152.75L265.441 187.25L265.585 187.5H265.874H305.126H305.415L305.559 187.25L325.433 152.75L325.577 152.5L325.433 152.25L305.559 117.75L305.415 117.5H305.126H265.874Z" stroke="#52A81F"/>
    <path d="M5.12579 12.5H5.41478L5.55904 12.7504L25.4333 47.2504L25.577 47.5L25.4333 47.7496L5.55904 82.2496L5.41478 82.5H5.12579H-34.1258H-34.4148L-34.559 82.2496L-54.4333 47.7496L-54.577 47.5L-54.4333 47.2504L-34.559 12.7504L-34.4148 12.5H-34.1258H5.12579Z" stroke="#52A81F"/>
    <path d="M5.12579 82.5H5.41478L5.55904 82.7504L25.4333 117.25L25.577 117.5L25.4333 117.75L5.55904 152.25L5.41478 152.5H5.12579H-34.1258H-34.4148L-34.559 152.25L-54.4333 117.75L-54.577 117.5L-54.4333 117.25L-34.559 82.7504L-34.4148 82.5H-34.1258H5.12579Z" stroke="#52A81F"/>
    <path d="M65.1258 47.5H65.4148L65.559 47.7504L85.4333 82.2504L85.577 82.5L85.4333 82.7496L65.559 117.25L65.4148 117.5H65.1258H25.8742H25.5852L25.441 117.25L5.56675 82.7496L5.42297 82.5L5.56675 82.2504L25.441 47.7504L25.5852 47.5H25.8742H65.1258Z" stroke="#52A81F"/>
    <path d="M125.126 152.5H125.415L125.559 152.75L145.433 187.25L145.577 187.5L145.433 187.75L125.559 222.25L125.415 222.5H125.126H85.8742H85.5852L85.441 222.25L65.5667 187.75L65.423 187.5L65.5667 187.25L85.441 152.75L85.5852 152.5H85.8742H125.126Z" stroke="#52A81F"/>
    <path d="M185.126 117.5H185.415L185.559 117.75L205.433 152.25L205.577 152.5L205.433 152.75L185.559 187.25L185.415 187.5H185.126H145.874H145.585L145.441 187.25L125.567 152.75L125.423 152.5L125.567 152.25L145.441 117.75L145.585 117.5H145.874H185.126Z" stroke="#52A81F"/>
    <path d="M125.126 82.5H125.415L125.559 82.7504L145.433 117.25L145.577 117.5L145.433 117.75L125.559 152.25L125.415 152.5H125.126H85.8742H85.5852L85.441 152.25L65.5667 117.75L65.423 117.5L65.5667 117.25L85.441 82.7504L85.5852 82.5H85.8742H125.126Z" stroke="#52A81F"/>
  </g>
</svg>
