<svg width="800" height="151" viewBox="0 0 800 151" fill="none" xmlns="http://www.w3.org/2000/svg">
  <mask id="mask0" mask-type="alpha" maskUnits="userSpaceOnUse" x="0" y="0" width="800" height="151">
    <rect x="1" y="1" width="798" height="149" rx="2" fill="white" stroke="white" stroke-width="2"/>
  </mask>
  <g mask="url(#mask0)">
    <path d="M766.874 105.5H766.585L766.441 105.75L746.567 140.25L746.423 140.5L746.567 140.75L766.441 175.25L766.585 175.5H766.874H806.126H806.415L806.559 175.25L826.433 140.75L826.577 140.5L826.433 140.25L806.559 105.75L806.415 105.5H806.126H766.874Z" stroke="#52A81F" stroke-opacity="0.1"/>
    <path d="M706.874 140.5H706.585L706.441 140.75L686.567 175.25L686.423 175.5L686.567 175.75L706.441 210.25L706.585 210.5H706.874H746.126H746.415L746.559 210.25L766.433 175.75L766.577 175.5L766.433 175.25L746.559 140.75L746.415 140.5H746.126H706.874Z" stroke="#52A81F" stroke-opacity="0.1"/>
    <path d="M586.874 140.5H586.585L586.441 140.75L566.567 175.25L566.423 175.5L566.567 175.75L586.441 210.25L586.585 210.5H586.874H626.126H626.415L626.559 210.25L646.433 175.75L646.577 175.5L646.433 175.25L626.559 140.75L626.415 140.5H626.126H586.874Z" stroke="#52A81F" stroke-opacity="0.1"/>
    <path d="M803.642 111H769.358L752 140.5L769.358 170H803.642L821 140.5L803.642 111Z" fill="#52A81F" fill-opacity="0.1"/>
    <path d="M803.642 111H769.358L752 140.5L769.358 170H803.642L821 140.5L803.642 111Z" stroke="#52A81F"/>
    <path d="M743.642 146H709.358L692 175.5L709.358 205H743.642L761 175.5L743.642 146Z" fill="#52A81F" fill-opacity="0.1"/>
    <path d="M743.642 146H709.358L692 175.5L709.358 205H743.642L761 175.5L743.642 146Z" stroke="#52A81F"/>
    <path d="M646.874 105.5H646.585L646.441 105.75L626.567 140.25L626.423 140.5L626.567 140.75L646.441 175.25L646.585 175.5H646.874H686.126H686.415L686.559 175.25L706.433 140.75L706.577 140.5L706.433 140.25L686.559 105.75L686.415 105.5H686.126H646.874Z" stroke="#52A81F" stroke-opacity="0.1"/>
    <path d="M683.642 111H649.358L632 140.5L649.358 170H683.642L701 140.5L683.642 111Z" fill="#52A81F" fill-opacity="0.1"/>
    <path d="M683.642 111H649.358L632 140.5L649.358 170H683.642L701 140.5L683.642 111Z" stroke="#52A81F"/>
    <path d="M766.874 35.5H766.585L766.441 35.7504L746.567 70.2504L746.423 70.5L746.567 70.7496L766.441 105.25L766.585 105.5H766.874H806.126H806.415L806.559 105.25L826.433 70.7496L826.577 70.5L826.433 70.2504L806.559 35.7504L806.415 35.5H806.126H766.874Z" stroke="#52A81F" stroke-opacity="0.1"/>
    <path d="M803.642 41H769.358L752 70.5L769.358 100H803.642L821 70.5L803.642 41Z" fill="#52A81F" fill-opacity="0.1"/>
    <path d="M803.642 41H769.358L752 70.5L769.358 100H803.642L821 70.5L803.642 41Z" stroke="#52A81F"/>
    <path d="M623.642 146H589.358L572 175.5L589.358 205H623.642L641 175.5L623.642 146Z" fill="#52A81F" fill-opacity="0.1"/>
    <path d="M623.642 146H589.358L572 175.5L589.358 205H623.642L641 175.5L623.642 146Z" stroke="#52A81F"/>
    <path d="M526.874 105.5H526.585L526.441 105.75L506.567 140.25L506.423 140.5L506.567 140.75L526.441 175.25L526.585 175.5H526.874H566.126H566.415L566.559 175.25L586.433 140.75L586.577 140.5L586.433 140.25L566.559 105.75L566.415 105.5H566.126H526.874Z" stroke="#52A81F" stroke-opacity="0.1"/>
    <path d="M563.642 111H529.358L512 140.5L529.358 170H563.642L581 140.5L563.642 111Z" fill="#52A81F" fill-opacity="0.1"/>
    <path d="M563.642 111H529.358L512 140.5L529.358 170H563.642L581 140.5L563.642 111Z" stroke="#52A81F"/>
    <path d="M586.874 70.5H586.585L586.441 70.7504L566.567 105.25L566.423 105.5L566.567 105.75L586.441 140.25L586.585 140.5H586.874H626.126H626.415L626.559 140.25L646.433 105.75L646.577 105.5L646.433 105.25L626.559 70.7504L626.415 70.5H626.126H586.874Z" stroke="#52A81F" stroke-opacity="0.1"/>
    <path d="M623.642 76H589.358L572 105.5L589.358 135H623.642L641 105.5L623.642 76Z" fill="#52A81F" fill-opacity="0.1"/>
    <path d="M623.642 76H589.358L572 105.5L589.358 135H623.642L641 105.5L623.642 76Z" stroke="#52A81F"/>
    <path d="M26.1258 70.5H26.4148L26.559 70.7504L46.4333 105.25L46.577 105.5L46.4333 105.75L26.559 140.25L26.4148 140.5H26.1258H-13.1258H-13.4148L-13.559 140.25L-33.4333 105.75L-33.577 105.5L-33.4333 105.25L-13.559 70.7504L-13.4148 70.5H-13.1258H26.1258Z" stroke="#52A81F" stroke-opacity="0.1"/>
    <path d="M26.1258 140.5H26.4148L26.559 140.75L46.4333 175.25L46.577 175.5L46.4333 175.75L26.559 210.25L26.4148 210.5H26.1258H-13.1258H-13.4148L-13.559 210.25L-33.4333 175.75L-33.577 175.5L-33.4333 175.25L-13.559 140.75L-13.4148 140.5H-13.1258H26.1258Z" stroke="#52A81F" stroke-opacity="0.1"/>
    <path d="M86.1258 105.5H86.4148L86.559 105.75L106.433 140.25L106.577 140.5L106.433 140.75L86.559 175.25L86.4148 175.5H86.1258H46.8742H46.5852L46.441 175.25L26.5667 140.75L26.423 140.5L26.5667 140.25L46.441 105.75L46.5852 105.5H46.8742H86.1258Z" stroke="#52A81F" stroke-opacity="0.1"/>
    <path d="M206.126 105.5H206.415L206.559 105.75L226.433 140.25L226.577 140.5L226.433 140.75L206.559 175.25L206.415 175.5H206.126H166.874H166.585L166.441 175.25L146.567 140.75L146.423 140.5L146.567 140.25L166.441 105.75L166.585 105.5H166.874H206.126Z" stroke="#52A81F" stroke-opacity="0.1"/>
    <path d="M146.126 140.5H146.415L146.559 140.75L166.433 175.25L166.577 175.5L166.433 175.75L146.559 210.25L146.415 210.5H146.126H106.874H106.585L106.441 210.25L86.5667 175.75L86.423 175.5L86.5667 175.25L106.441 140.75L106.585 140.5H106.874H146.126Z" stroke="#52A81F" stroke-opacity="0.1"/>
    <path d="M-10.6415 76H23.6415L41 105.5L23.6415 135H-10.6415L-28 105.5L-10.6415 76Z" fill="#52A81F" fill-opacity="0.1"/>
    <path d="M-10.6415 76H23.6415L41 105.5L23.6415 135H-10.6415L-28 105.5L-10.6415 76Z" stroke="#52A81F"/>
    <path d="M-10.6415 146H23.6415L41 175.5L23.6415 205H-10.6415L-28 175.5L-10.6415 146Z" fill="#52A81F" fill-opacity="0.1"/>
    <path d="M-10.6415 146H23.6415L41 175.5L23.6415 205H-10.6415L-28 175.5L-10.6415 146Z" stroke="#52A81F"/>
    <path d="M49.3585 111H83.6415L101 140.5L83.6415 170H49.3585L32 140.5L49.3585 111Z" fill="#52A81F" fill-opacity="0.1"/>
    <path d="M49.3585 111H83.6415L101 140.5L83.6415 170H49.3585L32 140.5L49.3585 111Z" stroke="#52A81F"/>
    <path d="M26.1258 0.5H26.4148L26.559 0.750418L46.4333 35.2504L46.577 35.5L46.4333 35.7496L26.559 70.2496L26.4148 70.5H26.1258H-13.1258H-13.4148L-13.559 70.2496L-33.4333 35.7496L-33.577 35.5L-33.4333 35.2504L-13.559 0.750418L-13.4148 0.5H-13.1258H26.1258Z" stroke="#52A81F" stroke-opacity="0.1"/>
    <path d="M-10.6415 6H23.6415L41 35.5L23.6415 65H-10.6415L-28 35.5L-10.6415 6Z" fill="#52A81F" fill-opacity="0.1"/>
    <path d="M-10.6415 6H23.6415L41 35.5L23.6415 65H-10.6415L-28 35.5L-10.6415 6Z" stroke="#52A81F"/>
    <path d="M169.358 111H203.642L221 140.5L203.642 170H169.358L152 140.5L169.358 111Z" fill="#52A81F" fill-opacity="0.1"/>
    <path d="M169.358 111H203.642L221 140.5L203.642 170H169.358L152 140.5L169.358 111Z" stroke="#52A81F"/>
    <path d="M266.126 70.5H266.415L266.559 70.7504L286.433 105.25L286.577 105.5L286.433 105.75L266.559 140.25L266.415 140.5H266.126H226.874H226.585L226.441 140.25L206.567 105.75L206.423 105.5L206.567 105.25L226.441 70.7504L226.585 70.5H226.874H266.126Z" stroke="#52A81F" stroke-opacity="0.1"/>
    <path d="M266.126 140.5H266.415L266.559 140.75L286.433 175.25L286.577 175.5L286.433 175.75L266.559 210.25L266.415 210.5H266.126H226.874H226.585L226.441 210.25L206.567 175.75L206.423 175.5L206.567 175.25L226.441 140.75L226.585 140.5H226.874H266.126Z" stroke="#52A81F" stroke-opacity="0.1"/>
    <path d="M229.358 76H263.642L281 105.5L263.642 135H229.358L212 105.5L229.358 76Z" fill="#52A81F" fill-opacity="0.1"/>
    <path d="M229.358 76H263.642L281 105.5L263.642 135H229.358L212 105.5L229.358 76Z" stroke="#52A81F"/>
    <path d="M229.358 146H263.642L281 175.5L263.642 205H229.358L212 175.5L229.358 146Z" fill="#52A81F" fill-opacity="0.1"/>
    <path d="M229.358 146H263.642L281 175.5L263.642 205H229.358L212 175.5L229.358 146Z" stroke="#52A81F"/>
    <path d="M326.126 35.5H326.415L326.559 35.7504L346.433 70.2504L346.577 70.5L346.433 70.7496L326.559 105.25L326.415 105.5H326.126H286.874H286.585L286.441 105.25L266.567 70.7496L266.423 70.5L266.567 70.2504L286.441 35.7504L286.585 35.5H286.874H326.126Z" stroke="#52A81F" stroke-opacity="0.1"/>
    <path d="M326.126 105.5H326.415L326.559 105.75L346.433 140.25L346.577 140.5L346.433 140.75L326.559 175.25L326.415 175.5H326.126H286.874H286.585L286.441 175.25L266.567 140.75L266.423 140.5L266.567 140.25L286.441 105.75L286.585 105.5H286.874H326.126Z" stroke="#52A81F" stroke-opacity="0.1"/>
    <path d="M289.358 41H323.642L341 70.5L323.642 100H289.358L272 70.5L289.358 41Z" fill="#52A81F" fill-opacity="0.1"/>
    <path d="M289.358 41H323.642L341 70.5L323.642 100H289.358L272 70.5L289.358 41Z" stroke="#52A81F"/>
    <path d="M289.358 111H323.642L341 140.5L323.642 170H289.358L272 140.5L289.358 111Z" fill="#52A81F" fill-opacity="0.1"/>
    <path d="M289.358 111H323.642L341 140.5L323.642 170H289.358L272 140.5L289.358 111Z" stroke="#52A81F"/>
    <path d="M386.126 70.5H386.415L386.559 70.7504L406.433 105.25L406.577 105.5L406.433 105.75L386.559 140.25L386.415 140.5H386.126H346.874H346.585L346.441 140.25L326.567 105.75L326.423 105.5L326.567 105.25L346.441 70.7504L346.585 70.5H346.874H386.126Z" stroke="#52A81F" stroke-opacity="0.1"/>
    <path d="M386.126 140.5H386.415L386.559 140.75L406.433 175.25L406.577 175.5L406.433 175.75L386.559 210.25L386.415 210.5H386.126H346.874H346.585L346.441 210.25L326.567 175.75L326.423 175.5L326.567 175.25L346.441 140.75L346.585 140.5H346.874H386.126Z" stroke="#52A81F" stroke-opacity="0.1"/>
    <path d="M349.358 76H383.642L401 105.5L383.642 135H349.358L332 105.5L349.358 76Z" fill="#52A81F" fill-opacity="0.1"/>
    <path d="M349.358 76H383.642L401 105.5L383.642 135H349.358L332 105.5L349.358 76Z" stroke="#52A81F"/>
    <path d="M349.358 146H383.642L401 175.5L383.642 205H349.358L332 175.5L349.358 146Z" fill="#52A81F" fill-opacity="0.1"/>
    <path d="M349.358 146H383.642L401 175.5L383.642 205H349.358L332 175.5L349.358 146Z" stroke="#52A81F"/>
    <path d="M446.126 105.5H446.415L446.559 105.75L466.433 140.25L466.577 140.5L466.433 140.75L446.559 175.25L446.415 175.5H446.126H406.874H406.585L406.441 175.25L386.567 140.75L386.423 140.5L386.567 140.25L406.441 105.75L406.585 105.5H406.874H446.126Z" stroke="#52A81F" stroke-opacity="0.1"/>
    <path d="M409.358 111H443.642L461 140.5L443.642 170H409.358L392 140.5L409.358 111Z" fill="#52A81F" fill-opacity="0.1"/>
    <path d="M409.358 111H443.642L461 140.5L443.642 170H409.358L392 140.5L409.358 111Z" stroke="#52A81F"/>
    <path d="M506.126 70.5H506.415L506.559 70.7504L526.433 105.25L526.577 105.5L526.433 105.75L506.559 140.25L506.415 140.5H506.126H466.874H466.585L466.441 140.25L446.567 105.75L446.423 105.5L446.567 105.25L466.441 70.7504L466.585 70.5H466.874H506.126Z" stroke="#52A81F" stroke-opacity="0.1"/>
    <path d="M506.126 140.5H506.415L506.559 140.75L526.433 175.25L526.577 175.5L526.433 175.75L506.559 210.25L506.415 210.5H506.126H466.874H466.585L466.441 210.25L446.567 175.75L446.423 175.5L446.567 175.25L466.441 140.75L466.585 140.5H466.874H506.126Z" stroke="#52A81F" stroke-opacity="0.1"/>
    <path d="M469.358 76H503.642L521 105.5L503.642 135H469.358L452 105.5L469.358 76Z" fill="#52A81F" fill-opacity="0.1"/>
    <path d="M469.358 76H503.642L521 105.5L503.642 135H469.358L452 105.5L469.358 76Z" stroke="#52A81F"/>
    <path d="M469.358 146H503.642L521 175.5L503.642 205H469.358L452 175.5L469.358 146Z" fill="#52A81F" fill-opacity="0.1"/>
    <path d="M469.358 146H503.642L521 175.5L503.642 205H469.358L452 175.5L469.358 146Z" stroke="#52A81F"/>
    <path d="M109.358 146H143.642L161 175.5L143.642 205H109.358L92 175.5L109.358 146Z" fill="#52A81F" fill-opacity="0.1"/>
    <path d="M109.358 146H143.642L161 175.5L143.642 205H109.358L92 175.5L109.358 146Z" stroke="#52A81F"/>
    <path d="M788.874 47.5H788.585L788.441 47.7504L768.567 82.2504L768.423 82.5L768.567 82.7496L788.441 117.25L788.585 117.5H788.874H828.126H828.415L828.559 117.25L848.433 82.7496L848.577 82.5L848.433 82.2504L828.559 47.7504L828.415 47.5H828.126H788.874Z" stroke="#52A81F"/>
    <path d="M728.874 82.5H728.585L728.441 82.7504L708.567 117.25L708.423 117.5L708.567 117.75L728.441 152.25L728.585 152.5H728.874H768.126H768.415L768.559 152.25L788.433 117.75L788.577 117.5L788.433 117.25L768.559 82.7504L768.415 82.5H768.126H728.874Z" stroke="#52A81F"/>
    <path d="M728.874 12.5H728.585L728.441 12.7504L708.567 47.2504L708.423 47.5L708.567 47.7496L728.441 82.2496L728.585 82.5H728.874H768.126H768.415L768.559 82.2496L788.433 47.7496L788.577 47.5L788.433 47.2504L768.559 12.7504L768.415 12.5H768.126H728.874Z" stroke="#52A81F"/>
    <path d="M608.874 82.5H608.585L608.441 82.7504L588.567 117.25L588.423 117.5L588.567 117.75L608.441 152.25L608.585 152.5H608.874H648.126H648.415L648.559 152.25L668.433 117.75L668.577 117.5L668.433 117.25L648.559 82.7504L648.415 82.5H648.126H608.874Z" stroke="#52A81F"/>
    <path d="M548.874 117.5H548.585L548.441 117.75L528.567 152.25L528.423 152.5L528.567 152.75L548.441 187.25L548.585 187.5H548.874H588.126H588.415L588.559 187.25L608.433 152.75L608.577 152.5L608.433 152.25L588.559 117.75L588.415 117.5H588.126H548.874Z" stroke="#52A81F"/>
    <path d="M668.874 117.5H668.585L668.441 117.75L648.567 152.25L648.423 152.5L648.567 152.75L668.441 187.25L668.585 187.5H668.874H708.126H708.415L708.559 187.25L728.433 152.75L728.577 152.5L728.433 152.25L708.559 117.75L708.415 117.5H708.126H668.874Z" stroke="#52A81F"/>
    <path d="M48.1258 82.5H48.4148L48.559 82.7504L68.4333 117.25L68.577 117.5L68.4333 117.75L48.559 152.25L48.4148 152.5H48.1258H8.87421H8.58522L8.44096 152.25L-11.4333 117.75L-11.577 117.5L-11.4333 117.25L8.44096 82.7504L8.58522 82.5H8.87421H48.1258Z" stroke="#52A81F"/>
    <path d="M48.1258 12.5H48.4148L48.559 12.7504L68.4333 47.2504L68.577 47.5L68.4333 47.7496L48.559 82.2496L48.4148 82.5H48.1258H8.87421H8.58522L8.44096 82.2496L-11.4333 47.7496L-11.577 47.5L-11.4333 47.2504L8.44096 12.7504L8.58522 12.5H8.87421H48.1258Z" stroke="#52A81F"/>
    <path d="M168.126 82.5H168.415L168.559 82.7504L188.433 117.25L188.577 117.5L188.433 117.75L168.559 152.25L168.415 152.5H168.126H128.874H128.585L128.441 152.25L108.567 117.75L108.423 117.5L108.567 117.25L128.441 82.7504L128.585 82.5H128.874H168.126Z" stroke="#52A81F"/>
    <path d="M228.126 117.5H228.415L228.559 117.75L248.433 152.25L248.577 152.5L248.433 152.75L228.559 187.25L228.415 187.5H228.126H188.874H188.585L188.441 187.25L168.567 152.75L168.423 152.5L168.567 152.25L188.441 117.75L188.585 117.5H188.874H228.126Z" stroke="#52A81F"/>
    <path d="M288.126 82.5H288.415L288.559 82.7504L308.433 117.25L308.577 117.5L308.433 117.75L288.559 152.25L288.415 152.5H288.126H248.874H248.585L248.441 152.25L228.567 117.75L228.423 117.5L228.567 117.25L248.441 82.7504L248.585 82.5H248.874H288.126Z" stroke="#52A81F"/>
    <path d="M348.126 117.5H348.415L348.559 117.75L368.433 152.25L368.577 152.5L368.433 152.75L348.559 187.25L348.415 187.5H348.126H308.874H308.585L308.441 187.25L288.567 152.75L288.423 152.5L288.567 152.25L308.441 117.75L308.585 117.5H308.874H348.126Z" stroke="#52A81F"/>
    <path d="M408.126 82.5H408.415L408.559 82.7504L428.433 117.25L428.577 117.5L428.433 117.75L408.559 152.25L408.415 152.5H408.126H368.874H368.585L368.441 152.25L348.567 117.75L348.423 117.5L348.567 117.25L368.441 82.7504L368.585 82.5H368.874H408.126Z" stroke="#52A81F"/>
    <path d="M468.126 117.5H468.415L468.559 117.75L488.433 152.25L488.577 152.5L488.433 152.75L468.559 187.25L468.415 187.5H468.126H428.874H428.585L428.441 187.25L408.567 152.75L408.423 152.5L408.567 152.25L428.441 117.75L428.585 117.5H428.874H468.126Z" stroke="#52A81F"/>
    <path d="M528.126 82.5H528.415L528.559 82.7504L548.433 117.25L548.577 117.5L548.433 117.75L528.559 152.25L528.415 152.5H528.126H488.874H488.585L488.441 152.25L468.567 117.75L468.423 117.5L468.567 117.25L488.441 82.7504L488.585 82.5H488.874H528.126Z" stroke="#52A81F"/>
    <path d="M108.126 117.5H108.415L108.559 117.75L128.433 152.25L128.577 152.5L128.433 152.75L108.559 187.25L108.415 187.5H108.126H68.8742H68.5852L68.441 187.25L48.5667 152.75L48.423 152.5L48.5667 152.25L68.441 117.75L68.5852 117.5H68.8742H108.126Z" stroke="#52A81F"/>
  </g>
</svg>
