<svg xmlns="http://www.w3.org/2000/svg" viewBox="0 0 425.2 425.2">
	<g  fill="#1aab78">
		<path d="M249.6,39.6c-3.1,6-16.5,4.8-30-2.7s-21.9-18.4-18.8-24.4s16.5-4.8,30,2.7S252.7,33.6,249.6,39.6"/>
		<path d="M280.2,106c-0.8,8-14,13.7-29.6,12.7s-27.6-8.2-26.9-16.2c0.8-8,14-13.7,29.6-12.7S281,98,280.2,106"/>
		<path d="M333.5,76.4c-3.9,1.7-10.2-0.3-13.9-4.4c-3.7-4.1-3.6-8.9,0.4-10.5c3.9-1.7,10.2,0.3,13.9,4.4
	C337.6,70,337.5,74.7,333.5,76.4"/>
		<path d="M375.7,76.8c2.9,3.5,3.9,7.6,2.2,9c-1.7,1.4-5.5-0.3-8.4-3.8s-3.9-7.6-2.2-9C369,71.6,372.8,73.3,375.7,76.8"/>
		<path d="M18.2,374.4c25.1,30.1,82.9,23.3,129.2-15.3c46.3-38.5,63.5-94.2,38.5-124.3c-25.1-30.1-82.9-23.3-129.2,15.3
	S-6.9,344.3,18.2,374.4"/>
		<path d="M389.5,207.6c-6.5,2-7.7,15.4-2.8,30c4.9,14.6,14.1,24.9,20.6,22.9s7.7-15.4,2.8-30C405.1,215.9,395.9,205.7,389.5,207.6"
		/>
		<path d="M329.7,165.4c-8-0.7-16,11.3-17.9,26.8s3.1,28.7,11.1,29.4s16-11.3,17.9-26.8C342.7,179.3,337.7,166.1,329.7,165.4"/>
		<path d="M368.6,118.3c-2.4,3.6-1.5,10.1,1.8,14.5c3.4,4.4,8.1,5.1,10.4,1.6c2.4-3.6,1.5-10.1-1.8-14.5
	C375.6,115.4,370.9,114.7,368.6,118.3"/>
	</g>
	<g fill="#0a61a0">
		<path d="M300.7,82.1c-3.5,4-13.2,2.7-21.6-2.9c-8.4-5.6-12.4-13.4-9-17.4c3.5-4,13.2-2.7,21.6,2.9
	C300.2,70.3,304.2,78.1,300.7,82.1"/>
		<path d="M363.5,86.9c3.5,4.2,4.9,8.9,3.1,10.5c-1.8,1.5-6.2-0.7-9.7-4.9s-4.9-8.9-3.1-10.5C355.6,80.5,360,82.7,363.5,86.9"/>
		<path d="M288.1,149.8c8.6,10.3,3.4,28.9-11.6,41.4s-34.2,14.3-42.8,3.9c-8.6-10.3-3.4-28.9,11.6-41.4
	C260.4,141.2,279.5,139.4,288.1,149.8"/>
		<path d="M344.6,131.2c-7.5,6.2-19.8,3.8-27.6-5.5c-7.7-9.3-7.9-21.8-0.4-28.1c7.5-6.2,19.8-3.8,27.6,5.5
	C352,112.3,352.1,124.9,344.6,131.2"/>
		<path d="M356.9,149.6c-4.6,2.7-5,12.4-1,21.8c4,9.3,10.9,14.7,15.5,12s5-12.4,1-21.8C368.4,152.3,361.5,146.9,356.9,149.6"/>
		<path d="M394.9,126c-2.3,2.8-1,8.8,3,13.5c3.9,4.7,9,6.2,11.2,3.4c2.3-2.8,0.9-8.8-3-13.5S397.2,123.2,394.9,126"/>
	</g>
	<g fill="#fbda18">
		<path d="M198.6,66c-2.6,11.1-24.5,15.1-48.9,8.9c-24.4-6.2-42-20.1-39.4-31.2c2.6-11.1,24.5-15.1,48.9-8.9
	C183.5,40.9,201.2,54.9,198.6,66"/>
		<path d="M356.5,64c-2.2,1.4-6.5-0.1-9.6-3.4c-3.1-3.3-3.7-7.1-1.5-8.5c2.2-1.4,6.5,0.1,9.6,3.4C358.1,58.7,358.8,62.6,356.5,64"/>
		<path d="M296.9,37.4c-2.6,3.3-10.4,1.2-17.4-4.5s-10.5-13-7.8-16.3c2.6-3.3,10.4-1.2,17.4,4.5C296,26.9,299.5,34.2,296.9,37.4"/>
		<path d="M289.3,279.6c-18.4-7.8-43.8,16.3-56.9,53.7c-13,37.4-8.7,74,9.7,81.8s43.8-16.3,56.9-53.7S307.7,287.4,289.3,279.6"/>
		<path d="M385,98.1c-1.8,1.9-1.1,6.5,1.6,10.1c2.7,3.6,6.3,5,8.1,3c1.8-1.9,1.1-6.5-1.6-10.1C390.4,97.5,386.8,96.2,385,98.1"/>
	</g>
	<g fill="#e3394d">
		<path d="M330.9,49.1c-3.2,1.7-8.9-0.7-12.8-5.4s-4.5-9.9-1.3-11.7c3.2-1.7,8.9,0.7,12.8,5.4C333.4,42.1,334,47.4,330.9,49.1"/>
		<path d="M160.6,124.9c4.3,19.5-24,40.2-63.1,46.2s-74.3-4.9-78.6-24.4s24-40.2,63.1-46.2C121.1,94.5,156.3,105.4,160.6,124.9"/>
		<path d="M354.3,253c-11.4,0.6-19.3,21.3-17.6,46.4c1.6,25.1,12.2,45,23.5,44.4c11.4-0.6,19.3-21.3,17.6-46.4
	C376.2,272.4,365.6,252.5,354.3,253"/>
		<path d="M400.2,161.5c-3.7,2-3.1,10,1.3,17.9s10.9,12.7,14.6,10.7c3.7-2,3.1-10-1.3-17.9C410.4,164.2,403.9,159.5,400.2,161.5"/>
	</g>
</svg>