<svg xmlns="http://www.w3.org/2000/svg" style="display: none;">
	<symbol id="logo" viewBox="0 0 425.2 425.2">
		<g  fill="#FFFFFF">
			<g transform="translate(220.87077,824.84821)">
				<path d="M-60.3-699.9c4.3,19.5-24,40.2-63.1,46.2
			c-39.1,6-74.3-4.9-78.6-24.4c-4.3-19.5,24-40.2,63.1-46.2C-99.8-730.3-64.6-719.4-60.3-699.9"/>
			</g>
			<g transform="translate(249.55187,869.46831)">
				<path d="M-51-803.5c-2.6,11.1-24.5,15.1-48.9,8.9
			c-24.4-6.2-42-20.1-39.4-31.2c2.6-11.1,24.5-15.1,48.9-8.9C-66.1-828.6-48.4-814.6-51-803.5"/>
			</g>
			<g transform="translate(288.17687,889.40091)">
				<path d="M-38.6-849.8c-3.1,6-16.5,4.8-30-2.7
			c-13.5-7.5-21.9-18.4-18.8-24.4c3.1-6,16.5-4.8,30,2.7C-43.9-866.7-35.5-855.8-38.6-849.8"/>
			</g>
			<g transform="translate(311.30877,839.17241)">
				<path d="M-31.1-733.2c-0.8,8-14,13.7-29.6,12.7
			c-15.6-1-27.6-8.2-26.9-16.2c0.8-8,14-13.7,29.6-12.7C-42.4-748.4-30.3-741.2-31.1-733.2"/>
			</g>
			<g transform="translate(326.82437,857.25451)">
				<path d="M-26.1-775.2c-3.5,4-13.2,2.7-21.6-2.9
			c-8.4-5.6-12.4-13.4-9-17.4c3.5-4,13.2-2.7,21.6,2.9C-26.6-787-22.6-779.2-26.1-775.2"/>
			</g>
			<g transform="translate(351.64517,861.56991)">
				<path d="M-18.1-785.2c-3.9,1.7-10.2-0.3-13.9-4.4
			c-3.7-4.1-3.6-8.9,0.4-10.5c3.9-1.7,10.2,0.3,13.9,4.4C-14-791.6-14.1-786.9-18.1-785.2"/>
			</g>
			<g transform="translate(349.55727,882.19491)">
				<path d="M-18.7-833.1c-3.2,1.7-8.9-0.7-12.8-5.4
			c-3.9-4.7-4.5-9.9-1.3-11.7c3.2-1.7,8.9,0.7,12.8,5.4C-16.2-840.1-15.6-834.8-18.7-833.1"/>
			</g>
			<g transform="translate(368.96307,870.97221)">
				<path d="M-12.5-807c-2.2,1.4-6.5-0.1-9.6-3.4
			c-3.1-3.3-3.7-7.1-1.5-8.5c2.2-1.4,6.5,0.1,9.6,3.4C-10.9-812.3-10.2-808.4-12.5-807"/>
			</g>
			<g transform="translate(383.51727,861.23001)">
				<path d="M-7.8-784.4c2.9,3.5,3.9,7.6,2.2,9
			c-1.7,1.4-5.5-0.3-8.4-3.8c-2.9-3.5-3.9-7.6-2.2-9C-14.5-789.6-10.7-787.9-7.8-784.4"/>
			</g>
			<g transform="translate(374.28577,853.54741)">
				<path d="M-10.8-766.6c3.5,4.2,4.9,8.9,3.1,10.5
			c-1.8,1.5-6.2-0.7-9.7-4.9c-3.5-4.2-4.9-8.9-3.1-10.5C-18.7-773-14.3-770.8-10.8-766.6"/>
			</g>
			<g transform="translate(113.20567,636.28081)">
				<path d="M-95-261.9c25.1,30.1,82.9,23.3,129.2-15.3
			c46.3-38.5,63.5-94.2,38.5-124.3c-25.1-30.1-82.9-23.3-129.2,15.3S-120.1-292-95-261.9"/>
			</g>
			<g transform="translate(317.26917,806.09921)">
				<path d="M-29.2-656.3c8.6,10.3,3.4,28.9-11.6,41.4
			c-15,12.5-34.2,14.3-42.8,3.9c-8.6-10.3-3.4-28.9,11.6-41.4C-56.9-664.9-37.8-666.7-29.2-656.3"/>
			</g>
			<g transform="translate(359.97377,820.17341)">
				<path d="M-15.4-689c-7.5,6.2-19.8,3.8-27.6-5.5
			c-7.7-9.3-7.9-21.8-0.4-28.1c7.5-6.2,19.8-3.8,27.6,5.5C-8-707.9-7.9-695.3-15.4-689"/>
			</g>
			<g transform="translate(323.92447,891.05131)">
				<path d="M-27-853.7c-2.6,3.3-10.4,1.2-17.4-4.5
			c-7-5.7-10.5-13-7.8-16.3c2.6-3.3,10.4-1.2,17.4,4.5C-27.9-864.2-24.4-856.9-27-853.7"/>
			</g>
			<g transform="translate(367.29657,728.00841)">
				<path d="M-13-475c-11.4,0.6-19.3,21.3-17.6,46.4
			c1.6,25.1,12.2,45,23.5,44.4c11.4-0.6,19.3-21.3,17.6-46.4C8.9-455.6-1.7-475.5-13-475"/>
			</g>
			<g transform="translate(393.91417,762.37071)">
				<path d="M-4.4-554.8c-6.5,2-7.7,15.4-2.8,30
			c4.9,14.6,14.1,24.9,20.6,22.9c6.5-2,7.7-15.4,2.8-30C11.2-546.5,2-556.7-4.4-554.8"/>
			</g>
			<g transform="translate(402.03087,797.22321)">
				<path d="M-1.8-635.7c-3.7,2-3.1,10,1.3,17.9
			c4.4,7.9,10.9,12.7,14.6,10.7c3.7-2,3.1-10-1.3-17.9C8.4-633,1.9-637.7-1.8-635.7"/>
			</g>
			<g transform="translate(318.20917,707.91071)">
				<path d="M-28.9-428.3c-18.4-7.8-43.8,16.3-56.9,53.7
			c-13,37.4-8.7,74,9.7,81.8c18.4,7.8,43.8-16.3,56.9-53.7S-10.5-420.5-28.9-428.3"/>
			</g>
			<g transform="translate(348.72377,794.24181)">
				<path d="M-19-628.8c-8-0.7-16,11.3-17.9,26.8
			c-1.9,15.5,3.1,28.7,11.1,29.4c8,0.7,16-11.3,17.9-26.8C-6-614.9-11-628.1-19-628.8"/>
			</g>
			<g transform="translate(369.32387,806.21441)">
				<path d="M-12.4-656.6c-4.6,2.7-5,12.4-1,21.8
			c4,9.3,10.9,14.7,15.5,12c4.6-2.7,5-12.4,1-21.8C-0.9-653.9-7.8-659.3-12.4-656.6"/>
			</g>
			<g transform="translate(378.07627,829.83841)">
				<path d="M-9.5-711.5c-2.4,3.6-1.5,10.1,1.8,14.5
			c3.4,4.4,8.1,5.1,10.4,1.6c2.4-3.6,1.5-10.1-1.8-14.5C-2.5-714.4-7.2-715.1-9.5-711.5"/>
			</g>
			<g transform="translate(397.97867,824.03861)">
				<path d="M-3.1-698c-2.3,2.8-1,8.8,3,13.5c3.9,4.7,9,6.2,11.2,3.4
			c2.3-2.8,0.9-8.8-3-13.5C4.2-699.3-0.8-700.8-3.1-698"/>
			</g>
			<g transform="translate(390.46787,845.15971)">
				<path d="M-5.5-747.1c-1.8,1.9-1.1,6.5,1.6,10.1
			c2.7,3.6,6.3,5,8.1,3c1.8-1.9,1.1-6.5-1.6-10.1C-0.1-747.7-3.7-749-5.5-747.1"/>
			</g>
		</g>
	</symbol>
</svg>
